<svg width="46" height="46" viewBox="0 0 46 46" fill="none" xmlns="http://www.w3.org/2000/svg">
<path fill-rule="evenodd" clip-rule="evenodd" d="M23.0303 43.4413C34.2139 43.4413 43.2803 34.375 43.2803 23.1914C43.2803 12.0078 34.2139 2.9414 23.0303 2.9414C11.8466 2.9414 2.78027 12.0078 2.78027 23.1914C2.78027 34.375 11.8466 43.4413 23.0303 43.4413ZM23.0303 45.6913C35.457 45.6913 45.5303 35.6181 45.5303 23.1914C45.5303 10.7646 35.457 0.691406 23.0303 0.691406C10.6035 0.691406 0.530273 10.7646 0.530273 23.1914C0.530273 35.6181 10.6035 45.6913 23.0303 45.6913Z" fill="#06122E"/>
<path d="M9.53027 36.2749C9.53027 35.1128 10.3988 34.1306 11.5553 34.0024C20.2346 33.0417 25.8653 33.1283 34.5255 34.0238C34.958 34.0692 35.3679 34.2396 35.7051 34.5141C36.0423 34.7886 36.2923 35.1554 36.4245 35.5697C36.5567 35.9839 36.5654 36.4277 36.4495 36.8468C36.3337 37.2659 36.0982 37.6422 35.772 37.9298C25.5514 46.8386 19.7104 46.716 10.2503 37.9388C9.78902 37.5113 9.53027 36.9038 9.53027 36.276V36.2749Z" fill="#06122E"/>
<path fill-rule="evenodd" clip-rule="evenodd" d="M34.4097 35.1426C25.818 34.2538 20.2684 34.1706 11.6779 35.1212C11.3951 35.1542 11.1344 35.2902 10.9458 35.5034C10.7571 35.7166 10.6536 35.9919 10.6553 36.2766C10.6553 36.5983 10.7892 36.9032 11.0153 37.1147C15.7043 41.4639 19.257 43.4293 22.7299 43.4417C26.2152 43.4541 29.9592 41.5044 35.0329 37.0832C35.1941 36.9397 35.3101 36.7525 35.3669 36.5443C35.4237 36.3362 35.4188 36.116 35.3528 35.9105C35.2868 35.7051 35.1625 35.5232 34.995 35.3871C34.8276 35.251 34.6242 35.1664 34.4097 35.1437V35.1426ZM11.4315 32.8847C20.202 31.9138 25.9148 32.0016 34.6425 32.905C35.2931 32.9729 35.9098 33.229 36.4171 33.642C36.9243 34.055 37.3002 34.6069 37.4986 35.2302C37.697 35.8535 37.7094 36.5211 37.5342 37.1514C37.359 37.7816 37.0039 38.3471 36.5123 38.7786C31.3654 43.2651 27.0792 45.7086 22.7232 45.6917C18.3548 45.6759 14.2575 43.1908 9.48641 38.7639C9.1448 38.4458 8.87248 38.0606 8.68647 37.6324C8.50045 37.2042 8.40472 36.7423 8.40528 36.2755C8.40364 35.4367 8.71151 34.6268 9.26991 34.0009C9.82832 33.3751 10.598 32.9772 11.4315 32.8836V32.8847Z" fill="#06122E"/>
<path d="M32.0303 18.6914C32.0303 21.0783 31.0821 23.3675 29.3942 25.0553C27.7064 26.7432 25.4172 27.6914 23.0303 27.6914C20.6433 27.6914 18.3541 26.7432 16.6663 25.0553C14.9785 23.3675 14.0303 21.0783 14.0303 18.6914C14.0303 16.3044 14.9785 14.0153 16.6663 12.3274C18.3541 10.6396 20.6433 9.69141 23.0303 9.69141C25.4172 9.69141 27.7064 10.6396 29.3942 12.3274C31.0821 14.0153 32.0303 16.3044 32.0303 18.6914Z" fill="#06122E"/>
<path fill-rule="evenodd" clip-rule="evenodd" d="M23.0303 25.4414C24.8205 25.4414 26.5374 24.7302 27.8032 23.4644C29.0691 22.1985 29.7803 20.4816 29.7803 18.6914C29.7803 16.9012 29.0691 15.1843 27.8032 13.9184C26.5374 12.6526 24.8205 11.9414 23.0303 11.9414C21.2401 11.9414 19.5232 12.6526 18.2573 13.9184C16.9914 15.1843 16.2803 16.9012 16.2803 18.6914C16.2803 20.4816 16.9914 22.1985 18.2573 23.4644C19.5232 24.7302 21.2401 25.4414 23.0303 25.4414ZM23.0303 27.6914C25.4172 27.6914 27.7064 26.7432 29.3942 25.0553C31.0821 23.3675 32.0303 21.0783 32.0303 18.6914C32.0303 16.3044 31.0821 14.0153 29.3942 12.3274C27.7064 10.6396 25.4172 9.69141 23.0303 9.69141C20.6433 9.69141 18.3541 10.6396 16.6663 12.3274C14.9785 14.0153 14.0303 16.3044 14.0303 18.6914C14.0303 21.0783 14.9785 23.3675 16.6663 25.0553C18.3541 26.7432 20.6433 27.6914 23.0303 27.6914Z" fill="#06122E"/>
</svg>
