<svg width="364" height="43" viewBox="0 0 364 43" fill="none" xmlns="http://www.w3.org/2000/svg">
<path d="M362.676 9.52531C362.676 18.1271 362.676 26.7682 362.676 36.1071C328.702 35.9267 295.412 35.3778 262.045 35.911C263.123 26.5721 264.071 17.8762 263.221 9.47041C296.33 6.60837 329.727 10.2702 362.676 9.52531ZM291.876 10.5055C291.42 14.2457 291.451 18.0095 291.693 21.9536C296.049 21.9536 299.995 21.9536 304.321 21.9536C304.07 17.9625 304.267 14.2379 302.894 10.5055C299.403 10.5055 296.026 10.5055 291.876 10.5055ZM331.002 11.0779C327.465 11.0779 324.119 11.0779 320.446 11.0779C320.621 14.7632 320.78 18.3467 320.962 22.1889C324.68 22.0242 328.156 22.5417 331.707 21.7655C332.367 18.2291 331.715 14.9201 331.002 11.0779ZM334.037 33.8174C338.074 33.8174 341.792 33.8174 345.587 33.8174C346.725 30.4457 346.353 27.2778 346.11 23.6944C341.967 23.961 338.036 24.2198 333.908 24.4864C333.969 27.6699 333.248 30.579 334.037 33.8174ZM348.341 21.2636C352.78 22.1497 356.689 21.5224 360.695 21.1225C360.817 17.6175 361.242 14.5594 360.407 11.415C356.286 12.0423 352.249 11.2033 348.349 12.254C348.341 15.2964 348.341 18.1193 348.341 21.2636ZM306.301 33.59C310.399 33.59 314.224 33.59 318.109 33.59C318.67 30.5006 318.928 27.7248 318.708 24.8471C314.315 24.8471 310.255 24.8471 306.149 24.8471C305.785 27.8581 305.565 30.5555 306.301 33.59ZM289.235 33.1509C289.356 30.1948 290.123 27.4503 289.311 24.8549C284.856 24.8549 280.645 24.8549 276.433 24.8549C276.433 27.7718 276.433 30.3202 276.433 33.1509C280.804 33.1509 284.879 33.1509 289.235 33.1509ZM274.065 22.1026C273.466 18.4172 273.868 15.0298 272.715 11.6111C270.423 11.2347 268.23 11.2347 265.946 11.564C264.99 14.7868 264.762 17.9389 265.346 21.2244C268.108 22.0556 270.787 22.3457 274.065 22.1026Z" fill="#F6F5E9"/>
<path d="M262.387 2.95449C266.128 1.61364 269.436 2.37423 272.578 2.16252C289.098 1.06475 305.664 0.100286 322.176 1.88809C334.143 3.18189 346.095 3.76214 358.108 3.37008C359.648 3.32303 361.181 3.17405 363.609 3.01723C361.5 5.38528 359.572 5.03242 357.834 5.07162C345.442 5.35391 333.088 4.65604 320.727 3.78566C302.545 2.4997 284.371 3.09563 266.227 4.73444C264.861 4.85206 264.861 4.87559 262.387 2.95449Z" fill="#F6F5E9"/>
<path d="M360.748 40.514C327.245 42.4429 294.053 42.7644 260.58 41.1569C261.377 38.8202 263.138 39.3378 264.648 39.3848C275.757 39.769 286.859 40.365 297.969 40.5375C313.244 40.7727 328.512 40.0356 343.78 39.5103C348.326 39.3535 352.871 39.3927 357.417 39.424C358.441 39.4397 359.648 38.9928 360.748 40.514Z" fill="#F6F5E9"/>
<path d="M193.855 9.52543C193.855 18.1273 193.855 26.7683 193.855 36.1072C159.881 35.9268 126.591 35.3779 93.2245 35.9111C94.302 26.5722 95.2506 17.8763 94.4007 9.47053C127.509 6.60849 160.906 10.2703 193.855 9.52543ZM123.055 10.5056C122.599 14.2458 122.63 18.0096 122.873 21.9538C127.228 21.9538 131.174 21.9538 135.5 21.9538C135.249 17.9626 135.447 14.238 134.073 10.5056C130.582 10.5056 127.206 10.5056 123.055 10.5056ZM162.181 11.078C158.645 11.078 155.298 11.078 151.625 11.078C151.8 14.7634 151.959 18.3468 152.141 22.189C155.86 22.0243 159.335 22.5419 162.886 21.7656C163.547 18.2292 162.894 14.9202 162.181 11.078ZM165.216 33.8175C169.253 33.8175 172.972 33.8175 176.766 33.8175C177.904 30.4458 177.532 27.278 177.289 23.6945C173.146 23.9611 169.215 24.2199 165.087 24.4865C165.148 27.67 164.427 30.5791 165.216 33.8175ZM179.52 21.2637C183.96 22.1498 187.868 21.5225 191.874 21.1226C191.996 17.6176 192.421 14.5595 191.586 11.4152C187.466 12.0425 183.428 11.2034 179.528 12.2542C179.52 15.2966 179.52 18.1194 179.52 21.2637ZM137.48 33.5901C141.578 33.5901 145.403 33.5901 149.288 33.5901C149.85 30.5007 150.108 27.7249 149.887 24.8472C145.494 24.8472 141.434 24.8472 137.329 24.8472C136.964 27.8582 136.744 30.5556 137.48 33.5901ZM120.414 33.151C120.535 30.1949 121.302 27.4505 120.49 24.855C116.035 24.855 111.824 24.855 107.612 24.855C107.612 27.7719 107.612 30.3203 107.612 33.151C111.983 33.151 116.058 33.151 120.414 33.151ZM105.245 22.1027C104.645 18.4174 105.047 15.03 103.894 11.6112C101.602 11.2348 99.409 11.2348 97.1249 11.5641C96.1688 14.7869 95.9411 17.9391 96.5255 21.2245C99.2876 22.0557 101.966 22.3458 105.245 22.1027Z" fill="#F6F5E9"/>
<path d="M93.5659 2.95461C97.307 1.61376 100.616 2.37435 103.757 2.16264C120.277 1.06487 136.843 0.100408 153.355 1.88821C165.322 3.18201 177.274 3.76226 189.287 3.3702C190.827 3.32316 192.36 3.17417 194.788 3.01735C192.679 5.3854 190.751 5.03254 189.014 5.07175C176.622 5.35403 164.268 4.65616 151.906 3.78578C133.724 2.49982 115.55 3.09575 97.4057 4.73457C96.0398 4.85218 96.0398 4.87571 93.5659 2.95461Z" fill="#F6F5E9"/>
<path d="M191.927 40.5141C158.424 42.443 125.233 42.7645 91.7599 41.1571C92.5567 38.8204 94.3172 39.3379 95.8273 39.3849C106.937 39.7692 118.039 40.3651 129.148 40.5376C144.424 40.7728 159.692 40.0358 174.96 39.5104C179.505 39.3536 184.051 39.3928 188.596 39.4242C189.621 39.4398 190.827 38.9929 191.927 40.5141Z" fill="#F6F5E9"/>
<path d="M278.403 9.52543C278.403 18.1273 278.403 26.7683 278.403 36.1072C244.429 35.9268 211.139 35.3779 177.772 35.9111C178.85 26.5722 179.798 17.8763 178.949 9.47053C212.057 6.60849 245.454 10.2703 278.403 9.52543ZM207.603 10.5056C207.147 14.2458 207.178 18.0096 207.42 21.9538C211.776 21.9538 215.722 21.9538 220.048 21.9538C219.797 17.9626 219.994 14.238 218.621 10.5056C215.13 10.5056 211.753 10.5056 207.603 10.5056ZM246.729 11.078C243.192 11.078 239.846 11.078 236.173 11.078C236.348 14.7634 236.507 18.3468 236.689 22.189C240.407 22.0243 243.883 22.5419 247.434 21.7656C248.095 18.2292 247.442 14.9202 246.729 11.078ZM249.764 33.8175C253.801 33.8175 257.519 33.8175 261.314 33.8175C262.452 30.4458 262.08 27.278 261.837 23.6945C257.694 23.9611 253.763 24.2199 249.635 24.4865C249.696 27.67 248.975 30.5791 249.764 33.8175ZM264.068 21.2637C268.507 22.1498 272.416 21.5225 276.422 21.1226C276.544 17.6176 276.969 14.5595 276.134 11.4152C272.013 12.0425 267.976 11.2034 264.076 12.2542C264.068 15.2966 264.068 18.1194 264.068 21.2637ZM222.028 33.5901C226.126 33.5901 229.951 33.5901 233.836 33.5901C234.397 30.5007 234.655 27.7249 234.435 24.8472C230.042 24.8472 225.982 24.8472 221.876 24.8472C221.512 27.8582 221.292 30.5556 222.028 33.5901ZM204.962 33.151C205.083 30.1949 205.85 27.4505 205.038 24.855C200.583 24.855 196.372 24.855 192.16 24.855C192.16 27.7719 192.16 30.3203 192.16 33.151C196.531 33.151 200.606 33.151 204.962 33.151ZM189.792 22.1027C189.193 18.4174 189.595 15.03 188.442 11.6112C186.15 11.2348 183.957 11.2348 181.673 11.5641C180.717 14.7869 180.489 17.9391 181.073 21.2245C183.835 22.0557 186.514 22.3458 189.792 22.1027Z" fill="#F6F5E9"/>
<path d="M270.146 2.95438C266.405 1.61353 263.097 2.37413 259.955 2.16241C243.435 1.06464 226.869 0.100174 210.357 1.88797C198.39 3.18177 186.438 3.76202 174.425 3.36996C172.885 3.32291 171.352 3.17393 168.924 3.01711C171.033 5.38516 172.961 5.0323 174.699 5.0715C187.091 5.35379 199.445 4.65592 211.806 3.78555C229.988 2.49959 248.162 3.09552 266.306 4.73434C267.672 4.85196 267.672 4.87548 270.146 2.95438Z" fill="#F6F5E9"/>
<path d="M273.127 40.5141C239.624 42.443 206.432 42.7645 172.959 41.1571C173.756 38.8204 175.516 39.3379 177.027 39.3849C188.136 39.7692 199.238 40.3651 210.347 40.5376C225.623 40.7728 240.891 40.0358 256.159 39.5104C260.704 39.3536 265.25 39.3928 269.795 39.4242C270.82 39.4398 272.026 38.9929 273.127 40.5141Z" fill="#F6F5E9"/>
<path d="M109.583 9.52543C109.583 18.1273 109.583 26.7683 109.583 36.1072C75.609 35.9268 42.3185 35.3779 8.95203 35.9111C10.0296 26.5722 10.9781 17.8763 10.1282 9.47053C43.2367 6.60849 76.6335 10.2703 109.583 9.52543ZM38.7822 10.5056C38.3269 14.2458 38.3573 18.0096 38.6001 21.9538C42.9559 21.9538 46.9019 21.9538 51.2273 21.9538C50.9769 17.9626 51.1742 14.238 49.8006 10.5056C46.31 10.5056 42.9331 10.5056 38.7822 10.5056ZM77.9083 11.078C74.3721 11.078 71.0256 11.078 67.3528 11.078C67.5273 14.7634 67.6866 18.3468 67.8688 22.189C71.5871 22.0243 75.0626 22.5419 78.614 21.7656C79.2742 18.2292 78.6216 14.9202 77.9083 11.078ZM80.9437 33.8175C84.9808 33.8175 88.6991 33.8175 92.4933 33.8175C93.6316 30.4458 93.2597 27.278 93.0169 23.6945C88.8736 23.9611 84.9428 24.2199 80.8147 24.4865C80.8754 27.67 80.1545 30.5791 80.9437 33.8175ZM95.2479 21.2637C99.6872 22.1498 103.595 21.5225 107.602 21.1226C107.723 17.6176 108.148 14.5595 107.314 11.4152C103.193 12.0425 99.156 11.2034 95.2555 12.2542C95.2479 15.2966 95.2479 18.1194 95.2479 21.2637ZM53.2079 33.5901C57.3057 33.5901 61.1302 33.5901 65.0155 33.5901C65.5771 30.5007 65.8351 27.7249 65.615 24.8472C61.2213 24.8472 57.1615 24.8472 53.0561 24.8472C52.6919 27.8582 52.4718 30.5556 53.2079 33.5901ZM36.1414 33.151C36.2628 30.1949 37.0293 27.4505 36.2173 24.855C31.7629 24.855 27.5513 24.855 23.3397 24.855C23.3397 27.7719 23.3397 30.3203 23.3397 33.151C27.7107 33.151 31.7857 33.151 36.1414 33.151ZM20.9721 22.1027C20.3726 18.4174 20.7748 15.03 19.6214 11.6112C17.3297 11.2348 15.1366 11.2348 12.8525 11.5641C11.8963 14.7869 11.6687 17.9391 12.253 21.2245C15.0152 22.0557 17.6939 22.3458 20.9721 22.1027Z" fill="#F6F5E9"/>
<path d="M101.326 2.95438C97.5846 1.61353 94.276 2.37413 91.1343 2.16241C74.6143 1.06464 58.0487 0.100174 41.5362 1.88797C29.5692 3.18177 17.6174 3.76202 5.6049 3.36996C4.06445 3.32291 2.53158 3.17393 0.103272 3.01711C2.21286 5.38516 4.14032 5.0323 5.87807 5.0715C18.27 5.35379 30.624 4.65592 42.9856 3.78555C61.1676 2.49959 79.3419 3.09552 97.4859 4.73434C98.8518 4.85196 98.8518 4.87548 101.326 2.95438Z" fill="#F6F5E9"/>
<path d="M104.306 40.5141C70.8034 42.443 37.6115 42.7645 4.13879 41.1571C4.93559 38.8204 6.6961 39.3379 8.2062 39.3849C19.3157 39.7692 30.4176 40.3651 41.5271 40.5376C56.8026 40.7728 72.0706 40.0358 87.3386 39.5104C91.8841 39.3536 96.4296 39.3928 100.975 39.4242C101.999 39.4398 103.206 38.9929 104.306 40.5141Z" fill="#F6F5E9"/>
</svg>
