<svg width="43" height="476" viewBox="0 0 43 476" fill="none" xmlns="http://www.w3.org/2000/svg">
<path d="M33.4569 362.794C24.8555 362.794 16.2148 362.794 6.87634 362.794C7.05669 328.822 7.60555 295.533 7.07238 262.168C16.4109 263.246 25.1064 264.194 33.5118 263.344C36.3737 296.451 32.712 329.847 33.4569 362.794ZM32.4768 291.997C28.7367 291.542 24.9731 291.572 21.0291 291.815C21.0291 296.171 21.0291 300.116 21.0291 304.442C25.0201 304.191 28.7445 304.388 32.4768 303.015C32.4768 299.524 32.4768 296.148 32.4768 291.997ZM31.9044 331.121C31.9044 327.585 31.9044 324.239 31.9044 320.566C28.2192 320.741 24.6359 320.9 20.7939 321.082C20.9585 324.8 20.4411 328.276 21.2173 331.827C24.7535 332.487 28.0624 331.835 31.9044 331.121ZM9.16588 334.157C9.16588 338.194 9.16588 341.912 9.16588 345.706C12.5375 346.844 15.7052 346.472 19.2884 346.229C19.0219 342.086 18.7631 338.156 18.4965 334.028C15.3131 334.088 12.4042 333.367 9.16588 334.157ZM21.7191 348.46C20.8331 352.899 21.4604 356.807 21.8602 360.814C25.3651 360.935 28.4231 361.36 31.5672 360.525C30.94 356.405 31.7789 352.368 30.7283 348.468C27.686 348.46 24.8633 348.46 21.7191 348.46ZM9.39327 306.422C9.39327 310.52 9.39327 314.344 9.39327 318.229C12.4826 318.791 15.2582 319.049 18.1358 318.829C18.1358 314.435 18.1358 310.376 18.1358 306.27C15.1249 305.906 12.4277 305.686 9.39327 306.422ZM9.83236 289.356C12.7884 289.478 15.5327 290.244 18.128 289.432C18.128 284.978 18.128 280.767 18.128 276.555C15.2112 276.555 12.6629 276.555 9.83236 276.555C9.83236 280.926 9.83236 285.001 9.83236 289.356ZM20.8801 274.188C24.5654 273.588 27.9526 273.991 31.3712 272.837C31.7476 270.546 31.7476 268.353 31.4183 266.068C28.1957 265.112 25.0436 264.885 21.7583 265.469C20.9272 268.231 20.6371 270.91 20.8801 274.188Z" fill="#F6F5E9"/>
<path d="M40.0274 262.51C41.3681 266.251 40.6076 269.559 40.8193 272.7C41.917 289.22 42.8814 305.785 41.0937 322.296C39.8 334.263 39.2197 346.214 39.6118 358.226C39.6588 359.766 39.8078 361.299 39.9646 363.727C37.5967 361.618 37.9495 359.691 37.9103 357.953C37.628 345.561 38.3259 333.208 39.1962 320.847C40.4821 302.666 39.8862 284.492 38.2475 266.349C38.1299 264.983 38.1063 264.983 40.0274 262.51Z" fill="#F6F5E9"/>
<path d="M2.46961 360.866C0.540756 327.365 0.219285 294.175 1.82667 260.703C4.16325 261.5 3.64574 263.261 3.5987 264.771C3.2145 275.88 2.61859 286.981 2.44609 298.09C2.21086 313.365 2.9479 328.632 3.47324 343.899C3.63005 348.445 3.59085 352.99 3.55949 357.535C3.5438 358.56 3.99073 359.766 2.46961 360.866Z" fill="#F6F5E9"/>
<path d="M33.4569 193.981C24.8555 193.981 16.2148 193.981 6.87634 193.981C7.05669 160.009 7.60555 126.72 7.07238 93.3553C16.4109 94.4328 25.1064 95.3813 33.5118 94.5314C36.3737 127.638 32.712 161.034 33.4569 193.981ZM32.4768 123.184C28.7367 122.729 24.9731 122.759 21.0291 123.002C21.0291 127.358 21.0291 131.303 21.0291 135.629C25.0201 135.378 28.7445 135.575 32.4768 134.202C32.4768 130.712 32.4768 127.335 32.4768 123.184ZM31.9044 162.308C31.9044 158.772 31.9044 155.426 31.9044 151.753C28.2192 151.928 24.6359 152.087 20.7939 152.269C20.9585 155.988 20.4411 159.463 21.2173 163.014C24.7535 163.674 28.0624 163.022 31.9044 162.308ZM9.16588 165.344C9.16588 169.381 9.16588 173.099 9.16588 176.893C12.5375 178.031 15.7052 177.659 19.2884 177.416C19.0219 173.273 18.7631 169.343 18.4965 165.215C15.3131 165.275 12.4042 164.555 9.16588 165.344ZM21.7191 179.647C20.8331 184.086 21.4604 187.994 21.8602 192.001C25.3651 192.122 28.4231 192.547 31.5672 191.712C30.94 187.592 31.7789 183.555 30.7283 179.655C27.686 179.647 24.8633 179.647 21.7191 179.647ZM9.39327 137.609C9.39327 141.707 9.39327 145.531 9.39327 149.416C12.4826 149.978 15.2582 150.236 18.1358 150.016C18.1358 145.622 18.1358 141.563 18.1358 137.457C15.1249 137.093 12.4277 136.873 9.39327 137.609ZM9.83236 120.543C12.7884 120.665 15.5327 121.431 18.128 120.619C18.128 116.165 18.128 111.954 18.128 107.742C15.2112 107.742 12.6629 107.742 9.83236 107.742C9.83236 112.113 9.83236 116.188 9.83236 120.543ZM20.8801 105.375C24.5654 104.775 27.9526 105.178 31.3712 104.024C31.7476 101.733 31.7476 99.5395 31.4183 97.2555C28.1957 96.2994 25.0436 96.0718 21.7583 96.6561C20.9272 99.4181 20.6371 102.097 20.8801 105.375Z" fill="#F6F5E9"/>
<path d="M40.0274 93.6967C41.3681 97.4377 40.6076 100.746 40.8193 103.888C41.917 120.407 42.8814 136.972 41.0937 153.483C39.8 165.45 39.2197 177.401 39.6118 189.413C39.6588 190.954 39.8078 192.486 39.9646 194.915C37.5967 192.805 37.9495 190.878 37.9103 189.14C37.628 176.749 38.3259 164.395 39.1962 152.034C40.4821 133.853 39.8862 115.68 38.2475 97.5363C38.1299 96.1705 38.1063 96.1704 40.0274 93.6967Z" fill="#F6F5E9"/>
<path d="M2.46961 192.054C0.540756 158.552 0.219285 125.362 1.82667 91.8906C4.16325 92.6873 3.64574 94.4478 3.5987 95.9578C3.2145 107.067 2.61859 118.168 2.44609 129.277C2.21086 144.552 2.9479 159.819 3.47324 175.087C3.63005 179.632 3.59085 184.177 3.55949 188.722C3.5438 189.747 3.99073 190.953 2.46961 192.054Z" fill="#F6F5E9"/>
<path d="M33.4569 278.525C24.8555 278.525 16.2148 278.525 6.87634 278.525C7.05669 244.553 7.60555 211.264 7.07238 177.899C16.4109 178.977 25.1064 179.925 33.5118 179.075C36.3737 212.182 32.712 245.577 33.4569 278.525ZM32.4768 207.728C28.7367 207.273 24.9731 207.303 21.0291 207.546C21.0291 211.901 21.0291 215.847 21.0291 220.172C25.0201 219.922 28.7445 220.119 32.4768 218.746C32.4768 215.255 32.4768 211.879 32.4768 207.728ZM31.9044 246.852C31.9044 243.316 31.9044 239.97 31.9044 236.297C28.2192 236.472 24.6359 236.631 20.7939 236.813C20.9585 240.531 20.4411 244.007 21.2173 247.558C24.7535 248.218 28.0624 247.566 31.9044 246.852ZM9.16588 249.887C9.16588 253.924 9.16588 257.643 9.16588 261.437C12.5375 262.575 15.7052 262.203 19.2884 261.96C19.0219 257.817 18.7631 253.886 18.4965 249.758C15.3131 249.819 12.4042 249.098 9.16588 249.887ZM21.7191 264.191C20.8331 268.63 21.4604 272.538 21.8602 276.545C25.3651 276.666 28.4231 277.091 31.5672 276.256C30.94 272.136 31.7789 268.099 30.7283 264.199C27.686 264.191 24.8633 264.191 21.7191 264.191ZM9.39327 222.153C9.39327 226.251 9.39327 230.075 9.39327 233.96C12.4826 234.522 15.2582 234.78 18.1358 234.559C18.1358 230.166 18.1358 226.106 18.1358 222.001C15.1249 221.637 12.4277 221.417 9.39327 222.153ZM9.83236 205.087C12.7884 205.209 15.5327 205.975 18.128 205.163C18.128 200.709 18.128 196.498 18.128 192.286C15.2112 192.286 12.6629 192.286 9.83236 192.286C9.83236 196.657 9.83236 200.732 9.83236 205.087ZM20.8801 189.919C24.5654 189.319 27.9526 189.721 31.3712 188.568C31.7476 186.276 31.7476 184.083 31.4183 181.799C28.1957 180.843 25.0436 180.616 21.7583 181.2C20.9272 183.962 20.6371 186.641 20.8801 189.919Z" fill="#F6F5E9"/>
<path d="M40.0276 270.269C41.3684 266.528 40.6078 263.219 40.8195 260.078C41.9172 243.559 42.8817 226.994 41.0939 210.482C39.8002 198.516 39.22 186.564 39.612 174.552C39.6591 173.012 39.808 171.479 39.9649 169.051C37.5969 171.16 37.9498 173.088 37.9105 174.826C37.6283 187.217 38.3261 199.57 39.1964 211.931C40.4823 230.113 39.8864 248.286 38.2477 266.429C38.1301 267.795 38.1066 267.795 40.0276 270.269Z" fill="#F6F5E9"/>
<path d="M2.46961 273.249C0.540756 239.748 0.219285 206.557 1.82667 173.086C4.16325 173.883 3.64574 175.643 3.5987 177.153C3.2145 188.262 2.61859 199.364 2.44609 210.473C2.21086 225.747 2.9479 241.015 3.47324 256.282C3.63005 260.827 3.59085 265.373 3.55949 269.918C3.5438 270.942 3.99073 272.149 2.46961 273.249Z" fill="#F6F5E9"/>
<path d="M33.4569 417.621C24.8555 417.621 16.2148 417.621 6.87634 417.621C7.05669 383.649 7.60555 350.36 7.07238 316.995C16.4109 318.073 25.1064 319.021 33.5118 318.171C36.3737 351.278 32.712 384.674 33.4569 417.621ZM32.4768 346.824C28.7367 346.369 24.9731 346.399 21.0291 346.642C21.0291 350.998 21.0291 354.943 21.0291 359.269C25.0201 359.018 28.7445 359.215 32.4768 357.842C32.4768 354.352 32.4768 350.975 32.4768 346.824ZM31.9044 385.948C31.9044 382.412 31.9044 379.066 31.9044 375.393C28.2192 375.568 24.6359 375.727 20.7939 375.909C20.9585 379.628 20.4411 383.103 21.2173 386.654C24.7535 387.314 28.0624 386.662 31.9044 385.948ZM9.16588 388.984C9.16588 393.021 9.16588 396.739 9.16588 400.533C12.5375 401.671 15.7052 401.299 19.2884 401.056C19.0219 396.913 18.7631 392.983 18.4965 388.855C15.3131 388.915 12.4042 388.195 9.16588 388.984ZM21.7191 403.287C20.8331 407.726 21.4604 411.634 21.8602 415.641C25.3651 415.762 28.4231 416.187 31.5672 415.352C30.94 411.232 31.7789 407.195 30.7283 403.295C27.686 403.287 24.8633 403.287 21.7191 403.287ZM9.39327 361.249C9.39327 365.347 9.39327 369.171 9.39327 373.056C12.4826 373.618 15.2582 373.876 18.1358 373.656C18.1358 369.262 18.1358 365.203 18.1358 361.097C15.1249 360.733 12.4277 360.513 9.39327 361.249ZM9.83236 344.183C12.7884 344.305 15.5327 345.071 18.128 344.259C18.128 339.805 18.128 335.594 18.128 331.382C15.2112 331.382 12.6629 331.382 9.83236 331.382C9.83236 335.753 9.83236 339.828 9.83236 344.183ZM20.8801 329.015C24.5654 328.415 27.9526 328.818 31.3712 327.664C31.7476 325.373 31.7476 323.18 31.4183 320.896C28.1957 319.939 25.0436 319.712 21.7583 320.296C20.9272 323.058 20.6371 325.737 20.8801 329.015Z" fill="#F6F5E9"/>
<path d="M40.0276 409.365C41.3684 405.624 40.6078 402.316 40.8195 399.174C41.9172 382.655 42.8817 366.09 41.0939 349.578C39.8002 337.612 39.22 325.66 39.612 313.648C39.6591 312.108 39.808 310.575 39.9649 308.147C37.5969 310.257 37.9498 312.184 37.9105 313.922C37.6283 326.313 38.3261 338.666 39.1964 351.028C40.4823 369.209 39.8864 387.382 38.2477 405.525C38.1301 406.891 38.1066 406.891 40.0276 409.365Z" fill="#F6F5E9"/>
<path d="M2.46961 412.345C0.540756 378.844 0.219285 345.653 1.82667 312.182C4.16325 312.979 3.64574 314.739 3.5987 316.249C3.2145 327.358 2.61859 338.46 2.44609 349.569C2.21086 364.844 2.9479 380.111 3.47324 395.378C3.63005 399.923 3.59085 404.469 3.55949 409.014C3.5438 410.038 3.99073 411.245 2.46961 412.345Z" fill="#F6F5E9"/>
<path d="M33.4569 475.258C24.8555 475.258 16.2148 475.258 6.87634 475.258C7.05669 441.286 7.60555 407.997 7.07238 374.632C16.4109 375.71 25.1064 376.658 33.5118 375.808C36.3737 408.915 32.712 442.31 33.4569 475.258ZM32.4768 404.461C28.7367 404.006 24.9731 404.036 21.0291 404.279C21.0291 408.634 21.0291 412.58 21.0291 416.905C25.0201 416.655 28.7445 416.852 32.4768 415.479C32.4768 411.988 32.4768 408.612 32.4768 404.461ZM31.9044 443.585C31.9044 440.049 31.9044 436.703 31.9044 433.03C28.2192 433.205 24.6359 433.364 20.7939 433.546C20.9585 437.264 20.4411 440.74 21.2173 444.291C24.7535 444.951 28.0624 444.298 31.9044 443.585ZM9.16588 446.62C9.16588 450.657 9.16588 454.375 9.16588 458.169C12.5375 459.308 15.7052 458.936 19.2884 458.693C19.0219 454.55 18.7631 450.619 18.4965 446.491C15.3131 446.552 12.4042 445.831 9.16588 446.62ZM21.7191 460.924C20.8331 465.363 21.4604 469.271 21.8602 473.277C25.3651 473.399 28.4231 473.824 31.5672 472.989C30.94 468.869 31.7789 464.832 30.7283 460.932C27.686 460.924 24.8633 460.924 21.7191 460.924ZM9.39327 418.886C9.39327 422.983 9.39327 426.808 9.39327 430.693C12.4826 431.254 15.2582 431.512 18.1358 431.292C18.1358 426.899 18.1358 422.839 18.1358 418.734C15.1249 418.37 12.4277 418.15 9.39327 418.886ZM9.83236 401.82C12.7884 401.942 15.5327 402.708 18.128 401.896C18.128 397.442 18.128 393.23 18.128 389.019C15.2112 389.019 12.6629 389.019 9.83236 389.019C9.83236 393.39 9.83236 397.465 9.83236 401.82ZM20.8801 386.652C24.5654 386.052 27.9526 386.454 31.3712 385.301C31.7476 383.009 31.7476 380.816 31.4183 378.532C28.1957 377.576 25.0436 377.349 21.7583 377.933C20.9272 380.695 20.6371 383.373 20.8801 386.652Z" fill="#F6F5E9"/>
<path d="M40.0276 467.002C41.3684 463.261 40.6078 459.952 40.8195 456.811C41.9172 440.291 42.8817 423.727 41.0939 407.215C39.8002 395.248 39.22 383.297 39.612 371.285C39.6591 369.745 39.808 368.212 39.9649 365.784C37.5969 367.893 37.9498 369.821 37.9105 371.558C37.6283 383.95 38.3261 396.303 39.1964 408.664C40.4823 426.845 39.8864 445.019 38.2477 463.162C38.1301 464.528 38.1066 464.528 40.0276 467.002Z" fill="#F6F5E9"/>
<path d="M2.46961 469.982C0.540756 436.48 0.219285 403.29 1.82667 369.819C4.16325 370.616 3.64574 372.376 3.5987 373.886C3.2145 384.995 2.61859 396.096 2.44609 407.205C2.21086 422.48 2.9479 437.748 3.47324 453.015C3.63005 457.56 3.59085 462.105 3.55949 466.651C3.5438 467.675 3.99073 468.882 2.46961 469.982Z" fill="#F6F5E9"/>
<path d="M33.4569 109.712C24.8555 109.712 16.2148 109.712 6.87634 109.712C7.05669 75.7405 7.60555 42.4514 7.07238 9.08652C16.4109 10.164 25.1064 11.1125 33.5118 10.2627C36.3737 43.3696 32.712 76.7649 33.4569 109.712ZM32.4768 38.9154C28.7367 38.4601 24.9731 38.4905 21.0291 38.7333C21.0291 43.0889 21.0291 47.0346 21.0291 51.3599C25.0201 51.1095 28.7445 51.3067 32.4768 49.9333C32.4768 46.4428 32.4768 43.0661 32.4768 38.9154ZM31.9044 78.0397C31.9044 74.5036 31.9044 71.1572 31.9044 67.4846C28.2192 67.6591 24.6359 67.8185 20.7939 68.0006C20.9585 71.7188 20.4411 75.1941 21.2173 78.7454C24.7535 79.4055 28.0624 78.753 31.9044 78.0397ZM9.16588 81.0749C9.16588 85.1118 9.16588 88.83 9.16588 92.624C12.5375 93.7622 15.7052 93.3904 19.2884 93.1476C19.0219 89.0045 18.7631 85.0738 18.4965 80.9459C15.3131 81.0066 12.4042 80.2858 9.16588 81.0749ZM21.7191 95.3785C20.8331 99.8176 21.4604 103.725 21.8602 107.732C25.3651 107.853 28.4231 108.278 31.5672 107.444C30.94 103.323 31.7789 99.2864 30.7283 95.3861C27.686 95.3785 24.8633 95.3785 21.7191 95.3785ZM9.39327 53.3404C9.39327 57.438 9.39327 61.2624 9.39327 65.1475C12.4826 65.709 15.2582 65.967 18.1358 65.7469C18.1358 61.3534 18.1358 57.2938 18.1358 53.1886C15.1249 52.8244 12.4277 52.6043 9.39327 53.3404ZM9.83236 36.2747C12.7884 36.3961 15.5327 37.1625 18.128 36.3506C18.128 31.8964 18.128 27.685 18.128 23.4736C15.2112 23.4735 12.6629 23.4735 9.83236 23.4735C9.83236 27.8443 9.83236 31.9191 9.83236 36.2747ZM20.8801 21.1061C24.5654 20.5066 27.9526 20.9088 31.3712 19.7554C31.7476 17.4638 31.7476 15.2708 31.4183 12.9868C28.1957 12.0307 25.0436 11.803 21.7583 12.3873C20.9272 15.1494 20.6371 17.828 20.8801 21.1061Z" fill="#F6F5E9"/>
<path d="M40.0276 101.456C41.3684 97.715 40.6078 94.4065 40.8195 91.2651C41.9172 74.7457 42.8817 58.1809 41.0939 41.6692C39.8002 29.7027 39.22 17.7515 39.612 5.73948C39.6591 4.19909 39.808 2.66629 39.9649 0.238098C37.5969 2.34759 37.9498 4.27496 37.9105 6.01264C37.6283 18.404 38.3261 30.7575 39.1964 43.1185C40.4823 61.2996 39.8864 79.4731 38.2477 97.6163C38.1301 98.9822 38.1066 98.9822 40.0276 101.456Z" fill="#F6F5E9"/>
<path d="M2.46961 104.436C0.540756 70.9349 0.219285 37.7445 1.82667 4.27333C4.16325 5.07008 3.64574 6.83051 3.5987 8.34055C3.2145 19.4495 2.61859 30.5509 2.44609 41.6599C2.21086 56.9348 2.9479 72.2021 3.47324 87.4693C3.63005 92.0146 3.59085 96.5599 3.55949 101.105C3.5438 102.13 3.99073 103.336 2.46961 104.436Z" fill="#F6F5E9"/>
</svg>
