<svg width="43" height="501" viewBox="0 0 43 501" fill="none" xmlns="http://www.w3.org/2000/svg">
<path d="M33.4917 363.269C24.8898 363.269 16.2488 363.269 6.90991 363.269C7.09026 329.296 7.63915 296.005 7.10596 262.639C16.4449 263.716 25.1408 264.665 33.5466 263.815C36.4086 296.923 32.7467 330.32 33.4917 363.269ZM32.5115 292.469C28.7712 292.014 25.0075 292.044 21.0633 292.287C21.0633 296.643 21.0633 300.589 21.0633 304.914C25.0545 304.664 28.7791 304.861 32.5115 303.487C32.5115 299.997 32.5115 296.62 32.5115 292.469ZM31.9391 331.595C31.9391 328.059 31.9391 324.712 31.9391 321.039C28.2537 321.214 24.6703 321.373 20.8281 321.555C20.9928 325.274 20.4752 328.749 21.2515 332.301C24.7879 332.961 28.0969 332.308 31.9391 331.595ZM9.19956 334.63C9.19956 338.667 9.19956 342.386 9.19956 346.18C12.5713 347.318 15.7391 346.946 19.3226 346.704C19.056 342.56 18.7972 338.629 18.5306 334.501C15.3471 334.562 12.438 333.841 9.19956 334.63ZM21.7533 348.935C20.8673 353.374 21.4946 357.282 21.8945 361.289C25.3995 361.41 28.4576 361.835 31.6019 361C30.9746 356.88 31.8136 352.843 30.7629 348.942C27.7205 348.935 24.8977 348.935 21.7533 348.935ZM9.42695 306.895C9.42695 310.992 9.42695 314.817 9.42695 318.702C12.5164 319.264 15.2922 319.522 18.1699 319.302C18.1699 314.908 18.1699 310.848 18.1699 306.743C15.1589 306.379 12.4615 306.158 9.42695 306.895ZM9.86607 289.828C12.8222 289.95 15.5666 290.716 18.1621 289.904C18.1621 285.45 18.1621 281.238 18.1621 277.026C15.2451 277.026 12.6967 277.026 9.86607 277.026C9.86607 281.397 9.86607 285.472 9.86607 289.828ZM20.9143 274.659C24.5997 274.059 27.9871 274.462 31.4059 273.308C31.7823 271.016 31.7823 268.823 31.453 266.539C28.2302 265.583 25.078 265.355 21.7926 265.94C20.9614 268.702 20.6713 271.381 20.9143 274.659Z" fill="#F6F5E9"/>
<path d="M40.0624 262.98C41.4032 266.721 40.6426 270.03 40.8543 273.171C41.9521 289.692 42.9166 306.257 41.1288 322.77C39.835 334.737 39.2547 346.688 39.6468 358.701C39.6938 360.241 39.8428 361.774 39.9996 364.203C37.6316 362.093 37.9844 360.165 37.9452 358.428C37.6629 346.036 38.3608 333.682 39.2312 321.32C40.5171 303.138 39.9212 284.964 38.2824 266.82C38.1648 265.454 38.1413 265.454 40.0624 262.98Z" fill="#F6F5E9"/>
<path d="M2.50301 361.341C0.57407 327.838 0.252584 294.646 1.86004 261.174C4.19672 261.971 3.6792 263.731 3.63215 265.241C3.24793 276.351 2.652 287.453 2.47949 298.562C2.24425 313.838 2.98132 329.106 3.50668 344.373C3.66351 348.919 3.6243 353.464 3.59294 358.01C3.57725 359.034 4.0242 360.241 2.50301 361.341Z" fill="#F6F5E9"/>
<path d="M33.4917 194.448C24.8898 194.448 16.2488 194.448 6.90991 194.448C7.09026 160.475 7.63915 127.184 7.10596 93.818C16.4449 94.8956 25.1408 95.8441 33.5466 94.9942C36.4086 128.103 32.7467 161.499 33.4917 194.448ZM32.5115 123.648C28.7712 123.193 25.0075 123.223 21.0633 123.466C21.0633 127.822 21.0633 131.768 21.0633 136.093C25.0545 135.843 28.7791 136.04 32.5115 134.667C32.5115 131.176 32.5115 127.799 32.5115 123.648ZM31.9391 162.774C31.9391 159.238 31.9391 155.892 31.9391 152.219C28.2537 152.393 24.6703 152.553 20.8281 152.735C20.9928 156.453 20.4752 159.929 21.2515 163.48C24.7879 164.14 28.0969 163.488 31.9391 162.774ZM9.19956 165.81C9.19956 169.847 9.19956 173.565 9.19956 177.359C12.5713 178.498 15.7391 178.126 19.3226 177.883C19.056 173.74 18.7972 169.809 18.5306 165.681C15.3471 165.741 12.438 165.02 9.19956 165.81ZM21.7533 180.114C20.8673 184.553 21.4946 188.461 21.8945 192.468C25.3995 192.589 28.4576 193.014 31.6019 192.18C30.9746 188.059 31.8136 184.022 30.7629 180.121C27.7205 180.114 24.8977 180.114 21.7533 180.114ZM9.42695 138.074C9.42695 142.172 9.42695 145.996 9.42695 149.882C12.5164 150.443 15.2922 150.701 18.1699 150.481C18.1699 146.087 18.1699 142.027 18.1699 137.922C15.1589 137.558 12.4615 137.338 9.42695 138.074ZM9.86607 121.007C12.8222 121.129 15.5666 121.895 18.1621 121.083C18.1621 116.629 18.1621 112.417 18.1621 108.206C15.2451 108.206 12.6967 108.206 9.86607 108.206C9.86607 112.577 9.86607 116.652 9.86607 121.007ZM20.9143 105.838C24.5997 105.239 27.9871 105.641 31.4059 104.487C31.7823 102.196 31.7823 100.003 31.453 97.7184C28.2302 96.7623 25.078 96.5347 21.7926 97.119C20.9614 99.8812 20.6713 102.56 20.9143 105.838Z" fill="#F6F5E9"/>
<path d="M40.0624 94.1594C41.4032 97.9005 40.6426 101.209 40.8543 104.351C41.9521 120.871 42.9166 137.436 41.1288 153.949C39.835 165.916 39.2547 177.868 39.6468 189.88C39.6938 191.421 39.8428 192.954 39.9996 195.382C37.6316 193.272 37.9844 191.345 37.9452 189.607C37.6629 177.215 38.3608 164.861 39.2312 152.499C40.5171 134.318 39.9212 116.143 38.2824 97.9992C38.1648 96.6333 38.1413 96.6333 40.0624 94.1594Z" fill="#F6F5E9"/>
<path d="M2.50301 192.521C0.57407 159.018 0.252584 125.826 1.86004 92.3533C4.19672 93.1501 3.6792 94.9106 3.63215 96.4207C3.24793 107.53 2.652 118.632 2.47949 129.742C2.24425 145.017 2.98132 160.285 3.50668 175.553C3.66351 180.099 3.6243 184.644 3.59294 189.19C3.57725 190.214 4.0242 191.421 2.50301 192.521Z" fill="#F6F5E9"/>
<path d="M33.4917 278.996C24.8898 278.996 16.2488 278.996 6.90991 278.996C7.09026 245.023 7.63915 211.732 7.10596 178.366C16.4449 179.443 25.1408 180.392 33.5466 179.542C36.4086 212.65 32.7467 246.047 33.4917 278.996ZM32.5115 208.196C28.7712 207.741 25.0075 207.771 21.0633 208.014C21.0633 212.37 21.0633 216.316 21.0633 220.641C25.0545 220.391 28.7791 220.588 32.5115 219.214C32.5115 215.724 32.5115 212.347 32.5115 208.196ZM31.9391 247.322C31.9391 243.786 31.9391 240.439 31.9391 236.766C28.2537 236.941 24.6703 237.1 20.8281 237.282C20.9928 241.001 20.4752 244.476 21.2515 248.028C24.7879 248.688 28.0969 248.035 31.9391 247.322ZM9.19956 250.357C9.19956 254.394 9.19956 258.113 9.19956 261.907C12.5713 263.045 15.7391 262.673 19.3226 262.431C19.056 258.287 18.7972 254.356 18.5306 250.228C15.3471 250.289 12.438 249.568 9.19956 250.357ZM21.7533 264.662C20.8673 269.101 21.4946 273.009 21.8945 277.016C25.3995 277.137 28.4576 277.562 31.6019 276.727C30.9746 272.607 31.8136 268.57 30.7629 264.669C27.7205 264.662 24.8977 264.662 21.7533 264.662ZM9.42695 222.622C9.42695 226.719 9.42695 230.544 9.42695 234.429C12.5164 234.991 15.2922 235.249 18.1699 235.029C18.1699 230.635 18.1699 226.575 18.1699 222.47C15.1589 222.106 12.4615 221.885 9.42695 222.622ZM9.86607 205.555C12.8222 205.676 15.5666 206.443 18.1621 205.631C18.1621 201.177 18.1621 196.965 18.1621 192.753C15.2451 192.753 12.6967 192.753 9.86607 192.753C9.86607 197.124 9.86607 201.199 9.86607 205.555ZM20.9143 190.386C24.5997 189.786 27.9871 190.188 31.4059 189.035C31.7823 186.743 31.7823 184.55 31.453 182.266C28.2302 181.31 25.078 181.082 21.7926 181.667C20.9614 184.429 20.6713 187.108 20.9143 190.386Z" fill="#F6F5E9"/>
<path d="M40.0626 270.74C41.4034 266.998 40.6428 263.69 40.8546 260.548C41.9523 244.028 42.9168 227.463 41.129 210.95C39.8352 198.983 39.2549 187.031 39.647 175.019C39.6941 173.478 39.843 171.945 39.9999 169.517C37.6318 171.627 37.9847 173.554 37.9455 175.292C37.6632 187.684 38.361 200.038 39.2314 212.4C40.5174 230.581 39.9214 248.756 38.2826 266.9C38.165 268.266 38.1415 268.266 40.0626 270.74Z" fill="#F6F5E9"/>
<path d="M2.50301 273.72C0.57407 240.217 0.252584 207.025 1.86004 173.552C4.19672 174.349 3.6792 176.11 3.63215 177.62C3.24793 188.729 2.652 199.831 2.47949 210.941C2.24425 226.216 2.98132 241.484 3.50668 256.752C3.66351 261.298 3.6243 265.843 3.59294 270.389C3.57725 271.413 4.0242 272.62 2.50301 273.72Z" fill="#F6F5E9"/>
<path d="M33.4917 418.098C24.8898 418.098 16.2488 418.098 6.90991 418.098C7.09026 384.125 7.63915 350.834 7.10596 317.468C16.4449 318.545 25.1408 319.494 33.5466 318.644C36.4086 351.753 32.7467 385.149 33.4917 418.098ZM32.5115 347.298C28.7712 346.843 25.0075 346.873 21.0633 347.116C21.0633 351.472 21.0633 355.418 21.0633 359.743C25.0545 359.493 28.7791 359.69 32.5115 358.317C32.5115 354.826 32.5115 351.449 32.5115 347.298ZM31.9391 386.424C31.9391 382.888 31.9391 379.541 31.9391 375.869C28.2537 376.043 24.6703 376.203 20.8281 376.385C20.9928 380.103 20.4752 383.579 21.2515 387.13C24.7879 387.79 28.0969 387.138 31.9391 386.424ZM9.19956 389.46C9.19956 393.497 9.19956 397.215 9.19956 401.009C12.5713 402.147 15.7391 401.776 19.3226 401.533C19.056 397.389 18.7972 393.459 18.5306 389.331C15.3471 389.391 12.438 388.67 9.19956 389.46ZM21.7533 403.764C20.8673 408.203 21.4946 412.111 21.8945 416.118C25.3995 416.239 28.4576 416.664 31.6019 415.829C30.9746 411.709 31.8136 407.672 30.7629 403.771C27.7205 403.764 24.8977 403.764 21.7533 403.764ZM9.42695 361.724C9.42695 365.822 9.42695 369.646 9.42695 373.531C12.5164 374.093 15.2922 374.351 18.1699 374.131C18.1699 369.737 18.1699 365.677 18.1699 361.572C15.1589 361.208 12.4615 360.988 9.42695 361.724ZM9.86607 344.657C12.8222 344.779 15.5666 345.545 18.1621 344.733C18.1621 340.279 18.1621 336.067 18.1621 331.856C15.2451 331.856 12.6967 331.856 9.86607 331.856C9.86607 336.227 9.86607 340.302 9.86607 344.657ZM20.9143 329.488C24.5997 328.889 27.9871 329.291 31.4059 328.137C31.7823 325.846 31.7823 323.652 31.453 321.368C28.2302 320.412 25.078 320.185 21.7926 320.769C20.9614 323.531 20.6713 326.21 20.9143 329.488Z" fill="#F6F5E9"/>
<path d="M40.0626 409.842C41.4034 406.101 40.6428 402.792 40.8546 399.65C41.9523 383.13 42.9168 366.565 41.129 350.052C39.8352 338.085 39.2549 326.134 39.647 314.121C39.6941 312.581 39.843 311.048 39.9999 308.619C37.6318 310.729 37.9847 312.656 37.9455 314.394C37.6632 326.786 38.361 339.14 39.2314 351.502C40.5174 369.684 39.9214 387.858 38.2826 406.002C38.165 407.368 38.1415 407.368 40.0626 409.842Z" fill="#F6F5E9"/>
<path d="M2.50301 412.822C0.57407 379.319 0.252584 346.127 1.86004 312.655C4.19672 313.451 3.6792 315.212 3.63215 316.722C3.24793 327.831 2.652 338.933 2.47949 350.043C2.24425 365.318 2.98132 380.586 3.50668 395.854C3.66351 400.4 3.6243 404.945 3.59294 409.491C3.57725 410.515 4.0242 411.722 2.50301 412.822Z" fill="#F6F5E9"/>
<path d="M33.4917 500.799C24.8898 500.799 16.2488 500.799 6.90991 500.799C7.09026 466.826 7.63915 433.535 7.10596 400.169C16.4449 401.246 25.1408 402.195 33.5466 401.345C36.4086 434.453 32.7467 467.85 33.4917 500.799ZM32.5115 429.999C28.7712 429.544 25.0075 429.574 21.0633 429.817C21.0633 434.173 21.0633 438.119 21.0633 442.444C25.0545 442.194 28.7791 442.391 32.5115 441.017C32.5115 437.527 32.5115 434.15 32.5115 429.999ZM31.9391 469.125C31.9391 465.589 31.9391 462.242 31.9391 458.57C28.2537 458.744 24.6703 458.903 20.8281 459.086C20.9928 462.804 20.4752 466.279 21.2515 469.831C24.7879 470.491 28.0969 469.838 31.9391 469.125ZM9.19956 472.16C9.19956 476.198 9.19956 479.916 9.19956 483.71C12.5713 484.848 15.7391 484.477 19.3226 484.234C19.056 480.09 18.7972 476.16 18.5306 472.031C15.3471 472.092 12.438 471.371 9.19956 472.16ZM21.7533 486.465C20.8673 490.904 21.4946 494.812 21.8945 498.819C25.3995 498.94 28.4576 499.365 31.6019 498.53C30.9746 494.41 31.8136 490.373 30.7629 486.472C27.7205 486.465 24.8977 486.465 21.7533 486.465ZM9.42695 444.425C9.42695 448.522 9.42695 452.347 9.42695 456.232C12.5164 456.794 15.2922 457.052 18.1699 456.832C18.1699 452.438 18.1699 448.378 18.1699 444.273C15.1589 443.909 12.4615 443.689 9.42695 444.425ZM9.86607 427.358C12.8222 427.48 15.5666 428.246 18.1621 427.434C18.1621 422.98 18.1621 418.768 18.1621 414.557C15.2451 414.557 12.6967 414.557 9.86607 414.557C9.86607 418.927 9.86607 423.002 9.86607 427.358ZM20.9143 412.189C24.5997 411.589 27.9871 411.992 31.4059 410.838C31.7823 408.546 31.7823 406.353 31.453 404.069C28.2302 403.113 25.078 402.885 21.7926 403.47C20.9614 406.232 20.6713 408.911 20.9143 412.189Z" fill="#F6F5E9"/>
<path d="M40.0626 492.543C41.4034 488.802 40.6428 485.493 40.8546 482.351C41.9523 465.831 42.9168 449.266 41.129 432.753C39.8352 420.786 39.2549 408.834 39.647 396.822C39.6941 395.281 39.843 393.749 39.9999 391.32C37.6318 393.43 37.9847 395.357 37.9455 397.095C37.6632 409.487 38.361 421.841 39.2314 434.203C40.5174 452.385 39.9214 470.559 38.2826 488.703C38.165 490.069 38.1415 490.069 40.0626 492.543Z" fill="#F6F5E9"/>
<path d="M2.50301 495.523C0.57407 462.02 0.252584 428.828 1.86004 395.355C4.19672 396.152 3.6792 397.913 3.63215 399.423C3.24793 410.532 2.652 421.634 2.47949 432.744C2.24425 448.019 2.98132 463.287 3.50668 478.555C3.66351 483.101 3.6243 487.646 3.59294 492.192C3.57725 493.216 4.0242 494.423 2.50301 495.523Z" fill="#F6F5E9"/>
<path d="M33.4917 110.176C24.8898 110.176 16.2488 110.176 6.90991 110.176C7.09026 76.2025 7.63915 42.9119 7.10596 9.54549C16.4449 10.623 25.1408 11.5716 33.5466 10.7217C36.4086 43.8301 32.7467 77.2269 33.4917 110.176ZM32.5115 39.3757C28.7712 38.9204 25.0075 38.9508 21.0633 39.1936C21.0633 43.5494 21.0633 47.4953 21.0633 51.8207C25.0545 51.5703 28.7791 51.7676 32.5115 50.3941C32.5115 46.9034 32.5115 43.5266 32.5115 39.3757ZM31.9391 78.5018C31.9391 74.9655 31.9391 71.619 31.9391 67.9462C28.2537 68.1207 24.6703 68.2801 20.8281 68.4622C20.9928 72.1806 20.4752 75.6561 21.2515 79.2075C24.7879 79.8677 28.0969 79.2151 31.9391 78.5018ZM9.19956 81.5371C9.19956 85.5742 9.19956 89.2925 9.19956 93.0868C12.5713 94.225 15.7391 93.8532 19.3226 93.6104C19.056 89.4671 18.7972 85.5362 18.5306 81.4081C15.3471 81.4688 12.438 80.7479 9.19956 81.5371ZM21.7533 95.8414C20.8673 100.281 21.4946 104.189 21.8945 108.195C25.3995 108.317 28.4576 108.742 31.6019 107.907C30.9746 103.786 31.8136 99.7494 30.7629 95.849C27.7205 95.8414 24.8977 95.8414 21.7533 95.8414ZM9.42695 53.8014C9.42695 57.8991 9.42695 61.7237 9.42695 65.609C12.5164 66.1705 15.2922 66.4285 18.1699 66.2085C18.1699 61.8147 18.1699 57.7549 18.1699 53.6496C15.1589 53.2853 12.4615 53.0653 9.42695 53.8014ZM9.86607 36.7349C12.8222 36.8563 15.5666 37.6228 18.1621 36.8108C18.1621 32.3564 18.1621 28.1448 18.1621 23.9332C15.2451 23.9332 12.6967 23.9332 9.86607 23.9332C9.86607 28.3041 9.86607 32.3791 9.86607 36.7349ZM20.9143 21.5656C24.5997 20.9661 27.9871 21.3683 31.4059 20.2149C31.7823 17.9231 31.7823 15.73 31.453 13.4459C28.2302 12.4898 25.078 12.2621 21.7926 12.8465C20.9614 15.6086 20.6713 18.2874 20.9143 21.5656Z" fill="#F6F5E9"/>
<path d="M40.0626 101.919C41.4034 98.1779 40.6428 94.8693 40.8546 91.7277C41.9523 75.2077 42.9168 58.6421 41.129 42.1296C39.8352 30.1626 39.2549 18.2108 39.647 6.19828C39.6941 4.65783 39.843 3.12496 39.9999 0.696656C37.6318 2.80625 37.9847 4.7337 37.9455 6.47146C37.6632 18.8634 38.361 31.2174 39.2314 43.579C40.5174 61.761 39.9214 79.9353 38.2826 98.0793C38.165 99.4452 38.1415 99.4452 40.0626 101.919Z" fill="#F6F5E9"/>
<path d="M2.50301 104.9C0.57407 71.3966 0.252584 38.2047 1.86004 4.73207C4.19672 5.52886 3.6792 7.28938 3.63215 8.79948C3.24793 19.909 2.652 31.0109 2.47949 42.1204C2.24425 57.3959 2.98132 72.6639 3.50668 87.9318C3.66351 92.4773 3.6243 97.0228 3.59294 101.568C3.57725 102.593 4.0242 103.799 2.50301 104.9Z" fill="#F6F5E9"/>
</svg>
