<svg width="523" height="1080" viewBox="0 0 523 1080" fill="none" xmlns="http://www.w3.org/2000/svg">
<rect x="33.5024" y="5.88086" width="457.604" height="1068.24" fill="#098770"/>
<path d="M472.545 1.44238C485.833 1.44238 499.182 1.44238 513.609 1.44238C513.33 53.9258 512.482 105.354 513.306 156.9C498.879 155.235 485.445 153.77 472.46 155.083C468.038 103.936 473.695 52.3432 472.545 1.44238ZM474.059 110.817C479.837 111.52 485.651 111.473 491.744 111.098C491.744 104.369 491.744 98.2735 491.744 91.5915C485.579 91.9783 479.825 91.6735 474.059 93.7954C474.059 99.1879 474.059 104.405 474.059 110.817ZM474.943 50.3737C474.943 55.8366 474.943 61.0064 474.943 66.6803C480.636 66.4107 486.172 66.1645 492.108 65.8832C491.853 60.1389 492.653 54.7698 491.454 49.2835C485.991 48.2636 480.879 49.2718 474.943 50.3737ZM510.072 45.6846C510.072 39.448 510.072 33.7038 510.072 27.8424C504.863 26.0839 499.969 26.6583 494.434 27.0335C494.845 33.4342 495.245 39.5067 495.657 45.8839C500.575 45.7901 505.069 46.9038 510.072 45.6846ZM490.678 23.5869C492.047 16.7291 491.078 10.6917 490.46 4.50204C485.046 4.31447 480.321 3.658 475.464 4.94751C476.433 11.313 475.137 17.5496 476.76 23.5752C481.46 23.5869 485.821 23.5869 490.678 23.5869ZM509.721 88.5317C509.721 82.2014 509.721 76.293 509.721 70.2909C504.948 69.4234 500.66 69.0249 496.214 69.3648C496.214 76.1524 496.214 82.4241 496.214 88.7662C500.866 89.3289 505.033 89.6689 509.721 88.5317ZM509.042 114.897C504.476 114.709 500.236 113.525 496.226 114.779C496.226 121.661 496.226 128.167 496.226 134.673C500.732 134.673 504.669 134.673 509.042 134.673C509.042 127.921 509.042 121.626 509.042 114.897ZM491.975 138.331C486.281 139.257 481.048 138.635 475.767 140.417C475.185 143.958 475.185 147.346 475.694 150.874C480.673 152.351 485.542 152.703 490.618 151.8C491.902 147.533 492.35 143.395 491.975 138.331Z" fill="#F6F5E9"/>
<path d="M462.394 156.372C460.323 150.592 461.498 145.481 461.17 140.628C459.475 115.107 457.985 89.516 460.746 64.007C462.745 45.52 463.642 27.0564 463.036 8.4991C462.963 6.11935 462.733 3.75133 462.491 -1.43023e-07C466.149 3.25896 465.604 6.23656 465.665 8.9211C466.101 28.0646 465.023 47.1495 463.678 66.2461C461.691 94.3341 462.612 122.41 465.144 150.44C465.325 152.55 465.362 152.55 462.394 156.372Z" fill="#F6F5E9"/>
<path d="M520.417 4.41992C523.397 56.1765 523.893 107.452 521.41 159.162C517.8 157.931 518.6 155.212 518.673 152.879C519.266 135.716 520.187 118.566 520.453 101.403C520.817 77.8053 519.678 54.2188 518.866 30.6324C518.624 23.6104 518.685 16.5883 518.733 9.56629C518.757 7.9837 518.067 6.11974 520.417 4.41992Z" fill="#F6F5E9"/>
<path d="M472.545 262.242C485.833 262.242 499.182 262.242 513.609 262.242C513.33 314.725 512.482 366.153 513.306 417.699C498.879 416.034 485.445 414.569 472.46 415.882C468.038 364.735 473.695 313.142 472.545 262.242ZM474.059 371.616C479.837 372.32 485.651 372.273 491.744 371.898C491.744 365.169 491.744 359.073 491.744 352.391C485.579 352.778 479.825 352.473 474.059 354.595C474.059 359.987 474.059 365.204 474.059 371.616ZM474.943 311.173C474.943 316.636 474.943 321.806 474.943 327.48C480.636 327.21 486.172 326.964 492.108 326.682C491.853 320.938 492.653 315.569 491.454 310.083C485.991 309.063 480.879 310.071 474.943 311.173ZM510.072 306.484C510.072 300.247 510.072 294.503 510.072 288.642C504.863 286.883 499.969 287.458 494.434 287.833C494.845 294.233 495.245 300.306 495.657 306.683C500.575 306.589 505.069 307.703 510.072 306.484ZM490.678 284.386C492.047 277.528 491.078 271.491 490.46 265.301C485.046 265.114 480.321 264.457 475.464 265.747C476.433 272.112 475.137 278.349 476.76 284.375C481.46 284.386 485.821 284.386 490.678 284.386ZM509.721 349.331C509.721 343.001 509.721 337.092 509.721 331.09C504.948 330.223 500.66 329.824 496.214 330.164C496.214 336.952 496.214 343.223 496.214 349.566C500.866 350.128 505.033 350.468 509.721 349.331ZM509.042 375.696C504.476 375.508 500.236 374.324 496.226 375.579C496.226 382.46 496.226 388.966 496.226 395.472C500.732 395.472 504.669 395.472 509.042 395.472C509.042 388.72 509.042 382.425 509.042 375.696ZM491.975 399.13C486.281 400.056 481.048 399.435 475.767 401.217C475.185 404.757 475.185 408.145 475.694 411.673C480.673 413.151 485.542 413.502 490.618 412.6C491.902 408.332 492.35 404.194 491.975 399.13Z" fill="#F6F5E9"/>
<path d="M462.394 417.172C460.323 411.392 461.498 406.281 461.17 401.428C459.475 375.907 457.985 350.316 460.746 324.807C462.745 306.32 463.642 287.856 463.036 269.299C462.963 266.919 462.733 264.551 462.491 260.8C466.149 264.059 465.604 267.036 465.665 269.721C466.101 288.864 465.023 307.949 463.678 327.046C461.691 355.134 462.612 383.21 465.144 411.24C465.325 413.35 465.362 413.35 462.394 417.172Z" fill="#F6F5E9"/>
<path d="M520.417 265.22C523.397 316.976 523.893 368.252 521.41 419.962C517.8 418.731 518.6 416.011 518.673 413.678C519.266 396.516 520.187 379.366 520.453 362.203C520.817 338.605 519.678 315.019 518.866 291.432C518.624 284.41 518.685 277.388 518.733 270.366C518.757 268.784 518.067 266.92 520.417 265.22Z" fill="#F6F5E9"/>
<path d="M472.545 131.629C485.833 131.629 499.182 131.629 513.609 131.629C513.33 184.113 512.482 235.541 513.306 287.087C498.879 285.422 485.445 283.957 472.46 285.27C468.038 234.123 473.695 182.53 472.545 131.629ZM474.059 241.004C479.837 241.707 485.651 241.66 491.744 241.285C491.744 234.556 491.744 228.461 491.744 221.778C485.579 222.165 479.825 221.861 474.059 223.982C474.059 229.375 474.059 234.592 474.059 241.004ZM474.943 180.561C474.943 186.024 474.943 191.193 474.943 196.867C480.636 196.598 486.172 196.352 492.108 196.07C491.853 190.326 492.653 184.957 491.454 179.471C485.991 178.451 480.879 179.459 474.943 180.561ZM510.072 175.872C510.072 169.635 510.072 163.891 510.072 158.029C504.863 156.271 499.969 156.845 494.434 157.22C494.845 163.621 495.245 169.694 495.657 176.071C500.575 175.977 505.069 177.091 510.072 175.872ZM490.678 153.774C492.047 146.916 491.078 140.879 490.46 134.689C485.046 134.501 480.321 133.845 475.464 135.135C476.433 141.5 475.137 147.737 476.76 153.762C481.46 153.774 485.821 153.774 490.678 153.774ZM509.721 218.719C509.721 212.388 509.721 206.48 509.721 200.478C504.948 199.61 500.66 199.212 496.214 199.552C496.214 206.339 496.214 212.611 496.214 218.953C500.866 219.516 505.033 219.856 509.721 218.719ZM509.042 245.084C504.476 244.896 500.236 243.712 496.226 244.966C496.226 251.848 496.226 258.354 496.226 264.86C500.732 264.86 504.669 264.86 509.042 264.86C509.042 258.108 509.042 251.813 509.042 245.084ZM491.975 268.518C486.281 269.444 481.048 268.822 475.767 270.604C475.185 274.145 475.185 277.533 475.694 281.061C480.673 282.538 485.542 282.89 490.618 281.987C491.902 277.72 492.35 273.582 491.975 268.518Z" fill="#F6F5E9"/>
<path d="M462.394 144.385C460.322 150.164 461.497 155.275 461.17 160.129C459.474 185.649 457.984 211.24 460.746 236.749C462.745 255.236 463.641 273.7 463.036 292.257C462.963 294.637 462.733 297.005 462.49 300.756C466.149 297.497 465.604 294.52 465.664 291.835C466.1 272.692 465.022 253.607 463.678 234.51C461.691 206.422 462.612 178.346 465.143 150.317C465.325 148.206 465.361 148.206 462.394 144.385Z" fill="#F6F5E9"/>
<path d="M520.417 139.78C523.397 191.537 523.893 242.813 521.41 294.522C517.8 293.292 518.6 290.572 518.673 288.239C519.266 271.077 520.187 253.926 520.453 236.764C520.817 213.166 519.678 189.579 518.866 165.993C518.624 158.971 518.685 151.949 518.733 144.927C518.757 143.344 518.067 141.48 520.417 139.78Z" fill="#F6F5E9"/>
<path d="M472.545 392.429C485.833 392.429 499.182 392.429 513.609 392.429C513.33 444.912 512.482 496.34 513.306 547.886C498.879 546.221 485.445 544.756 472.46 546.069C468.038 494.922 473.695 443.33 472.545 392.429ZM474.059 501.803C479.837 502.507 485.651 502.46 491.744 502.085C491.744 495.356 491.744 489.26 491.744 482.578C485.579 482.965 479.825 482.66 474.059 484.782C474.059 490.174 474.059 495.391 474.059 501.803ZM474.943 441.36C474.943 446.823 474.943 451.993 474.943 457.667C480.636 457.397 486.172 457.151 492.108 456.869C491.853 451.125 492.653 445.756 491.454 440.27C485.991 439.25 480.879 440.258 474.943 441.36ZM510.072 436.671C510.072 430.434 510.072 424.69 510.072 418.829C504.863 417.07 499.969 417.645 494.434 418.02C494.845 424.421 495.245 430.493 495.657 436.87C500.575 436.776 505.069 437.89 510.072 436.671ZM490.678 414.573C492.047 407.715 491.078 401.678 490.46 395.488C485.046 395.301 480.321 394.644 475.464 395.934C476.433 402.299 475.137 408.536 476.76 414.562C481.46 414.573 485.821 414.573 490.678 414.573ZM509.721 479.518C509.721 473.188 509.721 467.279 509.721 461.277C504.948 460.41 500.66 460.011 496.214 460.351C496.214 467.139 496.214 473.41 496.214 479.753C500.866 480.315 505.033 480.655 509.721 479.518ZM509.042 505.883C504.476 505.695 500.236 504.511 496.226 505.766C496.226 512.647 496.226 519.153 496.226 525.659C500.732 525.659 504.669 525.659 509.042 525.659C509.042 518.907 509.042 512.612 509.042 505.883ZM491.975 529.317C486.281 530.243 481.048 529.622 475.767 531.404C475.185 534.944 475.185 538.332 475.694 541.86C480.673 543.338 485.542 543.689 490.618 542.787C491.902 538.519 492.35 534.381 491.975 529.317Z" fill="#F6F5E9"/>
<path d="M462.394 405.184C460.322 410.963 461.497 416.075 461.17 420.928C459.474 446.449 457.984 472.04 460.746 497.549C462.745 516.036 463.641 534.499 463.036 553.057C462.963 555.436 462.733 557.804 462.49 561.556C466.149 558.297 465.604 555.319 465.664 552.635C466.1 533.491 465.022 514.406 463.678 495.31C461.691 467.222 462.612 439.145 465.143 411.116C465.325 409.006 465.361 409.006 462.394 405.184Z" fill="#F6F5E9"/>
<path d="M520.417 400.58C523.397 452.336 523.893 503.612 521.41 555.322C517.8 554.091 518.6 551.371 518.673 549.038C519.266 531.876 520.187 514.725 520.453 497.563C520.817 473.965 519.678 450.378 518.866 426.792C518.624 419.77 518.685 412.748 518.733 405.726C518.757 404.143 518.067 402.279 520.417 400.58Z" fill="#F6F5E9"/>
<path d="M472.545 1.44238C485.833 1.44238 499.182 1.44238 513.609 1.44238C513.33 53.9258 512.482 105.354 513.306 156.9C498.879 155.235 485.445 153.77 472.46 155.083C468.038 103.936 473.695 52.3432 472.545 1.44238ZM474.059 110.817C479.837 111.52 485.651 111.473 491.744 111.098C491.744 104.369 491.744 98.2735 491.744 91.5915C485.579 91.9783 479.825 91.6735 474.059 93.7954C474.059 99.1879 474.059 104.405 474.059 110.817ZM474.943 50.3737C474.943 55.8366 474.943 61.0064 474.943 66.6803C480.636 66.4107 486.172 66.1645 492.108 65.8832C491.853 60.1389 492.653 54.7698 491.454 49.2835C485.991 48.2636 480.879 49.2718 474.943 50.3737ZM510.072 45.6846C510.072 39.448 510.072 33.7038 510.072 27.8424C504.863 26.0839 499.969 26.6583 494.434 27.0335C494.845 33.4342 495.245 39.5067 495.657 45.8839C500.575 45.7901 505.069 46.9038 510.072 45.6846ZM490.678 23.5869C492.047 16.7291 491.078 10.6917 490.46 4.50204C485.046 4.31447 480.321 3.658 475.464 4.94751C476.433 11.313 475.137 17.5496 476.76 23.5752C481.46 23.5869 485.821 23.5869 490.678 23.5869ZM509.721 88.5317C509.721 82.2014 509.721 76.293 509.721 70.2909C504.948 69.4234 500.66 69.0249 496.214 69.3648C496.214 76.1524 496.214 82.4241 496.214 88.7662C500.866 89.3289 505.033 89.6689 509.721 88.5317ZM509.042 114.897C504.476 114.709 500.236 113.525 496.226 114.779C496.226 121.661 496.226 128.167 496.226 134.673C500.732 134.673 504.669 134.673 509.042 134.673C509.042 127.921 509.042 121.626 509.042 114.897ZM491.975 138.331C486.281 139.257 481.048 138.635 475.767 140.417C475.185 143.958 475.185 147.346 475.694 150.874C480.673 152.351 485.542 152.703 490.618 151.8C491.902 147.533 492.35 143.395 491.975 138.331Z" fill="#F6F5E9"/>
<path d="M462.394 156.372C460.323 150.592 461.498 145.481 461.17 140.628C459.475 115.107 457.985 89.516 460.746 64.007C462.745 45.52 463.642 27.0564 463.036 8.4991C462.963 6.11935 462.733 3.75133 462.491 -1.43023e-07C466.149 3.25896 465.604 6.23656 465.665 8.9211C466.101 28.0646 465.023 47.1495 463.678 66.2461C461.691 94.3341 462.612 122.41 465.144 150.44C465.325 152.55 465.362 152.55 462.394 156.372Z" fill="#F6F5E9"/>
<path d="M520.417 4.41992C523.397 56.1765 523.893 107.452 521.41 159.162C517.8 157.931 518.6 155.212 518.673 152.879C519.266 135.716 520.187 118.566 520.453 101.403C520.817 77.8053 519.678 54.2188 518.866 30.6324C518.624 23.6104 518.685 16.5883 518.733 9.56629C518.757 7.9837 518.067 6.11974 520.417 4.41992Z" fill="#F6F5E9"/>
<path d="M472.545 262.241C485.833 262.241 499.182 262.241 513.609 262.241C513.33 314.725 512.482 366.153 513.306 417.698C498.879 416.034 485.445 414.568 472.46 415.881C468.038 364.734 473.695 313.142 472.545 262.241ZM474.059 371.616C479.837 372.319 485.651 372.272 491.744 371.897C491.744 365.168 491.744 359.072 491.744 352.39C485.579 352.777 479.825 352.472 474.059 354.594C474.059 359.987 474.059 365.203 474.059 371.616ZM474.943 311.173C474.943 316.635 474.943 321.805 474.943 327.479C480.636 327.21 486.172 326.963 492.108 326.682C491.853 320.938 492.653 315.569 491.454 310.082C485.991 309.062 480.879 310.071 474.943 311.173ZM510.072 306.483C510.072 300.247 510.072 294.503 510.072 288.641C504.863 286.883 499.969 287.457 494.434 287.832C494.845 294.233 495.245 300.305 495.657 306.683C500.575 306.589 505.069 307.703 510.072 306.483ZM490.678 284.386C492.047 277.528 491.078 271.491 490.46 265.301C485.046 265.113 480.321 264.457 475.464 265.746C476.433 272.112 475.137 278.348 476.76 284.374C481.46 284.386 485.821 284.386 490.678 284.386ZM509.721 349.331C509.721 343 509.721 337.092 509.721 331.09C504.948 330.222 500.66 329.824 496.214 330.164C496.214 336.951 496.214 343.223 496.214 349.565C500.866 350.128 505.033 350.468 509.721 349.331ZM509.042 375.695C504.476 375.508 500.236 374.324 496.226 375.578C496.226 382.459 496.226 388.966 496.226 395.472C500.732 395.472 504.669 395.472 509.042 395.472C509.042 388.72 509.042 382.424 509.042 375.695ZM491.975 399.129C486.281 400.056 481.048 399.434 475.767 401.216C475.185 404.756 475.185 408.144 475.694 411.673C480.673 413.15 485.542 413.502 490.618 412.599C491.902 408.332 492.35 404.194 491.975 399.129Z" fill="#F6F5E9"/>
<path d="M462.394 417.171C460.323 411.392 461.498 406.28 461.17 401.427C459.475 375.906 457.985 350.315 460.746 324.806C462.745 306.319 463.642 287.856 463.036 269.298C462.963 266.919 462.733 264.551 462.491 260.799C466.149 264.058 465.604 267.036 465.665 269.72C466.101 288.864 465.023 307.949 463.678 327.045C461.691 355.133 462.612 383.21 465.144 411.239C465.325 413.349 465.362 413.349 462.394 417.171Z" fill="#F6F5E9"/>
<path d="M520.417 265.219C523.397 316.976 523.893 368.252 521.41 419.961C517.8 418.731 518.6 416.011 518.673 413.678C519.266 396.516 520.187 379.365 520.453 362.203C520.817 338.605 519.678 315.018 518.866 291.432C518.624 284.41 518.685 277.388 518.733 270.366C518.757 268.783 518.067 266.919 520.417 265.219Z" fill="#F6F5E9"/>
<path d="M472.545 131.629C485.833 131.629 499.182 131.629 513.609 131.629C513.33 184.113 512.482 235.541 513.306 287.087C498.879 285.422 485.445 283.957 472.46 285.27C468.038 234.123 473.695 182.53 472.545 131.629ZM474.059 241.004C479.837 241.707 485.651 241.66 491.744 241.285C491.744 234.556 491.744 228.461 491.744 221.778C485.579 222.165 479.825 221.861 474.059 223.982C474.059 229.375 474.059 234.592 474.059 241.004ZM474.943 180.561C474.943 186.024 474.943 191.193 474.943 196.867C480.636 196.598 486.172 196.352 492.108 196.07C491.853 190.326 492.653 184.957 491.454 179.471C485.991 178.451 480.879 179.459 474.943 180.561ZM510.072 175.872C510.072 169.635 510.072 163.891 510.072 158.029C504.863 156.271 499.969 156.845 494.434 157.22C494.845 163.621 495.245 169.694 495.657 176.071C500.575 175.977 505.069 177.091 510.072 175.872ZM490.678 153.774C492.047 146.916 491.078 140.879 490.46 134.689C485.046 134.501 480.321 133.845 475.464 135.135C476.433 141.5 475.137 147.737 476.76 153.762C481.46 153.774 485.821 153.774 490.678 153.774ZM509.721 218.719C509.721 212.388 509.721 206.48 509.721 200.478C504.948 199.61 500.66 199.212 496.214 199.552C496.214 206.339 496.214 212.611 496.214 218.953C500.866 219.516 505.033 219.856 509.721 218.719ZM509.042 245.084C504.476 244.896 500.236 243.712 496.226 244.966C496.226 251.848 496.226 258.354 496.226 264.86C500.732 264.86 504.669 264.86 509.042 264.86C509.042 258.108 509.042 251.813 509.042 245.084ZM491.975 268.518C486.281 269.444 481.048 268.822 475.767 270.604C475.185 274.145 475.185 277.533 475.694 281.061C480.673 282.538 485.542 282.89 490.618 281.987C491.902 277.72 492.35 273.582 491.975 268.518Z" fill="#F6F5E9"/>
<path d="M462.394 144.385C460.322 150.164 461.497 155.275 461.17 160.129C459.474 185.649 457.984 211.24 460.746 236.749C462.745 255.236 463.641 273.7 463.036 292.257C462.963 294.637 462.733 297.005 462.49 300.756C466.149 297.497 465.604 294.52 465.664 291.835C466.1 272.692 465.022 253.607 463.678 234.51C461.691 206.422 462.612 178.346 465.143 150.317C465.325 148.206 465.361 148.206 462.394 144.385Z" fill="#F6F5E9"/>
<path d="M520.417 139.78C523.397 191.537 523.893 242.813 521.41 294.522C517.8 293.292 518.6 290.572 518.673 288.239C519.266 271.077 520.187 253.926 520.453 236.764C520.817 213.166 519.678 189.579 518.866 165.993C518.624 158.971 518.685 151.949 518.733 144.927C518.757 143.344 518.067 141.48 520.417 139.78Z" fill="#F6F5E9"/>
<path d="M472.545 392.429C485.833 392.429 499.182 392.429 513.609 392.429C513.33 444.912 512.482 496.34 513.306 547.886C498.879 546.221 485.445 544.756 472.46 546.069C468.038 494.922 473.695 443.33 472.545 392.429ZM474.059 501.803C479.837 502.507 485.651 502.46 491.744 502.085C491.744 495.356 491.744 489.26 491.744 482.578C485.579 482.965 479.825 482.66 474.059 484.782C474.059 490.174 474.059 495.391 474.059 501.803ZM474.943 441.36C474.943 446.823 474.943 451.993 474.943 457.667C480.636 457.397 486.172 457.151 492.108 456.869C491.853 451.125 492.653 445.756 491.454 440.27C485.991 439.25 480.879 440.258 474.943 441.36ZM510.072 436.671C510.072 430.434 510.072 424.69 510.072 418.829C504.863 417.07 499.969 417.645 494.434 418.02C494.845 424.421 495.245 430.493 495.657 436.87C500.575 436.776 505.069 437.89 510.072 436.671ZM490.678 414.573C492.047 407.715 491.078 401.678 490.46 395.488C485.046 395.301 480.321 394.644 475.464 395.934C476.433 402.299 475.137 408.536 476.76 414.562C481.46 414.573 485.821 414.573 490.678 414.573ZM509.721 479.518C509.721 473.188 509.721 467.279 509.721 461.277C504.948 460.41 500.66 460.011 496.214 460.351C496.214 467.139 496.214 473.41 496.214 479.753C500.866 480.315 505.033 480.655 509.721 479.518ZM509.042 505.883C504.476 505.695 500.236 504.511 496.226 505.766C496.226 512.647 496.226 519.153 496.226 525.659C500.732 525.659 504.669 525.659 509.042 525.659C509.042 518.907 509.042 512.612 509.042 505.883ZM491.975 529.317C486.281 530.243 481.048 529.622 475.767 531.404C475.185 534.944 475.185 538.332 475.694 541.86C480.673 543.338 485.542 543.689 490.618 542.787C491.902 538.519 492.35 534.381 491.975 529.317Z" fill="#F6F5E9"/>
<path d="M462.394 405.184C460.322 410.963 461.497 416.075 461.17 420.928C459.474 446.449 457.984 472.04 460.746 497.549C462.745 516.036 463.641 534.499 463.036 553.057C462.963 555.436 462.733 557.804 462.49 561.556C466.149 558.297 465.604 555.319 465.664 552.635C466.1 533.491 465.022 514.406 463.678 495.31C461.691 467.222 462.612 439.145 465.143 411.116C465.325 409.006 465.361 409.006 462.394 405.184Z" fill="#F6F5E9"/>
<path d="M520.417 400.58C523.397 452.336 523.893 503.612 521.41 555.322C517.8 554.091 518.6 551.371 518.673 549.038C519.266 531.876 520.187 514.725 520.453 497.563C520.817 473.965 519.678 450.378 518.866 426.792C518.624 419.77 518.685 412.748 518.733 405.726C518.757 404.143 518.067 402.279 520.417 400.58Z" fill="#F6F5E9"/>
<path d="M472.545 519.885C485.833 519.885 499.182 519.885 513.609 519.885C513.33 572.369 512.482 623.797 513.306 675.343C498.879 673.678 485.445 672.213 472.46 673.525C468.038 622.379 473.695 570.786 472.545 519.885ZM474.059 629.26C479.837 629.963 485.651 629.916 491.744 629.541C491.744 622.812 491.744 616.716 491.744 610.034C485.579 610.421 479.825 610.116 474.059 612.238C474.059 617.631 474.059 622.847 474.059 629.26ZM474.943 568.817C474.943 574.279 474.943 579.449 474.943 585.123C480.636 584.854 486.172 584.607 492.108 584.326C491.853 578.582 492.653 573.213 491.454 567.726C485.99 566.706 480.879 567.715 474.943 568.817ZM510.072 564.127C510.072 557.891 510.072 552.147 510.072 546.285C504.863 544.527 499.969 545.101 494.433 545.476C494.845 551.877 495.245 557.95 495.657 564.327C500.575 564.233 505.069 565.347 510.072 564.127ZM490.678 542.03C492.047 535.172 491.078 529.135 490.46 522.945C485.046 522.757 480.321 522.101 475.464 523.39C476.433 529.756 475.137 535.993 476.76 542.018C481.46 542.03 485.821 542.03 490.678 542.03ZM509.72 606.975C509.72 600.644 509.72 594.736 509.72 588.734C504.948 587.866 500.66 587.468 496.214 587.808C496.214 594.595 496.214 600.867 496.214 607.209C500.866 607.772 505.033 608.112 509.72 606.975ZM509.042 633.339C504.475 633.152 500.236 631.968 496.226 633.222C496.226 640.104 496.226 646.61 496.226 653.116C500.732 653.116 504.669 653.116 509.042 653.116C509.042 646.364 509.042 640.068 509.042 633.339ZM491.974 656.774C486.281 657.7 481.048 657.078 475.767 658.86C475.185 662.4 475.185 665.788 475.694 669.317C480.673 670.794 485.542 671.146 490.618 670.243C491.902 665.976 492.35 661.838 491.974 656.774Z" fill="#F6F5E9"/>
<path d="M462.394 674.815C460.322 669.036 461.497 663.924 461.17 659.071C459.474 633.55 457.985 607.959 460.746 582.45C462.745 563.963 463.641 545.5 463.036 526.942C462.963 524.563 462.733 522.195 462.491 518.443C466.149 521.702 465.604 524.68 465.664 527.364C466.1 546.508 465.022 565.593 463.678 584.689C461.691 612.777 462.612 640.854 465.144 668.883C465.325 670.993 465.362 670.993 462.394 674.815Z" fill="#F6F5E9"/>
<path d="M520.417 522.863C523.397 574.62 523.893 625.896 521.41 677.605C517.8 676.375 518.6 673.655 518.672 671.322C519.266 654.16 520.187 637.009 520.453 619.847C520.816 596.249 519.678 572.662 518.866 549.076C518.624 542.054 518.685 535.032 518.733 528.01C518.757 526.427 518.067 524.563 520.417 522.863Z" fill="#F6F5E9"/>
<path d="M472.545 780.686C485.833 780.686 499.182 780.686 513.609 780.686C513.33 833.169 512.482 884.597 513.306 936.143C498.879 934.478 485.445 933.013 472.46 934.326C468.038 883.179 473.695 831.586 472.545 780.686ZM474.059 890.06C479.837 890.764 485.651 890.717 491.744 890.341C491.744 883.613 491.744 877.517 491.744 870.835C485.579 871.221 479.825 870.917 474.059 873.039C474.059 878.431 474.059 883.648 474.059 890.06ZM474.943 829.617C474.943 835.08 474.943 840.25 474.943 845.923C480.636 845.654 486.172 845.408 492.108 845.126C491.853 839.382 492.653 834.013 491.454 828.527C485.99 827.507 480.879 828.515 474.943 829.617ZM510.072 824.928C510.072 818.691 510.072 812.947 510.072 807.086C504.863 805.327 499.969 805.902 494.433 806.277C494.845 812.677 495.245 818.75 495.657 825.127C500.575 825.033 505.069 826.147 510.072 824.928ZM490.678 802.83C492.047 795.972 491.078 789.935 490.46 783.745C485.046 783.558 480.321 782.901 475.464 784.191C476.433 790.556 475.137 796.793 476.76 802.818C481.46 802.83 485.821 802.83 490.678 802.83ZM509.72 867.775C509.72 861.445 509.72 855.536 509.72 849.534C504.948 848.667 500.66 848.268 496.214 848.608C496.214 855.396 496.214 861.667 496.214 868.009C500.866 868.572 505.033 868.912 509.72 867.775ZM509.042 894.14C504.475 893.952 500.236 892.768 496.226 894.022C496.226 900.904 496.226 907.41 496.226 913.916C500.732 913.916 504.669 913.916 509.042 913.916C509.042 907.164 509.042 900.869 509.042 894.14ZM491.974 917.574C486.281 918.5 481.048 917.879 475.767 919.66C475.185 923.201 475.185 926.589 475.694 930.117C480.673 931.594 485.542 931.946 490.618 931.043C491.902 926.776 492.35 922.638 491.974 917.574Z" fill="#F6F5E9"/>
<path d="M462.394 935.615C460.322 929.835 461.497 924.724 461.17 919.871C459.474 894.35 457.985 868.759 460.746 843.25C462.745 824.763 463.641 806.3 463.036 787.742C462.963 785.363 462.733 782.994 462.491 779.243C466.149 782.502 465.604 785.48 465.664 788.164C466.1 807.308 465.022 826.393 463.678 845.489C461.691 873.577 462.612 901.654 465.144 929.683C465.325 931.793 465.362 931.793 462.394 935.615Z" fill="#F6F5E9"/>
<path d="M520.417 783.663C523.397 835.42 523.893 886.696 521.41 938.405C517.8 937.174 518.6 934.455 518.672 932.122C519.266 914.96 520.187 897.809 520.453 880.647C520.816 857.048 519.678 833.462 518.866 809.876C518.624 802.854 518.685 795.831 518.733 788.809C518.757 787.227 518.067 785.363 520.417 783.663Z" fill="#F6F5E9"/>
<path d="M472.545 650.073C485.833 650.073 499.182 650.073 513.609 650.073C513.33 702.556 512.482 753.984 513.306 805.53C498.879 803.865 485.445 802.4 472.46 803.713C468.038 752.566 473.695 700.974 472.545 650.073ZM474.059 759.447C479.837 760.151 485.651 760.104 491.744 759.729C491.744 753 491.744 746.904 491.744 740.222C485.579 740.609 479.825 740.304 474.059 742.426C474.059 747.818 474.059 753.035 474.059 759.447ZM474.943 699.004C474.943 704.467 474.943 709.637 474.943 715.311C480.636 715.041 486.172 714.795 492.108 714.514C491.853 708.769 492.653 703.4 491.454 697.914C485.99 696.894 480.879 697.902 474.943 699.004ZM510.072 694.315C510.072 688.078 510.072 682.334 510.072 676.473C504.863 674.714 499.969 675.289 494.433 675.664C494.845 682.065 495.245 688.137 495.657 694.514C500.575 694.421 505.069 695.534 510.072 694.315ZM490.678 672.217C492.047 665.359 491.078 659.322 490.46 653.132C485.046 652.945 480.321 652.288 475.464 653.578C476.433 659.943 475.137 666.18 476.76 672.206C481.46 672.217 485.821 672.217 490.678 672.217ZM509.72 737.162C509.72 730.832 509.72 724.923 509.72 718.921C504.948 718.054 500.66 717.655 496.214 717.995C496.214 724.783 496.214 731.054 496.214 737.397C500.866 737.959 505.033 738.299 509.72 737.162ZM509.042 763.527C504.475 763.339 500.236 762.155 496.226 763.41C496.226 770.291 496.226 776.797 496.226 783.303C500.732 783.303 504.669 783.303 509.042 783.303C509.042 776.551 509.042 770.256 509.042 763.527ZM491.974 786.961C486.281 787.887 481.048 787.266 475.767 789.048C475.185 792.588 475.185 795.976 475.694 799.505C480.673 800.982 485.542 801.333 490.618 800.431C491.902 796.163 492.35 792.025 491.974 786.961Z" fill="#F6F5E9"/>
<path d="M462.393 662.828C460.322 668.608 461.497 673.719 461.17 678.572C459.474 704.093 457.984 729.684 460.746 755.193C462.745 773.68 463.641 792.144 463.035 810.701C462.963 813.081 462.733 815.449 462.49 819.2C466.149 815.941 465.603 812.964 465.664 810.279C466.1 791.136 465.022 772.051 463.677 752.954C461.691 724.866 462.611 696.79 465.143 668.76C465.325 666.65 465.361 666.65 462.393 662.828Z" fill="#F6F5E9"/>
<path d="M520.417 658.224C523.397 709.98 523.893 761.256 521.41 812.966C517.8 811.735 518.6 809.015 518.672 806.682C519.266 789.52 520.187 772.369 520.453 755.207C520.816 731.609 519.678 708.023 518.866 684.436C518.624 677.414 518.685 670.392 518.733 663.37C518.757 661.787 518.067 659.923 520.417 658.224Z" fill="#F6F5E9"/>
<path d="M472.545 910.873C485.833 910.873 499.182 910.873 513.609 910.873C513.33 963.356 512.482 1014.78 513.306 1066.33C498.879 1064.67 485.445 1063.2 472.46 1064.51C468.038 1013.37 473.695 961.774 472.545 910.873ZM474.059 1020.25C479.837 1020.95 485.651 1020.9 491.744 1020.53C491.744 1013.8 491.744 1007.7 491.744 1001.02C485.579 1001.41 479.825 1001.1 474.059 1003.23C474.059 1008.62 474.059 1013.84 474.059 1020.25ZM474.943 959.804C474.943 965.267 474.943 970.437 474.943 976.111C480.636 975.841 486.172 975.595 492.108 975.314C491.853 969.57 492.653 964.2 491.454 958.714C485.99 957.694 480.879 958.702 474.943 959.804ZM510.072 955.115C510.072 948.879 510.072 943.134 510.072 937.273C504.863 935.515 499.969 936.089 494.433 936.464C494.845 942.865 495.245 948.937 495.657 955.315C500.575 955.221 505.069 956.334 510.072 955.115ZM490.678 933.018C492.047 926.16 491.078 920.122 490.46 913.933C485.046 913.745 480.321 913.089 475.464 914.378C476.433 920.744 475.137 926.98 476.76 933.006C481.46 933.018 485.821 933.018 490.678 933.018ZM509.72 997.962C509.72 991.632 509.72 985.724 509.72 979.722C504.948 978.854 500.66 978.456 496.214 978.795C496.214 985.583 496.214 991.855 496.214 998.197C500.866 998.76 505.033 999.1 509.72 997.962ZM509.042 1024.33C504.475 1024.14 500.236 1022.96 496.226 1024.21C496.226 1031.09 496.226 1037.6 496.226 1044.1C500.732 1044.1 504.669 1044.1 509.042 1044.1C509.042 1037.35 509.042 1031.06 509.042 1024.33ZM491.974 1047.76C486.281 1048.69 481.048 1048.07 475.767 1049.85C475.185 1053.39 475.185 1056.78 475.694 1060.3C480.673 1061.78 485.542 1062.13 490.618 1061.23C491.902 1056.96 492.35 1052.83 491.974 1047.76Z" fill="#F6F5E9"/>
<path d="M462.393 923.628C460.322 929.408 461.497 934.519 461.17 939.372C459.474 964.893 457.984 990.484 460.746 1015.99C462.745 1034.48 463.641 1052.94 463.035 1071.5C462.963 1073.88 462.733 1076.25 462.49 1080C466.149 1076.74 465.603 1073.76 465.664 1071.08C466.1 1051.94 465.022 1032.85 463.677 1013.75C461.691 985.666 462.611 957.59 465.143 929.56C465.325 927.45 465.361 927.45 462.393 923.628Z" fill="#F6F5E9"/>
<path d="M520.417 919.024C523.397 970.781 523.893 1022.06 521.41 1073.77C517.8 1072.54 518.6 1069.82 518.672 1067.48C519.266 1050.32 520.187 1033.17 520.453 1016.01C520.816 992.409 519.678 968.823 518.866 945.236C518.624 938.214 518.685 931.192 518.733 924.17C518.757 922.588 518.067 920.724 520.417 919.024Z" fill="#F6F5E9"/>
<path d="M13.9402 1.44238C27.2285 1.44238 40.5775 1.44238 55.0045 1.44238C54.7259 53.9258 53.878 105.354 54.7017 156.9C40.2746 155.235 26.8409 153.77 13.8554 155.083C9.43398 103.936 15.0909 52.3432 13.9402 1.44238ZM15.4543 110.817C21.2324 111.52 27.0468 111.473 33.1399 111.098C33.1399 104.369 33.1399 98.2735 33.1399 91.5915C26.9742 91.9783 21.2203 91.6735 15.4543 93.7954C15.4543 99.1879 15.4543 104.405 15.4543 110.817ZM16.3386 50.3737C16.3386 55.8366 16.3386 61.0064 16.3386 66.6803C22.0319 66.4107 27.5677 66.1645 33.5033 65.8832C33.2489 60.1389 34.0484 54.7698 32.8491 49.2835C27.386 48.2636 22.2742 49.2718 16.3386 50.3737ZM51.4674 45.6846C51.4674 39.448 51.4674 33.7038 51.4674 27.8424C46.2586 26.0839 41.3648 26.6583 35.829 27.0335C36.2409 33.4342 36.6406 39.5067 37.0525 45.8839C41.9705 45.7901 46.4646 46.9038 51.4674 45.6846ZM32.0739 23.5869C33.4427 16.7291 32.4736 10.6917 31.8559 4.50204C26.4412 4.31447 21.7169 3.658 16.8595 4.94751C17.8286 11.313 16.5324 17.5496 18.1556 23.5752C22.8556 23.5869 27.2164 23.5869 32.0739 23.5869ZM51.1161 88.5317C51.1161 82.2014 51.1161 76.293 51.1161 70.2909C46.3434 69.4234 42.0553 69.0249 37.6097 69.3648C37.6097 76.1524 37.6097 82.4241 37.6097 88.7662C42.2612 89.3289 46.4282 89.6689 51.1161 88.5317ZM50.4378 114.897C45.871 114.709 41.6313 113.525 37.6218 114.779C37.6218 121.661 37.6218 128.167 37.6218 134.673C42.128 134.673 46.0648 134.673 50.4378 134.673C50.4378 127.921 50.4378 121.626 50.4378 114.897ZM33.37 138.331C27.6767 139.257 22.4437 138.635 17.1623 140.417C16.5809 143.958 16.5809 147.346 17.0896 150.874C22.0682 152.351 26.9378 152.703 32.0133 151.8C33.2973 147.533 33.7455 143.395 33.37 138.331Z" fill="#F6F5E9"/>
<path d="M3.78941 156.372C1.71803 150.592 2.89301 145.481 2.56595 140.628C0.870079 115.107 -0.619855 89.516 2.142 64.007C4.14071 45.52 5.0371 27.0564 4.43143 8.4991C4.35875 6.11935 4.1286 3.75133 3.88633 -1.43023e-07C7.54457 3.25896 6.99946 6.23656 7.06003 8.9211C7.49611 28.0646 6.41802 47.1495 5.07343 66.2461C3.08684 94.3341 4.00745 122.41 6.53915 150.44C6.72085 152.55 6.75719 152.55 3.78941 156.372Z" fill="#F6F5E9"/>
<path d="M61.8124 4.41992C64.7923 56.1765 65.2889 107.452 62.8057 159.162C59.1959 157.931 59.9954 155.212 60.068 152.879C60.6616 135.716 61.5822 118.566 61.8487 101.403C62.2121 77.8053 61.0735 54.2188 60.2619 30.6324C60.0196 23.6104 60.0802 16.5883 60.1286 9.56629C60.1528 7.9837 59.4624 6.11974 61.8124 4.41992Z" fill="#F6F5E9"/>
<path d="M13.9402 262.242C27.2285 262.242 40.5775 262.242 55.0045 262.242C54.7259 314.725 53.878 366.153 54.7017 417.699C40.2746 416.034 26.8409 414.569 13.8554 415.882C9.43398 364.735 15.0909 313.142 13.9402 262.242ZM15.4543 371.616C21.2324 372.32 27.0468 372.273 33.1399 371.898C33.1399 365.169 33.1399 359.073 33.1399 352.391C26.9742 352.778 21.2203 352.473 15.4543 354.595C15.4543 359.987 15.4543 365.204 15.4543 371.616ZM16.3386 311.173C16.3386 316.636 16.3386 321.806 16.3386 327.48C22.0319 327.21 27.5677 326.964 33.5033 326.682C33.2489 320.938 34.0484 315.569 32.8491 310.083C27.386 309.063 22.2742 310.071 16.3386 311.173ZM51.4674 306.484C51.4674 300.247 51.4674 294.503 51.4674 288.642C46.2586 286.883 41.3648 287.458 35.829 287.833C36.2409 294.233 36.6406 300.306 37.0525 306.683C41.9705 306.589 46.4646 307.703 51.4674 306.484ZM32.0739 284.386C33.4427 277.528 32.4736 271.491 31.8559 265.301C26.4412 265.114 21.7169 264.457 16.8595 265.747C17.8286 272.112 16.5324 278.349 18.1556 284.375C22.8556 284.386 27.2164 284.386 32.0739 284.386ZM51.1161 349.331C51.1161 343.001 51.1161 337.092 51.1161 331.09C46.3434 330.223 42.0553 329.824 37.6097 330.164C37.6097 336.952 37.6097 343.223 37.6097 349.566C42.2612 350.128 46.4282 350.468 51.1161 349.331ZM50.4378 375.696C45.871 375.508 41.6313 374.324 37.6218 375.579C37.6218 382.46 37.6218 388.966 37.6218 395.472C42.128 395.472 46.0648 395.472 50.4378 395.472C50.4378 388.72 50.4378 382.425 50.4378 375.696ZM33.37 399.13C27.6767 400.056 22.4437 399.435 17.1623 401.217C16.5809 404.757 16.5809 408.145 17.0896 411.673C22.0682 413.151 26.9378 413.502 32.0133 412.6C33.2973 408.332 33.7455 404.194 33.37 399.13Z" fill="#F6F5E9"/>
<path d="M3.78941 417.172C1.71803 411.392 2.89301 406.281 2.56595 401.428C0.870078 375.907 -0.619855 350.316 2.142 324.807C4.1407 306.32 5.0371 287.856 4.43143 269.299C4.35875 266.919 4.1286 264.551 3.88633 260.8C7.54457 264.059 6.99946 267.036 7.06003 269.721C7.49611 288.864 6.41802 307.949 5.07343 327.046C3.08684 355.134 4.00745 383.21 6.53915 411.24C6.72085 413.35 6.75719 413.35 3.78941 417.172Z" fill="#F6F5E9"/>
<path d="M61.8124 265.22C64.7923 316.976 65.2889 368.252 62.8057 419.962C59.1959 418.731 59.9954 416.011 60.068 413.678C60.6616 396.516 61.5822 379.366 61.8487 362.203C62.2121 338.605 61.0735 315.019 60.2619 291.432C60.0196 284.41 60.0802 277.388 60.1286 270.366C60.1528 268.784 59.4624 266.92 61.8124 265.22Z" fill="#F6F5E9"/>
<path d="M13.9402 131.629C27.2285 131.629 40.5775 131.629 55.0045 131.629C54.7259 184.113 53.878 235.541 54.7017 287.087C40.2746 285.422 26.8409 283.957 13.8554 285.27C9.43398 234.123 15.0909 182.53 13.9402 131.629ZM15.4543 241.004C21.2324 241.707 27.0468 241.66 33.1399 241.285C33.1399 234.556 33.1399 228.461 33.1399 221.778C26.9742 222.165 21.2203 221.861 15.4543 223.982C15.4543 229.375 15.4543 234.592 15.4543 241.004ZM16.3386 180.561C16.3386 186.024 16.3386 191.193 16.3386 196.867C22.0319 196.598 27.5677 196.352 33.5033 196.07C33.2489 190.326 34.0484 184.957 32.8491 179.471C27.386 178.451 22.2742 179.459 16.3386 180.561ZM51.4674 175.872C51.4674 169.635 51.4674 163.891 51.4674 158.029C46.2586 156.271 41.3648 156.845 35.829 157.22C36.2409 163.621 36.6406 169.694 37.0525 176.071C41.9705 175.977 46.4646 177.091 51.4674 175.872ZM32.0739 153.774C33.4427 146.916 32.4736 140.879 31.8559 134.689C26.4412 134.501 21.7169 133.845 16.8595 135.135C17.8286 141.5 16.5324 147.737 18.1556 153.762C22.8556 153.774 27.2164 153.774 32.0739 153.774ZM51.1161 218.719C51.1161 212.388 51.1161 206.48 51.1161 200.478C46.3434 199.61 42.0553 199.212 37.6097 199.552C37.6097 206.339 37.6097 212.611 37.6097 218.953C42.2612 219.516 46.4282 219.856 51.1161 218.719ZM50.4378 245.084C45.871 244.896 41.6313 243.712 37.6218 244.966C37.6218 251.848 37.6218 258.354 37.6218 264.86C42.128 264.86 46.0648 264.86 50.4378 264.86C50.4378 258.108 50.4378 251.813 50.4378 245.084ZM33.37 268.518C27.6767 269.444 22.4437 268.822 17.1623 270.604C16.5809 274.145 16.5809 277.533 17.0896 281.061C22.0682 282.538 26.9378 282.89 32.0133 281.987C33.2973 277.72 33.7455 273.582 33.37 268.518Z" fill="#F6F5E9"/>
<path d="M3.78906 144.385C1.71767 150.164 2.89266 155.275 2.5656 160.129C0.869723 185.649 -0.620213 211.24 2.14164 236.749C4.14034 255.236 5.03673 273.7 4.43106 292.257C4.35838 294.637 4.12823 297.005 3.88596 300.756C7.5442 297.497 6.9991 294.52 7.05966 291.835C7.49575 272.692 6.41766 253.607 5.07307 234.51C3.08648 206.422 4.0071 178.346 6.53879 150.317C6.72049 148.206 6.75684 148.206 3.78906 144.385Z" fill="#F6F5E9"/>
<path d="M61.8124 139.78C64.7923 191.537 65.2889 242.813 62.8057 294.522C59.1959 293.292 59.9954 290.572 60.068 288.239C60.6616 271.077 61.5822 253.926 61.8487 236.764C62.2121 213.166 61.0735 189.579 60.2619 165.993C60.0196 158.971 60.0802 151.949 60.1286 144.927C60.1528 143.344 59.4624 141.48 61.8124 139.78Z" fill="#F6F5E9"/>
<path d="M13.9402 392.429C27.2285 392.429 40.5775 392.429 55.0045 392.429C54.7259 444.912 53.878 496.34 54.7017 547.886C40.2746 546.221 26.8409 544.756 13.8554 546.069C9.43398 494.922 15.0909 443.33 13.9402 392.429ZM15.4543 501.803C21.2324 502.507 27.0468 502.46 33.1399 502.085C33.1399 495.356 33.1399 489.26 33.1399 482.578C26.9742 482.965 21.2203 482.66 15.4543 484.782C15.4543 490.174 15.4543 495.391 15.4543 501.803ZM16.3386 441.36C16.3386 446.823 16.3386 451.993 16.3386 457.667C22.0319 457.397 27.5677 457.151 33.5033 456.869C33.2489 451.125 34.0484 445.756 32.8491 440.27C27.386 439.25 22.2742 440.258 16.3386 441.36ZM51.4674 436.671C51.4674 430.434 51.4674 424.69 51.4674 418.829C46.2586 417.07 41.3648 417.645 35.829 418.02C36.2409 424.421 36.6406 430.493 37.0525 436.87C41.9705 436.776 46.4646 437.89 51.4674 436.671ZM32.0739 414.573C33.4427 407.715 32.4736 401.678 31.8559 395.488C26.4412 395.301 21.7169 394.644 16.8595 395.934C17.8286 402.299 16.5324 408.536 18.1556 414.562C22.8556 414.573 27.2164 414.573 32.0739 414.573ZM51.1161 479.518C51.1161 473.188 51.1161 467.279 51.1161 461.277C46.3434 460.41 42.0553 460.011 37.6097 460.351C37.6097 467.139 37.6097 473.41 37.6097 479.753C42.2612 480.315 46.4282 480.655 51.1161 479.518ZM50.4378 505.883C45.871 505.695 41.6313 504.511 37.6218 505.766C37.6218 512.647 37.6218 519.153 37.6218 525.659C42.128 525.659 46.0648 525.659 50.4378 525.659C50.4378 518.907 50.4378 512.612 50.4378 505.883ZM33.37 529.317C27.6767 530.243 22.4437 529.622 17.1623 531.404C16.5809 534.944 16.5809 538.332 17.0896 541.86C22.0682 543.338 26.9378 543.689 32.0133 542.787C33.2973 538.519 33.7455 534.381 33.37 529.317Z" fill="#F6F5E9"/>
<path d="M3.78906 405.184C1.71767 410.963 2.89266 416.075 2.5656 420.928C0.869723 446.449 -0.620213 472.04 2.14164 497.549C4.14034 516.036 5.03673 534.499 4.43106 553.057C4.35838 555.436 4.12823 557.804 3.88596 561.556C7.5442 558.297 6.9991 555.319 7.05966 552.635C7.49575 533.491 6.41766 514.406 5.07307 495.31C3.08648 467.222 4.0071 439.145 6.53879 411.116C6.72049 409.006 6.75684 409.006 3.78906 405.184Z" fill="#F6F5E9"/>
<path d="M61.8124 400.58C64.7923 452.336 65.2889 503.612 62.8057 555.322C59.1959 554.091 59.9954 551.371 60.068 549.038C60.6616 531.876 61.5822 514.725 61.8487 497.563C62.2121 473.965 61.0735 450.378 60.2619 426.792C60.0196 419.77 60.0802 412.748 60.1286 405.726C60.1528 404.143 59.4624 402.279 61.8124 400.58Z" fill="#F6F5E9"/>
<path d="M13.9402 1.44238C27.2285 1.44238 40.5775 1.44238 55.0045 1.44238C54.7259 53.9258 53.878 105.354 54.7017 156.9C40.2746 155.235 26.8409 153.77 13.8554 155.083C9.43398 103.936 15.0909 52.3432 13.9402 1.44238ZM15.4543 110.817C21.2324 111.52 27.0468 111.473 33.1399 111.098C33.1399 104.369 33.1399 98.2735 33.1399 91.5915C26.9742 91.9783 21.2203 91.6735 15.4543 93.7954C15.4543 99.1879 15.4543 104.405 15.4543 110.817ZM16.3386 50.3737C16.3386 55.8366 16.3386 61.0064 16.3386 66.6803C22.0319 66.4107 27.5677 66.1645 33.5033 65.8832C33.2489 60.1389 34.0484 54.7698 32.8491 49.2835C27.386 48.2636 22.2742 49.2718 16.3386 50.3737ZM51.4674 45.6846C51.4674 39.448 51.4674 33.7038 51.4674 27.8424C46.2586 26.0839 41.3648 26.6583 35.829 27.0335C36.2409 33.4342 36.6406 39.5067 37.0525 45.8839C41.9705 45.7901 46.4646 46.9038 51.4674 45.6846ZM32.0739 23.5869C33.4427 16.7291 32.4736 10.6917 31.8559 4.50204C26.4412 4.31447 21.7169 3.658 16.8595 4.94751C17.8286 11.313 16.5324 17.5496 18.1556 23.5752C22.8556 23.5869 27.2164 23.5869 32.0739 23.5869ZM51.1161 88.5317C51.1161 82.2014 51.1161 76.293 51.1161 70.2909C46.3434 69.4234 42.0553 69.0249 37.6097 69.3648C37.6097 76.1524 37.6097 82.4241 37.6097 88.7662C42.2612 89.3289 46.4282 89.6689 51.1161 88.5317ZM50.4378 114.897C45.871 114.709 41.6313 113.525 37.6218 114.779C37.6218 121.661 37.6218 128.167 37.6218 134.673C42.128 134.673 46.0648 134.673 50.4378 134.673C50.4378 127.921 50.4378 121.626 50.4378 114.897ZM33.37 138.331C27.6767 139.257 22.4437 138.635 17.1623 140.417C16.5809 143.958 16.5809 147.346 17.0896 150.874C22.0682 152.351 26.9378 152.703 32.0133 151.8C33.2973 147.533 33.7455 143.395 33.37 138.331Z" fill="#F6F5E9"/>
<path d="M3.78941 156.372C1.71803 150.592 2.89301 145.481 2.56595 140.628C0.870079 115.107 -0.619855 89.516 2.142 64.007C4.14071 45.52 5.0371 27.0564 4.43143 8.4991C4.35875 6.11935 4.1286 3.75133 3.88633 -1.43023e-07C7.54457 3.25896 6.99946 6.23656 7.06003 8.9211C7.49611 28.0646 6.41802 47.1495 5.07343 66.2461C3.08684 94.3341 4.00745 122.41 6.53915 150.44C6.72085 152.55 6.75719 152.55 3.78941 156.372Z" fill="#F6F5E9"/>
<path d="M61.8124 4.41992C64.7923 56.1765 65.2889 107.452 62.8057 159.162C59.1959 157.931 59.9954 155.212 60.068 152.879C60.6616 135.716 61.5822 118.566 61.8487 101.403C62.2121 77.8053 61.0735 54.2188 60.2619 30.6324C60.0196 23.6104 60.0802 16.5883 60.1286 9.56629C60.1528 7.9837 59.4624 6.11974 61.8124 4.41992Z" fill="#F6F5E9"/>
<path d="M13.9402 262.241C27.2285 262.241 40.5775 262.241 55.0045 262.241C54.7259 314.725 53.878 366.153 54.7017 417.698C40.2746 416.034 26.8409 414.568 13.8554 415.881C9.43398 364.734 15.0909 313.142 13.9402 262.241ZM15.4543 371.616C21.2324 372.319 27.0468 372.272 33.1399 371.897C33.1399 365.168 33.1399 359.072 33.1399 352.39C26.9742 352.777 21.2203 352.472 15.4543 354.594C15.4543 359.987 15.4543 365.203 15.4543 371.616ZM16.3386 311.173C16.3386 316.635 16.3386 321.805 16.3386 327.479C22.0319 327.21 27.5677 326.963 33.5033 326.682C33.2489 320.938 34.0484 315.569 32.8491 310.082C27.386 309.062 22.2742 310.071 16.3386 311.173ZM51.4674 306.483C51.4674 300.247 51.4674 294.503 51.4674 288.641C46.2586 286.883 41.3648 287.457 35.829 287.832C36.2409 294.233 36.6406 300.305 37.0525 306.683C41.9705 306.589 46.4646 307.703 51.4674 306.483ZM32.0739 284.386C33.4427 277.528 32.4736 271.491 31.8559 265.301C26.4412 265.113 21.7169 264.457 16.8595 265.746C17.8286 272.112 16.5324 278.348 18.1556 284.374C22.8556 284.386 27.2164 284.386 32.0739 284.386ZM51.1161 349.331C51.1161 343 51.1161 337.092 51.1161 331.09C46.3434 330.222 42.0553 329.824 37.6097 330.164C37.6097 336.951 37.6097 343.223 37.6097 349.565C42.2612 350.128 46.4282 350.468 51.1161 349.331ZM50.4378 375.695C45.871 375.508 41.6313 374.324 37.6218 375.578C37.6218 382.459 37.6218 388.966 37.6218 395.472C42.128 395.472 46.0648 395.472 50.4378 395.472C50.4378 388.72 50.4378 382.424 50.4378 375.695ZM33.37 399.129C27.6767 400.056 22.4437 399.434 17.1623 401.216C16.5809 404.756 16.5809 408.144 17.0896 411.673C22.0682 413.15 26.9378 413.502 32.0133 412.599C33.2973 408.332 33.7455 404.194 33.37 399.129Z" fill="#F6F5E9"/>
<path d="M3.78941 417.171C1.71803 411.392 2.89301 406.28 2.56595 401.427C0.870078 375.906 -0.619855 350.315 2.142 324.806C4.1407 306.319 5.0371 287.856 4.43143 269.298C4.35875 266.919 4.1286 264.551 3.88633 260.799C7.54457 264.058 6.99946 267.036 7.06003 269.72C7.49611 288.864 6.41802 307.949 5.07343 327.045C3.08684 355.133 4.00745 383.21 6.53915 411.239C6.72085 413.349 6.75719 413.349 3.78941 417.171Z" fill="#F6F5E9"/>
<path d="M61.8124 265.219C64.7923 316.976 65.2889 368.252 62.8057 419.961C59.1959 418.731 59.9954 416.011 60.068 413.678C60.6616 396.516 61.5822 379.365 61.8487 362.203C62.2121 338.605 61.0735 315.018 60.2619 291.432C60.0196 284.41 60.0802 277.388 60.1286 270.366C60.1528 268.783 59.4624 266.919 61.8124 265.219Z" fill="#F6F5E9"/>
<path d="M13.9402 131.629C27.2285 131.629 40.5775 131.629 55.0045 131.629C54.7259 184.113 53.878 235.541 54.7017 287.087C40.2746 285.422 26.8409 283.957 13.8554 285.27C9.43398 234.123 15.0909 182.53 13.9402 131.629ZM15.4543 241.004C21.2324 241.707 27.0468 241.66 33.1399 241.285C33.1399 234.556 33.1399 228.461 33.1399 221.778C26.9742 222.165 21.2203 221.861 15.4543 223.982C15.4543 229.375 15.4543 234.592 15.4543 241.004ZM16.3386 180.561C16.3386 186.024 16.3386 191.193 16.3386 196.867C22.0319 196.598 27.5677 196.352 33.5033 196.07C33.2489 190.326 34.0484 184.957 32.8491 179.471C27.386 178.451 22.2742 179.459 16.3386 180.561ZM51.4674 175.872C51.4674 169.635 51.4674 163.891 51.4674 158.029C46.2586 156.271 41.3648 156.845 35.829 157.22C36.2409 163.621 36.6406 169.694 37.0525 176.071C41.9705 175.977 46.4646 177.091 51.4674 175.872ZM32.0739 153.774C33.4427 146.916 32.4736 140.879 31.8559 134.689C26.4412 134.501 21.7169 133.845 16.8595 135.135C17.8286 141.5 16.5324 147.737 18.1556 153.762C22.8556 153.774 27.2164 153.774 32.0739 153.774ZM51.1161 218.719C51.1161 212.388 51.1161 206.48 51.1161 200.478C46.3434 199.61 42.0553 199.212 37.6097 199.552C37.6097 206.339 37.6097 212.611 37.6097 218.953C42.2612 219.516 46.4282 219.856 51.1161 218.719ZM50.4378 245.084C45.871 244.896 41.6313 243.712 37.6218 244.966C37.6218 251.848 37.6218 258.354 37.6218 264.86C42.128 264.86 46.0648 264.86 50.4378 264.86C50.4378 258.108 50.4378 251.813 50.4378 245.084ZM33.37 268.518C27.6767 269.444 22.4437 268.822 17.1623 270.604C16.5809 274.145 16.5809 277.533 17.0896 281.061C22.0682 282.538 26.9378 282.89 32.0133 281.987C33.2973 277.72 33.7455 273.582 33.37 268.518Z" fill="#F6F5E9"/>
<path d="M3.78906 144.385C1.71767 150.164 2.89266 155.275 2.5656 160.129C0.869723 185.649 -0.620213 211.24 2.14164 236.749C4.14034 255.236 5.03673 273.7 4.43106 292.257C4.35838 294.637 4.12823 297.005 3.88596 300.756C7.5442 297.497 6.9991 294.52 7.05966 291.835C7.49575 272.692 6.41766 253.607 5.07307 234.51C3.08648 206.422 4.0071 178.346 6.53879 150.317C6.72049 148.206 6.75684 148.206 3.78906 144.385Z" fill="#F6F5E9"/>
<path d="M61.8124 139.78C64.7923 191.537 65.2889 242.813 62.8057 294.522C59.1959 293.292 59.9954 290.572 60.068 288.239C60.6616 271.077 61.5822 253.926 61.8487 236.764C62.2121 213.166 61.0735 189.579 60.2619 165.993C60.0196 158.971 60.0802 151.949 60.1286 144.927C60.1528 143.344 59.4624 141.48 61.8124 139.78Z" fill="#F6F5E9"/>
<path d="M13.9402 392.429C27.2285 392.429 40.5775 392.429 55.0045 392.429C54.7259 444.912 53.878 496.34 54.7017 547.886C40.2746 546.221 26.8409 544.756 13.8554 546.069C9.43398 494.922 15.0909 443.33 13.9402 392.429ZM15.4543 501.803C21.2324 502.507 27.0468 502.46 33.1399 502.085C33.1399 495.356 33.1399 489.26 33.1399 482.578C26.9742 482.965 21.2203 482.66 15.4543 484.782C15.4543 490.174 15.4543 495.391 15.4543 501.803ZM16.3386 441.36C16.3386 446.823 16.3386 451.993 16.3386 457.667C22.0319 457.397 27.5677 457.151 33.5033 456.869C33.2489 451.125 34.0484 445.756 32.8491 440.27C27.386 439.25 22.2742 440.258 16.3386 441.36ZM51.4674 436.671C51.4674 430.434 51.4674 424.69 51.4674 418.829C46.2586 417.07 41.3648 417.645 35.829 418.02C36.2409 424.421 36.6406 430.493 37.0525 436.87C41.9705 436.776 46.4646 437.89 51.4674 436.671ZM32.0739 414.573C33.4427 407.715 32.4736 401.678 31.8559 395.488C26.4412 395.301 21.7169 394.644 16.8595 395.934C17.8286 402.299 16.5324 408.536 18.1556 414.562C22.8556 414.573 27.2164 414.573 32.0739 414.573ZM51.1161 479.518C51.1161 473.188 51.1161 467.279 51.1161 461.277C46.3434 460.41 42.0553 460.011 37.6097 460.351C37.6097 467.139 37.6097 473.41 37.6097 479.753C42.2612 480.315 46.4282 480.655 51.1161 479.518ZM50.4378 505.883C45.871 505.695 41.6313 504.511 37.6218 505.766C37.6218 512.647 37.6218 519.153 37.6218 525.659C42.128 525.659 46.0648 525.659 50.4378 525.659C50.4378 518.907 50.4378 512.612 50.4378 505.883ZM33.37 529.317C27.6767 530.243 22.4437 529.622 17.1623 531.404C16.5809 534.944 16.5809 538.332 17.0896 541.86C22.0682 543.338 26.9378 543.689 32.0133 542.787C33.2973 538.519 33.7455 534.381 33.37 529.317Z" fill="#F6F5E9"/>
<path d="M3.78906 405.184C1.71767 410.963 2.89266 416.075 2.5656 420.928C0.869723 446.449 -0.620213 472.04 2.14164 497.549C4.14034 516.036 5.03673 534.499 4.43106 553.057C4.35838 555.436 4.12823 557.804 3.88596 561.556C7.5442 558.297 6.9991 555.319 7.05966 552.635C7.49575 533.491 6.41766 514.406 5.07307 495.31C3.08648 467.222 4.0071 439.145 6.53879 411.116C6.72049 409.006 6.75684 409.006 3.78906 405.184Z" fill="#F6F5E9"/>
<path d="M61.8124 400.58C64.7923 452.336 65.2889 503.612 62.8057 555.322C59.1959 554.091 59.9954 551.371 60.068 549.038C60.6616 531.876 61.5822 514.725 61.8487 497.563C62.2121 473.965 61.0735 450.378 60.2619 426.792C60.0196 419.77 60.0802 412.748 60.1286 405.726C60.1528 404.143 59.4624 402.279 61.8124 400.58Z" fill="#F6F5E9"/>
<path d="M13.94 519.885C27.2284 519.885 40.5774 519.885 55.0044 519.885C54.7258 572.369 53.8778 623.797 54.7016 675.343C40.2745 673.678 26.8408 672.213 13.8552 673.525C9.43386 622.379 15.0908 570.786 13.94 519.885ZM15.4542 629.26C21.2323 629.963 27.0467 629.916 33.1397 629.541C33.1397 622.812 33.1397 616.716 33.1397 610.034C26.974 610.421 21.2202 610.116 15.4542 612.238C15.4542 617.631 15.4542 622.847 15.4542 629.26ZM16.3385 568.817C16.3385 574.279 16.3385 579.449 16.3385 585.123C22.0318 584.854 27.5676 584.607 33.5031 584.326C33.2488 578.582 34.0482 573.213 32.849 567.726C27.3859 566.706 22.274 567.715 16.3385 568.817ZM51.4673 564.127C51.4673 557.891 51.4673 552.147 51.4673 546.285C46.2585 544.527 41.3647 545.101 35.8289 545.476C36.2408 551.877 36.6405 557.95 37.0524 564.327C41.9704 564.233 46.4645 565.347 51.4673 564.127ZM32.0738 542.03C33.4426 535.172 32.4735 529.135 31.8557 522.945C26.441 522.757 21.7168 522.101 16.8594 523.39C17.8284 529.756 16.5323 535.993 18.1555 542.018C22.8555 542.03 27.2163 542.03 32.0738 542.03ZM51.116 606.975C51.116 600.644 51.116 594.736 51.116 588.734C46.3433 587.866 42.0552 587.468 37.6096 587.808C37.6096 594.595 37.6096 600.867 37.6096 607.209C42.2611 607.772 46.4281 608.112 51.116 606.975ZM50.4376 633.339C45.8709 633.152 41.6312 631.968 37.6217 633.222C37.6217 640.104 37.6217 646.61 37.6217 653.116C42.1279 653.116 46.0647 653.116 50.4376 653.116C50.4376 646.364 50.4376 640.068 50.4376 633.339ZM33.3699 656.774C27.6766 657.7 22.4436 657.078 17.1622 658.86C16.5807 662.4 16.5807 665.788 17.0895 669.317C22.0681 670.794 26.9377 671.146 32.0132 670.243C33.2972 665.976 33.7454 661.838 33.3699 656.774Z" fill="#F6F5E9"/>
<path d="M3.78929 674.815C1.7179 669.036 2.89289 663.924 2.56583 659.071C0.869956 633.55 -0.619977 607.959 2.14187 582.45C4.14058 563.963 5.03697 545.5 4.4313 526.942C4.35862 524.563 4.12847 522.195 3.88621 518.443C7.54445 521.702 6.99934 524.68 7.05991 527.364C7.49599 546.508 6.4179 565.593 5.07331 584.689C3.08671 612.777 4.00733 640.854 6.53902 668.883C6.72072 670.993 6.75707 670.993 3.78929 674.815Z" fill="#F6F5E9"/>
<path d="M61.8122 522.863C64.7921 574.62 65.2888 625.896 62.8055 677.605C59.1957 676.375 59.9952 673.655 60.0679 671.322C60.6615 654.16 61.5821 637.009 61.8486 619.847C62.212 596.249 61.0733 572.662 60.2617 549.076C60.0195 542.054 60.08 535.032 60.1285 528.01C60.1527 526.427 59.4622 524.563 61.8122 522.863Z" fill="#F6F5E9"/>
<path d="M13.94 780.686C27.2284 780.686 40.5774 780.686 55.0044 780.686C54.7258 833.169 53.8778 884.597 54.7016 936.143C40.2745 934.478 26.8408 933.013 13.8552 934.326C9.43386 883.179 15.0908 831.586 13.94 780.686ZM15.4542 890.06C21.2323 890.764 27.0467 890.717 33.1397 890.341C33.1397 883.613 33.1397 877.517 33.1397 870.835C26.974 871.221 21.2202 870.917 15.4542 873.039C15.4542 878.431 15.4542 883.648 15.4542 890.06ZM16.3385 829.617C16.3385 835.08 16.3385 840.25 16.3385 845.923C22.0318 845.654 27.5676 845.408 33.5031 845.126C33.2488 839.382 34.0482 834.013 32.849 828.527C27.3859 827.507 22.274 828.515 16.3385 829.617ZM51.4673 824.928C51.4673 818.691 51.4673 812.947 51.4673 807.086C46.2585 805.327 41.3647 805.902 35.8289 806.277C36.2408 812.677 36.6405 818.75 37.0524 825.127C41.9704 825.033 46.4645 826.147 51.4673 824.928ZM32.0738 802.83C33.4426 795.972 32.4735 789.935 31.8557 783.745C26.441 783.558 21.7168 782.901 16.8594 784.191C17.8284 790.556 16.5323 796.793 18.1555 802.818C22.8555 802.83 27.2163 802.83 32.0738 802.83ZM51.116 867.775C51.116 861.445 51.116 855.536 51.116 849.534C46.3433 848.667 42.0552 848.268 37.6096 848.608C37.6096 855.396 37.6096 861.667 37.6096 868.009C42.2611 868.572 46.4281 868.912 51.116 867.775ZM50.4376 894.14C45.8709 893.952 41.6312 892.768 37.6217 894.022C37.6217 900.904 37.6217 907.41 37.6217 913.916C42.1279 913.916 46.0647 913.916 50.4376 913.916C50.4376 907.164 50.4376 900.869 50.4376 894.14ZM33.3699 917.574C27.6766 918.5 22.4436 917.879 17.1622 919.66C16.5807 923.201 16.5807 926.589 17.0895 930.117C22.0681 931.594 26.9377 931.946 32.0132 931.043C33.2972 926.776 33.7454 922.638 33.3699 917.574Z" fill="#F6F5E9"/>
<path d="M3.78929 935.615C1.7179 929.835 2.89289 924.724 2.56583 919.871C0.869956 894.35 -0.619977 868.759 2.14187 843.25C4.14058 824.763 5.03697 806.3 4.4313 787.742C4.35862 785.363 4.12847 782.994 3.88621 779.243C7.54445 782.502 6.99934 785.48 7.05991 788.164C7.49599 807.308 6.4179 826.393 5.07331 845.489C3.08671 873.577 4.00733 901.654 6.53902 929.683C6.72072 931.793 6.75707 931.793 3.78929 935.615Z" fill="#F6F5E9"/>
<path d="M61.8122 783.663C64.7921 835.42 65.2888 886.696 62.8055 938.405C59.1957 937.174 59.9952 934.455 60.0679 932.122C60.6615 914.96 61.5821 897.809 61.8486 880.647C62.212 857.048 61.0733 833.462 60.2617 809.876C60.0195 802.854 60.08 795.831 60.1285 788.809C60.1527 787.227 59.4622 785.363 61.8122 783.663Z" fill="#F6F5E9"/>
<path d="M13.94 650.073C27.2284 650.073 40.5774 650.073 55.0044 650.073C54.7258 702.556 53.8778 753.984 54.7016 805.53C40.2745 803.865 26.8408 802.4 13.8552 803.713C9.43386 752.566 15.0908 700.974 13.94 650.073ZM15.4542 759.447C21.2323 760.151 27.0467 760.104 33.1397 759.729C33.1397 753 33.1397 746.904 33.1397 740.222C26.974 740.609 21.2202 740.304 15.4542 742.426C15.4542 747.818 15.4542 753.035 15.4542 759.447ZM16.3385 699.004C16.3385 704.467 16.3385 709.637 16.3385 715.311C22.0318 715.041 27.5676 714.795 33.5031 714.514C33.2488 708.769 34.0482 703.4 32.849 697.914C27.3859 696.894 22.274 697.902 16.3385 699.004ZM51.4673 694.315C51.4673 688.078 51.4673 682.334 51.4673 676.473C46.2585 674.714 41.3647 675.289 35.8289 675.664C36.2408 682.065 36.6405 688.137 37.0524 694.514C41.9704 694.421 46.4645 695.534 51.4673 694.315ZM32.0738 672.217C33.4426 665.359 32.4735 659.322 31.8557 653.132C26.441 652.945 21.7168 652.288 16.8594 653.578C17.8284 659.943 16.5323 666.18 18.1555 672.206C22.8555 672.217 27.2163 672.217 32.0738 672.217ZM51.116 737.162C51.116 730.832 51.116 724.923 51.116 718.921C46.3433 718.054 42.0552 717.655 37.6096 717.995C37.6096 724.783 37.6096 731.054 37.6096 737.397C42.2611 737.959 46.4281 738.299 51.116 737.162ZM50.4376 763.527C45.8709 763.339 41.6312 762.155 37.6217 763.41C37.6217 770.291 37.6217 776.797 37.6217 783.303C42.1279 783.303 46.0647 783.303 50.4376 783.303C50.4376 776.551 50.4376 770.256 50.4376 763.527ZM33.3699 786.961C27.6766 787.887 22.4436 787.266 17.1622 789.048C16.5807 792.588 16.5807 795.976 17.0895 799.505C22.0681 800.982 26.9377 801.333 32.0132 800.431C33.2972 796.163 33.7454 792.025 33.3699 786.961Z" fill="#F6F5E9"/>
<path d="M3.78894 662.828C1.71755 668.608 2.89254 673.719 2.56547 678.572C0.869601 704.093 -0.620335 729.684 2.14151 755.193C4.14022 773.68 5.03661 792.144 4.43094 810.701C4.35826 813.081 4.12811 815.449 3.88584 819.2C7.54408 815.941 6.99897 812.964 7.05954 810.279C7.49562 791.136 6.41753 772.051 5.07295 752.954C3.08636 724.866 4.00697 696.79 6.53867 668.76C6.72037 666.65 6.75672 666.65 3.78894 662.828Z" fill="#F6F5E9"/>
<path d="M61.8122 658.224C64.7921 709.98 65.2888 761.256 62.8055 812.966C59.1957 811.735 59.9952 809.015 60.0679 806.682C60.6615 789.52 61.5821 772.369 61.8486 755.207C62.212 731.609 61.0733 708.023 60.2617 684.436C60.0195 677.414 60.08 670.392 60.1285 663.37C60.1527 661.787 59.4622 659.923 61.8122 658.224Z" fill="#F6F5E9"/>
<path d="M13.94 910.873C27.2284 910.873 40.5774 910.873 55.0044 910.873C54.7258 963.356 53.8778 1014.78 54.7016 1066.33C40.2745 1064.67 26.8408 1063.2 13.8552 1064.51C9.43386 1013.37 15.0908 961.774 13.94 910.873ZM15.4542 1020.25C21.2323 1020.95 27.0467 1020.9 33.1397 1020.53C33.1397 1013.8 33.1397 1007.7 33.1397 1001.02C26.974 1001.41 21.2202 1001.1 15.4542 1003.23C15.4542 1008.62 15.4542 1013.84 15.4542 1020.25ZM16.3385 959.804C16.3385 965.267 16.3385 970.437 16.3385 976.111C22.0318 975.841 27.5676 975.595 33.5031 975.314C33.2488 969.57 34.0482 964.2 32.849 958.714C27.3859 957.694 22.274 958.702 16.3385 959.804ZM51.4673 955.115C51.4673 948.879 51.4673 943.134 51.4673 937.273C46.2585 935.515 41.3647 936.089 35.8289 936.464C36.2408 942.865 36.6405 948.937 37.0524 955.315C41.9704 955.221 46.4645 956.334 51.4673 955.115ZM32.0738 933.018C33.4426 926.16 32.4735 920.122 31.8557 913.933C26.441 913.745 21.7168 913.089 16.8594 914.378C17.8284 920.744 16.5323 926.98 18.1555 933.006C22.8555 933.018 27.2163 933.018 32.0738 933.018ZM51.116 997.962C51.116 991.632 51.116 985.724 51.116 979.722C46.3433 978.854 42.0552 978.456 37.6096 978.795C37.6096 985.583 37.6096 991.855 37.6096 998.197C42.2611 998.76 46.4281 999.1 51.116 997.962ZM50.4376 1024.33C45.8709 1024.14 41.6312 1022.96 37.6217 1024.21C37.6217 1031.09 37.6217 1037.6 37.6217 1044.1C42.1279 1044.1 46.0647 1044.1 50.4376 1044.1C50.4376 1037.35 50.4376 1031.06 50.4376 1024.33ZM33.3699 1047.76C27.6766 1048.69 22.4436 1048.07 17.1622 1049.85C16.5807 1053.39 16.5807 1056.78 17.0895 1060.3C22.0681 1061.78 26.9377 1062.13 32.0132 1061.23C33.2972 1056.96 33.7454 1052.83 33.3699 1047.76Z" fill="#F6F5E9"/>
<path d="M3.78894 923.628C1.71755 929.408 2.89254 934.519 2.56547 939.372C0.869601 964.893 -0.620335 990.484 2.14151 1015.99C4.14022 1034.48 5.03661 1052.94 4.43094 1071.5C4.35826 1073.88 4.12811 1076.25 3.88584 1080C7.54408 1076.74 6.99897 1073.76 7.05954 1071.08C7.49562 1051.94 6.41753 1032.85 5.07295 1013.75C3.08636 985.666 4.00697 957.59 6.53867 929.56C6.72037 927.45 6.75672 927.45 3.78894 923.628Z" fill="#F6F5E9"/>
<path d="M61.8122 919.024C64.7921 970.781 65.2888 1022.06 62.8055 1073.77C59.1957 1072.54 59.9952 1069.82 60.0679 1067.48C60.6615 1050.32 61.5821 1033.17 61.8486 1016.01C62.212 992.409 61.0733 968.823 60.2617 945.236C60.0195 938.214 60.08 931.192 60.1285 924.17C60.1527 922.588 59.4622 920.724 61.8122 919.024Z" fill="#F6F5E9"/>
</svg>
