<svg width="26" height="30" viewBox="0 0 26 30" fill="none" xmlns="http://www.w3.org/2000/svg">
<path d="M8.91056 23.6834C8.09644 23.6834 7.39976 23.3937 6.8205 22.8145C6.24026 22.2342 5.95014 21.5371 5.95014 20.7229V2.96042C5.95014 2.1463 6.24026 1.44913 6.8205 0.868883C7.39976 0.289628 8.09644 0 8.91056 0H22.2325C23.0466 0 23.7437 0.289628 24.324 0.868883C24.9032 1.44913 25.1929 2.1463 25.1929 2.96042V20.7229C25.1929 21.5371 24.9032 22.2342 24.324 22.8145C23.7437 23.3937 23.0466 23.6834 22.2325 23.6834H8.91056ZM2.98972 29.6042C2.1756 29.6042 1.47842 29.3146 0.89818 28.7353C0.318925 28.1551 0.0292969 27.4579 0.0292969 26.6438V7.40105C0.0292969 6.98166 0.171397 6.62986 0.455598 6.34566C0.738811 6.06245 1.09011 5.92084 1.50951 5.92084C1.9289 5.92084 2.2807 6.06245 2.5649 6.34566C2.84811 6.62986 2.98972 6.98166 2.98972 7.40105V26.6438H17.7918C18.2112 26.6438 18.563 26.7859 18.8472 27.0701C19.1304 27.3533 19.272 27.7046 19.272 28.124C19.272 28.5434 19.1304 28.8947 18.8472 29.1779C18.563 29.4621 18.2112 29.6042 17.7918 29.6042H2.98972Z" fill="#F6F5E9"/>
</svg>
