<svg width="13" height="224" viewBox="0 0 13 224" fill="none" xmlns="http://www.w3.org/2000/svg">
<path d="M3.16757 0.870117C5.65916 0.870117 8.1621 0.870117 10.8672 0.870117C10.8149 15.4249 10.656 29.6872 10.8104 43.9819C8.10532 43.5203 5.58648 43.1139 3.15167 43.478C2.32266 29.2938 3.38334 14.9861 3.16757 0.870117ZM3.45148 31.2022C4.53488 31.3972 5.62509 31.3842 6.76754 31.2802C6.76754 29.4141 6.76754 27.7236 6.76754 25.8705C5.61146 25.9778 4.53261 25.8933 3.45148 26.4817C3.45148 27.9772 3.45148 29.4239 3.45148 31.2022ZM3.61728 14.4399C3.61728 15.9549 3.61728 17.3886 3.61728 18.9621C4.68478 18.8873 5.72275 18.819 6.83568 18.741C6.78798 17.148 6.93789 15.659 6.71303 14.1375C5.68869 13.8547 4.73021 14.1343 3.61728 14.4399ZM10.204 13.1395C10.204 11.4099 10.204 9.81694 10.204 8.19143C9.22733 7.70377 8.30973 7.86307 7.27176 7.96711C7.34899 9.74217 7.42394 11.4262 7.50116 13.1948C8.4233 13.1688 9.26594 13.4776 10.204 13.1395ZM6.56767 7.01131C6.82432 5.10946 6.64262 3.43517 6.52679 1.71863C5.51153 1.66661 4.62573 1.48456 3.71495 1.84217C3.89665 3.60748 3.65362 5.33702 3.95797 7.00805C4.83923 7.0113 5.65689 7.01131 6.56767 7.01131ZM10.1381 25.022C10.1381 23.2664 10.1381 21.6279 10.1381 19.9634C9.24323 19.7228 8.4392 19.6123 7.60564 19.7065C7.60564 21.5889 7.60564 23.3282 7.60564 25.087C8.47781 25.243 9.25913 25.3373 10.1381 25.022ZM10.0109 32.3335C9.15465 32.2815 8.3597 31.9532 7.60791 32.301C7.60791 34.2094 7.60791 36.0137 7.60791 37.818C8.45282 37.818 9.19099 37.818 10.0109 37.818C10.0109 35.9454 10.0109 34.1996 10.0109 32.3335ZM6.81069 38.8323C5.74319 39.0892 4.762 38.9168 3.77173 39.411C3.66271 40.3928 3.66271 41.3324 3.7581 42.3109C4.6916 42.7206 5.60465 42.8181 6.55631 42.5677C6.79706 41.3844 6.8811 40.2368 6.81069 38.8323Z" fill="#F6F5E9"/>
<path d="M1.26383 43.8351C0.875445 42.2324 1.09576 40.8149 1.03443 39.469C0.716454 32.3915 0.43709 25.2945 0.95494 18.2203C1.3297 13.0934 1.49777 7.97309 1.38421 2.82672C1.37058 2.16676 1.32743 1.51005 1.282 0.469727C1.96793 1.37351 1.86572 2.19927 1.87708 2.94375C1.95884 8.25267 1.7567 13.5453 1.50459 18.8413C1.1321 26.6307 1.30472 34.4169 1.77941 42.1901C1.81348 42.7753 1.82029 42.7753 1.26383 43.8351Z" fill="#F6F5E9"/>
<path d="M12.1436 1.69629C12.7023 16.0496 12.7954 30.2695 12.3298 44.6098C11.653 44.2684 11.8029 43.5142 11.8165 42.8673C11.9278 38.1078 12.1004 33.3515 12.1504 28.592C12.2185 22.0477 12.005 15.5067 11.8528 8.96559C11.8074 7.01823 11.8188 5.07086 11.8279 3.12349C11.8324 2.6846 11.7029 2.16769 12.1436 1.69629Z" fill="#F6F5E9"/>
<path d="M3.16757 73.1963C5.65916 73.1963 8.1621 73.1963 10.8672 73.1963C10.8149 87.7511 10.656 102.013 10.8104 116.308C8.10532 115.846 5.58648 115.44 3.15167 115.804C2.32266 101.62 3.38334 87.3122 3.16757 73.1963ZM3.45148 103.528C4.53488 103.723 5.62509 103.71 6.76754 103.606C6.76754 101.74 6.76754 100.05 6.76754 98.1967C5.61146 98.304 4.53261 98.2194 3.45148 98.8079C3.45148 100.303 3.45148 101.75 3.45148 103.528ZM3.61728 86.7661C3.61728 88.281 3.61728 89.7147 3.61728 91.2882C4.68478 91.2135 5.72275 91.1452 6.83568 91.0672C6.78798 89.4742 6.93789 87.9852 6.71303 86.4637C5.68869 86.1809 4.73021 86.4605 3.61728 86.7661ZM10.204 85.4656C10.204 83.7361 10.204 82.1431 10.204 80.5176C9.22733 80.0299 8.30973 80.1892 7.27176 80.2933C7.34899 82.0683 7.42394 83.7524 7.50116 85.5209C8.4233 85.4949 9.26594 85.8038 10.204 85.4656ZM6.56767 79.3375C6.82432 77.4356 6.64262 75.7613 6.52679 74.0448C5.51153 73.9928 4.62573 73.8107 3.71495 74.1683C3.89665 75.9336 3.65362 77.6632 3.95797 79.3342C4.83923 79.3375 5.65689 79.3375 6.56767 79.3375ZM10.1381 97.3481C10.1381 95.5926 10.1381 93.9541 10.1381 92.2895C9.24323 92.049 8.4392 91.9384 7.60564 92.0327C7.60564 93.9151 7.60564 95.6544 7.60564 97.4132C8.47781 97.5692 9.25913 97.6635 10.1381 97.3481ZM10.0109 104.66C9.15465 104.608 8.3597 104.279 7.60791 104.627C7.60791 106.536 7.60791 108.34 7.60791 110.144C8.45282 110.144 9.19099 110.144 10.0109 110.144C10.0109 108.272 10.0109 106.526 10.0109 104.66ZM6.81069 111.158C5.74319 111.415 4.762 111.243 3.77173 111.737C3.66271 112.719 3.66271 113.659 3.7581 114.637C4.6916 115.047 5.60465 115.144 6.55631 114.894C6.79706 113.711 6.8811 112.563 6.81069 111.158Z" fill="#F6F5E9"/>
<path d="M1.26383 116.161C0.875445 114.559 1.09576 113.141 1.03443 111.795C0.716454 104.718 0.43709 97.6207 0.95494 90.5465C1.3297 85.4196 1.49777 80.2993 1.38421 75.1529C1.37058 74.4929 1.32743 73.8362 1.282 72.7959C1.96793 73.6997 1.86572 74.5254 1.87708 75.2699C1.95884 80.5788 1.7567 85.8715 1.50459 91.1674C1.1321 98.9569 1.30472 106.743 1.77941 114.516C1.81348 115.101 1.82029 115.101 1.26383 116.161Z" fill="#F6F5E9"/>
<path d="M12.1436 74.0225C12.7023 88.3757 12.7954 102.596 12.3298 116.936C11.653 116.595 11.8029 115.84 11.8165 115.193C11.9278 110.434 12.1004 105.678 12.1504 100.918C12.2185 94.3739 12.005 87.8328 11.8528 81.2918C11.8074 79.3444 11.8188 77.397 11.8279 75.4497C11.8324 75.0108 11.7029 74.4939 12.1436 74.0225Z" fill="#F6F5E9"/>
<path d="M3.16757 36.9736C5.65916 36.9736 8.1621 36.9736 10.8672 36.9736C10.8149 51.5285 10.656 65.7907 10.8104 80.0855C8.10532 79.6238 5.58648 79.2174 3.15167 79.5815C2.32266 65.3973 3.38334 51.0896 3.16757 36.9736ZM3.45148 67.3057C4.53488 67.5007 5.62509 67.4877 6.76754 67.3837C6.76754 65.5176 6.76754 63.8271 6.76754 61.974C5.61146 62.0813 4.53261 61.9968 3.45148 62.5852C3.45148 64.0807 3.45148 65.5274 3.45148 67.3057ZM3.61728 50.5434C3.61728 52.0584 3.61728 53.4921 3.61728 55.0656C4.68478 54.9908 5.72275 54.9225 6.83568 54.8445C6.78798 53.2515 6.93789 51.7625 6.71303 50.2411C5.68869 49.9582 4.73021 50.2378 3.61728 50.5434ZM10.204 49.243C10.204 47.5134 10.204 45.9205 10.204 44.2949C9.22733 43.8073 8.30973 43.9666 7.27176 44.0706C7.34899 45.8457 7.42394 47.5297 7.50116 49.2983C8.4233 49.2723 9.26594 49.5811 10.204 49.243ZM6.56767 43.1148C6.82432 41.213 6.64262 39.5387 6.52679 37.8221C5.51153 37.7701 4.62573 37.5881 3.71495 37.9457C3.89665 39.711 3.65362 41.4405 3.95797 43.1116C4.83923 43.1148 5.65689 43.1148 6.56767 43.1148ZM10.1381 61.1255C10.1381 59.3699 10.1381 57.7314 10.1381 56.0669C9.24323 55.8263 8.4392 55.7158 7.60564 55.8101C7.60564 57.6924 7.60564 59.4317 7.60564 61.1905C8.47781 61.3466 9.25913 61.4408 10.1381 61.1255ZM10.0109 68.437C9.15465 68.385 8.3597 68.0567 7.60791 68.4045C7.60791 70.3129 7.60791 72.1172 7.60791 73.9215C8.45282 73.9215 9.19099 73.9215 10.0109 73.9215C10.0109 72.0489 10.0109 70.3031 10.0109 68.437ZM6.81069 74.9358C5.74319 75.1927 4.762 75.0204 3.77173 75.5145C3.66271 76.4963 3.66271 77.4359 3.7581 78.4144C4.6916 78.8241 5.60465 78.9216 6.55631 78.6713C6.79706 77.4879 6.8811 76.3403 6.81069 74.9358Z" fill="#F6F5E9"/>
<path d="M1.26384 40.5115C0.875448 42.1143 1.09576 43.5318 1.03443 44.8777C0.716456 51.9552 0.437091 59.0521 0.954941 66.1264C1.3297 71.2532 1.49778 76.3736 1.38421 81.52C1.37058 82.1799 1.32743 82.8366 1.282 83.877C1.96793 82.9732 1.86572 82.1474 1.87708 81.4029C1.95884 76.094 1.7567 70.8013 1.50459 65.5054C1.1321 57.716 1.30472 49.9298 1.77941 42.1566C1.81348 41.5714 1.8203 41.5714 1.26384 40.5115Z" fill="#F6F5E9"/>
<path d="M12.1436 39.2344C12.7023 53.5876 12.7954 67.8076 12.3298 82.1479C11.653 81.8065 11.8029 81.0523 11.8165 80.4053C11.9278 75.6458 12.1004 70.8896 12.1504 66.1301C12.2185 59.5858 12.005 53.0447 11.8528 46.5037C11.8074 44.5563 11.8188 42.6089 11.8279 40.6616C11.8324 40.2227 11.7029 39.7058 12.1436 39.2344Z" fill="#F6F5E9"/>
<path d="M3.16757 109.3C5.65916 109.3 8.1621 109.3 10.8672 109.3C10.8149 123.855 10.656 138.117 10.8104 152.412C8.10532 151.95 5.58648 151.544 3.15167 151.908C2.32266 137.724 3.38334 123.416 3.16757 109.3ZM3.45148 139.632C4.53488 139.827 5.62509 139.814 6.76754 139.71C6.76754 137.844 6.76754 136.153 6.76754 134.3C5.61146 134.407 4.53261 134.323 3.45148 134.911C3.45148 136.407 3.45148 137.854 3.45148 139.632ZM3.61728 122.87C3.61728 124.385 3.61728 125.818 3.61728 127.392C4.68478 127.317 5.72275 127.249 6.83568 127.171C6.78798 125.578 6.93789 124.089 6.71303 122.567C5.68869 122.284 4.73021 122.564 3.61728 122.87ZM10.204 121.569C10.204 119.84 10.204 118.247 10.204 116.621C9.22733 116.133 8.30973 116.293 7.27176 116.397C7.34899 118.172 7.42394 119.856 7.50116 121.624C8.4233 121.598 9.26594 121.907 10.204 121.569ZM6.56767 115.441C6.82432 113.539 6.64262 111.865 6.52679 110.148C5.51153 110.096 4.62573 109.914 3.71495 110.272C3.89665 112.037 3.65362 113.767 3.95797 115.438C4.83923 115.441 5.65689 115.441 6.56767 115.441ZM10.1381 133.452C10.1381 131.696 10.1381 130.058 10.1381 128.393C9.24323 128.152 8.4392 128.042 7.60564 128.136C7.60564 130.019 7.60564 131.758 7.60564 133.517C8.47781 133.673 9.25913 133.767 10.1381 133.452ZM10.0109 140.763C9.15465 140.711 8.3597 140.383 7.60791 140.731C7.60791 142.639 7.60791 144.443 7.60791 146.248C8.45282 146.248 9.19099 146.248 10.0109 146.248C10.0109 144.375 10.0109 142.629 10.0109 140.763ZM6.81069 147.262C5.74319 147.519 4.762 147.347 3.77173 147.841C3.66271 148.822 3.66271 149.762 3.7581 150.741C4.6916 151.15 5.60465 151.248 6.55631 150.997C6.79706 149.814 6.8811 148.666 6.81069 147.262Z" fill="#F6F5E9"/>
<path d="M1.26384 112.838C0.875448 114.44 1.09576 115.858 1.03443 117.204C0.716456 124.281 0.437091 131.378 0.954941 138.453C1.3297 143.579 1.49778 148.7 1.38421 153.846C1.37058 154.506 1.32743 155.163 1.282 156.203C1.96793 155.299 1.86572 154.474 1.87708 153.729C1.95884 148.42 1.7567 143.128 1.50459 137.832C1.1321 130.042 1.30472 122.256 1.77941 114.483C1.81348 113.898 1.8203 113.898 1.26384 112.838Z" fill="#F6F5E9"/>
<path d="M12.1436 111.561C12.7023 125.914 12.7954 140.134 12.3298 154.474C11.653 154.133 11.8029 153.378 11.8165 152.732C11.9278 147.972 12.1004 143.216 12.1504 138.456C12.2185 131.912 12.005 125.371 11.8528 118.83C11.8074 116.882 11.8188 114.935 11.8279 112.988C11.8324 112.549 11.7029 112.032 12.1436 111.561Z" fill="#F6F5E9"/>
<path d="M3.16757 0.870117C5.65916 0.870117 8.1621 0.870117 10.8672 0.870117C10.8149 15.4249 10.656 29.6872 10.8104 43.9819C8.10532 43.5203 5.58648 43.1139 3.15167 43.478C2.32266 29.2938 3.38334 14.9861 3.16757 0.870117ZM3.45148 31.2022C4.53488 31.3972 5.62509 31.3842 6.76754 31.2802C6.76754 29.4141 6.76754 27.7236 6.76754 25.8705C5.61146 25.9778 4.53261 25.8933 3.45148 26.4817C3.45148 27.9772 3.45148 29.4239 3.45148 31.2022ZM3.61728 14.4399C3.61728 15.9549 3.61728 17.3886 3.61728 18.9621C4.68478 18.8873 5.72275 18.819 6.83568 18.741C6.78798 17.148 6.93789 15.659 6.71303 14.1375C5.68869 13.8547 4.73021 14.1343 3.61728 14.4399ZM10.204 13.1395C10.204 11.4099 10.204 9.81694 10.204 8.19143C9.22733 7.70377 8.30973 7.86307 7.27176 7.96711C7.34899 9.74217 7.42394 11.4262 7.50116 13.1948C8.4233 13.1688 9.26594 13.4776 10.204 13.1395ZM6.56767 7.01131C6.82432 5.10946 6.64262 3.43517 6.52679 1.71863C5.51153 1.66661 4.62573 1.48456 3.71495 1.84217C3.89665 3.60748 3.65362 5.33702 3.95797 7.00805C4.83923 7.0113 5.65689 7.01131 6.56767 7.01131ZM10.1381 25.022C10.1381 23.2664 10.1381 21.6279 10.1381 19.9634C9.24323 19.7228 8.4392 19.6123 7.60564 19.7065C7.60564 21.5889 7.60564 23.3282 7.60564 25.087C8.47781 25.243 9.25913 25.3373 10.1381 25.022ZM10.0109 32.3335C9.15465 32.2815 8.3597 31.9532 7.60791 32.301C7.60791 34.2094 7.60791 36.0137 7.60791 37.818C8.45282 37.818 9.19099 37.818 10.0109 37.818C10.0109 35.9454 10.0109 34.1996 10.0109 32.3335ZM6.81069 38.8323C5.74319 39.0892 4.762 38.9168 3.77173 39.411C3.66271 40.3928 3.66271 41.3324 3.7581 42.3109C4.6916 42.7206 5.60465 42.8181 6.55631 42.5677C6.79706 41.3844 6.8811 40.2368 6.81069 38.8323Z" fill="#F6F5E9"/>
<path d="M1.26383 43.8351C0.875445 42.2324 1.09576 40.8149 1.03443 39.469C0.716454 32.3915 0.43709 25.2945 0.95494 18.2203C1.3297 13.0934 1.49777 7.97309 1.38421 2.82672C1.37058 2.16676 1.32743 1.51005 1.282 0.469727C1.96793 1.37351 1.86572 2.19927 1.87708 2.94375C1.95884 8.25267 1.7567 13.5453 1.50459 18.8413C1.1321 26.6307 1.30472 34.4169 1.77941 42.1901C1.81348 42.7753 1.82029 42.7753 1.26383 43.8351Z" fill="#F6F5E9"/>
<path d="M12.1436 1.69629C12.7023 16.0496 12.7954 30.2695 12.3298 44.6098C11.653 44.2684 11.8029 43.5142 11.8165 42.8673C11.9278 38.1078 12.1004 33.3515 12.1504 28.592C12.2185 22.0477 12.005 15.5067 11.8528 8.96559C11.8074 7.01823 11.8188 5.07086 11.8279 3.12349C11.8324 2.6846 11.7029 2.16769 12.1436 1.69629Z" fill="#F6F5E9"/>
<path d="M3.16757 73.1963C5.65916 73.1963 8.1621 73.1963 10.8672 73.1963C10.8149 87.7511 10.656 102.013 10.8104 116.308C8.10532 115.846 5.58648 115.44 3.15167 115.804C2.32266 101.62 3.38334 87.3122 3.16757 73.1963ZM3.45148 103.528C4.53488 103.723 5.62509 103.71 6.76754 103.606C6.76754 101.74 6.76754 100.05 6.76754 98.1967C5.61146 98.304 4.53261 98.2194 3.45148 98.8079C3.45148 100.303 3.45148 101.75 3.45148 103.528ZM3.61728 86.7661C3.61728 88.281 3.61728 89.7147 3.61728 91.2882C4.68478 91.2135 5.72275 91.1452 6.83568 91.0672C6.78798 89.4742 6.93789 87.9852 6.71303 86.4637C5.68869 86.1809 4.73021 86.4605 3.61728 86.7661ZM10.204 85.4656C10.204 83.7361 10.204 82.1431 10.204 80.5176C9.22733 80.0299 8.30973 80.1892 7.27176 80.2933C7.34899 82.0683 7.42394 83.7524 7.50116 85.5209C8.4233 85.4949 9.26594 85.8038 10.204 85.4656ZM6.56767 79.3375C6.82432 77.4356 6.64262 75.7613 6.52679 74.0448C5.51153 73.9928 4.62573 73.8107 3.71495 74.1683C3.89665 75.9336 3.65362 77.6632 3.95797 79.3342C4.83923 79.3375 5.65689 79.3375 6.56767 79.3375ZM10.1381 97.3481C10.1381 95.5926 10.1381 93.9541 10.1381 92.2895C9.24323 92.049 8.4392 91.9384 7.60564 92.0327C7.60564 93.9151 7.60564 95.6544 7.60564 97.4132C8.47781 97.5692 9.25913 97.6635 10.1381 97.3481ZM10.0109 104.66C9.15465 104.608 8.3597 104.279 7.60791 104.627C7.60791 106.536 7.60791 108.34 7.60791 110.144C8.45282 110.144 9.19099 110.144 10.0109 110.144C10.0109 108.272 10.0109 106.526 10.0109 104.66ZM6.81069 111.158C5.74319 111.415 4.762 111.243 3.77173 111.737C3.66271 112.719 3.66271 113.659 3.7581 114.637C4.6916 115.047 5.60465 115.144 6.55631 114.894C6.79706 113.711 6.8811 112.563 6.81069 111.158Z" fill="#F6F5E9"/>
<path d="M1.26383 116.161C0.875445 114.559 1.09576 113.141 1.03443 111.795C0.716454 104.718 0.43709 97.6207 0.95494 90.5465C1.3297 85.4196 1.49777 80.2993 1.38421 75.1529C1.37058 74.4929 1.32743 73.8362 1.282 72.7959C1.96793 73.6997 1.86572 74.5254 1.87708 75.2699C1.95884 80.5788 1.7567 85.8715 1.50459 91.1674C1.1321 98.9569 1.30472 106.743 1.77941 114.516C1.81348 115.101 1.82029 115.101 1.26383 116.161Z" fill="#F6F5E9"/>
<path d="M12.1436 74.0225C12.7023 88.3757 12.7954 102.596 12.3298 116.936C11.653 116.595 11.8029 115.84 11.8165 115.193C11.9278 110.434 12.1004 105.678 12.1504 100.918C12.2185 94.3739 12.005 87.8328 11.8528 81.2918C11.8074 79.3444 11.8188 77.397 11.8279 75.4497C11.8324 75.0108 11.7029 74.4939 12.1436 74.0225Z" fill="#F6F5E9"/>
<path d="M3.16757 36.9746C5.65916 36.9746 8.1621 36.9746 10.8672 36.9746C10.8149 51.5294 10.656 65.7917 10.8104 80.0864C8.10532 79.6248 5.58648 79.2184 3.15167 79.5825C2.32266 65.3983 3.38334 51.0906 3.16757 36.9746ZM3.45148 67.3067C4.53488 67.5017 5.62509 67.4887 6.76754 67.3847C6.76754 65.5186 6.76754 63.8281 6.76754 61.975C5.61146 62.0823 4.53261 61.9977 3.45148 62.5862C3.45148 64.0817 3.45148 65.5283 3.45148 67.3067ZM3.61728 50.5444C3.61728 52.0594 3.61728 53.4931 3.61728 55.0666C4.68478 54.9918 5.72275 54.9235 6.83568 54.8455C6.78798 53.2525 6.93789 51.7635 6.71303 50.242C5.68869 49.9592 4.73021 50.2388 3.61728 50.5444ZM10.204 49.244C10.204 47.5144 10.204 45.9214 10.204 44.2959C9.22733 43.8083 8.30973 43.9676 7.27176 44.0716C7.34899 45.8467 7.42394 47.5307 7.50116 49.2993C8.4233 49.2732 9.26594 49.5821 10.204 49.244ZM6.56767 43.1158C6.82432 41.2139 6.64262 39.5397 6.52679 37.8231C5.51153 37.7711 4.62573 37.589 3.71495 37.9467C3.89665 39.712 3.65362 41.4415 3.95797 43.1125C4.83923 43.1158 5.65689 43.1158 6.56767 43.1158ZM10.1381 61.1265C10.1381 59.3709 10.1381 57.7324 10.1381 56.0679C9.24323 55.8273 8.4392 55.7168 7.60564 55.811C7.60564 57.6934 7.60564 59.4327 7.60564 61.1915C8.47781 61.3475 9.25913 61.4418 10.1381 61.1265ZM10.0109 68.438C9.15465 68.386 8.3597 68.0576 7.60791 68.4055C7.60791 70.3139 7.60791 72.1182 7.60791 73.9225C8.45282 73.9225 9.19099 73.9225 10.0109 73.9225C10.0109 72.0499 10.0109 70.3041 10.0109 68.438ZM6.81069 74.9368C5.74319 75.1936 4.762 75.0213 3.77173 75.5155C3.66271 76.4973 3.66271 77.4369 3.7581 78.4154C4.6916 78.825 5.60465 78.9226 6.55631 78.6722C6.79706 77.4889 6.8811 76.3413 6.81069 74.9368Z" fill="#F6F5E9"/>
<path d="M1.26384 40.5125C0.875448 42.1153 1.09576 43.5327 1.03443 44.8787C0.716456 51.9561 0.437091 59.0531 0.954941 66.1273C1.3297 71.2542 1.49778 76.3746 1.38421 81.5209C1.37058 82.1809 1.32743 82.8376 1.282 83.8779C1.96793 82.9741 1.86572 82.1484 1.87708 81.4039C1.95884 76.095 1.7567 70.8023 1.50459 65.5064C1.1321 57.7169 1.30472 49.9308 1.77941 42.1576C1.81348 41.5724 1.8203 41.5724 1.26384 40.5125Z" fill="#F6F5E9"/>
<path d="M12.1436 39.2354C12.7023 53.5886 12.7954 67.8086 12.3298 82.1489C11.653 81.8075 11.8029 81.0533 11.8165 80.4063C11.9278 75.6468 12.1004 70.8906 12.1504 66.1311C12.2185 59.5868 12.005 53.0457 11.8528 46.5047C11.8074 44.5573 11.8188 42.6099 11.8279 40.6626C11.8324 40.2237 11.7029 39.7067 12.1436 39.2354Z" fill="#F6F5E9"/>
<path d="M3.16757 109.3C5.65916 109.3 8.1621 109.3 10.8672 109.3C10.8149 123.855 10.656 138.117 10.8104 152.412C8.10532 151.95 5.58648 151.544 3.15167 151.908C2.32266 137.724 3.38334 123.416 3.16757 109.3ZM3.45148 139.632C4.53488 139.827 5.62509 139.814 6.76754 139.71C6.76754 137.844 6.76754 136.153 6.76754 134.3C5.61146 134.407 4.53261 134.323 3.45148 134.911C3.45148 136.407 3.45148 137.854 3.45148 139.632ZM3.61728 122.87C3.61728 124.385 3.61728 125.818 3.61728 127.392C4.68478 127.317 5.72275 127.249 6.83568 127.171C6.78798 125.578 6.93789 124.089 6.71303 122.567C5.68869 122.284 4.73021 122.564 3.61728 122.87ZM10.204 121.569C10.204 119.84 10.204 118.247 10.204 116.621C9.22733 116.133 8.30973 116.293 7.27176 116.397C7.34899 118.172 7.42394 119.856 7.50116 121.624C8.4233 121.598 9.26594 121.907 10.204 121.569ZM6.56767 115.441C6.82432 113.539 6.64262 111.865 6.52679 110.148C5.51153 110.096 4.62573 109.914 3.71495 110.272C3.89665 112.037 3.65362 113.767 3.95797 115.438C4.83923 115.441 5.65689 115.441 6.56767 115.441ZM10.1381 133.452C10.1381 131.696 10.1381 130.058 10.1381 128.393C9.24323 128.152 8.4392 128.042 7.60564 128.136C7.60564 130.019 7.60564 131.758 7.60564 133.517C8.47781 133.673 9.25913 133.767 10.1381 133.452ZM10.0109 140.763C9.15465 140.711 8.3597 140.383 7.60791 140.731C7.60791 142.639 7.60791 144.443 7.60791 146.248C8.45282 146.248 9.19099 146.248 10.0109 146.248C10.0109 144.375 10.0109 142.629 10.0109 140.763ZM6.81069 147.262C5.74319 147.519 4.762 147.347 3.77173 147.841C3.66271 148.822 3.66271 149.762 3.7581 150.741C4.6916 151.15 5.60465 151.248 6.55631 150.997C6.79706 149.814 6.8811 148.666 6.81069 147.262Z" fill="#F6F5E9"/>
<path d="M1.26384 112.838C0.875448 114.44 1.09576 115.858 1.03443 117.204C0.716456 124.281 0.437091 131.378 0.954941 138.453C1.3297 143.579 1.49778 148.7 1.38421 153.846C1.37058 154.506 1.32743 155.163 1.282 156.203C1.96793 155.299 1.86572 154.474 1.87708 153.729C1.95884 148.42 1.7567 143.128 1.50459 137.832C1.1321 130.042 1.30472 122.256 1.77941 114.483C1.81348 113.898 1.8203 113.898 1.26384 112.838Z" fill="#F6F5E9"/>
<path d="M12.1436 111.561C12.7023 125.914 12.7954 140.134 12.3298 154.474C11.653 154.133 11.8029 153.378 11.8165 152.732C11.9278 147.972 12.1004 143.216 12.1504 138.456C12.2185 131.912 12.005 125.371 11.8528 118.83C11.8074 116.882 11.8188 114.935 11.8279 112.988C11.8324 112.549 11.7029 112.032 12.1436 111.561Z" fill="#F6F5E9"/>
<path d="M3.16757 144.647C5.65916 144.647 8.1621 144.647 10.8672 144.647C10.8149 159.202 10.656 173.465 10.8104 187.759C8.10532 187.298 5.58648 186.891 3.15167 187.255C2.32266 173.071 3.38334 158.763 3.16757 144.647ZM3.45148 174.98C4.53488 175.175 5.62509 175.162 6.76754 175.058C6.76754 173.191 6.76754 171.501 6.76754 169.648C5.61146 169.755 4.53261 169.671 3.45148 170.259C3.45148 171.755 3.45148 173.201 3.45148 174.98ZM3.61728 158.217C3.61728 159.732 3.61728 161.166 3.61728 162.739C4.68478 162.665 5.72275 162.596 6.83568 162.518C6.78798 160.925 6.93789 159.436 6.71303 157.915C5.68869 157.632 4.73021 157.912 3.61728 158.217ZM10.204 156.917C10.204 155.187 10.204 153.594 10.204 151.969C9.22733 151.481 8.30973 151.64 7.27176 151.744C7.34899 153.52 7.42394 155.204 7.50116 156.972C8.4233 156.946 9.26594 157.255 10.204 156.917ZM6.56767 150.789C6.82432 148.887 6.64262 147.213 6.52679 145.496C5.51153 145.444 4.62573 145.262 3.71495 145.62C3.89665 147.385 3.65362 149.114 3.95797 150.785C4.83923 150.789 5.65689 150.789 6.56767 150.789ZM10.1381 168.799C10.1381 167.044 10.1381 165.405 10.1381 163.741C9.24323 163.5 8.4392 163.39 7.60564 163.484C7.60564 165.366 7.60564 167.106 7.60564 168.864C8.47781 169.02 9.25913 169.115 10.1381 168.799ZM10.0109 176.111C9.15465 176.059 8.3597 175.73 7.60791 176.078C7.60791 177.987 7.60791 179.791 7.60791 181.595C8.45282 181.595 9.19099 181.595 10.0109 181.595C10.0109 179.723 10.0109 177.977 10.0109 176.111ZM6.81069 182.61C5.74319 182.867 4.762 182.694 3.77173 183.188C3.66271 184.17 3.66271 185.11 3.7581 186.088C4.6916 186.498 5.60465 186.595 6.55631 186.345C6.79706 185.162 6.8811 184.014 6.81069 182.61Z" fill="#F6F5E9"/>
<path d="M1.26383 187.612C0.875445 186.01 1.09576 184.592 1.03443 183.246C0.716454 176.169 0.43709 169.072 0.95494 161.998C1.3297 156.871 1.49777 151.75 1.38421 146.604C1.37058 145.944 1.32743 145.287 1.282 144.247C1.96793 145.151 1.86572 145.977 1.87708 146.721C1.95884 152.03 1.7567 157.323 1.50459 162.619C1.1321 170.408 1.30472 178.194 1.77941 185.967C1.81348 186.553 1.82029 186.553 1.26383 187.612Z" fill="#F6F5E9"/>
<path d="M12.1436 145.474C12.7023 159.827 12.7954 174.047 12.3298 188.387C11.653 188.046 11.8029 187.292 11.8165 186.645C11.9278 181.885 12.1004 177.129 12.1504 172.369C12.2185 165.825 12.005 159.284 11.8528 152.743C11.8074 150.796 11.8188 148.848 11.8279 146.901C11.8324 146.462 11.7029 145.945 12.1436 145.474Z" fill="#F6F5E9"/>
<path d="M3.16757 180.261C5.65916 180.261 8.1621 180.261 10.8672 180.261C10.8149 194.816 10.656 209.078 10.8104 223.373C8.10532 222.911 5.58648 222.505 3.15167 222.869C2.32266 208.684 3.38334 194.377 3.16757 180.261ZM3.45148 210.593C4.53488 210.788 5.62509 210.775 6.76754 210.671C6.76754 208.805 6.76754 207.114 6.76754 205.261C5.61146 205.368 4.53261 205.284 3.45148 205.872C3.45148 207.368 3.45148 208.814 3.45148 210.593ZM3.61728 193.831C3.61728 195.345 3.61728 196.779 3.61728 198.353C4.68478 198.278 5.72275 198.21 6.83568 198.132C6.78798 196.539 6.93789 195.05 6.71303 193.528C5.68869 193.245 4.73021 193.525 3.61728 193.831ZM10.204 192.53C10.204 190.801 10.204 189.208 10.204 187.582C9.22733 187.094 8.30973 187.254 7.27176 187.358C7.34899 189.133 7.42394 190.817 7.50116 192.585C8.4233 192.559 9.26594 192.868 10.204 192.53ZM6.56767 186.402C6.82432 184.5 6.64262 182.826 6.52679 181.109C5.51153 181.057 4.62573 180.875 3.71495 181.233C3.89665 182.998 3.65362 184.728 3.95797 186.399C4.83923 186.402 5.65689 186.402 6.56767 186.402ZM10.1381 204.413C10.1381 202.657 10.1381 201.019 10.1381 199.354C9.24323 199.113 8.4392 199.003 7.60564 199.097C7.60564 200.98 7.60564 202.719 7.60564 204.478C8.47781 204.634 9.25913 204.728 10.1381 204.413ZM10.0109 211.724C9.15465 211.672 8.3597 211.344 7.60791 211.692C7.60791 213.6 7.60791 215.404 7.60791 217.209C8.45282 217.209 9.19099 217.209 10.0109 217.209C10.0109 215.336 10.0109 213.59 10.0109 211.724ZM6.81069 218.223C5.74319 218.48 4.762 218.307 3.77173 218.802C3.66271 219.783 3.66271 220.723 3.7581 221.702C4.6916 222.111 5.60465 222.209 6.55631 221.958C6.79706 220.775 6.8811 219.627 6.81069 218.223Z" fill="#F6F5E9"/>
<path d="M1.26383 223.227C0.875445 221.624 1.09576 220.207 1.03443 218.861C0.716454 211.783 0.43709 204.686 0.95494 197.612C1.3297 192.485 1.49777 187.365 1.38421 182.218C1.37058 181.558 1.32743 180.902 1.282 179.861C1.96793 180.765 1.86572 181.591 1.87708 182.335C1.95884 187.644 1.7567 192.937 1.50459 198.233C1.1321 206.022 1.30472 213.808 1.77941 221.582C1.81348 222.167 1.82029 222.167 1.26383 223.227Z" fill="#F6F5E9"/>
<path d="M12.1436 181.086C12.7023 195.439 12.7954 209.659 12.3298 223.999C11.653 223.658 11.8029 222.904 11.8165 222.257C11.9278 217.497 12.1004 212.741 12.1504 207.982C12.2185 201.437 12.005 194.896 11.8528 188.355C11.8074 186.408 11.8188 184.461 11.8279 182.513C11.8324 182.074 11.7029 181.557 12.1436 181.086Z" fill="#F6F5E9"/>
</svg>
