<svg width="76" height="37" viewBox="0 0 76 37" fill="none" xmlns="http://www.w3.org/2000/svg">
<path d="M60.3826 16.1555C61.3511 17.8614 62.4123 19.3094 63.5242 20.7221C64.6428 22.1436 65.8849 23.444 67.3189 24.5592C65.7966 23.8561 64.6693 22.655 63.3676 21.6169C63.8044 22.2164 64.2435 22.8136 64.7222 23.4682C63.2109 23.098 61.5806 20.9138 61.6997 19.4945C61.7173 19.2829 61.6137 19.1573 61.5144 19.0163C60.9672 18.2471 60.4157 17.4823 59.8222 16.7308C60.1156 17.8217 60.8172 18.7606 61.1128 19.9706C60.6407 19.7788 60.4973 19.4086 60.2899 19.1242C59.7163 18.3418 59.1625 17.5462 58.6176 16.744C58.258 16.2128 58.0903 15.5913 58.2734 14.9897C58.4897 14.28 58.1322 13.8348 57.6734 13.1648C57.7395 14.0662 58.044 14.7626 57.8653 15.4679C57.6336 15.5539 57.5542 15.3974 57.4748 15.2762C56.4511 13.7466 55.7562 12.0805 55.5267 10.2512C55.4561 9.68918 55.6481 9.08089 54.9112 8.66875C54.9575 9.19109 55.0943 9.66934 54.8273 10.1035C54.5913 10.487 54.3486 10.6369 54.0265 10.1851C52.6653 8.27204 51.229 6.39869 50.4414 4.15067C50.2561 3.61952 49.8479 3.4366 49.2942 3.15449C49.4839 3.67021 49.6449 4.05811 49.7641 4.45702C49.8192 4.64436 49.8744 4.91764 49.6979 5.03445C49.4971 5.16669 49.325 4.94409 49.1794 4.81406C47.88 3.6614 46.5342 2.57045 45.0053 1.60732C45.3605 1.4839 45.6363 1.68005 45.9209 1.59851C43.4874 0.723544 40.9789 0.527393 38.4043 0.785254C38.8477 0.478907 38.9272 0.461275 39.6993 0.384137C44.0809 -0.0478354 48.019 1.2569 51.7585 3.41015C55.0105 5.28129 57.3799 8.0252 59.5244 11.0137C61.5077 13.7753 63.5992 16.4509 66.0459 18.8267C67.2991 20.0411 68.6537 21.121 70.2443 21.8748C71.6122 22.5227 73.0264 22.8798 74.5531 22.5977C74.7141 22.569 74.8995 22.4786 75.0539 22.6395C73.6794 24.6583 70.562 25.5091 68.3117 24.4864C66.913 23.8495 65.7679 22.8842 64.7531 21.7513C63.3852 20.2262 62.1873 18.5733 61.0577 16.8696C60.9055 16.6426 60.8062 16.3715 60.3826 16.1555Z" fill="#F6F5E9"/>
<path d="M14.3128 17.0083C15.0099 18.0353 15.7071 19.0646 16.4042 20.0916C16.1527 18.9081 15.4732 17.9031 15.2305 16.7174C16.2498 17.945 17.3617 19.0998 17.9309 20.6228C18.0324 20.8961 18.0942 21.2685 17.9905 21.5198C17.6199 22.4234 18.1957 22.9986 18.6303 23.64C18.5487 22.8047 18.2089 21.9936 18.3854 21.1209C18.7737 21.1539 18.8487 21.4647 18.9833 21.6829C19.8327 23.0647 20.6446 24.5348 20.6358 26.1547C20.6269 28.0016 21.9198 28.925 22.8861 30.1151C23.8127 31.0739 24.7967 31.9664 25.8799 32.7466C26.1645 33.0838 26.5418 33.291 27.0647 33.5952C26.8617 32.967 26.4844 32.5593 26.4513 32.037C26.4403 31.8651 26.3807 31.6491 26.5638 31.5521C26.7139 31.4728 26.8484 31.6204 26.961 31.7196C28.2825 32.8767 29.6195 34.0139 31.08 35.0542C30.7976 35.0079 30.5174 34.9594 30.2372 34.9131C31.2035 35.6272 34.3121 36.0019 37.8464 35.8079C37.5375 36.079 37.2419 36.0746 36.9728 36.1099C32.9751 36.6454 29.2753 35.7087 25.7277 33.9059C22.3941 32.2133 19.729 29.7868 17.5382 26.7916C15.321 23.7634 13.1104 20.7286 10.4232 18.0838C10.004 17.6717 9.58484 17.2573 9.13698 16.8827C6.80722 14.9278 4.32302 13.3894 0.945312 14.0815C1.2255 13.5481 1.62041 13.3233 1.98003 13.0677C4.78412 11.0621 6.63955 10.9012 9.81429 13.3498C11.9212 14.9741 13.3707 17.2022 14.8577 19.3753C15.2173 19.8999 15.5637 20.431 15.9851 21.0613C15.6387 19.5847 12.4198 15.514 8.87665 12.0252C9.56498 12.2919 9.9599 12.6269 10.3548 12.9464C11.4314 13.817 12.3735 14.822 13.2891 15.8556C13.5406 16.1399 13.8362 16.3846 14.112 16.6424C14.176 16.7615 14.2444 16.8849 14.3128 17.0083Z" fill="#F6F5E9"/>
<path d="M26.4667 22.1868C25.8688 22.3587 25.4165 22.1361 25.0724 21.6578C23.7773 19.8682 23.4199 17.8604 23.7133 15.7116C23.806 15.0372 24.2848 14.6207 24.8517 14.2768C24.2914 14.2372 24.0685 14.6912 23.6229 15.0526C23.7067 14.4355 23.9582 14.0851 24.3708 13.8206C24.5032 13.7347 24.7436 13.6575 24.5517 13.4195C24.4392 13.2807 24.3576 13.3402 24.1899 13.4085C23.6251 13.6421 23.7597 13.1087 23.8016 12.906C23.9384 12.2492 24.1546 11.6101 24.373 10.8431C24.7922 13.1925 24.7922 13.1925 25.3526 13.4966C25.4496 13.3842 25.3548 13.3203 25.293 13.2432C25.2467 13.1859 25.2092 13.122 25.1143 12.9831C25.5467 12.9545 25.9813 13.003 26.2064 12.5864C26.3895 12.247 26.2483 11.9473 26.1049 11.6453C26.0365 11.588 25.9681 11.5285 25.8997 11.469C25.496 10.918 25.1364 10.9643 24.8297 11.6652C24.4965 10.8938 24.6708 10.3009 25.1165 9.79843C25.3415 9.54497 25.4077 9.31576 25.4055 8.98738C25.4055 8.19396 25.871 7.55481 26.2858 6.94212C27.0778 5.76962 27.8897 4.59713 29.0193 3.70673C29.187 3.5745 29.3546 3.31223 29.6061 3.49295C29.8003 3.634 29.5995 3.89848 29.6525 4.05716C29.9591 4.97841 29.048 4.97841 28.7148 5.43462C29.3855 5.2539 29.9944 5.00045 30.215 4.23348C30.4489 3.42683 31.6028 2.67749 32.4102 2.7943C32.7367 2.84058 32.8294 2.97282 32.6 3.23729C32.483 3.37173 32.344 3.48634 32.2117 3.60535C31.1725 4.5288 30.2151 5.54262 29.4583 6.69969C29.0083 7.38732 28.7545 8.216 28.4788 9.0028C28.3618 9.3356 28.2493 9.65958 28.1037 9.98576C27.7904 10.6822 27.7441 11.3676 28.3971 11.9913C28.8693 12.4432 29.2906 13.0096 28.6906 13.7942C28.631 12.3682 27.4838 11.7004 26.8616 10.6932C26.7712 11.1693 26.5241 11.6652 27.1639 11.9186C27.0249 12.4432 26.7954 12.9324 26.4137 13.5539C27.3161 13.1352 27.144 12.4916 27.1639 11.923C27.1418 11.8305 27.2102 11.7423 27.2676 11.7996C27.6183 12.15 27.7286 12.5974 27.6404 13.0669C27.5522 13.5363 27.2146 13.7986 26.7469 13.9044C26.5748 13.944 26.2483 13.8691 26.3145 14.1666C26.363 14.3804 26.502 14.6912 26.8065 14.6802C27.1109 14.6691 26.9609 14.4223 27.0094 14.257C27.1286 13.8515 27.7176 13.7325 27.8566 13.2586C28.0508 13.3512 28.0199 13.501 27.9868 13.6002C27.8037 14.1402 27.9625 14.3077 28.5074 14.127C29.1517 13.9132 29.3326 14.4443 29.5664 14.8322C29.926 15.4273 30.1908 15.4758 30.6828 14.9711C30.824 14.8256 30.9497 14.6603 31.0556 14.4862C31.3601 13.9903 31.402 13.5694 30.7026 13.382C30.4577 13.3159 30.1555 13.274 30.407 12.8884C30.5923 12.6062 30.9784 12.2558 30.5416 11.9781C30.0606 11.6718 29.926 12.2294 29.7032 12.5049C29.6436 12.5776 29.5995 12.6636 29.476 12.8619C29.3745 12.1699 29.5466 11.6894 29.9657 11.3478C30.3871 11.004 30.707 11.4448 31.06 11.6255C31.2211 11.3919 30.9916 11.101 31.1946 10.8982C32.4521 11.3963 33.3832 11.0392 33.0236 9.85132C33.6435 10.1863 33.6942 10.3935 33.3743 11.2574L33.3898 11.2398C33.0214 11.5109 32.6529 11.7842 32.2536 12.0795C32.622 12.5225 33.039 12.7164 33.6104 12.2955C33.4008 13.2388 33.0456 13.4526 32.3396 13.1374C32.1234 13.0404 31.8785 12.9302 31.6976 13.1242C31.5211 13.3137 31.7991 13.4195 31.8807 13.5561C32.0705 13.8713 32.0947 14.2063 31.9116 14.5016C31.4307 15.273 30.8526 15.9606 29.8863 16.1083C29.5377 16.1612 29.3899 16.2516 29.4164 16.6218C29.4495 17.0472 29.423 17.4792 29.423 17.9133C29.787 17.9288 29.9062 17.6423 30.1312 17.5453C30.5857 17.3491 31.0755 17.2323 31.5388 17.0935C32.1808 16.9017 32.9265 17.6511 33.1096 18.4775C33.1361 18.601 33.1295 18.731 33.1493 18.8566C33.2001 19.2048 33.3611 19.6456 33.0589 19.8594C32.7919 20.0468 32.4477 19.7228 32.1565 19.5883C31.3711 19.2291 31.3799 19.2181 31.3601 20.0952C31.3535 20.3994 31.3976 20.7652 31.1174 20.9416C30.7732 21.1575 30.5747 20.7564 30.3386 20.6066C29.8576 20.3046 29.4054 19.9167 29.2995 19.3371C29.1847 18.7068 28.9332 18.7464 28.5185 19.0484C28.4236 19.1167 28.2912 19.1321 28.1147 19.1431C29.0347 18.515 28.8384 17.7062 28.5405 16.8951C28.3707 16.4323 28.2802 15.9628 28.2868 15.4714C28.2934 15.1033 28.1169 15.0482 27.797 15.1386C27.0844 15.3391 26.941 15.6058 27.208 16.245C27.294 16.4521 27.3205 16.6791 26.9918 16.6615C26.7579 16.6483 26.5329 16.6306 26.3189 16.7386C26.138 16.829 25.9571 16.9216 25.721 17.0384C25.6747 16.7276 25.8909 16.5601 25.9902 16.3507C26.0938 16.1304 26.3608 15.8637 26.1049 15.6719C25.8666 15.4934 25.6482 15.7954 25.4607 15.9496C24.9599 16.3618 24.6907 16.9083 24.651 17.5453C24.5716 18.8236 24.9356 20.0203 25.4121 21.184C25.5202 21.4485 25.7078 21.6755 26.0188 21.7151C26.3056 21.7526 26.5042 21.6071 26.6278 21.3493C26.7425 21.1091 26.6013 21.0385 26.4071 20.9724C26.1424 20.8798 26.0828 20.6661 26.1402 20.4148C26.1689 20.2848 26.2461 20.1812 26.3961 20.168C26.663 20.1459 26.8373 20.3112 26.9565 20.5074C27.4065 21.2545 26.9454 21.7526 26.4513 22.2331C26.4424 22.2287 26.4667 22.1868 26.4667 22.1868Z" fill="#F6F5E9"/>
<path d="M49.3971 29.2469C48.6823 29.3328 48.2808 28.8303 47.7954 28.4667C47.4954 29.6656 47.8241 30.1505 48.7816 30.0249C48.4639 32.8107 41.4989 36.7844 37.082 36.6389C40.0229 35.8896 42.6638 34.4482 45.534 33.106C44.6427 33.0156 44.6118 32.4713 44.9119 32.1076C45.3642 31.5632 45.6686 30.9439 46.0834 30.2298C46.2533 30.9219 46.1893 31.5412 46.5445 32.0481C46.3967 31.0695 46.229 30.1042 46.7651 29.0948C46.8578 29.324 46.9195 29.4739 47.0056 29.6899C47.0696 29.5621 47.1247 29.5003 47.1269 29.4386C47.1578 28.7863 47.4998 28.1824 47.438 27.5124C47.4314 27.4286 47.4976 27.2942 47.5682 27.2589C47.7226 27.1818 47.7954 27.3273 47.8439 27.4397C48.1594 28.2044 48.6448 28.8281 49.3971 29.2469Z" fill="#F6F5E9"/>
<path d="M43.9761 18.5185C43.9739 17.6215 43.6297 16.892 42.9392 16.3145C42.5134 15.9597 42.4516 15.693 43.0936 15.4858C43.5371 15.3426 44.1592 15.0142 44.3556 15.3999C44.6446 15.9641 45.1035 15.9134 45.5072 16.1206C45.997 16.3718 45.9485 16.8809 45.9044 17.3438C45.8801 17.5928 45.9948 17.9697 45.4984 17.8793C45.2954 17.8419 45.2998 17.9807 45.3396 18.1129C45.3815 18.2518 45.4124 18.4634 45.58 18.4501C46.1713 18.4017 46.6633 18.7829 47.2325 18.7962L47.2126 18.7829C47.9186 19.0474 48.179 19.7306 48.607 20.2574C48.7195 20.3962 48.7504 20.502 48.6048 20.6475C48.2826 20.9714 47.4862 20.9626 47.1023 20.7334C46.9192 20.6232 46.917 19.7372 46.4007 20.4844C46.3566 20.5483 46.1316 20.3698 46.0698 20.2265C45.9419 19.9246 45.8338 19.6138 45.6484 19.1267C45.7632 20.0502 45.9419 20.7643 46.1757 21.4717C46.2287 21.6326 46.3919 21.8332 46.2154 21.961C46.0103 22.1087 45.8293 21.9015 45.6881 21.7737C44.9623 21.1147 44.6402 20.2199 44.3093 19.3361C44.2034 19.054 44.1857 18.7344 43.9585 18.503L43.9761 18.5185Z" fill="#F6F5E9"/>
<path d="M25.8811 32.7497C24.7978 31.9695 23.8116 31.0769 22.8872 30.1182C22.5364 29.5319 22.1614 28.9567 21.8393 28.3528C21.5326 27.7776 21.4179 27.1473 21.59 26.5037C21.7003 26.0916 21.9209 25.902 22.2518 26.345C23.6285 28.1765 24.9898 30.019 25.9406 32.1216C26.0267 32.3089 26.2936 32.5822 25.8811 32.7497Z" fill="#F6F5E9"/>
<path d="M40.6076 12.916C41.3445 12.9006 41.4989 13.3634 41.3224 13.9298C41.19 14.353 41.3047 14.5667 41.6048 14.8378C42.3108 15.477 42.3659 15.823 42.2159 17.6501C41.7967 17.4164 41.5077 17.077 41.4592 16.6451C41.4084 16.1977 41.1393 16.0742 40.8282 15.8274C39.4383 14.7232 38.1057 13.5375 37.4483 11.814C37.2563 11.3115 37.6358 10.82 38.1212 10.8906C38.3903 10.9302 38.7169 10.9897 38.4278 11.4261C38.066 11.9683 38.3286 12.4598 38.6441 13.1584C38.6441 12.6052 38.622 12.2813 38.6529 11.9617C38.6727 11.7545 38.7919 11.5716 39.05 11.5738C39.264 11.576 39.4515 11.6553 39.5949 11.8162C39.7736 12.019 39.5905 12.1248 39.4714 12.257C39.2155 12.5435 39.3103 12.819 39.5221 13.0813C39.7273 13.3391 40.0163 13.5265 40.1487 13.8461C40.2568 14.1083 40.4465 14.0951 40.6385 13.943C40.7973 13.8174 40.9937 13.6918 40.7157 13.4736C40.5237 13.3215 40.6076 13.0989 40.623 12.9006L40.6076 12.916Z" fill="#F6F5E9"/>
<path d="M50.5451 16.7511C51.2445 17.4321 51.5908 18.1903 51.0922 19.1468C51.0371 19.2548 50.9201 19.4245 51.0547 19.4862C51.6923 19.7749 51.4386 20.4273 51.6526 20.8835C51.7122 21.0113 51.8048 21.1854 51.571 21.256C51.3658 21.3177 51.2577 21.2317 51.1694 21.0268C50.8826 20.359 50.4524 20.2267 50.0112 20.802C49.2059 21.8532 48.0388 21.4014 47.0504 21.6747C46.9512 21.7012 46.8386 21.6505 46.8409 21.5226C46.8431 21.3728 46.9578 21.2824 47.0924 21.2846C47.5866 21.2934 48.0344 21.051 48.5154 21.0246C49.0382 20.9937 49.3383 20.6984 49.4199 20.251C49.4993 19.8322 49.0294 19.8719 48.7934 19.7352C48.0697 19.3165 47.7035 18.3798 48.1183 17.6217C48.3653 17.1677 48.4051 16.7665 48.3058 16.3037L48.3146 16.3103C48.9963 16.7908 49.8435 16.469 50.5605 16.7731L50.5451 16.7511ZM49.5655 17.3153C49.8567 17.7804 50.1347 18.2542 50.448 18.7038C50.5495 18.8493 50.7105 19.2041 50.9466 18.8404C51.2224 18.4173 51.1341 17.9655 50.8826 17.5533C50.651 17.1721 50.3377 16.8789 49.8545 16.8922C49.6251 16.8988 49.5876 17.0839 49.5942 17.2779C48.9698 16.8481 48.597 17.1765 48.3411 17.7253C48.0565 18.3357 48.2947 19.1137 48.8595 19.4664C49.1596 19.6537 49.5721 19.8719 49.7972 19.4928C50.009 19.138 49.6317 18.9506 49.325 18.7876C48.8485 18.5363 48.8485 17.8531 49.3626 17.7186C49.7332 17.6195 49.5699 17.4828 49.5655 17.3153Z" fill="#F6F5E9"/>
<path d="M36.9934 7.43063C37.7876 8.2527 36.6536 8.61415 36.5455 9.22464C36.519 9.3701 36.3116 9.55523 36.0734 9.55523C35.8263 9.33925 36.1396 9.14089 36.0932 8.92931C35.8947 8.90507 35.8108 9.0329 35.7755 9.18497C35.599 9.91668 35.2681 10.4104 34.3966 10.1437C34.2312 10.093 34.0701 10.1503 34.0392 10.3288C33.9841 10.6374 34.2246 10.7696 34.443 10.9018L34.4275 10.8798C34.4827 11.3559 34.3018 11.6776 33.8054 11.7437C33.4215 11.7966 33.309 11.5829 33.3862 11.2346C33.3862 11.2346 33.3708 11.2523 33.3708 11.2501C33.5958 11.2346 33.8208 11.2192 34.0459 11.2038C33.9753 10.2936 33.1016 9.3128 34.2863 8.46428C34.2709 8.32543 33.4855 8.56346 34.0481 8.10283C34.4783 7.7502 34.8953 7.3579 35.4556 7.19922C36.0932 7.21465 36.6867 7.32925 37.0485 7.96178C37.2206 7.70833 37.0882 7.57389 36.9934 7.43063Z" fill="#F6F5E9"/>
<path d="M47.4725 22.1886C48.8139 22.2437 50.1597 22.3098 51.5054 22.1842C52.0239 22.1357 51.9599 22.442 51.7481 22.6779C51.3488 23.1253 51.0421 23.5176 51.6577 24.0289C51.79 24.1391 51.7812 24.3705 51.5893 24.4917C51.4348 24.5887 51.2385 24.5204 51.1855 24.3925C50.8017 23.4647 49.9655 23.8151 49.297 23.7137C48.8447 23.6454 48.3792 23.6696 47.927 23.6035C47.4328 23.533 47.0842 23.2663 47.0026 22.7308C46.9496 22.3583 47.018 22.1092 47.4725 22.1886Z" fill="#F6F5E9"/>
<path d="M29.3941 25.3402C28.5557 25.4747 27.8277 25.3138 27.3291 24.5578C27.0776 24.1743 27.1261 23.9628 27.6445 23.9451C28.3461 23.9209 29.0455 23.9099 29.7493 23.9407C30.3825 23.9694 30.5479 24.1391 30.217 24.6945C30.1398 24.8245 30.0581 24.9523 29.9809 25.0802C29.7846 25.1661 29.5882 25.2543 29.3941 25.3402Z" fill="#F6F5E9"/>
<path d="M26.4665 22.1859L26.4423 22.2278C26.4665 22.219 26.4886 22.1991 26.5129 22.2013C26.7688 22.2146 27.0137 21.7606 27.2299 22.0867C27.4284 22.3865 27.1152 22.6289 26.7798 22.9242C27.5057 22.9727 27.4593 22.5341 27.5079 22.1617C27.5983 21.4608 28.2425 20.9804 28.8382 21.1677C28.9573 21.2052 29.0743 21.2691 29.0588 21.4939C28.0925 21.4278 27.9204 22.0405 27.9204 22.8427C27.9204 23.3783 27.0313 24.0108 26.504 23.905C26.4577 23.8962 26.3739 23.8499 26.3761 23.8367C26.546 23.0366 25.4627 23.1226 25.3877 22.4328C25.7583 22.3556 26.1665 22.4614 26.4665 22.1859Z" fill="#F6F5E9"/>
<path d="M46.7659 15.2146C46.3247 14.9391 46.3997 14.5049 46.2585 14.1765C46.0555 13.7115 45.8525 13.2465 45.6672 12.7748C45.4245 12.1577 45.4091 11.534 45.9915 11.1219C46.5674 10.7141 47.077 11.0844 47.5668 11.4084C47.5226 11.4921 47.5094 11.5582 47.4763 11.5715C46.1989 12.0828 46.2166 12.0762 46.6115 13.3985C46.7791 13.9583 46.9314 14.5446 46.7659 15.2146Z" fill="#F6F5E9"/>
<path d="M48.3155 16.3077L48.3067 16.3011C48.1082 16.2746 47.903 16.268 47.711 16.2129C47.5081 16.1556 47.1374 16.4862 47.1242 16.0278C47.1154 15.7347 47.4661 15.7831 47.6647 15.7236C48.8164 15.3754 49.9834 15.7435 51.1439 15.6972C51.4792 15.684 51.8322 16.7992 51.6182 17.0636C51.4969 17.2135 51.3513 17.1848 51.2101 17.1143C50.9851 16.9997 50.7666 16.8719 50.546 16.7485L50.5615 16.7705C50.1511 16.2107 49.5268 16.063 48.9046 15.9022C48.534 15.8052 48.3861 15.9903 48.3155 16.3077Z" fill="#F6F5E9"/>
<path d="M50.1969 26.173C49.5969 25.8468 48.9946 25.5272 48.3989 25.1945C48.2444 25.1085 48.068 24.9763 48.1694 24.7713C48.2864 24.5333 48.4915 24.6787 48.6305 24.7537C49.3983 25.1614 50.1925 25.503 51.0199 25.7719C51.4545 25.9129 51.3795 26.1333 51.0706 26.3537C50.4749 26.7769 48.5423 26.5477 48.0922 26.0077C48.004 25.8997 47.9466 25.7807 48.026 25.6639C48.1363 25.5052 48.2886 25.5625 48.4342 25.633C48.71 25.7653 48.9813 25.9085 49.2681 26.0187C49.5505 26.1267 49.8462 26.1994 50.1352 26.2876C50.155 26.2457 50.1771 26.2105 50.1969 26.173Z" fill="#F6F5E9"/>
<path d="M14.313 17.0088C14.2446 16.8853 14.1762 16.7619 14.1079 16.6407C13.2518 15.4946 12.3914 14.3464 11.5332 13.1959C11.5862 13.1541 11.6369 13.1122 11.6898 13.0703C12.9584 13.9431 14.1343 14.904 14.6131 16.4754C14.6771 16.6848 14.8712 17.0947 14.313 17.0088Z" fill="#F6F5E9"/>
<path d="M33.6857 22.0216C33.7608 22.0282 33.849 22.015 33.9108 22.0481C34.5043 22.3765 35.0757 22.6431 35.5015 21.8034C35.5588 21.6888 35.775 21.669 35.9184 21.7726C36.0839 21.8894 36.0949 22.0701 36.0817 22.2508C36.0287 22.9627 35.0271 23.5732 34.3035 23.3065C33.9461 23.1765 33.6262 22.9517 33.3658 22.6674C33.2467 22.5373 33.1165 22.3831 33.2136 22.1935C33.3063 22.0062 33.5093 22.0304 33.6857 22.0216Z" fill="#F6F5E9"/>
<path d="M35.4482 7.2229C35.9645 6.57053 36.6374 6.12754 37.3919 5.80797C37.6765 5.68675 37.9964 5.64708 38.2523 5.88951C38.5259 6.14958 38.3979 6.45372 38.292 6.74023C38.2303 6.90553 38.1575 7.07082 38.0758 7.2273C37.8552 7.64826 37.6125 7.80694 37.3897 7.23392C37.3147 7.04217 37.2088 6.87247 37.0169 6.98267C36.8249 7.09286 36.9771 7.30003 37.0191 7.46313C36.5712 6.86145 35.9976 7.11931 35.4482 7.2229Z" fill="#F6F5E9"/>
<path d="M29.3935 25.3401C29.5899 25.2519 29.7862 25.166 29.9782 25.08C30.137 24.9236 30.2937 24.7583 30.4658 24.6106C30.6378 24.4629 30.6445 24.0243 30.9798 24.1918C31.3174 24.3593 31.549 24.6899 31.602 25.0933C31.6483 25.4481 31.4586 25.6883 31.1387 25.7831C30.5452 25.9616 29.9385 25.9153 29.3384 25.8095C29.1994 25.7853 28.9832 25.7588 29.0339 25.5693C29.0582 25.4679 29.2656 25.415 29.3935 25.3401Z" fill="#F6F5E9"/>
<path d="M47.994 13.5728C48.2853 13.7843 48.6272 13.6455 48.9405 13.6962C49.1104 13.7248 49.3553 13.683 49.3663 13.9166C49.3795 14.2097 49.1038 14.1612 48.914 14.1877C48.8147 14.2031 48.7111 14.1943 48.6096 14.1965C47.0895 14.2251 47.0895 14.2251 47.7006 12.9028C47.7822 12.7243 47.9411 12.5435 47.705 12.365C47.6146 12.2967 47.4226 12.2967 47.5131 12.116C47.5903 11.9573 47.758 11.9595 47.9146 11.9661C48.2588 11.9771 48.4926 12.1755 48.6338 12.4576C48.7772 12.7441 48.5434 12.9204 48.3801 13.1144C48.2566 13.2642 48.0095 13.3083 47.994 13.5728Z" fill="#F6F5E9"/>
<path d="M33.7956 19.0117C34.4773 19.7633 34.4134 20.8013 33.6324 21.3942C33.3478 21.6102 33.0323 21.7887 32.8469 22.1083C32.73 22.3088 32.602 22.4455 32.3682 22.2581C32.1343 22.073 32.0571 21.8548 32.2491 21.5991C32.3086 21.5198 32.3947 21.4427 32.4851 21.4118C33.4691 21.09 33.6809 20.3231 33.6677 19.4128C33.6654 19.274 33.6147 19.1021 33.7956 19.0117Z" fill="#F6F5E9"/>
<path d="M37.5326 23.6641C37.9496 24.1137 38.1658 24.5346 38.3158 24.9952C38.4085 25.2796 38.4173 25.5396 38.1812 25.7644C37.9474 25.987 37.6716 25.9892 37.4047 25.8636C37.0671 25.7049 36.7119 25.555 36.4736 25.1363C37.2833 25.0239 37.3958 24.3936 37.5326 23.6641Z" fill="#F6F5E9"/>
<path d="M43.9619 18.4966C43.984 18.8228 44.0038 19.1467 44.0325 19.5743C43.2471 18.7677 42.272 18.1748 42.5477 16.8701C42.5764 16.7356 42.4529 16.5395 42.6647 16.4844C42.8257 16.4425 42.9449 16.577 43.0485 16.6916C43.5273 17.2139 43.5869 17.95 43.9796 18.5186C43.9752 18.5186 43.9619 18.4966 43.9619 18.4966Z" fill="#F6F5E9"/>
<path d="M49.9939 15.0232C49.2725 15.3626 48.4606 15.2171 47.6664 15.2259C47.32 15.2303 47.3045 14.9747 47.2957 14.6948C47.2825 14.3818 47.4347 14.2914 47.6995 14.287C48.5312 14.2716 49.396 14.1284 49.9939 15.0232Z" fill="#F6F5E9"/>
<path d="M26.7507 19.2477C26.6735 18.8135 27.0662 18.7253 27.0309 18.441C26.0999 18.3264 25.9212 18.1149 26.2058 17.4867C26.3977 17.0636 26.6912 16.9776 27.0596 17.2509C27.3927 17.4978 27.6972 17.8085 27.6773 18.2515C27.6531 18.7915 27.1809 18.9546 26.7507 19.2477Z" fill="#F6F5E9"/>
<path d="M47.7412 23.9631C48.295 23.7383 48.7737 23.9322 49.2326 24.1306C49.9099 24.4237 50.5718 24.7543 51.2336 25.076C51.3859 25.151 51.6021 25.2281 51.494 25.4617C51.3925 25.6799 51.1851 25.605 51.0241 25.5389C50.6468 25.3846 50.2673 25.2325 49.9121 25.0386C49.2083 24.6529 48.4957 24.2782 47.7412 23.9631Z" fill="#F6F5E9"/>
<path d="M32.1807 1.75454C32.9881 1.24543 33.8419 0.861943 34.7531 0.615102C34.923 0.568819 35.1171 0.47405 35.2473 0.650365C35.3973 0.850924 35.2649 1.03826 35.1392 1.20135C34.87 1.54737 34.6229 1.85812 34.067 1.6752C33.4514 1.47464 32.8138 1.66859 32.1807 1.75454Z" fill="#F6F5E9"/>
<path d="M48.036 26.2803C48.0845 26.353 48.1573 26.4852 48.2522 26.6043C48.7265 27.1993 49.1347 27.8715 49.9444 28.0875C50.0723 28.1228 50.1804 28.2043 50.1164 28.3652C50.0635 28.5018 49.9377 28.5349 49.8076 28.5437C49.1832 28.5922 47.7183 27.2302 47.7315 26.6043C47.7359 26.4808 47.758 26.3508 48.036 26.2803Z" fill="#F6F5E9"/>
<path d="M38.5212 0.128757C37.7865 0.415269 37.0584 0.715005 36.3149 0.97507C36.123 1.04339 35.8296 1.40263 35.695 0.992701C35.6068 0.719413 35.7634 0.357966 36.123 0.280828C36.6437 0.168427 37.1754 0.100105 37.7071 0.038395C37.9784 0.00753982 38.2564 0.0339871 38.53 0.0339871C38.5278 0.0648423 38.5234 0.0956974 38.5212 0.128757Z" fill="#F6F5E9"/>
<path d="M45.2681 13.0678C44.9724 12.7064 44.6326 12.3714 44.3943 11.9769C44.1538 11.5801 44.2509 11.1901 44.7032 10.9653C44.8797 10.8771 45.0827 10.7515 45.2703 10.8991C45.4512 11.0402 45.3056 11.2253 45.2549 11.3862C45.0827 11.935 45.3144 12.4639 45.2681 13.0678Z" fill="#F6F5E9"/>
<path d="M36.3113 24.6249C35.9781 24.669 35.7398 24.2745 35.7266 23.9924C35.7112 23.6794 35.87 23.2629 36.393 23.254C36.9049 23.2452 37.0946 23.6441 37.1299 23.9593C37.1674 24.2943 36.874 24.5985 36.3113 24.6249Z" fill="#F6F5E9"/>
<path d="M43.7744 14.9415C43.0552 15.0539 42.444 14.9217 41.8572 14.6991C41.5307 14.5757 41.4468 14.2649 41.4733 13.9365C41.491 13.7294 41.5527 13.5156 41.8109 13.5024C42.0094 13.4935 42.1815 13.628 42.1859 13.8153C42.2036 14.514 42.5146 14.6903 43.1655 14.4875C43.3795 14.4214 43.5891 14.6109 43.7744 14.9415Z" fill="#F6F5E9"/>
<path d="M47.2362 18.794C47.0178 18.4877 46.6206 18.4392 46.3625 18.1923C46.0447 17.8882 45.9631 17.4165 46.2234 17.1631C46.5346 16.8611 46.8391 17.2711 46.9869 17.5311C47.1987 17.9014 47.7172 18.2629 47.2142 18.7808C47.2164 18.7808 47.2362 18.794 47.2362 18.794Z" fill="#F6F5E9"/>
<path d="M28.2207 22.4943C28.2759 22.2805 28.2957 21.9345 28.5296 22.0844C28.8275 22.2761 29.4166 22.2563 29.335 22.8337C29.2931 23.1246 29.1651 23.5147 28.7944 23.4398C28.3244 23.3406 28.3332 22.8425 28.2207 22.4943Z" fill="#F6F5E9"/>
<path d="M28.4611 20.632C28.3464 20.9912 27.9647 21.0838 27.7418 21.0551C27.3535 21.0089 27.2453 20.5108 27.2122 20.2375C27.1659 19.8584 27.6249 20.0501 27.8565 20.0017C28.3618 19.8937 28.2824 20.3829 28.4611 20.632Z" fill="#F6F5E9"/>
<path d="M30.9258 2.60344C31.8414 2.20453 32.5672 1.98855 33.3217 1.87394C33.5468 1.83868 33.9086 1.67559 33.9373 2.05246C33.9615 2.36101 33.6152 2.54394 33.335 2.48664C32.5893 2.32795 31.8789 2.57479 30.9258 2.60344Z" fill="#F6F5E9"/>
<path d="M25.8976 11.466C25.966 11.5255 26.0344 11.5828 26.1028 11.6423C26.1116 11.693 26.1249 11.7415 26.1293 11.7922C26.1513 12.1515 26.2065 12.5724 25.7034 12.6077C25.3217 12.6341 25.2092 12.2859 25.1937 11.9707C25.1695 11.4682 25.4762 11.3713 25.8976 11.466Z" fill="#F6F5E9"/>
<path d="M32.1273 10.084C32.3942 10.1369 32.6987 10.1876 32.6678 10.516C32.637 10.8333 32.3325 10.8664 32.0699 10.8554C31.8338 10.8443 31.5734 10.7826 31.5822 10.4851C31.5933 10.1523 31.8779 10.117 32.1273 10.084Z" fill="#F6F5E9"/>
<path d="M34.9588 21.2586C34.9037 21.4967 34.9986 21.803 34.6543 21.8096C34.3145 21.8162 34.2638 21.5187 34.2373 21.2718C34.2108 21.0382 34.2881 20.7694 34.5617 20.7495C34.9191 20.7231 34.8838 21.0603 34.9588 21.2586Z" fill="#F6F5E9"/>
<path d="M34.4425 10.8999C34.4403 10.8492 34.4358 10.8007 34.438 10.75C34.4733 10.2277 34.8771 10.3511 35.164 10.3842C35.3824 10.4084 35.303 10.6222 35.1993 10.7258C34.9853 10.9396 34.8021 11.4311 34.4248 10.8801C34.427 10.8801 34.4425 10.8999 34.4425 10.8999Z" fill="#F6F5E9"/>
<path d="M29.8574 22.8779C30.2016 23.1248 30.5326 23.2945 30.3671 23.6383C30.2501 23.8785 29.8574 23.8829 29.6919 23.7088C29.3874 23.3914 29.9412 23.257 29.8574 22.8779Z" fill="#F6F5E9"/>
<path d="M40.6266 12.8996C40.5515 12.9106 40.4787 12.9349 40.4037 12.9327C40.1169 12.9217 39.7837 13.0296 39.6204 12.6748C39.5718 12.5712 39.6579 12.4787 39.7572 12.4456C40.1191 12.3266 40.3044 12.5911 40.5118 12.8048C40.5471 12.8401 40.5758 12.882 40.6089 12.9194C40.6089 12.915 40.6266 12.8996 40.6266 12.8996Z" fill="#F6F5E9"/>
</svg>
