<svg width="44" height="68" viewBox="0 0 44 68" fill="none" xmlns="http://www.w3.org/2000/svg">
<path d="M0.874756 21.2502C0.874756 15.6144 3.1133 10.2094 7.09795 6.22423C11.0826 2.23908 16.4869 0.000244141 22.1221 0.000244141C27.7572 0.000244141 33.1615 2.23908 37.1462 6.22423C41.1308 10.2094 43.3694 15.6144 43.3694 21.2502V46.7502C43.3694 52.3861 41.1308 57.7911 37.1462 61.7763C33.1615 65.7614 27.7572 68.0002 22.1221 68.0002C16.4869 68.0002 11.0826 65.7614 7.09795 61.7763C3.1133 57.7911 0.874756 52.3861 0.874756 46.7502V21.2502ZM24.2468 14.8752C24.2468 14.3117 24.0229 13.7712 23.6245 13.3726C23.226 12.9741 22.6856 12.7502 22.1221 12.7502C21.5585 12.7502 21.0181 12.9741 20.6196 13.3726C20.2212 13.7712 19.9973 14.3117 19.9973 14.8752V23.3752C19.9973 23.9388 20.2212 24.4793 20.6196 24.8778C21.0181 25.2764 21.5585 25.5002 22.1221 25.5002C22.6856 25.5002 23.226 25.2764 23.6245 24.8778C24.0229 24.4793 24.2468 23.9388 24.2468 23.3752V14.8752Z" fill="#F6F5E9"/>
</svg>
