<svg width="33" height="33" viewBox="0 0 33 33" fill="none" xmlns="http://www.w3.org/2000/svg">
<path d="M32.4102 25.633L25.1083 18.9939C24.7631 18.6802 24.3096 18.5129 23.8434 18.5273C23.3771 18.5417 22.9348 18.7367 22.6097 19.0712L18.3111 23.4918C17.2765 23.2942 15.1964 22.6458 13.0552 20.51C10.914 18.367 10.2656 16.2816 10.0734 15.2541L14.4904 10.9538C14.8253 10.6289 15.0206 10.1864 15.035 9.72009C15.0494 9.25375 14.8818 8.8001 14.5677 8.45514L7.93042 1.15503C7.61614 0.808992 7.17935 0.599092 6.71281 0.569912C6.24627 0.540732 5.78673 0.694572 5.43178 0.998758L1.53385 4.34164C1.22329 4.65333 1.03793 5.06815 1.01292 5.50743C0.985979 5.9565 0.472242 16.5941 8.72078 24.8462C15.9167 32.0404 24.9305 32.5667 27.4129 32.5667C27.7758 32.5667 27.9985 32.5559 28.0578 32.5523C28.497 32.5277 28.9116 32.3415 29.2218 32.0296L32.5629 28.1298C32.8683 27.776 33.0232 27.3169 32.9947 26.8503C32.9662 26.3838 32.7564 25.947 32.4102 25.633Z" fill="#1A1E21"/>
</svg>
