<svg width="237" height="20" viewBox="0 0 237 20" fill="none" xmlns="http://www.w3.org/2000/svg">
<path d="M6.60805 1.81237C7.83205 1.81237 8.91805 2.08837 9.86605 2.64037C10.814 3.18037 11.552 3.93637 12.08 4.90837C12.608 5.88037 12.872 6.98437 12.872 8.22037C12.872 9.45637 12.608 10.5664 12.08 11.5504C11.552 12.5224 10.814 13.2844 9.86605 13.8364C8.91805 14.3764 7.83205 14.6464 6.60805 14.6464C5.38405 14.6464 4.29205 14.3764 3.33205 13.8364C2.38405 13.2844 1.64605 12.5224 1.11805 11.5504C0.590047 10.5664 0.326047 9.45637 0.326047 8.22037C0.326047 6.98437 0.590047 5.88037 1.11805 4.90837C1.64605 3.93637 2.38405 3.18037 3.33205 2.64037C4.29205 2.08837 5.38405 1.81237 6.60805 1.81237ZM6.60805 2.64037C5.51605 2.64037 4.56205 2.86837 3.74605 3.32437C2.94205 3.78037 2.31805 4.43437 1.87405 5.28637C1.44205 6.12637 1.22605 7.10437 1.22605 8.22037C1.22605 9.33637 1.44205 10.3144 1.87405 11.1544C2.31805 11.9944 2.94205 12.6484 3.74605 13.1164C4.56205 13.5844 5.51605 13.8184 6.60805 13.8184C7.68805 13.8184 8.63005 13.5844 9.43405 13.1164C10.25 12.6484 10.874 11.9944 11.306 11.1544C11.75 10.3144 11.972 9.33637 11.972 8.22037C11.972 7.10437 11.75 6.12637 11.306 5.28637C10.874 4.43437 10.256 3.78037 9.45205 3.32437C8.64805 2.86837 7.70005 2.64037 6.60805 2.64037ZM6.55405 4.08037C5.82205 4.08037 5.15605 4.25437 4.55605 4.60237C3.95605 4.93837 3.48205 5.41837 3.13405 6.04237C2.79805 6.66637 2.63005 7.38637 2.63005 8.20237C2.63005 9.01837 2.80405 9.74437 3.15205 10.3804C3.50005 11.0044 3.96805 11.4904 4.55605 11.8384C5.15605 12.1744 5.82205 12.3424 6.55405 12.3424C7.46605 12.3424 8.25205 12.1024 8.91205 11.6224C9.57205 11.1304 10.016 10.4884 10.244 9.69637H8.37205C8.21605 10.0804 7.99405 10.3744 7.70605 10.5784C7.41805 10.7824 7.03405 10.8844 6.55405 10.8844C5.91805 10.8844 5.40805 10.6564 5.02405 10.2004C4.64005 9.73237 4.44805 9.06637 4.44805 8.20237C4.44805 7.33837 4.64005 6.67837 5.02405 6.22237C5.40805 5.76637 5.91805 5.53837 6.55405 5.53837C7.01005 5.53837 7.39405 5.64037 7.70605 5.84437C8.03005 6.04837 8.25205 6.34237 8.37205 6.72637H10.244C10.016 5.88637 9.57805 5.23837 8.93005 4.78237C8.28205 4.31437 7.49005 4.08037 6.55405 4.08037ZM20.591 11.6944C21.743 10.6984 22.649 9.88237 23.309 9.24637C23.981 8.59837 24.539 7.92637 24.983 7.23037C25.427 6.53437 25.649 5.83837 25.649 5.14237C25.649 4.42237 25.475 3.85837 25.127 3.45037C24.791 3.04237 24.257 2.83837 23.525 2.83837C22.817 2.83837 22.265 3.06637 21.869 3.52237C21.485 3.96637 21.281 4.56637 21.257 5.32237H19.277C19.313 3.95437 19.721 2.91037 20.501 2.19037C21.293 1.45837 22.295 1.09237 23.507 1.09237C24.815 1.09237 25.835 1.45237 26.567 2.17237C27.311 2.89237 27.683 3.85237 27.683 5.05237C27.683 5.91637 27.461 6.75037 27.017 7.55437C26.585 8.34637 26.063 9.06037 25.451 9.69637C24.851 10.3204 24.083 11.0464 23.147 11.8744L22.337 12.5944H28.043V14.3044H19.295V12.8104L20.591 11.6944ZM29.8456 7.75237C29.8456 5.67637 30.1936 4.05637 30.8896 2.89237C31.5976 1.71637 32.8096 1.12837 34.5256 1.12837C36.2416 1.12837 37.4476 1.71637 38.1436 2.89237C38.8516 4.05637 39.2056 5.67637 39.2056 7.75237C39.2056 9.85237 38.8516 11.4964 38.1436 12.6844C37.4476 13.8604 36.2416 14.4484 34.5256 14.4484C32.8096 14.4484 31.5976 13.8604 30.8896 12.6844C30.1936 11.4964 29.8456 9.85237 29.8456 7.75237ZM37.1896 7.75237C37.1896 6.78037 37.1236 5.95837 36.9916 5.28637C36.8716 4.61437 36.6196 4.06837 36.2356 3.64837C35.8516 3.21637 35.2816 3.00037 34.5256 3.00037C33.7696 3.00037 33.1996 3.21637 32.8156 3.64837C32.4316 4.06837 32.1736 4.61437 32.0416 5.28637C31.9216 5.95837 31.8616 6.78037 31.8616 7.75237C31.8616 8.76037 31.9216 9.60637 32.0416 10.2904C32.1616 10.9744 32.4136 11.5264 32.7976 11.9464C33.1936 12.3664 33.7696 12.5764 34.5256 12.5764C35.2816 12.5764 35.8516 12.3664 36.2356 11.9464C36.6316 11.5264 36.8896 10.9744 37.0096 10.2904C37.1296 9.60637 37.1896 8.76037 37.1896 7.75237ZM42.5109 11.6944C43.6629 10.6984 44.5689 9.88237 45.2289 9.24637C45.9009 8.59837 46.4589 7.92637 46.9029 7.23037C47.3469 6.53437 47.5689 5.83837 47.5689 5.14237C47.5689 4.42237 47.3949 3.85837 47.0469 3.45037C46.7109 3.04237 46.1769 2.83837 45.4449 2.83837C44.7369 2.83837 44.1849 3.06637 43.7889 3.52237C43.4049 3.96637 43.2009 4.56637 43.1769 5.32237H41.1969C41.2329 3.95437 41.6409 2.91037 42.4209 2.19037C43.2129 1.45837 44.2149 1.09237 45.4269 1.09237C46.7349 1.09237 47.7549 1.45237 48.4869 2.17237C49.2309 2.89237 49.6029 3.85237 49.6029 5.05237C49.6029 5.91637 49.3809 6.75037 48.9369 7.55437C48.5049 8.34637 47.9829 9.06037 47.3709 9.69637C46.7709 10.3204 46.0029 11.0464 45.0669 11.8744L44.2569 12.5944H49.9629V14.3044H41.2149V12.8104L42.5109 11.6944ZM51.7295 4.60237C51.8015 3.48637 52.2275 2.61637 53.0075 1.99237C53.7995 1.36837 54.8075 1.05637 56.0315 1.05637C56.8715 1.05637 57.5975 1.20637 58.2095 1.50637C58.8215 1.80637 59.2835 2.21437 59.5955 2.73037C59.9075 3.24637 60.0635 3.82837 60.0635 4.47637C60.0635 5.22037 59.8655 5.85637 59.4695 6.38437C59.0735 6.91237 58.5995 7.26637 58.0475 7.44637V7.51837C58.7555 7.73437 59.3075 8.13037 59.7035 8.70637C60.0995 9.27037 60.2975 9.99637 60.2975 10.8844C60.2975 11.5924 60.1355 12.2224 59.8115 12.7744C59.4875 13.3264 59.0075 13.7644 58.3715 14.0884C57.7355 14.4004 56.9735 14.5564 56.0855 14.5564C54.7895 14.5564 53.7215 14.2264 52.8815 13.5664C52.0535 12.8944 51.6095 11.9344 51.5495 10.6864H53.5295C53.5775 11.3224 53.8235 11.8444 54.2675 12.2524C54.7115 12.6484 55.3115 12.8464 56.0675 12.8464C56.7995 12.8464 57.3635 12.6484 57.7595 12.2524C58.1555 11.8444 58.3535 11.3224 58.3535 10.6864C58.3535 9.84637 58.0835 9.25237 57.5435 8.90437C57.0155 8.54437 56.1995 8.36437 55.0955 8.36437H54.6275V6.67237H55.1135C56.0855 6.66037 56.8235 6.49837 57.3275 6.18637C57.8435 5.87437 58.1015 5.38237 58.1015 4.71037C58.1015 4.13437 57.9155 3.67837 57.5435 3.34237C57.1715 2.99437 56.6435 2.82037 55.9595 2.82037C55.2875 2.82037 54.7655 2.99437 54.3935 3.34237C54.0215 3.67837 53.7995 4.09837 53.7275 4.60237H51.7295ZM74.9408 11.9284H69.7028L68.8028 14.4844H66.6608L71.1428 1.95637H73.5188L78.0008 14.4844H75.8408L74.9408 11.9284ZM74.3648 10.2544L72.3308 4.44037L70.2788 10.2544H74.3648ZM82.0016 1.16437V14.4844H79.9496V1.16437H82.0016ZM86.7477 1.16437V14.4844H84.6957V1.16437H86.7477ZM100.616 14.4844L97.7356 9.48037H96.1696V14.4844H94.1176V1.97437H98.4376C99.3976 1.97437 100.208 2.14237 100.868 2.47837C101.54 2.81437 102.038 3.26437 102.362 3.82837C102.698 4.39237 102.866 5.02237 102.866 5.71837C102.866 6.53437 102.626 7.27837 102.146 7.95037C101.678 8.61037 100.952 9.06037 99.9676 9.30037L103.064 14.4844H100.616ZM96.1696 7.84237H98.4376C99.2056 7.84237 99.7816 7.65037 100.166 7.26637C100.562 6.88237 100.76 6.36637 100.76 5.71837C100.76 5.07037 100.568 4.56637 100.184 4.20637C99.7996 3.83437 99.2176 3.64837 98.4376 3.64837H96.1696V7.84237ZM106.535 3.25237C106.163 3.25237 105.851 3.12637 105.599 2.87437C105.347 2.62237 105.221 2.31037 105.221 1.93837C105.221 1.56637 105.347 1.25437 105.599 1.00237C105.851 0.750374 106.163 0.624374 106.535 0.624374C106.895 0.624374 107.201 0.750374 107.453 1.00237C107.705 1.25437 107.831 1.56637 107.831 1.93837C107.831 2.31037 107.705 2.62237 107.453 2.87437C107.201 3.12637 106.895 3.25237 106.535 3.25237ZM107.543 4.56638V14.4844H105.491V4.56638H107.543ZM114.233 4.40437C115.001 4.40437 115.679 4.56037 116.267 4.87237C116.867 5.17237 117.335 5.55037 117.671 6.00637V4.56638H119.741V14.6464C119.741 15.5584 119.549 16.3684 119.165 17.0764C118.781 17.7964 118.223 18.3604 117.491 18.7684C116.771 19.1764 115.907 19.3804 114.899 19.3804C113.555 19.3804 112.439 19.0624 111.551 18.4264C110.663 17.8024 110.159 16.9504 110.039 15.8704H112.073C112.229 16.3864 112.559 16.8004 113.063 17.1124C113.579 17.4364 114.191 17.5984 114.899 17.5984C115.727 17.5984 116.393 17.3464 116.897 16.8424C117.413 16.3384 117.671 15.6064 117.671 14.6464V12.9904C117.323 13.4584 116.849 13.8544 116.249 14.1784C115.661 14.4904 114.989 14.6464 114.233 14.6464C113.369 14.6464 112.577 14.4304 111.857 13.9984C111.149 13.5544 110.585 12.9424 110.165 12.1624C109.757 11.3704 109.553 10.4764 109.553 9.48037C109.553 8.48437 109.757 7.60237 110.165 6.83437C110.585 6.06637 111.149 5.47237 111.857 5.05237C112.577 4.62037 113.369 4.40437 114.233 4.40437ZM117.671 9.51637C117.671 8.83237 117.527 8.23837 117.239 7.73437C116.963 7.23037 116.597 6.84637 116.141 6.58237C115.685 6.31837 115.193 6.18637 114.665 6.18637C114.137 6.18637 113.645 6.31837 113.189 6.58237C112.733 6.83437 112.361 7.21237 112.073 7.71637C111.797 8.20837 111.659 8.79637 111.659 9.48037C111.659 10.1644 111.797 10.7644 112.073 11.2804C112.361 11.7964 112.733 12.1924 113.189 12.4684C113.657 12.7324 114.149 12.8644 114.665 12.8644C115.193 12.8644 115.685 12.7324 116.141 12.4684C116.597 12.2044 116.963 11.8204 117.239 11.3164C117.527 10.8004 117.671 10.2004 117.671 9.51637ZM127.566 4.40437C128.322 4.40437 128.994 4.56637 129.582 4.89037C130.182 5.21437 130.65 5.69437 130.986 6.33037C131.334 6.96637 131.508 7.73437 131.508 8.63437V14.4844H129.474V8.94037C129.474 8.05237 129.252 7.37437 128.808 6.90637C128.364 6.42637 127.758 6.18637 126.99 6.18637C126.222 6.18637 125.61 6.42637 125.154 6.90637C124.71 7.37437 124.488 8.05237 124.488 8.94037V14.4844H122.436V1.16437H124.488V5.71837C124.836 5.29837 125.274 4.97437 125.802 4.74637C126.342 4.51837 126.93 4.40437 127.566 4.40437ZM136.519 6.24037V11.7304C136.519 12.1024 136.603 12.3724 136.771 12.5404C136.951 12.6964 137.251 12.7744 137.671 12.7744H138.931V14.4844H137.311C136.387 14.4844 135.679 14.2684 135.187 13.8364C134.695 13.4044 134.449 12.7024 134.449 11.7304V6.24037H133.279V4.56638H134.449V2.10037H136.519V4.56638H138.931V6.24037H136.519ZM144.423 14.6464C143.643 14.6464 142.941 14.5084 142.317 14.2324C141.705 13.9444 141.219 13.5604 140.859 13.0804C140.499 12.5884 140.307 12.0424 140.283 11.4424H142.407C142.443 11.8624 142.641 12.2164 143.001 12.5044C143.373 12.7804 143.835 12.9184 144.387 12.9184C144.963 12.9184 145.407 12.8104 145.719 12.5944C146.043 12.3664 146.205 12.0784 146.205 11.7304C146.205 11.3584 146.025 11.0824 145.665 10.9024C145.317 10.7224 144.759 10.5244 143.991 10.3084C143.247 10.1044 142.641 9.90637 142.173 9.71437C141.705 9.52237 141.297 9.22837 140.949 8.83237C140.613 8.43637 140.445 7.91437 140.445 7.26637C140.445 6.73837 140.601 6.25837 140.913 5.82637C141.225 5.38237 141.669 5.03437 142.245 4.78237C142.833 4.53037 143.505 4.40437 144.261 4.40437C145.389 4.40437 146.295 4.69237 146.979 5.26837C147.675 5.83237 148.047 6.60637 148.095 7.59037H146.043C146.007 7.14637 145.827 6.79237 145.503 6.52837C145.179 6.26437 144.741 6.13237 144.189 6.13237C143.649 6.13237 143.235 6.23437 142.947 6.43837C142.659 6.64237 142.515 6.91237 142.515 7.24837C142.515 7.51237 142.611 7.73437 142.803 7.91437C142.995 8.09437 143.229 8.23837 143.505 8.34637C143.781 8.44237 144.189 8.56837 144.729 8.72437C145.449 8.91637 146.037 9.11437 146.493 9.31837C146.961 9.51037 147.363 9.79837 147.699 10.1824C148.035 10.5664 148.209 11.0764 148.221 11.7124C148.221 12.2764 148.065 12.7804 147.753 13.2244C147.441 13.6684 146.997 14.0164 146.421 14.2684C145.857 14.5204 145.191 14.6464 144.423 14.6464ZM161.612 14.4844L158.732 9.48037H157.166V14.4844H155.114V1.97437H159.434C160.394 1.97437 161.204 2.14237 161.864 2.47837C162.536 2.81437 163.034 3.26437 163.358 3.82837C163.694 4.39237 163.862 5.02237 163.862 5.71837C163.862 6.53437 163.622 7.27837 163.142 7.95037C162.674 8.61037 161.948 9.06037 160.964 9.30037L164.06 14.4844H161.612ZM157.166 7.84237H159.434C160.202 7.84237 160.778 7.65037 161.162 7.26637C161.558 6.88237 161.756 6.36637 161.756 5.71837C161.756 5.07037 161.564 4.56637 161.18 4.20637C160.796 3.83437 160.214 3.64837 159.434 3.64837H157.166V7.84237ZM175.577 9.28237C175.577 9.65437 175.553 9.99037 175.505 10.2904H167.927C167.987 11.0824 168.281 11.7184 168.809 12.1984C169.337 12.6784 169.985 12.9184 170.753 12.9184C171.857 12.9184 172.637 12.4564 173.093 11.5324H175.307C175.007 12.4444 174.461 13.1944 173.669 13.7824C172.889 14.3584 171.917 14.6464 170.753 14.6464C169.805 14.6464 168.953 14.4364 168.197 14.0164C167.453 13.5844 166.865 12.9844 166.433 12.2164C166.013 11.4364 165.803 10.5364 165.803 9.51637C165.803 8.49637 166.007 7.60237 166.415 6.83437C166.835 6.05437 167.417 5.45437 168.161 5.03437C168.917 4.61437 169.781 4.40437 170.753 4.40437C171.689 4.40437 172.523 4.60837 173.255 5.01637C173.987 5.42437 174.557 6.00037 174.965 6.74437C175.373 7.47637 175.577 8.32237 175.577 9.28237ZM173.435 8.63437C173.423 7.87837 173.153 7.27237 172.625 6.81637C172.097 6.36037 171.443 6.13237 170.663 6.13237C169.955 6.13237 169.349 6.36037 168.845 6.81637C168.341 7.26037 168.041 7.86637 167.945 8.63437H173.435ZM181.196 14.6464C180.416 14.6464 179.714 14.5084 179.09 14.2324C178.478 13.9444 177.992 13.5604 177.632 13.0804C177.272 12.5884 177.08 12.0424 177.056 11.4424H179.18C179.216 11.8624 179.414 12.2164 179.774 12.5044C180.146 12.7804 180.608 12.9184 181.16 12.9184C181.736 12.9184 182.18 12.8104 182.492 12.5944C182.816 12.3664 182.978 12.0784 182.978 11.7304C182.978 11.3584 182.798 11.0824 182.438 10.9024C182.09 10.7224 181.532 10.5244 180.764 10.3084C180.02 10.1044 179.414 9.90637 178.946 9.71437C178.478 9.52237 178.07 9.22837 177.722 8.83237C177.386 8.43637 177.218 7.91437 177.218 7.26637C177.218 6.73837 177.374 6.25837 177.686 5.82637C177.998 5.38237 178.442 5.03437 179.018 4.78237C179.606 4.53037 180.278 4.40437 181.034 4.40437C182.162 4.40437 183.068 4.69237 183.752 5.26837C184.448 5.83237 184.82 6.60637 184.868 7.59037H182.816C182.78 7.14637 182.6 6.79237 182.276 6.52837C181.952 6.26437 181.514 6.13237 180.962 6.13237C180.422 6.13237 180.008 6.23437 179.72 6.43837C179.432 6.64237 179.288 6.91237 179.288 7.24837C179.288 7.51237 179.384 7.73437 179.576 7.91437C179.768 8.09437 180.002 8.23837 180.278 8.34637C180.554 8.44237 180.962 8.56837 181.502 8.72437C182.222 8.91637 182.81 9.11437 183.266 9.31837C183.734 9.51037 184.136 9.79837 184.472 10.1824C184.808 10.5664 184.982 11.0764 184.994 11.7124C184.994 12.2764 184.838 12.7804 184.526 13.2244C184.214 13.6684 183.77 14.0164 183.194 14.2684C182.63 14.5204 181.964 14.6464 181.196 14.6464ZM196.301 9.28237C196.301 9.65437 196.277 9.99037 196.229 10.2904H188.651C188.711 11.0824 189.005 11.7184 189.533 12.1984C190.061 12.6784 190.709 12.9184 191.477 12.9184C192.581 12.9184 193.361 12.4564 193.817 11.5324H196.031C195.731 12.4444 195.185 13.1944 194.393 13.7824C193.613 14.3584 192.641 14.6464 191.477 14.6464C190.529 14.6464 189.677 14.4364 188.921 14.0164C188.177 13.5844 187.589 12.9844 187.157 12.2164C186.737 11.4364 186.527 10.5364 186.527 9.51637C186.527 8.49637 186.731 7.60237 187.139 6.83437C187.559 6.05437 188.141 5.45437 188.885 5.03437C189.641 4.61437 190.505 4.40437 191.477 4.40437C192.413 4.40437 193.247 4.60837 193.979 5.01637C194.711 5.42437 195.281 6.00037 195.689 6.74437C196.097 7.47637 196.301 8.32237 196.301 9.28237ZM194.159 8.63437C194.147 7.87837 193.877 7.27237 193.349 6.81637C192.821 6.36037 192.167 6.13237 191.387 6.13237C190.679 6.13237 190.073 6.36037 189.569 6.81637C189.065 7.26037 188.765 7.86637 188.669 8.63437H194.159ZM200.373 6.00637C200.673 5.50237 201.069 5.11237 201.561 4.83637C202.065 4.54837 202.659 4.40437 203.343 4.40437V6.52837H202.821C202.017 6.52837 201.405 6.73237 200.985 7.14037C200.577 7.54837 200.373 8.25637 200.373 9.26437V14.4844H198.321V4.56638H200.373V6.00637ZM209.063 12.6484L211.871 4.56638H214.049L210.269 14.4844H207.821L204.059 4.56638H206.255L209.063 12.6484ZM224.69 9.28237C224.69 9.65437 224.666 9.99037 224.618 10.2904H217.04C217.1 11.0824 217.394 11.7184 217.922 12.1984C218.45 12.6784 219.098 12.9184 219.866 12.9184C220.97 12.9184 221.75 12.4564 222.206 11.5324H224.42C224.12 12.4444 223.574 13.1944 222.782 13.7824C222.002 14.3584 221.03 14.6464 219.866 14.6464C218.918 14.6464 218.066 14.4364 217.31 14.0164C216.566 13.5844 215.978 12.9844 215.546 12.2164C215.126 11.4364 214.916 10.5364 214.916 9.51637C214.916 8.49637 215.12 7.60237 215.528 6.83437C215.948 6.05437 216.53 5.45437 217.274 5.03437C218.03 4.61437 218.894 4.40437 219.866 4.40437C220.802 4.40437 221.636 4.60837 222.368 5.01637C223.1 5.42437 223.67 6.00037 224.078 6.74437C224.486 7.47637 224.69 8.32237 224.69 9.28237ZM222.548 8.63437C222.536 7.87837 222.266 7.27237 221.738 6.81637C221.21 6.36037 220.556 6.13237 219.776 6.13237C219.068 6.13237 218.462 6.36037 217.958 6.81637C217.454 7.26037 217.154 7.86637 217.058 8.63437H222.548ZM226.025 9.48037C226.025 8.48437 226.229 7.60237 226.637 6.83437C227.057 6.06637 227.621 5.47237 228.329 5.05237C229.049 4.62037 229.847 4.40437 230.723 4.40437C231.371 4.40437 232.007 4.54837 232.631 4.83637C233.267 5.11237 233.771 5.48437 234.143 5.95237V1.16437H236.213V14.4844H234.143V12.9904C233.807 13.4704 233.339 13.8664 232.739 14.1784C232.151 14.4904 231.473 14.6464 230.705 14.6464C229.841 14.6464 229.049 14.4304 228.329 13.9984C227.621 13.5544 227.057 12.9424 226.637 12.1624C226.229 11.3704 226.025 10.4764 226.025 9.48037ZM234.143 9.51637C234.143 8.83237 233.999 8.23837 233.711 7.73437C233.435 7.23037 233.069 6.84637 232.613 6.58237C232.157 6.31837 231.665 6.18637 231.137 6.18637C230.609 6.18637 230.117 6.31837 229.661 6.58237C229.205 6.83437 228.833 7.21237 228.545 7.71637C228.269 8.20837 228.131 8.79637 228.131 9.48037C228.131 10.1644 228.269 10.7644 228.545 11.2804C228.833 11.7964 229.205 12.1924 229.661 12.4684C230.129 12.7324 230.621 12.8644 231.137 12.8644C231.665 12.8644 232.157 12.7324 232.613 12.4684C233.069 12.2044 233.435 11.8204 233.711 11.3164C233.999 10.8004 234.143 10.2004 234.143 9.51637Z" fill="#06122E"/>
</svg>
