<svg width="352" height="44" viewBox="0 0 352 44" fill="none" xmlns="http://www.w3.org/2000/svg">
<path d="M1.10449 33.9333C1.10449 25.0951 1.10449 16.2166 1.10449 6.62109C36.0115 6.8064 70.2168 7.37037 104.5 6.82251C103.393 16.418 102.418 25.3529 103.292 33.9896C69.2734 36.9303 34.9589 33.1679 1.10449 33.9333ZM73.8502 32.9262C74.318 29.0831 74.2868 25.2159 74.0373 21.1634C69.5619 21.1634 65.5075 21.1634 61.0632 21.1634C61.3205 25.2643 61.1178 29.0912 62.529 32.9262C66.1157 32.9262 69.5853 32.9262 73.8502 32.9262ZM33.649 32.338C37.2824 32.338 40.7209 32.338 44.4946 32.338C44.3153 28.5514 44.1516 24.8695 43.9645 20.9217C40.1439 21.0909 36.5729 20.5592 32.9239 21.3568C32.2456 24.9903 32.9161 28.3903 33.649 32.338ZM30.5302 8.97365C26.3823 8.97365 22.5618 8.97365 18.6633 8.97365C17.4937 12.438 17.8758 15.6929 18.1253 19.3748C22.3824 19.1009 26.4213 18.835 30.6628 18.5611C30.6005 15.2901 31.3411 12.3011 30.5302 8.97365ZM15.833 21.8724C11.2718 20.962 7.25629 21.6065 3.13949 22.0174C3.01474 25.6188 2.57811 28.7609 3.43578 31.9916C7.66953 31.3471 11.8175 32.2091 15.8252 31.1295C15.833 28.0035 15.833 25.1031 15.833 21.8724ZM59.0282 9.20729C54.8178 9.20729 50.8881 9.20729 46.8961 9.20729C46.3191 12.3816 46.054 15.2337 46.2801 18.1905C50.7946 18.1905 54.966 18.1905 59.1841 18.1905C59.5584 15.0967 59.7845 12.3252 59.0282 9.20729ZM76.5636 9.65847C76.4388 12.6958 75.6513 15.5157 76.4856 18.1824C81.0624 18.1824 85.3898 18.1824 89.7171 18.1824C89.7171 15.1854 89.7171 12.5669 89.7171 9.65847C85.226 9.65847 81.0391 9.65847 76.5636 9.65847ZM92.1497 21.0103C92.7657 24.797 92.3524 28.2775 93.5376 31.7902C95.8923 32.1769 98.1456 32.1769 100.492 31.8385C101.475 28.5272 101.709 25.2884 101.108 21.9127C98.2703 21.0587 95.518 20.7606 92.1497 21.0103Z" fill="#06122E"/>
<path d="M104.149 40.684C100.305 42.0617 96.9059 41.2802 93.6779 41.4978C76.7039 42.6257 59.6832 43.6167 42.7169 41.7797C30.4211 40.4504 18.1409 39.8542 5.79831 40.257C4.21553 40.3054 2.64054 40.4585 0.145508 40.6196C2.31307 38.1865 4.29348 38.549 6.07899 38.5087C18.8114 38.2187 31.5049 38.9357 44.2062 39.83C62.8877 41.1513 81.5614 40.539 100.204 38.8552C101.607 38.7343 101.607 38.7102 104.149 40.684Z" fill="#06122E"/>
<path d="M3.08496 2.09314C37.5086 0.1112 71.6125 -0.219124 106.005 1.4325C105.186 3.83339 103.377 3.30164 101.826 3.2533C90.411 2.85853 79.0041 2.24622 67.5893 2.06898C51.894 1.82727 36.2065 2.5846 20.519 3.1244C15.8486 3.28553 11.1782 3.24525 6.50784 3.21302C5.45525 3.19691 4.21552 3.65614 3.08496 2.09314Z" fill="#06122E"/>
<path d="M87.6934 33.9333C87.6934 25.0951 87.6934 16.2166 87.6934 6.62109C122.6 6.8064 156.806 7.37037 191.089 6.82251C189.982 16.418 189.007 25.3529 189.88 33.9896C155.862 36.9303 121.548 33.1679 87.6934 33.9333ZM160.439 32.9262C160.907 29.0831 160.876 25.2159 160.626 21.1634C156.151 21.1634 152.096 21.1634 147.652 21.1634C147.909 25.2643 147.707 29.0912 149.118 32.9262C152.705 32.9262 156.174 32.9262 160.439 32.9262ZM120.238 32.338C123.871 32.338 127.31 32.338 131.084 32.338C130.904 28.5514 130.74 24.8695 130.553 20.9217C126.733 21.0909 123.162 20.5592 119.513 21.3568C118.834 24.9903 119.505 28.3903 120.238 32.338ZM117.119 8.97365C112.971 8.97365 109.151 8.97365 105.252 8.97365C104.083 12.438 104.465 15.6929 104.714 19.3748C108.971 19.1009 113.01 18.835 117.252 18.5611C117.189 15.2901 117.93 12.3011 117.119 8.97365ZM102.422 21.8724C97.8606 20.962 93.8452 21.6065 89.7284 22.0174C89.6036 25.6188 89.167 28.7609 90.0246 31.9916C94.2584 31.3471 98.4064 32.2091 102.414 31.1295C102.422 28.0035 102.422 25.1031 102.422 21.8724ZM145.617 9.20729C141.407 9.20729 137.477 9.20729 133.485 9.20729C132.908 12.3816 132.643 15.2337 132.869 18.1905C137.383 18.1905 141.555 18.1905 145.773 18.1905C146.147 15.0967 146.373 12.3252 145.617 9.20729ZM163.152 9.65847C163.028 12.6958 162.24 15.5157 163.074 18.1824C167.651 18.1824 171.979 18.1824 176.306 18.1824C176.306 15.1854 176.306 12.5669 176.306 9.65847C171.815 9.65847 167.628 9.65847 163.152 9.65847ZM178.739 21.0103C179.355 24.797 178.941 28.2775 180.126 31.7902C182.481 32.1769 184.734 32.1769 187.081 31.8385C188.064 28.5272 188.298 25.2884 187.697 21.9127C184.859 21.0587 182.107 20.7606 178.739 21.0103Z" fill="#06122E"/>
<path d="M96.1769 40.684C100.021 42.0617 103.42 41.2802 106.648 41.4978C123.622 42.6257 140.643 43.6167 157.609 41.7797C169.905 40.4504 182.185 39.8542 194.528 40.257C196.111 40.3054 197.686 40.4585 200.181 40.6196C198.013 38.1865 196.033 38.549 194.247 38.5087C181.515 38.2187 168.821 38.9357 156.12 39.83C137.438 41.1513 118.765 40.539 100.122 38.8552C98.7187 38.7343 98.7187 38.7102 96.1769 40.684Z" fill="#06122E"/>
<path d="M93.1143 2.09314C127.538 0.1112 161.642 -0.219124 196.034 1.4325C195.216 3.83339 193.407 3.30164 191.855 3.2533C180.44 2.85853 169.033 2.24622 157.619 2.06898C141.923 1.82727 126.236 2.5846 110.548 3.1244C105.878 3.28553 101.208 3.24525 96.5371 3.21302C95.4845 3.19691 94.2448 3.65614 93.1143 2.09314Z" fill="#06122E"/>
<path d="M172.468 33.9352C172.468 25.097 172.468 16.2186 172.468 6.62305C207.375 6.80835 241.58 7.37232 275.863 6.82446C274.756 16.42 273.782 25.3548 274.655 33.9916C240.637 36.9323 206.322 33.1698 172.468 33.9352ZM245.213 32.9281C245.681 29.0851 245.65 25.2179 245.401 21.1654C240.925 21.1654 236.871 21.1654 232.426 21.1654C232.684 25.2662 232.481 29.0931 233.892 32.9281C237.479 32.9281 240.949 32.9281 245.213 32.9281ZM205.012 32.34C208.646 32.34 212.084 32.34 215.858 32.34C215.679 28.5533 215.515 24.8714 215.328 20.9237C211.507 21.0929 207.936 20.5611 204.287 21.3587C203.609 24.9923 204.279 28.3922 205.012 32.34ZM201.894 8.9756C197.746 8.9756 193.925 8.9756 190.027 8.9756C188.857 12.44 189.239 15.6949 189.489 19.3768C193.746 19.1029 197.785 18.837 202.026 18.5631C201.964 15.292 202.704 12.303 201.894 8.9756ZM187.196 21.8743C182.635 20.9639 178.62 21.6085 174.503 22.0194C174.378 25.6207 173.941 28.7628 174.799 31.9935C179.033 31.349 183.181 32.2111 187.188 31.1315C187.196 28.0055 187.196 25.1051 187.196 21.8743ZM230.391 9.20924C226.181 9.20924 222.251 9.20924 218.259 9.20924C217.682 12.3836 217.417 15.2356 217.643 18.1924C222.158 18.1924 226.329 18.1924 230.547 18.1924C230.922 15.0987 231.148 12.3272 230.391 9.20924ZM247.927 9.66042C247.802 12.6978 247.015 15.5176 247.849 18.1844C252.426 18.1844 256.753 18.1844 261.08 18.1844C261.08 15.1873 261.08 12.5689 261.08 9.66042C256.589 9.66042 252.402 9.66042 247.927 9.66042ZM263.513 21.0123C264.129 24.7989 263.716 28.2794 264.901 31.7921C267.256 32.1789 269.509 32.1789 271.856 31.8405C272.838 28.5292 273.072 25.2904 272.472 21.9146C269.634 21.0606 266.881 20.7625 263.513 21.0123Z" fill="#06122E"/>
<path d="M275.513 40.686C271.669 42.0637 268.269 41.2822 265.041 41.4997C248.067 42.6277 231.046 43.6186 214.08 41.7817C201.784 40.4523 189.504 39.8562 177.162 40.259C175.579 40.3073 174.004 40.4604 171.509 40.6215C173.676 38.1884 175.657 38.551 177.442 38.5107C190.175 38.2206 202.868 38.9377 215.569 39.832C234.251 41.1533 252.925 40.541 271.567 38.8571C272.971 38.7363 272.971 38.7121 275.513 40.686Z" fill="#06122E"/>
<path d="M174.449 2.0951C208.873 0.113153 242.977 -0.217171 277.369 1.43445C276.551 3.83534 274.742 3.3036 273.19 3.25526C261.775 2.86048 250.368 2.24818 238.954 2.07093C223.258 1.82923 207.571 2.58655 191.883 3.12635C187.213 3.28749 182.542 3.2472 177.872 3.21498C176.82 3.19886 175.58 3.65809 174.449 2.0951Z" fill="#06122E"/>
<path d="M275.001 32.9415C273.001 23.9415 272.446 8.29468 275.945 6.83789C310.852 7.02319 316.717 8.84278 351 8.29492C349.893 17.8904 350.127 26.1582 351 34.7949C316.982 37.7356 308.855 32.1762 275.001 32.9415ZM331.671 32.9415C332.138 29.0985 332.107 25.2313 331.858 21.1788C327.382 21.1788 323.328 21.1788 318.884 21.1788C319.141 25.2796 318.938 29.1066 320.349 32.9415C323.936 32.9415 327.406 32.9415 331.671 32.9415ZM291.469 32.3534C295.103 32.3534 298.541 32.3534 302.315 32.3534C302.136 28.5668 301.972 24.8849 301.785 20.9371C297.964 21.1063 294.393 20.5745 290.744 21.3721C290.066 25.0057 290.737 28.4056 291.469 32.3534ZM288.351 8.98903C284.203 8.98903 280.382 8.98903 276.484 8.98903C275.314 12.4534 275.696 15.7083 275.946 19.3902C280.203 19.1163 284.242 18.8504 288.483 18.5765C288.421 15.3055 289.162 12.3164 288.351 8.98903ZM316.849 9.22267C312.638 9.22267 308.709 9.22267 304.716 9.22267C304.14 12.397 303.874 15.2491 304.101 18.2059C308.615 18.2059 312.786 18.2059 317.005 18.2059C317.379 15.1121 317.605 12.3406 316.849 9.22267ZM334.384 9.67385C334.259 12.7112 333.472 15.5311 334.306 18.1978C338.883 18.1978 343.21 18.1978 347.537 18.1978C347.537 15.2007 347.537 12.5823 347.537 9.67385C343.046 9.67385 338.859 9.67385 334.384 9.67385Z" fill="#06122E"/>
<path d="M230.055 33.9333C230.055 25.0951 230.055 16.2166 230.055 6.62109C264.962 6.8064 299.167 7.37037 333.45 6.82251C332.343 16.418 331.369 25.3529 332.242 33.9896C298.224 36.9303 263.909 33.1679 230.055 33.9333ZM302.8 32.9262C303.268 29.0831 303.237 25.2159 302.988 21.1634C298.512 21.1634 294.458 21.1634 290.013 21.1634C290.271 25.2643 290.068 29.0912 291.479 32.9262C295.066 32.9262 298.535 32.9262 302.8 32.9262ZM262.599 32.338C266.233 32.338 269.671 32.338 273.445 32.338C273.266 28.5514 273.102 24.8695 272.915 20.9217C269.094 21.0909 265.523 20.5592 261.874 21.3568C261.196 24.9903 261.866 28.3903 262.599 32.338ZM259.48 8.97365C255.332 8.97365 251.512 8.97365 247.613 8.97365C246.444 12.438 246.826 15.6929 247.075 19.3748C251.333 19.1009 255.371 18.835 259.613 18.5611C259.551 15.2901 260.291 12.3011 259.48 8.97365ZM244.783 21.8724C240.222 20.962 236.206 21.6065 232.09 22.0174C231.965 25.6188 231.528 28.7609 232.386 31.9916C236.62 31.3471 240.768 32.2091 244.775 31.1295C244.783 28.0035 244.783 25.1031 244.783 21.8724ZM287.978 9.20729C283.768 9.20729 279.838 9.20729 275.846 9.20729C275.269 12.3816 275.004 15.2337 275.23 18.1905C279.745 18.1905 283.916 18.1905 288.134 18.1905C288.509 15.0967 288.735 12.3252 287.978 9.20729ZM305.514 9.65847C305.389 12.6958 304.602 15.5157 305.436 18.1824C310.013 18.1824 314.34 18.1824 318.667 18.1824C318.667 15.1854 318.667 12.5669 318.667 9.65847C314.176 9.65847 309.989 9.65847 305.514 9.65847ZM321.1 21.0103C321.716 24.797 321.303 28.2775 322.488 31.7902C324.842 32.1769 327.096 32.1769 329.443 31.8385C330.425 28.5272 330.659 25.2884 330.059 21.9127C327.221 21.0587 324.468 20.7606 321.1 21.0103Z" fill="#06122E"/>
<path d="M269 40.8671C272.068 42.4487 274.781 41.5516 277.357 41.8013C290.903 43.0961 304.486 44.2337 318.026 42.125C327.839 40.5989 337.639 39.9145 347.489 40.377C348.752 40.4324 350.009 40.6082 352 40.7931C350.27 38 348.69 38.4162 347.265 38.37C337.104 38.037 326.974 38.8602 316.837 39.8868C301.929 41.4036 287.026 40.7007 272.149 38.7677C271.029 38.6289 271.028 38.6012 269 40.8671Z" fill="#06122E"/>
<path d="M235.476 2.09314C269.899 0.1112 304.003 -0.219124 338.396 1.4325C337.577 3.83339 335.768 3.30164 334.216 3.2533C322.802 2.85853 311.395 2.24622 299.98 2.06898C284.285 1.82727 268.597 2.5846 252.91 3.1244C248.239 3.28553 243.569 3.24525 238.898 3.21302C237.846 3.19691 236.606 3.65614 235.476 2.09314Z" fill="#06122E"/>
</svg>
