<svg width="36" height="37" viewBox="0 0 36 37" fill="none" xmlns="http://www.w3.org/2000/svg">
<path d="M17.999 12.5316C14.7168 12.5316 12.0199 15.2283 12.0199 18.5107C12.0199 21.7932 14.7168 24.4899 17.999 24.4899C21.2812 24.4899 23.9781 21.7932 23.9781 18.5107C23.9781 15.2283 21.2812 12.5316 17.999 12.5316ZM35.9364 18.5107C35.9364 16.0422 36.075 13.5009 35.9364 11.0368C35.7978 8.17476 35.0396 5.65578 32.9468 3.5629C30.8496 1.46555 28.3348 0.711964 25.4729 0.573333C23.0046 0.434702 20.4629 0.573333 17.999 0.573333C15.5307 0.573333 12.989 0.434702 10.5251 0.573333C7.66324 0.711964 5.1439 1.47002 3.05118 3.5629C0.953978 5.66025 0.20023 8.17476 0.0616092 11.0368C-0.0770115 13.5053 0.0616092 16.0467 0.0616092 18.5107C0.0616092 20.9748 -0.0770115 23.5206 0.0616092 25.9846C0.20023 28.8467 0.95845 31.3657 3.05118 33.4586C5.14837 35.5559 7.66324 36.3095 10.5251 36.4481C12.9934 36.5868 15.5351 36.4481 17.999 36.4481C20.4674 36.4481 23.0091 36.5868 25.4729 36.4481C28.3348 36.3095 30.8541 35.5514 32.9468 33.4586C35.044 31.3612 35.7978 28.8467 35.9364 25.9846C36.0795 23.5206 35.9364 20.9793 35.9364 18.5107V18.5107ZM17.999 27.4794C12.9237 27.4794 9.03031 23.5864 9.03031 18.5107C9.03031 13.435 12.9237 9.54203 17.999 9.54203C23.0743 9.54203 26.9677 13.435 26.9677 18.5107C26.9677 23.5864 23.0743 27.4794 17.999 27.4794ZM26.9677 11.0368C25.7827 11.0368 25.4729 10.7271 25.4729 9.54203C25.4729 8.35696 25.7827 6.55247 26.9677 6.55247C28.1527 6.55247 29.9573 8.35696 29.9573 9.54203C29.9576 9.82343 30.0648 9.28198 29.9573 9.54203C29.8498 9.80208 28.6615 10.8378 28.4625 11.0368C28.2635 11.2358 28.7225 10.9293 28.4625 11.0368C28.2025 11.1443 27.2491 11.0372 26.9677 11.0368V11.0368Z" fill="#F6F5E9"/>
</svg>
