<svg width="36" height="36" viewBox="0 0 36 36" fill="none" xmlns="http://www.w3.org/2000/svg">
<path d="M17.998 12.0199C14.7158 12.0199 12.0189 14.7166 12.0189 17.999C12.0189 21.2814 14.7158 23.9781 17.998 23.9781C21.2802 23.9781 23.9772 21.2814 23.9772 17.999C23.9772 14.7166 21.2802 12.0199 17.998 12.0199ZM35.9354 17.999C35.9354 15.5305 36.074 12.9892 35.9354 10.5251C35.7968 7.66304 35.0386 5.14406 32.9459 3.05118C30.8487 0.953827 28.3338 0.200245 25.4719 0.0616138C23.0036 -0.0770172 20.4619 0.0616138 17.998 0.0616138C15.5297 0.0616138 12.988 -0.0770172 10.5241 0.0616138C7.66227 0.200245 5.14292 0.958299 3.0502 3.05118C0.953001 5.14853 0.199253 7.66304 0.0606327 10.5251C-0.0779881 12.9936 0.0606327 15.535 0.0606327 17.999C0.0606327 20.4631 -0.0779881 23.0089 0.0606327 25.4729C0.199253 28.335 0.957473 30.854 3.0502 32.9468C5.1474 35.0442 7.66227 35.7978 10.5241 35.9364C12.9925 36.075 15.5342 35.9364 17.998 35.9364C20.4664 35.9364 23.0081 36.075 25.4719 35.9364C28.3338 35.7978 30.8531 35.0397 32.9459 32.9468C35.0431 30.8495 35.7968 28.335 35.9354 25.4729C36.0785 23.0089 35.9354 20.4675 35.9354 17.999ZM17.998 26.9677C12.9227 26.9677 9.02933 23.0747 9.02933 17.999C9.02933 12.9233 12.9227 9.03031 17.998 9.03031C23.0733 9.03031 26.9667 12.9233 26.9667 17.999C26.9667 23.0747 23.0733 26.9677 17.998 26.9677ZM26.9667 10.5251C25.7817 10.5251 25.4719 10.2154 25.4719 9.03031C25.4719 7.84524 25.7817 6.04075 26.9667 6.04075C28.1517 6.04075 29.9563 7.84524 29.9563 9.03031C29.9566 9.31171 30.0638 8.77027 29.9563 9.03031C29.8488 9.29036 28.6605 10.3261 28.4615 10.5251C28.2625 10.7241 28.7215 10.4176 28.4615 10.5251C28.2015 10.6326 27.2481 10.5254 26.9667 10.5251Z" fill="#06122E"/>
</svg>
