<svg width="36" height="29" viewBox="0 0 36 29" fill="none" xmlns="http://www.w3.org/2000/svg">
<path d="M36 4.22433C34.9975 5.66666 33.6002 5.77906 32.1429 6.79576C32.1572 7.06843 32.1429 7.73776 32.1429 8.08147C32.1429 9.99119 31.4328 12.5957 30.8571 14.51C30.2814 16.4244 29.4688 17.9025 28.2857 19.6529C27.1026 21.4033 26.064 23.4448 24.4286 24.7958C22.7931 26.1468 21.5821 26.5638 19.2857 27.3672C16.9894 28.1706 14.1972 28.6529 11.5714 28.6529C7.47347 28.6529 3.44967 28.2216 0 26.0815C0.612276 26.1474 0.723541 26.0815 1.28571 26.0815C4.70923 26.0815 8.87945 24.2642 11.5714 22.2243C9.97519 22.196 7.69143 21.8609 6.42857 20.9386C5.16571 20.0164 4.33242 18.5161 3.85714 17.0815C4.32693 17.168 4.68532 17.0815 5.14286 17.0815C5.80146 17.0815 7.07678 17.2476 7.71429 17.0815C6.01081 16.7515 3.69431 15.8214 2.57143 14.51C1.44858 13.1987 1.28571 12.3686 1.28571 10.6529C2.33132 11.2129 3.95786 10.6171 5.14286 10.6529C4.13373 10.0022 3.16247 9.12787 2.57143 8.08147C1.98034 7.03507 1.28571 6.72842 1.28571 5.51004C1.28571 4.22506 1.90564 2.76104 2.57143 1.6529C4.42393 3.85177 6.36311 5.47981 9 6.79576C11.6369 8.11172 14.9791 9.22146 18 9.36719C17.8712 8.84781 18.0002 8.64609 18 8.08147C18 6.11004 17.8432 4.33382 19.2857 2.93862C20.7283 1.54342 22.3904 0.367188 24.4286 0.367188C26.5625 0.367188 29.3962 1.4355 30.8571 2.93862C32.5263 2.61882 33.2577 1.20426 34.7143 0.367188C34.1531 2.07545 33.7444 3.29697 32.1429 4.22433C33.6148 4.05514 34.6434 4.80334 36 4.22433Z" fill="#F6F5E9"/>
</svg>
