<svg width="36" height="30" viewBox="0 0 36 30" fill="none" xmlns="http://www.w3.org/2000/svg">
<path d="M35.999 4.71066C34.9965 6.15298 33.5992 6.26539 32.1419 7.28209C32.1563 7.55476 32.1419 8.22409 32.1419 8.5678C32.1419 10.4775 31.4319 13.082 30.8562 14.9964C30.2805 16.9107 29.4678 18.3888 28.2847 20.1392C27.1017 21.8896 26.0631 23.9311 24.4276 25.2821C22.7921 26.6331 21.5811 27.0501 19.2847 27.8535C16.9884 28.6569 14.1962 29.1392 11.5705 29.1392C7.47249 29.1392 3.4487 28.708 -0.000976562 26.5678C0.6113 26.6337 0.722565 26.5678 1.28474 26.5678C4.70825 26.5678 8.87847 24.7506 11.5705 22.7107C9.97422 22.6824 7.69046 22.3472 6.42759 21.4249C5.16473 20.5027 4.33145 19.0025 3.85617 17.5678C4.32595 17.6544 4.68434 17.5678 5.14188 17.5678C5.80048 17.5678 7.07581 17.734 7.71331 17.5678C6.00983 17.2378 3.69334 16.3077 2.57045 14.9964C1.44761 13.6851 1.28474 12.8549 1.28474 11.1392C2.33034 11.6992 3.95688 11.1035 5.14188 11.1392C4.13275 10.4885 3.1615 9.6142 2.57045 8.5678C1.97937 7.5214 1.28474 7.21475 1.28474 5.99637C1.28474 4.71139 1.90466 3.24737 2.57045 2.13923C4.42296 4.3381 6.36214 5.96614 8.99902 7.28209C11.6359 8.59805 14.9781 9.70779 17.999 9.85352C17.8702 9.33413 17.9993 9.13242 17.999 8.5678C17.999 6.59636 17.8422 4.82014 19.2847 3.42494C20.7273 2.02974 22.3894 0.853516 24.4276 0.853516C26.5615 0.853516 29.3953 1.92182 30.8562 3.42494C32.5253 3.10515 33.2567 1.69058 34.7133 0.853516C34.1521 2.56178 33.7434 3.7833 32.1419 4.71066C33.6138 4.54147 34.6424 5.28967 35.999 4.71066Z" fill="#06122E"/>
</svg>
