<svg width="36" height="26" viewBox="0 0 36 26" fill="none" xmlns="http://www.w3.org/2000/svg">
<path d="M18.1149 0.353516H18.3152C20.1648 0.360266 29.5366 0.427771 32.0635 1.10731C32.8274 1.31471 33.5235 1.71895 34.0823 2.27965C34.641 2.84036 35.0428 3.53788 35.2475 4.30251C35.4747 5.15757 35.6345 6.28939 35.7425 7.45721L35.765 7.69122L35.8145 8.27626L35.8325 8.51028C35.9788 10.5669 35.9968 12.493 35.999 12.9138V13.0826C35.9968 13.5191 35.9765 15.5757 35.8145 17.7178L35.7965 17.9541L35.7763 18.1881C35.6638 19.4752 35.4972 20.7533 35.2475 21.6938C35.0434 22.4588 34.6418 23.1566 34.083 23.7174C33.5242 24.2782 32.8277 24.6823 32.0635 24.889C29.4534 25.5911 19.5325 25.6406 18.1577 25.6428H17.8381C17.1428 25.6428 14.2672 25.6293 11.252 25.5258L10.8695 25.5123L10.6737 25.5033L10.2889 25.4876L9.90414 25.4718C7.40649 25.3616 5.02809 25.1838 3.93227 24.8868C3.16832 24.6802 2.47207 24.2765 1.91327 23.7161C1.35447 23.1558 0.952738 22.4584 0.74832 21.6938C0.498555 20.7555 0.332044 19.4752 0.219537 18.1881L0.201536 17.9519L0.183535 17.7178C0.0724851 16.1932 0.0109489 14.6653 -0.000976562 13.1366L-0.000976562 12.8598C0.00352372 12.376 0.0215248 10.7042 0.143032 8.85905L0.158783 8.62728L0.165534 8.51028L0.183535 8.27626L0.233038 7.69122L0.255539 7.45721C0.363546 6.28939 0.523306 5.15532 0.75057 4.30251C0.954644 3.53757 1.35622 2.83972 1.91505 2.27892C2.47387 1.71812 3.1703 1.31408 3.93452 1.10731C5.03034 0.814795 7.40874 0.634783 9.90639 0.522276L10.2889 0.506525L10.6759 0.493025L10.8695 0.486274L11.2542 0.470523C13.3957 0.401612 15.5381 0.363355 17.6806 0.355766H18.1149V0.353516ZM14.3999 7.57647V18.4176L23.7538 12.9993L14.3999 7.57647Z" fill="#1A1E21"/>
</svg>
