<svg width="36" height="26" viewBox="0 0 36 26" fill="none" xmlns="http://www.w3.org/2000/svg">
<path d="M18.1159 0H18.3161C20.1658 0.00675042 29.5376 0.074255 32.0645 0.753797C32.8284 0.96119 33.5245 1.36544 34.0832 1.92614C34.642 2.48684 35.0438 3.18436 35.2485 3.949C35.4757 4.80405 35.6355 5.93587 35.7435 7.10369L35.766 7.33771L35.8155 7.92275L35.8335 8.15676C35.9798 10.2134 35.9977 12.1395 36 12.5603V12.729C35.9977 13.1656 35.9775 15.2222 35.8155 17.3643L35.7975 17.6006L35.7772 17.8346C35.6647 19.1217 35.4982 20.3998 35.2485 21.3403C35.0444 22.1053 34.6428 22.8031 34.084 23.3639C33.5252 23.9247 32.8287 24.3288 32.0645 24.5355C29.4543 25.2376 19.5335 25.2871 18.1586 25.2893H17.8391C17.1438 25.2893 14.2681 25.2758 11.253 25.1723L10.8704 25.1588L10.6747 25.1498L10.2899 25.1341L9.90512 25.1183C7.40746 25.0081 5.02906 24.8303 3.93325 24.5333C3.1693 24.3267 2.47305 23.923 1.91425 23.3626C1.35545 22.8022 0.953715 22.1049 0.749297 21.3403C0.499531 20.402 0.333021 19.1217 0.220514 17.8346L0.202513 17.5983L0.184512 17.3643C0.0734617 15.8396 0.0119254 14.3117 0 12.783L0 12.5063C0.00450028 12.0225 0.0225014 10.3506 0.144009 8.50553L0.15976 8.27377L0.16651 8.15676L0.184512 7.92275L0.234015 7.33771L0.256516 7.10369C0.364523 5.93587 0.524283 4.8018 0.751547 3.949C0.95562 3.18406 1.3572 2.4862 1.91602 1.92541C2.47485 1.36461 3.17128 0.960568 3.9355 0.753797C5.03131 0.461279 7.40971 0.281267 9.90737 0.16876L10.2899 0.153009L10.6769 0.139509L10.8704 0.132759L11.2552 0.117008C13.3967 0.0480961 15.539 0.00983956 17.6816 0.00225025H18.1159V0ZM14.4009 7.22295V18.0641L23.7547 12.6458L14.4009 7.22295Z" fill="#F6F5E9"/>
</svg>
