<svg width="125" height="94" viewBox="0 0 125 94" fill="none" xmlns="http://www.w3.org/2000/svg">
<g clip-path="url(#clip0_777_81)">
<path d="M81.1808 93.4129C77.7729 93.4129 74.6479 93.4129 71.2629 93.4129C71.217 92.4492 71.1405 91.5837 71.1405 90.7155C71.1278 80.1586 71.1354 69.599 71.1023 59.0421C71.0998 57.8251 71.0156 56.5798 70.7556 55.3939C69.8661 51.3142 66.0427 48.4489 62.0434 48.7693C57.7408 49.1129 54.3507 52.6138 54.1569 56.9596C54.1034 58.1843 54.1467 59.4141 54.1467 60.6414C54.1493 70.7074 54.1518 80.7761 54.1467 90.8421C54.1467 91.6405 54.0703 92.4363 54.0244 93.3742C50.6878 93.3742 47.5068 93.3742 44.0937 93.3742C44.0504 92.3949 43.979 91.5242 43.979 90.651C43.9637 80.1741 43.9688 69.6998 43.9433 59.2229C43.9408 58.0835 43.8796 56.926 43.6783 55.8073C42.8983 51.4925 38.9602 48.4024 34.8054 48.7719C30.4008 49.1646 27.026 52.7663 27.0082 57.2748C26.97 68.2426 27.0005 79.2078 27.0031 90.1756C27.0031 91.147 27.0031 92.1211 27.0031 93.2682C26.2537 93.3664 25.6445 93.5111 25.0353 93.5137C18.171 93.5292 11.3093 93.524 4.44498 93.524C4.20283 93.524 3.96068 93.5318 3.71853 93.5163C1.51115 93.3742 -0.036057 91.8265 -0.000371862 89.8009C0.0353133 87.7443 1.53154 86.2277 3.77206 86.1347C5.78827 86.052 7.80958 86.1037 9.82579 86.0985C10.616 86.0959 11.4087 86.0985 12.4486 86.0985C12.7851 80.5901 12.5634 75.3038 12.6067 70.0279C12.65 64.6254 12.6347 59.2255 12.6373 53.823C12.6424 48.5264 12.6373 43.2299 12.6373 37.8145C45.9494 37.8145 79.0168 37.8145 112.405 37.8145C112.591 53.7972 112.303 69.7075 112.466 85.866C113.532 85.959 114.381 86.083 115.232 86.0959C117.33 86.1295 119.435 86.0261 121.528 86.1347C123.865 86.2561 125.058 87.6616 124.992 89.9663C124.933 92.0617 123.623 93.4956 121.462 93.5059C114.034 93.5473 106.606 93.5034 99.1789 93.4853C99.0259 93.4853 98.8704 93.4026 98.3963 93.2657C98.3632 92.4311 98.2969 91.4855 98.2969 90.5424C98.2867 80.1482 98.2995 69.7541 98.274 59.3599C98.2714 58.1404 98.2128 56.8976 97.9758 55.7065C97.1142 51.415 93.38 48.4774 89.2813 48.7667C84.9915 49.069 81.6294 52.4872 81.321 56.8976C81.2522 57.8742 81.3032 58.8612 81.3032 59.843C81.3057 70.2372 81.3083 80.6314 81.3032 91.0256C81.3057 91.7439 81.2318 92.4647 81.1808 93.4129Z" fill="#06122E"/>
<path d="M112.465 31.553C79.1066 31.553 46.0494 31.553 12.6735 31.553C12.6634 30.0803 12.6506 28.6412 12.643 27.1995C12.6379 25.8896 12.7424 24.5719 12.6149 23.2749C12.411 21.2002 13.3694 20.115 15.197 19.4174C18.5896 18.123 21.9389 16.6994 25.3035 15.3326C37.0516 10.5554 48.8124 5.80654 60.5375 0.975036C62.0032 0.370452 63.2394 0.388538 64.6821 0.982787C79.6367 7.1113 94.6143 13.1856 109.579 19.2857C112.36 20.4199 112.452 20.5723 112.462 23.6185C112.47 26.21 112.465 28.804 112.465 31.553Z" fill="#06122E"/>
</g>
<defs>
<clipPath id="clip0_777_81">
<rect width="125" height="93" fill="white" transform="translate(0 0.527344)"/>
</clipPath>
</defs>
</svg>
