<svg width="126" height="76" viewBox="0 0 126 76" fill="none" xmlns="http://www.w3.org/2000/svg">
<path d="M81.8974 29.8223H71.0123C68.7711 31.1997 66.1403 31.9935 63.3217 31.9935C60.5031 31.9935 57.8696 31.1997 55.6311 29.8223H45.7264C41.8702 29.8223 38.7139 32.9182 38.7139 36.6988V68.79C38.7139 72.5733 41.8702 75.6665 45.7264 75.6665H81.8974C85.7536 75.6665 88.9099 72.5705 88.9099 68.79V36.6988C88.9099 32.9182 85.7536 29.8223 81.8974 29.8223Z" fill="#06122E"/>
<path d="M63.3197 30.062C71.4731 30.062 78.0828 23.4185 78.0828 15.2234C78.0828 7.02823 71.4731 0.384766 63.3197 0.384766C55.1663 0.384766 48.5566 7.02823 48.5566 15.2234C48.5566 23.4185 55.1663 30.062 63.3197 30.062Z" fill="#06122E"/>
<path d="M103.246 32.2493C110.36 32.2493 116.127 26.5206 116.127 19.4538C116.127 12.387 110.36 6.6582 103.246 6.6582C96.1314 6.6582 90.3643 12.387 90.3643 19.4538C90.3643 26.5206 96.1314 32.2493 103.246 32.2493Z" fill="#06122E"/>
<path d="M22.0443 32.2493C29.1585 32.2493 34.9256 26.5206 34.9256 19.4538C34.9256 12.387 29.1585 6.6582 22.0443 6.6582C14.9302 6.6582 9.16309 12.387 9.16309 19.4538C9.16309 26.5206 14.9302 32.2493 22.0443 32.2493Z" fill="#06122E"/>
<path d="M119.455 32.0391H109.956C108.001 33.2256 105.705 33.9103 103.246 33.9103C100.787 33.9103 98.4885 33.2256 96.5359 32.0391H90.0898C90.9041 33.4111 91.3725 35.0013 91.3725 36.7007V68.7919C91.3725 69.7575 91.22 70.6903 90.9395 71.5659H119.455C122.821 71.5659 125.575 68.8983 125.575 65.636V37.969C125.575 34.7067 122.821 32.0391 119.455 32.0391Z" fill="#06122E"/>
<path d="M37.3961 32.0391H28.755C26.7997 33.2256 24.504 33.9103 22.0448 33.9103C19.5857 33.9103 17.2872 33.2256 15.3346 32.0391H6.6935C3.32749 32.0391 0.574219 34.7067 0.574219 37.969V65.6387C0.574219 68.901 3.32749 71.5687 6.6935 71.5687H36.7698C36.4375 70.6222 36.255 69.6075 36.255 68.5518V36.4579C36.2523 34.8595 36.6663 33.3538 37.3961 32.0391Z" fill="#06122E"/>
</svg>
