<svg width="274" height="425" viewBox="0 0 274 425" fill="none" xmlns="http://www.w3.org/2000/svg">
<rect x="18.3428" y="20.6914" width="236.67" height="386" fill="#F74061"/>
<path d="M114.361 337.123C112.225 337.123 110.533 336.871 109.285 336.367C108.061 335.863 107.221 335.275 106.765 334.603C106.309 333.931 106.081 333.319 106.081 332.767C106.081 332.191 106.297 331.687 106.729 331.255C107.161 330.799 107.893 330.571 108.925 330.571C109.069 331.963 109.477 333.175 110.149 334.207C110.821 335.215 112.141 335.719 114.109 335.719C115.717 335.719 116.989 335.227 117.925 334.243C118.861 333.259 119.329 331.939 119.329 330.283C119.329 328.171 118.525 326.647 116.917 325.711C115.333 324.751 113.305 324.247 110.833 324.199L110.869 322.687C113.365 322.591 115.237 321.991 116.485 320.887C117.757 319.759 118.393 318.415 118.393 316.855C118.393 315.535 118.069 314.503 117.421 313.759C116.773 312.991 115.789 312.607 114.469 312.607C112.909 312.607 111.793 313.111 111.121 314.119C110.473 315.127 110.125 316.303 110.077 317.647C108.949 317.671 108.181 317.491 107.773 317.107C107.365 316.699 107.161 316.255 107.161 315.775C107.161 315.007 107.449 314.275 108.025 313.579C108.601 312.859 109.465 312.283 110.617 311.851C111.769 311.395 113.161 311.167 114.793 311.167C116.905 311.167 118.753 311.623 120.337 312.535C121.945 313.423 122.749 314.935 122.749 317.071C122.749 318.607 122.185 319.939 121.057 321.067C119.953 322.171 118.477 322.963 116.629 323.443C118.837 323.827 120.565 324.535 121.813 325.567C123.085 326.575 123.721 328.015 123.721 329.887C123.721 332.143 122.869 333.919 121.165 335.215C119.461 336.487 117.193 337.123 114.361 337.123ZM134.938 337.123C133.33 337.123 131.938 336.859 130.762 336.331C129.61 335.779 128.734 335.095 128.134 334.279C127.534 333.439 127.234 332.611 127.234 331.795C127.234 331.099 127.438 330.547 127.846 330.139C128.278 329.731 128.866 329.527 129.61 329.527L130.042 329.563C130.066 331.003 130.438 332.335 131.158 333.559C131.878 334.783 133.054 335.395 134.686 335.395C136.342 335.395 137.566 334.831 138.358 333.703C139.15 332.575 139.546 331.039 139.546 329.095C139.546 327.367 139.078 325.963 138.142 324.883C137.23 323.779 135.922 323.227 134.218 323.227C132.97 323.227 131.854 323.359 130.87 323.623C129.91 323.863 129.37 323.995 129.25 324.019C128.65 324.019 128.35 323.719 128.35 323.119L128.782 313.291C128.806 312.811 128.974 312.427 129.286 312.139C129.622 311.827 130.03 311.671 130.51 311.671C133.75 311.671 136.162 311.659 137.746 311.635C139.33 311.587 140.842 311.479 142.282 311.311C142.426 311.551 142.498 311.875 142.498 312.283C142.498 312.811 142.366 313.339 142.102 313.867C141.862 314.395 141.562 314.743 141.202 314.911C136.93 314.911 133.762 314.827 131.698 314.659L131.338 321.967C133.09 321.583 134.542 321.391 135.694 321.391C138.262 321.391 140.278 322.051 141.742 323.371C143.206 324.691 143.938 326.503 143.938 328.807C143.938 330.751 143.506 332.347 142.642 333.595C141.802 334.843 140.698 335.743 139.33 336.295C137.986 336.847 136.522 337.123 134.938 337.123ZM156.948 337.159C153.924 337.159 151.62 336.079 150.036 333.919C148.476 331.735 147.696 328.483 147.696 324.163C147.696 319.843 148.476 316.603 150.036 314.443C151.62 312.259 153.924 311.167 156.948 311.167C159.972 311.167 162.264 312.259 163.824 314.443C165.384 316.603 166.164 319.843 166.164 324.163C166.164 328.483 165.384 331.735 163.824 333.919C162.264 336.079 159.972 337.159 156.948 337.159ZM156.948 335.647C158.58 335.647 159.792 334.735 160.584 332.911C161.376 331.063 161.772 328.147 161.772 324.163C161.772 320.203 161.376 317.299 160.584 315.451C159.792 313.603 158.58 312.679 156.948 312.679C155.316 312.679 154.104 313.603 153.312 315.451C152.52 317.299 152.124 320.203 152.124 324.163C152.124 328.147 152.52 331.063 153.312 332.911C154.104 334.735 155.316 335.647 156.948 335.647Z" fill="#06122E"/>
<path d="M96.0489 373.029C93.7955 373.029 92.0449 372.215 90.7969 370.585C89.5489 368.956 88.9249 366.642 88.9249 363.643C88.9249 360.662 89.5662 358.357 90.8489 356.727C92.1489 355.081 93.9515 354.257 96.2569 354.257C97.1929 354.257 98.0855 354.379 98.9349 354.621C99.7842 354.864 100.469 355.202 100.989 355.635C101.526 356.069 101.795 356.571 101.795 357.143C101.795 357.611 101.587 358.01 101.171 358.339C100.755 358.651 100.192 358.799 99.4809 358.781C99.2035 356.493 98.1375 355.349 96.2829 355.349C93.4922 355.349 92.0969 358.114 92.0969 363.643C92.0969 369.173 93.4662 371.937 96.2049 371.937C97.1582 371.937 97.9555 371.617 98.5969 370.975C99.2382 370.317 99.6629 369.355 99.8709 368.089C99.9575 368.072 100.105 368.063 100.313 368.063C100.85 368.063 101.31 368.193 101.691 368.453C102.072 368.696 102.263 369.06 102.263 369.545C102.263 370.221 101.968 370.828 101.379 371.365C100.79 371.903 100.018 372.319 99.0649 372.613C98.1115 372.891 97.1062 373.029 96.0489 373.029ZM110.567 373.029C108.609 373.029 107.083 372.414 105.991 371.183C104.917 369.953 104.379 368.237 104.379 366.035C104.379 363.817 104.925 362.092 106.017 360.861C107.109 359.631 108.626 359.015 110.567 359.015C112.526 359.015 114.051 359.631 115.143 360.861C116.235 362.092 116.781 363.817 116.781 366.035C116.781 368.237 116.235 369.953 115.143 371.183C114.051 372.414 112.526 373.029 110.567 373.029ZM110.567 371.963C111.607 371.963 112.387 371.461 112.907 370.455C113.445 369.45 113.713 367.977 113.713 366.035C113.713 364.077 113.445 362.595 112.907 361.589C112.387 360.584 111.607 360.081 110.567 360.081C109.527 360.081 108.739 360.584 108.201 361.589C107.681 362.595 107.421 364.077 107.421 366.035C107.421 367.977 107.681 369.45 108.201 370.455C108.739 371.461 109.527 371.963 110.567 371.963ZM122.519 372.951C121.6 372.951 120.89 372.665 120.387 372.093C119.902 371.504 119.659 370.689 119.659 369.649V355.167C119.659 354.699 119.806 354.335 120.101 354.075C120.413 353.798 120.812 353.659 121.297 353.659C121.938 353.659 122.476 353.876 122.909 354.309C122.736 354.933 122.623 355.609 122.571 356.337C122.519 357.048 122.493 358.062 122.493 359.379V369.415C122.493 370.334 122.805 370.793 123.429 370.793C123.602 370.793 123.767 370.759 123.923 370.689C124.096 370.62 124.218 370.516 124.287 370.377C124.512 370.655 124.625 370.975 124.625 371.339C124.625 371.807 124.417 372.197 124.001 372.509C123.585 372.804 123.091 372.951 122.519 372.951ZM129.857 372.951C128.938 372.951 128.228 372.665 127.725 372.093C127.24 371.504 126.997 370.689 126.997 369.649V355.167C126.997 354.699 127.144 354.335 127.439 354.075C127.751 353.798 128.15 353.659 128.635 353.659C129.276 353.659 129.814 353.876 130.247 354.309C130.074 354.933 129.961 355.609 129.909 356.337C129.857 357.048 129.831 358.062 129.831 359.379V369.415C129.831 370.334 130.143 370.793 130.767 370.793C130.94 370.793 131.105 370.759 131.261 370.689C131.434 370.62 131.556 370.516 131.625 370.377C131.85 370.655 131.963 370.975 131.963 371.339C131.963 371.807 131.755 372.197 131.339 372.509C130.923 372.804 130.429 372.951 129.857 372.951ZM144.397 369.103C144.674 369.225 144.813 369.441 144.813 369.753C144.813 369.961 144.752 370.213 144.631 370.507C144.302 371.322 143.712 371.946 142.863 372.379C142.031 372.813 141.026 373.029 139.847 373.029C137.871 373.029 136.311 372.423 135.167 371.209C134.04 369.996 133.477 368.271 133.477 366.035C133.477 363.834 134.032 362.118 135.141 360.887C136.25 359.639 137.836 359.015 139.899 359.015C141.407 359.015 142.629 359.353 143.565 360.029C144.501 360.688 144.969 361.633 144.969 362.863C144.969 364.146 144.449 365.134 143.409 365.827C142.386 366.503 140.991 366.841 139.223 366.841C138.218 366.841 137.325 366.798 136.545 366.711C136.666 368.323 137.074 369.476 137.767 370.169C138.46 370.863 139.405 371.209 140.601 371.209C141.537 371.209 142.334 371.019 142.993 370.637C143.669 370.256 144.137 369.745 144.397 369.103ZM139.795 360.081C138.772 360.081 137.966 360.567 137.377 361.537C136.805 362.491 136.519 363.851 136.519 365.619C136.97 365.671 137.429 365.697 137.897 365.697C139.076 365.697 140.038 365.463 140.783 364.995C141.528 364.527 141.901 363.669 141.901 362.421C141.901 361.572 141.702 360.974 141.303 360.627C140.904 360.263 140.402 360.081 139.795 360.081ZM151.769 378.619C150.4 378.619 149.273 378.368 148.389 377.865C147.505 377.363 147.063 376.6 147.063 375.577C147.063 374.953 147.254 374.451 147.635 374.069C148.017 373.705 148.511 373.523 149.117 373.523C149.741 373.523 150.183 373.688 150.443 374.017C149.941 374.416 149.689 374.979 149.689 375.707C149.689 376.314 149.88 376.791 150.261 377.137C150.643 377.484 151.171 377.657 151.847 377.657C153.113 377.657 154.057 377.146 154.681 376.123C155.323 375.101 155.643 373.653 155.643 371.781V369.909C155.349 370.811 154.846 371.504 154.135 371.989C153.442 372.475 152.584 372.717 151.561 372.717C150.105 372.717 148.97 372.197 148.155 371.157C147.358 370.117 146.959 368.479 146.959 366.243C146.959 364.111 147.436 362.378 148.389 361.043C149.343 359.691 150.92 359.015 153.121 359.015C154.179 359.015 155.175 359.163 156.111 359.457C157.065 359.752 157.845 360.177 158.451 360.731V371.521C158.451 376.253 156.224 378.619 151.769 378.619ZM152.393 371.313C153.468 371.313 154.265 370.845 154.785 369.909C155.323 368.956 155.6 367.734 155.617 366.243L155.643 360.835C155.383 360.593 155.037 360.411 154.603 360.289C154.17 360.151 153.711 360.081 153.225 360.081C151.977 360.081 151.119 360.645 150.651 361.771C150.201 362.881 149.975 364.458 149.975 366.503C149.975 368.254 150.157 369.493 150.521 370.221C150.903 370.949 151.527 371.313 152.393 371.313ZM171.971 369.103C172.248 369.225 172.387 369.441 172.387 369.753C172.387 369.961 172.326 370.213 172.205 370.507C171.876 371.322 171.286 371.946 170.437 372.379C169.605 372.813 168.6 373.029 167.421 373.029C165.445 373.029 163.885 372.423 162.741 371.209C161.614 369.996 161.051 368.271 161.051 366.035C161.051 363.834 161.606 362.118 162.715 360.887C163.824 359.639 165.41 359.015 167.473 359.015C168.981 359.015 170.203 359.353 171.139 360.029C172.075 360.688 172.543 361.633 172.543 362.863C172.543 364.146 172.023 365.134 170.983 365.827C169.96 366.503 168.565 366.841 166.797 366.841C165.792 366.841 164.899 366.798 164.119 366.711C164.24 368.323 164.648 369.476 165.341 370.169C166.034 370.863 166.979 371.209 168.175 371.209C169.111 371.209 169.908 371.019 170.567 370.637C171.243 370.256 171.711 369.745 171.971 369.103ZM167.369 360.081C166.346 360.081 165.54 360.567 164.951 361.537C164.379 362.491 164.093 363.851 164.093 365.619C164.544 365.671 165.003 365.697 165.471 365.697C166.65 365.697 167.612 365.463 168.357 364.995C169.102 364.527 169.475 363.669 169.475 362.421C169.475 361.572 169.276 360.974 168.877 360.627C168.478 360.263 167.976 360.081 167.369 360.081ZM179.318 373.029C177.688 373.029 176.458 372.752 175.626 372.197C174.794 371.643 174.378 370.897 174.378 369.961C174.378 369.493 174.508 369.095 174.768 368.765C175.045 368.436 175.47 368.271 176.042 368.271C176.146 368.271 176.319 368.289 176.562 368.323C176.51 368.531 176.484 368.722 176.484 368.895C176.484 369.103 176.51 369.329 176.562 369.571C176.648 370.265 176.952 370.828 177.472 371.261C178.009 371.695 178.737 371.911 179.656 371.911C180.47 371.911 181.129 371.764 181.632 371.469C182.134 371.157 182.386 370.707 182.386 370.117C182.386 369.719 182.264 369.372 182.022 369.077C181.796 368.765 181.51 368.505 181.164 368.297C180.817 368.089 180.323 367.829 179.682 367.517C179.543 367.465 179.335 367.37 179.058 367.231C178.122 366.798 177.376 366.417 176.822 366.087C176.284 365.741 175.816 365.281 175.418 364.709C175.036 364.137 174.846 363.435 174.846 362.603C174.846 361.39 175.314 360.489 176.25 359.899C177.186 359.293 178.373 358.989 179.812 358.989C181.25 358.989 182.386 359.215 183.218 359.665C184.05 360.099 184.466 360.731 184.466 361.563C184.466 361.945 184.353 362.274 184.128 362.551C183.92 362.811 183.582 362.95 183.114 362.967C183.027 362.985 182.914 362.993 182.776 362.993C182.689 362.993 182.524 362.976 182.282 362.941C182.299 362.837 182.308 362.681 182.308 362.473C182.308 362.092 182.256 361.806 182.152 361.615C182.048 361.13 181.779 360.757 181.346 360.497C180.93 360.22 180.384 360.081 179.708 360.081C179.066 360.081 178.52 360.211 178.07 360.471C177.636 360.731 177.42 361.13 177.42 361.667C177.42 362.153 177.558 362.569 177.836 362.915C178.13 363.262 178.486 363.557 178.902 363.799C179.318 364.042 179.907 364.345 180.67 364.709C181.727 365.212 182.516 365.619 183.036 365.931C183.556 366.226 184.024 366.633 184.44 367.153C184.856 367.673 185.064 368.306 185.064 369.051C185.064 370.161 184.596 371.105 183.66 371.885C182.741 372.648 181.294 373.029 179.318 373.029Z" fill="#06122E"/>
<path d="M7.63919 305.336C14.8821 305.336 22.158 305.336 30.0215 305.336C29.8696 276.73 29.4074 248.698 29.8564 220.603C21.9929 221.511 14.6708 222.309 7.59296 221.594C5.18307 249.472 8.26642 277.592 7.63919 305.336ZM8.46449 245.721C11.6139 245.338 14.783 245.363 18.1041 245.568C18.1041 249.235 18.1041 252.558 18.1041 256.2C14.7434 255.989 11.6073 256.155 8.46449 254.999C8.46449 252.059 8.46449 249.216 8.46449 245.721ZM8.94647 278.666C8.94647 275.688 8.94647 272.87 8.94647 269.778C12.0496 269.925 15.0669 270.059 18.3021 270.212C18.1635 273.343 18.5992 276.27 17.9456 279.26C14.9679 279.816 12.1817 279.266 8.94647 278.666ZM28.0936 281.222C28.0936 284.621 28.0936 287.752 28.0936 290.947C25.2545 291.905 22.5871 291.592 19.5698 291.387C19.7943 287.899 20.0122 284.589 20.2367 281.113C22.9172 281.164 25.3668 280.557 28.0936 281.222ZM17.5231 293.266C18.2691 297.004 17.7409 300.295 17.4042 303.668C14.4529 303.77 11.878 304.128 9.23038 303.425C9.75857 299.956 9.05211 296.557 9.93683 293.272C12.4986 293.266 14.8755 293.266 17.5231 293.266ZM27.9021 257.868C27.9021 261.318 27.9021 264.538 27.9021 267.81C25.3007 268.283 22.9635 268.5 20.5404 268.315C20.5404 264.615 20.5404 261.197 20.5404 257.74C23.0757 257.433 25.3469 257.248 27.9021 257.868ZM27.5324 243.497C25.0432 243.599 22.7324 244.245 20.547 243.561C20.547 239.81 20.547 236.264 20.547 232.718C23.0031 232.718 25.1489 232.718 27.5323 232.718C27.5323 236.398 27.5324 239.83 27.5324 243.497ZM18.2295 230.724C15.1264 230.22 12.2741 230.558 9.39543 229.587C9.07851 227.657 9.07851 225.811 9.35581 223.888C12.0694 223.082 14.7236 222.891 17.49 223.383C18.1899 225.709 18.4342 227.964 18.2295 230.724Z" fill="#06122E"/>
<path d="M2.10809 220.89C0.979072 224.04 1.6195 226.826 1.44124 229.471C0.516896 243.382 -0.295196 257.33 1.21016 271.234C2.29957 281.31 2.78815 291.374 2.45803 301.489C2.41841 302.786 2.29297 304.076 2.16092 306.121C4.15486 304.345 3.85775 302.722 3.89076 301.259C4.12845 290.824 3.54083 280.422 2.80795 270.013C1.72515 254.704 2.22693 239.401 3.60684 224.123C3.70588 222.973 3.72569 222.973 2.10809 220.89Z" fill="#06122E"/>
<path d="M33.7346 303.715C35.3588 275.505 35.6295 247.557 34.2759 219.372C32.3084 220.043 32.7442 221.525 32.7838 222.797C33.1073 232.151 33.6091 241.499 33.7544 250.854C33.9524 263.716 33.3318 276.572 32.8894 289.428C32.7574 293.255 32.7904 297.082 32.8168 300.91C32.83 301.772 32.4537 302.788 33.7346 303.715Z" fill="#06122E"/>
<path d="M7.63919 421.117C14.8821 421.117 22.158 421.117 30.0215 421.117C29.8696 392.511 29.4074 364.48 29.8564 336.385C21.9929 337.292 14.6708 338.091 7.59296 337.375C5.18307 365.253 8.26642 393.374 7.63919 421.117ZM8.46449 361.502C11.6139 361.119 14.783 361.144 18.1041 361.349C18.1041 365.016 18.1041 368.339 18.1041 371.981C14.7434 371.77 11.6073 371.936 8.46449 370.78C8.46449 367.841 8.46449 364.997 8.46449 361.502ZM8.94647 394.447C8.94647 391.469 8.94647 388.652 8.94647 385.559C12.0496 385.706 15.0669 385.84 18.3021 385.993C18.1635 389.124 18.5992 392.051 17.9456 395.041C14.9679 395.597 12.1817 395.048 8.94647 394.447ZM28.0936 397.003C28.0936 400.402 28.0936 403.533 28.0936 406.728C25.2545 407.686 22.5871 407.373 19.5698 407.169C19.7943 403.68 20.0122 400.37 20.2367 396.894C22.9172 396.945 25.3668 396.338 28.0936 397.003ZM17.5231 409.047C18.2691 412.785 17.7409 416.076 17.4042 419.45C14.4529 419.552 11.878 419.91 9.23038 419.207C9.75857 415.737 9.05211 412.338 9.93683 409.054C12.4986 409.047 14.8755 409.047 17.5231 409.047ZM27.9021 373.649C27.9021 377.099 27.9021 380.32 27.9021 383.591C25.3007 384.064 22.9635 384.281 20.5404 384.096C20.5404 380.396 20.5404 376.978 20.5404 373.521C23.0757 373.214 25.3469 373.029 27.9021 373.649ZM27.5324 359.279C25.0432 359.381 22.7324 360.026 20.547 359.342C20.547 355.592 20.547 352.045 20.547 348.499C23.0031 348.499 25.1489 348.499 27.5323 348.499C27.5323 352.18 27.5324 355.611 27.5324 359.279ZM18.2295 346.506C15.1264 346.001 12.2741 346.34 9.39543 345.368C9.07851 343.439 9.07851 341.592 9.35581 339.669C12.0694 338.864 14.7236 338.672 17.49 339.164C18.1899 341.49 18.4342 343.745 18.2295 346.506Z" fill="#06122E"/>
<path d="M2.10809 336.671C0.979072 339.821 1.6195 342.607 1.44124 345.253C0.516896 359.163 -0.295196 373.111 1.21016 387.015C2.29957 397.091 2.78815 407.155 2.45803 417.27C2.41841 418.567 2.29297 419.858 2.16092 421.902C4.15486 420.126 3.85775 418.503 3.89076 417.04C4.12845 406.606 3.54083 396.203 2.80795 385.795C1.72515 370.485 2.22693 355.182 3.60684 339.904C3.70588 338.754 3.72569 338.754 2.10809 336.671Z" fill="#06122E"/>
<path d="M33.7346 419.496C35.3588 391.286 35.6295 363.338 34.2759 335.153C32.3084 335.824 32.7442 337.307 32.7838 338.578C33.1073 347.932 33.6091 357.28 33.7544 366.635C33.9524 379.497 33.3318 392.353 32.8894 405.209C32.7574 409.036 32.7904 412.864 32.8168 416.691C32.83 417.554 32.4537 418.57 33.7346 419.496Z" fill="#06122E"/>
<path d="M7.64212 163.182C14.885 163.182 22.1609 163.182 30.0244 163.182C29.8726 134.575 29.4104 106.544 29.8593 78.449C21.9958 79.3563 14.6737 80.155 7.59589 79.4394C5.186 107.317 8.26935 135.438 7.64212 163.182ZM8.46742 103.567C11.6168 103.183 14.786 103.209 18.107 103.413C18.107 107.081 18.107 110.403 18.107 114.046C14.7463 113.835 11.6102 114.001 8.46742 112.844C8.46742 109.905 8.46742 107.062 8.46742 103.567ZM8.9494 136.511C8.9494 133.534 8.9494 130.716 8.9494 127.623C12.0525 127.77 15.0699 127.905 18.3051 128.058C18.1664 131.189 18.6022 134.115 17.9485 137.106C14.9708 137.662 12.1846 137.112 8.9494 136.511ZM28.0965 139.067C28.0965 142.467 28.0965 145.597 28.0965 148.792C25.2574 149.751 22.5901 149.438 19.5727 149.233C19.7972 145.744 20.0151 142.435 20.2396 138.959C22.9202 139.01 25.3697 138.403 28.0965 139.067ZM17.526 151.112C18.2721 154.85 17.7439 158.14 17.4071 161.514C14.4558 161.616 11.8809 161.974 9.2333 161.271C9.7615 157.802 9.05504 154.402 9.93976 151.118C12.5015 151.112 14.8784 151.112 17.526 151.112ZM27.905 115.713C27.905 119.164 27.905 122.384 27.905 125.655C25.3037 126.128 22.9664 126.346 20.5433 126.16C20.5433 122.461 20.5433 119.042 20.5433 115.585C23.0786 115.279 25.3499 115.093 27.905 115.713ZM27.5353 101.343C25.0462 101.445 22.7353 102.091 20.5499 101.407C20.5499 97.6562 20.5499 94.1099 20.5499 90.5637C23.006 90.5637 25.1518 90.5637 27.5353 90.5637C27.5353 94.2441 27.5353 97.6753 27.5353 101.343ZM18.2324 88.5701C15.1293 88.0654 12.277 88.404 9.39835 87.4328C9.08144 85.5032 9.08144 83.6565 9.35874 81.7333C12.0723 80.9282 14.7265 80.7365 17.493 81.2285C18.1928 83.5543 18.4371 85.8098 18.2324 88.5701Z" fill="#06122E"/>
<path d="M2.10809 78.7358C0.979071 81.8858 1.6195 84.6717 1.44124 87.317C0.516896 101.227 -0.295196 115.176 1.21016 129.08C2.29957 139.156 2.78815 149.22 2.45803 159.334C2.41841 160.631 2.29297 161.922 2.16092 163.967C4.15486 162.19 3.85775 160.568 3.89076 159.104C4.12845 148.67 3.54083 138.268 2.80795 127.859C1.72515 112.55 2.22693 97.2465 3.60684 81.9689C3.70588 80.8188 3.72569 80.8188 2.10809 78.7358Z" fill="#06122E"/>
<path d="M33.7346 161.561C35.3588 133.35 35.6295 105.402 34.2759 77.2177C32.3084 77.8886 32.7442 79.371 32.7838 80.6425C33.1073 89.9969 33.6091 99.3449 33.7544 108.699C33.9524 121.562 33.3318 134.417 32.8894 147.273C32.7574 151.101 32.7904 154.928 32.8168 158.755C32.83 159.618 32.4537 160.634 33.7346 161.561Z" fill="#06122E"/>
<path d="M7.63919 234.369C14.8821 234.369 22.158 234.369 30.0215 234.369C29.8696 205.763 29.4074 177.732 29.8564 149.637C21.9929 150.544 14.6708 151.343 7.59296 150.627C5.18307 178.505 8.26642 206.625 7.63919 234.369ZM8.46449 174.754C11.6139 174.371 14.783 174.396 18.1041 174.601C18.1041 178.268 18.1041 181.591 18.1041 185.233C14.7434 185.022 11.6073 185.188 8.46449 184.032C8.46449 181.093 8.46449 178.249 8.46449 174.754ZM8.94647 207.699C8.94647 204.721 8.94647 201.904 8.94647 198.811C12.0496 198.958 15.0669 199.092 18.3021 199.245C18.1635 202.376 18.5992 205.303 17.9456 208.293C14.9679 208.849 12.1817 208.3 8.94647 207.699ZM28.0936 210.255C28.0936 213.654 28.0936 216.785 28.0936 219.98C25.2545 220.938 22.5871 220.625 19.5698 220.421C19.7943 216.932 20.0122 213.622 20.2367 210.146C22.9172 210.197 25.3668 209.59 28.0936 210.255ZM17.5231 222.299C18.2691 226.037 17.7409 229.328 17.4042 232.701C14.4529 232.804 11.878 233.162 9.23038 232.459C9.75857 228.989 9.05211 225.59 9.93683 222.306C12.4986 222.299 14.8755 222.299 17.5231 222.299ZM27.9021 186.901C27.9021 190.351 27.9021 193.571 27.9021 196.843C25.3007 197.316 22.9635 197.533 20.5404 197.348C20.5404 193.648 20.5404 190.23 20.5404 186.773C23.0757 186.466 25.3469 186.281 27.9021 186.901ZM27.5324 172.53C25.0432 172.633 22.7324 173.278 20.547 172.594C20.547 168.844 20.547 165.297 20.547 161.751C23.0031 161.751 25.1489 161.751 27.5323 161.751C27.5323 165.432 27.5324 168.863 27.5324 172.53ZM18.2295 159.758C15.1264 159.253 12.2741 159.592 9.39543 158.62C9.07851 156.691 9.07851 154.844 9.35581 152.921C12.0694 152.116 14.7236 151.924 17.49 152.416C18.1899 154.742 18.4342 156.997 18.2295 159.758Z" fill="#06122E"/>
<path d="M2.10811 227.417C0.979093 224.267 1.61952 221.481 1.44126 218.835C0.516913 204.925 -0.295183 190.977 1.21017 177.073C2.29957 166.996 2.78815 156.933 2.45803 146.818C2.41842 145.521 2.29297 144.23 2.16092 142.186C4.15486 143.962 3.85775 145.585 3.89076 147.048C4.12845 157.482 3.54083 167.885 2.80796 178.293C1.72516 193.603 2.22695 208.906 3.60686 224.183C3.7059 225.334 3.72571 225.334 2.10811 227.417Z" fill="#06122E"/>
<path d="M33.7346 229.928C35.3588 201.718 35.6295 173.769 34.2759 145.585C32.3084 146.256 32.7442 147.738 32.7838 149.01C33.1073 158.364 33.6091 167.712 33.7544 177.066C33.9524 189.929 33.3318 202.785 32.8894 215.641C32.7574 219.468 32.7904 223.295 32.8168 227.123C32.83 227.985 32.4537 229.001 33.7346 229.928Z" fill="#06122E"/>
<path d="M7.64114 92.2227C14.884 92.2227 22.1599 92.2227 30.0234 92.2227C29.8716 63.6164 29.4094 35.5852 29.8584 7.49004C21.9949 8.39736 14.6727 9.19605 7.59491 8.48042C5.18502 36.3583 8.26837 64.479 7.64114 92.2227ZM8.46644 32.6076C11.6158 32.2242 14.785 32.2498 18.106 32.4543C18.106 36.1219 18.106 39.4445 18.106 43.0865C14.7454 42.8757 11.6092 43.0418 8.46644 41.8853C8.46644 38.9461 8.46644 36.1027 8.46644 32.6076ZM8.94842 65.5524C8.94842 62.5749 8.94842 59.757 8.94842 56.6645C12.0516 56.8114 15.0689 56.9456 18.3041 57.0989C18.1654 60.2299 18.6012 63.1563 17.9476 66.1467C14.9699 66.7026 12.1836 66.1531 8.94842 65.5524ZM28.0955 68.1083C28.0955 71.5075 28.0955 74.6384 28.0955 77.8332C25.2565 78.7917 22.5891 78.4786 19.5718 78.2741C19.7962 74.7854 20.0141 71.4756 20.2386 67.9996C22.9192 68.0507 25.3687 67.4438 28.0955 68.1083ZM17.525 80.1527C18.2711 83.8906 17.7429 87.1813 17.4062 90.555C14.4549 90.6572 11.8799 91.015 9.23233 90.3122C9.76052 86.8426 9.05406 83.4433 9.93879 80.1591C12.5005 80.1527 14.8774 80.1527 17.525 80.1527ZM27.904 44.7543C27.904 48.2046 27.904 51.425 27.904 54.6965C25.3027 55.1693 22.9654 55.3865 20.5423 55.2012C20.5423 51.5017 20.5423 48.0832 20.5423 44.6265C23.0777 44.3198 25.3489 44.1345 27.904 44.7543ZM27.5343 30.384C25.0452 30.4862 22.7343 31.1316 20.5489 30.4479C20.5489 26.6972 20.5489 23.1509 20.5489 19.6047C23.005 19.6047 25.1508 19.6047 27.5343 19.6047C27.5343 23.2851 27.5343 26.7163 27.5343 30.384ZM18.2315 17.6112C15.1283 17.1064 12.276 17.445 9.39738 16.4738C9.08046 14.5442 9.08046 12.6975 9.35777 10.7743C12.0714 9.96918 14.7256 9.77751 17.492 10.2695C18.1918 12.5953 18.4361 14.8508 18.2315 17.6112Z" fill="#06122E"/>
<path d="M2.10811 85.2701C0.979093 82.12 1.61952 79.3341 1.44126 76.6888C0.516913 62.7786 -0.295183 48.8301 1.21017 34.9263C2.29957 24.8499 2.78815 14.7863 2.45803 4.67153C2.41842 3.37444 2.29297 2.08374 2.16092 0.0390627C4.15486 1.81537 3.85775 3.43833 3.89076 4.90155C4.12845 15.3358 3.54083 25.7381 2.80796 36.1468C1.72516 51.4563 2.22695 66.7594 3.60686 82.0369C3.7059 83.187 3.72571 83.1871 2.10811 85.2701Z" fill="#06122E"/>
<path d="M33.7346 87.7813C35.3588 59.5711 35.6295 31.623 34.2759 3.43839C32.3084 4.10931 32.7442 5.59168 32.7838 6.86322C33.1073 16.2176 33.6091 25.5656 33.7544 34.92C33.9524 47.7823 33.3318 60.6382 32.8894 73.4941C32.7574 77.3214 32.7904 81.1488 32.8168 84.9762C32.83 85.8388 32.4537 86.8548 33.7346 87.7813Z" fill="#06122E"/>
<path d="M7.64114 373.48C14.884 373.48 22.1599 373.48 30.0234 373.48C29.8716 344.874 29.4094 316.843 29.8584 288.748C21.9949 289.655 14.6727 290.454 7.59491 289.738C5.18502 317.616 8.26837 345.737 7.64114 373.48ZM8.46644 313.865C11.6158 313.482 14.785 313.508 18.106 313.712C18.106 317.38 18.106 320.702 18.106 324.344C14.7454 324.133 11.6092 324.3 8.46644 323.143C8.46644 320.204 8.46644 317.361 8.46644 313.865ZM8.94842 346.81C8.94842 343.833 8.94842 341.015 8.94842 337.922C12.0516 338.069 15.0689 338.203 18.3041 338.357C18.1654 341.488 18.6012 344.414 17.9476 347.404C14.9699 347.96 12.1836 347.411 8.94842 346.81ZM28.0955 349.366C28.0955 352.765 28.0955 355.896 28.0955 359.091C25.2565 360.049 22.5891 359.736 19.5718 359.532C19.7962 356.043 20.0141 352.733 20.2386 349.257C22.9192 349.309 25.3687 348.702 28.0955 349.366ZM17.525 361.41C18.2711 365.148 17.7429 368.439 17.4062 371.813C14.4549 371.915 11.8799 372.273 9.23233 371.57C9.76052 368.1 9.05406 364.701 9.93879 361.417C12.5005 361.41 14.8774 361.41 17.525 361.41ZM27.904 326.012C27.904 329.462 27.904 332.683 27.904 335.954C25.3027 336.427 22.9654 336.644 20.5423 336.459C20.5423 332.759 20.5423 329.341 20.5423 325.884C23.0777 325.578 25.3489 325.392 27.904 326.012ZM27.5343 311.642C25.0452 311.744 22.7343 312.389 20.5489 311.706C20.5489 307.955 20.5489 304.409 20.5489 300.863C23.005 300.863 25.1508 300.863 27.5343 300.863C27.5343 304.543 27.5343 307.974 27.5343 311.642ZM18.2315 298.869C15.1283 298.364 12.276 298.703 9.39738 297.732C9.08046 295.802 9.08046 293.955 9.35777 292.032C12.0714 291.227 14.7256 291.035 17.492 291.527C18.1918 293.853 18.4361 296.109 18.2315 298.869Z" fill="#06122E"/>
<path d="M2.10811 366.528C0.979093 363.378 1.61952 360.592 1.44126 357.947C0.516913 344.036 -0.295183 330.088 1.21017 316.184C2.29957 306.108 2.78815 296.044 2.45803 285.929C2.41842 284.632 2.29297 283.342 2.16092 281.297C4.15486 283.073 3.85775 284.696 3.89076 286.159C4.12845 296.594 3.54083 306.996 2.80796 317.405C1.72516 332.714 2.22695 348.017 3.60686 363.295C3.7059 364.445 3.72571 364.445 2.10811 366.528Z" fill="#06122E"/>
<path d="M33.7346 369.041C35.3588 340.831 35.6295 312.883 34.2759 284.698C32.3084 285.369 32.7442 286.851 32.7838 288.123C33.1073 297.477 33.6091 306.825 33.7544 316.18C33.9524 329.042 33.3318 341.898 32.8894 354.754C32.7574 358.581 32.7904 362.409 32.8168 366.236C32.83 367.099 32.4537 368.115 33.7346 369.041Z" fill="#06122E"/>
<path d="M88.6582 396.51C88.6582 403.753 88.6582 411.029 88.6582 418.893C117.903 418.741 146.559 418.279 175.281 418.728C174.354 410.864 173.537 403.542 174.269 396.464C145.769 394.054 117.021 397.138 88.6582 396.51ZM149.603 397.336C149.995 400.485 149.969 403.654 149.76 406.975C146.011 406.975 142.614 406.975 138.89 406.975C139.106 403.615 138.936 400.478 140.119 397.336C143.123 397.336 146.03 397.336 149.603 397.336ZM115.923 397.818C118.967 397.818 121.848 397.818 125.01 397.818C124.859 400.921 124.722 403.938 124.565 407.173C121.365 407.035 118.373 407.47 115.316 406.817C114.748 403.839 115.309 401.053 115.923 397.818ZM113.311 416.965C109.835 416.965 106.635 416.965 103.369 416.965C102.389 414.126 102.709 411.458 102.918 408.441C106.484 408.665 109.868 408.883 113.422 409.108C113.369 411.788 113.99 414.238 113.311 416.965ZM100.997 406.394C97.1761 407.14 93.8121 406.612 90.3631 406.275C90.2586 403.324 89.8928 400.749 90.6113 398.101C94.1583 398.63 97.6334 397.923 100.991 398.808C100.997 401.37 100.997 403.747 100.997 406.394ZM137.186 416.773C133.658 416.773 130.366 416.773 127.022 416.773C126.538 414.172 126.316 411.835 126.506 409.411C130.288 409.411 133.782 409.411 137.316 409.411C137.63 411.947 137.819 414.218 137.186 416.773ZM151.876 416.403C151.772 413.914 151.112 411.603 151.811 409.418C155.645 409.418 159.271 409.418 162.896 409.418C162.896 411.874 162.896 414.02 162.896 416.403C159.134 416.403 155.626 416.403 151.876 416.403ZM164.934 407.101C165.45 403.997 165.104 401.145 166.097 398.267C168.07 397.95 169.957 397.95 171.924 398.227C172.747 400.941 172.943 403.595 172.44 406.361C170.062 407.061 167.756 407.305 164.934 407.101Z" fill="#06122E"/>
<path d="M174.988 390.98C171.768 389.851 168.919 390.492 166.215 390.313C151.995 389.389 137.735 388.577 123.521 390.082C113.22 391.172 102.932 391.66 92.5913 391.33C91.2653 391.29 89.9458 391.165 87.8555 391.033C89.6714 393.027 91.3306 392.73 92.8264 392.763C103.493 393.001 114.128 392.413 124.769 391.68C140.42 390.597 156.064 391.099 171.683 392.479C172.858 392.578 172.858 392.598 174.988 390.98Z" fill="#06122E"/>
<path d="M90.3164 422.606C119.156 424.23 147.728 424.501 176.541 423.147C175.855 421.18 174.34 421.615 173.04 421.655C163.477 421.978 153.92 422.48 144.357 422.625C131.208 422.824 118.065 422.203 104.922 421.761C101.01 421.628 97.0968 421.662 93.184 421.688C92.3022 421.701 91.2636 421.325 90.3164 422.606Z" fill="#06122E"/>
<path d="M15.8828 396.508C15.8828 403.751 15.8828 411.027 15.8828 418.891C45.1273 418.739 73.7838 418.277 102.506 418.726C101.578 410.862 100.762 403.54 101.493 396.462C72.9934 394.052 44.2454 397.136 15.8828 396.508ZM76.8278 397.334C77.2197 400.483 77.1936 403.652 76.9846 406.973C73.2351 406.973 69.8384 406.973 66.1151 406.973C66.3307 403.613 66.1608 400.476 67.3431 397.334C70.3479 397.334 73.2547 397.334 76.8278 397.334ZM43.148 397.816C46.192 397.816 49.0727 397.816 52.2343 397.816C52.084 400.919 51.9469 403.936 51.7901 407.171C48.5893 407.033 45.5976 407.468 42.5405 406.815C41.9722 403.837 42.534 401.051 43.148 397.816ZM40.5352 416.963C37.0601 416.963 33.8593 416.963 30.5932 416.963C29.6134 414.124 29.9335 411.456 30.1425 408.439C33.7091 408.663 37.0927 408.881 40.6462 409.106C40.594 411.786 41.2145 414.236 40.5352 416.963ZM28.2221 406.392C24.4008 407.138 21.0367 406.61 17.5877 406.273C17.4832 403.322 17.1174 400.747 17.8359 398.1C21.3829 398.628 24.858 397.921 28.2155 398.806C28.2221 401.368 28.2221 403.745 28.2221 406.392ZM64.4102 416.771C60.8828 416.771 57.5906 416.771 54.2461 416.771C53.7628 414.17 53.5407 411.833 53.7301 409.41C57.5122 409.41 61.0069 409.41 64.5408 409.41C64.8544 411.945 65.0438 414.216 64.4102 416.771ZM79.101 416.401C78.9965 413.912 78.3367 411.602 79.0357 409.416C82.8701 409.416 86.4954 409.416 90.1208 409.416C90.1208 411.872 90.1208 414.018 90.1208 416.401C86.3582 416.401 82.8505 416.401 79.101 416.401ZM92.1588 407.099C92.6748 403.995 92.3286 401.143 93.3215 398.265C95.2942 397.948 97.182 397.948 99.1482 398.225C99.9713 400.939 100.167 403.593 99.6642 406.359C97.2865 407.059 94.9807 407.303 92.1588 407.099Z" fill="#06122E"/>
<path d="M22.9887 390.976C26.209 389.847 29.0571 390.488 31.7614 390.309C45.9819 389.385 60.2416 388.573 74.4555 390.078C84.7568 391.168 95.0449 391.656 105.385 391.326C106.711 391.287 108.031 391.161 110.121 391.029C108.305 393.023 106.646 392.726 105.15 392.759C94.4831 392.997 83.8488 392.409 73.2079 391.676C57.5568 390.593 41.9124 391.095 26.294 392.475C25.1182 392.574 25.1182 392.594 22.9887 390.976Z" fill="#06122E"/>
<path d="M20.4238 422.606C49.2633 424.23 77.8349 424.501 106.648 423.147C105.962 421.18 104.447 421.615 103.147 421.655C93.584 421.978 84.0274 422.48 74.4644 422.625C61.3151 422.824 48.1724 422.203 35.0298 421.761C31.117 421.628 27.2042 421.662 23.2915 421.688C22.4096 421.701 21.371 421.325 20.4238 422.606Z" fill="#06122E"/>
<path d="M161.201 396.51C161.201 403.753 161.201 411.029 161.201 418.893C190.446 418.741 219.102 418.279 247.824 418.728C246.896 410.864 246.08 403.542 246.812 396.464C218.312 394.054 189.564 397.138 161.201 396.51ZM222.146 397.336C222.538 400.485 222.512 403.654 222.303 406.975C218.553 406.975 215.157 406.975 211.433 406.975C211.649 403.615 211.479 400.478 212.662 397.336C215.666 397.336 218.573 397.336 222.146 397.336ZM188.466 397.818C191.51 397.818 194.391 397.818 197.553 397.818C197.402 400.921 197.265 403.938 197.108 407.173C193.908 407.035 190.916 407.47 187.859 406.817C187.291 403.839 187.852 401.053 188.466 397.818ZM185.854 416.965C182.378 416.965 179.178 416.965 175.912 416.965C174.932 414.126 175.252 411.458 175.461 408.441C179.027 408.665 182.411 408.883 185.965 409.108C185.912 411.788 186.533 414.238 185.854 416.965ZM173.54 406.394C169.719 407.14 166.355 406.612 162.906 406.275C162.802 403.324 162.436 400.749 163.154 398.101C166.701 398.63 170.176 397.923 173.534 398.808C173.54 401.37 173.54 403.747 173.54 406.394ZM209.729 416.773C206.201 416.773 202.909 416.773 199.565 416.773C199.081 414.172 198.859 411.835 199.048 409.411C202.831 409.411 206.325 409.411 209.859 409.411C210.173 411.947 210.362 414.218 209.729 416.773ZM224.419 416.403C224.315 413.914 223.655 411.603 224.354 409.418C228.188 409.418 231.814 409.418 235.439 409.418C235.439 411.874 235.439 414.02 235.439 416.403C231.677 416.403 228.169 416.403 224.419 416.403ZM237.477 407.101C237.993 403.997 237.647 401.145 238.64 398.267C240.613 397.95 242.5 397.95 244.467 398.227C245.29 400.941 245.486 403.595 244.983 406.361C242.605 407.061 240.299 407.305 237.477 407.101Z" fill="#06122E"/>
<path d="M168.307 390.976C171.527 389.847 174.375 390.488 177.08 390.309C191.3 389.385 205.56 388.573 219.774 390.078C230.075 391.168 240.363 391.656 250.704 391.326C252.03 391.287 253.349 391.161 255.439 391.029C253.624 393.023 251.964 392.726 250.468 392.759C239.801 392.997 229.167 392.409 218.526 391.676C202.875 390.593 187.231 391.095 171.612 392.475C170.437 392.574 170.437 392.594 168.307 390.976Z" fill="#06122E"/>
<path d="M165.742 422.606C194.582 424.23 223.153 424.501 251.967 423.147C251.281 421.18 249.765 421.615 248.465 421.655C238.902 421.978 229.346 422.48 219.783 422.625C206.633 422.824 193.491 422.203 180.348 421.761C176.435 421.628 172.523 421.662 168.61 421.688C167.728 421.701 166.689 421.325 165.742 422.606Z" fill="#06122E"/>
<path d="M98.9883 9.51224C98.9883 16.7551 98.9883 24.031 98.9883 31.8945C128.233 31.7427 156.889 31.2805 185.611 31.7295C184.684 23.8659 183.867 16.5438 184.599 9.46601C156.099 7.05612 127.351 10.1395 98.9883 9.51224ZM159.933 10.3375C160.325 13.4869 160.299 16.6561 160.09 19.9771C156.341 19.9771 152.944 19.9771 149.221 19.9771C149.436 16.6165 149.266 13.4803 150.449 10.3375C153.453 10.3375 156.36 10.3375 159.933 10.3375ZM126.253 10.8195C129.297 10.8195 132.178 10.8195 135.34 10.8195C135.189 13.9227 135.052 16.94 134.896 20.1752C131.695 20.0365 128.703 20.4723 125.646 19.8187C125.078 16.8409 125.639 14.0547 126.253 10.8195ZM123.641 29.9666C120.166 29.9666 116.965 29.9666 113.699 29.9666C112.719 27.1276 113.039 24.4602 113.248 21.4429C116.815 21.6673 120.198 21.8852 123.752 22.1097C123.699 24.7903 124.32 27.2398 123.641 29.9666ZM111.328 19.3961C107.506 20.1422 104.142 19.614 100.693 19.2773C100.589 16.326 100.223 13.751 100.941 11.1034C104.488 11.6316 107.963 10.9252 111.321 11.8099C111.328 14.3716 111.328 16.7485 111.328 19.3961ZM147.516 29.7751C143.988 29.7751 140.696 29.7751 137.352 29.7751C136.868 27.1738 136.646 24.8365 136.836 22.4134C140.618 22.4134 144.112 22.4134 147.646 22.4134C147.96 24.9488 148.149 27.22 147.516 29.7751ZM162.206 29.4054C162.102 26.9163 161.442 24.6054 162.141 22.42C165.976 22.42 169.601 22.42 173.226 22.42C173.226 24.8761 173.226 27.0219 173.226 29.4054C169.464 29.4054 165.956 29.4054 162.206 29.4054ZM175.264 20.1026C175.78 16.9994 175.434 14.1471 176.427 11.2685C178.4 10.9516 180.287 10.9516 182.254 11.2289C183.077 13.9425 183.273 16.5967 182.77 19.3631C180.392 20.0629 178.086 20.3072 175.264 20.1026Z" fill="#06122E"/>
<path d="M185.318 3.98212C182.098 2.8531 179.25 3.49353 176.545 3.31526C162.325 2.39092 148.065 1.57883 133.851 3.08419C123.55 4.17359 113.262 4.66217 102.921 4.33205C101.595 4.29244 100.276 4.16699 98.1855 4.03494C100.001 6.02888 101.661 5.73177 103.157 5.76478C113.824 6.00247 124.458 5.41485 135.099 4.68198C150.75 3.59918 166.394 4.10096 182.013 5.48087C183.188 5.57991 183.188 5.59972 185.318 3.98212Z" fill="#06122E"/>
<path d="M100.646 35.6076C129.486 37.2318 158.058 37.5025 186.871 36.149C186.185 34.1815 184.67 34.6172 183.37 34.6569C173.807 34.9804 164.25 35.4822 154.687 35.6274C141.538 35.8255 128.395 35.2049 115.252 34.7625C111.34 34.6304 107.427 34.6635 103.514 34.6899C102.632 34.7031 101.594 34.3267 100.646 35.6076Z" fill="#06122E"/>
<path d="M26.2129 9.51028C26.2129 16.7532 26.2129 24.0291 26.2129 31.8926C55.4573 31.7407 84.1139 31.2785 112.836 31.7275C111.908 23.864 111.092 16.5419 111.823 9.46406C83.3235 7.05417 54.5755 10.1375 26.2129 9.51028ZM87.1579 10.3356C87.5498 13.4849 87.5237 16.6541 87.3147 19.9752C83.5652 19.9752 80.1685 19.9752 76.4452 19.9752C76.6607 16.6145 76.4909 13.4783 77.6732 10.3356C80.678 10.3356 83.5848 10.3356 87.1579 10.3356ZM53.4781 10.8176C56.5221 10.8176 59.4028 10.8176 62.5643 10.8176C62.4141 13.9207 62.2769 16.938 62.1202 20.1732C58.9194 20.0346 55.9277 20.4703 52.8706 19.8167C52.3023 16.839 52.8641 14.0528 53.4781 10.8176ZM50.8652 29.9647C47.3901 29.9647 44.1894 29.9647 40.9233 29.9647C39.9435 27.1256 40.2636 24.4582 40.4726 21.4409C44.0392 21.6654 47.4228 21.8833 50.9763 22.1077C50.9241 24.7883 51.5446 27.2378 50.8652 29.9647ZM38.5521 19.3941C34.7308 20.1402 31.3668 19.612 27.9178 19.2753C27.8133 16.324 27.4475 13.7491 28.166 11.1015C31.713 11.6297 35.1881 10.9232 38.5456 11.8079C38.5521 14.3697 38.5521 16.7466 38.5521 19.3941ZM74.7403 29.7732C71.2129 29.7732 67.9207 29.7732 64.5762 29.7732C64.0928 27.1718 63.8708 24.8346 64.0602 22.4115C67.8423 22.4115 71.337 22.4115 74.8709 22.4115C75.1844 24.9468 75.3739 27.218 74.7403 29.7732ZM89.4311 29.4034C89.3266 26.9143 88.6668 24.6035 89.3658 22.4181C93.2001 22.4181 96.8255 22.4181 100.451 22.4181C100.451 24.8742 100.451 27.02 100.451 29.4034C96.6883 29.4034 93.1806 29.4034 89.4311 29.4034ZM102.489 20.1006C103.005 16.9975 102.659 14.1452 103.652 11.2665C105.624 10.9496 107.512 10.9496 109.478 11.2269C110.301 13.9405 110.497 16.5947 109.994 19.3611C107.617 20.061 105.311 20.3053 102.489 20.1006Z" fill="#06122E"/>
<path d="M33.3187 3.97823C36.5391 2.84921 39.3872 3.48964 42.0915 3.31137C56.312 2.38703 70.5717 1.57493 84.7856 3.08029C95.0868 4.16969 105.375 4.65827 115.715 4.32815C117.041 4.28853 118.361 4.16309 120.451 4.03104C118.635 6.02498 116.976 5.72786 115.48 5.76088C104.813 5.99857 94.1788 5.41095 83.538 4.67808C67.8869 3.59528 52.2424 4.09707 36.6241 5.47698C35.4483 5.57601 35.4482 5.59582 33.3187 3.97823Z" fill="#06122E"/>
<path d="M30.7539 35.6076C59.5934 37.2318 88.165 37.5025 116.978 36.149C116.292 34.1815 114.777 34.6172 113.477 34.6569C103.914 34.9804 94.3575 35.4822 84.7944 35.6274C71.6452 35.8255 58.5025 35.2049 45.3598 34.7625C41.4471 34.6304 37.5343 34.6635 33.6215 34.6899C32.7397 34.7031 31.7011 34.3267 30.7539 35.6076Z" fill="#06122E"/>
<path d="M171.53 9.51224C171.53 16.7551 171.53 24.031 171.53 31.8945C200.775 31.7427 229.431 31.2805 258.153 31.7295C257.226 23.8659 256.409 16.5438 257.141 9.46601C228.641 7.05612 199.893 10.1395 171.53 9.51224ZM232.475 10.3375C232.867 13.4869 232.841 16.6561 232.632 19.9771C228.883 19.9771 225.486 19.9771 221.763 19.9771C221.978 16.6165 221.808 13.4803 222.991 10.3375C225.995 10.3375 228.902 10.3375 232.475 10.3375ZM198.795 10.8195C201.839 10.8195 204.72 10.8195 207.882 10.8195C207.731 13.9227 207.594 16.94 207.438 20.1752C204.237 20.0365 201.245 20.4723 198.188 19.8187C197.62 16.8409 198.181 14.0547 198.795 10.8195ZM196.183 29.9666C192.708 29.9666 189.507 29.9666 186.241 29.9666C185.261 27.1276 185.581 24.4602 185.79 21.4429C189.357 21.6673 192.74 21.8852 196.294 22.1097C196.241 24.7903 196.862 27.2398 196.183 29.9666ZM183.87 19.3961C180.048 20.1422 176.684 19.614 173.235 19.2773C173.131 16.326 172.765 13.751 173.483 11.1034C177.03 11.6316 180.505 10.9252 183.863 11.8099C183.87 14.3716 183.87 16.7485 183.87 19.3961ZM220.058 29.7751C216.53 29.7751 213.238 29.7751 209.894 29.7751C209.41 27.1738 209.188 24.8365 209.378 22.4134C213.16 22.4134 216.654 22.4134 220.188 22.4134C220.502 24.9488 220.691 27.22 220.058 29.7751ZM234.748 29.4054C234.644 26.9163 233.984 24.6054 234.683 22.42C238.518 22.42 242.143 22.42 245.768 22.42C245.768 24.8761 245.768 27.0219 245.768 29.4054C242.006 29.4054 238.498 29.4054 234.748 29.4054ZM247.806 20.1026C248.322 16.9994 247.976 14.1471 248.969 11.2685C250.942 10.9516 252.829 10.9516 254.796 11.2289C255.619 13.9425 255.815 16.5967 255.312 19.3631C252.934 20.0629 250.628 20.3072 247.806 20.1026Z" fill="#06122E"/>
<path d="M178.636 3.97823C181.856 2.84921 184.705 3.48964 187.409 3.31137C201.629 2.38703 215.889 1.57493 230.103 3.08029C240.404 4.16969 250.692 4.65827 261.033 4.32815C262.359 4.28853 263.678 4.16309 265.769 4.03104C263.953 6.02498 262.293 5.72786 260.798 5.76088C250.131 5.99857 239.496 5.41095 228.855 4.67808C213.204 3.59528 197.56 4.09707 181.941 5.47698C180.766 5.57601 180.766 5.59582 178.636 3.97823Z" fill="#06122E"/>
<path d="M176.071 35.6076C204.911 37.2318 233.482 37.5025 262.296 36.149C261.61 34.1815 260.094 34.6172 258.794 34.6569C249.231 34.9804 239.675 35.4822 230.112 35.6274C216.963 35.8255 203.82 35.2049 190.677 34.7625C186.764 34.6304 182.852 34.6635 178.939 34.6899C178.057 34.7031 177.018 34.3267 176.071 35.6076Z" fill="#06122E"/>
<path d="M245.314 327.078C252.557 327.078 259.833 327.078 267.696 327.078C267.544 298.472 267.082 270.441 267.531 242.346C259.668 243.253 252.346 244.052 245.268 243.336C242.858 271.214 245.941 299.334 245.314 327.078ZM246.139 267.463C249.289 267.08 252.458 267.105 255.779 267.31C255.779 270.977 255.779 274.3 255.779 277.942C252.418 277.731 249.282 277.897 246.139 276.741C246.139 273.802 246.139 270.958 246.139 267.463ZM246.621 300.408C246.621 297.43 246.621 294.612 246.621 291.52C249.724 291.667 252.742 291.801 255.977 291.954C255.838 295.085 256.274 298.012 255.62 301.002C252.643 301.558 249.856 301.009 246.621 300.408ZM265.768 302.964C265.768 306.363 265.768 309.494 265.768 312.689C262.929 313.647 260.262 313.334 257.245 313.13C257.469 309.641 257.687 306.331 257.911 302.855C260.592 302.906 263.042 302.299 265.768 302.964ZM255.198 315.008C255.944 318.746 255.416 322.037 255.079 325.41C252.128 325.513 249.553 325.87 246.905 325.168C247.433 321.698 246.727 318.299 247.612 315.015C250.173 315.008 252.55 315.008 255.198 315.008ZM265.577 279.61C265.577 283.06 265.577 286.28 265.577 289.552C262.976 290.025 260.638 290.242 258.215 290.057C258.215 286.357 258.215 282.939 258.215 279.482C260.751 279.175 263.022 278.99 265.577 279.61ZM265.207 265.239C262.718 265.342 260.407 265.987 258.222 265.303C258.222 261.553 258.222 258.006 258.222 254.46C260.678 254.46 262.824 254.46 265.207 254.46C265.207 258.141 265.207 261.572 265.207 265.239ZM255.904 252.467C252.801 251.962 249.949 252.301 247.07 251.329C246.753 249.4 246.753 247.553 247.031 245.63C249.744 244.825 252.398 244.633 255.165 245.125C255.865 247.451 256.109 249.706 255.904 252.467Z" fill="#06122E"/>
<path d="M239.781 242.632C238.652 245.782 239.292 248.568 239.114 251.214C238.19 265.124 237.378 279.072 238.883 292.976C239.972 303.052 240.461 313.116 240.131 323.231C240.091 324.528 239.966 325.819 239.834 327.863C241.828 326.087 241.531 324.464 241.564 323.001C241.801 312.567 241.214 302.164 240.481 291.756C239.398 276.446 239.9 261.143 241.28 245.865C241.379 244.715 241.399 244.715 239.781 242.632Z" fill="#06122E"/>
<path d="M271.407 325.457C273.032 297.247 273.302 269.299 271.949 241.114C269.981 241.785 270.417 243.267 270.457 244.539C270.78 253.893 271.282 263.241 271.427 272.596C271.625 285.458 271.005 298.314 270.562 311.17C270.43 314.997 270.463 318.825 270.49 322.652C270.503 323.515 270.127 324.531 271.407 325.457Z" fill="#06122E"/>
<path d="M245.314 184.516C252.557 184.516 259.833 184.516 267.696 184.516C267.544 155.909 267.082 127.878 267.531 99.783C259.668 100.69 252.346 101.489 245.268 100.773C242.858 128.651 245.941 156.772 245.314 184.516ZM246.139 124.901C249.289 124.517 252.458 124.543 255.779 124.747C255.779 128.415 255.779 131.737 255.779 135.38C252.418 135.169 249.282 135.335 246.139 134.178C246.139 131.239 246.139 128.396 246.139 124.901ZM246.621 157.845C246.621 154.868 246.621 152.05 246.621 148.957C249.724 149.104 252.742 149.239 255.977 149.392C255.838 152.523 256.274 155.449 255.62 158.44C252.643 158.996 249.856 158.446 246.621 157.845ZM265.768 160.401C265.768 163.801 265.768 166.931 265.768 170.126C262.929 171.085 260.262 170.772 257.245 170.567C257.469 167.078 257.687 163.769 257.911 160.293C260.592 160.344 263.042 159.737 265.768 160.401ZM255.198 172.446C255.944 176.184 255.416 179.474 255.079 182.848C252.128 182.95 249.553 183.308 246.905 182.605C247.433 179.136 246.727 175.736 247.612 172.452C250.173 172.446 252.55 172.446 255.198 172.446ZM265.577 137.047C265.577 140.498 265.577 143.718 265.577 146.989C262.976 147.462 260.638 147.68 258.215 147.494C258.215 143.795 258.215 140.376 258.215 136.919C260.751 136.613 263.022 136.427 265.577 137.047ZM265.207 122.677C262.718 122.779 260.407 123.425 258.222 122.741C258.222 118.99 258.222 115.444 258.222 111.898C260.678 111.898 262.824 111.898 265.207 111.898C265.207 115.578 265.207 119.009 265.207 122.677ZM255.904 109.904C252.801 109.399 249.949 109.738 247.07 108.767C246.753 106.837 246.753 104.991 247.031 103.067C249.744 102.262 252.398 102.07 255.165 102.562C255.865 104.888 256.109 107.144 255.904 109.904Z" fill="#06122E"/>
<path d="M239.781 100.07C238.652 103.22 239.292 106.006 239.114 108.651C238.19 122.561 237.378 136.51 238.883 150.414C239.972 160.49 240.461 170.554 240.131 180.668C240.091 181.965 239.966 183.256 239.834 185.301C241.828 183.524 241.531 181.902 241.564 180.438C241.801 170.004 241.214 159.602 240.481 149.193C239.398 133.884 239.9 118.58 241.28 103.303C241.379 102.153 241.399 102.153 239.781 100.07Z" fill="#06122E"/>
<path d="M271.407 182.895C273.032 154.684 273.302 126.736 271.949 98.5517C269.981 99.2226 270.417 100.705 270.457 101.977C270.78 111.331 271.282 120.679 271.427 130.033C271.625 142.896 271.005 155.751 270.562 168.607C270.43 172.435 270.463 176.262 270.49 180.089C270.503 180.952 270.127 181.968 271.407 182.895Z" fill="#06122E"/>
<path d="M245.312 398.266C252.555 398.266 259.831 398.266 267.694 398.266C267.542 369.659 267.08 341.628 267.529 313.533C259.666 314.44 252.344 315.239 245.266 314.523C242.856 342.401 245.939 370.522 245.312 398.266ZM246.137 338.651C249.287 338.267 252.456 338.293 255.777 338.497C255.777 342.165 255.777 345.487 255.777 349.13C252.416 348.919 249.28 349.085 246.137 347.928C246.137 344.989 246.137 342.146 246.137 338.651ZM246.619 371.595C246.619 368.618 246.619 365.8 246.619 362.707C249.722 362.854 252.74 362.989 255.975 363.142C255.836 366.273 256.272 369.199 255.618 372.19C252.641 372.746 249.855 372.196 246.619 371.595ZM265.766 374.151C265.766 377.551 265.766 380.681 265.766 383.876C262.927 384.835 260.26 384.522 257.243 384.317C257.467 380.828 257.685 377.519 257.91 374.043C260.59 374.094 263.04 373.487 265.766 374.151ZM255.196 386.196C255.942 389.934 255.414 393.224 255.077 396.598C252.126 396.7 249.551 397.058 246.903 396.355C247.431 392.886 246.725 389.486 247.61 386.202C250.171 386.196 252.548 386.196 255.196 386.196ZM265.575 350.797C265.575 354.248 265.575 357.468 265.575 360.739C262.974 361.212 260.636 361.43 258.213 361.244C258.213 357.545 258.213 354.126 258.213 350.669C260.749 350.363 263.02 350.177 265.575 350.797ZM265.205 336.427C262.716 336.529 260.405 337.175 258.22 336.491C258.22 332.74 258.22 329.194 258.22 325.648C260.676 325.648 262.822 325.648 265.205 325.648C265.205 329.328 265.205 332.759 265.205 336.427ZM255.902 323.654C252.799 323.149 249.947 323.488 247.068 322.517C246.751 320.587 246.751 318.741 247.029 316.817C249.742 316.012 252.396 315.82 255.163 316.312C255.863 318.638 256.107 320.894 255.902 323.654Z" fill="#06122E"/>
<path d="M239.781 391.313C238.652 388.163 239.292 385.377 239.114 382.732C238.19 368.822 237.378 354.873 238.883 340.969C239.972 330.893 240.461 320.829 240.131 310.714C240.091 309.417 239.966 308.127 239.834 306.082C241.828 307.858 241.531 309.481 241.564 310.945C241.801 321.379 241.214 331.781 240.481 342.19C239.398 357.499 239.9 372.802 241.28 388.08C241.379 389.23 241.399 389.23 239.781 391.313Z" fill="#06122E"/>
<path d="M271.407 393.824C273.032 365.614 273.302 337.666 271.949 309.481C269.981 310.152 270.417 311.635 270.457 312.906C270.78 322.261 271.282 331.609 271.427 340.963C271.625 353.825 271.005 366.681 270.562 379.537C270.43 383.364 270.463 387.192 270.49 391.019C270.503 391.882 270.127 392.898 271.407 393.824Z" fill="#06122E"/>
<path d="M266.133 329.4C258.89 329.4 251.614 329.4 243.751 329.4C243.903 358.007 244.365 386.038 243.916 414.133C251.78 413.226 259.102 412.427 266.179 413.143C268.589 385.265 265.506 357.144 266.133 329.4ZM265.308 389.015C262.159 389.399 258.989 389.373 255.668 389.169C255.668 385.501 255.668 382.179 255.668 378.537C259.029 378.747 262.165 378.581 265.308 379.738C265.308 382.677 265.308 385.52 265.308 389.015ZM264.826 356.071C264.826 359.048 264.826 361.866 264.826 364.959C261.723 364.812 258.706 364.677 255.47 364.524C255.609 361.393 255.173 358.467 255.827 355.476C258.805 354.92 261.591 355.47 264.826 356.071ZM245.679 353.515C245.679 350.116 245.679 346.985 245.679 343.79C248.518 342.831 251.185 343.144 254.203 343.349C253.978 346.838 253.76 350.147 253.536 353.623C250.855 353.572 248.406 354.179 245.679 353.515ZM256.249 341.47C255.503 337.732 256.032 334.442 256.368 331.068C259.32 330.966 261.895 330.608 264.542 331.311C264.014 334.78 264.72 338.18 263.836 341.464C261.274 341.47 258.897 341.47 256.249 341.47ZM245.87 376.869C245.87 373.418 245.87 370.198 245.87 366.927C248.472 366.454 250.809 366.236 253.232 366.422C253.232 370.121 253.232 373.54 253.232 376.997C250.697 377.303 248.426 377.489 245.87 376.869ZM246.24 391.239C248.729 391.137 251.04 390.491 253.225 391.175C253.225 394.926 253.225 398.472 253.225 402.018C250.769 402.018 248.624 402.018 246.24 402.018C246.24 398.338 246.24 394.907 246.24 391.239ZM255.543 404.012C258.646 404.517 261.498 404.178 264.377 405.149C264.694 407.079 264.694 408.926 264.417 410.849C261.703 411.654 259.049 411.846 256.282 411.354C255.583 409.028 255.338 406.772 255.543 404.012Z" fill="#06122E"/>
<path d="M271.664 336.353C272.793 339.503 272.153 342.289 272.331 344.934C273.256 358.844 274.068 372.793 272.562 386.697C271.473 396.773 270.984 406.837 271.314 416.952C271.354 418.249 271.479 419.539 271.612 421.584C269.618 419.808 269.915 418.185 269.882 416.721C269.644 406.287 270.232 395.885 270.965 385.476C272.047 370.167 271.546 354.864 270.166 339.586C270.067 338.436 270.047 338.436 271.664 336.353Z" fill="#06122E"/>
<path d="M240.038 333.842C238.414 362.052 238.143 390 239.497 418.185C241.464 417.514 241.028 416.031 240.989 414.76C240.665 405.405 240.163 396.057 240.018 386.703C239.82 373.841 240.441 360.985 240.883 348.129C241.015 344.302 240.982 340.474 240.956 336.647C240.942 335.784 241.319 334.768 240.038 333.842Z" fill="#06122E"/>
<path d="M245.314 256.119C252.557 256.119 259.833 256.119 267.696 256.119C267.544 227.513 267.082 199.482 267.531 171.387C259.668 172.294 252.346 173.093 245.268 172.377C242.858 200.255 245.941 228.375 245.314 256.119ZM246.139 196.504C249.289 196.121 252.458 196.146 255.779 196.351C255.779 200.018 255.779 203.341 255.779 206.983C252.418 206.772 249.282 206.938 246.139 205.782C246.139 202.843 246.139 199.999 246.139 196.504ZM246.621 229.449C246.621 226.471 246.621 223.654 246.621 220.561C249.724 220.708 252.742 220.842 255.977 220.995C255.838 224.126 256.274 227.053 255.62 230.043C252.643 230.599 249.856 230.05 246.621 229.449ZM265.768 232.005C265.768 235.404 265.768 238.535 265.768 241.73C262.929 242.688 260.262 242.375 257.245 242.171C257.469 238.682 257.687 235.372 257.911 231.896C260.592 231.947 263.042 231.34 265.768 232.005ZM255.198 244.049C255.944 247.787 255.416 251.078 255.079 254.451C252.128 254.554 249.553 254.912 246.905 254.209C247.433 250.739 246.727 247.34 247.612 244.056C250.173 244.049 252.55 244.049 255.198 244.049ZM265.577 208.651C265.577 212.101 265.577 215.321 265.577 218.593C262.976 219.066 260.638 219.283 258.215 219.098C258.215 215.398 258.215 211.98 258.215 208.523C260.751 208.216 263.022 208.031 265.577 208.651ZM265.207 194.28C262.718 194.383 260.407 195.028 258.222 194.344C258.222 190.594 258.222 187.047 258.222 183.501C260.678 183.501 262.824 183.501 265.207 183.501C265.207 187.182 265.207 190.613 265.207 194.28ZM255.904 181.508C252.801 181.003 249.949 181.342 247.07 180.37C246.753 178.441 246.753 176.594 247.031 174.671C249.744 173.866 252.398 173.674 255.165 174.166C255.865 176.492 256.109 178.747 255.904 181.508Z" fill="#06122E"/>
<path d="M239.781 249.167C238.652 246.017 239.292 243.231 239.114 240.585C238.19 226.675 237.378 212.727 238.883 198.823C239.972 188.746 240.461 178.683 240.131 168.568C240.091 167.271 239.966 165.98 239.834 163.936C241.828 165.712 241.531 167.335 241.564 168.798C241.801 179.232 241.214 189.635 240.481 200.043C239.398 215.353 239.9 230.656 241.28 245.933C241.379 247.084 241.399 247.084 239.781 249.167Z" fill="#06122E"/>
<path d="M271.407 251.68C273.032 223.47 273.302 195.521 271.949 167.337C269.981 168.008 270.417 169.49 270.457 170.762C270.78 180.116 271.282 189.464 271.427 198.818C271.625 211.681 271.005 224.537 270.562 237.392C270.43 241.22 270.463 245.047 270.49 248.875C270.503 249.737 270.127 250.753 271.407 251.68Z" fill="#06122E"/>
<path d="M245.314 113.557C252.557 113.557 259.833 113.557 267.696 113.557C267.544 84.9504 267.082 56.9191 267.531 28.824C259.668 29.7313 252.346 30.53 245.268 29.8144C242.858 57.6923 245.941 85.813 245.314 113.557ZM246.139 53.9416C249.289 53.5582 252.458 53.5838 255.779 53.7882C255.779 57.4559 255.779 60.7784 255.779 64.4205C252.418 64.2097 249.282 64.3758 246.139 63.2193C246.139 60.2801 246.139 57.4367 246.139 53.9416ZM246.621 86.8864C246.621 83.9089 246.621 81.091 246.621 77.9984C249.724 78.1454 252.742 78.2796 255.977 78.4329C255.838 81.5638 256.274 84.4903 255.62 87.4806C252.643 88.0365 249.856 87.487 246.621 86.8864ZM265.768 89.4423C265.768 92.8415 265.768 95.9724 265.768 99.1672C262.929 100.126 260.262 99.8126 257.245 99.6081C257.469 96.1194 257.687 92.8096 257.911 89.3336C260.592 89.3847 263.042 88.7777 265.768 89.4423ZM255.198 101.487C255.944 105.225 255.416 108.515 255.079 111.889C252.128 111.991 249.553 112.349 246.905 111.646C247.433 108.177 246.727 104.777 247.612 101.493C250.173 101.487 252.55 101.487 255.198 101.487ZM265.577 66.0882C265.577 69.5386 265.577 72.759 265.577 76.0305C262.976 76.5033 260.638 76.7205 258.215 76.5352C258.215 72.8357 258.215 69.4172 258.215 65.9604C260.751 65.6537 263.022 65.4684 265.577 66.0882ZM265.207 51.718C262.718 51.8202 260.407 52.4656 258.222 51.7819C258.222 48.0312 258.222 44.4849 258.222 40.9387C260.678 40.9387 262.824 40.9387 265.207 40.9387C265.207 44.6191 265.207 48.0503 265.207 51.718ZM255.904 38.9451C252.801 38.4404 249.949 38.779 247.07 37.8078C246.753 35.8782 246.753 34.0315 247.031 32.1083C249.744 31.3032 252.398 31.1115 255.165 31.6035C255.865 33.9293 256.109 36.1848 255.904 38.9451Z" fill="#06122E"/>
<path d="M239.781 106.604C238.652 103.454 239.292 100.668 239.114 98.0228C238.19 84.1126 237.378 70.1641 238.883 56.2603C239.972 46.1839 240.461 36.1203 240.131 26.0055C240.091 24.7084 239.966 23.4177 239.834 21.373C241.828 23.1494 241.531 24.7723 241.564 26.2355C241.801 36.6698 241.214 47.0721 240.481 57.4807C239.398 72.7903 239.9 88.0933 241.28 103.371C241.379 104.521 241.399 104.521 239.781 106.604Z" fill="#06122E"/>
<path d="M271.407 109.115C273.032 80.9051 273.302 52.957 271.949 24.7724C269.981 25.4433 270.417 26.9257 270.457 28.1972C270.78 37.5516 271.282 46.8996 271.427 56.254C271.625 69.1162 271.005 81.9721 270.562 94.828C270.43 98.6554 270.463 102.483 270.49 106.31C270.503 107.173 270.127 108.189 271.407 109.115Z" fill="#06122E"/>
<g clip-path="url(#clip0_773_1476)">
<path d="M155.181 238.413C151.773 238.413 148.648 238.413 145.263 238.413C145.217 237.449 145.141 236.584 145.141 235.716C145.128 225.159 145.135 214.599 145.102 204.042C145.1 202.825 145.016 201.58 144.756 200.394C143.866 196.314 140.043 193.449 136.043 193.769C131.741 194.113 128.351 197.614 128.157 201.96C128.103 203.184 128.147 204.414 128.147 205.641C128.149 215.707 128.152 225.776 128.147 235.842C128.147 236.641 128.07 237.436 128.024 238.374C124.688 238.374 121.507 238.374 118.094 238.374C118.05 237.395 117.979 236.524 117.979 235.651C117.964 225.174 117.969 214.7 117.943 204.223C117.941 203.084 117.88 201.926 117.678 200.807C116.898 196.493 112.96 193.402 108.805 193.772C104.401 194.165 101.026 197.766 101.008 202.275C100.97 213.243 101.001 224.208 101.003 235.176C101.003 236.147 101.003 237.121 101.003 238.268C100.254 238.366 99.6445 238.511 99.0353 238.514C92.171 238.529 85.3093 238.524 78.445 238.524C78.2028 238.524 77.9607 238.532 77.7185 238.516C75.5111 238.374 73.9639 236.827 73.9996 234.801C74.0353 232.744 75.5315 231.228 77.7721 231.135C79.7883 231.052 81.8096 231.104 83.8258 231.098C84.616 231.096 85.4087 231.098 86.4486 231.098C86.7851 225.59 86.5634 220.304 86.6067 215.028C86.65 209.625 86.6347 204.226 86.6373 198.823C86.6424 193.526 86.6373 188.23 86.6373 182.814C119.949 182.814 153.017 182.814 186.405 182.814C186.591 198.797 186.303 214.708 186.466 230.866C187.532 230.959 188.381 231.083 189.232 231.096C191.33 231.129 193.435 231.026 195.528 231.135C197.865 231.256 199.058 232.662 198.992 234.966C198.933 237.062 197.623 238.496 195.462 238.506C188.034 238.547 180.606 238.503 173.179 238.485C173.026 238.485 172.87 238.403 172.396 238.266C172.363 237.431 172.297 236.485 172.297 235.542C172.287 225.148 172.299 214.754 172.274 204.36C172.271 203.14 172.213 201.898 171.976 200.707C171.114 196.415 167.38 193.477 163.281 193.767C158.991 194.069 155.629 197.487 155.321 201.898C155.252 202.874 155.303 203.861 155.303 204.843C155.306 215.237 155.308 225.631 155.303 236.026C155.306 236.744 155.232 237.465 155.181 238.413Z" fill="#06122E"/>
<path d="M186.465 176.553C153.107 176.553 120.049 176.553 86.6735 176.553C86.6634 175.08 86.6506 173.641 86.643 172.2C86.6379 170.89 86.7424 169.572 86.6149 168.275C86.411 166.2 87.3694 165.115 89.197 164.417C92.5896 163.123 95.9389 161.699 99.3035 160.333C111.052 155.555 122.812 150.807 134.538 145.975C136.003 145.37 137.239 145.389 138.682 145.983C153.637 152.111 168.614 158.186 183.579 164.286C186.36 165.42 186.452 165.572 186.462 168.619C186.47 171.21 186.465 173.804 186.465 176.553Z" fill="#06122E"/>
</g>
<defs>
<clipPath id="clip0_773_1476">
<rect width="125" height="93" fill="white" transform="translate(74 145.527)"/>
</clipPath>
</defs>
</svg>
