<svg width="274" height="423" viewBox="0 0 274 423" fill="none" xmlns="http://www.w3.org/2000/svg">
<rect x="18.1553" y="18.6914" width="236.67" height="386" fill="#F74061"/>
<path d="M126.721 319.211C128.089 319.211 129.325 319.499 130.429 320.075C131.533 320.651 132.409 321.515 133.057 322.667C133.729 323.819 134.065 325.211 134.065 326.843C134.065 329.339 133.321 331.343 131.833 332.855C130.345 334.367 128.209 335.123 125.425 335.123C122.785 335.123 120.661 334.271 119.053 332.567C117.469 330.839 116.677 327.779 116.677 323.387C116.677 318.611 117.493 315.059 119.125 312.731C120.757 310.379 123.313 309.203 126.793 309.203C128.257 309.203 129.577 309.455 130.753 309.959C131.929 310.463 132.517 311.159 132.517 312.047C132.517 312.503 132.337 312.959 131.977 313.415C131.641 313.847 131.341 314.099 131.077 314.171C130.333 312.995 129.589 312.167 128.845 311.687C128.125 311.183 127.381 310.931 126.613 310.931C124.549 310.931 123.121 311.915 122.329 313.883C121.561 315.827 121.129 318.515 121.033 321.947C122.473 320.123 124.369 319.211 126.721 319.211ZM125.641 333.611C127.105 333.611 128.161 332.963 128.809 331.667C129.457 330.347 129.781 328.691 129.781 326.699C129.781 322.955 128.485 321.083 125.893 321.083C124.837 321.083 123.877 321.407 123.013 322.055C122.149 322.679 121.489 323.579 121.033 324.755C121.105 327.491 121.489 329.651 122.185 331.235C122.905 332.819 124.057 333.611 125.641 333.611ZM147.058 335.159C144.034 335.159 141.73 334.079 140.146 331.919C138.586 329.735 137.806 326.483 137.806 322.163C137.806 317.843 138.586 314.603 140.146 312.443C141.73 310.259 144.034 309.167 147.058 309.167C150.082 309.167 152.374 310.259 153.934 312.443C155.494 314.603 156.274 317.843 156.274 322.163C156.274 326.483 155.494 329.735 153.934 331.919C152.374 334.079 150.082 335.159 147.058 335.159ZM147.058 333.647C148.69 333.647 149.902 332.735 150.694 330.911C151.486 329.063 151.882 326.147 151.882 322.163C151.882 318.203 151.486 315.299 150.694 313.451C149.902 311.603 148.69 310.679 147.058 310.679C145.426 310.679 144.214 311.603 143.422 313.451C142.63 315.299 142.234 318.203 142.234 322.163C142.234 326.147 142.63 329.063 143.422 330.911C144.214 332.735 145.426 333.647 147.058 333.647Z" fill="#06122E"/>
<path d="M109.837 368.117C110.01 368.221 110.14 368.403 110.227 368.663C110.331 368.923 110.383 369.209 110.383 369.521C110.383 369.851 110.322 370.128 110.201 370.353C110.079 370.579 109.906 370.691 109.681 370.691H101.413C100.927 370.691 100.529 370.561 100.217 370.301C99.9219 370.024 99.7746 369.651 99.7746 369.183L99.7486 356.365C99.7486 355.083 99.6099 354.077 99.3326 353.349C99.6619 353.055 99.9999 352.864 100.347 352.777C100.711 352.673 101.222 352.621 101.881 352.621H109.577C109.889 352.621 110.045 352.881 110.045 353.401C110.045 353.748 109.967 354.103 109.811 354.467C109.672 354.814 109.49 355.039 109.265 355.143C107.063 354.467 104.853 354.103 102.635 354.051V360.473H108.563C108.632 360.681 108.667 360.933 108.667 361.227C108.667 361.435 108.632 361.713 108.563 362.059H102.661V369.261C103.787 369.244 105.035 369.123 106.405 368.897C107.774 368.655 108.918 368.395 109.837 368.117ZM122.678 357.119C123.233 357.119 123.631 357.215 123.874 357.405C124.134 357.596 124.264 357.908 124.264 358.341C124.264 358.879 124.16 359.39 123.952 359.875L119.844 370.587C119.168 370.882 118.527 371.029 117.92 371.029C117.105 371.029 116.594 370.7 116.386 370.041L112.616 359.225C112.581 359.139 112.495 358.931 112.356 358.601C112.235 358.255 112.079 357.977 111.888 357.769C112.287 357.336 112.833 357.119 113.526 357.119C113.959 357.119 114.323 357.215 114.618 357.405C114.93 357.596 115.129 357.873 115.216 358.237L118.414 369.261L121.248 359.173C121.352 358.723 121.404 358.376 121.404 358.133C121.404 357.821 121.343 357.579 121.222 357.405C121.707 357.215 122.193 357.119 122.678 357.119ZM136.587 367.103C136.865 367.225 137.003 367.441 137.003 367.753C137.003 367.961 136.943 368.213 136.821 368.507C136.492 369.322 135.903 369.946 135.053 370.379C134.221 370.813 133.216 371.029 132.037 371.029C130.061 371.029 128.501 370.423 127.357 369.209C126.231 367.996 125.667 366.271 125.667 364.035C125.667 361.834 126.222 360.118 127.331 358.887C128.441 357.639 130.027 357.015 132.089 357.015C133.597 357.015 134.819 357.353 135.755 358.029C136.691 358.688 137.159 359.633 137.159 360.863C137.159 362.146 136.639 363.134 135.599 363.827C134.577 364.503 133.181 364.841 131.413 364.841C130.408 364.841 129.515 364.798 128.735 364.711C128.857 366.323 129.264 367.476 129.957 368.169C130.651 368.863 131.595 369.209 132.791 369.209C133.727 369.209 134.525 369.019 135.183 368.637C135.859 368.256 136.327 367.745 136.587 367.103ZM131.985 358.081C130.963 358.081 130.157 358.567 129.567 359.537C128.995 360.491 128.709 361.851 128.709 363.619C129.16 363.671 129.619 363.697 130.087 363.697C131.266 363.697 132.228 363.463 132.973 362.995C133.719 362.527 134.091 361.669 134.091 360.421C134.091 359.572 133.892 358.974 133.493 358.627C133.095 358.263 132.592 358.081 131.985 358.081ZM151.448 367.285C151.482 368.707 151.638 369.738 151.916 370.379C151.448 370.813 150.902 371.029 150.278 371.029C149.792 371.029 149.394 370.899 149.082 370.639C148.77 370.362 148.614 369.989 148.614 369.521V362.735C148.596 361.297 148.423 360.239 148.094 359.563C147.782 358.87 147.201 358.523 146.352 358.523C145.78 358.523 145.251 358.74 144.766 359.173C144.298 359.607 143.916 360.274 143.622 361.175C143.327 362.059 143.18 363.169 143.18 364.503C143.18 366.549 143.206 367.901 143.258 368.559C143.31 369.218 143.448 369.833 143.674 370.405C143.5 370.561 143.266 370.7 142.972 370.821C142.694 370.96 142.391 371.029 142.062 371.029C141.559 371.029 141.152 370.882 140.84 370.587C140.528 370.293 140.372 369.894 140.372 369.391V360.525C140.354 360.04 140.294 359.693 140.19 359.485C140.086 359.277 139.912 359.173 139.67 359.173C139.34 359.173 139.115 359.295 138.994 359.537C138.768 359.208 138.656 358.879 138.656 358.549C138.656 358.099 138.82 357.735 139.15 357.457C139.479 357.163 139.938 357.015 140.528 357.015C141.273 357.015 141.845 357.275 142.244 357.795C142.66 358.298 142.868 359.052 142.868 360.057V360.187C143.214 359.165 143.76 358.385 144.506 357.847C145.268 357.293 146.187 357.015 147.262 357.015C148.683 357.015 149.732 357.457 150.408 358.341C151.101 359.225 151.448 360.551 151.448 362.319V367.285ZM158.833 357.379C159.162 357.379 159.613 357.371 160.185 357.353C160.757 357.336 161.208 357.319 161.537 357.301L161.511 358.003C161.494 358.229 161.416 358.411 161.277 358.549C161.156 358.671 160.991 358.731 160.783 358.731H158.339V359.589L158.313 367.415C158.313 368.351 158.72 368.819 159.535 368.819C159.778 368.819 160.003 368.785 160.211 368.715C160.436 368.629 160.584 368.516 160.653 368.377C160.878 368.707 160.991 369.027 160.991 369.339C160.991 369.825 160.748 370.223 160.263 370.535C159.795 370.83 159.188 370.977 158.443 370.977C157.507 370.977 156.779 370.683 156.259 370.093C155.739 369.504 155.479 368.689 155.479 367.649V358.731H155.115C154.89 358.731 154.63 358.74 154.335 358.757C154.04 358.775 153.78 358.801 153.555 358.835L153.581 358.081C153.598 357.856 153.676 357.683 153.815 357.561C153.954 357.44 154.127 357.379 154.335 357.379H155.479V355.403C155.479 354.953 155.635 354.597 155.947 354.337C156.259 354.06 156.658 353.921 157.143 353.921C157.75 353.921 158.287 354.129 158.755 354.545C158.547 355.308 158.417 356.253 158.365 357.379H158.833ZM168.055 371.029C166.426 371.029 165.195 370.752 164.363 370.197C163.531 369.643 163.115 368.897 163.115 367.961C163.115 367.493 163.245 367.095 163.505 366.765C163.782 366.436 164.207 366.271 164.779 366.271C164.883 366.271 165.056 366.289 165.299 366.323C165.247 366.531 165.221 366.722 165.221 366.895C165.221 367.103 165.247 367.329 165.299 367.571C165.386 368.265 165.689 368.828 166.209 369.261C166.746 369.695 167.474 369.911 168.393 369.911C169.208 369.911 169.866 369.764 170.369 369.469C170.872 369.157 171.123 368.707 171.123 368.117C171.123 367.719 171.002 367.372 170.759 367.077C170.534 366.765 170.248 366.505 169.901 366.297C169.554 366.089 169.06 365.829 168.419 365.517C168.28 365.465 168.072 365.37 167.795 365.231C166.859 364.798 166.114 364.417 165.559 364.087C165.022 363.741 164.554 363.281 164.155 362.709C163.774 362.137 163.583 361.435 163.583 360.603C163.583 359.39 164.051 358.489 164.987 357.899C165.923 357.293 167.11 356.989 168.549 356.989C169.988 356.989 171.123 357.215 171.955 357.665C172.787 358.099 173.203 358.731 173.203 359.563C173.203 359.945 173.09 360.274 172.865 360.551C172.657 360.811 172.319 360.95 171.851 360.967C171.764 360.985 171.652 360.993 171.513 360.993C171.426 360.993 171.262 360.976 171.019 360.941C171.036 360.837 171.045 360.681 171.045 360.473C171.045 360.092 170.993 359.806 170.889 359.615C170.785 359.13 170.516 358.757 170.083 358.497C169.667 358.22 169.121 358.081 168.445 358.081C167.804 358.081 167.258 358.211 166.807 358.471C166.374 358.731 166.157 359.13 166.157 359.667C166.157 360.153 166.296 360.569 166.573 360.915C166.868 361.262 167.223 361.557 167.639 361.799C168.055 362.042 168.644 362.345 169.407 362.709C170.464 363.212 171.253 363.619 171.773 363.931C172.293 364.226 172.761 364.633 173.177 365.153C173.593 365.673 173.801 366.306 173.801 367.051C173.801 368.161 173.333 369.105 172.397 369.885C171.478 370.648 170.031 371.029 168.055 371.029Z" fill="#06122E"/>
<path d="M265.946 116.717C258.703 116.717 251.427 116.717 243.563 116.717C243.715 145.323 244.178 173.354 243.729 201.449C251.592 200.542 258.914 199.743 265.992 200.459C268.402 172.581 265.319 144.46 265.946 116.717ZM265.12 176.332C261.971 176.715 258.802 176.69 255.481 176.485C255.481 172.818 255.481 169.495 255.481 165.853C258.842 166.064 261.978 165.898 265.12 167.054C265.12 169.993 265.12 172.837 265.12 176.332ZM264.638 143.387C264.638 146.365 264.638 149.182 264.638 152.275C261.535 152.128 258.518 151.994 255.283 151.841C255.421 148.71 254.986 145.783 255.639 142.793C258.617 142.237 261.403 142.786 264.638 143.387ZM245.491 140.831C245.491 137.432 245.491 134.301 245.491 131.106C248.33 130.148 250.998 130.461 254.015 130.665C253.791 134.154 253.573 137.464 253.348 140.94C250.668 140.889 248.218 141.496 245.491 140.831ZM256.062 128.787C255.316 125.049 255.844 121.758 256.181 118.384C259.132 118.282 261.707 117.924 264.355 118.627C263.826 122.097 264.533 125.496 263.648 128.78C261.086 128.787 258.709 128.787 256.062 128.787ZM245.683 164.185C245.683 160.735 245.683 157.514 245.683 154.243C248.284 153.77 250.621 153.553 253.045 153.738C253.045 157.438 253.045 160.856 253.045 164.313C250.509 164.62 248.238 164.805 245.683 164.185ZM246.053 178.555C248.542 178.453 250.853 177.808 253.038 178.492C253.038 182.242 253.038 185.789 253.038 189.335C250.582 189.335 248.436 189.335 246.053 189.335C246.053 185.654 246.053 182.223 246.053 178.555ZM255.355 191.328C258.459 191.833 261.311 191.494 264.19 192.466C264.506 194.395 264.506 196.242 264.229 198.165C261.516 198.97 258.861 199.162 256.095 198.67C255.395 196.344 255.151 194.089 255.355 191.328Z" fill="#06122E"/>
<path d="M271.477 201.163C272.606 198.013 271.965 195.227 272.144 192.581C273.068 178.671 273.88 164.723 272.375 150.819C271.285 140.742 270.797 130.679 271.127 120.564C271.167 119.267 271.292 117.976 271.424 115.932C269.43 117.708 269.727 119.331 269.694 120.794C269.457 131.228 270.044 141.631 270.777 152.039C271.86 167.349 271.358 182.652 269.978 197.929C269.879 199.08 269.859 199.08 271.477 201.163Z" fill="#06122E"/>
<path d="M239.85 118.338C238.226 146.548 237.956 174.496 239.309 202.681C241.277 202.01 240.841 200.527 240.801 199.256C240.478 189.902 239.976 180.554 239.831 171.199C239.633 158.337 240.253 145.481 240.696 132.625C240.828 128.798 240.795 124.97 240.768 121.143C240.755 120.28 241.131 119.264 239.85 118.338Z" fill="#06122E"/>
<path d="M265.946 0.935544C258.703 0.935545 251.427 0.935546 243.563 0.935547C243.715 29.5418 244.178 57.573 243.729 85.6682C251.592 84.7608 258.914 83.9621 265.992 84.6778C268.402 56.7999 265.319 28.6792 265.946 0.935544ZM265.12 60.5506C261.971 60.934 258.802 60.9084 255.481 60.704C255.481 57.0363 255.481 53.7137 255.481 50.0717C258.842 50.2825 261.978 50.1164 265.12 51.2729C265.12 54.2121 265.12 57.0555 265.12 60.5506ZM264.638 27.6058C264.638 30.5833 264.638 33.4012 264.638 36.4937C261.535 36.3468 258.518 36.2126 255.283 36.0593C255.421 32.9283 254.986 30.0019 255.639 27.0115C258.617 26.4556 261.403 27.0051 264.638 27.6058ZM245.491 25.0499C245.491 21.6507 245.491 18.5198 245.491 15.325C248.33 14.3665 250.998 14.6796 254.015 14.8841C253.791 18.3728 253.573 21.6826 253.348 25.1586C250.668 25.1075 248.218 25.7145 245.491 25.0499ZM256.062 13.0055C255.316 9.26761 255.844 5.97694 256.181 2.60322C259.132 2.50099 261.707 2.14317 264.355 2.84603C263.826 6.31559 264.533 9.71487 263.648 12.9991C261.086 13.0055 258.709 13.0055 256.062 13.0055ZM245.683 48.4039C245.683 44.9536 245.683 41.7332 245.683 38.4617C248.284 37.9889 250.621 37.7717 253.045 37.957C253.045 41.6565 253.045 45.075 253.045 48.5317C250.509 48.8385 248.238 49.0237 245.683 48.4039ZM246.053 62.7742C248.542 62.672 250.853 62.0266 253.038 62.7103C253.038 66.461 253.038 70.0073 253.038 73.5535C250.582 73.5535 248.436 73.5535 246.053 73.5535C246.053 69.8731 246.053 66.4419 246.053 62.7742ZM255.355 75.547C258.459 76.0518 261.311 75.7132 264.19 76.6844C264.506 78.614 264.506 80.4607 264.229 82.3839C261.516 83.189 258.861 83.3807 256.095 82.8887C255.395 80.5629 255.151 78.3074 255.355 75.547Z" fill="#06122E"/>
<path d="M271.477 85.3814C272.606 82.2313 271.965 79.4454 272.144 76.8001C273.068 62.89 273.88 48.9414 272.375 35.0377C271.285 24.9612 270.797 14.8976 271.127 4.78286C271.167 3.48577 271.292 2.19507 271.424 0.15039C269.43 1.9267 269.727 3.54965 269.694 5.01288C269.457 15.4471 270.044 25.8494 270.777 36.2581C271.86 51.5676 271.358 66.8707 269.978 82.1482C269.879 83.2984 269.859 83.2984 271.477 85.3814Z" fill="#06122E"/>
<path d="M239.85 2.55664C238.226 30.7668 237.956 58.7149 239.309 86.8995C241.277 86.2286 240.841 84.7462 240.801 83.4747C240.478 74.1203 239.976 64.7723 239.831 55.4179C239.633 42.5556 240.253 29.6997 240.696 16.8438C240.828 13.0165 240.795 9.18906 240.768 5.36169C240.755 4.49909 241.131 3.48313 239.85 2.55664Z" fill="#06122E"/>
<path d="M265.943 258.871C258.7 258.871 251.424 258.871 243.561 258.871C243.712 287.477 244.175 315.509 243.726 343.604C251.589 342.696 258.911 341.898 265.989 342.613C268.399 314.735 265.316 286.615 265.943 258.871ZM265.118 318.486C261.968 318.87 258.799 318.844 255.478 318.639C255.478 314.972 255.478 311.649 255.478 308.007C258.839 308.218 261.975 308.052 265.118 309.208C265.118 312.148 265.118 314.991 265.118 318.486ZM264.636 285.541C264.636 288.519 264.636 291.337 264.636 294.429C261.532 294.282 258.515 294.148 255.28 293.995C255.419 290.864 254.983 287.937 255.636 284.947C258.614 284.391 261.4 284.941 264.636 285.541ZM245.488 282.985C245.488 279.586 245.488 276.455 245.488 273.261C248.328 272.302 250.995 272.615 254.012 272.82C253.788 276.308 253.57 279.618 253.345 283.094C250.665 283.043 248.215 283.65 245.488 282.985ZM256.059 270.941C255.313 267.203 255.841 263.912 256.178 260.539C259.129 260.437 261.704 260.079 264.352 260.782C263.823 264.251 264.53 267.65 263.645 270.935C261.083 270.941 258.707 270.941 256.059 270.941ZM245.68 306.339C245.68 302.889 245.68 299.669 245.68 296.397C248.281 295.924 250.619 295.707 253.042 295.893C253.042 299.592 253.042 303.011 253.042 306.467C250.506 306.774 248.235 306.959 245.68 306.339ZM246.05 320.71C248.539 320.608 250.85 319.962 253.035 320.646C253.035 324.397 253.035 327.943 253.035 331.489C250.579 331.489 248.433 331.489 246.05 331.489C246.05 327.809 246.05 324.377 246.05 320.71ZM255.353 333.483C258.456 333.987 261.308 333.649 264.187 334.62C264.504 336.55 264.504 338.396 264.226 340.319C261.513 341.125 258.858 341.316 256.092 340.824C255.392 338.498 255.148 336.243 255.353 333.483Z" fill="#06122E"/>
<path d="M271.477 343.317C272.606 340.167 271.965 337.381 272.144 334.736C273.068 320.826 273.88 306.877 272.375 292.973C271.285 282.897 270.797 272.833 271.127 262.718C271.167 261.421 271.292 260.131 271.424 258.086C269.43 259.862 269.727 261.485 269.694 262.948C269.457 273.383 270.044 283.785 270.777 294.194C271.86 309.503 271.358 324.806 269.978 340.084C269.879 341.234 269.859 341.234 271.477 343.317Z" fill="#06122E"/>
<path d="M239.85 260.492C238.226 288.702 237.956 316.65 239.309 344.835C241.277 344.164 240.841 342.682 240.801 341.41C240.478 332.056 239.976 322.708 239.831 313.353C239.633 300.491 240.253 287.635 240.696 274.779C240.828 270.952 240.795 267.125 240.768 263.297C240.755 262.435 241.131 261.419 239.85 260.492Z" fill="#06122E"/>
<path d="M265.946 187.684C258.703 187.684 251.427 187.684 243.563 187.684C243.715 216.29 244.178 244.321 243.729 272.416C251.592 271.509 258.914 270.71 265.992 271.426C268.402 243.548 265.319 215.427 265.946 187.684ZM265.12 247.299C261.971 247.682 258.802 247.656 255.481 247.452C255.481 243.784 255.481 240.462 255.481 236.82C258.842 237.031 261.978 236.864 265.12 238.021C265.12 240.96 265.12 243.804 265.12 247.299ZM264.638 214.354C264.638 217.331 264.638 220.149 264.638 223.242C261.535 223.095 258.518 222.961 255.283 222.807C255.421 219.676 254.986 216.75 255.639 213.76C258.617 213.204 261.403 213.753 264.638 214.354ZM245.491 211.798C245.491 208.399 245.491 205.268 245.491 202.073C248.33 201.115 250.998 201.428 254.015 201.632C253.791 205.121 253.573 208.431 253.348 211.907C250.668 211.856 248.218 212.462 245.491 211.798ZM256.062 199.754C255.316 196.016 255.844 192.725 256.181 189.351C259.132 189.249 261.707 188.891 264.355 189.594C263.826 193.064 264.533 196.463 263.648 199.747C261.086 199.754 258.709 199.754 256.062 199.754ZM245.683 235.152C245.683 231.702 245.683 228.481 245.683 225.21C248.284 224.737 250.621 224.52 253.045 224.705C253.045 228.405 253.045 231.823 253.045 235.28C250.509 235.586 248.238 235.772 245.683 235.152ZM246.053 249.522C248.542 249.42 250.853 248.775 253.038 249.458C253.038 253.209 253.038 256.755 253.038 260.302C250.582 260.302 248.436 260.302 246.053 260.302C246.053 256.621 246.053 253.19 246.053 249.522ZM255.355 262.295C258.459 262.8 261.311 262.461 264.19 263.432C264.506 265.362 264.506 267.209 264.229 269.132C261.516 269.937 258.861 270.129 256.095 269.637C255.395 267.311 255.151 265.055 255.355 262.295Z" fill="#06122E"/>
<path d="M271.477 194.636C272.606 197.786 271.965 200.572 272.144 203.217C273.068 217.128 273.88 231.076 272.375 244.98C271.285 255.056 270.797 265.12 271.127 275.235C271.167 276.532 271.292 277.823 271.424 279.867C269.43 278.091 269.727 276.468 269.694 275.005C269.457 264.57 270.044 254.168 270.777 243.759C271.86 228.45 271.358 213.147 269.978 197.869C269.879 196.719 269.859 196.719 271.477 194.636Z" fill="#06122E"/>
<path d="M239.85 192.125C238.226 220.335 237.956 248.283 239.309 276.468C241.277 275.797 240.841 274.315 240.801 273.043C240.478 263.689 239.976 254.341 239.831 244.986C239.633 232.124 240.253 219.268 240.696 206.412C240.828 202.585 240.795 198.757 240.768 194.93C240.755 194.067 241.131 193.051 239.85 192.125Z" fill="#06122E"/>
<path d="M265.944 329.83C258.701 329.83 251.425 329.83 243.562 329.83C243.713 358.436 244.176 386.468 243.727 414.563C251.59 413.655 258.912 412.857 265.99 413.572C268.4 385.694 265.317 357.574 265.944 329.83ZM265.119 389.445C261.969 389.829 258.8 389.803 255.479 389.598C255.479 385.931 255.479 382.608 255.479 378.966C258.84 379.177 261.976 379.011 265.119 380.167C265.119 383.107 265.119 385.95 265.119 389.445ZM264.637 356.5C264.637 359.478 264.637 362.296 264.637 365.388C261.533 365.241 258.516 365.107 255.281 364.954C255.42 361.823 254.984 358.896 255.637 355.906C258.615 355.35 261.401 355.9 264.637 356.5ZM245.489 353.944C245.489 350.545 245.489 347.414 245.489 344.219C248.328 343.261 250.996 343.574 254.013 343.779C253.789 347.267 253.571 350.577 253.346 354.053C250.666 354.002 248.216 354.609 245.489 353.944ZM256.06 341.9C255.314 338.162 255.842 334.871 256.179 331.498C259.13 331.396 261.705 331.038 264.353 331.741C263.824 335.21 264.531 338.609 263.646 341.894C261.084 341.9 258.708 341.9 256.06 341.9ZM245.681 377.298C245.681 373.848 245.681 370.628 245.681 367.356C248.282 366.883 250.62 366.666 253.043 366.851C253.043 370.551 253.043 373.97 253.043 377.426C250.507 377.733 248.236 377.918 245.681 377.298ZM246.051 391.669C248.54 391.567 250.851 390.921 253.036 391.605C253.036 395.356 253.036 398.902 253.036 402.448C250.58 402.448 248.434 402.448 246.051 402.448C246.051 398.768 246.051 395.336 246.051 391.669ZM255.354 404.442C258.457 404.946 261.309 404.608 264.188 405.579C264.505 407.509 264.504 409.355 264.227 411.278C261.514 412.084 258.859 412.275 256.093 411.783C255.393 409.457 255.149 407.202 255.354 404.442Z" fill="#06122E"/>
<path d="M271.477 336.783C272.606 339.933 271.965 342.719 272.144 345.364C273.068 359.274 273.88 373.223 272.375 387.126C271.285 397.203 270.797 407.266 271.127 417.381C271.167 418.678 271.292 419.969 271.424 422.014C269.43 420.237 269.727 418.614 269.694 417.151C269.457 406.717 270.044 396.315 270.777 385.906C271.86 370.596 271.358 355.293 269.978 340.016C269.879 338.866 269.859 338.866 271.477 336.783Z" fill="#06122E"/>
<path d="M239.85 334.271C238.226 362.482 237.956 390.43 239.309 418.614C241.277 417.943 240.841 416.461 240.801 415.19C240.478 405.835 239.976 396.487 239.831 387.133C239.633 374.27 240.253 361.415 240.696 348.559C240.828 344.731 240.795 340.904 240.768 337.077C240.755 336.214 241.131 335.198 239.85 334.271Z" fill="#06122E"/>
<path d="M265.944 48.5723C258.701 48.5723 251.425 48.5723 243.562 48.5723C243.713 77.1786 244.176 105.21 243.727 133.305C251.59 132.398 258.912 131.599 265.99 132.315C268.4 104.437 265.317 76.316 265.944 48.5723ZM265.119 108.187C261.969 108.571 258.8 108.545 255.479 108.341C255.479 104.673 255.479 101.35 255.479 97.7084C258.84 97.9192 261.976 97.7531 265.119 98.9096C265.119 101.849 265.119 104.692 265.119 108.187ZM264.637 75.2425C264.637 78.22 264.637 81.0379 264.637 84.1305C261.533 83.9835 258.516 83.8493 255.281 83.696C255.42 80.5651 254.984 77.6386 255.637 74.6483C258.615 74.0924 261.401 74.6419 264.637 75.2425ZM245.489 72.6867C245.489 69.2874 245.489 66.1565 245.489 62.9617C248.328 62.0032 250.996 62.3163 254.013 62.5208C253.789 66.0095 253.571 69.3194 253.346 72.7953C250.666 72.7442 248.216 73.3512 245.489 72.6867ZM256.06 60.6422C255.314 56.9043 255.842 53.6137 256.179 50.2399C259.13 50.1377 261.705 49.7799 264.353 50.4828C263.824 53.9523 264.531 57.3516 263.646 60.6359C261.084 60.6422 258.708 60.6422 256.06 60.6422ZM245.681 96.0407C245.681 92.5903 245.681 89.3699 245.681 86.0984C248.282 85.6256 250.62 85.4084 253.043 85.5937C253.043 89.2933 253.043 92.7117 253.043 96.1685C250.507 96.4752 248.236 96.6605 245.681 96.0407ZM246.051 110.411C248.54 110.309 250.851 109.663 253.036 110.347C253.036 114.098 253.036 117.644 253.036 121.19C250.58 121.19 248.434 121.19 246.051 121.19C246.051 117.51 246.051 114.079 246.051 110.411ZM255.354 123.184C258.457 123.689 261.309 123.35 264.188 124.321C264.505 126.251 264.504 128.097 264.227 130.021C261.514 130.826 258.859 131.017 256.093 130.525C255.393 128.2 255.149 125.944 255.354 123.184Z" fill="#06122E"/>
<path d="M271.477 55.5248C272.606 58.6749 271.965 61.4608 272.144 64.1061C273.068 78.0163 273.88 91.9648 272.375 105.869C271.285 115.945 270.797 126.009 271.127 136.123C271.167 137.42 271.292 138.711 271.424 140.756C269.43 138.98 269.727 137.357 269.694 135.893C269.457 125.459 270.044 115.057 270.777 104.648C271.86 89.3386 271.358 74.0356 269.978 58.758C269.879 57.6079 269.859 57.6078 271.477 55.5248Z" fill="#06122E"/>
<path d="M239.85 53.0117C238.226 81.2218 237.956 109.17 239.309 137.355C241.277 136.684 240.841 135.201 240.801 133.93C240.478 124.575 239.976 115.227 239.831 105.873C239.633 93.0107 240.253 80.1548 240.696 67.2989C240.828 63.4715 240.795 59.6441 240.768 55.8168C240.755 54.9542 241.131 53.9382 239.85 53.0117Z" fill="#06122E"/>
<path d="M184.926 30.5425C184.926 23.2996 184.926 16.0237 184.926 8.16016C155.681 8.31202 127.025 8.77419 98.3029 8.32522C99.2305 16.1887 100.047 23.5109 99.3154 30.5887C127.815 32.9986 156.563 29.9152 184.926 30.5425ZM123.981 29.7172C123.589 26.5678 123.615 23.3986 123.824 20.0776C127.573 20.0776 130.97 20.0776 134.693 20.0776C134.478 23.4382 134.648 26.5744 133.465 29.7172C130.461 29.7172 127.554 29.7172 123.981 29.7172ZM157.661 29.2352C154.617 29.2352 151.736 29.2352 148.574 29.2352C148.725 26.132 148.862 23.1147 149.019 19.8795C152.219 20.0182 155.211 19.5824 158.268 20.236C158.836 23.2137 158.275 26 157.661 29.2352ZM160.273 10.0881C163.749 10.0881 166.949 10.0881 170.215 10.0881C171.195 12.9271 170.875 15.5945 170.666 18.6118C167.1 18.3873 163.716 18.1695 160.162 17.945C160.215 15.2644 159.594 12.8149 160.273 10.0881ZM172.587 20.6586C176.408 19.9125 179.772 20.4407 183.221 20.7774C183.325 23.7287 183.691 26.3037 182.973 28.9513C179.426 28.4231 175.951 29.1295 172.593 28.2448C172.587 25.6831 172.587 23.3062 172.587 20.6586ZM136.398 10.2795C139.926 10.2795 143.218 10.2795 146.562 10.2795C147.046 12.8809 147.268 15.2182 147.078 17.6413C143.296 17.6413 139.802 17.6413 136.268 17.6413C135.954 15.1059 135.765 12.8347 136.398 10.2795ZM121.708 10.6493C121.812 13.1384 122.472 15.4493 121.773 17.6347C117.939 17.6347 114.313 17.6347 110.688 17.6347C110.688 15.1786 110.688 13.0328 110.688 10.6493C114.45 10.6493 117.958 10.6493 121.708 10.6493ZM108.65 19.9521C108.134 23.0553 108.48 25.9075 107.487 28.7862C105.514 29.1031 103.627 29.1031 101.66 28.8258C100.837 26.1122 100.641 23.458 101.144 20.6916C103.522 19.9918 105.828 19.7475 108.65 19.9521Z" fill="#06122E"/>
<path d="M98.5961 36.0726C101.816 37.2016 104.665 36.5612 107.369 36.7394C121.589 37.6638 135.849 38.4759 150.063 36.9705C160.364 35.8811 170.652 35.3925 180.993 35.7226C182.319 35.7622 183.638 35.8877 185.729 36.0197C183.913 34.0258 182.253 34.3229 180.758 34.2899C170.091 34.0522 159.456 34.6398 148.815 35.3727C133.164 36.4555 117.52 35.9537 101.901 34.5738C100.726 34.4748 100.726 34.455 98.5961 36.0726Z" fill="#06122E"/>
<path d="M183.268 4.44708C154.428 2.82288 125.856 2.55218 97.0431 3.90569C97.729 5.87322 99.2445 5.43745 100.544 5.39784C110.107 5.07432 119.664 4.57253 129.227 4.42728C142.376 4.2292 155.519 4.84983 168.662 5.29219C172.574 5.42424 176.487 5.39123 180.4 5.36482C181.282 5.35162 182.32 5.72796 183.268 4.44708Z" fill="#06122E"/>
<path d="M257.702 30.5444C257.702 23.3015 257.702 16.0256 257.702 8.16211C228.458 8.31397 199.801 8.77614 171.079 8.32718C172.007 16.1907 172.823 23.5128 172.092 30.5906C200.592 33.0005 229.34 29.9172 257.702 30.5444ZM196.757 29.7191C196.365 26.5697 196.391 23.4006 196.6 20.0795C200.35 20.0795 203.747 20.0795 207.47 20.0795C207.254 23.4402 207.424 26.5763 206.242 29.7191C203.237 29.7191 200.33 29.7191 196.757 29.7191ZM230.437 29.2371C227.393 29.2371 224.512 29.2371 221.351 29.2371C221.501 26.134 221.638 23.1167 221.795 19.8815C224.996 20.0201 227.987 19.5843 231.044 20.238C231.613 23.2157 231.051 26.0019 230.437 29.2371ZM233.05 10.09C236.525 10.09 239.726 10.09 242.992 10.09C243.972 12.9291 243.651 15.5965 243.442 18.6138C239.876 18.3893 236.492 18.1714 232.939 17.9469C232.991 15.2663 232.37 12.8168 233.05 10.09ZM245.363 20.6605C249.184 19.9145 252.548 20.4427 255.997 20.7794C256.102 23.7307 256.468 26.3056 255.749 28.9532C252.202 28.425 248.727 29.1315 245.369 28.2468C245.363 25.685 245.363 23.3081 245.363 20.6605ZM209.175 10.2815C212.702 10.2815 215.994 10.2815 219.339 10.2815C219.822 12.8829 220.044 15.2201 219.855 17.6432C216.073 17.6432 212.578 17.6432 209.044 17.6432C208.731 15.1079 208.541 12.8366 209.175 10.2815ZM194.484 10.6512C194.588 13.1404 195.248 15.4512 194.549 17.6366C190.715 17.6366 187.09 17.6366 183.464 17.6366C183.464 15.1805 183.464 13.0347 183.464 10.6512C187.227 10.6512 190.734 10.6512 194.484 10.6512ZM181.426 19.9541C180.91 23.0572 181.256 25.9095 180.263 28.7882C178.291 29.1051 176.403 29.1051 174.437 28.8278C173.614 26.1142 173.418 23.46 173.921 20.6936C176.298 19.9937 178.604 19.7494 181.426 19.9541Z" fill="#06122E"/>
<path d="M250.596 36.0765C247.376 37.2055 244.528 36.5651 241.824 36.7433C227.603 37.6677 213.343 38.4798 199.129 36.9744C188.828 35.885 178.54 35.3964 168.2 35.7265C166.874 35.7662 165.554 35.8916 163.464 36.0236C165.28 34.0297 166.939 34.3268 168.435 34.2938C179.102 34.0561 189.736 34.6437 200.377 35.3766C216.028 36.4594 231.673 35.9576 247.291 34.5777C248.467 34.4787 248.467 34.4589 250.596 36.0765Z" fill="#06122E"/>
<path d="M253.161 4.44708C224.322 2.82288 195.75 2.55218 166.937 3.90569C167.623 5.87322 169.138 5.43745 170.438 5.39784C180.001 5.07432 189.558 4.57253 199.121 4.42728C212.27 4.2292 225.413 4.84983 238.555 5.29219C242.468 5.42424 246.381 5.39123 250.294 5.36482C251.175 5.35162 252.214 5.72796 253.161 4.44708Z" fill="#06122E"/>
<path d="M112.384 30.5425C112.384 23.2996 112.384 16.0237 112.384 8.16016C83.1393 8.31202 54.4828 8.77419 25.7609 8.32522C26.6885 16.1887 27.505 23.5109 26.7734 30.5887C55.2732 32.9986 84.0212 29.9152 112.384 30.5425ZM51.4388 29.7172C51.0469 26.5678 51.073 23.3986 51.282 20.0776C55.0315 20.0776 58.4282 20.0776 62.1515 20.0776C61.9359 23.4382 62.1058 26.5744 60.9235 29.7172C57.9187 29.7172 55.0119 29.7172 51.4388 29.7172ZM85.1186 29.2352C82.0746 29.2352 79.1939 29.2352 76.0323 29.2352C76.1826 26.132 76.3197 23.1147 76.4765 19.8795C79.6773 20.0182 82.669 19.5824 85.7261 20.236C86.2944 23.2137 85.7326 26 85.1186 29.2352ZM87.7314 10.0881C91.2066 10.0881 94.4073 10.0881 97.6734 10.0881C98.6532 12.9271 98.3331 15.5945 98.1241 18.6118C94.5575 18.3873 91.1739 18.1695 87.6204 17.945C87.6726 15.2644 87.0521 12.8149 87.7314 10.0881ZM100.045 20.6586C103.866 19.9125 107.23 20.4407 110.679 20.7774C110.783 23.7287 111.149 26.3037 110.431 28.9513C106.884 28.4231 103.409 29.1295 100.051 28.2448C100.045 25.6831 100.045 23.3062 100.045 20.6586ZM63.8564 10.2795C67.3838 10.2795 70.676 10.2795 74.0205 10.2795C74.5038 12.8809 74.7259 15.2182 74.5365 17.6413C70.7544 17.6413 67.2597 17.6413 63.7258 17.6413C63.4122 15.1059 63.2228 12.8347 63.8564 10.2795ZM49.1656 10.6493C49.2701 13.1384 49.9299 15.4493 49.2309 17.6347C45.3965 17.6347 41.7712 17.6347 38.1458 17.6347C38.1458 15.1786 38.1458 13.0328 38.1458 10.6493C41.9084 10.6493 45.4161 10.6493 49.1656 10.6493ZM36.1078 19.9521C35.5918 23.0553 35.938 25.9075 34.9451 28.7862C32.9724 29.1031 31.0846 29.1031 29.1184 28.8258C28.2953 26.1122 28.0994 23.458 28.6024 20.6916C30.9801 19.9918 33.2859 19.7475 36.1078 19.9521Z" fill="#06122E"/>
<path d="M105.278 36.0765C102.058 37.2055 99.2095 36.5651 96.5052 36.7433C82.2847 37.6677 68.025 38.4798 53.8111 36.9744C43.5098 35.885 33.2217 35.3964 22.8813 35.7265C21.5553 35.7662 20.2358 35.8916 18.1455 36.0236C19.9614 34.0297 21.6206 34.3268 23.1165 34.2938C33.7835 34.0561 44.4178 34.6437 55.0587 35.3766C70.7098 36.4594 86.3542 35.9576 101.973 34.5777C103.148 34.4787 103.148 34.4589 105.278 36.0765Z" fill="#06122E"/>
<path d="M107.843 4.44708C79.0033 2.82288 50.4317 2.55218 21.6183 3.90569C22.3042 5.87322 23.8197 5.43745 25.1196 5.39784C34.6826 5.07432 44.2392 4.57253 53.8022 4.42728C66.9515 4.2292 80.0942 4.84983 93.2368 5.29219C97.1496 5.42424 101.062 5.39123 104.975 5.36482C105.857 5.35162 106.896 5.72796 107.843 4.44708Z" fill="#06122E"/>
<path d="M174.598 415.54C174.598 408.298 174.598 401.022 174.598 393.158C145.353 393.31 116.697 393.772 87.9748 393.323C88.9023 401.187 89.7188 408.509 88.9872 415.587C117.487 417.997 146.235 414.913 174.598 415.54ZM113.653 414.715C113.261 411.566 113.287 408.397 113.496 405.076C117.245 405.076 120.642 405.076 124.365 405.076C124.15 408.436 124.32 411.572 123.137 414.715C120.133 414.715 117.226 414.715 113.653 414.715ZM147.332 414.233C144.288 414.233 141.408 414.233 138.246 414.233C138.396 411.13 138.534 408.113 138.69 404.878C141.891 405.016 144.883 404.58 147.94 405.234C148.508 408.212 147.946 410.998 147.332 414.233ZM149.945 395.086C153.42 395.086 156.621 395.086 159.887 395.086C160.867 397.925 160.547 400.593 160.338 403.61C156.771 403.385 153.388 403.168 149.834 402.943C149.886 400.262 149.266 397.813 149.945 395.086ZM162.258 405.657C166.08 404.911 169.444 405.439 172.893 405.775C172.997 408.727 173.363 411.302 172.645 413.949C169.098 413.421 165.622 414.128 162.265 413.243C162.258 410.681 162.258 408.304 162.258 405.657ZM126.07 395.278C129.598 395.278 132.89 395.278 136.234 395.278C136.718 397.879 136.94 400.216 136.75 402.639C132.968 402.639 129.474 402.639 125.94 402.639C125.626 400.104 125.437 397.833 126.07 395.278ZM111.379 395.647C111.484 398.136 112.144 400.447 111.445 402.633C107.61 402.633 103.985 402.633 100.36 402.633C100.36 400.177 100.36 398.031 100.36 395.647C104.122 395.647 107.63 395.647 111.379 395.647ZM98.3217 404.95C97.8056 408.053 98.1519 410.906 97.159 413.784C95.1863 414.101 93.2984 414.101 91.3323 413.824C90.5092 411.11 90.3133 408.456 90.8162 405.69C93.1939 404.99 95.4998 404.746 98.3217 404.95Z" fill="#06122E"/>
<path d="M88.268 421.071C91.4883 422.2 94.3364 421.559 97.0407 421.737C111.261 422.662 125.521 423.474 139.735 421.969C150.036 420.879 160.324 420.391 170.665 420.721C171.991 420.76 173.31 420.886 175.4 421.018C173.584 419.024 171.925 419.321 170.429 419.288C159.762 419.05 149.128 419.638 138.487 420.371C122.836 421.454 107.192 420.952 91.5733 419.572C90.3975 419.473 90.3975 419.453 88.268 421.071Z" fill="#06122E"/>
<path d="M172.939 389.445C144.1 387.821 115.528 387.55 86.715 388.904C87.4009 390.871 88.9163 390.435 90.2162 390.396C99.7793 390.072 109.336 389.571 118.899 389.425C132.048 389.227 145.191 389.848 158.334 390.29C162.246 390.422 166.159 390.389 170.072 390.363C170.954 390.35 171.992 390.726 172.939 389.445Z" fill="#06122E"/>
<path d="M247.372 415.542C247.372 408.3 247.372 401.024 247.372 393.16C218.128 393.312 189.471 393.774 160.749 393.325C161.677 401.189 162.493 408.511 161.762 415.589C190.261 417.999 219.009 414.915 247.372 415.542ZM186.427 414.717C186.035 411.568 186.061 408.399 186.27 405.078C190.02 405.078 193.416 405.078 197.14 405.078C196.924 408.438 197.094 411.574 195.912 414.717C192.907 414.717 190 414.717 186.427 414.717ZM220.107 414.235C217.063 414.235 214.182 414.235 211.021 414.235C211.171 411.132 211.308 408.115 211.465 404.88C214.666 405.018 217.657 404.582 220.714 405.236C221.283 408.214 220.721 411 220.107 414.235ZM222.72 395.088C226.195 395.088 229.396 395.088 232.662 395.088C233.641 397.927 233.321 400.595 233.112 403.612C229.546 403.387 226.162 403.169 222.609 402.945C222.661 400.264 222.04 397.815 222.72 395.088ZM235.033 405.659C238.854 404.913 242.218 405.441 245.667 405.777C245.772 408.729 246.138 411.304 245.419 413.951C241.872 413.423 238.397 414.13 235.039 413.245C235.033 410.683 235.033 408.306 235.033 405.659ZM198.845 395.28C202.372 395.28 205.664 395.28 209.009 395.28C209.492 397.881 209.714 400.218 209.525 402.641C205.743 402.641 202.248 402.641 198.714 402.641C198.401 400.106 198.211 397.835 198.845 395.28ZM184.154 395.649C184.258 398.138 184.918 400.449 184.219 402.635C180.385 402.635 176.759 402.635 173.134 402.635C173.134 400.179 173.134 398.033 173.134 395.649C176.897 395.649 180.404 395.649 184.154 395.649ZM171.096 404.952C170.58 408.055 170.926 410.908 169.933 413.786C167.961 414.103 166.073 414.103 164.107 413.826C163.284 411.112 163.088 408.458 163.591 405.692C165.968 404.992 168.274 404.747 171.096 404.952Z" fill="#06122E"/>
<path d="M240.266 421.075C237.046 422.204 234.198 421.563 231.493 421.741C217.273 422.666 203.013 423.478 188.799 421.972C178.498 420.883 168.21 420.394 157.87 420.725C156.544 420.764 155.224 420.89 153.134 421.022C154.95 419.028 156.609 419.325 158.105 419.292C168.772 419.054 179.406 419.642 190.047 420.375C205.698 421.457 221.343 420.956 236.961 419.576C238.137 419.477 238.137 419.457 240.266 421.075Z" fill="#06122E"/>
<path d="M242.831 389.445C213.992 387.821 185.42 387.55 156.607 388.904C157.292 390.871 158.808 390.435 160.108 390.396C169.671 390.072 179.227 389.571 188.791 389.425C201.94 389.227 215.082 389.848 228.225 390.29C232.138 390.422 236.051 390.389 239.963 390.363C240.845 390.35 241.884 390.726 242.831 389.445Z" fill="#06122E"/>
<path d="M102.055 415.54C102.055 408.298 102.055 401.022 102.055 393.158C72.8102 393.31 44.1537 393.772 15.4318 393.323C16.3594 401.187 17.1759 408.509 16.4443 415.587C44.9441 417.997 73.6921 414.913 102.055 415.54ZM41.1097 414.715C40.7178 411.566 40.7439 408.397 40.9529 405.076C44.7024 405.076 48.0991 405.076 51.8224 405.076C51.6068 408.436 51.7767 411.572 50.5944 414.715C47.5896 414.715 44.6828 414.715 41.1097 414.715ZM74.7895 414.233C71.7455 414.233 68.8648 414.233 65.7032 414.233C65.8535 411.13 65.9906 408.113 66.1474 404.878C69.3482 405.016 72.3399 404.58 75.397 405.234C75.9653 408.212 75.4035 410.998 74.7895 414.233ZM77.4023 395.086C80.8774 395.086 84.0782 395.086 87.3443 395.086C88.3241 397.925 88.004 400.593 87.795 403.61C84.2284 403.385 80.8448 403.168 77.2913 402.943C77.3435 400.262 76.723 397.813 77.4023 395.086ZM89.7154 405.657C93.5367 404.911 96.9008 405.439 100.35 405.775C100.454 408.727 100.82 411.302 100.102 413.949C96.5546 413.421 93.0795 414.128 89.722 413.243C89.7154 410.681 89.7154 408.304 89.7154 405.657ZM53.5273 395.278C57.0547 395.278 60.3469 395.278 63.6914 395.278C64.1747 397.879 64.3968 400.216 64.2074 402.639C60.4253 402.639 56.9306 402.639 53.3967 402.639C53.0831 400.104 52.8937 397.833 53.5273 395.278ZM38.8365 395.647C38.941 398.136 39.6008 400.447 38.9018 402.633C35.0674 402.633 31.4421 402.633 27.8167 402.633C27.8167 400.177 27.8167 398.031 27.8167 395.647C31.5793 395.647 35.087 395.647 38.8365 395.647ZM25.7787 404.95C25.2627 408.053 25.6089 410.906 24.616 413.784C22.6433 414.101 20.7555 414.101 18.7893 413.824C17.9662 411.11 17.7703 408.456 18.2733 405.69C20.651 404.99 22.9568 404.746 25.7787 404.95Z" fill="#06122E"/>
<path d="M94.9488 421.075C91.7285 422.204 88.8804 421.563 86.1761 421.741C71.9556 422.666 57.6959 423.478 43.482 421.972C33.1807 420.883 22.8926 420.394 12.5522 420.725C11.2262 420.764 9.9067 420.89 7.81641 421.022C9.63235 419.028 11.2915 419.325 12.7874 419.292C23.4544 419.054 34.0887 419.642 44.7296 420.375C60.3807 421.457 76.0251 420.956 91.6435 419.576C92.8193 419.477 92.8193 419.457 94.9488 421.075Z" fill="#06122E"/>
<path d="M97.5137 389.445C68.6742 387.821 40.1026 387.55 11.2892 388.904C11.9751 390.871 13.4906 390.435 14.7905 390.396C24.3535 390.072 33.9101 389.571 43.4731 389.425C56.6224 389.227 69.7651 389.848 82.9077 390.29C86.8205 390.422 90.7333 390.389 94.646 390.363C95.5279 390.35 96.5665 390.726 97.5137 389.445Z" fill="#06122E"/>
<path d="M28.271 94.9746C21.0281 94.9746 13.7522 94.9746 5.88867 94.9746C6.04053 123.581 6.50271 151.612 6.05374 179.707C13.9173 178.8 21.2394 178.001 28.3172 178.717C30.7271 150.839 27.6437 122.718 28.271 94.9746ZM27.4457 154.59C24.2963 154.973 21.1271 154.947 17.8061 154.743C17.8061 151.075 17.8061 147.753 17.8061 144.111C21.1667 144.322 24.3029 144.155 27.4457 145.312C27.4457 148.251 27.4457 151.095 27.4457 154.59ZM26.9637 121.645C26.9637 124.622 26.9637 127.44 26.9637 130.533C23.8605 130.386 20.8432 130.252 17.608 130.098C17.7467 126.967 17.3109 124.041 17.9646 121.051C20.9423 120.495 23.7285 121.044 26.9637 121.645ZM7.81659 119.089C7.81659 115.69 7.81659 112.559 7.81659 109.364C10.6556 108.406 13.323 108.719 16.3403 108.923C16.1159 112.412 15.898 115.722 15.6735 119.198C12.9929 119.147 10.5434 119.754 7.81659 119.089ZM18.3871 107.045C17.641 103.307 18.1692 100.016 18.5059 96.6423C21.4572 96.5401 24.0322 96.1822 26.6798 96.8851C26.1516 100.355 26.858 103.754 25.9733 107.038C23.4116 107.045 21.0347 107.045 18.3871 107.045ZM8.00806 142.443C8.00806 138.993 8.00806 135.772 8.00806 132.501C10.6094 132.028 12.9467 131.811 15.3698 131.996C15.3698 135.696 15.3698 139.114 15.3698 142.571C12.8345 142.878 10.5632 143.063 8.00806 142.443ZM8.37781 156.813C10.8669 156.711 13.1778 156.066 15.3632 156.749C15.3632 160.5 15.3632 164.046 15.3632 167.593C12.9071 167.593 10.7613 167.593 8.37781 167.593C8.37781 163.912 8.37781 160.481 8.37781 156.813ZM17.6807 169.586C20.7838 170.091 23.6361 169.752 26.5147 170.723C26.8316 172.653 26.8316 174.5 26.5543 176.423C23.8407 177.228 21.1866 177.42 18.4201 176.928C17.7203 174.602 17.476 172.346 17.6807 169.586Z" fill="#06122E"/>
<path d="M33.804 179.42C34.933 176.27 34.2926 173.485 34.4709 170.839C35.3952 156.929 36.2073 142.981 34.7019 129.077C33.6125 119 33.124 108.937 33.4541 98.8219C33.4937 97.5248 33.6191 96.2341 33.7512 94.1895C31.7572 95.9658 32.0544 97.5887 32.0214 99.0519C31.7837 109.486 32.3713 119.888 33.1042 130.297C34.187 145.607 33.6852 160.91 32.3053 176.187C32.2062 177.337 32.1864 177.337 33.804 179.42Z" fill="#06122E"/>
<path d="M2.17755 96.5957C0.553351 124.806 0.282655 152.754 1.63616 180.939C3.60369 180.268 3.16792 178.785 3.12831 177.514C2.80479 168.159 2.303 158.811 2.15775 149.457C1.95967 136.595 2.5803 123.739 3.02266 110.883C3.15471 107.056 3.1217 103.228 3.09529 99.4008C3.08208 98.5382 3.45842 97.5222 2.17755 96.5957Z" fill="#06122E"/>
<path d="M28.271 237.537C21.0281 237.537 13.7522 237.537 5.88867 237.537C6.04053 266.143 6.50271 294.175 6.05374 322.27C13.9173 321.362 21.2394 320.564 28.3172 321.279C30.7271 293.401 27.6437 265.281 28.271 237.537ZM27.4457 297.152C24.2963 297.536 21.1271 297.51 17.8061 297.306C17.8061 293.638 17.8061 290.315 17.8061 286.673C21.1667 286.884 24.3029 286.718 27.4457 287.874C27.4457 290.814 27.4457 293.657 27.4457 297.152ZM26.9637 264.207C26.9637 267.185 26.9637 270.003 26.9637 273.095C23.8605 272.948 20.8432 272.814 17.608 272.661C17.7467 269.53 17.3109 266.603 17.9646 263.613C20.9423 263.057 23.7285 263.607 26.9637 264.207ZM7.81659 261.651C7.81659 258.252 7.81659 255.121 7.81659 251.927C10.6556 250.968 13.323 251.281 16.3403 251.486C16.1159 254.974 15.898 258.284 15.6735 261.76C12.9929 261.709 10.5434 262.316 7.81659 261.651ZM18.3871 249.607C17.641 245.869 18.1692 242.579 18.5059 239.205C21.4572 239.103 24.0322 238.745 26.6798 239.448C26.1516 242.917 26.858 246.316 25.9733 249.601C23.4116 249.607 21.0347 249.607 18.3871 249.607ZM8.00806 285.006C8.00806 281.555 8.00806 278.335 8.00806 275.063C10.6094 274.59 12.9467 274.373 15.3698 274.559C15.3698 278.258 15.3698 281.677 15.3698 285.133C12.8345 285.44 10.5632 285.625 8.00806 285.006ZM8.37781 299.376C10.8669 299.274 13.1778 298.628 15.3632 299.312C15.3632 303.063 15.3632 306.609 15.3632 310.155C12.9071 310.155 10.7613 310.155 8.37781 310.155C8.37781 306.475 8.37781 303.043 8.37781 299.376ZM17.6807 312.149C20.7838 312.653 23.6361 312.315 26.5147 313.286C26.8316 315.216 26.8316 317.062 26.5543 318.985C23.8407 319.791 21.1866 319.982 18.4201 319.49C17.7203 317.164 17.476 314.909 17.6807 312.149Z" fill="#06122E"/>
<path d="M33.804 321.983C34.933 318.833 34.2926 316.047 34.4709 313.402C35.3952 299.492 36.2073 285.543 34.7019 271.639C33.6125 261.563 33.124 251.499 33.4541 241.384C33.4937 240.087 33.6191 238.797 33.7512 236.752C31.7572 238.528 32.0544 240.151 32.0214 241.614C31.7837 252.049 32.3713 262.451 33.1042 272.86C34.187 288.169 33.6852 303.472 32.3053 318.75C32.2062 319.9 32.1864 319.9 33.804 321.983Z" fill="#06122E"/>
<path d="M2.17755 239.158C0.553351 267.368 0.282655 295.316 1.63616 323.501C3.60369 322.83 3.16792 321.348 3.12831 320.076C2.80479 310.722 2.303 301.374 2.15775 292.019C1.95967 279.157 2.5803 266.301 3.02266 253.445C3.15471 249.618 3.1217 245.791 3.09529 241.963C3.08208 241.101 3.45842 240.085 2.17755 239.158Z" fill="#06122E"/>
<path d="M28.2729 23.7871C21.03 23.7871 13.7541 23.7871 5.89062 23.7871C6.04249 52.3934 6.50466 80.4246 6.0557 108.52C13.9192 107.612 21.2413 106.814 28.3191 107.529C30.729 79.6515 27.6457 51.5308 28.2729 23.7871ZM27.4476 83.4022C24.2983 83.7855 21.1291 83.76 17.8081 83.5555C17.8081 79.8879 17.8081 76.5653 17.808 72.9232C21.1687 73.1341 24.3049 72.968 27.4476 74.1245C27.4476 77.0637 27.4476 79.9071 27.4476 83.4022ZM26.9656 50.4573C26.9656 53.4349 26.9656 56.2527 26.9656 59.3453C23.8625 59.1983 20.8452 59.0642 17.61 58.9108C17.7486 55.7799 17.3129 52.8534 17.9665 49.8631C20.9442 49.3072 23.7304 49.8567 26.9656 50.4573ZM7.81855 47.9015C7.81855 44.5022 7.81855 41.3713 7.81855 38.1765C10.6576 37.2181 13.325 37.5312 16.3423 37.7356C16.1178 41.2244 15.8999 44.5342 15.6755 48.0101C12.9949 47.959 10.5454 48.566 7.81855 47.9015ZM18.3891 35.8571C17.643 32.1192 18.1712 28.8285 18.5079 25.4548C21.4592 25.3526 24.0342 24.9947 26.6817 25.6976C26.1535 29.1672 26.86 32.5664 25.9753 35.8507C23.4135 35.8571 21.0366 35.8571 18.3891 35.8571ZM8.01002 71.2555C8.01002 67.8051 8.01002 64.5848 8.01001 61.3133C10.6114 60.8404 12.9486 60.6232 15.3717 60.8085C15.3717 64.5081 15.3717 67.9265 15.3717 71.3833C12.8364 71.69 10.5652 71.8753 8.01002 71.2555ZM8.37976 85.6258C10.8689 85.5235 13.1797 84.8782 15.3651 85.5619C15.3651 89.3126 15.3652 92.8588 15.3652 96.4051C12.909 96.4051 10.7632 96.4051 8.37976 96.4051C8.37976 92.7246 8.37976 89.2934 8.37976 85.6258ZM17.6826 98.3986C20.7858 98.9034 23.638 98.5647 26.5167 99.5359C26.8336 101.466 26.8336 103.312 26.5563 105.235C23.8427 106.041 21.1885 106.232 18.4221 105.74C17.7222 103.414 17.4779 101.159 17.6826 98.3986Z" fill="#06122E"/>
<path d="M33.804 30.7397C34.933 33.8897 34.2926 36.6757 34.4709 39.321C35.3952 53.2311 36.2073 67.1796 34.7019 81.0834C33.6125 91.1599 33.124 101.223 33.4541 111.338C33.4937 112.635 33.6191 113.926 33.7512 115.971C31.7572 114.194 32.0544 112.571 32.0213 111.108C31.7837 100.674 32.3713 90.2717 33.1041 79.863C34.1869 64.5535 33.6852 49.2504 32.3052 33.9728C32.2062 32.8227 32.1864 32.8227 33.804 30.7397Z" fill="#06122E"/>
<path d="M2.17755 28.2285C0.553351 56.4386 0.282655 84.3868 1.63616 112.571C3.60369 111.9 3.16792 110.418 3.12831 109.147C2.80479 99.7922 2.303 90.4442 2.15775 81.0898C1.95967 68.2275 2.5803 55.3716 3.02266 42.5157C3.15471 38.6883 3.1217 34.8609 3.09529 31.0336C3.08208 30.171 3.45842 29.155 2.17755 28.2285Z" fill="#06122E"/>
<path d="M7.45169 92.6523C14.6946 92.6523 21.9705 92.6523 29.834 92.6523C29.6821 64.0461 29.22 36.0148 29.6689 7.91972C21.8054 8.82705 14.4833 9.62574 7.40547 8.9101C4.99557 36.788 8.07892 64.9087 7.45169 92.6523ZM8.27699 33.0373C11.4264 32.6539 14.5955 32.6795 17.9166 32.8839C17.9166 36.5516 17.9166 39.8741 17.9166 43.5162C14.5559 43.3054 11.4198 43.4715 8.27699 42.315C8.27699 39.3758 8.27699 36.5324 8.27699 33.0373ZM8.75897 65.9821C8.75897 63.0046 8.75897 60.1867 8.75897 57.0941C11.8621 57.2411 14.8794 57.3753 18.1146 57.5286C17.976 60.6595 18.4117 63.586 17.7581 66.5763C14.7804 67.1322 11.9942 66.5827 8.75897 65.9821ZM27.9061 68.538C27.9061 71.9372 27.9061 75.0681 27.9061 78.2629C25.067 79.2214 22.3996 78.9083 19.3823 78.7038C19.6068 75.2151 19.8247 71.9053 20.0492 68.4293C22.7298 68.4804 25.1793 67.8734 27.9061 68.538ZM17.3356 80.5824C18.0816 84.3203 17.5534 87.611 17.2167 90.9847C14.2654 91.0869 11.6905 91.4447 9.04288 90.7419C9.57107 87.2723 8.86461 83.873 9.74934 80.5888C12.3111 80.5824 14.688 80.5824 17.3356 80.5824ZM27.7146 45.1839C27.7146 48.6343 27.7146 51.8547 27.7146 55.1262C25.1132 55.599 22.776 55.8162 20.3529 55.6309C20.3529 51.9314 20.3529 48.5129 20.3529 45.0561C22.8882 44.7494 25.1595 44.5641 27.7146 45.1839ZM27.3449 30.8137C24.8557 30.9159 22.5449 31.5613 20.3595 30.8776C20.3595 27.1269 20.3595 23.5806 20.3595 20.0344C22.8156 20.0344 24.9614 20.0344 27.3449 20.0344C27.3449 23.7148 27.3449 27.146 27.3449 30.8137ZM18.042 18.0408C14.9389 17.5361 12.0866 17.8747 9.20793 16.9035C8.89101 14.9739 8.89102 13.1272 9.16832 11.204C11.8819 10.3989 14.5361 10.2072 17.3025 10.6992C18.0024 13.025 18.2467 15.2805 18.042 18.0408Z" fill="#06122E"/>
<path d="M1.9206 85.6998C0.791586 82.5497 1.43202 79.7638 1.25375 77.1185C0.329407 63.2083 -0.482688 49.2598 1.02267 35.356C2.11207 25.2796 2.60065 15.216 2.27053 5.10122C2.23091 3.80413 2.10547 2.51343 1.97342 0.46875C3.96736 2.24506 3.67025 3.86801 3.70326 5.33123C3.94095 15.7655 3.35333 26.1678 2.62046 36.5765C1.53766 51.886 2.03945 67.189 3.41936 82.4666C3.51839 83.6167 3.5382 83.6168 1.9206 85.6998Z" fill="#06122E"/>
<path d="M33.5471 88.2109C35.1713 60.0008 35.442 32.0527 34.0885 3.86808C32.1209 4.53899 32.5567 6.02137 32.5963 7.29291C32.9198 16.6473 33.4216 25.9953 33.5669 35.3497C33.7649 48.212 33.1443 61.0678 32.7019 73.9237C32.5699 77.7511 32.6029 81.5785 32.6293 85.4059C32.6425 86.2685 32.2662 87.2844 33.5471 88.2109Z" fill="#06122E"/>
<path d="M28.271 165.934C21.0281 165.934 13.7522 165.934 5.88867 165.934C6.04053 194.54 6.50271 222.571 6.05374 250.666C13.9173 249.759 21.2394 248.96 28.3172 249.676C30.7271 221.798 27.6437 193.677 28.271 165.934ZM27.4457 225.549C24.2963 225.932 21.1271 225.906 17.8061 225.702C17.8061 222.034 17.8061 218.712 17.8061 215.07C21.1667 215.281 24.3029 215.114 27.4457 216.271C27.4457 219.21 27.4457 222.054 27.4457 225.549ZM26.9637 192.604C26.9637 195.581 26.9637 198.399 26.9637 201.492C23.8605 201.345 20.8432 201.211 17.608 201.057C17.7467 197.926 17.3109 195 17.9646 192.01C20.9423 191.454 23.7285 192.003 26.9637 192.604ZM7.81659 190.048C7.81659 186.649 7.81659 183.518 7.81659 180.323C10.6556 179.365 13.323 179.678 16.3403 179.882C16.1159 183.371 15.898 186.681 15.6735 190.157C12.9929 190.106 10.5434 190.712 7.81659 190.048ZM18.3871 178.004C17.641 174.266 18.1692 170.975 18.5059 167.601C21.4572 167.499 24.0322 167.141 26.6798 167.844C26.1516 171.314 26.858 174.713 25.9733 177.997C23.4116 178.004 21.0347 178.004 18.3871 178.004ZM8.00806 213.402C8.00806 209.952 8.00806 206.731 8.00806 203.46C10.6094 202.987 12.9467 202.77 15.3698 202.955C15.3698 206.655 15.3698 210.073 15.3698 213.53C12.8345 213.836 10.5632 214.022 8.00806 213.402ZM8.37781 227.772C10.8669 227.67 13.1778 227.025 15.3632 227.708C15.3632 231.459 15.3632 235.005 15.3632 238.552C12.9071 238.552 10.7613 238.552 8.37781 238.552C8.37781 234.871 8.37781 231.44 8.37781 227.772ZM17.6807 240.545C20.7838 241.05 23.6361 240.711 26.5147 241.682C26.8316 243.612 26.8316 245.459 26.5543 247.382C23.8407 248.187 21.1866 248.379 18.4201 247.887C17.7203 245.561 17.476 243.305 17.6807 240.545Z" fill="#06122E"/>
<path d="M33.804 172.886C34.933 176.036 34.2926 178.822 34.4709 181.467C35.3952 195.378 36.2073 209.326 34.7019 223.23C33.6125 233.306 33.124 243.37 33.4541 253.485C33.4937 254.782 33.6191 256.073 33.7512 258.117C31.7572 256.341 32.0544 254.718 32.0213 253.255C31.7837 242.82 32.3713 232.418 33.1041 222.009C34.1869 206.7 33.6852 191.397 32.3052 176.119C32.2062 174.969 32.1864 174.969 33.804 172.886Z" fill="#06122E"/>
<path d="M2.17755 170.373C0.553351 198.583 0.282655 226.531 1.63616 254.716C3.60369 254.045 3.16792 252.563 3.12831 251.291C2.80479 241.937 2.303 232.589 2.15775 223.234C1.95967 210.372 2.5803 197.516 3.02266 184.66C3.15471 180.833 3.1217 177.005 3.09529 173.178C3.08208 172.315 3.45842 171.3 2.17755 170.373Z" fill="#06122E"/>
<path d="M28.271 308.496C21.0281 308.496 13.7522 308.496 5.88867 308.496C6.04053 337.102 6.50271 365.134 6.05374 393.229C13.9173 392.321 21.2394 391.523 28.3172 392.238C30.7271 364.36 27.6437 336.24 28.271 308.496ZM27.4457 368.111C24.2963 368.495 21.1271 368.469 17.8061 368.264C17.8061 364.597 17.8061 361.274 17.8061 357.632C21.1667 357.843 24.3029 357.677 27.4457 358.833C27.4457 361.773 27.4457 364.616 27.4457 368.111ZM26.9637 335.166C26.9637 338.144 26.9637 340.962 26.9637 344.054C23.8605 343.907 20.8432 343.773 17.608 343.62C17.7467 340.489 17.3109 337.562 17.9646 334.572C20.9423 334.016 23.7285 334.566 26.9637 335.166ZM7.81659 332.61C7.81659 329.211 7.81659 326.08 7.81659 322.886C10.6556 321.927 13.323 322.24 16.3403 322.445C16.1159 325.933 15.898 329.243 15.6735 332.719C12.9929 332.668 10.5434 333.275 7.81659 332.61ZM18.3871 320.566C17.641 316.828 18.1692 313.537 18.5059 310.164C21.4572 310.062 24.0322 309.704 26.6798 310.407C26.1516 313.876 26.858 317.275 25.9733 320.56C23.4116 320.566 21.0347 320.566 18.3871 320.566ZM8.00806 355.964C8.00806 352.514 8.00806 349.294 8.00806 346.022C10.6094 345.549 12.9467 345.332 15.3698 345.518C15.3698 349.217 15.3698 352.636 15.3698 356.092C12.8345 356.399 10.5632 356.584 8.00806 355.964ZM8.37781 370.335C10.8669 370.233 13.1778 369.587 15.3632 370.271C15.3632 374.022 15.3632 377.568 15.3632 381.114C12.9071 381.114 10.7613 381.114 8.37781 381.114C8.37781 377.434 8.37781 374.002 8.37781 370.335ZM17.6807 383.108C20.7838 383.612 23.6361 383.274 26.5147 384.245C26.8316 386.175 26.8316 388.021 26.5543 389.944C23.8407 390.75 21.1866 390.941 18.4201 390.449C17.7203 388.123 17.476 385.868 17.6807 383.108Z" fill="#06122E"/>
<path d="M33.804 315.449C34.933 318.599 34.2926 321.385 34.4709 324.03C35.3952 337.94 36.2073 351.889 34.7019 365.792C33.6125 375.869 33.124 385.932 33.4541 396.047C33.4937 397.344 33.6191 398.635 33.7512 400.68C31.7572 398.903 32.0544 397.28 32.0213 395.817C31.7837 385.383 32.3713 374.981 33.1041 364.572C34.1869 349.262 33.6852 333.959 32.3052 318.682C32.2062 317.532 32.1864 317.532 33.804 315.449Z" fill="#06122E"/>
<path d="M2.17755 312.937C0.553351 341.148 0.282655 369.096 1.63616 397.28C3.60369 396.609 3.16792 395.127 3.12831 393.856C2.80479 384.501 2.303 375.153 2.15775 365.799C1.95967 352.936 2.5803 340.081 3.02266 327.225C3.15471 323.397 3.1217 319.57 3.09529 315.743C3.08208 314.88 3.45842 313.864 2.17755 312.937Z" fill="#06122E"/>
<path d="M171.699 176.48H161.699V166.48H111.699V176.48H101.699C96.1992 176.48 91.6992 180.98 91.6992 186.48V191.48C91.6992 204.23 101.299 214.63 113.649 216.18C115.23 219.927 117.7 223.233 120.845 225.811C123.99 228.39 127.715 230.164 131.699 230.98V246.48H111.699V256.48H161.699V246.48H141.699V230.98C145.683 230.164 149.409 228.39 152.553 225.811C155.698 223.233 158.168 219.927 159.749 216.18C172.099 214.63 181.699 204.23 181.699 191.48V186.48C181.699 180.98 177.199 176.48 171.699 176.48ZM101.699 191.48V186.48H111.699V205.58C105.899 203.48 101.699 197.98 101.699 191.48ZM171.699 191.48C171.699 197.98 167.499 203.48 161.699 205.58V186.48H171.699V191.48Z" fill="#06122E"/>
</svg>
