<svg width="92" height="96" viewBox="0 0 92 96" fill="none" xmlns="http://www.w3.org/2000/svg">
<rect x="5.26562" y="9.93164" width="80" height="80" fill="#F74061"/>
<path d="M89.0594 91.1699C86.9371 91.1699 84.8051 91.1699 82.501 91.1699C82.5455 82.7208 82.6809 74.4415 82.5493 66.1433C84.8535 66.4113 86.999 66.6472 89.0729 66.4359C89.779 74.6699 88.8756 82.9756 89.0594 91.1699ZM88.8175 73.5621C87.8947 73.4488 86.9661 73.4564 85.993 73.5168C85.993 74.6 85.993 75.5814 85.993 76.6571C86.9777 76.5948 87.8966 76.6439 88.8175 76.3023C88.8175 75.4342 88.8175 74.5944 88.8175 73.5621ZM88.6763 83.2926C88.6763 82.4132 88.6763 81.5809 88.6763 80.6675C87.767 80.7109 86.8829 80.7505 85.9349 80.7958C85.9756 81.7205 85.8479 82.5849 86.0394 83.4681C86.9119 83.6323 87.7283 83.47 88.6763 83.2926ZM83.0659 84.0475C83.0659 85.0515 83.0659 85.9763 83.0659 86.9199C83.8978 87.203 84.6794 87.1105 85.5635 87.0501C85.4977 86.0197 85.4339 85.0421 85.3681 84.0154C84.5826 84.0305 83.8649 83.8512 83.0659 84.0475ZM86.1632 87.6049C85.9446 88.709 86.0994 89.6809 86.198 90.6774C87.0628 90.7076 87.8173 90.8132 88.5931 90.6056C88.4383 89.5809 88.6453 88.5769 88.3861 87.6068C87.6355 87.6049 86.939 87.6049 86.1632 87.6049ZM83.122 77.1497C83.122 78.1688 83.122 79.12 83.122 80.0862C83.8842 80.2259 84.5691 80.29 85.2791 80.2353C85.2791 79.1426 85.2791 78.1329 85.2791 77.1119C84.5362 77.0213 83.8707 76.9666 83.122 77.1497ZM83.2303 72.9053C83.9597 72.9355 84.6368 73.1261 85.2772 72.9242C85.2772 71.8164 85.2772 70.7689 85.2772 69.7215C84.5575 69.7215 83.9287 69.7215 83.2303 69.7215C83.2303 70.8086 83.2303 71.822 83.2303 72.9053ZM85.9562 69.1327C86.8655 68.9836 87.7013 69.0837 88.5447 68.7968C88.6376 68.2268 88.6376 67.6814 88.5564 67.1134C87.7612 66.8756 86.9835 66.819 86.1729 66.9643C85.9678 67.6512 85.8962 68.3174 85.9562 69.1327Z" fill="#06122E"/>
<path d="M90.6797 66.2286C91.0105 67.159 90.8228 67.9818 90.8751 68.7631C91.1459 72.8716 91.3839 76.9914 90.9428 81.0981C90.6235 84.0742 90.4804 87.0466 90.5771 90.0341C90.5887 90.4172 90.6255 90.7984 90.6642 91.4023C90.0799 90.8777 90.167 90.3983 90.1573 89.9662C90.0877 86.8843 90.2598 83.8119 90.4746 80.7376C90.7919 76.2158 90.6448 71.6959 90.2405 67.1835C90.2115 66.8438 90.2057 66.8438 90.6797 66.2286Z" fill="#06122E"/>
<path d="M81.4126 90.6934C80.9367 82.3612 80.8573 74.1065 81.2539 65.7819C81.8305 65.9801 81.7028 66.4179 81.6912 66.7935C81.5964 69.5564 81.4493 72.3174 81.4068 75.0803C81.3487 78.8793 81.5306 82.6764 81.6602 86.4735C81.6989 87.604 81.6892 88.7344 81.6815 89.8649C81.6776 90.1196 81.7879 90.4197 81.4126 90.6934Z" fill="#06122E"/>
<path d="M89.0584 49.1836C86.9361 49.1836 84.8041 49.1836 82.5 49.1836C82.5445 40.7345 82.6799 32.4552 82.5484 24.157C84.8525 24.425 86.998 24.6609 89.0719 24.4495C89.7781 32.6835 88.8746 40.9892 89.0584 49.1836ZM88.8166 31.5757C87.8937 31.4625 86.9651 31.47 85.992 31.5304C85.992 32.6137 85.992 33.5951 85.992 34.6708C86.9767 34.6085 87.8957 34.6576 88.8166 34.316C88.8166 33.4479 88.8166 32.608 88.8166 31.5757ZM88.6753 41.3063C88.6753 40.4268 88.6753 39.5946 88.6753 38.6811C87.766 38.7246 86.8819 38.7642 85.934 38.8095C85.9746 39.7342 85.8469 40.5986 86.0384 41.4818C86.9109 41.646 87.7274 41.4837 88.6753 41.3063ZM83.0649 42.0612C83.0649 43.0652 83.0649 43.9899 83.0649 44.9335C83.8968 45.2166 84.6784 45.1242 85.5625 45.0638C85.4967 44.0333 85.4329 43.0557 85.3671 42.0291C84.5817 42.0442 83.8639 41.8649 83.0649 42.0612ZM86.1622 45.6186C85.9436 46.7226 86.0984 47.6946 86.1971 48.691C87.0618 48.7212 87.8163 48.8269 88.5921 48.6193C88.4374 47.5945 88.6444 46.5905 88.3851 45.6205C87.6345 45.6186 86.938 45.6186 86.1622 45.6186ZM83.121 35.1634C83.121 36.1825 83.121 37.1336 83.121 38.0999C83.8833 38.2395 84.5681 38.3037 85.2781 38.249C85.2781 37.1563 85.2781 36.1466 85.2781 35.1256C84.5352 35.035 83.8697 34.9803 83.121 35.1634ZM83.2294 30.919C83.9587 30.9492 84.6358 31.1398 85.2762 30.9378C85.2762 29.83 85.2762 28.7826 85.2762 27.7352C84.5565 27.7352 83.9278 27.7352 83.2294 27.7352C83.2294 28.8222 83.2294 29.8357 83.2294 30.919ZM85.9552 27.1464C86.8645 26.9973 87.7003 27.0973 88.5438 26.8105C88.6366 26.2405 88.6366 25.6951 88.5554 25.127C87.7602 24.8893 86.9825 24.8326 86.1719 24.978C85.9669 25.6649 85.8953 26.3311 85.9552 27.1464Z" fill="#06122E"/>
<path d="M90.6797 24.2422C91.0105 25.1726 90.8228 25.9955 90.8751 26.7768C91.1459 30.8853 91.3839 35.0051 90.9428 39.1117C90.6235 42.0879 90.4804 45.0603 90.5771 48.0478C90.5887 48.4309 90.6255 48.8121 90.6642 49.416C90.0799 48.8914 90.167 48.412 90.1573 47.9798C90.0877 44.898 90.2598 41.8256 90.4746 38.7513C90.7919 34.2295 90.6448 29.7095 90.2405 25.1972C90.2115 24.8575 90.2057 24.8575 90.6797 24.2422Z" fill="#06122E"/>
<path d="M81.4126 48.707C80.9367 40.3749 80.8573 32.1202 81.2539 23.7956C81.8305 23.9937 81.7028 24.4316 81.6912 24.8071C81.5964 27.57 81.4493 30.331 81.4068 33.094C81.3487 36.893 81.5306 40.6901 81.6602 44.4872C81.6989 45.6176 81.6892 46.7481 81.6815 47.8785C81.6776 48.1333 81.7879 48.4334 81.4126 48.707Z" fill="#06122E"/>
<path d="M89.0594 70.207C86.9371 70.207 84.8051 70.207 82.501 70.207C82.5455 61.7579 82.6809 53.4786 82.5493 45.1805C84.8535 45.4484 86.999 45.6843 89.0729 45.473C89.779 53.707 88.8756 62.0127 89.0594 70.207ZM88.8175 52.5992C87.8947 52.4859 86.9661 52.4935 85.993 52.5539C85.993 53.6371 85.993 54.6185 85.993 55.6942C86.9777 55.6319 87.8966 55.681 88.8175 55.3394C88.8175 54.4713 88.8175 53.6315 88.8175 52.5992ZM88.6763 62.3297C88.6763 61.4503 88.6763 60.618 88.6763 59.7046C87.767 59.748 86.8829 59.7876 85.9349 59.8329C85.9756 60.7577 85.8479 61.622 86.0394 62.5052C86.9119 62.6694 87.7283 62.5071 88.6763 62.3297ZM83.0659 63.0846C83.0659 64.0886 83.0659 65.0134 83.0659 65.957C83.8978 66.2401 84.6794 66.1476 85.5635 66.0872C85.4977 65.0568 85.4339 64.0792 85.3681 63.0525C84.5826 63.0676 83.8649 62.8883 83.0659 63.0846ZM86.1632 66.642C85.9446 67.7461 86.0994 68.718 86.198 69.7145C87.0628 69.7447 87.8173 69.8503 88.5931 69.6428C88.4383 68.618 88.6453 67.614 88.3861 66.6439C87.6355 66.6421 86.939 66.642 86.1632 66.642ZM83.122 56.1868C83.122 57.2059 83.122 58.1571 83.122 59.1233C83.8842 59.263 84.5691 59.3271 85.2791 59.2724C85.2791 58.1797 85.2791 57.17 85.2791 56.149C84.5362 56.0585 83.8707 56.0037 83.122 56.1868ZM83.2303 51.9424C83.9597 51.9726 84.6368 52.1632 85.2772 51.9613C85.2772 50.8535 85.2772 49.8061 85.2772 48.7586C84.5575 48.7586 83.9287 48.7586 83.2303 48.7586C83.2303 49.8457 83.2303 50.8591 83.2303 51.9424ZM85.9562 48.1698C86.8655 48.0207 87.7013 48.1208 88.5447 47.8339C88.6376 47.264 88.6376 46.7185 88.5564 46.1505C87.7612 45.9127 86.9835 45.8561 86.1729 46.0014C85.9678 46.6883 85.8962 47.3545 85.9562 48.1698Z" fill="#06122E"/>
<path d="M90.6796 68.1543C91.0105 67.2239 90.8228 66.401 90.875 65.6197C91.1459 61.5112 91.3838 57.3914 90.9428 53.2848C90.6235 50.3086 90.4804 47.3362 90.5771 44.3487C90.5887 43.9656 90.6255 43.5844 90.6642 42.9805C90.0799 43.5051 90.167 43.9845 90.1573 44.4166C90.0877 47.4985 90.2598 50.5709 90.4746 53.6452C90.7919 58.167 90.6448 62.6869 90.2405 67.1993C90.2115 67.539 90.2057 67.539 90.6796 68.1543Z" fill="#06122E"/>
<path d="M81.4126 68.8965C80.9367 60.5644 80.8573 52.3096 81.2539 43.985C81.8305 44.1832 81.7028 44.621 81.6912 44.9966C81.5964 47.7595 81.4493 50.5205 81.4068 53.2834C81.3487 57.0824 81.5306 60.8795 81.6602 64.6766C81.6989 65.8071 81.6892 66.9375 81.6815 68.068C81.6776 68.3228 81.7879 68.6228 81.4126 68.8965Z" fill="#06122E"/>
<path d="M89.0584 28.2266C86.9361 28.2266 84.8041 28.2266 82.5 28.2266C82.5445 19.7774 82.6799 11.4981 82.5484 3.19999C84.8525 3.46797 86.998 3.70387 89.0719 3.4925C89.7781 11.7265 88.8746 20.0322 89.0584 28.2266ZM88.8166 10.6187C87.8937 10.5055 86.9651 10.513 85.992 10.5734C85.992 11.6567 85.992 12.638 85.992 13.7137C86.9767 13.6515 87.8957 13.7005 88.8166 13.3589C88.8166 12.4908 88.8166 11.651 88.8166 10.6187ZM88.6753 20.3493C88.6753 19.4698 88.6753 18.6375 88.6753 17.7241C87.766 17.7675 86.8819 17.8072 85.934 17.8524C85.9746 18.7772 85.8469 19.6415 86.0384 20.5248C86.9109 20.689 87.7274 20.5267 88.6753 20.3493ZM83.0649 21.1042C83.0649 22.1082 83.0649 23.0329 83.0649 23.9765C83.8968 24.2596 84.6784 24.1671 85.5625 24.1067C85.4967 23.0763 85.4329 22.0987 85.3671 21.0721C84.5817 21.0872 83.8639 20.9079 83.0649 21.1042ZM86.1622 24.6616C85.9436 25.7656 86.0984 26.7375 86.1971 27.734C87.0618 27.7642 87.8163 27.8699 88.5921 27.6623C88.4374 26.6375 88.6444 25.6335 88.3851 24.6635C87.6345 24.6616 86.938 24.6616 86.1622 24.6616ZM83.121 14.2063C83.121 15.2254 83.121 16.1766 83.121 17.1429C83.8833 17.2825 84.5681 17.3467 85.2781 17.2919C85.2781 16.1992 85.2781 15.1896 85.2781 14.1686C84.5352 14.078 83.8697 14.0233 83.121 14.2063ZM83.2294 9.96193C83.9587 9.99212 84.6358 10.1827 85.2762 9.98081C85.2762 8.873 85.2762 7.82558 85.2762 6.77817C84.5565 6.77817 83.9278 6.77817 83.2294 6.77817C83.2294 7.86522 83.2294 8.87866 83.2294 9.96193ZM85.9552 6.18935C86.8645 6.04026 87.7003 6.14029 88.5438 5.85343C88.6366 5.28349 88.6366 4.73807 88.5554 4.17001C87.7602 3.93222 86.9825 3.87561 86.1719 4.02093C85.9669 4.70788 85.8953 5.37407 85.9552 6.18935Z" fill="#06122E"/>
<path d="M90.6796 26.1718C91.0105 25.2414 90.8228 24.4186 90.875 23.6373C91.1459 19.5288 91.3838 15.4089 90.9428 11.3023C90.6235 8.32616 90.4804 5.35378 90.5771 2.36629C90.5887 1.98318 90.6255 1.60196 90.6642 0.998047C90.0799 1.5227 90.167 2.00205 90.1573 2.43423C90.0877 5.51608 90.2598 8.58849 90.4746 11.6628C90.7919 16.1846 90.6448 20.7045 90.2405 25.2169C90.2115 25.5566 90.2057 25.5566 90.6796 26.1718Z" fill="#06122E"/>
<path d="M81.4126 26.916C80.9367 18.5839 80.8573 10.3291 81.2539 2.00456C81.8305 2.20272 81.7028 2.64055 81.6912 3.01611C81.5964 5.77902 81.4493 8.54003 81.4068 11.3029C81.3487 15.1019 81.5306 18.899 81.6602 22.6962C81.6989 23.8266 81.6892 24.9571 81.6815 26.0875C81.6776 26.3423 81.7879 26.6424 81.4126 26.916Z" fill="#06122E"/>
<path d="M50.8701 86.145C50.8701 88.2843 50.8701 90.4333 50.8701 92.7559C42.301 92.711 33.9042 92.5745 25.4882 92.7071C25.76 90.3845 25.9992 88.2219 25.7849 86.1314C34.1358 85.4196 42.5594 86.3303 50.8701 86.145ZM33.0122 86.3888C32.8974 87.319 32.9051 88.255 32.9663 89.2359C34.065 89.2359 35.0602 89.2359 36.1512 89.2359C36.0881 88.2433 36.1378 87.317 35.7914 86.3888C34.9109 86.3888 34.0592 86.3888 33.0122 86.3888ZM42.881 86.5312C41.989 86.5312 41.1449 86.5312 40.2185 86.5312C40.2626 87.4477 40.3028 88.3389 40.3487 89.2944C41.2866 89.2535 42.1632 89.3822 43.059 89.1891C43.2255 88.3096 43.0609 87.4867 42.881 86.5312ZM43.6466 92.1864C44.6648 92.1864 45.6027 92.1864 46.5597 92.1864C46.8468 91.3479 46.753 90.5601 46.6918 89.6689C45.6467 89.7352 44.6553 89.7995 43.614 89.8658C43.6293 90.6576 43.4475 91.381 43.6466 92.1864ZM47.2545 89.0643C48.3742 89.2847 49.36 89.1287 50.3706 89.0292C50.4012 88.1575 50.5084 87.397 50.2978 86.615C49.2585 86.771 48.2402 86.5624 47.2564 86.8237C47.2545 87.5803 47.2545 88.2823 47.2545 89.0643ZM36.6508 92.1299C37.6844 92.1299 38.6491 92.1299 39.629 92.1299C39.7707 91.3615 39.8357 90.6712 39.7802 89.9555C38.672 89.9555 37.648 89.9555 36.6125 89.9555C36.5207 90.7044 36.4652 91.3752 36.6508 92.1299ZM32.3462 92.0207C32.3768 91.2855 32.5701 90.603 32.3653 89.9575C31.2418 89.9575 30.1795 89.9575 29.1172 89.9575C29.1172 90.6829 29.1172 91.3167 29.1172 92.0207C30.2197 92.0207 31.2475 92.0207 32.3462 92.0207ZM28.52 89.273C28.3688 88.3564 28.4703 87.514 28.1793 86.6638C27.6013 86.5702 27.0481 86.5702 26.472 86.6521C26.2308 87.4535 26.1734 88.2375 26.3208 89.0546C27.0175 89.2613 27.6932 89.3334 28.52 89.273Z" fill="#06122E"/>
<path d="M25.5743 84.5123C26.5179 84.1789 27.3524 84.368 28.1448 84.3154C32.3116 84.0424 36.49 83.8025 40.6549 84.2471C43.6733 84.5689 46.6879 84.7132 49.7178 84.6157C50.1063 84.604 50.493 84.5669 51.1055 84.5279C50.5734 85.1169 50.0872 85.0291 49.6489 85.0389C46.5233 85.1091 43.4072 84.9355 40.2893 84.719C35.7033 84.3992 31.1192 84.5474 26.5428 84.955C26.1982 84.9843 26.1982 84.9901 25.5743 84.5123Z" fill="#06122E"/>
<path d="M50.3848 93.8537C41.9343 94.3334 33.5624 94.4133 25.1196 94.0136C25.3206 93.4324 25.7646 93.5611 26.1455 93.5728C28.9477 93.6684 31.7479 93.8166 34.55 93.8595C38.4029 93.918 42.254 93.7347 46.105 93.604C47.2515 93.565 48.398 93.5748 49.5445 93.5826C49.8029 93.5865 50.1072 93.4753 50.3848 93.8537Z" fill="#06122E"/>
<path d="M72.1934 86.145C72.1934 88.2843 72.1934 90.4333 72.1934 92.7559C63.6243 92.711 55.2274 92.5745 46.8114 92.7071C47.0832 90.3845 47.3225 88.2219 47.1081 86.1314C55.459 85.4196 63.8827 86.3303 72.1934 86.145ZM54.3355 86.3888C54.2206 87.319 54.2283 88.255 54.2895 89.2359C55.3882 89.2359 56.3835 89.2359 57.4745 89.2359C57.4113 88.2433 57.4611 87.317 57.1146 86.3888C56.2342 86.3888 55.3825 86.3888 54.3355 86.3888ZM64.2042 86.5312C63.3123 86.5312 62.4682 86.5312 61.5418 86.5312C61.5858 87.4477 61.626 88.3389 61.6719 89.2944C62.6098 89.2535 63.4864 89.3822 64.3822 89.1891C64.5487 88.3096 64.3841 87.4867 64.2042 86.5312ZM64.9698 92.1864C65.9881 92.1864 66.926 92.1864 67.883 92.1864C68.1701 91.3479 68.0763 90.5601 68.015 89.6689C66.97 89.7352 65.9785 89.7995 64.9373 89.8658C64.9526 90.6576 64.7708 91.381 64.9698 92.1864ZM68.5778 89.0643C69.6975 89.2847 70.6832 89.1287 71.6938 89.0292C71.7244 88.1575 71.8316 87.397 71.6211 86.615C70.5818 86.771 69.5635 86.5624 68.5797 86.8237C68.5778 87.5803 68.5778 88.2823 68.5778 89.0643ZM57.9741 92.1299C59.0076 92.1299 59.9723 92.1299 60.9523 92.1299C61.0939 91.3615 61.159 90.6712 61.1035 89.9555C59.9953 89.9555 58.9713 89.9555 57.9358 89.9555C57.8439 90.7044 57.7884 91.3752 57.9741 92.1299ZM53.6694 92.0207C53.7 91.2855 53.8933 90.603 53.6885 89.9575C52.565 89.9575 51.5027 89.9575 50.4404 89.9575C50.4404 90.6829 50.4404 91.3167 50.4404 92.0207C51.5429 92.0207 52.5707 92.0207 53.6694 92.0207ZM49.8433 89.273C49.692 88.3564 49.7935 87.514 49.5026 86.6638C48.9245 86.5702 48.3714 86.5702 47.7952 86.6521C47.5541 87.4535 47.4967 88.2375 47.644 89.0546C48.3407 89.2613 49.0164 89.3334 49.8433 89.273Z" fill="#06122E"/>
<path d="M70.1113 84.5123C69.1677 84.1789 68.3332 84.368 67.5407 84.3154C63.3739 84.0424 59.1956 83.8025 55.0307 84.2471C52.0122 84.5689 48.9977 84.7132 45.9677 84.6157C45.5792 84.604 45.1926 84.5669 44.5801 84.5279C45.1122 85.1169 45.5983 85.0291 46.0367 85.0389C49.1623 85.1091 52.2783 84.9355 55.3962 84.719C59.9823 84.3992 64.5663 84.5474 69.1428 84.955C69.4873 84.9843 69.4873 84.9901 70.1113 84.5123Z" fill="#06122E"/>
<path d="M70.8633 93.8537C62.4128 94.3334 54.0409 94.4133 45.5981 94.0136C45.7991 93.4324 46.2431 93.5611 46.624 93.5728C49.4262 93.6684 52.2264 93.8166 55.0285 93.8595C58.8815 93.918 62.7325 93.7347 66.5835 93.604C67.73 93.565 68.8765 93.5748 70.023 93.5826C70.2814 93.5865 70.5857 93.4753 70.8633 93.8537Z" fill="#06122E"/>
<path d="M86.6133 86.145C86.6133 88.2843 86.6133 90.4333 86.6133 92.7559C78.0442 92.711 69.6473 92.5745 61.2314 92.7071C61.5032 90.3845 61.7424 88.2219 61.528 86.1314C69.8789 85.4196 78.3026 86.3303 86.6133 86.145ZM68.7554 86.3888C68.6406 87.319 68.6482 88.255 68.7095 89.2359C69.8081 89.2359 70.8034 89.2359 71.8944 89.2359C71.8312 88.2433 71.881 87.317 71.5346 86.3888C70.6541 86.3888 69.8024 86.3888 68.7554 86.3888ZM78.6241 86.5312C77.7322 86.5312 76.8881 86.5312 75.9617 86.5312C76.0057 87.4477 76.0459 88.3389 76.0919 89.2944C77.0297 89.2535 77.9064 89.3822 78.8021 89.1891C78.9687 88.3096 78.8041 87.4867 78.6241 86.5312ZM79.3897 92.1864C80.408 92.1864 81.3459 92.1864 82.3029 92.1864C82.59 91.3479 82.4962 90.5601 82.435 89.6689C81.3899 89.7352 80.3984 89.7995 79.3572 89.8658C79.3725 90.6576 79.1907 91.381 79.3897 92.1864ZM82.9977 89.0643C84.1174 89.2847 85.1031 89.1287 86.1137 89.0292C86.1443 88.1575 86.2515 87.397 86.041 86.615C85.0017 86.771 83.9834 86.5624 82.9996 86.8237C82.9977 87.5803 82.9977 88.2823 82.9977 89.0643ZM72.394 92.1299C73.4275 92.1299 74.3922 92.1299 75.3722 92.1299C75.5138 91.3615 75.5789 90.6712 75.5234 89.9555C74.4152 89.9555 73.3912 89.9555 72.3557 89.9555C72.2638 90.7044 72.2083 91.3752 72.394 92.1299ZM68.0893 92.0207C68.1199 91.2855 68.3133 90.603 68.1085 89.9575C66.9849 89.9575 65.9226 89.9575 64.8604 89.9575C64.8604 90.6829 64.8604 91.3167 64.8604 92.0207C65.9628 92.0207 66.9907 92.0207 68.0893 92.0207ZM64.2632 89.273C64.112 88.3564 64.2134 87.514 63.9225 86.6638C63.3445 86.5702 62.7913 86.5702 62.2152 86.6521C61.974 87.4535 61.9166 88.2375 62.064 89.0546C62.7607 89.2613 63.4363 89.3334 64.2632 89.273Z" fill="#06122E"/>
<path d="M84.5312 84.5123C83.5876 84.1789 82.7531 84.368 81.9607 84.3154C77.7938 84.0424 73.6155 83.8025 69.4506 84.2471C66.4322 84.5689 63.4176 84.7132 60.3877 84.6157C59.9991 84.604 59.6125 84.5669 59 84.5279C59.5321 85.1169 60.0183 85.0291 60.4566 85.0389C63.5822 85.1091 66.6982 84.9355 69.8162 84.719C74.4022 84.3992 78.9863 84.5474 83.5627 84.955C83.9072 84.9843 83.9072 84.9901 84.5312 84.5123Z" fill="#06122E"/>
<path d="M85.2832 93.8537C76.8328 94.3334 68.4608 94.4133 60.018 94.0136C60.219 93.4324 60.6631 93.5611 61.044 93.5728C63.8461 93.6684 66.6463 93.8166 69.4484 93.8595C73.3014 93.918 77.1524 93.7347 81.0034 93.604C82.1499 93.565 83.2964 93.5748 84.4429 93.5826C84.7013 93.5865 85.0057 93.4753 85.2832 93.8537Z" fill="#06122E"/>
<path d="M29.6133 86.145C29.6133 88.2843 29.6133 90.4333 29.6133 92.7559C21.0442 92.711 12.6473 92.5745 4.23136 92.7071C4.50315 90.3845 4.74241 88.2219 4.52804 86.1314C12.8789 85.4196 21.3026 86.3303 29.6133 86.145ZM11.7554 86.3888C11.6406 87.319 11.6482 88.255 11.7095 89.2359C12.8081 89.2359 13.8034 89.2359 14.8944 89.2359C14.8312 88.2433 14.881 87.317 14.5346 86.3888C13.6541 86.3888 12.8024 86.3888 11.7554 86.3888ZM21.6241 86.5312C20.7322 86.5312 19.8881 86.5312 18.9617 86.5312C19.0057 87.4477 19.0459 88.3389 19.0919 89.2944C20.0297 89.2535 20.9064 89.3822 21.8021 89.1891C21.9687 88.3096 21.8041 87.4867 21.6241 86.5312ZM22.3897 92.1864C23.408 92.1864 24.3459 92.1864 25.3029 92.1864C25.59 91.3479 25.4962 90.5601 25.435 89.6689C24.3899 89.7352 23.3984 89.7995 22.3572 89.8658C22.3725 90.6576 22.1907 91.381 22.3897 92.1864ZM25.9977 89.0643C27.1174 89.2847 28.1031 89.1287 29.1137 89.0292C29.1443 88.1575 29.2515 87.397 29.041 86.615C28.0017 86.771 26.9834 86.5624 25.9996 86.8237C25.9977 87.5803 25.9977 88.2823 25.9977 89.0643ZM15.394 92.1299C16.4275 92.1299 17.3922 92.1299 18.3722 92.1299C18.5138 91.3615 18.5789 90.6712 18.5234 89.9555C17.4152 89.9555 16.3912 89.9555 15.3557 89.9555C15.2638 90.7044 15.2083 91.3752 15.394 92.1299ZM11.0893 92.0207C11.1199 91.2855 11.3133 90.603 11.1085 89.9575C9.98493 89.9575 8.92264 89.9575 7.86035 89.9575C7.86035 90.6829 7.86035 91.3167 7.86035 92.0207C8.96283 92.0207 9.99066 92.0207 11.0893 92.0207ZM7.26318 89.273C7.11197 88.3564 7.21342 87.514 6.92249 86.6638C6.34445 86.5702 5.79129 86.5702 5.21516 86.6521C4.974 87.4535 4.91658 88.2375 5.06396 89.0546C5.76067 89.2613 6.43632 89.3334 7.26318 89.273Z" fill="#06122E"/>
<path d="M27.5312 84.5123C26.5876 84.1789 25.7531 84.368 24.9607 84.3154C20.7938 84.0424 16.6155 83.8025 12.4506 84.2471C9.43216 84.5689 6.41758 84.7132 3.38767 84.6157C2.99912 84.604 2.61249 84.5669 2 84.5279C2.5321 85.1169 3.01826 85.0291 3.45657 85.0389C6.58218 85.1091 9.69822 84.9355 12.8162 84.719C17.4022 84.3992 21.9863 84.5474 26.5627 84.955C26.9072 84.9843 26.9072 84.9901 27.5312 84.5123Z" fill="#06122E"/>
<path d="M28.2832 93.8537C19.8328 94.3334 11.4608 94.4133 3.01804 94.0136C3.21901 93.4324 3.66307 93.5611 4.04396 93.5728C6.84609 93.6684 9.64631 93.8166 12.4484 93.8595C16.3014 93.918 20.1524 93.7347 24.0034 93.604C25.1499 93.565 26.2964 93.5748 27.4429 93.5826C27.7013 93.5865 28.0057 93.4753 28.2832 93.8537Z" fill="#06122E"/>
<path d="M49.8701 6.14504C49.8701 8.28429 49.8701 10.4333 49.8701 12.7559C41.301 12.711 32.9042 12.5745 24.4882 12.7071C24.76 10.3845 24.9992 8.22189 24.7849 6.13138C33.1358 5.4196 41.5594 6.3303 49.8701 6.14504ZM32.0122 6.3888C31.8974 7.31899 31.9051 8.25504 31.9663 9.23594C33.065 9.23594 34.0602 9.23594 35.1512 9.23594C35.0881 8.24334 35.1378 7.31704 34.7914 6.3888C33.9109 6.3888 33.0592 6.3888 32.0122 6.3888ZM41.881 6.53115C40.989 6.53115 40.1449 6.53115 39.2185 6.53115C39.2626 7.4477 39.3028 8.33889 39.3487 9.29444C40.2866 9.25349 41.1632 9.38219 42.059 9.18914C42.2255 8.30964 42.0609 7.4867 41.881 6.53115ZM42.6466 12.1864C43.6648 12.1864 44.6027 12.1864 45.5597 12.1864C45.8468 11.3479 45.753 10.5601 45.6918 9.66886C44.6467 9.73516 43.6553 9.79952 42.614 9.86582C42.6293 10.6576 42.4475 11.381 42.6466 12.1864ZM46.2545 9.06433C47.3742 9.28469 48.36 9.12868 49.3706 9.02923C49.4012 8.15754 49.5084 7.397 49.2978 6.61501C48.2585 6.77102 47.2402 6.56236 46.2564 6.82367C46.2545 7.58031 46.2545 8.28234 46.2545 9.06433ZM35.6508 12.1299C36.6844 12.1299 37.6491 12.1299 38.629 12.1299C38.7707 11.3615 38.8357 10.6712 38.7802 9.95552C37.672 9.95552 36.648 9.95552 35.6125 9.95552C35.5207 10.7044 35.4652 11.3752 35.6508 12.1299ZM31.3462 12.0207C31.3768 11.2855 31.5701 10.603 31.3653 9.95747C30.2418 9.95747 29.1795 9.95747 28.1172 9.95747C28.1172 10.6829 28.1172 11.3167 28.1172 12.0207C29.2197 12.0207 30.2475 12.0207 31.3462 12.0207ZM27.52 9.27299C27.3688 8.35644 27.4703 7.514 27.1793 6.66376C26.6013 6.57016 26.0481 6.57016 25.472 6.65206C25.2308 7.45355 25.1734 8.23749 25.3208 9.05458C26.0175 9.26129 26.6932 9.33344 27.52 9.27299Z" fill="#06122E"/>
<path d="M24.5743 4.51234C25.5179 4.17887 26.3524 4.36803 27.1448 4.31537C31.3116 4.04236 35.49 3.8025 39.6549 4.24712C42.6733 4.56889 45.6879 4.7132 48.7178 4.61569C49.1063 4.60399 49.493 4.56694 50.1055 4.52794C49.5734 5.11687 49.0872 5.02911 48.6489 5.03886C45.5233 5.10907 42.4072 4.93551 39.2893 4.71905C34.7033 4.39923 30.1192 4.54744 25.5428 4.95501C25.1982 4.98426 25.1982 4.99011 24.5743 4.51234Z" fill="#06122E"/>
<path d="M49.3848 13.8537C40.9343 14.3334 32.5624 14.4133 24.1196 14.0136C24.3206 13.4324 24.7646 13.5611 25.1455 13.5728C27.9477 13.6684 30.7479 13.8166 33.55 13.8595C37.4029 13.918 41.254 13.7347 45.105 13.604C46.2515 13.565 47.398 13.5748 48.5445 13.5826C48.8029 13.5865 49.1072 13.4753 49.3848 13.8537Z" fill="#06122E"/>
<path d="M71.1934 6.14504C71.1934 8.28429 71.1934 10.4333 71.1934 12.7559C62.6243 12.711 54.2274 12.5745 45.8114 12.7071C46.0832 10.3845 46.3225 8.22189 46.1081 6.13138C54.459 5.4196 62.8827 6.3303 71.1934 6.14504ZM53.3355 6.3888C53.2206 7.31899 53.2283 8.25504 53.2895 9.23594C54.3882 9.23594 55.3835 9.23594 56.4745 9.23594C56.4113 8.24334 56.4611 7.31704 56.1146 6.3888C55.2342 6.3888 54.3825 6.3888 53.3355 6.3888ZM63.2042 6.53115C62.3123 6.53115 61.4682 6.53115 60.5418 6.53115C60.5858 7.4477 60.626 8.33889 60.6719 9.29444C61.6098 9.25349 62.4864 9.38219 63.3822 9.18914C63.5487 8.30964 63.3841 7.4867 63.2042 6.53115ZM63.9698 12.1864C64.9881 12.1864 65.926 12.1864 66.883 12.1864C67.1701 11.3479 67.0763 10.5601 67.015 9.66886C65.97 9.73516 64.9785 9.79952 63.9373 9.86582C63.9526 10.6576 63.7708 11.381 63.9698 12.1864ZM67.5778 9.06433C68.6975 9.28469 69.6832 9.12868 70.6938 9.02923C70.7244 8.15754 70.8316 7.397 70.6211 6.61501C69.5818 6.77102 68.5635 6.56236 67.5797 6.82367C67.5778 7.58031 67.5778 8.28234 67.5778 9.06433ZM56.9741 12.1299C58.0076 12.1299 58.9723 12.1299 59.9523 12.1299C60.0939 11.3615 60.159 10.6712 60.1035 9.95552C58.9953 9.95552 57.9713 9.95552 56.9358 9.95552C56.8439 10.7044 56.7884 11.3752 56.9741 12.1299ZM52.6694 12.0207C52.7 11.2855 52.8933 10.603 52.6885 9.95747C51.565 9.95747 50.5027 9.95747 49.4404 9.95747C49.4404 10.6829 49.4404 11.3167 49.4404 12.0207C50.5429 12.0207 51.5707 12.0207 52.6694 12.0207ZM48.8433 9.27299C48.692 8.35644 48.7935 7.514 48.5026 6.66376C47.9245 6.57016 47.3714 6.57016 46.7952 6.65206C46.5541 7.45355 46.4967 8.23749 46.644 9.05458C47.3407 9.26129 48.0164 9.33344 48.8433 9.27299Z" fill="#06122E"/>
<path d="M69.1113 4.51234C68.1677 4.17887 67.3332 4.36803 66.5407 4.31538C62.3739 4.04236 58.1956 3.8025 54.0307 4.24713C51.0122 4.56889 47.9977 4.7132 44.9677 4.61569C44.5792 4.60399 44.1926 4.56694 43.5801 4.52794C44.1122 5.11687 44.5983 5.02911 45.0367 5.03886C48.1623 5.10907 51.2783 4.93551 54.3962 4.71905C58.9823 4.39923 63.5663 4.54744 68.1428 4.95501C68.4873 4.98426 68.4873 4.99011 69.1113 4.51234Z" fill="#06122E"/>
<path d="M69.8633 13.8537C61.4128 14.3334 53.0409 14.4133 44.5981 14.0136C44.7991 13.4324 45.2431 13.5611 45.624 13.5728C48.4262 13.6684 51.2264 13.8166 54.0285 13.8595C57.8815 13.918 61.7325 13.7347 65.5835 13.604C66.73 13.565 67.8765 13.5748 69.023 13.5826C69.2814 13.5865 69.5857 13.4753 69.8633 13.8537Z" fill="#06122E"/>
<path d="M85.6133 6.14504C85.6133 8.28429 85.6133 10.4333 85.6133 12.7559C77.0442 12.711 68.6473 12.5745 60.2314 12.7071C60.5032 10.3845 60.7424 8.22189 60.528 6.13138C68.8789 5.4196 77.3026 6.3303 85.6133 6.14504ZM67.7554 6.3888C67.6406 7.31899 67.6482 8.25504 67.7095 9.23594C68.8081 9.23594 69.8034 9.23594 70.8944 9.23594C70.8312 8.24334 70.881 7.31704 70.5346 6.3888C69.6541 6.3888 68.8024 6.3888 67.7554 6.3888ZM77.6241 6.53115C76.7322 6.53115 75.8881 6.53115 74.9617 6.53115C75.0057 7.4477 75.0459 8.33889 75.0919 9.29444C76.0297 9.25349 76.9064 9.38219 77.8021 9.18914C77.9687 8.30964 77.8041 7.4867 77.6241 6.53115ZM78.3897 12.1864C79.408 12.1864 80.3459 12.1864 81.3029 12.1864C81.59 11.3479 81.4962 10.5601 81.435 9.66886C80.3899 9.73516 79.3984 9.79952 78.3572 9.86582C78.3725 10.6576 78.1907 11.381 78.3897 12.1864ZM81.9977 9.06433C83.1174 9.28469 84.1031 9.12868 85.1137 9.02923C85.1443 8.15754 85.2515 7.397 85.041 6.61501C84.0017 6.77102 82.9834 6.56236 81.9996 6.82367C81.9977 7.58031 81.9977 8.28234 81.9977 9.06433ZM71.394 12.1299C72.4275 12.1299 73.3922 12.1299 74.3722 12.1299C74.5138 11.3615 74.5789 10.6712 74.5234 9.95552C73.4152 9.95552 72.3912 9.95552 71.3557 9.95552C71.2638 10.7044 71.2083 11.3752 71.394 12.1299ZM67.0893 12.0207C67.1199 11.2855 67.3133 10.603 67.1085 9.95747C65.9849 9.95747 64.9226 9.95747 63.8604 9.95747C63.8604 10.6829 63.8604 11.3167 63.8604 12.0207C64.9628 12.0207 65.9907 12.0207 67.0893 12.0207ZM63.2632 9.27299C63.112 8.35644 63.2134 7.514 62.9225 6.66376C62.3445 6.57016 61.7913 6.57016 61.2152 6.65206C60.974 7.45355 60.9166 8.23749 61.064 9.05458C61.7607 9.26129 62.4363 9.33344 63.2632 9.27299Z" fill="#06122E"/>
<path d="M83.5312 4.51234C82.5876 4.17887 81.7531 4.36803 80.9607 4.31538C76.7938 4.04236 72.6155 3.8025 68.4506 4.24713C65.4322 4.56889 62.4176 4.7132 59.3877 4.61569C58.9991 4.60399 58.6125 4.56694 58 4.52794C58.5321 5.11687 59.0183 5.02911 59.4566 5.03886C62.5822 5.10907 65.6982 4.93551 68.8162 4.71905C73.4022 4.39923 77.9863 4.54744 82.5627 4.95501C82.9072 4.98426 82.9072 4.99011 83.5312 4.51234Z" fill="#06122E"/>
<path d="M84.2832 13.8537C75.8328 14.3334 67.4608 14.4133 59.018 14.0136C59.219 13.4324 59.6631 13.5611 60.044 13.5728C62.8461 13.6684 65.6463 13.8166 68.4484 13.8595C72.3014 13.918 76.1524 13.7347 80.0034 13.604C81.1499 13.565 82.2964 13.5748 83.4429 13.5826C83.7013 13.5865 84.0057 13.4753 84.2832 13.8537Z" fill="#06122E"/>
<path d="M28.6133 6.14504C28.6133 8.28429 28.6133 10.4333 28.6133 12.7559C20.0442 12.711 11.6473 12.5745 3.23136 12.7071C3.50315 10.3845 3.74241 8.22189 3.52804 6.13138C11.8789 5.4196 20.3026 6.3303 28.6133 6.14504ZM10.7554 6.3888C10.6406 7.31899 10.6482 8.25504 10.7095 9.23594C11.8081 9.23594 12.8034 9.23594 13.8944 9.23594C13.8312 8.24334 13.881 7.31704 13.5346 6.3888C12.6541 6.3888 11.8024 6.3888 10.7554 6.3888ZM20.6241 6.53115C19.7322 6.53115 18.8881 6.53115 17.9617 6.53115C18.0057 7.4477 18.0459 8.33889 18.0919 9.29444C19.0297 9.25349 19.9064 9.38219 20.8021 9.18914C20.9687 8.30964 20.8041 7.4867 20.6241 6.53115ZM21.3897 12.1864C22.408 12.1864 23.3459 12.1864 24.3029 12.1864C24.59 11.3479 24.4962 10.5601 24.435 9.66886C23.3899 9.73516 22.3984 9.79952 21.3572 9.86582C21.3725 10.6576 21.1907 11.381 21.3897 12.1864ZM24.9977 9.06433C26.1174 9.28469 27.1031 9.12868 28.1137 9.02923C28.1443 8.15754 28.2515 7.397 28.041 6.61501C27.0017 6.77102 25.9834 6.56236 24.9996 6.82367C24.9977 7.58031 24.9977 8.28234 24.9977 9.06433ZM14.394 12.1299C15.4275 12.1299 16.3922 12.1299 17.3722 12.1299C17.5138 11.3615 17.5789 10.6712 17.5234 9.95552C16.4152 9.95552 15.3912 9.95552 14.3557 9.95552C14.2638 10.7044 14.2083 11.3752 14.394 12.1299ZM10.0893 12.0207C10.1199 11.2855 10.3133 10.603 10.1085 9.95747C8.98493 9.95747 7.92264 9.95747 6.86035 9.95747C6.86035 10.6829 6.86035 11.3167 6.86035 12.0207C7.96283 12.0207 8.99066 12.0207 10.0893 12.0207ZM6.26318 9.27299C6.11197 8.35644 6.21342 7.514 5.92249 6.66376C5.34445 6.57016 4.79129 6.57016 4.21516 6.65206C3.974 7.45355 3.91658 8.23749 4.06396 9.05458C4.76067 9.26129 5.43632 9.33344 6.26318 9.27299Z" fill="#06122E"/>
<path d="M26.5312 4.51234C25.5876 4.17887 24.7531 4.36803 23.9607 4.31538C19.7938 4.04236 15.6155 3.8025 11.4506 4.24713C8.43216 4.56889 5.41758 4.7132 2.38767 4.61569C1.99912 4.60399 1.61249 4.56694 1 4.52794C1.5321 5.11687 2.01826 5.02911 2.45657 5.03886C5.58218 5.10907 8.69822 4.93551 11.8162 4.71905C16.4022 4.39923 20.9863 4.54744 25.5627 4.95501C25.9072 4.98426 25.9072 4.99011 26.5312 4.51234Z" fill="#06122E"/>
<path d="M27.2832 13.8537C18.8328 14.3334 10.4608 14.4133 2.01804 14.0136C2.21901 13.4324 2.66307 13.5611 3.04396 13.5728C5.84609 13.6684 8.64631 13.8166 11.4484 13.8595C15.3014 13.918 19.1524 13.7347 23.0034 13.604C24.1499 13.565 25.2964 13.5748 26.4429 13.5826C26.7013 13.5865 27.0057 13.4753 27.2832 13.8537Z" fill="#06122E"/>
<path d="M8.22928 95.291C6.10699 95.291 3.97504 95.291 1.6709 95.291C1.7154 86.8419 1.85082 78.5626 1.71927 70.2644C4.0234 70.5324 6.1689 70.7683 8.24282 70.557C8.94896 78.7909 8.04549 87.0967 8.22928 95.291ZM7.98745 77.6831C7.06463 77.5699 6.13601 77.5775 5.1629 77.6379C5.1629 78.7211 5.1629 79.7025 5.1629 80.7782C6.14762 80.7159 7.06657 80.765 7.98745 80.4234C7.98745 79.5553 7.98745 78.7155 7.98745 77.6831ZM7.84622 87.4137C7.84622 86.5343 7.84622 85.702 7.84622 84.7886C6.93695 84.832 6.05282 84.8716 5.10486 84.9169C5.14548 85.8416 5.0178 86.706 5.20933 87.5892C6.08184 87.7534 6.89826 87.5911 7.84622 87.4137ZM2.23581 88.1686C2.23581 89.1726 2.23581 90.0974 2.23581 91.041C3.0677 91.3241 3.84929 91.2316 4.73341 91.1712C4.66763 90.1408 4.60379 89.1632 4.53801 88.1365C3.75256 88.1516 3.03481 87.9723 2.23581 88.1686ZM5.33314 91.726C5.11453 92.8301 5.2693 93.802 5.36797 94.7985C6.23274 94.8286 6.98725 94.9343 7.76303 94.7267C7.60826 93.702 7.81527 92.698 7.55603 91.7279C6.80539 91.726 6.10893 91.726 5.33314 91.726ZM2.29191 81.2708C2.29191 82.2899 2.29191 83.241 2.29191 84.2073C3.05416 84.347 3.73901 84.4111 4.44902 84.3564C4.44902 83.2637 4.44902 82.254 4.44902 81.233C3.70613 81.1424 3.04061 81.0877 2.29191 81.2708ZM2.40026 77.0264C3.12961 77.0566 3.80673 77.2472 4.44709 77.0453C4.44709 75.9375 4.44709 74.89 4.44709 73.8426C3.72741 73.8426 3.09865 73.8426 2.40026 73.8426C2.40026 74.9297 2.40026 75.9431 2.40026 77.0264ZM5.12614 73.2538C6.03541 73.1047 6.87117 73.2047 7.71467 72.9179C7.80753 72.3479 7.80753 71.8025 7.72628 71.2345C6.93115 70.9967 6.15343 70.9401 5.34282 71.0854C5.13775 71.7723 5.06617 72.4385 5.12614 73.2538Z" fill="#06122E"/>
<path d="M9.85055 70.3496C10.1814 71.2801 9.99371 72.1029 10.0459 72.8842C10.3168 76.9927 10.5548 81.1125 10.1137 85.2192C9.79444 88.1953 9.65128 91.1677 9.74801 94.1552C9.75962 94.5383 9.79638 94.9195 9.83507 95.5234C9.25081 94.9988 9.33787 94.5194 9.3282 94.0873C9.25855 91.0054 9.43073 87.933 9.64548 84.8587C9.96276 80.3369 9.81573 75.817 9.41139 71.3046C9.38237 70.9649 9.37657 70.9649 9.85055 70.3496Z" fill="#06122E"/>
<path d="M0.583471 94.8145C0.107554 86.4823 0.0282357 78.2276 0.424835 69.903C1.00135 70.1012 0.873666 70.539 0.862059 70.9145C0.767262 73.6775 0.620231 76.4385 0.577669 79.2014C0.51963 83.0004 0.701484 86.7975 0.831103 90.5946C0.869795 91.725 0.860122 92.8555 0.852383 93.986C0.848514 94.2407 0.958788 94.5408 0.583471 94.8145Z" fill="#06122E"/>
<path d="M8.23025 53.1836C6.10797 53.1836 3.97601 53.1836 1.67188 53.1836C1.71637 44.7345 1.8518 36.4552 1.72024 28.157C4.02438 28.425 6.16988 28.6609 8.2438 28.4495C8.94993 36.6835 8.04646 44.9892 8.23025 53.1836ZM7.98843 35.5757C7.06561 35.4625 6.13699 35.47 5.16387 35.5304C5.16387 36.6137 5.16387 37.5951 5.16387 38.6708C6.1486 38.6085 7.06754 38.6576 7.98843 38.316C7.98843 37.4479 7.98843 36.608 7.98843 35.5757ZM7.8472 45.3063C7.8472 44.4268 7.8472 43.5946 7.8472 42.6811C6.93792 42.7246 6.0538 42.7642 5.10583 42.8095C5.14646 43.7342 5.01878 44.5986 5.2103 45.4818C6.08282 45.646 6.89923 45.4837 7.8472 45.3063ZM2.23679 46.0612C2.23679 47.0652 2.23679 47.9899 2.23679 48.9335C3.06868 49.2166 3.85026 49.1242 4.73439 49.0638C4.66861 48.0333 4.60477 47.0557 4.53899 46.0291C3.75353 46.0442 3.03579 45.8649 2.23679 46.0612ZM5.33412 49.6186C5.11551 50.7226 5.27028 51.6946 5.36894 52.691C6.23372 52.7212 6.98822 52.8269 7.76401 52.6193C7.60924 51.5945 7.81624 50.5905 7.557 49.6205C6.80637 49.6186 6.1099 49.6186 5.33412 49.6186ZM2.29289 39.1634C2.29289 40.1825 2.29289 41.1336 2.29289 42.0999C3.05513 42.2395 3.73999 42.3037 4.45 42.249C4.45 41.1563 4.45 40.1466 4.45 39.1256C3.7071 39.035 3.04159 38.9803 2.29289 39.1634ZM2.40123 34.919C3.13058 34.9492 3.8077 35.1398 4.44806 34.9378C4.44806 33.83 4.44806 32.7826 4.44807 31.7352C3.72838 31.7352 3.09963 31.7352 2.40123 31.7352C2.40123 32.8222 2.40123 33.8357 2.40123 34.919ZM5.12712 31.1464C6.03639 30.9973 6.87215 31.0973 7.71565 30.8105C7.80851 30.2405 7.80851 29.6951 7.72725 29.127C6.93212 28.8893 6.1544 28.8326 5.3438 28.978C5.13873 29.6649 5.06714 30.3311 5.12712 31.1464Z" fill="#06122E"/>
<path d="M9.85055 28.2422C10.1814 29.1726 9.99371 29.9955 10.0459 30.7768C10.3168 34.8853 10.5548 39.0051 10.1137 43.1117C9.79444 46.0879 9.65128 49.0603 9.74801 52.0478C9.75962 52.4309 9.79638 52.8121 9.83507 53.416C9.25081 52.8914 9.33787 52.412 9.3282 51.9798C9.25855 48.898 9.43073 45.8256 9.64548 42.7513C9.96276 38.2295 9.81573 33.7095 9.41139 29.1972C9.38237 28.8575 9.37657 28.8575 9.85055 28.2422Z" fill="#06122E"/>
<path d="M0.583471 52.707C0.107554 44.3749 0.0282357 36.1202 0.424835 27.7956C1.00135 27.9937 0.873666 28.4316 0.862059 28.8071C0.767262 31.57 0.620231 34.331 0.577669 37.094C0.51963 40.893 0.701484 44.6901 0.831103 48.4872C0.869795 49.6176 0.860122 50.7481 0.852383 51.8785C0.848514 52.1333 0.958788 52.4334 0.583471 52.707Z" fill="#06122E"/>
<path d="M8.23025 74.332C6.10797 74.332 3.97601 74.332 1.67188 74.332C1.71637 65.8829 1.8518 57.6036 1.72024 49.3055C4.02438 49.5734 6.16988 49.8093 8.2438 49.598C8.94993 57.832 8.04646 66.1377 8.23025 74.332ZM7.98843 56.7242C7.06561 56.6109 6.13699 56.6185 5.16387 56.6789C5.16387 57.7621 5.16387 58.7435 5.16387 59.8192C6.1486 59.7569 7.06754 59.806 7.98843 59.4644C7.98843 58.5963 7.98843 57.7565 7.98843 56.7242ZM7.8472 66.4547C7.8472 65.5753 7.8472 64.743 7.8472 63.8296C6.93792 63.873 6.0538 63.9126 5.10583 63.9579C5.14646 64.8827 5.01878 65.747 5.2103 66.6302C6.08282 66.7944 6.89923 66.6321 7.8472 66.4547ZM2.23679 67.2096C2.23679 68.2136 2.23679 69.1384 2.23679 70.082C3.06868 70.3651 3.85026 70.2726 4.73439 70.2122C4.66861 69.1818 4.60477 68.2042 4.53899 67.1775C3.75353 67.1926 3.03579 67.0133 2.23679 67.2096ZM5.33412 70.767C5.11551 71.8711 5.27028 72.843 5.36894 73.8395C6.23372 73.8697 6.98822 73.9753 7.76401 73.7678C7.60924 72.743 7.81624 71.739 7.557 70.7689C6.80637 70.7671 6.1099 70.767 5.33412 70.767ZM2.29289 60.3118C2.29289 61.3309 2.29289 62.2821 2.29289 63.2483C3.05513 63.388 3.73999 63.4521 4.45 63.3974C4.45 62.3047 4.45 61.295 4.45 60.274C3.7071 60.1835 3.04159 60.1287 2.29289 60.3118ZM2.40123 56.0674C3.13058 56.0976 3.8077 56.2882 4.44806 56.0863C4.44806 54.9785 4.44806 53.9311 4.44807 52.8836C3.72838 52.8836 3.09963 52.8836 2.40123 52.8836C2.40123 53.9707 2.40123 54.9841 2.40123 56.0674ZM5.12712 52.2948C6.03639 52.1457 6.87215 52.2458 7.71565 51.9589C7.80851 51.389 7.80851 50.8435 7.72725 50.2755C6.93212 50.0377 6.1544 49.9811 5.3438 50.1264C5.13873 50.8133 5.06714 51.4795 5.12712 52.2948Z" fill="#06122E"/>
<path d="M9.85054 72.2773C10.1814 71.3469 9.99371 70.5241 10.0459 69.7427C10.3168 65.6342 10.5547 61.5144 10.1137 57.4078C9.79444 54.4316 9.65128 51.4592 9.74801 48.4718C9.75962 48.0887 9.79638 47.7074 9.83507 47.1035C9.25081 47.6282 9.33787 48.1075 9.3282 48.5397C9.25855 51.6215 9.43073 54.694 9.64548 57.7683C9.96275 62.2901 9.81572 66.81 9.41138 71.3224C9.38237 71.6621 9.37656 71.6621 9.85054 72.2773Z" fill="#06122E"/>
<path d="M0.583471 73.0215C0.107554 64.6894 0.0282357 56.4346 0.424835 48.11C1.00135 48.3082 0.873666 48.746 0.862059 49.1216C0.767262 51.8845 0.620231 54.6455 0.577669 57.4084C0.51963 61.2074 0.701484 65.0045 0.831103 68.8016C0.869795 69.9321 0.860122 71.0625 0.852383 72.193C0.848514 72.4478 0.958788 72.7478 0.583471 73.0215Z" fill="#06122E"/>
<path d="M8.22928 32.2266C6.10699 32.2266 3.97504 32.2266 1.6709 32.2266C1.7154 23.7774 1.85082 15.4981 1.71927 7.19999C4.0234 7.46797 6.1689 7.70387 8.24282 7.4925C8.94896 15.7265 8.04549 24.0322 8.22928 32.2266ZM7.98745 14.6187C7.06463 14.5055 6.13601 14.513 5.1629 14.5734C5.1629 15.6567 5.1629 16.638 5.1629 17.7137C6.14762 17.6515 7.06657 17.7005 7.98745 17.3589C7.98745 16.4908 7.98745 15.651 7.98745 14.6187ZM7.84622 24.3493C7.84622 23.4698 7.84622 22.6375 7.84622 21.7241C6.93695 21.7675 6.05282 21.8072 5.10486 21.8524C5.14548 22.7772 5.0178 23.6415 5.20933 24.5248C6.08184 24.689 6.89826 24.5267 7.84622 24.3493ZM2.23581 25.1042C2.23581 26.1082 2.23581 27.0329 2.23581 27.9765C3.0677 28.2596 3.84929 28.1671 4.73341 28.1067C4.66763 27.0763 4.60379 26.0987 4.53801 25.0721C3.75256 25.0872 3.03481 24.9079 2.23581 25.1042ZM5.33314 28.6616C5.11453 29.7656 5.2693 30.7375 5.36797 31.734C6.23274 31.7642 6.98725 31.8699 7.76303 31.6623C7.60826 30.6375 7.81527 29.6335 7.55603 28.6635C6.80539 28.6616 6.10893 28.6616 5.33314 28.6616ZM2.29191 18.2063C2.29191 19.2254 2.29191 20.1766 2.29191 21.1429C3.05416 21.2825 3.73901 21.3467 4.44902 21.2919C4.44902 20.1992 4.44902 19.1896 4.44902 18.1686C3.70613 18.078 3.04061 18.0233 2.29191 18.2063ZM2.40026 13.9619C3.12961 13.9921 3.80673 14.1827 4.44709 13.9808C4.44709 12.873 4.44709 11.8256 4.44709 10.7782C3.72741 10.7782 3.09865 10.7782 2.40026 10.7782C2.40026 11.8652 2.40026 12.8787 2.40026 13.9619ZM5.12614 10.1894C6.03541 10.0403 6.87117 10.1403 7.71467 9.85343C7.80753 9.28349 7.80753 8.73807 7.72628 8.17001C6.93115 7.93222 6.15343 7.87561 5.34282 8.02093C5.13775 8.70788 5.06617 9.37407 5.12614 10.1894Z" fill="#06122E"/>
<path d="M9.85054 30.1718C10.1814 29.2414 9.99371 28.4186 10.0459 27.6373C10.3168 23.5288 10.5547 19.4089 10.1137 15.3023C9.79444 12.3262 9.65128 9.35378 9.74801 6.36629C9.75962 5.98318 9.79638 5.60196 9.83507 4.99805C9.25081 5.5227 9.33787 6.00205 9.3282 6.43423C9.25855 9.51608 9.43073 12.5885 9.64548 15.6628C9.96275 20.1846 9.81572 24.7045 9.41138 29.2169C9.38237 29.5566 9.37656 29.5566 9.85054 30.1718Z" fill="#06122E"/>
<path d="M0.583471 30.916C0.107554 22.5839 0.0282357 14.3291 0.424835 6.00456C1.00135 6.20272 0.873666 6.64055 0.862059 7.01611C0.767262 9.77902 0.620231 12.54 0.577669 15.3029C0.51963 19.1019 0.701484 22.899 0.831103 26.6962C0.869795 27.8266 0.860122 28.9571 0.852383 30.0875C0.848514 30.3423 0.958788 30.6424 0.583471 30.916Z" fill="#06122E"/>
<path d="M56.2558 27.8196H53.3257V24.8809H38.6748V27.8196H35.7446C34.133 27.8196 32.8145 29.1421 32.8145 30.7584V32.2278C32.8145 35.9748 35.6274 39.0311 39.2462 39.4866C39.7095 40.5877 40.4332 41.5591 41.3547 42.3169C42.2762 43.0747 43.3678 43.5961 44.5351 43.836V48.3911H38.6748V51.3299H53.3257V48.3911H47.4653V43.836C48.6327 43.5961 49.7243 43.0747 50.6458 42.3169C51.5673 41.5591 52.2909 40.5877 52.7543 39.4866C56.373 39.0311 59.186 35.9748 59.186 32.2278V30.7584C59.186 29.1421 57.8674 27.8196 56.2558 27.8196ZM35.7446 32.2278V30.7584H38.6748V36.3715C36.9753 35.7544 35.7446 34.138 35.7446 32.2278ZM56.2558 32.2278C56.2558 34.138 55.0252 35.7544 53.3257 36.3715V30.7584H56.2558V32.2278Z" fill="#06122E"/>
<path d="M43.1021 66.3043C43.5041 66.3043 43.8674 66.3889 44.1918 66.5582C44.5162 66.7275 44.7737 66.9814 44.9641 67.3199C45.1616 67.6585 45.2603 68.0675 45.2603 68.5472C45.2603 69.2807 45.0417 69.8696 44.6044 70.314C44.1671 70.7583 43.5394 70.9805 42.7212 70.9805C41.9454 70.9805 41.3212 70.7301 40.8486 70.2293C40.3831 69.7215 40.1504 68.8222 40.1504 67.5315C40.1504 66.128 40.3902 65.0841 40.8698 64.3999C41.3494 63.7087 42.1006 63.3631 43.1233 63.3631C43.5535 63.3631 43.9414 63.4372 44.287 63.5853C44.6326 63.7334 44.8054 63.938 44.8054 64.1989C44.8054 64.3329 44.7525 64.4669 44.6467 64.601C44.548 64.7279 44.4598 64.802 44.3822 64.8231C44.1636 64.4775 43.9449 64.2342 43.7263 64.0931C43.5147 63.945 43.2961 63.871 43.0704 63.871C42.4638 63.871 42.0441 64.1601 41.8114 64.7385C41.5857 65.3098 41.4587 66.0997 41.4305 67.1083C41.8537 66.5723 42.4109 66.3043 43.1021 66.3043ZM42.7847 70.5361C43.2149 70.5361 43.5253 70.3457 43.7157 69.9648C43.9061 69.5769 44.0014 69.0902 44.0014 68.5048C44.0014 67.4046 43.6205 66.8544 42.8588 66.8544C42.5484 66.8544 42.2663 66.9496 42.0124 67.1401C41.7585 67.3234 41.5645 67.5879 41.4305 67.9335C41.4517 68.7376 41.5645 69.3724 41.7691 69.8379C41.9807 70.3034 42.3192 70.5361 42.7847 70.5361ZM49.0787 70.9911C48.19 70.9911 47.5129 70.6737 47.0474 70.0389C46.5889 69.3971 46.3597 68.4414 46.3597 67.1718C46.3597 65.9023 46.5889 64.9501 47.0474 64.3153C47.5129 63.6735 48.19 63.3526 49.0787 63.3526C49.9674 63.3526 50.6409 63.6735 51.0994 64.3153C51.5578 64.9501 51.7871 65.9023 51.7871 67.1718C51.7871 68.4414 51.5578 69.3971 51.0994 70.0389C50.6409 70.6737 49.9674 70.9911 49.0787 70.9911ZM49.0787 70.5467C49.5583 70.5467 49.9145 70.2787 50.1472 69.7427C50.38 69.1996 50.4963 68.3426 50.4963 67.1718C50.4963 66.008 50.38 65.1546 50.1472 64.6115C49.9145 64.0684 49.5583 63.7969 49.0787 63.7969C48.5991 63.7969 48.2429 64.0684 48.0101 64.6115C47.7774 65.1546 47.661 66.008 47.661 67.1718C47.661 68.3426 47.7774 69.1996 48.0101 69.7427C48.2429 70.2787 48.5991 70.5467 49.0787 70.5467Z" fill="#06122E"/>
<path d="M37.7317 76.1396V77.4456H39.2682V78.041H37.7317V79.4046H39.4602V80H37.0019V75.5442H39.4602V76.1396H37.7317ZM41.7228 79.347L42.7215 76.4725H43.4962L42.1517 80H41.2811L39.943 76.4725H40.7241L41.7228 79.347ZM47.2808 78.1498C47.2808 78.2821 47.2723 78.4016 47.2552 78.5083H44.56C44.5813 78.79 44.6859 79.0162 44.8737 79.1869C45.0615 79.3577 45.292 79.443 45.5651 79.443C45.9578 79.443 46.2352 79.2787 46.3974 78.9501H47.1848C47.0781 79.2744 46.8839 79.5412 46.6022 79.7503C46.3248 79.9552 45.9791 80.0576 45.5651 80.0576C45.2279 80.0576 44.9249 79.9829 44.656 79.8335C44.3914 79.6799 44.1823 79.4665 44.0286 79.1933C43.8792 78.9159 43.8046 78.5958 43.8046 78.233C43.8046 77.8703 43.8771 77.5523 44.0222 77.2792C44.1716 77.0017 44.3786 76.7883 44.6432 76.639C44.9121 76.4896 45.2194 76.4149 45.5651 76.4149C45.898 76.4149 46.1946 76.4874 46.455 76.6325C46.7153 76.7777 46.9181 76.9825 47.0632 77.2471C47.2083 77.5075 47.2808 77.8084 47.2808 78.1498ZM46.519 77.9194C46.5147 77.6505 46.4187 77.4349 46.2309 77.2727C46.0431 77.1106 45.8105 77.0295 45.5331 77.0295C45.2813 77.0295 45.0657 77.1106 44.8865 77.2727C44.7072 77.4307 44.6005 77.6462 44.5664 77.9194H46.519ZM49.7788 76.4149C50.0562 76.4149 50.3038 76.4725 50.5215 76.5877C50.7434 76.703 50.9162 76.8737 51.04 77.0999C51.1638 77.3261 51.2257 77.5993 51.2257 77.9194V80H50.5022V78.0282C50.5022 77.7124 50.4233 77.4712 50.2654 77.3048C50.1075 77.134 49.8919 77.0487 49.6188 77.0487C49.3456 77.0487 49.1279 77.134 48.9658 77.3048C48.8078 77.4712 48.7289 77.7124 48.7289 78.0282V80H47.9991V76.4725H48.7289V76.8758C48.8484 76.7307 48.9999 76.6176 49.1834 76.5365C49.3712 76.4554 49.5697 76.4149 49.7788 76.4149ZM53.0081 77.0679V79.0205C53.0081 79.1528 53.038 79.2488 53.0977 79.3086C53.1617 79.3641 53.2684 79.3918 53.4178 79.3918H53.8659V80H53.2898C52.9611 80 52.7093 79.9232 52.5343 79.7695C52.3593 79.6159 52.2718 79.3662 52.2718 79.0205V77.0679H51.8557V76.4725H52.2718V75.5954H53.0081V76.4725H53.8659V77.0679H53.0081ZM55.819 80.0576C55.5416 80.0576 55.2919 80.0085 55.07 79.9104C54.8523 79.8079 54.6794 79.6714 54.5514 79.5006C54.4234 79.3257 54.3551 79.1315 54.3465 78.9181H55.102C55.1148 79.0674 55.1852 79.1933 55.3132 79.2958C55.4456 79.3939 55.6099 79.443 55.8062 79.443C56.0111 79.443 56.169 79.4046 56.2799 79.3278C56.3952 79.2467 56.4528 79.1443 56.4528 79.0205C56.4528 78.8882 56.3888 78.79 56.2607 78.726C56.137 78.662 55.9385 78.5916 55.6654 78.5147C55.4007 78.4422 55.1852 78.3718 55.0188 78.3035C54.8523 78.2352 54.7072 78.1306 54.5834 77.9898C54.4639 77.8489 54.4042 77.6633 54.4042 77.4328C54.4042 77.245 54.4596 77.0743 54.5706 76.9206C54.6816 76.7627 54.8395 76.639 55.0444 76.5493C55.2535 76.4597 55.4925 76.4149 55.7614 76.4149C56.1626 76.4149 56.4848 76.5173 56.7281 76.7222C56.9756 76.9228 57.1079 77.1981 57.125 77.548H56.3952C56.3824 77.3901 56.3184 77.2642 56.2031 77.1703C56.0879 77.0764 55.9321 77.0295 55.7358 77.0295C55.5437 77.0295 55.3965 77.0658 55.294 77.1383C55.1916 77.2109 55.1404 77.3069 55.1404 77.4264C55.1404 77.5203 55.1745 77.5993 55.2428 77.6633C55.3111 77.7273 55.3943 77.7785 55.4925 77.8169C55.5907 77.8511 55.7358 77.8959 55.9278 77.9514C56.1839 78.0196 56.3931 78.0901 56.5552 78.1626C56.7217 78.2309 56.8647 78.3333 56.9842 78.4699C57.1037 78.6065 57.1656 78.7879 57.1698 79.0141C57.1698 79.2147 57.1143 79.3939 57.0034 79.5519C56.8924 79.7098 56.7345 79.8335 56.5296 79.9232C56.329 80.0128 56.0922 80.0576 55.819 80.0576Z" fill="#06122E"/>
</svg>
