<svg width="92" height="95" viewBox="0 0 92 95" fill="none" xmlns="http://www.w3.org/2000/svg">
<rect x="5.09473" y="8.93359" width="80" height="80" fill="#F74061"/>
<path d="M30.1556 68.1055C29.9784 68.148 29.7905 68.1693 29.5921 68.1693C29.3865 68.1693 29.188 68.1445 28.9966 68.0948C29.0391 67.4994 29.1667 66.7657 29.3794 65.8938C29.5991 65.0219 29.8756 64.1855 30.2088 63.3844C30.549 62.5834 30.9105 61.9809 31.2933 61.5768C30.6624 61.6548 29.7941 61.6938 28.6883 61.6938H27.8695C27.8128 61.6442 27.7667 61.5591 27.7313 61.4386C27.7029 61.311 27.6888 61.1799 27.6888 61.0452C27.6888 60.8609 27.7136 60.7298 27.7632 60.6518C28.4791 60.6943 29.1703 60.7156 29.8366 60.7156H32.2822C32.3389 60.7936 32.3673 60.9141 32.3673 61.0771C32.3673 61.2756 32.3141 61.4386 32.2078 61.5662C31.825 62.0837 31.4741 62.7536 31.1551 63.5758C30.8432 64.391 30.5986 65.2133 30.4214 66.0427C30.2442 66.872 30.1556 67.5596 30.1556 68.1055ZM36.1078 68.2437C35.2146 68.2437 34.5341 67.9247 34.0663 67.2867C33.6055 66.6417 33.3751 65.6812 33.3751 64.4052C33.3751 63.1293 33.6055 62.1723 34.0663 61.5343C34.5341 60.8892 35.2146 60.5667 36.1078 60.5667C37.001 60.5667 37.6779 60.8892 38.1387 61.5343C38.5995 62.1723 38.8298 63.1293 38.8298 64.4052C38.8298 65.6812 38.5995 66.6417 38.1387 67.2867C37.6779 67.9247 37.001 68.2437 36.1078 68.2437ZM36.1078 67.7971C36.5898 67.7971 36.9478 67.5277 37.1817 66.989C37.4157 66.4432 37.5326 65.5819 37.5326 64.4052C37.5326 63.2356 37.4157 62.3779 37.1817 61.832C36.9478 61.2862 36.5898 61.0133 36.1078 61.0133C35.6258 61.0133 35.2678 61.2862 35.0339 61.832C34.8 62.3779 34.683 63.2356 34.683 64.4052C34.683 65.5819 34.8 66.4432 35.0339 66.989C35.2678 67.5277 35.6258 67.7971 36.1078 67.7971ZM40.9547 69.2219C40.82 69.2007 40.6889 69.1227 40.5613 68.988C40.8023 68.7115 40.9228 68.4528 40.9228 68.2118C40.9228 67.9991 40.8661 67.8503 40.7527 67.7652C40.6392 67.6731 40.4939 67.6022 40.3167 67.5526C40.3167 67.3612 40.384 67.1946 40.5187 67.0528C40.6534 66.911 40.8271 66.8401 41.0397 66.8401C41.2382 66.8401 41.4084 66.911 41.5501 67.0528C41.6919 67.1946 41.7628 67.4179 41.7628 67.7227C41.7628 68.2402 41.4934 68.7399 40.9547 69.2219ZM45.9723 68.2437C45.0792 68.2437 44.3987 67.9247 43.9308 67.2867C43.4701 66.6417 43.2397 65.6812 43.2397 64.4052C43.2397 63.1293 43.4701 62.1723 43.9308 61.5343C44.3987 60.8892 45.0792 60.5667 45.9723 60.5667C46.8655 60.5667 47.5425 60.8892 48.0032 61.5343C48.464 62.1723 48.6944 63.1293 48.6944 64.4052C48.6944 65.6812 48.464 66.6417 48.0032 67.2867C47.5425 67.9247 46.8655 68.2437 45.9723 68.2437ZM45.9723 67.7971C46.4544 67.7971 46.8123 67.5277 47.0463 66.989C47.2802 66.4432 47.3972 65.5819 47.3972 64.4052C47.3972 63.2356 47.2802 62.3779 47.0463 61.832C46.8123 61.2862 46.4544 61.0133 45.9723 61.0133C45.4903 61.0133 45.1323 61.2862 44.8984 61.832C44.6645 62.3779 44.5475 63.2356 44.5475 64.4052C44.5475 65.5819 44.6645 66.4432 44.8984 66.989C45.1323 67.5277 45.4903 67.7971 45.9723 67.7971ZM52.6906 68.2437C51.7975 68.2437 51.1169 67.9247 50.6491 67.2867C50.1883 66.6417 49.958 65.6812 49.958 64.4052C49.958 63.1293 50.1883 62.1723 50.6491 61.5343C51.1169 60.8892 51.7975 60.5667 52.6906 60.5667C53.5838 60.5667 54.2607 60.8892 54.7215 61.5343C55.1823 62.1723 55.4127 63.1293 55.4127 64.4052C55.4127 65.6812 55.1823 66.6417 54.7215 67.2867C54.2607 67.9247 53.5838 68.2437 52.6906 68.2437ZM52.6906 67.7971C53.1726 67.7971 53.5306 67.5277 53.7645 66.989C53.9985 66.4432 54.1154 65.5819 54.1154 64.4052C54.1154 63.2356 53.9985 62.3779 53.7645 61.832C53.5306 61.2862 53.1726 61.0133 52.6906 61.0133C52.2086 61.0133 51.8506 61.2862 51.6167 61.832C51.3828 62.3779 51.2658 63.2356 51.2658 64.4052C51.2658 65.5819 51.3828 66.4432 51.6167 66.989C51.8506 67.5277 52.2086 67.7971 52.6906 67.7971ZM59.4089 68.2437C58.5157 68.2437 57.8352 67.9247 57.3674 67.2867C56.9066 66.6417 56.6762 65.6812 56.6762 64.4052C56.6762 63.1293 56.9066 62.1723 57.3674 61.5343C57.8352 60.8892 58.5157 60.5667 59.4089 60.5667C60.3021 60.5667 60.979 60.8892 61.4398 61.5343C61.9005 62.1723 62.1309 63.1293 62.1309 64.4052C62.1309 65.6812 61.9005 66.6417 61.4398 67.2867C60.979 67.9247 60.3021 68.2437 59.4089 68.2437ZM59.4089 67.7971C59.8909 67.7971 60.2489 67.5277 60.4828 66.989C60.7167 66.4432 60.8337 65.5819 60.8337 64.4052C60.8337 63.2356 60.7167 62.3779 60.4828 61.832C60.2489 61.2862 59.8909 61.0133 59.4089 61.0133C58.9269 61.0133 58.5689 61.2862 58.335 61.832C58.101 62.3779 57.9841 63.2356 57.9841 64.4052C57.9841 65.5819 58.101 66.4432 58.335 66.989C58.5689 67.5277 58.9269 67.7971 59.4089 67.7971Z" fill="#06122E"/>
<path d="M34.9042 72.442V73.186H32.5442V74.826H34.3842V75.57H32.5442V78.002H31.6322V72.442H34.9042ZM37.6614 78.074C37.2454 78.074 36.8694 77.9806 36.5334 77.794C36.1974 77.602 35.9334 77.3353 35.7414 76.994C35.5494 76.6473 35.4534 76.2473 35.4534 75.794C35.4534 75.346 35.5521 74.9486 35.7494 74.602C35.9467 74.2553 36.2161 73.9886 36.5574 73.802C36.8987 73.6153 37.2801 73.522 37.7014 73.522C38.1227 73.522 38.5041 73.6153 38.8454 73.802C39.1867 73.9886 39.4561 74.2553 39.6534 74.602C39.8507 74.9486 39.9494 75.346 39.9494 75.794C39.9494 76.242 39.8481 76.6393 39.6454 76.986C39.4427 77.3326 39.1654 77.602 38.8134 77.794C38.4667 77.9806 38.0827 78.074 37.6614 78.074ZM37.6614 77.282C37.8961 77.282 38.1147 77.226 38.3174 77.114C38.5254 77.002 38.6934 76.834 38.8214 76.61C38.9494 76.386 39.0134 76.114 39.0134 75.794C39.0134 75.474 38.9521 75.2046 38.8294 74.986C38.7067 74.762 38.5441 74.594 38.3414 74.482C38.1387 74.37 37.9201 74.314 37.6854 74.314C37.4507 74.314 37.2321 74.37 37.0294 74.482C36.8321 74.594 36.6747 74.762 36.5574 74.986C36.4401 75.2046 36.3814 75.474 36.3814 75.794C36.3814 76.2686 36.5014 76.6366 36.7414 76.898C36.9867 77.154 37.2934 77.282 37.6614 77.282ZM42.763 78.074C42.347 78.074 41.971 77.9806 41.635 77.794C41.299 77.602 41.035 77.3353 40.843 76.994C40.651 76.6473 40.555 76.2473 40.555 75.794C40.555 75.346 40.6536 74.9486 40.851 74.602C41.0483 74.2553 41.3176 73.9886 41.659 73.802C42.0003 73.6153 42.3816 73.522 42.803 73.522C43.2243 73.522 43.6056 73.6153 43.947 73.802C44.2883 73.9886 44.5576 74.2553 44.755 74.602C44.9523 74.9486 45.051 75.346 45.051 75.794C45.051 76.242 44.9496 76.6393 44.747 76.986C44.5443 77.3326 44.267 77.602 43.915 77.794C43.5683 77.9806 43.1843 78.074 42.763 78.074ZM42.763 77.282C42.9976 77.282 43.2163 77.226 43.419 77.114C43.627 77.002 43.795 76.834 43.923 76.61C44.051 76.386 44.115 76.114 44.115 75.794C44.115 75.474 44.0536 75.2046 43.931 74.986C43.8083 74.762 43.6456 74.594 43.443 74.482C43.2403 74.37 43.0216 74.314 42.787 74.314C42.5523 74.314 42.3336 74.37 42.131 74.482C41.9336 74.594 41.7763 74.762 41.659 74.986C41.5416 75.2046 41.483 75.474 41.483 75.794C41.483 76.2686 41.603 76.6366 41.843 76.898C42.0883 77.154 42.395 77.282 42.763 77.282ZM47.0165 74.338V76.778C47.0165 76.9433 47.0539 77.0633 47.1285 77.138C47.2085 77.2073 47.3419 77.242 47.5285 77.242H48.0885V78.002H47.3685C46.9579 78.002 46.6432 77.906 46.4245 77.714C46.2059 77.522 46.0965 77.21 46.0965 76.778V74.338H45.5765V73.594H46.0965V72.498H47.0165V73.594H48.0885V74.338H47.0165ZM50.7771 74.338H49.9611V78.002H49.0411V74.338H48.5211V73.594H49.0411V73.282C49.0411 72.7753 49.1744 72.4073 49.4411 72.178C49.7131 71.9433 50.1371 71.826 50.7131 71.826V72.586C50.4358 72.586 50.2411 72.6393 50.1291 72.746C50.0171 72.8473 49.9611 73.026 49.9611 73.282V73.594H50.7771V74.338ZM51.2814 75.778C51.2814 75.3353 51.372 74.9433 51.5534 74.602C51.74 74.2606 51.9907 73.9966 52.3054 73.81C52.6254 73.618 52.9774 73.522 53.3614 73.522C53.708 73.522 54.0094 73.5913 54.2654 73.73C54.5267 73.8633 54.7347 74.0313 54.8894 74.234V73.594H55.8094V78.002H54.8894V77.346C54.7347 77.554 54.524 77.7273 54.2574 77.866C53.9907 78.0046 53.6867 78.074 53.3454 78.074C52.9667 78.074 52.62 77.978 52.3054 77.786C51.9907 77.5886 51.74 77.3166 51.5534 76.97C51.372 76.618 51.2814 76.2206 51.2814 75.778ZM54.8894 75.794C54.8894 75.49 54.8254 75.226 54.6974 75.002C54.5747 74.778 54.412 74.6073 54.2094 74.49C54.0067 74.3726 53.788 74.314 53.5534 74.314C53.3187 74.314 53.1 74.3726 52.8974 74.49C52.6947 74.602 52.5294 74.77 52.4014 74.994C52.2787 75.2126 52.2174 75.474 52.2174 75.778C52.2174 76.082 52.2787 76.3486 52.4014 76.578C52.5294 76.8073 52.6947 76.9833 52.8974 77.106C53.1054 77.2233 53.324 77.282 53.5534 77.282C53.788 77.282 54.0067 77.2233 54.2094 77.106C54.412 76.9886 54.5747 76.818 54.6974 76.594C54.8254 76.3646 54.8894 76.098 54.8894 75.794ZM57.9192 72.082V78.002H57.0072V72.082H57.9192ZM60.0286 72.082V78.002H59.1166V72.082H60.0286Z" fill="#06122E"/>
<path d="M88.8885 90.1719C86.7662 90.1719 84.6342 90.1719 82.3301 90.1719C82.3746 81.7227 82.51 73.4435 82.3784 65.1453C84.6826 65.4133 86.8281 65.6492 88.902 65.4378C89.6081 73.6718 88.7047 81.9775 88.8885 90.1719ZM88.6466 72.564C87.7238 72.4508 86.7952 72.4583 85.8221 72.5187C85.8221 73.602 85.8221 74.5833 85.8221 75.6591C86.8068 75.5968 87.7257 75.6458 88.6466 75.3043C88.6466 74.4361 88.6466 73.5963 88.6466 72.564ZM88.5054 82.2946C88.5054 81.4151 88.5054 80.5828 88.5054 79.6694C87.5961 79.7128 86.712 79.7525 85.764 79.7978C85.8047 80.7225 85.677 81.5869 85.8685 82.4701C86.741 82.6343 87.5574 82.472 88.5054 82.2946ZM82.895 83.0495C82.895 84.0535 82.895 84.9782 82.895 85.9218C83.7269 86.2049 84.5085 86.1124 85.3926 86.052C85.3268 85.0216 85.263 84.044 85.1972 83.0174C84.4117 83.0325 83.694 82.8532 82.895 83.0495ZM85.9923 86.6069C85.7737 87.7109 85.9285 88.6829 86.0271 89.6793C86.8919 89.7095 87.6464 89.8152 88.4222 89.6076C88.2674 88.5828 88.4744 87.5788 88.2152 86.6088C87.4646 86.6069 86.7681 86.6069 85.9923 86.6069ZM82.9511 76.1516C82.9511 77.1707 82.9511 78.1219 82.9511 79.0882C83.7133 79.2278 84.3982 79.292 85.1082 79.2373C85.1082 78.1445 85.1082 77.1349 85.1082 76.1139C84.3653 76.0233 83.6998 75.9686 82.9511 76.1516ZM83.0594 71.9072C83.7888 71.9374 84.4659 72.1281 85.1063 71.9261C85.1063 70.8183 85.1063 69.7709 85.1063 68.7235C84.3866 68.7235 83.7578 68.7235 83.0594 68.7235C83.0594 69.8105 83.0594 70.824 83.0594 71.9072ZM85.7853 68.1347C86.6946 67.9856 87.5304 68.0856 88.3738 67.7987C88.4667 67.2288 88.4667 66.6834 88.3855 66.1153C87.5903 65.8775 86.8126 65.8209 86.002 65.9662C85.7969 66.6532 85.7253 67.3194 85.7853 68.1347Z" fill="#06122E"/>
<path d="M90.5088 65.2305C90.8396 66.1609 90.6519 66.9838 90.7042 67.7651C90.975 71.8736 91.213 75.9934 90.7719 80.1C90.4526 83.0762 90.3095 86.0486 90.4062 89.0361C90.4178 89.4192 90.4546 89.8004 90.4933 90.4043C89.909 89.8796 89.9961 89.4003 89.9864 88.9681C89.9168 85.8863 90.0889 82.8138 90.3037 79.7395C90.621 75.2177 90.4739 70.6978 90.0696 66.1855C90.0406 65.8458 90.0348 65.8457 90.5088 65.2305Z" fill="#06122E"/>
<path d="M81.2417 89.6953C80.7658 81.3632 80.6864 73.1084 81.083 64.7839C81.6596 64.982 81.5319 65.4198 81.5203 65.7954C81.4255 68.5583 81.2784 71.3193 81.2359 74.0822C81.1778 77.8812 81.3597 81.6783 81.4893 85.4755C81.528 86.6059 81.5183 87.7364 81.5106 88.8668C81.5067 89.1216 81.617 89.4217 81.2417 89.6953Z" fill="#06122E"/>
<path d="M88.8875 48.1855C86.7652 48.1855 84.6332 48.1855 82.3291 48.1855C82.3736 39.7364 82.509 31.4571 82.3775 23.159C84.6816 23.427 86.8271 23.6629 88.901 23.4515C89.6072 31.6855 88.7037 39.9912 88.8875 48.1855ZM88.6457 30.5777C87.7228 30.4644 86.7942 30.472 85.8211 30.5324C85.8211 31.6157 85.8211 32.597 85.8211 33.6727C86.8058 33.6105 87.7248 33.6595 88.6457 33.3179C88.6457 32.4498 88.6457 31.61 88.6457 30.5777ZM88.5044 40.3082C88.5044 39.4288 88.5044 38.5965 88.5044 37.6831C87.5952 37.7265 86.711 37.7661 85.7631 37.8114C85.8037 38.7362 85.676 39.6005 85.8675 40.4838C86.74 40.6479 87.5565 40.4856 88.5044 40.3082ZM82.894 41.0631C82.894 42.0671 82.894 42.9919 82.894 43.9355C83.7259 44.2186 84.5075 44.1261 85.3916 44.0657C85.3258 43.0353 85.262 42.0577 85.1962 41.031C84.4108 41.0461 83.693 40.8669 82.894 41.0631ZM85.9913 44.6206C85.7727 45.7246 85.9275 46.6965 86.0262 47.693C86.8909 47.7232 87.6455 47.8289 88.4212 47.6213C88.2665 46.5965 88.4735 45.5925 88.2142 44.6225C87.4636 44.6206 86.7671 44.6206 85.9913 44.6206ZM82.9501 34.1653C82.9501 35.1844 82.9501 36.1356 82.9501 37.1018C83.7124 37.2415 84.3972 37.3057 85.1072 37.2509C85.1072 36.1582 85.1072 35.1486 85.1072 34.1276C84.3643 34.037 83.6988 33.9822 82.9501 34.1653ZM83.0585 29.9209C83.7878 29.9511 84.4649 30.1417 85.1053 29.9398C85.1053 28.832 85.1053 27.7846 85.1053 26.7372C84.3856 26.7372 83.7569 26.7372 83.0585 26.7372C83.0585 27.8242 83.0585 28.8376 83.0585 29.9209ZM85.7843 26.1483C86.6936 25.9992 87.5294 26.0993 88.3729 25.8124C88.4657 25.2425 88.4657 24.6971 88.3845 24.129C87.5893 23.8912 86.8116 23.8346 86.001 23.9799C85.796 24.6669 85.7244 25.3331 85.7843 26.1483Z" fill="#06122E"/>
<path d="M90.5088 23.2442C90.8396 24.1746 90.6519 24.9974 90.7042 25.7787C90.975 29.8872 91.213 34.0071 90.7719 38.1137C90.4526 41.0899 90.3095 44.0622 90.4062 47.0497C90.4178 47.4328 90.4546 47.8141 90.4933 48.418C89.909 47.8933 89.9961 47.414 89.9864 46.9818C89.9168 43.8999 90.0889 40.8275 90.3037 37.7532C90.621 33.2314 90.4739 28.7115 90.0696 24.1991C90.0406 23.8594 90.0348 23.8594 90.5088 23.2442Z" fill="#06122E"/>
<path d="M81.2417 47.709C80.7658 39.3769 80.6864 31.1221 81.083 22.7975C81.6596 22.9957 81.5319 23.4335 81.5203 23.8091C81.4255 26.572 81.2784 29.333 81.2359 32.0959C81.1778 35.8949 81.3597 39.692 81.4893 43.4891C81.528 44.6196 81.5183 45.75 81.5106 46.8805C81.5067 47.1353 81.617 47.4353 81.2417 47.709Z" fill="#06122E"/>
<path d="M88.8885 69.209C86.7662 69.209 84.6342 69.209 82.3301 69.209C82.3746 60.7598 82.51 52.4806 82.3784 44.1824C84.6826 44.4504 86.8281 44.6863 88.902 44.4749C89.6081 52.7089 88.7047 61.0146 88.8885 69.209ZM88.6466 51.6011C87.7238 51.4879 86.7952 51.4954 85.8221 51.5558C85.8221 52.6391 85.8221 53.6204 85.8221 54.6962C86.8068 54.6339 87.7257 54.683 88.6466 54.3414C88.6466 53.4732 88.6466 52.6334 88.6466 51.6011ZM88.5054 61.3317C88.5054 60.4522 88.5054 59.62 88.5054 58.7065C87.5961 58.7499 86.712 58.7896 85.764 58.8349C85.8047 59.7596 85.677 60.624 85.8685 61.5072C86.741 61.6714 87.5574 61.5091 88.5054 61.3317ZM82.895 62.0866C82.895 63.0906 82.895 64.0153 82.895 64.9589C83.7269 65.242 84.5085 65.1495 85.3926 65.0892C85.3268 64.0587 85.263 63.0811 85.1972 62.0545C84.4117 62.0696 83.694 61.8903 82.895 62.0866ZM85.9923 65.644C85.7737 66.748 85.9285 67.72 86.0271 68.7164C86.8919 68.7466 87.6464 68.8523 88.4222 68.6447C88.2674 67.6199 88.4744 66.6159 88.2152 65.6459C87.4646 65.644 86.7681 65.644 85.9923 65.644ZM82.9511 55.1887C82.9511 56.2078 82.9511 57.159 82.9511 58.1253C83.7133 58.2649 84.3982 58.3291 85.1082 58.2744C85.1082 57.1817 85.1082 56.172 85.1082 55.151C84.3653 55.0604 83.6998 55.0057 82.9511 55.1887ZM83.0594 50.9443C83.7888 50.9745 84.4659 51.1652 85.1063 50.9632C85.1063 49.8554 85.1063 48.808 85.1063 47.7606C84.3866 47.7606 83.7578 47.7606 83.0594 47.7606C83.0594 48.8476 83.0594 49.8611 83.0594 50.9443ZM85.7853 47.1718C86.6946 47.0227 87.5304 47.1227 88.3738 46.8359C88.4667 46.2659 88.4667 45.7205 88.3855 45.1524C87.5903 44.9146 86.8126 44.858 86.002 45.0033C85.7969 45.6903 85.7253 46.3565 85.7853 47.1718Z" fill="#06122E"/>
<path d="M90.5087 67.1562C90.8396 66.2258 90.6519 65.403 90.7041 64.6216C90.975 60.5131 91.213 56.3933 90.7719 52.2867C90.4526 49.3105 90.3095 46.3382 90.4062 43.3507C90.4178 42.9676 90.4546 42.5863 90.4933 41.9824C89.909 42.5071 89.9961 42.9864 89.9864 43.4186C89.9168 46.5005 90.0889 49.5729 90.3037 52.6472C90.621 57.169 90.4739 61.6889 90.0696 66.2013C90.0406 66.541 90.0348 66.541 90.5087 67.1562Z" fill="#06122E"/>
<path d="M81.2417 67.8984C80.7658 59.5663 80.6864 51.3116 81.083 42.987C81.6596 43.1851 81.5319 43.623 81.5203 43.9985C81.4255 46.7614 81.2784 49.5225 81.2359 52.2854C81.1778 56.0844 81.3597 59.8815 81.4893 63.6786C81.528 64.809 81.5183 65.9395 81.5106 67.0699C81.5067 67.3247 81.617 67.6248 81.2417 67.8984Z" fill="#06122E"/>
<path d="M88.8875 27.2285C86.7652 27.2285 84.6332 27.2285 82.3291 27.2285C82.3736 18.7794 82.509 10.5001 82.3775 2.20194C84.6816 2.46993 86.8271 2.70583 88.901 2.49446C89.6072 10.7284 88.7037 19.0342 88.8875 27.2285ZM88.6457 9.62065C87.7228 9.50741 86.7942 9.51496 85.8211 9.57535C85.8211 10.6586 85.8211 11.64 85.8211 12.7157C86.8058 12.6534 87.7248 12.7025 88.6457 12.3609C88.6457 11.4928 88.6457 10.653 88.6457 9.62065ZM88.5044 19.3512C88.5044 18.4718 88.5044 17.6395 88.5044 16.7261C87.5952 16.7695 86.711 16.8091 85.7631 16.8544C85.8037 17.7791 85.676 18.6435 85.8675 19.5267C86.74 19.6909 87.5565 19.5286 88.5044 19.3512ZM82.894 20.1061C82.894 21.1101 82.894 22.0349 82.894 22.9785C83.7259 23.2616 84.5075 23.1691 85.3916 23.1087C85.3258 22.0783 85.262 21.1007 85.1962 20.074C84.4108 20.0891 83.693 19.9098 82.894 20.1061ZM85.9913 23.6635C85.7727 24.7676 85.9275 25.7395 86.0262 26.736C86.8909 26.7661 87.6455 26.8718 88.4212 26.6642C88.2665 25.6395 88.4735 24.6355 88.2142 23.6654C87.4636 23.6635 86.7671 23.6635 85.9913 23.6635ZM82.9501 13.2083C82.9501 14.2274 82.9501 15.1785 82.9501 16.1448C83.7124 16.2845 84.3972 16.3486 85.1072 16.2939C85.1072 15.2012 85.1072 14.1915 85.1072 13.1705C84.3643 13.0799 83.6988 13.0252 82.9501 13.2083ZM83.0585 8.96388C83.7878 8.99408 84.4649 9.18469 85.1053 8.98276C85.1053 7.87496 85.1053 6.82754 85.1053 5.78012C84.3856 5.78012 83.7569 5.78012 83.0585 5.78012C83.0585 6.86717 83.0585 7.88061 83.0585 8.96388ZM85.7843 5.19131C86.6936 5.04222 87.5294 5.14225 88.3729 4.85539C88.4657 4.28544 88.4657 3.74002 88.3845 3.17197C87.5893 2.93418 86.8116 2.87756 86.001 3.02288C85.796 3.70983 85.7244 4.37602 85.7843 5.19131Z" fill="#06122E"/>
<path d="M90.5087 25.1738C90.8396 24.2434 90.6519 23.4205 90.7041 22.6392C90.975 18.5307 91.213 14.4109 90.7719 10.3043C90.4526 7.32812 90.3095 4.35573 90.4062 1.36824C90.4178 0.985135 90.4546 0.603914 90.4933 6.83325e-08C89.909 0.52465 89.9961 1.004 89.9864 1.43618C89.9168 4.51803 90.0889 7.59045 90.3037 10.6647C90.621 15.1866 90.4739 19.7065 90.0696 24.2188C90.0406 24.5585 90.0348 24.5585 90.5087 25.1738Z" fill="#06122E"/>
<path d="M81.2417 25.918C80.7658 17.5858 80.6864 9.33109 81.083 1.00651C81.6596 1.20467 81.5319 1.64251 81.5203 2.01806C81.4255 4.78097 81.2784 7.54199 81.2359 10.3049C81.1778 14.1039 81.3597 17.901 81.4893 21.6981C81.528 22.8286 81.5183 23.959 81.5106 25.0895C81.5067 25.3442 81.617 25.6443 81.2417 25.918Z" fill="#06122E"/>
<path d="M50.6992 85.147C50.6992 87.2862 50.6992 89.4352 50.6992 91.7578C42.1301 91.713 33.7333 91.5765 25.3173 91.7091C25.5891 89.3865 25.8283 87.2238 25.614 85.1333C33.9649 84.4216 42.3885 85.3322 50.6992 85.147ZM32.8413 85.3908C32.7265 86.3209 32.7342 87.257 32.7954 88.2379C33.8941 88.2379 34.8893 88.2379 35.9803 88.2379C35.9172 87.2453 35.9669 86.319 35.6205 85.3908C34.7401 85.3908 33.8883 85.3908 32.8413 85.3908ZM42.7101 85.5331C41.8181 85.5331 40.974 85.5331 40.0477 85.5331C40.0917 86.4497 40.1319 87.3408 40.1778 88.2964C41.1157 88.2554 41.9923 88.3841 42.8881 88.1911C43.0546 87.3116 42.89 86.4887 42.7101 85.5331ZM43.4757 91.1884C44.4939 91.1884 45.4318 91.1884 46.3888 91.1884C46.6759 90.3498 46.5821 89.562 46.5209 88.6708C45.4758 88.7371 44.4844 88.8015 43.4431 88.8678C43.4584 89.6595 43.2766 90.383 43.4757 91.1884ZM47.0836 88.0663C48.2033 88.2866 49.1891 88.1306 50.1997 88.0312C50.2303 87.1595 50.3375 86.399 50.1269 85.617C49.0876 85.773 48.0693 85.5643 47.0855 85.8256C47.0836 86.5823 47.0836 87.2843 47.0836 88.0663ZM36.4799 91.1318C37.5135 91.1318 38.4782 91.1318 39.4581 91.1318C39.5998 90.3635 39.6648 89.6732 39.6093 88.9575C38.5011 88.9575 37.4771 88.9575 36.4416 88.9575C36.3498 89.7063 36.2943 90.3771 36.4799 91.1318ZM32.1753 91.0226C32.2059 90.2874 32.3992 89.6049 32.1944 88.9594C31.0709 88.9594 30.0086 88.9594 28.9463 88.9594C28.9463 89.6849 28.9463 90.3186 28.9463 91.0226C30.0488 91.0226 31.0766 91.0226 32.1753 91.0226ZM28.3491 88.2749C28.1979 87.3584 28.2994 86.516 28.0084 85.6657C27.4304 85.5721 26.8772 85.5721 26.3011 85.654C26.0599 86.4555 26.0025 87.2394 26.1499 88.0565C26.8466 88.2632 27.5223 88.3354 28.3491 88.2749Z" fill="#06122E"/>
<path d="M25.4034 83.5143C26.347 83.1808 27.1815 83.37 27.9739 83.3173C32.1407 83.0443 36.3191 82.8045 40.484 83.2491C43.5024 83.5708 46.517 83.7152 49.5469 83.6176C49.9354 83.6059 50.3221 83.5689 50.9346 83.5299C50.4025 84.1188 49.9163 84.0311 49.478 84.0408C46.3524 84.111 43.2363 83.9375 40.1184 83.721C35.5324 83.4012 30.9483 83.5494 26.3719 83.957C26.0273 83.9862 26.0273 83.9921 25.4034 83.5143Z" fill="#06122E"/>
<path d="M50.2139 92.8556C41.7634 93.3353 33.3915 93.4153 24.9487 93.0155C25.1497 92.4344 25.5937 92.5631 25.9746 92.5748C28.7768 92.6704 31.577 92.8186 34.3791 92.8615C38.232 92.92 42.0831 92.7367 45.9341 92.606C47.0806 92.567 48.2271 92.5767 49.3736 92.5845C49.632 92.5885 49.9363 92.4773 50.2139 92.8556Z" fill="#06122E"/>
<path d="M72.0225 85.147C72.0225 87.2862 72.0225 89.4352 72.0225 91.7578C63.4534 91.713 55.0565 91.5765 46.6405 91.7091C46.9123 89.3865 47.1516 87.2238 46.9372 85.1333C55.2881 84.4216 63.7118 85.3322 72.0225 85.147ZM54.1646 85.3908C54.0497 86.3209 54.0574 87.257 54.1187 88.2379C55.2173 88.2379 56.2126 88.2379 57.3036 88.2379C57.2404 87.2453 57.2902 86.319 56.9437 85.3908C56.0633 85.3908 55.2116 85.3908 54.1646 85.3908ZM64.0333 85.5331C63.1414 85.5331 62.2973 85.5331 61.3709 85.5331C61.4149 86.4497 61.4551 87.3408 61.501 88.2964C62.4389 88.2554 63.3156 88.3841 64.2113 88.1911C64.3778 87.3116 64.2132 86.4887 64.0333 85.5331ZM64.7989 91.1884C65.8172 91.1884 66.7551 91.1884 67.7121 91.1884C67.9992 90.3498 67.9054 89.562 67.8441 88.6708C66.7991 88.7371 65.8076 88.8015 64.7664 88.8678C64.7817 89.6595 64.5999 90.383 64.7989 91.1884ZM68.4069 88.0663C69.5266 88.2866 70.5123 88.1306 71.5229 88.0312C71.5535 87.1595 71.6607 86.399 71.4502 85.617C70.4109 85.773 69.3926 85.5643 68.4088 85.8256C68.4069 86.5823 68.4069 87.2843 68.4069 88.0663ZM57.8032 91.1318C58.8367 91.1318 59.8014 91.1318 60.7814 91.1318C60.923 90.3635 60.9881 89.6732 60.9326 88.9575C59.8244 88.9575 58.8004 88.9575 57.7649 88.9575C57.673 89.7063 57.6175 90.3771 57.8032 91.1318ZM53.4985 91.0226C53.5291 90.2874 53.7224 89.6049 53.5176 88.9594C52.3941 88.9594 51.3318 88.9594 50.2695 88.9594C50.2695 89.6849 50.2695 90.3186 50.2695 91.0226C51.372 91.0226 52.3998 91.0226 53.4985 91.0226ZM49.6724 88.2749C49.5211 87.3584 49.6226 86.516 49.3317 85.6657C48.7536 85.5721 48.2005 85.5721 47.6243 85.654C47.3832 86.4555 47.3258 87.2394 47.4731 88.0565C48.1698 88.2632 48.8455 88.3354 49.6724 88.2749Z" fill="#06122E"/>
<path d="M69.9404 83.5143C68.9968 83.1808 68.1623 83.37 67.3698 83.3173C63.203 83.0443 59.0247 82.8045 54.8598 83.2491C51.8413 83.5708 48.8268 83.7152 45.7968 83.6176C45.4083 83.6059 45.0217 83.5689 44.4092 83.5299C44.9413 84.1188 45.4274 84.0311 45.8658 84.0408C48.9914 84.111 52.1074 83.9375 55.2254 83.721C59.8114 83.4012 64.3954 83.5494 68.9719 83.957C69.3164 83.9862 69.3164 83.9921 69.9404 83.5143Z" fill="#06122E"/>
<path d="M70.6924 92.8556C62.242 93.3353 53.87 93.4153 45.4272 93.0155C45.6282 92.4344 46.0722 92.5631 46.4531 92.5748C49.2553 92.6704 52.0555 92.8186 54.8576 92.8615C58.7106 92.92 62.5616 92.7367 66.4126 92.606C67.5591 92.567 68.7056 92.5767 69.8521 92.5845C70.1105 92.5885 70.4148 92.4773 70.6924 92.8556Z" fill="#06122E"/>
<path d="M86.4424 85.147C86.4424 87.2862 86.4424 89.4352 86.4424 91.7578C77.8733 91.713 69.4764 91.5765 61.0605 91.7091C61.3323 89.3865 61.5715 87.2238 61.3571 85.1333C69.708 84.4216 78.1317 85.3322 86.4424 85.147ZM68.5845 85.3908C68.4697 86.3209 68.4773 87.257 68.5386 88.2379C69.6372 88.2379 70.6325 88.2379 71.7235 88.2379C71.6603 87.2453 71.7101 86.319 71.3637 85.3908C70.4832 85.3908 69.6315 85.3908 68.5845 85.3908ZM78.4532 85.5331C77.5613 85.5331 76.7172 85.5331 75.7908 85.5331C75.8348 86.4497 75.875 87.3408 75.921 88.2964C76.8588 88.2554 77.7355 88.3841 78.6312 88.1911C78.7978 87.3116 78.6332 86.4887 78.4532 85.5331ZM79.2188 91.1884C80.2371 91.1884 81.175 91.1884 82.132 91.1884C82.4191 90.3498 82.3253 89.562 82.2641 88.6708C81.219 88.7371 80.2275 88.8015 79.1863 88.8678C79.2016 89.6595 79.0198 90.383 79.2188 91.1884ZM82.8268 88.0663C83.9465 88.2866 84.9322 88.1306 85.9428 88.0312C85.9734 87.1595 86.0806 86.399 85.8701 85.617C84.8308 85.773 83.8125 85.5643 82.8287 85.8256C82.8268 86.5823 82.8268 87.2843 82.8268 88.0663ZM72.2231 91.1318C73.2567 91.1318 74.2213 91.1318 75.2013 91.1318C75.3429 90.3635 75.408 89.6732 75.3525 88.9575C74.2443 88.9575 73.2203 88.9575 72.1848 88.9575C72.0929 89.7063 72.0374 90.3771 72.2231 91.1318ZM67.9184 91.0226C67.949 90.2874 68.1424 89.6049 67.9376 88.9594C66.814 88.9594 65.7517 88.9594 64.6895 88.9594C64.6895 89.6849 64.6895 90.3186 64.6895 91.0226C65.7919 91.0226 66.8198 91.0226 67.9184 91.0226ZM64.0923 88.2749C63.9411 87.3584 64.0425 86.516 63.7516 85.6657C63.1736 85.5721 62.6204 85.5721 62.0443 85.654C61.8031 86.4555 61.7457 87.2394 61.8931 88.0565C62.5898 88.2632 63.2654 88.3354 64.0923 88.2749Z" fill="#06122E"/>
<path d="M84.3603 83.5143C83.4167 83.1808 82.5822 83.37 81.7898 83.3173C77.6229 83.0443 73.4446 82.8045 69.2797 83.2491C66.2613 83.5708 63.2467 83.7152 60.2168 83.6176C59.8282 83.6059 59.4416 83.5689 58.8291 83.5299C59.3612 84.1188 59.8474 84.0311 60.2857 84.0408C63.4113 84.111 66.5273 83.9375 69.6453 83.721C74.2313 83.4012 78.8154 83.5494 83.3918 83.957C83.7363 83.9862 83.7363 83.9921 84.3603 83.5143Z" fill="#06122E"/>
<path d="M85.1123 92.8556C76.6619 93.3353 68.2899 93.4153 59.8471 93.0155C60.0481 92.4344 60.4922 92.5631 60.8731 92.5748C63.6752 92.6704 66.4754 92.8186 69.2775 92.8615C73.1305 92.92 76.9815 92.7367 80.8325 92.606C81.979 92.567 83.1255 92.5767 84.272 92.5845C84.5304 92.5885 84.8348 92.4773 85.1123 92.8556Z" fill="#06122E"/>
<path d="M29.4424 85.147C29.4424 87.2862 29.4424 89.4352 29.4424 91.7578C20.8733 91.713 12.4764 91.5765 4.06046 91.7091C4.33226 89.3865 4.57151 87.2238 4.35714 85.1333C12.708 84.4216 21.1317 85.3322 29.4424 85.147ZM11.5845 85.3908C11.4697 86.3209 11.4773 87.257 11.5386 88.2379C12.6372 88.2379 13.6325 88.2379 14.7235 88.2379C14.6603 87.2453 14.7101 86.319 14.3637 85.3908C13.4832 85.3908 12.6315 85.3908 11.5845 85.3908ZM21.4532 85.5331C20.5613 85.5331 19.7172 85.5331 18.7908 85.5331C18.8348 86.4497 18.875 87.3408 18.921 88.2964C19.8588 88.2554 20.7355 88.3841 21.6312 88.1911C21.7978 87.3116 21.6332 86.4887 21.4532 85.5331ZM22.2188 91.1884C23.2371 91.1884 24.175 91.1884 25.132 91.1884C25.4191 90.3498 25.3253 89.562 25.2641 88.6708C24.219 88.7371 23.2275 88.8015 22.1863 88.8678C22.2016 89.6595 22.0198 90.383 22.2188 91.1884ZM25.8268 88.0663C26.9465 88.2866 27.9322 88.1306 28.9428 88.0312C28.9734 87.1595 29.0806 86.399 28.8701 85.617C27.8308 85.773 26.8125 85.5643 25.8287 85.8256C25.8268 86.5823 25.8268 87.2843 25.8268 88.0663ZM15.2231 91.1318C16.2567 91.1318 17.2213 91.1318 18.2013 91.1318C18.3429 90.3635 18.408 89.6732 18.3525 88.9575C17.2443 88.9575 16.2203 88.9575 15.1848 88.9575C15.0929 89.7063 15.0374 90.3771 15.2231 91.1318ZM10.9184 91.0226C10.949 90.2874 11.1424 89.6049 10.9376 88.9594C9.81403 88.9594 8.75174 88.9594 7.68946 88.9594C7.68946 89.6849 7.68946 90.3186 7.68946 91.0226C8.79194 91.0226 9.81977 91.0226 10.9184 91.0226ZM7.09228 88.2749C6.94107 87.3584 7.04252 86.516 6.75159 85.6657C6.17355 85.5721 5.62039 85.5721 5.04427 85.654C4.8031 86.4555 4.74568 87.2394 4.89306 88.0565C5.58977 88.2632 6.26542 88.3354 7.09228 88.2749Z" fill="#06122E"/>
<path d="M27.3603 83.5143C26.4167 83.1808 25.5822 83.37 24.7898 83.3173C20.6229 83.0443 16.4446 82.8045 12.2797 83.2491C9.26127 83.5708 6.24668 83.7152 3.21677 83.6176C2.82822 83.6059 2.44159 83.5689 1.8291 83.5299C2.3612 84.1188 2.84736 84.0311 3.28567 84.0408C6.41128 84.111 9.52732 83.9375 12.6453 83.721C17.2313 83.4012 21.8154 83.5494 26.3918 83.957C26.7363 83.9862 26.7363 83.9921 27.3603 83.5143Z" fill="#06122E"/>
<path d="M28.1123 92.8556C19.6619 93.3353 11.2899 93.4153 2.84714 93.0155C3.04811 92.4344 3.49217 92.5631 3.87306 92.5748C6.67519 92.6704 9.47541 92.8186 12.2775 92.8615C16.1305 92.92 19.9815 92.7367 23.8325 92.606C24.979 92.567 26.1255 92.5767 27.272 92.5845C27.5304 92.5885 27.8348 92.4773 28.1123 92.8556Z" fill="#06122E"/>
<path d="M49.6992 5.14699C49.6992 7.28624 49.6992 9.43525 49.6992 11.7578C41.1301 11.713 32.7333 11.5765 24.3173 11.7091C24.5891 9.3865 24.8283 7.22384 24.614 5.13334C32.9649 4.42155 41.3885 5.33225 49.6992 5.14699ZM31.8413 5.39075C31.7265 6.32095 31.7342 7.25699 31.7954 8.23789C32.8941 8.23789 33.8893 8.23789 34.9803 8.23789C34.9172 7.24529 34.9669 6.319 34.6205 5.39075C33.7401 5.39075 32.8883 5.39075 31.8413 5.39075ZM41.7101 5.53311C40.8181 5.53311 39.974 5.53311 39.0477 5.53311C39.0917 6.44965 39.1319 7.34085 39.1778 8.29639C40.1157 8.25544 40.9923 8.38415 41.8881 8.19109C42.0546 7.3116 41.89 6.48865 41.7101 5.53311ZM42.4757 11.1884C43.4939 11.1884 44.4318 11.1884 45.3888 11.1884C45.6759 10.3498 45.5821 9.562 45.5209 8.67081C44.4758 8.73711 43.4844 8.80147 42.4431 8.86777C42.4584 9.65951 42.2766 10.383 42.4757 11.1884ZM46.0836 8.06628C47.2033 8.28664 48.1891 8.13064 49.1997 8.03118C49.2303 7.15949 49.3375 6.39895 49.1269 5.61696C48.0876 5.77297 47.0693 5.56431 46.0855 5.82562C46.0836 6.58226 46.0836 7.28429 46.0836 8.06628ZM35.4799 11.1318C36.5135 11.1318 37.4782 11.1318 38.4581 11.1318C38.5998 10.3635 38.6648 9.67316 38.6093 8.95748C37.5011 8.95748 36.4771 8.95747 35.4416 8.95747C35.3498 9.70631 35.2943 10.3771 35.4799 11.1318ZM31.1753 11.0226C31.2059 10.2874 31.3992 9.6049 31.1944 8.95942C30.0709 8.95942 29.0086 8.95942 27.9463 8.95942C27.9463 9.68486 27.9463 10.3186 27.9463 11.0226C29.0488 11.0226 30.0766 11.0226 31.1753 11.0226ZM27.3491 8.27494C27.1979 7.3584 27.2994 6.51595 27.0084 5.66571C26.4304 5.57211 25.8772 5.57211 25.3011 5.65401C25.0599 6.4555 25.0025 7.23944 25.1499 8.05653C25.8466 8.26324 26.5223 8.33539 27.3491 8.27494Z" fill="#06122E"/>
<path d="M24.4034 3.51429C25.347 3.18082 26.1815 3.36998 26.9739 3.31733C31.1407 3.04431 35.3191 2.80446 39.484 3.24908C42.5024 3.57084 45.517 3.71515 48.5469 3.61765C48.9354 3.60595 49.3221 3.56889 49.9346 3.52989C49.4025 4.11882 48.9163 4.03107 48.478 4.04082C45.3524 4.11102 42.2363 3.93746 39.1184 3.721C34.5324 3.40118 29.9483 3.54939 25.3719 3.95696C25.0273 3.98621 25.0273 3.99206 24.4034 3.51429Z" fill="#06122E"/>
<path d="M49.2139 12.8556C40.7634 13.3353 32.3915 13.4153 23.9487 13.0155C24.1497 12.4344 24.5937 12.5631 24.9746 12.5748C27.7768 12.6704 30.577 12.8186 33.3791 12.8615C37.232 12.92 41.0831 12.7367 44.9341 12.606C46.0806 12.567 47.2271 12.5767 48.3736 12.5845C48.632 12.5885 48.9363 12.4773 49.2139 12.8556Z" fill="#06122E"/>
<path d="M71.0225 5.14699C71.0225 7.28624 71.0225 9.43525 71.0225 11.7578C62.4534 11.713 54.0565 11.5765 45.6405 11.7091C45.9123 9.3865 46.1516 7.22384 45.9372 5.13334C54.2881 4.42155 62.7118 5.33225 71.0225 5.14699ZM53.1646 5.39075C53.0497 6.32095 53.0574 7.25699 53.1187 8.23789C54.2173 8.23789 55.2126 8.23789 56.3036 8.23789C56.2404 7.24529 56.2902 6.319 55.9437 5.39075C55.0633 5.39075 54.2116 5.39075 53.1646 5.39075ZM63.0333 5.53311C62.1414 5.53311 61.2973 5.53311 60.3709 5.53311C60.4149 6.44965 60.4551 7.34085 60.501 8.29639C61.4389 8.25544 62.3156 8.38415 63.2113 8.19109C63.3778 7.3116 63.2132 6.48865 63.0333 5.53311ZM63.7989 11.1884C64.8172 11.1884 65.7551 11.1884 66.7121 11.1884C66.9992 10.3498 66.9054 9.562 66.8441 8.67081C65.7991 8.73711 64.8076 8.80147 63.7664 8.86777C63.7817 9.65951 63.5999 10.383 63.7989 11.1884ZM67.4069 8.06628C68.5266 8.28664 69.5123 8.13064 70.5229 8.03118C70.5535 7.15949 70.6607 6.39895 70.4502 5.61696C69.4109 5.77297 68.3926 5.56431 67.4088 5.82562C67.4069 6.58226 67.4069 7.28429 67.4069 8.06628ZM56.8032 11.1318C57.8367 11.1318 58.8014 11.1318 59.7814 11.1318C59.923 10.3635 59.9881 9.67316 59.9326 8.95748C58.8244 8.95748 57.8004 8.95747 56.7649 8.95747C56.673 9.70631 56.6175 10.3771 56.8032 11.1318ZM52.4985 11.0226C52.5291 10.2874 52.7224 9.6049 52.5176 8.95942C51.3941 8.95942 50.3318 8.95942 49.2695 8.95942C49.2695 9.68486 49.2695 10.3186 49.2695 11.0226C50.372 11.0226 51.3998 11.0226 52.4985 11.0226ZM48.6724 8.27494C48.5211 7.3584 48.6226 6.51595 48.3317 5.66571C47.7536 5.57211 47.2005 5.57211 46.6243 5.65401C46.3832 6.4555 46.3258 7.23944 46.4731 8.05653C47.1698 8.26324 47.8455 8.33539 48.6724 8.27494Z" fill="#06122E"/>
<path d="M68.9404 3.51429C67.9968 3.18083 67.1623 3.36998 66.3698 3.31733C62.203 3.04432 58.0247 2.80446 53.8598 3.24908C50.8413 3.57084 47.8268 3.71515 44.7968 3.61765C44.4083 3.60595 44.0217 3.56889 43.4092 3.52989C43.9413 4.11882 44.4274 4.03107 44.8658 4.04082C47.9914 4.11102 51.1074 3.93746 54.2254 3.721C58.8114 3.40119 63.3954 3.54939 67.9719 3.95696C68.3164 3.98622 68.3164 3.99207 68.9404 3.51429Z" fill="#06122E"/>
<path d="M69.6924 12.8556C61.242 13.3353 52.87 13.4153 44.4272 13.0155C44.6282 12.4344 45.0722 12.5631 45.4531 12.5748C48.2553 12.6704 51.0555 12.8186 53.8576 12.8615C57.7106 12.92 61.5616 12.7367 65.4126 12.606C66.5591 12.567 67.7056 12.5767 68.8521 12.5845C69.1105 12.5885 69.4148 12.4773 69.6924 12.8556Z" fill="#06122E"/>
<path d="M85.4424 5.14699C85.4424 7.28624 85.4424 9.43525 85.4424 11.7578C76.8733 11.713 68.4764 11.5765 60.0605 11.7091C60.3323 9.3865 60.5715 7.22384 60.3571 5.13334C68.708 4.42155 77.1317 5.33225 85.4424 5.14699ZM67.5845 5.39075C67.4697 6.32095 67.4773 7.25699 67.5386 8.23789C68.6372 8.23789 69.6325 8.23789 70.7235 8.23789C70.6603 7.24529 70.7101 6.319 70.3637 5.39075C69.4832 5.39075 68.6315 5.39075 67.5845 5.39075ZM77.4532 5.53311C76.5613 5.53311 75.7172 5.53311 74.7908 5.53311C74.8348 6.44965 74.875 7.34085 74.921 8.29639C75.8588 8.25544 76.7355 8.38415 77.6312 8.19109C77.7978 7.3116 77.6332 6.48865 77.4532 5.53311ZM78.2188 11.1884C79.2371 11.1884 80.175 11.1884 81.132 11.1884C81.4191 10.3498 81.3253 9.562 81.2641 8.67081C80.219 8.73711 79.2275 8.80147 78.1863 8.86777C78.2016 9.65951 78.0198 10.383 78.2188 11.1884ZM81.8268 8.06628C82.9465 8.28664 83.9322 8.13064 84.9428 8.03118C84.9734 7.15949 85.0806 6.39895 84.8701 5.61696C83.8308 5.77297 82.8125 5.56431 81.8287 5.82562C81.8268 6.58226 81.8268 7.28429 81.8268 8.06628ZM71.2231 11.1318C72.2567 11.1318 73.2213 11.1318 74.2013 11.1318C74.3429 10.3635 74.408 9.67316 74.3525 8.95748C73.2443 8.95748 72.2203 8.95747 71.1848 8.95747C71.0929 9.70631 71.0374 10.3771 71.2231 11.1318ZM66.9184 11.0226C66.949 10.2874 67.1424 9.6049 66.9376 8.95942C65.814 8.95942 64.7517 8.95942 63.6895 8.95942C63.6895 9.68486 63.6895 10.3186 63.6895 11.0226C64.7919 11.0226 65.8198 11.0226 66.9184 11.0226ZM63.0923 8.27494C62.9411 7.3584 63.0425 6.51595 62.7516 5.66571C62.1736 5.57211 61.6204 5.57211 61.0443 5.65401C60.8031 6.4555 60.7457 7.23944 60.8931 8.05653C61.5898 8.26324 62.2654 8.33539 63.0923 8.27494Z" fill="#06122E"/>
<path d="M83.3603 3.51429C82.4167 3.18083 81.5822 3.36998 80.7898 3.31733C76.6229 3.04432 72.4446 2.80446 68.2797 3.24908C65.2613 3.57084 62.2467 3.71515 59.2168 3.61765C58.8282 3.60595 58.4416 3.56889 57.8291 3.52989C58.3612 4.11882 58.8474 4.03107 59.2857 4.04082C62.4113 4.11102 65.5273 3.93746 68.6453 3.721C73.2313 3.40119 77.8154 3.54939 82.3918 3.95696C82.7363 3.98622 82.7363 3.99207 83.3603 3.51429Z" fill="#06122E"/>
<path d="M84.1123 12.8556C75.6619 13.3353 67.2899 13.4153 58.8471 13.0155C59.0481 12.4344 59.4922 12.5631 59.8731 12.5748C62.6752 12.6704 65.4754 12.8186 68.2775 12.8615C72.1305 12.92 75.9815 12.7367 79.8325 12.606C80.979 12.567 82.1255 12.5767 83.272 12.5845C83.5304 12.5885 83.8348 12.4773 84.1123 12.8556Z" fill="#06122E"/>
<path d="M28.4424 5.14699C28.4424 7.28624 28.4424 9.43525 28.4424 11.7578C19.8733 11.713 11.4764 11.5765 3.06046 11.7091C3.33226 9.3865 3.57151 7.22384 3.35714 5.13334C11.708 4.42155 20.1317 5.33225 28.4424 5.14699ZM10.5845 5.39075C10.4697 6.32095 10.4773 7.25699 10.5386 8.23789C11.6372 8.23789 12.6325 8.23789 13.7235 8.23789C13.6603 7.24529 13.7101 6.319 13.3637 5.39075C12.4832 5.39075 11.6315 5.39075 10.5845 5.39075ZM20.4532 5.53311C19.5613 5.53311 18.7172 5.53311 17.7908 5.53311C17.8348 6.44965 17.875 7.34085 17.921 8.29639C18.8588 8.25544 19.7355 8.38415 20.6312 8.19109C20.7978 7.3116 20.6332 6.48865 20.4532 5.53311ZM21.2188 11.1884C22.2371 11.1884 23.175 11.1884 24.132 11.1884C24.4191 10.3498 24.3253 9.562 24.2641 8.67081C23.219 8.73711 22.2275 8.80147 21.1863 8.86777C21.2016 9.65951 21.0198 10.383 21.2188 11.1884ZM24.8268 8.06628C25.9465 8.28664 26.9322 8.13064 27.9428 8.03118C27.9734 7.15949 28.0806 6.39895 27.8701 5.61696C26.8308 5.77297 25.8125 5.56431 24.8287 5.82562C24.8268 6.58226 24.8268 7.28429 24.8268 8.06628ZM14.2231 11.1318C15.2567 11.1318 16.2213 11.1318 17.2013 11.1318C17.3429 10.3635 17.408 9.67316 17.3525 8.95748C16.2443 8.95748 15.2203 8.95747 14.1848 8.95747C14.0929 9.70631 14.0374 10.3771 14.2231 11.1318ZM9.91842 11.0226C9.94904 10.2874 10.1424 9.6049 9.93757 8.95942C8.81403 8.95942 7.75174 8.95942 6.68946 8.95942C6.68946 9.68486 6.68946 10.3186 6.68946 11.0226C7.79194 11.0226 8.81977 11.0226 9.91842 11.0226ZM6.09228 8.27494C5.94107 7.3584 6.04252 6.51595 5.75159 5.66571C5.17355 5.57211 4.62039 5.57211 4.04427 5.65401C3.8031 6.4555 3.74568 7.23944 3.89306 8.05653C4.58977 8.26324 5.26542 8.33539 6.09228 8.27494Z" fill="#06122E"/>
<path d="M26.3603 3.51429C25.4167 3.18083 24.5822 3.36998 23.7898 3.31733C19.6229 3.04432 15.4446 2.80446 11.2797 3.24908C8.26127 3.57084 5.24668 3.71515 2.21677 3.61765C1.82822 3.60595 1.44159 3.56889 0.829102 3.52989C1.3612 4.11882 1.84736 4.03107 2.28567 4.04082C5.41128 4.11102 8.52732 3.93746 11.6453 3.721C16.2313 3.40119 20.8154 3.54939 25.3918 3.95696C25.7363 3.98622 25.7363 3.99207 26.3603 3.51429Z" fill="#06122E"/>
<path d="M27.1123 12.8556C18.6619 13.3353 10.2899 13.4153 1.84714 13.0155C2.04811 12.4344 2.49217 12.5631 2.87306 12.5748C5.67519 12.6704 8.47541 12.8186 11.2775 12.8615C15.1305 12.92 18.9815 12.7367 22.8325 12.606C23.979 12.567 25.1255 12.5767 26.272 12.5845C26.5304 12.5885 26.8348 12.4773 27.1123 12.8556Z" fill="#06122E"/>
<path d="M8.05838 94.293C5.93609 94.293 3.80414 94.293 1.5 94.293C1.5445 85.8438 1.67992 77.5645 1.54837 69.2664C3.85251 69.5344 5.998 69.7703 8.07192 69.5589C8.77806 77.7929 7.87459 86.0986 8.05838 94.293ZM7.81655 76.6851C6.89374 76.5719 5.96512 76.5794 4.992 76.6398C4.992 77.7231 4.992 78.7044 4.992 79.7802C5.97672 79.7179 6.89567 79.7669 7.81655 79.4254C7.81655 78.5572 7.81655 77.7174 7.81655 76.6851ZM7.67532 86.4157C7.67532 85.5362 7.67532 84.7039 7.67532 83.7905C6.76605 83.8339 5.88193 83.8736 4.93396 83.9189C4.97459 84.8436 4.8469 85.708 5.03843 86.5912C5.91094 86.7554 6.72736 86.5931 7.67532 86.4157ZM2.06491 87.1706C2.06491 88.1746 2.06491 89.0993 2.06491 90.0429C2.8968 90.326 3.67839 90.2335 4.56251 90.1731C4.49673 89.1427 4.43289 88.1651 4.36711 87.1385C3.58166 87.1536 2.86391 86.9743 2.06491 87.1706ZM5.16224 90.728C4.94363 91.832 5.0984 92.8039 5.19707 93.8004C6.06184 93.8306 6.81635 93.9363 7.59213 93.7287C7.43736 92.7039 7.64437 91.6999 7.38513 90.7299C6.63449 90.728 5.93803 90.728 5.16224 90.728ZM2.12102 80.2727C2.12102 81.2918 2.12102 82.243 2.12102 83.2093C2.88326 83.3489 3.56811 83.4131 4.27812 83.3583C4.27812 82.2656 4.27812 81.256 4.27812 80.235C3.53523 80.1444 2.86972 80.0897 2.12102 80.2727ZM2.22936 76.0283C2.95871 76.0585 3.63583 76.2491 4.27619 76.0472C4.27619 74.9394 4.27619 73.892 4.27619 72.8446C3.55651 72.8446 2.92776 72.8446 2.22936 72.8446C2.22936 73.9316 2.22936 74.9451 2.22936 76.0283ZM4.95524 72.2558C5.86452 72.1067 6.70027 72.2067 7.54377 71.9198C7.63663 71.3499 7.63663 70.8045 7.55538 70.2364C6.76025 69.9986 5.98253 69.942 5.17192 70.0873C4.96685 70.7743 4.89527 71.4405 4.95524 72.2558Z" fill="#06122E"/>
<path d="M9.67965 69.3516C10.0105 70.282 9.82282 71.1049 9.87505 71.8862C10.1459 75.9947 10.3839 80.1145 9.94276 84.2211C9.62355 87.1973 9.48038 90.1697 9.57711 93.1571C9.58872 93.5403 9.62548 93.9215 9.66417 94.5254C9.07991 94.0007 9.16697 93.5214 9.1573 93.0892C9.08765 90.0074 9.25984 86.9349 9.47458 83.8606C9.79186 79.3388 9.64483 74.8189 9.24049 70.3066C9.21147 69.9669 9.20567 69.9668 9.67965 69.3516Z" fill="#06122E"/>
<path d="M0.412572 93.8164C-0.0633443 85.4843 -0.142663 77.2295 0.253936 68.9049C0.830454 69.1031 0.702768 69.5409 0.69116 69.9165C0.596363 72.6794 0.449333 75.4404 0.406771 78.2033C0.348731 82.0023 0.530585 85.7994 0.660204 89.5965C0.698897 90.727 0.689224 91.8575 0.681485 92.9879C0.677616 93.2427 0.787889 93.5428 0.412572 93.8164Z" fill="#06122E"/>
<path d="M8.05935 52.1855C5.93707 52.1855 3.80511 52.1855 1.50098 52.1855C1.54547 43.7364 1.6809 35.4571 1.54935 27.159C3.85348 27.427 5.99898 27.6629 8.0729 27.4515C8.77904 35.6855 7.87557 43.9912 8.05935 52.1855ZM7.81753 34.5777C6.89471 34.4644 5.96609 34.472 4.99298 34.5324C4.99298 35.6157 4.99298 36.597 4.99298 37.6727C5.9777 37.6105 6.89665 37.6595 7.81753 37.3179C7.81753 36.4498 7.81753 35.61 7.81753 34.5777ZM7.6763 44.3082C7.6763 43.4288 7.6763 42.5965 7.6763 41.6831C6.76703 41.7265 5.8829 41.7661 4.93494 41.8114C4.97556 42.7362 4.84788 43.6005 5.03941 44.4838C5.91192 44.6479 6.72833 44.4856 7.6763 44.3082ZM2.06589 45.0631C2.06589 46.0671 2.06589 46.9919 2.06589 47.9355C2.89778 48.2186 3.67936 48.1261 4.56349 48.0657C4.49771 47.0353 4.43387 46.0577 4.36809 45.031C3.58263 45.0461 2.86489 44.8669 2.06589 45.0631ZM5.16322 48.6206C4.94461 49.7246 5.09938 50.6965 5.19804 51.693C6.06282 51.7232 6.81733 51.8289 7.59311 51.6213C7.43834 50.5965 7.64535 49.5925 7.38611 48.6225C6.63547 48.6206 5.93901 48.6206 5.16322 48.6206ZM2.12199 38.1653C2.12199 39.1844 2.12199 40.1356 2.12199 41.1018C2.88423 41.2415 3.56909 41.3057 4.2791 41.2509C4.2791 40.1582 4.2791 39.1486 4.2791 38.1276C3.5362 38.037 2.87069 37.9822 2.12199 38.1653ZM2.23033 33.9209C2.95969 33.9511 3.63681 34.1417 4.27717 33.9398C4.27717 32.832 4.27717 31.7846 4.27717 30.7372C3.55749 30.7372 2.92873 30.7372 2.23033 30.7372C2.23033 31.8242 2.23033 32.8376 2.23033 33.9209ZM4.95622 30.1483C5.86549 29.9992 6.70125 30.0993 7.54475 29.8124C7.63761 29.2425 7.63761 28.6971 7.55635 28.129C6.76122 27.8912 5.98351 27.8346 5.1729 27.9799C4.96783 28.6669 4.89625 29.3331 4.95622 30.1483Z" fill="#06122E"/>
<path d="M9.67965 27.2442C10.0105 28.1746 9.82282 28.9974 9.87505 29.7787C10.1459 33.8872 10.3839 38.0071 9.94276 42.1137C9.62355 45.0899 9.48038 48.0622 9.57711 51.0497C9.58872 51.4328 9.62548 51.8141 9.66417 52.418C9.07991 51.8933 9.16697 51.414 9.1573 50.9818C9.08765 47.8999 9.25984 44.8275 9.47458 41.7532C9.79186 37.2314 9.64483 32.7115 9.24049 28.1991C9.21147 27.8594 9.20567 27.8594 9.67965 27.2442Z" fill="#06122E"/>
<path d="M0.412572 51.709C-0.0633443 43.3769 -0.142663 35.1221 0.253936 26.7975C0.830454 26.9957 0.702768 27.4335 0.69116 27.8091C0.596363 30.572 0.449333 33.333 0.406771 36.0959C0.348731 39.8949 0.530585 43.692 0.660204 47.4891C0.698897 48.6196 0.689224 49.75 0.681485 50.8805C0.677616 51.1353 0.787889 51.4353 0.412572 51.709Z" fill="#06122E"/>
<path d="M8.05935 73.334C5.93707 73.334 3.80511 73.334 1.50098 73.334C1.54547 64.8848 1.6809 56.6056 1.54935 48.3074C3.85348 48.5754 5.99898 48.8113 8.0729 48.5999C8.77904 56.8339 7.87557 65.1396 8.05935 73.334ZM7.81753 55.7261C6.89471 55.6129 5.96609 55.6204 4.99298 55.6808C4.99298 56.7641 4.99298 57.7454 4.99298 58.8212C5.9777 58.7589 6.89665 58.808 7.81753 58.4664C7.81753 57.5982 7.81753 56.7584 7.81753 55.7261ZM7.6763 65.4567C7.6763 64.5772 7.6763 63.745 7.6763 62.8315C6.76703 62.8749 5.8829 62.9146 4.93494 62.9599C4.97556 63.8846 4.84788 64.749 5.03941 65.6322C5.91192 65.7964 6.72833 65.6341 7.6763 65.4567ZM2.06589 66.2116C2.06589 67.2156 2.06589 68.1403 2.06589 69.0839C2.89778 69.367 3.67936 69.2745 4.56349 69.2142C4.49771 68.1837 4.43387 67.2061 4.36809 66.1795C3.58263 66.1946 2.86489 66.0153 2.06589 66.2116ZM5.16322 69.769C4.94461 70.873 5.09938 71.845 5.19804 72.8414C6.06282 72.8716 6.81733 72.9773 7.59311 72.7697C7.43834 71.7449 7.64535 70.7409 7.38611 69.7709C6.63547 69.769 5.93901 69.769 5.16322 69.769ZM2.12199 59.3137C2.12199 60.3328 2.12199 61.284 2.12199 62.2503C2.88423 62.3899 3.56909 62.4541 4.2791 62.3994C4.2791 61.3067 4.2791 60.297 4.2791 59.276C3.5362 59.1854 2.87069 59.1307 2.12199 59.3137ZM2.23033 55.0693C2.95969 55.0995 3.63681 55.2902 4.27717 55.0882C4.27717 53.9804 4.27717 52.933 4.27717 51.8856C3.55749 51.8856 2.92873 51.8856 2.23033 51.8856C2.23033 52.9726 2.23033 53.9861 2.23033 55.0693ZM4.95622 51.2968C5.86549 51.1477 6.70125 51.2477 7.54475 50.9609C7.63761 50.3909 7.63761 49.8455 7.55635 49.2774C6.76122 49.0396 5.98351 48.983 5.1729 49.1283C4.96783 49.8153 4.89625 50.4815 4.95622 51.2968Z" fill="#06122E"/>
<path d="M9.67965 71.2793C10.0105 70.3489 9.82281 69.526 9.87504 68.7447C10.1459 64.6362 10.3838 60.5164 9.94276 56.4098C9.62354 53.4336 9.48038 50.4612 9.57711 47.4737C9.58872 47.0906 9.62548 46.7094 9.66417 46.1055C9.07991 46.6301 9.16697 47.1095 9.1573 47.5416C9.08765 50.6235 9.25983 53.6959 9.47458 56.7702C9.79186 61.292 9.64482 65.8119 9.24049 70.3243C9.21147 70.664 9.20566 70.664 9.67965 71.2793Z" fill="#06122E"/>
<path d="M0.412572 72.0234C-0.0633443 63.6913 -0.142663 55.4366 0.253936 47.112C0.830454 47.3101 0.702768 47.748 0.69116 48.1235C0.596363 50.8864 0.449333 53.6475 0.406771 56.4104C0.348731 60.2094 0.530585 64.0065 0.660204 67.8036C0.698897 68.934 0.689224 70.0645 0.681485 71.1949C0.677616 71.4497 0.787889 71.7498 0.412572 72.0234Z" fill="#06122E"/>
<path d="M8.05838 31.2285C5.93609 31.2285 3.80414 31.2285 1.5 31.2285C1.5445 22.7794 1.67992 14.5001 1.54837 6.20194C3.85251 6.46993 5.998 6.70583 8.07192 6.49446C8.77806 14.7284 7.87459 23.0342 8.05838 31.2285ZM7.81655 13.6206C6.89374 13.5074 5.96512 13.515 4.992 13.5754C4.992 14.6586 4.992 15.64 4.992 16.7157C5.97672 16.6534 6.89567 16.7025 7.81655 16.3609C7.81655 15.4928 7.81655 14.653 7.81655 13.6206ZM7.67532 23.3512C7.67532 22.4718 7.67532 21.6395 7.67532 20.7261C6.76605 20.7695 5.88193 20.8091 4.93396 20.8544C4.97459 21.7791 4.8469 22.6435 5.03843 23.5267C5.91094 23.6909 6.72736 23.5286 7.67532 23.3512ZM2.06491 24.1061C2.06491 25.1101 2.06491 26.0349 2.06491 26.9785C2.8968 27.2616 3.67839 27.1691 4.56251 27.1087C4.49673 26.0783 4.43289 25.1007 4.36711 24.074C3.58166 24.0891 2.86391 23.9098 2.06491 24.1061ZM5.16224 27.6635C4.94363 28.7676 5.0984 29.7395 5.19707 30.736C6.06184 30.7661 6.81635 30.8718 7.59213 30.6642C7.43736 29.6395 7.64437 28.6355 7.38513 27.6654C6.63449 27.6635 5.93803 27.6635 5.16224 27.6635ZM2.12102 17.2083C2.12102 18.2274 2.12102 19.1785 2.12102 20.1448C2.88326 20.2845 3.56811 20.3486 4.27812 20.2939C4.27812 19.2012 4.27812 18.1915 4.27812 17.1705C3.53523 17.0799 2.86972 17.0252 2.12102 17.2083ZM2.22936 12.9639C2.95871 12.9941 3.63583 13.1847 4.27619 12.9828C4.27619 11.875 4.27619 10.8275 4.27619 9.78012C3.55651 9.78012 2.92776 9.78012 2.22936 9.78012C2.22936 10.8672 2.22936 11.8806 2.22936 12.9639ZM4.95524 9.19131C5.86452 9.04222 6.70027 9.14225 7.54377 8.85539C7.63663 8.28544 7.63663 7.74002 7.55538 7.17197C6.76025 6.93418 5.98253 6.87756 5.17192 7.02288C4.96685 7.70983 4.89527 8.37602 4.95524 9.19131Z" fill="#06122E"/>
<path d="M9.67965 29.1738C10.0105 28.2434 9.82281 27.4205 9.87504 26.6392C10.1459 22.5307 10.3838 18.4109 9.94276 14.3043C9.62354 11.3281 9.48038 8.35573 9.57711 5.36824C9.58872 4.98514 9.62548 4.60391 9.66417 4C9.07991 4.52465 9.16697 5.004 9.1573 5.43618C9.08765 8.51803 9.25983 11.5904 9.47458 14.6647C9.79186 19.1866 9.64482 23.7065 9.24049 28.2188C9.21147 28.5585 9.20566 28.5585 9.67965 29.1738Z" fill="#06122E"/>
<path d="M0.412572 29.918C-0.0633443 21.5858 -0.142663 13.3311 0.253936 5.00651C0.830454 5.20467 0.702768 5.64251 0.69116 6.01806C0.596363 8.78097 0.449333 11.542 0.406771 14.3049C0.348731 18.1039 0.530585 21.901 0.660204 25.6981C0.698897 26.8286 0.689224 27.959 0.681485 29.0895C0.677616 29.3442 0.787889 29.6443 0.412572 29.918Z" fill="#06122E"/>
<g clip-path="url(#clip0_895_1391)">
<path d="M51.3449 31.4766H48.1554C47.4987 31.8834 46.7278 32.1179 45.9019 32.1179C45.076 32.1179 44.3044 31.8834 43.6484 31.4766H40.7462C39.6163 31.4766 38.6914 32.391 38.6914 33.5076V42.986C38.6914 44.1035 39.6163 45.0171 40.7462 45.0171H51.3449C52.4748 45.0171 53.3997 44.1027 53.3997 42.986V33.5076C53.3997 32.391 52.4748 31.4766 51.3449 31.4766Z" fill="#06122E"/>
<path d="M45.901 31.5467C48.2901 31.5467 50.2268 29.5845 50.2268 27.164C50.2268 24.7435 48.2901 22.7812 45.901 22.7812C43.5119 22.7812 41.5752 24.7435 41.5752 27.164C41.5752 29.5845 43.5119 31.5467 45.901 31.5467Z" fill="#06122E"/>
<path d="M57.6006 32.1933C59.6851 32.1933 61.375 30.5013 61.375 28.4141C61.375 26.3268 59.6851 24.6348 57.6006 24.6348C55.516 24.6348 53.8262 26.3268 53.8262 28.4141C53.8262 30.5013 55.516 32.1933 57.6006 32.1933Z" fill="#06122E"/>
<path d="M33.8076 32.1933C35.8922 32.1933 37.582 30.5013 37.582 28.4141C37.582 26.3268 35.8922 24.6348 33.8076 24.6348C31.7231 24.6348 30.0332 26.3268 30.0332 28.4141C30.0332 30.5013 31.7231 32.1933 33.8076 32.1933Z" fill="#06122E"/>
<path d="M62.3497 32.1309H59.5663C58.9934 32.4813 58.3207 32.6835 57.6001 32.6835C56.8796 32.6835 56.2061 32.4813 55.6339 32.1309H53.7451C53.9837 32.5361 54.121 33.0058 54.121 33.5077V42.9861C54.121 43.2713 54.0763 43.5469 53.9941 43.8055H62.3497C63.336 43.8055 64.1427 43.0176 64.1427 42.054V33.8823C64.1427 32.9188 63.336 32.1309 62.3497 32.1309Z" fill="#06122E"/>
<path d="M38.305 32.1309H35.7731C35.2001 32.4813 34.5274 32.6835 33.8069 32.6835C33.0863 32.6835 32.4128 32.4813 31.8406 32.1309H29.3087C28.3224 32.1309 27.5156 32.9188 27.5156 33.8823V42.0548C27.5156 43.0184 28.3224 43.8063 29.3087 43.8063H38.1215C38.0242 43.5267 37.9707 43.227 37.9707 42.9153V33.436C37.9699 32.9639 38.0912 32.5192 38.305 32.1309Z" fill="#06122E"/>
</g>
<defs>
<clipPath id="clip0_895_1391">
<rect width="36.627" height="22.2359" fill="white" transform="translate(27.5156 22.7793)"/>
</clipPath>
</defs>
</svg>
