<svg width="274" height="425" viewBox="0 0 274 425" fill="none" xmlns="http://www.w3.org/2000/svg">
<rect x="18.5303" y="20.6914" width="236.67" height="386" fill="#F74061"/>
<path d="M86.4287 336.691C85.8287 336.835 85.1927 336.907 84.5207 336.907C83.8247 336.907 83.1527 336.823 82.5047 336.655C82.6487 334.639 83.0807 332.155 83.8007 329.203C84.5447 326.251 85.4807 323.419 86.6087 320.707C87.7607 317.995 88.9847 315.955 90.2807 314.587C88.1447 314.851 85.2047 314.983 81.4607 314.983H78.6887C78.4967 314.815 78.3407 314.527 78.2207 314.119C78.1247 313.687 78.0767 313.243 78.0767 312.787C78.0767 312.163 78.1607 311.719 78.3287 311.455C80.7527 311.599 83.0927 311.671 85.3487 311.671H93.6287C93.8207 311.935 93.9167 312.343 93.9167 312.895C93.9167 313.567 93.7367 314.119 93.3767 314.551C92.0807 316.303 90.8927 318.571 89.8127 321.355C88.7567 324.115 87.9287 326.899 87.3287 329.707C86.7287 332.515 86.4287 334.843 86.4287 336.691ZM106.581 337.159C103.557 337.159 101.253 336.079 99.6691 333.919C98.1091 331.735 97.3291 328.483 97.3291 324.163C97.3291 319.843 98.1091 316.603 99.6691 314.443C101.253 312.259 103.557 311.167 106.581 311.167C109.605 311.167 111.897 312.259 113.457 314.443C115.017 316.603 115.797 319.843 115.797 324.163C115.797 328.483 115.017 331.735 113.457 333.919C111.897 336.079 109.605 337.159 106.581 337.159ZM106.581 335.647C108.213 335.647 109.425 334.735 110.217 332.911C111.009 331.063 111.405 328.147 111.405 324.163C111.405 320.203 111.009 317.299 110.217 315.451C109.425 313.603 108.213 312.679 106.581 312.679C104.949 312.679 103.737 313.603 102.945 315.451C102.153 317.299 101.757 320.203 101.757 324.163C101.757 328.147 102.153 331.063 102.945 332.911C103.737 334.735 104.949 335.647 106.581 335.647ZM122.991 340.471C122.535 340.399 122.091 340.135 121.659 339.679C122.475 338.743 122.883 337.867 122.883 337.051C122.883 336.331 122.691 335.827 122.307 335.539C121.923 335.227 121.431 334.987 120.831 334.819C120.831 334.171 121.059 333.607 121.515 333.127C121.971 332.647 122.559 332.407 123.279 332.407C123.951 332.407 124.527 332.647 125.007 333.127C125.487 333.607 125.727 334.363 125.727 335.395C125.727 337.147 124.815 338.839 122.991 340.471ZM139.98 337.159C136.956 337.159 134.652 336.079 133.068 333.919C131.508 331.735 130.728 328.483 130.728 324.163C130.728 319.843 131.508 316.603 133.068 314.443C134.652 312.259 136.956 311.167 139.98 311.167C143.004 311.167 145.296 312.259 146.856 314.443C148.416 316.603 149.196 319.843 149.196 324.163C149.196 328.483 148.416 331.735 146.856 333.919C145.296 336.079 143.004 337.159 139.98 337.159ZM139.98 335.647C141.612 335.647 142.824 334.735 143.616 332.911C144.408 331.063 144.804 328.147 144.804 324.163C144.804 320.203 144.408 317.299 143.616 315.451C142.824 313.603 141.612 312.679 139.98 312.679C138.348 312.679 137.136 313.603 136.344 315.451C135.552 317.299 135.156 320.203 135.156 324.163C135.156 328.147 135.552 331.063 136.344 332.911C137.136 334.735 138.348 335.647 139.98 335.647ZM162.726 337.159C159.702 337.159 157.398 336.079 155.814 333.919C154.254 331.735 153.474 328.483 153.474 324.163C153.474 319.843 154.254 316.603 155.814 314.443C157.398 312.259 159.702 311.167 162.726 311.167C165.75 311.167 168.042 312.259 169.602 314.443C171.162 316.603 171.942 319.843 171.942 324.163C171.942 328.483 171.162 331.735 169.602 333.919C168.042 336.079 165.75 337.159 162.726 337.159ZM162.726 335.647C164.358 335.647 165.57 334.735 166.362 332.911C167.154 331.063 167.55 328.147 167.55 324.163C167.55 320.203 167.154 317.299 166.362 315.451C165.57 313.603 164.358 312.679 162.726 312.679C161.094 312.679 159.882 313.603 159.09 315.451C158.298 317.299 157.902 320.203 157.902 324.163C157.902 328.147 158.298 331.063 159.09 332.911C159.882 334.735 161.094 335.647 162.726 335.647ZM185.472 337.159C182.448 337.159 180.144 336.079 178.56 333.919C177 331.735 176.22 328.483 176.22 324.163C176.22 319.843 177 316.603 178.56 314.443C180.144 312.259 182.448 311.167 185.472 311.167C188.496 311.167 190.788 312.259 192.348 314.443C193.908 316.603 194.688 319.843 194.688 324.163C194.688 328.483 193.908 331.735 192.348 333.919C190.788 336.079 188.496 337.159 185.472 337.159ZM185.472 335.647C187.104 335.647 188.316 334.735 189.108 332.911C189.9 331.063 190.296 328.147 190.296 324.163C190.296 320.203 189.9 317.299 189.108 315.451C188.316 313.603 187.104 312.679 185.472 312.679C183.84 312.679 182.628 313.603 181.836 315.451C181.044 317.299 180.648 320.203 180.648 324.163C180.648 328.147 181.044 331.063 181.836 332.911C182.628 334.735 183.84 335.647 185.472 335.647Z" fill="#06122E"/>
<path d="M102.969 354.621C103.281 354.621 103.437 354.881 103.437 355.401C103.437 355.748 103.359 356.103 103.203 356.467C103.064 356.814 102.882 357.039 102.657 357.143C100.456 356.467 98.2458 356.103 96.0271 356.051V362.551H101.929C101.998 362.759 102.033 363.011 102.033 363.305C102.033 363.531 101.998 363.817 101.929 364.163H96.0531V369.285C96.0531 370.637 96.1918 371.669 96.4691 372.379C95.9838 372.813 95.4291 373.029 94.8051 373.029C94.3198 373.029 93.9211 372.899 93.6091 372.639C93.3145 372.362 93.1671 371.989 93.1671 371.521L93.1411 358.365C93.1411 357.083 93.0025 356.077 92.7251 355.349C93.0545 355.055 93.3925 354.864 93.7391 354.777C94.1031 354.673 94.6145 354.621 95.2731 354.621H102.969ZM111.715 373.029C109.756 373.029 108.231 372.414 107.139 371.183C106.064 369.953 105.527 368.237 105.527 366.035C105.527 363.817 106.073 362.092 107.165 360.861C108.257 359.631 109.773 359.015 111.715 359.015C113.673 359.015 115.199 359.631 116.291 360.861C117.383 362.092 117.929 363.817 117.929 366.035C117.929 368.237 117.383 369.953 116.291 371.183C115.199 372.414 113.673 373.029 111.715 373.029ZM111.715 371.963C112.755 371.963 113.535 371.461 114.055 370.455C114.592 369.45 114.861 367.977 114.861 366.035C114.861 364.077 114.592 362.595 114.055 361.589C113.535 360.584 112.755 360.081 111.715 360.081C110.675 360.081 109.886 360.584 109.349 361.589C108.829 362.595 108.569 364.077 108.569 366.035C108.569 367.977 108.829 369.45 109.349 370.455C109.886 371.461 110.675 371.963 111.715 371.963ZM126.137 373.029C124.178 373.029 122.653 372.414 121.561 371.183C120.486 369.953 119.949 368.237 119.949 366.035C119.949 363.817 120.495 362.092 121.587 360.861C122.679 359.631 124.195 359.015 126.137 359.015C128.095 359.015 129.621 359.631 130.713 360.861C131.805 362.092 132.351 363.817 132.351 366.035C132.351 368.237 131.805 369.953 130.713 371.183C129.621 372.414 128.095 373.029 126.137 373.029ZM126.137 371.963C127.177 371.963 127.957 371.461 128.477 370.455C129.014 369.45 129.283 367.977 129.283 366.035C129.283 364.077 129.014 362.595 128.477 361.589C127.957 360.584 127.177 360.081 126.137 360.081C125.097 360.081 124.308 360.584 123.771 361.589C123.251 362.595 122.991 364.077 122.991 366.035C122.991 367.977 123.251 369.45 123.771 370.455C124.308 371.461 125.097 371.963 126.137 371.963ZM138.946 359.379C139.276 359.379 139.726 359.371 140.298 359.353C140.87 359.336 141.321 359.319 141.65 359.301L141.624 360.003C141.607 360.229 141.529 360.411 141.39 360.549C141.269 360.671 141.104 360.731 140.896 360.731H138.452V361.589L138.426 369.415C138.426 370.351 138.834 370.819 139.648 370.819C139.891 370.819 140.116 370.785 140.324 370.715C140.55 370.629 140.697 370.516 140.766 370.377C140.992 370.707 141.104 371.027 141.104 371.339C141.104 371.825 140.862 372.223 140.376 372.535C139.908 372.83 139.302 372.977 138.556 372.977C137.62 372.977 136.892 372.683 136.372 372.093C135.852 371.504 135.592 370.689 135.592 369.649V360.731H135.228C135.003 360.731 134.743 360.74 134.448 360.757C134.154 360.775 133.894 360.801 133.668 360.835L133.694 360.081C133.712 359.856 133.79 359.683 133.928 359.561C134.067 359.44 134.24 359.379 134.448 359.379H135.592V357.403C135.592 356.953 135.748 356.597 136.06 356.337C136.372 356.06 136.771 355.921 137.256 355.921C137.863 355.921 138.4 356.129 138.868 356.545C138.66 357.308 138.53 358.253 138.478 359.379H138.946ZM149.416 353.399C150.577 353.399 151.487 353.599 152.146 353.997C152.822 354.379 153.16 354.933 153.16 355.661C153.16 356.164 152.987 356.571 152.64 356.883C152.293 357.195 151.877 357.351 151.392 357.351C150.803 357.351 150.395 357.213 150.17 356.935C150.499 356.485 150.664 356.034 150.664 355.583C150.664 354.786 150.231 354.387 149.364 354.387C148.809 354.387 148.393 354.595 148.116 355.011C147.856 355.427 147.691 355.947 147.622 356.571C147.553 357.195 147.518 358.019 147.518 359.041V359.379H148.48C148.792 359.379 149.217 359.371 149.754 359.353C150.291 359.336 150.716 359.319 151.028 359.301L151.002 360.003C150.985 360.229 150.907 360.411 150.768 360.549C150.629 360.671 150.456 360.731 150.248 360.731H147.518V369.285C147.518 370.585 147.657 371.617 147.934 372.379C147.466 372.813 146.929 373.029 146.322 373.029C145.837 373.029 145.438 372.891 145.126 372.613C144.831 372.336 144.684 371.972 144.684 371.521V360.731H144.398C144.173 360.731 143.913 360.74 143.618 360.757C143.323 360.775 143.063 360.801 142.838 360.835L142.864 360.081C142.881 359.856 142.959 359.683 143.098 359.561C143.237 359.44 143.41 359.379 143.618 359.379H144.684V358.547C144.684 355.115 146.261 353.399 149.416 353.399ZM166.718 370.377C166.926 370.655 167.03 370.975 167.03 371.339C167.03 371.79 166.831 372.171 166.432 372.483C166.033 372.795 165.522 372.951 164.898 372.951C164.049 372.951 163.407 372.665 162.974 372.093C162.541 371.504 162.315 370.559 162.298 369.259C161.778 370.386 161.067 371.287 160.166 371.963C159.265 372.639 158.233 372.977 157.072 372.977C156.067 372.977 155.252 372.709 154.628 372.171C154.021 371.617 153.718 370.871 153.718 369.935C153.718 368.843 154.134 367.942 154.966 367.231C155.798 366.521 156.864 365.983 158.164 365.619C159.464 365.255 160.79 365.091 162.142 365.125V364.475C162.142 362.967 161.934 361.858 161.518 361.147C161.102 360.437 160.409 360.081 159.438 360.081C158.779 360.081 158.242 360.237 157.826 360.549C157.427 360.861 157.228 361.373 157.228 362.083C157.228 362.482 157.306 362.855 157.462 363.201C157.618 363.548 157.878 363.808 158.242 363.981C158.069 364.172 157.835 364.319 157.54 364.423C157.263 364.51 156.968 364.553 156.656 364.553C155.963 364.553 155.399 364.328 154.966 363.877C154.55 363.409 154.342 362.846 154.342 362.187C154.342 361.165 154.81 360.385 155.746 359.847C156.682 359.293 157.973 359.015 159.62 359.015C161.492 359.015 162.861 359.466 163.728 360.367C164.612 361.251 165.054 362.673 165.054 364.631V369.415C165.054 370.334 165.349 370.793 165.938 370.793C166.077 370.793 166.215 370.759 166.354 370.689C166.51 370.62 166.631 370.516 166.718 370.377ZM158.372 371.079C158.944 371.079 159.525 370.854 160.114 370.403C160.721 369.935 161.223 369.32 161.622 368.557C162.021 367.795 162.22 366.98 162.22 366.113C161.613 366.079 160.998 366.113 160.374 366.217C159.75 366.304 159.213 366.451 158.762 366.659C158.155 366.919 157.679 367.275 157.332 367.725C157.003 368.159 156.838 368.67 156.838 369.259C156.838 369.779 156.959 370.213 157.202 370.559C157.462 370.906 157.852 371.079 158.372 371.079ZM171.96 372.951C171.041 372.951 170.33 372.665 169.828 372.093C169.342 371.504 169.1 370.689 169.1 369.649V355.167C169.1 354.699 169.247 354.335 169.542 354.075C169.854 353.798 170.252 353.659 170.738 353.659C171.379 353.659 171.916 353.876 172.35 354.309C172.176 354.933 172.064 355.609 172.012 356.337C171.96 357.048 171.934 358.062 171.934 359.379V369.415C171.934 370.334 172.246 370.793 172.87 370.793C173.043 370.793 173.208 370.759 173.364 370.689C173.537 370.62 173.658 370.516 173.728 370.377C173.953 370.655 174.066 370.975 174.066 371.339C174.066 371.807 173.858 372.197 173.442 372.509C173.026 372.804 172.532 372.951 171.96 372.951ZM179.297 372.951C178.379 372.951 177.668 372.665 177.165 372.093C176.68 371.504 176.437 370.689 176.437 369.649V355.167C176.437 354.699 176.585 354.335 176.879 354.075C177.191 353.798 177.59 353.659 178.075 353.659C178.717 353.659 179.254 353.876 179.687 354.309C179.514 354.933 179.401 355.609 179.349 356.337C179.297 357.048 179.271 358.062 179.271 359.379V369.415C179.271 370.334 179.583 370.793 180.207 370.793C180.381 370.793 180.545 370.759 180.701 370.689C180.875 370.62 180.996 370.516 181.065 370.377C181.291 370.655 181.403 370.975 181.403 371.339C181.403 371.807 181.195 372.197 180.779 372.509C180.363 372.804 179.869 372.951 179.297 372.951Z" fill="#06122E"/>
<path d="M266.321 305.336C259.078 305.336 251.802 305.336 243.938 305.336C244.09 276.73 244.553 248.698 244.104 220.603C251.967 221.511 259.289 222.309 266.367 221.594C268.777 249.472 265.694 277.592 266.321 305.336ZM265.495 245.721C262.346 245.338 259.177 245.363 255.856 245.568C255.856 249.235 255.856 252.558 255.856 256.2C259.217 255.989 262.353 256.155 265.495 254.999C265.495 252.059 265.495 249.216 265.495 245.721ZM265.013 278.666C265.013 275.688 265.013 272.87 265.013 269.778C261.91 269.925 258.893 270.059 255.658 270.212C255.796 273.343 255.361 276.27 256.014 279.26C258.992 279.816 261.778 279.266 265.013 278.666ZM245.866 281.222C245.866 284.621 245.866 287.752 245.866 290.947C248.705 291.905 251.373 291.592 254.39 291.387C254.166 287.899 253.948 284.589 253.723 281.113C251.043 281.164 248.593 280.557 245.866 281.222ZM256.437 293.266C255.691 297.004 256.219 300.295 256.556 303.668C259.507 303.77 262.082 304.128 264.73 303.425C264.201 299.956 264.908 296.557 264.023 293.272C261.461 293.266 259.084 293.266 256.437 293.266ZM246.058 257.868C246.058 261.318 246.058 264.538 246.058 267.81C248.659 268.283 250.996 268.5 253.42 268.315C253.42 264.615 253.42 261.197 253.42 257.74C250.884 257.433 248.613 257.248 246.058 257.868ZM246.428 243.497C248.917 243.599 251.228 244.245 253.413 243.561C253.413 239.81 253.413 236.264 253.413 232.718C250.957 232.718 248.811 232.718 246.428 232.718C246.428 236.398 246.428 239.83 246.428 243.497ZM255.73 230.724C258.834 230.22 261.686 230.558 264.565 229.587C264.881 227.657 264.881 225.811 264.604 223.888C261.891 223.082 259.236 222.891 256.47 223.383C255.77 225.709 255.526 227.964 255.73 230.724Z" fill="#06122E"/>
<path d="M271.852 220.89C272.981 224.04 272.34 226.826 272.519 229.471C273.443 243.382 274.255 257.33 272.75 271.234C271.66 281.31 271.172 291.374 271.502 301.489C271.542 302.786 271.667 304.076 271.799 306.121C269.805 304.345 270.102 302.722 270.069 301.259C269.832 290.824 270.419 280.422 271.152 270.013C272.235 254.704 271.733 239.401 270.353 224.123C270.254 222.973 270.234 222.973 271.852 220.89Z" fill="#06122E"/>
<path d="M240.225 303.715C238.601 275.505 238.331 247.557 239.684 219.372C241.652 220.043 241.216 221.525 241.176 222.797C240.853 232.151 240.351 241.499 240.206 250.854C240.008 263.716 240.628 276.572 241.071 289.428C241.203 293.255 241.17 297.082 241.143 300.91C241.13 301.772 241.506 302.788 240.225 303.715Z" fill="#06122E"/>
<path d="M266.321 421.117C259.078 421.117 251.802 421.117 243.938 421.117C244.09 392.511 244.553 364.48 244.104 336.385C251.967 337.292 259.289 338.091 266.367 337.375C268.777 365.253 265.694 393.374 266.321 421.117ZM265.495 361.502C262.346 361.119 259.177 361.144 255.856 361.349C255.856 365.016 255.856 368.339 255.856 371.981C259.217 371.77 262.353 371.936 265.495 370.78C265.495 367.841 265.495 364.997 265.495 361.502ZM265.013 394.447C265.013 391.469 265.013 388.652 265.013 385.559C261.91 385.706 258.893 385.84 255.658 385.993C255.796 389.124 255.361 392.051 256.014 395.041C258.992 395.597 261.778 395.048 265.013 394.447ZM245.866 397.003C245.866 400.402 245.866 403.533 245.866 406.728C248.705 407.686 251.373 407.373 254.39 407.169C254.166 403.68 253.948 400.37 253.723 396.894C251.043 396.945 248.593 396.338 245.866 397.003ZM256.437 409.047C255.691 412.785 256.219 416.076 256.556 419.45C259.507 419.552 262.082 419.91 264.73 419.207C264.201 415.737 264.908 412.338 264.023 409.054C261.461 409.047 259.084 409.047 256.437 409.047ZM246.058 373.649C246.058 377.099 246.058 380.32 246.058 383.591C248.659 384.064 250.996 384.281 253.42 384.096C253.42 380.396 253.42 376.978 253.42 373.521C250.884 373.214 248.613 373.029 246.058 373.649ZM246.428 359.279C248.917 359.381 251.228 360.026 253.413 359.342C253.413 355.592 253.413 352.045 253.413 348.499C250.957 348.499 248.811 348.499 246.428 348.499C246.428 352.18 246.428 355.611 246.428 359.279ZM255.73 346.506C258.834 346.001 261.686 346.34 264.565 345.368C264.881 343.439 264.881 341.592 264.604 339.669C261.891 338.864 259.236 338.672 256.47 339.164C255.77 341.49 255.526 343.745 255.73 346.506Z" fill="#06122E"/>
<path d="M271.852 336.671C272.981 339.821 272.34 342.607 272.519 345.253C273.443 359.163 274.255 373.111 272.75 387.015C271.66 397.091 271.172 407.155 271.502 417.27C271.542 418.567 271.667 419.858 271.799 421.902C269.805 420.126 270.102 418.503 270.069 417.04C269.832 406.606 270.419 396.203 271.152 385.795C272.235 370.485 271.733 355.182 270.353 339.904C270.254 338.754 270.234 338.754 271.852 336.671Z" fill="#06122E"/>
<path d="M240.225 419.496C238.601 391.286 238.331 363.338 239.684 335.153C241.652 335.824 241.216 337.307 241.176 338.578C240.853 347.932 240.351 357.28 240.206 366.635C240.008 379.497 240.628 392.353 241.071 405.209C241.203 409.036 241.17 412.864 241.143 416.691C241.13 417.554 241.506 418.57 240.225 419.496Z" fill="#06122E"/>
<path d="M266.318 163.182C259.075 163.182 251.799 163.182 243.936 163.182C244.087 134.575 244.55 106.544 244.101 78.449C251.964 79.3563 259.286 80.155 266.364 79.4394C268.774 107.317 265.691 135.438 266.318 163.182ZM265.493 103.567C262.343 103.183 259.174 103.209 255.853 103.413C255.853 107.081 255.853 110.403 255.853 114.046C259.214 113.835 262.35 114.001 265.493 112.844C265.493 109.905 265.493 107.062 265.493 103.567ZM265.011 136.511C265.011 133.534 265.011 130.716 265.011 127.623C261.907 127.77 258.89 127.905 255.655 128.058C255.794 131.189 255.358 134.115 256.011 137.106C258.989 137.662 261.775 137.112 265.011 136.511ZM245.863 139.067C245.863 142.467 245.863 145.597 245.863 148.792C248.703 149.751 251.37 149.438 254.387 149.233C254.163 145.744 253.945 142.435 253.72 138.959C251.04 139.01 248.59 138.403 245.863 139.067ZM256.434 151.112C255.688 154.85 256.216 158.14 256.553 161.514C259.504 161.616 262.079 161.974 264.727 161.271C264.198 157.802 264.905 154.402 264.02 151.118C261.458 151.112 259.082 151.112 256.434 151.112ZM246.055 115.713C246.055 119.164 246.055 122.384 246.055 125.655C248.656 126.128 250.994 126.346 253.417 126.16C253.417 122.461 253.417 119.042 253.417 115.585C250.881 115.279 248.61 115.093 246.055 115.713ZM246.425 101.343C248.914 101.445 251.225 102.091 253.41 101.407C253.41 97.6562 253.41 94.1099 253.41 90.5637C250.954 90.5637 248.808 90.5637 246.425 90.5637C246.425 94.2441 246.425 97.6753 246.425 101.343ZM255.728 88.5701C258.831 88.0654 261.683 88.404 264.562 87.4328C264.879 85.5032 264.879 83.6565 264.601 81.7333C261.888 80.9282 259.233 80.7365 256.467 81.2285C255.767 83.5543 255.523 85.8098 255.728 88.5701Z" fill="#06122E"/>
<path d="M271.852 78.7358C272.981 81.8858 272.34 84.6717 272.519 87.317C273.443 101.227 274.255 115.176 272.75 129.08C271.66 139.156 271.172 149.22 271.502 159.334C271.542 160.631 271.667 161.922 271.799 163.967C269.805 162.19 270.102 160.568 270.069 159.104C269.832 148.67 270.419 138.268 271.152 127.859C272.235 112.55 271.733 97.2465 270.353 81.9689C270.254 80.8188 270.234 80.8188 271.852 78.7358Z" fill="#06122E"/>
<path d="M240.225 161.561C238.601 133.35 238.331 105.402 239.684 77.2177C241.652 77.8886 241.216 79.371 241.176 80.6425C240.853 89.9969 240.351 99.3449 240.206 108.699C240.008 121.562 240.628 134.417 241.071 147.273C241.203 151.101 241.17 154.928 241.143 158.755C241.13 159.618 241.506 160.634 240.225 161.561Z" fill="#06122E"/>
<path d="M266.321 234.369C259.078 234.369 251.802 234.369 243.938 234.369C244.09 205.763 244.553 177.732 244.104 149.637C251.967 150.544 259.289 151.343 266.367 150.627C268.777 178.505 265.694 206.625 266.321 234.369ZM265.495 174.754C262.346 174.371 259.177 174.396 255.856 174.601C255.856 178.268 255.856 181.591 255.856 185.233C259.217 185.022 262.353 185.188 265.495 184.032C265.495 181.093 265.495 178.249 265.495 174.754ZM265.013 207.699C265.013 204.721 265.013 201.904 265.013 198.811C261.91 198.958 258.893 199.092 255.658 199.245C255.796 202.376 255.361 205.303 256.014 208.293C258.992 208.849 261.778 208.3 265.013 207.699ZM245.866 210.255C245.866 213.654 245.866 216.785 245.866 219.98C248.705 220.938 251.373 220.625 254.39 220.421C254.166 216.932 253.948 213.622 253.723 210.146C251.043 210.197 248.593 209.59 245.866 210.255ZM256.437 222.299C255.691 226.037 256.219 229.328 256.556 232.701C259.507 232.804 262.082 233.162 264.73 232.459C264.201 228.989 264.908 225.59 264.023 222.306C261.461 222.299 259.084 222.299 256.437 222.299ZM246.058 186.901C246.058 190.351 246.058 193.571 246.058 196.843C248.659 197.316 250.996 197.533 253.42 197.348C253.42 193.648 253.42 190.23 253.42 186.773C250.884 186.466 248.613 186.281 246.058 186.901ZM246.428 172.53C248.917 172.633 251.228 173.278 253.413 172.594C253.413 168.844 253.413 165.297 253.413 161.751C250.957 161.751 248.811 161.751 246.428 161.751C246.428 165.432 246.428 168.863 246.428 172.53ZM255.73 159.758C258.834 159.253 261.686 159.592 264.565 158.62C264.881 156.691 264.881 154.844 264.604 152.921C261.891 152.116 259.236 151.924 256.47 152.416C255.77 154.742 255.526 156.997 255.73 159.758Z" fill="#06122E"/>
<path d="M271.852 227.417C272.981 224.267 272.34 221.481 272.519 218.835C273.443 204.925 274.255 190.977 272.75 177.073C271.66 166.996 271.172 156.933 271.502 146.818C271.542 145.521 271.667 144.23 271.799 142.186C269.805 143.962 270.102 145.585 270.069 147.048C269.832 157.482 270.419 167.885 271.152 178.293C272.235 193.603 271.733 208.906 270.353 224.183C270.254 225.334 270.234 225.334 271.852 227.417Z" fill="#06122E"/>
<path d="M240.225 229.928C238.601 201.718 238.331 173.769 239.684 145.585C241.652 146.256 241.216 147.738 241.176 149.01C240.853 158.364 240.351 167.712 240.206 177.066C240.008 189.929 240.628 202.785 241.071 215.641C241.203 219.468 241.17 223.295 241.143 227.123C241.13 227.985 241.506 229.001 240.225 229.928Z" fill="#06122E"/>
<path d="M266.319 92.2227C259.076 92.2227 251.8 92.2227 243.937 92.2227C244.088 63.6164 244.551 35.5852 244.102 7.49004C251.965 8.39736 259.287 9.19605 266.365 8.48042C268.775 36.3583 265.692 64.479 266.319 92.2227ZM265.494 32.6076C262.344 32.2242 259.175 32.2498 255.854 32.4543C255.854 36.1219 255.854 39.4445 255.854 43.0865C259.215 42.8757 262.351 43.0418 265.494 41.8853C265.494 38.9461 265.494 36.1027 265.494 32.6076ZM265.012 65.5524C265.012 62.5749 265.012 59.757 265.012 56.6645C261.908 56.8114 258.891 56.9456 255.656 57.0989C255.795 60.2299 255.359 63.1563 256.012 66.1467C258.99 66.7026 261.776 66.1531 265.012 65.5524ZM245.864 68.1083C245.864 71.5075 245.864 74.6384 245.864 77.8332C248.703 78.7917 251.371 78.4786 254.388 78.2741C254.164 74.7854 253.946 71.4756 253.721 67.9996C251.041 68.0507 248.591 67.4438 245.864 68.1083ZM256.435 80.1527C255.689 83.8906 256.217 87.1813 256.554 90.555C259.505 90.6572 262.08 91.015 264.728 90.3122C264.199 86.8426 264.906 83.4433 264.021 80.1591C261.459 80.1527 259.083 80.1527 256.435 80.1527ZM246.056 44.7543C246.056 48.2046 246.056 51.425 246.056 54.6965C248.657 55.1693 250.995 55.3865 253.418 55.2012C253.418 51.5017 253.418 48.0832 253.418 44.6265C250.882 44.3198 248.611 44.1345 246.056 44.7543ZM246.426 30.384C248.915 30.4862 251.226 31.1316 253.411 30.4479C253.411 26.6972 253.411 23.1509 253.411 19.6047C250.955 19.6047 248.809 19.6047 246.426 19.6047C246.426 23.2851 246.426 26.7163 246.426 30.384ZM255.729 17.6112C258.832 17.1064 261.684 17.445 264.563 16.4738C264.88 14.5442 264.879 12.6975 264.602 10.7743C261.889 9.96918 259.234 9.77751 256.468 10.2695C255.768 12.5953 255.524 14.8508 255.729 17.6112Z" fill="#06122E"/>
<path d="M271.852 85.2701C272.981 82.12 272.34 79.3341 272.519 76.6888C273.443 62.7786 274.255 48.8301 272.75 34.9263C271.66 24.8499 271.172 14.7863 271.502 4.67153C271.542 3.37444 271.667 2.08374 271.799 0.0390627C269.805 1.81537 270.102 3.43833 270.069 4.90155C269.832 15.3358 270.419 25.7381 271.152 36.1468C272.235 51.4563 271.733 66.7594 270.353 82.0369C270.254 83.187 270.234 83.1871 271.852 85.2701Z" fill="#06122E"/>
<path d="M240.225 87.7813C238.601 59.5711 238.331 31.623 239.684 3.43839C241.652 4.10931 241.216 5.59168 241.176 6.86322C240.853 16.2176 240.351 25.5656 240.206 34.92C240.008 47.7823 240.628 60.6382 241.071 73.4941C241.203 77.3214 241.17 81.1488 241.143 84.9762C241.13 85.8388 241.506 86.8548 240.225 87.7813Z" fill="#06122E"/>
<path d="M266.319 373.48C259.076 373.48 251.8 373.48 243.937 373.48C244.088 344.874 244.551 316.843 244.102 288.748C251.965 289.655 259.287 290.454 266.365 289.738C268.775 317.616 265.692 345.737 266.319 373.48ZM265.494 313.865C262.344 313.482 259.175 313.508 255.854 313.712C255.854 317.38 255.854 320.702 255.854 324.344C259.215 324.133 262.351 324.3 265.494 323.143C265.494 320.204 265.494 317.361 265.494 313.865ZM265.012 346.81C265.012 343.833 265.012 341.015 265.012 337.922C261.908 338.069 258.891 338.203 255.656 338.357C255.795 341.488 255.359 344.414 256.012 347.404C258.99 347.96 261.776 347.411 265.012 346.81ZM245.864 349.366C245.864 352.765 245.864 355.896 245.864 359.091C248.703 360.049 251.371 359.736 254.388 359.532C254.164 356.043 253.946 352.733 253.721 349.257C251.041 349.309 248.591 348.702 245.864 349.366ZM256.435 361.41C255.689 365.148 256.217 368.439 256.554 371.813C259.505 371.915 262.08 372.273 264.728 371.57C264.199 368.1 264.906 364.701 264.021 361.417C261.459 361.41 259.083 361.41 256.435 361.41ZM246.056 326.012C246.056 329.462 246.056 332.683 246.056 335.954C248.657 336.427 250.995 336.644 253.418 336.459C253.418 332.759 253.418 329.341 253.418 325.884C250.882 325.578 248.611 325.392 246.056 326.012ZM246.426 311.642C248.915 311.744 251.226 312.389 253.411 311.706C253.411 307.955 253.411 304.409 253.411 300.863C250.955 300.863 248.809 300.863 246.426 300.863C246.426 304.543 246.426 307.974 246.426 311.642ZM255.729 298.869C258.832 298.364 261.684 298.703 264.563 297.732C264.88 295.802 264.879 293.955 264.602 292.032C261.889 291.227 259.234 291.035 256.468 291.527C255.768 293.853 255.524 296.109 255.729 298.869Z" fill="#06122E"/>
<path d="M271.852 366.528C272.981 363.378 272.34 360.592 272.519 357.947C273.443 344.036 274.255 330.088 272.75 316.184C271.66 306.108 271.172 296.044 271.502 285.929C271.542 284.632 271.667 283.342 271.799 281.297C269.805 283.073 270.102 284.696 270.069 286.159C269.832 296.594 270.419 306.996 271.152 317.405C272.235 332.714 271.733 348.017 270.353 363.295C270.254 364.445 270.234 364.445 271.852 366.528Z" fill="#06122E"/>
<path d="M240.225 369.041C238.601 340.831 238.331 312.883 239.684 284.698C241.652 285.369 241.216 286.851 241.176 288.123C240.853 297.477 240.351 306.825 240.206 316.18C240.008 329.042 240.628 341.898 241.071 354.754C241.203 358.581 241.17 362.409 241.143 366.236C241.13 367.099 241.506 368.115 240.225 369.041Z" fill="#06122E"/>
<path d="M185.301 396.51C185.301 403.753 185.301 411.029 185.301 418.893C156.056 418.741 127.4 418.279 98.6779 418.728C99.6055 410.864 100.422 403.542 99.6904 396.464C128.19 394.054 156.938 397.138 185.301 396.51ZM124.356 397.336C123.964 400.485 123.99 403.654 124.199 406.975C127.948 406.975 131.345 406.975 135.068 406.975C134.853 403.615 135.023 400.478 133.84 397.336C130.836 397.336 127.929 397.336 124.356 397.336ZM158.036 397.818C154.992 397.818 152.111 397.818 148.949 397.818C149.1 400.921 149.237 403.938 149.394 407.173C152.594 407.035 155.586 407.47 158.643 406.817C159.211 403.839 158.65 401.053 158.036 397.818ZM160.648 416.965C164.124 416.965 167.324 416.965 170.59 416.965C171.57 414.126 171.25 411.458 171.041 408.441C167.475 408.665 164.091 408.883 160.537 409.108C160.59 411.788 159.969 414.238 160.648 416.965ZM172.962 406.394C176.783 407.14 180.147 406.612 183.596 406.275C183.7 403.324 184.066 400.749 183.348 398.101C179.801 398.63 176.326 397.923 172.968 398.808C172.962 401.37 172.962 403.747 172.962 406.394ZM136.773 416.773C140.301 416.773 143.593 416.773 146.937 416.773C147.421 414.172 147.643 411.835 147.453 409.411C143.671 409.411 140.177 409.411 136.643 409.411C136.329 411.947 136.14 414.218 136.773 416.773ZM122.083 416.403C122.187 413.914 122.847 411.603 122.148 409.418C118.314 409.418 114.688 409.418 111.063 409.418C111.063 411.874 111.063 414.02 111.063 416.403C114.825 416.403 118.333 416.403 122.083 416.403ZM109.025 407.101C108.509 403.997 108.855 401.145 107.862 398.267C105.889 397.95 104.002 397.95 102.035 398.227C101.212 400.941 101.016 403.595 101.519 406.361C103.897 407.061 106.203 407.305 109.025 407.101Z" fill="#06122E"/>
<path d="M98.9711 390.98C102.191 389.851 105.04 390.492 107.744 390.313C121.964 389.389 136.224 388.577 150.438 390.082C160.739 391.172 171.027 391.66 181.368 391.33C182.694 391.29 184.013 391.165 186.104 391.033C184.288 393.027 182.628 392.73 181.133 392.763C170.466 393.001 159.831 392.413 149.19 391.68C133.539 390.597 117.895 391.099 102.276 392.479C101.101 392.578 101.101 392.598 98.9711 390.98Z" fill="#06122E"/>
<path d="M183.643 422.606C154.803 424.23 126.231 424.501 97.4181 423.147C98.104 421.18 99.6195 421.615 100.919 421.655C110.482 421.978 120.039 422.48 129.602 422.625C142.751 422.824 155.894 422.203 169.037 421.761C172.949 421.628 176.862 421.662 180.775 421.688C181.657 421.701 182.695 421.325 183.643 422.606Z" fill="#06122E"/>
<path d="M258.077 396.508C258.077 403.751 258.077 411.027 258.077 418.891C228.833 418.739 200.176 418.277 171.454 418.726C172.382 410.862 173.198 403.54 172.467 396.462C200.967 394.052 229.715 397.136 258.077 396.508ZM197.132 397.334C196.74 400.483 196.766 403.652 196.975 406.973C200.725 406.973 204.122 406.973 207.845 406.973C207.629 403.613 207.799 400.476 206.617 397.334C203.612 397.334 200.705 397.334 197.132 397.334ZM230.812 397.816C227.768 397.816 224.887 397.816 221.726 397.816C221.876 400.919 222.013 403.936 222.17 407.171C225.371 407.033 228.362 407.468 231.419 406.815C231.988 403.837 231.426 401.051 230.812 397.816ZM233.425 416.963C236.9 416.963 240.101 416.963 243.367 416.963C244.347 414.124 244.026 411.456 243.817 408.439C240.251 408.663 236.867 408.881 233.314 409.106C233.366 411.786 232.745 414.236 233.425 416.963ZM245.738 406.392C249.559 407.138 252.923 406.61 256.372 406.273C256.477 403.322 256.843 400.747 256.124 398.1C252.577 398.628 249.102 397.921 245.744 398.806C245.738 401.368 245.738 403.745 245.738 406.392ZM209.55 416.771C213.077 416.771 216.369 416.771 219.714 416.771C220.197 414.17 220.419 411.833 220.23 409.41C216.448 409.41 212.953 409.41 209.419 409.41C209.106 411.945 208.916 414.216 209.55 416.771ZM194.859 416.401C194.963 413.912 195.623 411.602 194.924 409.416C191.09 409.416 187.465 409.416 183.839 409.416C183.839 411.872 183.839 414.018 183.839 416.401C187.602 416.401 191.109 416.401 194.859 416.401ZM181.801 407.099C181.285 403.995 181.631 401.143 180.638 398.265C178.666 397.948 176.778 397.948 174.812 398.225C173.989 400.939 173.793 403.593 174.296 406.359C176.673 407.059 178.979 407.303 181.801 407.099Z" fill="#06122E"/>
<path d="M250.971 390.976C247.751 389.847 244.903 390.488 242.199 390.309C227.978 389.385 213.718 388.573 199.504 390.078C189.203 391.168 178.915 391.656 168.575 391.326C167.249 391.287 165.929 391.161 163.839 391.029C165.655 393.023 167.314 392.726 168.81 392.759C179.477 392.997 190.111 392.409 200.752 391.676C216.403 390.593 232.048 391.095 247.666 392.475C248.842 392.574 248.842 392.594 250.971 390.976Z" fill="#06122E"/>
<path d="M253.536 422.606C224.697 424.23 196.125 424.501 167.312 423.147C167.998 421.18 169.513 421.615 170.813 421.655C180.376 421.978 189.933 422.48 199.496 422.625C212.645 422.824 225.788 422.203 238.93 421.761C242.843 421.628 246.756 421.662 250.669 421.688C251.55 421.701 252.589 421.325 253.536 422.606Z" fill="#06122E"/>
<path d="M112.759 396.51C112.759 403.753 112.759 411.029 112.759 418.893C83.5143 418.741 54.8578 418.279 26.1359 418.728C27.0635 410.864 27.88 403.542 27.1484 396.464C55.6482 394.054 84.3962 397.138 112.759 396.51ZM51.8138 397.336C51.4219 400.485 51.448 403.654 51.657 406.975C55.4065 406.975 58.8032 406.975 62.5265 406.975C62.3109 403.615 62.4808 400.478 61.2985 397.336C58.2937 397.336 55.3869 397.336 51.8138 397.336ZM85.4936 397.818C82.4496 397.818 79.5689 397.818 76.4073 397.818C76.5576 400.921 76.6947 403.938 76.8515 407.173C80.0523 407.035 83.044 407.47 86.1011 406.817C86.6694 403.839 86.1076 401.053 85.4936 397.818ZM88.1064 416.965C91.5816 416.965 94.7823 416.965 98.0484 416.965C99.0282 414.126 98.7081 411.458 98.4991 408.441C94.9325 408.665 91.5489 408.883 87.9954 409.108C88.0476 411.788 87.4271 414.238 88.1064 416.965ZM100.42 406.394C104.241 407.14 107.605 406.612 111.054 406.275C111.158 403.324 111.524 400.749 110.806 398.101C107.259 398.63 103.784 397.923 100.426 398.808C100.42 401.37 100.42 403.747 100.42 406.394ZM64.2314 416.773C67.7588 416.773 71.051 416.773 74.3955 416.773C74.8788 414.172 75.1009 411.835 74.9115 409.411C71.1294 409.411 67.6347 409.411 64.1008 409.411C63.7872 411.947 63.5978 414.218 64.2314 416.773ZM49.5406 416.403C49.6451 413.914 50.3049 411.603 49.6059 409.418C45.7715 409.418 42.1462 409.418 38.5208 409.418C38.5208 411.874 38.5208 414.02 38.5208 416.403C42.2834 416.403 45.7911 416.403 49.5406 416.403ZM36.4828 407.101C35.9668 403.997 36.313 401.145 35.3201 398.267C33.3474 397.95 31.4596 397.95 29.4934 398.227C28.6703 400.941 28.4744 403.595 28.9774 406.361C31.3551 407.061 33.6609 407.305 36.4828 407.101Z" fill="#06122E"/>
<path d="M105.653 390.976C102.433 389.847 99.5845 390.488 96.8802 390.309C82.6597 389.385 68.4 388.573 54.1861 390.078C43.8848 391.168 33.5967 391.656 23.2563 391.326C21.9303 391.287 20.6108 391.161 18.5205 391.029C20.3364 393.023 21.9956 392.726 23.4915 392.759C34.1585 392.997 44.7928 392.409 55.4337 391.676C71.0848 390.593 86.7292 391.095 102.348 392.475C103.523 392.574 103.523 392.594 105.653 390.976Z" fill="#06122E"/>
<path d="M108.218 422.606C79.3783 424.23 50.8067 424.501 21.9933 423.147C22.6792 421.18 24.1947 421.615 25.4946 421.655C35.0576 421.978 44.6142 422.48 54.1772 422.625C67.3265 422.824 80.4692 422.203 93.6118 421.761C97.5246 421.628 101.437 421.662 105.35 421.688C106.232 421.701 107.271 421.325 108.218 422.606Z" fill="#06122E"/>
<path d="M174.973 9.51224C174.973 16.7551 174.973 24.031 174.973 31.8945C145.728 31.7427 117.072 31.2805 88.3498 31.7295C89.2773 23.8659 90.0938 16.5438 89.3622 9.46601C117.862 7.05612 146.61 10.1395 174.973 9.51224ZM114.028 10.3375C113.636 13.4869 113.662 16.6561 113.871 19.9771C117.62 19.9771 121.017 19.9771 124.74 19.9771C124.525 16.6165 124.695 13.4803 123.512 10.3375C120.508 10.3375 117.601 10.3375 114.028 10.3375ZM147.707 10.8195C144.663 10.8195 141.783 10.8195 138.621 10.8195C138.771 13.9227 138.909 16.94 139.065 20.1752C142.266 20.0365 145.258 20.4723 148.315 19.8187C148.883 16.8409 148.321 14.0547 147.707 10.8195ZM150.32 29.9666C153.795 29.9666 156.996 29.9666 160.262 29.9666C161.242 27.1276 160.922 24.4602 160.713 21.4429C157.146 21.6673 153.763 21.8852 150.209 22.1097C150.261 24.7903 149.641 27.2398 150.32 29.9666ZM162.633 19.3961C166.455 20.1422 169.819 19.614 173.268 19.2773C173.372 16.326 173.738 13.751 173.02 11.1034C169.473 11.6316 165.997 10.9252 162.64 11.8099C162.633 14.3716 162.633 16.7485 162.633 19.3961ZM126.445 29.7751C129.973 29.7751 133.265 29.7751 136.609 29.7751C137.093 27.1738 137.315 24.8365 137.125 22.4134C133.343 22.4134 129.849 22.4134 126.315 22.4134C126.001 24.9488 125.812 27.22 126.445 29.7751ZM111.754 29.4054C111.859 26.9163 112.519 24.6054 111.82 22.42C107.985 22.42 104.36 22.42 100.735 22.42C100.735 24.8761 100.735 27.0219 100.735 29.4054C104.497 29.4054 108.005 29.4054 111.754 29.4054ZM98.6967 20.1026C98.1806 16.9994 98.5269 14.1471 97.534 11.2685C95.5613 10.9516 93.6734 10.9516 91.7073 11.2289C90.8842 13.9425 90.6883 16.5967 91.1912 19.3631C93.5689 20.0629 95.8748 20.3072 98.6967 20.1026Z" fill="#06122E"/>
<path d="M88.643 3.98212C91.8633 2.8531 94.7114 3.49353 97.4157 3.31526C111.636 2.39092 125.896 1.57883 140.11 3.08419C150.411 4.17359 160.699 4.66217 171.04 4.33205C172.366 4.29244 173.685 4.16699 175.775 4.03494C173.959 6.02888 172.3 5.73177 170.804 5.76478C160.137 6.00247 149.503 5.41485 138.862 4.68198C123.211 3.59918 107.567 4.10096 91.9483 5.48087C90.7725 5.57991 90.7725 5.59972 88.643 3.98212Z" fill="#06122E"/>
<path d="M173.314 35.6076C144.475 37.2318 115.903 37.5025 87.09 36.149C87.7759 34.1815 89.2913 34.6172 90.5912 34.6569C100.154 34.9804 109.711 35.4822 119.274 35.6274C132.423 35.8255 145.566 35.2049 158.709 34.7625C162.621 34.6304 166.534 34.6635 170.447 34.6899C171.329 34.7031 172.367 34.3267 173.314 35.6076Z" fill="#06122E"/>
<path d="M247.747 9.51028C247.747 16.7532 247.747 24.0291 247.747 31.8926C218.503 31.7407 189.846 31.2785 161.124 31.7275C162.052 23.864 162.868 16.5419 162.137 9.46406C190.636 7.05417 219.384 10.1375 247.747 9.51028ZM186.802 10.3356C186.41 13.4849 186.436 16.6541 186.645 19.9752C190.395 19.9752 193.791 19.9752 197.515 19.9752C197.299 16.6145 197.469 13.4783 196.287 10.3356C193.282 10.3356 190.375 10.3356 186.802 10.3356ZM220.482 10.8176C217.438 10.8176 214.557 10.8176 211.396 10.8176C211.546 13.9207 211.683 16.938 211.84 20.1732C215.041 20.0346 218.032 20.4703 221.089 19.8167C221.658 16.839 221.096 14.0528 220.482 10.8176ZM223.095 29.9647C226.57 29.9647 229.771 29.9647 233.037 29.9647C234.016 27.1256 233.696 24.4582 233.487 21.4409C229.921 21.6654 226.537 21.8833 222.984 22.1077C223.036 24.7883 222.415 27.2378 223.095 29.9647ZM235.408 19.3941C239.229 20.1402 242.593 19.612 246.042 19.2753C246.147 16.324 246.513 13.7491 245.794 11.1015C242.247 11.6297 238.772 10.9232 235.414 11.8079C235.408 14.3697 235.408 16.7466 235.408 19.3941ZM199.22 29.7732C202.747 29.7732 206.039 29.7732 209.384 29.7732C209.867 27.1718 210.089 24.8346 209.9 22.4115C206.118 22.4115 202.623 22.4115 199.089 22.4115C198.776 24.9468 198.586 27.218 199.22 29.7732ZM184.529 29.4034C184.633 26.9143 185.293 24.6035 184.594 22.4181C180.76 22.4181 177.134 22.4181 173.509 22.4181C173.509 24.8742 173.509 27.02 173.509 29.4034C177.272 29.4034 180.779 29.4034 184.529 29.4034ZM171.471 20.1006C170.955 16.9975 171.301 14.1452 170.308 11.2665C168.336 10.9496 166.448 10.9496 164.482 11.2269C163.659 13.9405 163.463 16.5947 163.966 19.3611C166.343 20.061 168.649 20.3053 171.471 20.1006Z" fill="#06122E"/>
<path d="M240.641 3.97823C237.421 2.84921 234.573 3.48964 231.868 3.31137C217.648 2.38703 203.388 1.57493 189.174 3.08029C178.873 4.16969 168.585 4.65827 158.245 4.32815C156.919 4.28853 155.599 4.16309 153.509 4.03104C155.325 6.02498 156.984 5.72786 158.48 5.76088C169.147 5.99857 179.781 5.41095 190.422 4.67808C206.073 3.59528 221.718 4.09707 237.336 5.47698C238.512 5.57601 238.512 5.59582 240.641 3.97823Z" fill="#06122E"/>
<path d="M243.206 35.6076C214.367 37.2318 185.795 37.5025 156.982 36.149C157.667 34.1815 159.183 34.6172 160.483 34.6569C170.046 34.9804 179.602 35.4822 189.166 35.6274C202.315 35.8255 215.457 35.2049 228.6 34.7625C232.513 34.6304 236.426 34.6635 240.338 34.6899C241.22 34.7031 242.259 34.3267 243.206 35.6076Z" fill="#06122E"/>
<path d="M102.43 9.51224C102.43 16.7551 102.43 24.031 102.43 31.8945C73.1852 31.7427 44.5287 31.2805 15.8068 31.7295C16.7344 23.8659 17.5509 16.5438 16.8193 9.46601C45.3191 7.05612 74.0671 10.1395 102.43 9.51224ZM41.4847 10.3375C41.0928 13.4869 41.1189 16.6561 41.3279 19.9771C45.0774 19.9771 48.4741 19.9771 52.1974 19.9771C51.9818 16.6165 52.1517 13.4803 50.9694 10.3375C47.9646 10.3375 45.0578 10.3375 41.4847 10.3375ZM75.1645 10.8195C72.1205 10.8195 69.2398 10.8195 66.0782 10.8195C66.2285 13.9227 66.3656 16.94 66.5224 20.1752C69.7232 20.0365 72.7149 20.4723 75.772 19.8187C76.3403 16.8409 75.7785 14.0547 75.1645 10.8195ZM77.7773 29.9666C81.2524 29.9666 84.4532 29.9666 87.7193 29.9666C88.6991 27.1276 88.379 24.4602 88.17 21.4429C84.6034 21.6673 81.2198 21.8852 77.6663 22.1097C77.7185 24.7903 77.098 27.2398 77.7773 29.9666ZM90.0904 19.3961C93.9117 20.1422 97.2758 19.614 100.725 19.2773C100.829 16.326 101.195 13.751 100.477 11.1034C96.9296 11.6316 93.4545 10.9252 90.097 11.8099C90.0904 14.3716 90.0904 16.7485 90.0904 19.3961ZM53.9023 29.7751C57.4297 29.7751 60.7219 29.7751 64.0664 29.7751C64.5497 27.1738 64.7718 24.8365 64.5824 22.4134C60.8003 22.4134 57.3056 22.4134 53.7717 22.4134C53.4581 24.9488 53.2687 27.22 53.9023 29.7751ZM39.2115 29.4054C39.316 26.9163 39.9758 24.6054 39.2768 22.42C35.4424 22.42 31.8171 22.42 28.1917 22.42C28.1917 24.8761 28.1917 27.0219 28.1917 29.4054C31.9543 29.4054 35.462 29.4054 39.2115 29.4054ZM26.1537 20.1026C25.6377 16.9994 25.9839 14.1471 24.991 11.2685C23.0183 10.9516 21.1305 10.9516 19.1643 11.2289C18.3412 13.9425 18.1453 16.5967 18.6483 19.3631C21.026 20.0629 23.3318 20.3072 26.1537 20.1026Z" fill="#06122E"/>
<path d="M95.3238 3.97823C92.1035 2.84921 89.2554 3.48964 86.5511 3.31137C72.3306 2.38703 58.0709 1.57493 43.857 3.08029C33.5557 4.16969 23.2676 4.65827 12.9272 4.32815C11.6012 4.28853 10.2817 4.16309 8.19141 4.03104C10.0073 6.02498 11.6665 5.72786 13.1624 5.76088C23.8294 5.99857 34.4637 5.41095 45.1046 4.67808C60.7557 3.59528 76.4001 4.09707 92.0185 5.47698C93.1943 5.57601 93.1943 5.59582 95.3238 3.97823Z" fill="#06122E"/>
<path d="M97.8887 35.6076C69.0492 37.2318 40.4776 37.5025 11.6642 36.149C12.3501 34.1815 13.8656 34.6172 15.1655 34.6569C24.7285 34.9804 34.2851 35.4822 43.8481 35.6274C56.9974 35.8255 70.1401 35.2049 83.2827 34.7625C87.1955 34.6304 91.1083 34.6635 95.021 34.6899C95.9029 34.7031 96.9415 34.3267 97.8887 35.6076Z" fill="#06122E"/>
<path d="M28.646 327.078C21.4031 327.078 14.1272 327.078 6.26367 327.078C6.41553 298.472 6.87771 270.441 6.42874 242.346C14.2923 243.253 21.6144 244.052 28.6922 243.336C31.1021 271.214 28.0187 299.334 28.646 327.078ZM27.8207 267.463C24.6713 267.08 21.5021 267.105 18.1811 267.31C18.1811 270.977 18.1811 274.3 18.1811 277.942C21.5417 277.731 24.6779 277.897 27.8207 276.741C27.8207 273.802 27.8207 270.958 27.8207 267.463ZM27.3387 300.408C27.3387 297.43 27.3387 294.612 27.3387 291.52C24.2355 291.667 21.2182 291.801 17.983 291.954C18.1217 295.085 17.6859 298.012 18.3396 301.002C21.3173 301.558 24.1035 301.009 27.3387 300.408ZM8.19159 302.964C8.19159 306.363 8.19159 309.494 8.19159 312.689C11.0306 313.647 13.698 313.334 16.7153 313.13C16.4909 309.641 16.273 306.331 16.0485 302.855C13.3679 302.906 10.9184 302.299 8.19159 302.964ZM18.7621 315.008C18.016 318.746 18.5442 322.037 18.8809 325.41C21.8322 325.513 24.4072 325.87 27.0548 325.168C26.5266 321.698 27.233 318.299 26.3483 315.015C23.7866 315.008 21.4097 315.008 18.7621 315.008ZM8.38306 279.61C8.38306 283.06 8.38306 286.28 8.38306 289.552C10.9844 290.025 13.3217 290.242 15.7448 290.057C15.7448 286.357 15.7448 282.939 15.7448 279.482C13.2095 279.175 10.9382 278.99 8.38306 279.61ZM8.75281 265.239C11.2419 265.342 13.5528 265.987 15.7382 265.303C15.7382 261.553 15.7382 258.006 15.7382 254.46C13.2821 254.46 11.1363 254.46 8.75281 254.46C8.75281 258.141 8.75281 261.572 8.75281 265.239ZM18.0557 252.467C21.1588 251.962 24.0111 252.301 26.8897 251.329C27.2066 249.4 27.2066 247.553 26.9293 245.63C24.2157 244.825 21.5616 244.633 18.7951 245.125C18.0953 247.451 17.851 249.706 18.0557 252.467Z" fill="#06122E"/>
<path d="M34.179 242.632C35.308 245.782 34.6676 248.568 34.8459 251.214C35.7702 265.124 36.5823 279.072 35.0769 292.976C33.9875 303.052 33.499 313.116 33.8291 323.231C33.8687 324.528 33.9941 325.819 34.1262 327.863C32.1322 326.087 32.4294 324.464 32.3964 323.001C32.1587 312.567 32.7463 302.164 33.4792 291.756C34.562 276.446 34.0602 261.143 32.6803 245.865C32.5812 244.715 32.5614 244.715 34.179 242.632Z" fill="#06122E"/>
<path d="M2.55255 325.457C0.928351 297.247 0.657655 269.299 2.01116 241.114C3.97869 241.785 3.54292 243.267 3.50331 244.539C3.17979 253.893 2.678 263.241 2.53275 272.596C2.33467 285.458 2.9553 298.314 3.39766 311.17C3.52971 314.997 3.4967 318.825 3.47029 322.652C3.45708 323.515 3.83342 324.531 2.55255 325.457Z" fill="#06122E"/>
<path d="M28.646 184.516C21.4031 184.516 14.1272 184.516 6.26367 184.516C6.41553 155.909 6.87771 127.878 6.42874 99.783C14.2923 100.69 21.6144 101.489 28.6922 100.773C31.1021 128.651 28.0187 156.772 28.646 184.516ZM27.8207 124.901C24.6713 124.517 21.5021 124.543 18.1811 124.747C18.1811 128.415 18.1811 131.737 18.1811 135.38C21.5417 135.169 24.6779 135.335 27.8207 134.178C27.8207 131.239 27.8207 128.396 27.8207 124.901ZM27.3387 157.845C27.3387 154.868 27.3387 152.05 27.3387 148.957C24.2355 149.104 21.2182 149.239 17.983 149.392C18.1217 152.523 17.6859 155.449 18.3396 158.44C21.3173 158.996 24.1035 158.446 27.3387 157.845ZM8.19159 160.401C8.19159 163.801 8.19159 166.931 8.19159 170.126C11.0306 171.085 13.698 170.772 16.7153 170.567C16.4909 167.078 16.273 163.769 16.0485 160.293C13.3679 160.344 10.9184 159.737 8.19159 160.401ZM18.7621 172.446C18.016 176.184 18.5442 179.474 18.8809 182.848C21.8322 182.95 24.4072 183.308 27.0548 182.605C26.5266 179.136 27.233 175.736 26.3483 172.452C23.7866 172.446 21.4097 172.446 18.7621 172.446ZM8.38306 137.047C8.38306 140.498 8.38306 143.718 8.38306 146.989C10.9844 147.462 13.3217 147.68 15.7448 147.494C15.7448 143.795 15.7448 140.376 15.7448 136.919C13.2095 136.613 10.9382 136.427 8.38306 137.047ZM8.75281 122.677C11.2419 122.779 13.5528 123.425 15.7382 122.741C15.7382 118.99 15.7382 115.444 15.7382 111.898C13.2821 111.898 11.1363 111.898 8.75281 111.898C8.75281 115.578 8.75281 119.009 8.75281 122.677ZM18.0557 109.904C21.1588 109.399 24.0111 109.738 26.8897 108.767C27.2066 106.837 27.2066 104.991 26.9293 103.067C24.2157 102.262 21.5616 102.07 18.7951 102.562C18.0953 104.888 17.851 107.144 18.0557 109.904Z" fill="#06122E"/>
<path d="M34.179 100.07C35.308 103.22 34.6676 106.006 34.8459 108.651C35.7702 122.561 36.5823 136.51 35.0769 150.414C33.9875 160.49 33.499 170.554 33.8291 180.668C33.8687 181.965 33.9941 183.256 34.1262 185.301C32.1322 183.524 32.4294 181.902 32.3964 180.438C32.1587 170.004 32.7463 159.602 33.4792 149.193C34.562 133.884 34.0602 118.58 32.6803 103.303C32.5812 102.153 32.5614 102.153 34.179 100.07Z" fill="#06122E"/>
<path d="M2.55255 182.895C0.928351 154.684 0.657655 126.736 2.01116 98.5517C3.97869 99.2226 3.54292 100.705 3.50331 101.977C3.17979 111.331 2.678 120.679 2.53275 130.033C2.33467 142.896 2.9553 155.751 3.39766 168.607C3.52971 172.435 3.4967 176.262 3.47029 180.089C3.45708 180.952 3.83342 181.968 2.55255 182.895Z" fill="#06122E"/>
<path d="M28.6479 398.266C21.405 398.266 14.1291 398.266 6.26562 398.266C6.41749 369.659 6.87966 341.628 6.4307 313.533C14.2942 314.44 21.6163 315.239 28.6941 314.523C31.104 342.401 28.0207 370.522 28.6479 398.266ZM27.8226 338.651C24.6733 338.267 21.5041 338.293 18.1831 338.497C18.1831 342.165 18.1831 345.487 18.183 349.13C21.5437 348.919 24.6799 349.085 27.8226 347.928C27.8226 344.989 27.8226 342.146 27.8226 338.651ZM27.3406 371.595C27.3406 368.618 27.3406 365.8 27.3406 362.707C24.2375 362.854 21.2202 362.989 17.985 363.142C18.1236 366.273 17.6879 369.199 18.3415 372.19C21.3192 372.746 24.1054 372.196 27.3406 371.595ZM8.19355 374.151C8.19355 377.551 8.19355 380.681 8.19355 383.876C11.0326 384.835 13.7 384.522 16.7173 384.317C16.4928 380.828 16.2749 377.519 16.0505 374.043C13.3699 374.094 10.9204 373.487 8.19355 374.151ZM18.7641 386.196C18.018 389.934 18.5462 393.224 18.8829 396.598C21.8342 396.7 24.4092 397.058 27.0567 396.355C26.5285 392.886 27.235 389.486 26.3503 386.202C23.7885 386.196 21.4116 386.196 18.7641 386.196ZM8.38502 350.797C8.38502 354.248 8.38502 357.468 8.38501 360.739C10.9864 361.212 13.3236 361.43 15.7467 361.244C15.7467 357.545 15.7467 354.126 15.7467 350.669C13.2114 350.363 10.9402 350.177 8.38502 350.797ZM8.75476 336.427C11.2439 336.529 13.5547 337.175 15.7401 336.491C15.7401 332.74 15.7402 329.194 15.7402 325.648C13.284 325.648 11.1382 325.648 8.75476 325.648C8.75476 329.328 8.75476 332.759 8.75476 336.427ZM18.0576 323.654C21.1608 323.149 24.013 323.488 26.8917 322.517C27.2086 320.587 27.2086 318.741 26.9313 316.817C24.2177 316.012 21.5635 315.82 18.7971 316.312C18.0972 318.638 17.8529 320.894 18.0576 323.654Z" fill="#06122E"/>
<path d="M34.179 391.313C35.308 388.163 34.6676 385.377 34.8459 382.732C35.7702 368.822 36.5823 354.873 35.0769 340.969C33.9875 330.893 33.499 320.829 33.8291 310.714C33.8687 309.417 33.9941 308.127 34.1262 306.082C32.1322 307.858 32.4294 309.481 32.3963 310.945C32.1587 321.379 32.7463 331.781 33.4791 342.19C34.5619 357.499 34.0602 372.802 32.6802 388.08C32.5812 389.23 32.5614 389.23 34.179 391.313Z" fill="#06122E"/>
<path d="M2.55255 393.824C0.928351 365.614 0.657655 337.666 2.01116 309.481C3.97869 310.152 3.54292 311.635 3.50331 312.906C3.17979 322.261 2.678 331.609 2.53275 340.963C2.33467 353.825 2.9553 366.681 3.39766 379.537C3.52971 383.364 3.4967 387.192 3.47029 391.019C3.45708 391.882 3.83342 392.898 2.55255 393.824Z" fill="#06122E"/>
<path d="M7.82669 329.4C15.0696 329.4 22.3455 329.4 30.209 329.4C30.0571 358.007 29.595 386.038 30.0439 414.133C22.1804 413.226 14.8583 412.427 7.78047 413.143C5.37057 385.265 8.45392 357.144 7.82669 329.4ZM8.65199 389.015C11.8014 389.399 14.9705 389.373 18.2916 389.169C18.2916 385.501 18.2916 382.179 18.2916 378.537C14.9309 378.747 11.7948 378.581 8.65199 379.738C8.65199 382.677 8.65199 385.52 8.65199 389.015ZM9.13397 356.071C9.13397 359.048 9.13397 361.866 9.13397 364.959C12.2371 364.812 15.2544 364.677 18.4896 364.524C18.351 361.393 18.7867 358.467 18.1331 355.476C15.1554 354.92 12.3692 355.47 9.13397 356.071ZM28.2811 353.515C28.2811 350.116 28.2811 346.985 28.2811 343.79C25.442 342.831 22.7746 343.144 19.7573 343.349C19.9818 346.838 20.1997 350.147 20.4242 353.623C23.1048 353.572 25.5543 354.179 28.2811 353.515ZM17.7106 341.47C18.4566 337.732 17.9284 334.442 17.5917 331.068C14.6404 330.966 12.0655 330.608 9.41788 331.311C9.94607 334.78 9.23961 338.18 10.1243 341.464C12.6861 341.47 15.063 341.47 17.7106 341.47ZM28.0896 376.869C28.0896 373.418 28.0896 370.198 28.0896 366.927C25.4882 366.454 23.151 366.236 20.7279 366.422C20.7279 370.121 20.7279 373.54 20.7279 376.997C23.2632 377.303 25.5345 377.489 28.0896 376.869ZM27.7199 391.239C25.2307 391.137 22.9199 390.491 20.7345 391.175C20.7345 394.926 20.7345 398.472 20.7345 402.018C23.1906 402.018 25.3364 402.018 27.7199 402.018C27.7199 398.338 27.7199 394.907 27.7199 391.239ZM18.417 404.012C15.3139 404.517 12.4616 404.178 9.58293 405.149C9.26601 407.079 9.26602 408.926 9.54332 410.849C12.2569 411.654 14.9111 411.846 17.6775 411.354C18.3774 409.028 18.6217 406.772 18.417 404.012Z" fill="#06122E"/>
<path d="M2.2956 336.353C1.16659 339.503 1.80702 342.289 1.62875 344.934C0.704407 358.844 -0.107688 372.793 1.39767 386.697C2.48707 396.773 2.97565 406.837 2.64553 416.952C2.60591 418.249 2.48047 419.539 2.34842 421.584C4.34236 419.808 4.04525 418.185 4.07826 416.721C4.31595 406.287 3.72833 395.885 2.99546 385.476C1.91266 370.167 2.41445 354.864 3.79436 339.586C3.89339 338.436 3.9132 338.436 2.2956 336.353Z" fill="#06122E"/>
<path d="M33.9221 333.842C35.5463 362.052 35.817 390 34.4635 418.185C32.4959 417.514 32.9317 416.031 32.9713 414.76C33.2948 405.405 33.7966 396.057 33.9419 386.703C34.1399 373.841 33.5193 360.985 33.0769 348.129C32.9449 344.302 32.9779 340.474 33.0043 336.647C33.0175 335.784 32.6412 334.768 33.9221 333.842Z" fill="#06122E"/>
<path d="M28.646 256.119C21.4031 256.119 14.1272 256.119 6.26367 256.119C6.41553 227.513 6.87771 199.482 6.42874 171.387C14.2923 172.294 21.6144 173.093 28.6922 172.377C31.1021 200.255 28.0187 228.375 28.646 256.119ZM27.8207 196.504C24.6713 196.121 21.5021 196.146 18.1811 196.351C18.1811 200.018 18.1811 203.341 18.1811 206.983C21.5417 206.772 24.6779 206.938 27.8207 205.782C27.8207 202.843 27.8207 199.999 27.8207 196.504ZM27.3387 229.449C27.3387 226.471 27.3387 223.654 27.3387 220.561C24.2355 220.708 21.2182 220.842 17.983 220.995C18.1217 224.126 17.6859 227.053 18.3396 230.043C21.3173 230.599 24.1035 230.05 27.3387 229.449ZM8.19159 232.005C8.19159 235.404 8.19159 238.535 8.19159 241.73C11.0306 242.688 13.698 242.375 16.7153 242.171C16.4909 238.682 16.273 235.372 16.0485 231.896C13.3679 231.947 10.9184 231.34 8.19159 232.005ZM18.7621 244.049C18.016 247.787 18.5442 251.078 18.8809 254.451C21.8322 254.554 24.4072 254.912 27.0548 254.209C26.5266 250.739 27.233 247.34 26.3483 244.056C23.7866 244.049 21.4097 244.049 18.7621 244.049ZM8.38306 208.651C8.38306 212.101 8.38306 215.321 8.38306 218.593C10.9844 219.066 13.3217 219.283 15.7448 219.098C15.7448 215.398 15.7448 211.98 15.7448 208.523C13.2095 208.216 10.9382 208.031 8.38306 208.651ZM8.75281 194.28C11.2419 194.383 13.5528 195.028 15.7382 194.344C15.7382 190.594 15.7382 187.047 15.7382 183.501C13.2821 183.501 11.1363 183.501 8.75281 183.501C8.75281 187.182 8.75281 190.613 8.75281 194.28ZM18.0557 181.508C21.1588 181.003 24.0111 181.342 26.8897 180.37C27.2066 178.441 27.2066 176.594 26.9293 174.671C24.2157 173.866 21.5616 173.674 18.7951 174.166C18.0953 176.492 17.851 178.747 18.0557 181.508Z" fill="#06122E"/>
<path d="M34.179 249.167C35.308 246.017 34.6676 243.231 34.8459 240.585C35.7702 226.675 36.5823 212.727 35.0769 198.823C33.9875 188.746 33.499 178.683 33.8291 168.568C33.8687 167.271 33.9941 165.98 34.1262 163.936C32.1322 165.712 32.4294 167.335 32.3963 168.798C32.1587 179.232 32.7463 189.635 33.4791 200.043C34.5619 215.353 34.0602 230.656 32.6802 245.933C32.5812 247.084 32.5614 247.084 34.179 249.167Z" fill="#06122E"/>
<path d="M2.55255 251.68C0.928351 223.47 0.657655 195.521 2.01116 167.337C3.97869 168.008 3.54292 169.49 3.50331 170.762C3.17979 180.116 2.678 189.464 2.53275 198.818C2.33467 211.681 2.9553 224.537 3.39766 237.392C3.52971 241.22 3.4967 245.047 3.47029 248.875C3.45708 249.737 3.83342 250.753 2.55255 251.68Z" fill="#06122E"/>
<path d="M28.646 113.557C21.4031 113.557 14.1272 113.557 6.26367 113.557C6.41553 84.9504 6.87771 56.9191 6.42874 28.824C14.2923 29.7313 21.6144 30.53 28.6922 29.8144C31.1021 57.6923 28.0187 85.813 28.646 113.557ZM27.8207 53.9416C24.6713 53.5582 21.5021 53.5838 18.1811 53.7882C18.1811 57.4559 18.1811 60.7784 18.1811 64.4205C21.5417 64.2097 24.6779 64.3758 27.8207 63.2193C27.8207 60.2801 27.8207 57.4367 27.8207 53.9416ZM27.3387 86.8864C27.3387 83.9089 27.3387 81.091 27.3387 77.9984C24.2355 78.1454 21.2182 78.2796 17.983 78.4329C18.1217 81.5638 17.6859 84.4903 18.3396 87.4806C21.3173 88.0365 24.1035 87.487 27.3387 86.8864ZM8.19159 89.4423C8.19159 92.8415 8.19159 95.9724 8.19159 99.1672C11.0306 100.126 13.698 99.8126 16.7153 99.6081C16.4909 96.1194 16.273 92.8096 16.0485 89.3336C13.3679 89.3847 10.9184 88.7777 8.19159 89.4423ZM18.7621 101.487C18.016 105.225 18.5442 108.515 18.8809 111.889C21.8322 111.991 24.4072 112.349 27.0548 111.646C26.5266 108.177 27.233 104.777 26.3483 101.493C23.7866 101.487 21.4097 101.487 18.7621 101.487ZM8.38306 66.0882C8.38306 69.5386 8.38306 72.759 8.38306 76.0305C10.9844 76.5033 13.3217 76.7205 15.7448 76.5352C15.7448 72.8357 15.7448 69.4172 15.7448 65.9604C13.2095 65.6537 10.9382 65.4684 8.38306 66.0882ZM8.75281 51.718C11.2419 51.8202 13.5528 52.4656 15.7382 51.7819C15.7382 48.0312 15.7382 44.4849 15.7382 40.9387C13.2821 40.9387 11.1363 40.9387 8.75281 40.9387C8.75281 44.6191 8.75281 48.0503 8.75281 51.718ZM18.0557 38.9451C21.1588 38.4404 24.0111 38.779 26.8897 37.8078C27.2066 35.8782 27.2066 34.0315 26.9293 32.1083C24.2157 31.3032 21.5616 31.1115 18.7951 31.6035C18.0953 33.9293 17.851 36.1848 18.0557 38.9451Z" fill="#06122E"/>
<path d="M34.179 106.604C35.308 103.454 34.6676 100.668 34.8459 98.0228C35.7702 84.1126 36.5823 70.1641 35.0769 56.2603C33.9875 46.1839 33.499 36.1203 33.8291 26.0055C33.8687 24.7084 33.9941 23.4177 34.1262 21.373C32.1322 23.1494 32.4294 24.7723 32.3963 26.2355C32.1587 36.6698 32.7463 47.0721 33.4791 57.4807C34.5619 72.7903 34.0602 88.0933 32.6802 103.371C32.5812 104.521 32.5614 104.521 34.179 106.604Z" fill="#06122E"/>
<path d="M2.55255 109.115C0.928351 80.9051 0.657655 52.957 2.01116 24.7724C3.97869 25.4433 3.54292 26.9257 3.50331 28.1972C3.17979 37.5516 2.678 46.8996 2.53275 56.254C2.33467 69.1162 2.9553 81.9721 3.39766 94.828C3.52971 98.6554 3.4967 102.483 3.47029 106.31C3.45708 107.173 3.83342 108.189 2.55255 109.115Z" fill="#06122E"/>
<g clip-path="url(#clip0_761_362)">
<path d="M155.897 183.822H145.012C142.771 185.2 140.14 185.994 137.322 185.994C134.503 185.994 131.87 185.2 129.631 183.822H119.726C115.87 183.822 112.714 186.918 112.714 190.699V222.79C112.714 226.573 115.87 229.666 119.726 229.666H155.897C159.754 229.666 162.91 226.571 162.91 222.79V190.699C162.91 186.918 159.754 183.822 155.897 183.822Z" fill="#06122E"/>
<path d="M137.32 184.062C145.473 184.062 152.083 177.419 152.083 169.223C152.083 161.028 145.473 154.385 137.32 154.385C129.166 154.385 122.557 161.028 122.557 169.223C122.557 177.419 129.166 184.062 137.32 184.062Z" fill="#06122E"/>
<path d="M177.246 186.249C184.36 186.249 190.127 180.521 190.127 173.454C190.127 166.387 184.36 160.658 177.246 160.658C170.131 160.658 164.364 166.387 164.364 173.454C164.364 180.521 170.131 186.249 177.246 186.249Z" fill="#06122E"/>
<path d="M96.0443 186.249C103.158 186.249 108.926 180.521 108.926 173.454C108.926 166.387 103.158 160.658 96.0443 160.658C88.9302 160.658 83.1631 166.387 83.1631 173.454C83.1631 180.521 88.9302 186.249 96.0443 186.249Z" fill="#06122E"/>
<path d="M193.455 186.039H183.956C182.001 187.226 179.705 187.91 177.246 187.91C174.787 187.91 172.489 187.226 170.536 186.039H164.09C164.904 187.411 165.373 189.001 165.373 190.701V222.792C165.373 223.757 165.22 224.69 164.94 225.566H193.455C196.821 225.566 199.575 222.898 199.575 219.636V191.969C199.575 188.707 196.821 186.039 193.455 186.039Z" fill="#06122E"/>
<path d="M111.396 186.039H102.755C100.8 187.226 98.504 187.91 96.0448 187.91C93.5857 187.91 91.2872 187.226 89.3346 186.039H80.6935C77.3275 186.039 74.5742 188.707 74.5742 191.969V219.639C74.5742 222.901 77.3275 225.569 80.6935 225.569H110.77C110.438 224.622 110.255 223.607 110.255 222.552V190.458C110.252 188.859 110.666 187.354 111.396 186.039Z" fill="#06122E"/>
</g>
<defs>
<clipPath id="clip0_761_362">
<rect width="125" height="75.2841" fill="white" transform="translate(74.5742 154.385)"/>
</clipPath>
</defs>
</svg>
