<svg width="240" height="36" viewBox="0 0 240 36" fill="none" xmlns="http://www.w3.org/2000/svg">
<path d="M166.973 7.51224C166.973 14.7551 166.973 22.031 166.973 29.8945C137.728 29.7427 109.072 29.2805 80.3498 29.7295C81.2773 21.8659 82.0938 14.5438 81.3622 7.46601C109.862 5.05612 138.61 8.13946 166.973 7.51224ZM106.028 8.33754C105.636 11.4869 105.662 14.6561 105.871 17.9771C109.62 17.9771 113.017 17.9771 116.74 17.9771C116.525 14.6165 116.695 11.4803 115.512 8.33754C112.508 8.33754 109.601 8.33754 106.028 8.33754ZM139.707 8.81951C136.663 8.81951 133.783 8.81951 130.621 8.81951C130.771 11.9227 130.909 14.94 131.065 18.1752C134.266 18.0365 137.258 18.4723 140.315 17.8187C140.883 14.8409 140.321 12.0547 139.707 8.81951ZM142.32 27.9666C145.795 27.9666 148.996 27.9666 152.262 27.9666C153.242 25.1276 152.922 22.4602 152.713 19.4429C149.146 19.6673 145.763 19.8852 142.209 20.1097C142.261 22.7903 141.641 25.2398 142.32 27.9666ZM154.633 17.3961C158.455 18.1422 161.819 17.614 165.268 17.2773C165.372 14.326 165.738 11.751 165.02 9.10342C161.473 9.63162 157.997 8.92515 154.64 9.80988C154.633 12.3716 154.633 14.7485 154.633 17.3961ZM118.445 27.7751C121.973 27.7751 125.265 27.7751 128.609 27.7751C129.093 25.1738 129.315 22.8365 129.125 20.4134C125.343 20.4134 121.849 20.4134 118.315 20.4134C118.001 22.9488 117.812 25.22 118.445 27.7751ZM103.754 27.4054C103.859 24.9163 104.519 22.6054 103.82 20.42C99.9854 20.42 96.36 20.42 92.7347 20.42C92.7347 22.8761 92.7347 25.0219 92.7347 27.4054C96.4972 27.4054 100.005 27.4054 103.754 27.4054ZM90.6967 18.1026C90.1806 14.9994 90.5269 12.1471 89.534 9.26848C87.5613 8.95156 85.6734 8.95156 83.7073 9.22886C82.8842 11.9425 82.6883 14.5967 83.1912 17.3631C85.5689 18.0629 87.8748 18.3072 90.6967 18.1026Z" fill="#06122E"/>
<path d="M80.643 1.98212C83.8633 0.853099 86.7114 1.49353 89.4157 1.31526C103.636 0.390923 117.896 -0.421171 132.11 1.08419C142.411 2.17359 152.699 2.66217 163.04 2.33205C164.366 2.29244 165.685 2.16699 167.775 2.03494C165.959 4.02888 164.3 3.73177 162.804 3.76478C152.137 4.00247 141.503 3.41485 130.862 2.68198C115.211 1.59918 99.5667 2.10096 83.9483 3.48087C82.7725 3.57991 82.7725 3.59972 80.643 1.98212Z" fill="#06122E"/>
<path d="M165.314 33.6076C136.475 35.2318 107.903 35.5025 79.09 34.149C79.7759 32.1815 81.2913 32.6172 82.5912 32.6569C92.1543 32.9804 101.711 33.4822 111.274 33.6274C124.423 33.8255 137.566 33.2049 150.709 32.7625C154.621 32.6304 158.534 32.6635 162.447 32.6899C163.329 32.7031 164.367 32.3267 165.314 33.6076Z" fill="#06122E"/>
<path d="M239.747 7.51028C239.747 14.7532 239.747 22.0291 239.747 29.8926C210.503 29.7407 181.846 29.2785 153.124 29.7275C154.052 21.864 154.868 14.5419 154.137 7.46406C182.636 5.05417 211.384 8.13751 239.747 7.51028ZM178.802 8.33558C178.41 11.4849 178.436 14.6541 178.645 17.9752C182.395 17.9752 185.791 17.9752 189.515 17.9752C189.299 14.6145 189.469 11.4783 188.287 8.33558C185.282 8.33558 182.375 8.33558 178.802 8.33558ZM212.482 8.81756C209.438 8.81756 206.557 8.81756 203.396 8.81756C203.546 11.9207 203.683 14.938 203.84 18.1732C207.041 18.0346 210.032 18.4703 213.089 17.8167C213.658 14.839 213.096 12.0528 212.482 8.81756ZM215.095 27.9647C218.57 27.9647 221.771 27.9647 225.037 27.9647C226.016 25.1256 225.696 22.4582 225.487 19.4409C221.921 19.6654 218.537 19.8833 214.984 20.1077C215.036 22.7883 214.415 25.2378 215.095 27.9647ZM227.408 17.3941C231.229 18.1402 234.593 17.612 238.042 17.2753C238.147 14.324 238.513 11.7491 237.794 9.10147C234.247 9.62966 230.772 8.9232 227.414 9.80793C227.408 12.3697 227.408 14.7466 227.408 17.3941ZM191.22 27.7732C194.747 27.7732 198.039 27.7732 201.384 27.7732C201.867 25.1718 202.089 22.8346 201.9 20.4115C198.118 20.4115 194.623 20.4115 191.089 20.4115C190.776 22.9468 190.586 25.218 191.22 27.7732ZM176.529 27.4034C176.633 24.9143 177.293 22.6035 176.594 20.4181C172.76 20.4181 169.134 20.4181 165.509 20.4181C165.509 22.8742 165.509 25.02 165.509 27.4034C169.272 27.4034 172.779 27.4034 176.529 27.4034ZM163.471 18.1006C162.955 14.9975 163.301 12.1452 162.308 9.26652C160.336 8.9496 158.448 8.94961 156.482 9.22691C155.659 11.9405 155.463 14.5947 155.966 17.3611C158.343 18.061 160.649 18.3053 163.471 18.1006Z" fill="#06122E"/>
<path d="M232.641 1.97823C229.421 0.849207 226.573 1.48964 223.868 1.31137C209.648 0.387027 195.388 -0.425068 181.174 1.08029C170.873 2.16969 160.585 2.65827 150.245 2.32815C148.919 2.28853 147.599 2.16309 145.509 2.03104C147.325 4.02498 148.984 3.72786 150.48 3.76088C161.147 3.99857 171.781 3.41095 182.422 2.67808C198.073 1.59528 213.718 2.09707 229.336 3.47698C230.512 3.57601 230.512 3.59582 232.641 1.97823Z" fill="#06122E"/>
<path d="M235.206 33.6076C206.367 35.2318 177.795 35.5025 148.982 34.149C149.667 32.1815 151.183 32.6172 152.483 32.6569C162.046 32.9804 171.602 33.4822 181.166 33.6274C194.315 33.8255 207.457 33.2049 220.6 32.7625C224.513 32.6304 228.426 32.6635 232.338 32.6899C233.22 32.7031 234.259 32.3267 235.206 33.6076Z" fill="#06122E"/>
<path d="M94.4297 7.51224C94.4297 14.7551 94.4297 22.031 94.4297 29.8945C65.1852 29.7427 36.5287 29.2805 7.80679 29.7295C8.73436 21.8659 9.55087 14.5438 8.81927 7.46601C37.3191 5.05612 66.0671 8.13946 94.4297 7.51224ZM33.4847 8.33754C33.0928 11.4869 33.1189 14.6561 33.3279 17.9771C37.0774 17.9771 40.4741 17.9771 44.1974 17.9771C43.9818 14.6165 44.1517 11.4803 42.9694 8.33754C39.9646 8.33754 37.0578 8.33754 33.4847 8.33754ZM67.1645 8.81951C64.1205 8.81951 61.2398 8.81951 58.0782 8.81951C58.2285 11.9227 58.3656 14.94 58.5224 18.1752C61.7232 18.0365 64.7149 18.4723 67.772 17.8187C68.3403 14.8409 67.7785 12.0547 67.1645 8.81951ZM69.7773 27.9666C73.2524 27.9666 76.4532 27.9666 79.7193 27.9666C80.6991 25.1276 80.379 22.4602 80.17 19.4429C76.6034 19.6673 73.2198 19.8852 69.6663 20.1097C69.7185 22.7903 69.098 25.2398 69.7773 27.9666ZM82.0904 17.3961C85.9117 18.1422 89.2758 17.614 92.7248 17.2773C92.8293 14.326 93.1951 11.751 92.4766 9.10342C88.9296 9.63162 85.4545 8.92515 82.097 9.80988C82.0904 12.3716 82.0904 14.7485 82.0904 17.3961ZM45.9023 27.7751C49.4297 27.7751 52.7219 27.7751 56.0664 27.7751C56.5497 25.1738 56.7718 22.8365 56.5824 20.4134C52.8003 20.4134 49.3056 20.4134 45.7717 20.4134C45.4581 22.9488 45.2687 25.22 45.9023 27.7751ZM31.2115 27.4054C31.316 24.9163 31.9758 22.6054 31.2768 20.42C27.4424 20.42 23.8171 20.42 20.1917 20.42C20.1917 22.8761 20.1917 25.0219 20.1917 27.4054C23.9543 27.4054 27.462 27.4054 31.2115 27.4054ZM18.1537 18.1026C17.6377 14.9994 17.9839 12.1471 16.991 9.26848C15.0183 8.95156 13.1305 8.95156 11.1643 9.22886C10.3412 11.9425 10.1453 14.5967 10.6483 17.3631C13.026 18.0629 15.3318 18.3072 18.1537 18.1026Z" fill="#06122E"/>
<path d="M87.3238 1.97823C84.1035 0.849207 81.2554 1.48964 78.5511 1.31137C64.3306 0.387027 50.0709 -0.425068 35.857 1.08029C25.5557 2.16969 15.2676 2.65827 4.92722 2.32815C3.60119 2.28853 2.2817 2.16309 0.191406 2.03104C2.00735 4.02498 3.6665 3.72786 5.16237 3.76088C15.8294 3.99857 26.4637 3.41095 37.1046 2.67808C52.7557 1.59528 68.4001 2.09707 84.0185 3.47698C85.1943 3.57601 85.1943 3.59582 87.3238 1.97823Z" fill="#06122E"/>
<path d="M89.8887 33.6076C61.0492 35.2318 32.4776 35.5025 3.66424 34.149C4.35011 32.1815 5.86556 32.6172 7.16547 32.6569C16.7285 32.9804 26.2851 33.4822 35.8481 33.6274C48.9974 33.8255 62.1401 33.2049 75.2827 32.7625C79.1955 32.6304 83.1083 32.6635 87.021 32.6899C87.9029 32.7031 88.9415 32.3267 89.8887 33.6076Z" fill="#06122E"/>
</svg>
