<svg width="407" height="505" viewBox="0 0 407 505" fill="none" xmlns="http://www.w3.org/2000/svg">
<path d="M378.845 8.96122C378.845 17.563 378.845 26.2041 378.845 35.543C344.871 35.3626 311.581 34.8137 278.214 35.3469C279.292 26.008 280.24 17.3121 279.39 8.90633C312.499 6.04428 345.896 9.70614 378.845 8.96122ZM308.044 9.94137C307.589 13.6816 307.62 17.4454 307.862 21.3896C312.218 21.3896 316.164 21.3896 320.489 21.3896C320.239 17.3984 320.436 13.6738 319.063 9.94137C315.572 9.94137 312.195 9.94137 308.044 9.94137ZM347.171 10.5138C343.634 10.5138 340.288 10.5138 336.615 10.5138C336.789 14.1992 336.949 17.7826 337.131 21.6248C340.849 21.4601 344.325 21.9776 347.876 21.2014C348.536 17.665 347.884 14.356 347.171 10.5138ZM350.206 33.2533C354.243 33.2533 357.961 33.2533 361.756 33.2533C362.894 29.8816 362.522 26.7137 362.279 23.1303C358.136 23.3969 354.205 23.6557 350.077 23.9223C350.138 27.1058 349.417 30.0149 350.206 33.2533ZM364.51 20.6995C368.949 21.5856 372.857 20.9583 376.864 20.5584C376.986 17.0534 377.411 13.9953 376.576 10.851C372.455 11.4782 368.418 10.6392 364.518 11.69C364.51 14.7324 364.51 17.5552 364.51 20.6995ZM322.47 33.0259C326.568 33.0259 330.392 33.0259 334.278 33.0259C334.839 29.9365 335.097 27.1607 334.877 24.283C330.484 24.283 326.424 24.283 322.318 24.283C321.954 27.294 321.734 29.9914 322.47 33.0259ZM305.404 32.5868C305.525 29.6307 306.292 26.8862 305.48 24.2908C301.025 24.2908 296.814 24.2908 292.602 24.2908C292.602 27.2077 292.602 29.7561 292.602 32.5868C296.973 32.5868 301.048 32.5868 305.404 32.5868ZM290.234 21.5385C289.635 17.8532 290.037 14.4657 288.884 11.047C286.592 10.6706 284.399 10.6706 282.115 10.9999C281.159 14.2227 280.931 17.3748 281.515 20.6603C284.277 21.4915 286.956 21.7816 290.234 21.5385Z" fill="#06122E"/>
<path d="M278.556 2.38955C282.297 1.0487 285.606 1.80929 288.747 1.59758C305.267 0.499807 321.833 -0.464655 338.345 1.32314C350.312 2.61695 362.264 3.1972 374.277 2.80514C375.817 2.75809 377.35 2.60911 379.778 2.45229C377.669 4.82034 375.741 4.46748 374.004 4.50668C361.612 4.78897 349.258 4.0911 336.896 3.22072C318.714 1.93476 300.54 2.53069 282.396 4.1695C281.03 4.28712 281.03 4.31065 278.556 2.38955Z" fill="#06122E"/>
<path d="M376.917 39.9489C343.414 41.8778 310.222 42.1993 276.749 40.5919C277.546 38.2552 279.307 38.7727 280.817 38.8198C291.926 39.204 303.028 39.7999 314.138 39.9724C329.413 40.2077 344.681 39.4706 359.949 38.9452C364.495 38.7884 369.04 38.8276 373.586 38.859C374.61 38.8747 375.817 38.4277 376.917 39.9489Z" fill="#06122E"/>
<path d="M210.024 8.96122C210.024 17.563 210.024 26.2041 210.024 35.543C176.051 35.3626 142.76 34.8137 109.394 35.3469C110.471 26.008 111.42 17.3121 110.57 8.90633C143.679 6.04428 177.075 9.70614 210.024 8.96122ZM139.224 9.94137C138.769 13.6816 138.799 17.4454 139.042 21.3896C143.398 21.3896 147.344 21.3896 151.669 21.3896C151.419 17.3984 151.616 13.6738 150.243 9.94137C146.752 9.94137 143.375 9.94137 139.224 9.94137ZM178.35 10.5138C174.814 10.5138 171.467 10.5138 167.795 10.5138C167.969 14.1992 168.129 17.7826 168.311 21.6248C172.029 21.4601 175.505 21.9776 179.056 21.2014C179.716 17.665 179.064 14.356 178.35 10.5138ZM181.386 33.2533C185.423 33.2533 189.141 33.2533 192.935 33.2533C194.073 29.8816 193.702 26.7137 193.459 23.1303C189.316 23.3969 185.385 23.6557 181.257 23.9223C181.317 27.1058 180.596 30.0149 181.386 33.2533ZM195.69 20.6995C200.129 21.5856 204.037 20.9583 208.044 20.5584C208.165 17.0534 208.59 13.9953 207.755 10.851C203.635 11.4782 199.598 10.6392 195.697 11.69C195.69 14.7324 195.69 17.5552 195.69 20.6995ZM153.65 33.0259C157.748 33.0259 161.572 33.0259 165.457 33.0259C166.019 29.9365 166.277 27.1607 166.057 24.283C161.663 24.283 157.603 24.283 153.498 24.283C153.134 27.294 152.914 29.9914 153.65 33.0259ZM136.583 32.5868C136.705 29.6307 137.471 26.8862 136.659 24.2908C132.205 24.2908 127.993 24.2908 123.782 24.2908C123.782 27.2077 123.782 29.7561 123.782 32.5868C128.153 32.5868 132.228 32.5868 136.583 32.5868ZM121.414 21.5385C120.815 17.8532 121.217 14.4657 120.063 11.047C117.772 10.6706 115.578 10.6706 113.294 10.9999C112.338 14.2227 112.111 17.3748 112.695 20.6603C115.457 21.4915 118.136 21.7816 121.414 21.5385Z" fill="#06122E"/>
<path d="M109.736 2.38955C113.477 1.0487 116.785 1.80929 119.927 1.59758C136.447 0.499806 153.013 -0.464655 169.525 1.32314C181.492 2.61695 193.444 3.1972 205.456 2.80514C206.997 2.75809 208.53 2.60911 210.958 2.45229C208.848 4.82034 206.921 4.46748 205.183 4.50668C192.791 4.78897 180.437 4.0911 168.076 3.22072C149.894 1.93476 131.719 2.53069 113.575 4.1695C112.209 4.28712 112.209 4.31065 109.736 2.38955Z" fill="#06122E"/>
<path d="M208.098 39.9489C174.595 41.8778 141.403 42.1993 107.93 40.5919C108.727 38.2552 110.487 38.7727 111.997 38.8198C123.107 39.204 134.209 39.7999 145.318 39.9724C160.594 40.2077 175.862 39.4706 191.13 38.9452C195.675 38.7884 200.221 38.8276 204.766 38.859C205.791 38.8747 206.997 38.4277 208.098 39.9489Z" fill="#06122E"/>
<path d="M294.572 8.96122C294.572 17.563 294.572 26.2041 294.572 35.543C260.599 35.3626 227.308 34.8137 193.942 35.3469C195.019 26.008 195.968 17.3121 195.118 8.90633C228.226 6.04428 261.623 9.70614 294.572 8.96122ZM223.772 9.94137C223.317 13.6816 223.347 17.4454 223.59 21.3896C227.946 21.3896 231.892 21.3896 236.217 21.3896C235.967 17.3984 236.164 13.6738 234.79 9.94137C231.3 9.94137 227.923 9.94137 223.772 9.94137ZM262.898 10.5138C259.362 10.5138 256.015 10.5138 252.342 10.5138C252.517 14.1992 252.676 17.7826 252.859 21.6248C256.577 21.4601 260.052 21.9776 263.604 21.2014C264.264 17.665 263.611 14.356 262.898 10.5138ZM265.933 33.2533C269.971 33.2533 273.689 33.2533 277.483 33.2533C278.621 29.8816 278.249 26.7137 278.007 23.1303C273.863 23.3969 269.933 23.6557 265.804 23.9223C265.865 27.1058 265.144 30.0149 265.933 33.2533ZM280.238 20.6995C284.677 21.5856 288.585 20.9583 292.592 20.5584C292.713 17.0534 293.138 13.9953 292.303 10.851C288.183 11.4782 284.146 10.6392 280.245 11.69C280.238 14.7324 280.238 17.5552 280.238 20.6995ZM238.198 33.0259C242.295 33.0259 246.12 33.0259 250.005 33.0259C250.567 29.9365 250.825 27.1607 250.605 24.283C246.211 24.283 242.151 24.283 238.046 24.283C237.682 27.294 237.462 29.9914 238.198 33.0259ZM221.131 32.5868C221.253 29.6307 222.019 26.8862 221.207 24.2908C216.753 24.2908 212.541 24.2908 208.329 24.2908C208.329 27.2077 208.329 29.7561 208.329 32.5868C212.7 32.5868 216.775 32.5868 221.131 32.5868ZM205.962 21.5385C205.362 17.8532 205.765 14.4657 204.611 11.047C202.319 10.6706 200.126 10.6706 197.842 10.9999C196.886 14.2227 196.658 17.3748 197.243 20.6603C200.005 21.4915 202.684 21.7816 205.962 21.5385Z" fill="#06122E"/>
<path d="M286.315 2.38956C282.574 1.04871 279.265 1.80931 276.124 1.59759C259.604 0.49982 243.038 -0.464645 226.526 1.32315C214.559 2.61695 202.607 3.1972 190.594 2.80514C189.054 2.75809 187.521 2.60911 185.093 2.45229C187.202 4.82034 189.13 4.46748 190.868 4.50668C203.26 4.78897 215.614 4.0911 227.975 3.22073C246.157 1.93477 264.331 2.5307 282.475 4.16952C283.841 4.28714 283.841 4.31066 286.315 2.38956Z" fill="#06122E"/>
<path d="M289.296 39.9489C255.793 41.8778 222.601 42.1993 189.128 40.5919C189.925 38.2552 191.686 38.7727 193.196 38.8198C204.305 39.204 215.407 39.7999 226.517 39.9724C241.792 40.2077 257.06 39.4706 272.328 38.9452C276.874 38.7884 281.419 38.8276 285.965 38.859C286.989 38.8747 288.196 38.4277 289.296 39.9489Z" fill="#06122E"/>
<path d="M125.752 8.96122C125.752 17.563 125.752 26.2041 125.752 35.543C91.7784 35.3626 58.4879 34.8137 25.1215 35.3469C26.199 26.008 27.1476 17.3121 26.2977 8.90633C59.4061 6.04428 92.8029 9.70614 125.752 8.96122ZM54.9517 9.94137C54.4964 13.6816 54.5267 17.4454 54.7696 21.3896C59.1253 21.3896 63.0713 21.3896 67.3967 21.3896C67.1463 17.3984 67.3436 13.6738 65.9701 9.94137C62.4794 9.94137 59.1026 9.94137 54.9517 9.94137ZM94.0778 10.5138C90.5415 10.5138 87.195 10.5138 83.5222 10.5138C83.6967 14.1992 83.8561 17.7826 84.0382 21.6248C87.7565 21.4601 91.2321 21.9776 94.7835 21.2014C95.4437 17.665 94.7911 14.356 94.0778 10.5138ZM97.1131 33.2533C101.15 33.2533 104.869 33.2533 108.663 33.2533C109.801 29.8816 109.429 26.7137 109.186 23.1303C105.043 23.3969 101.112 23.6557 96.9841 23.9223C97.0448 27.1058 96.3239 30.0149 97.1131 33.2533ZM111.417 20.6995C115.857 21.5856 119.765 20.9583 123.771 20.5584C123.893 17.0534 124.318 13.9953 123.483 10.851C119.362 11.4782 115.325 10.6392 111.425 11.69C111.417 14.7324 111.417 17.5552 111.417 20.6995ZM69.3773 33.0259C73.4751 33.0259 77.2997 33.0259 81.185 33.0259C81.7465 29.9365 82.0045 27.1607 81.7844 24.283C77.3907 24.283 73.3309 24.283 69.2256 24.283C68.8613 27.294 68.6413 29.9914 69.3773 33.0259ZM52.3109 32.5868C52.4323 29.6307 53.1987 26.8862 52.3868 24.2908C47.9324 24.2908 43.7207 24.2908 39.5091 24.2908C39.5091 27.2077 39.5091 29.7561 39.5091 32.5868C43.8801 32.5868 47.9551 32.5868 52.3109 32.5868ZM37.1415 21.5385C36.5421 17.8532 36.9443 14.4657 35.7908 11.047C33.4991 10.6706 31.306 10.6706 29.0219 10.9999C28.0658 14.2227 27.8381 17.3748 28.4224 20.6603C31.1846 21.4915 33.8633 21.7816 37.1415 21.5385Z" fill="#06122E"/>
<path d="M117.495 2.38956C113.754 1.04871 110.445 1.80931 107.304 1.59759C90.7835 0.49982 74.2179 -0.464645 57.7054 1.32315C45.7384 2.61695 33.7866 3.1972 21.7741 2.80514C20.2336 2.75809 18.7008 2.60911 16.2725 2.45229C18.3821 4.82034 20.3095 4.46748 22.0473 4.50668C34.4392 4.78897 46.7932 4.0911 59.1548 3.22073C77.3368 1.93477 95.5111 2.5307 113.655 4.16952C115.021 4.28714 115.021 4.31066 117.495 2.38956Z" fill="#06122E"/>
<path d="M120.476 39.9489C86.9726 41.8778 53.7807 42.1993 20.308 40.5919C21.1048 38.2552 22.8653 38.7727 24.3754 38.8198C35.4849 39.204 46.5868 39.7999 57.6963 39.9724C72.9718 40.2077 88.2398 39.4706 103.508 38.9452C108.053 38.7884 112.599 38.8276 117.144 38.859C118.169 38.8747 119.375 38.4277 120.476 39.9489Z" fill="#06122E"/>
<path d="M397.626 376.395C389.025 376.395 380.384 376.395 371.046 376.395C371.226 342.423 371.775 309.134 371.242 275.769C380.58 276.846 389.276 277.795 397.681 276.945C400.543 310.052 396.882 343.447 397.626 376.395ZM396.646 305.597C392.906 305.142 389.143 305.173 385.199 305.415C385.199 309.771 385.199 313.717 385.199 318.042C389.19 317.792 392.914 317.989 396.646 316.615C396.646 313.125 396.646 309.748 396.646 305.597ZM396.074 344.722C396.074 341.186 396.074 337.839 396.074 334.167C392.389 334.341 388.805 334.501 384.963 334.683C385.128 338.401 384.611 341.876 385.387 345.427C388.923 346.088 392.232 345.435 396.074 344.722ZM373.335 347.757C373.335 351.794 373.335 355.512 373.335 359.306C376.707 360.444 379.875 360.072 383.458 359.83C383.191 355.687 382.933 351.756 382.666 347.628C379.483 347.689 376.574 346.968 373.335 347.757ZM385.889 362.061C385.003 366.5 385.63 370.408 386.03 374.414C389.535 374.535 392.593 374.96 395.737 374.126C395.11 370.005 395.949 365.968 394.898 362.068C391.856 362.061 389.033 362.061 385.889 362.061ZM373.563 320.022C373.563 324.12 373.563 327.944 373.563 331.83C376.652 332.391 379.428 332.649 382.305 332.429C382.305 328.035 382.305 323.976 382.305 319.871C379.295 319.506 376.597 319.286 373.563 320.022ZM374.002 302.957C376.958 303.078 379.702 303.845 382.298 303.033C382.298 298.578 382.298 294.367 382.298 290.156C379.381 290.156 376.832 290.156 374.002 290.156C374.002 294.526 374.002 298.601 374.002 302.957ZM385.05 287.788C388.735 287.189 392.122 287.591 395.541 286.437C395.917 284.146 395.917 281.953 395.588 279.669C392.365 278.713 389.213 278.485 385.928 279.069C385.097 281.831 384.807 284.51 385.05 287.788Z" fill="#06122E"/>
<path d="M404.196 276.11C405.537 279.851 404.777 283.16 404.988 286.301C406.086 302.82 407.05 319.385 405.263 335.897C403.969 347.864 403.389 359.815 403.781 371.827C403.828 373.367 403.977 374.9 404.134 377.328C401.766 375.219 402.118 373.291 402.079 371.554C401.797 359.162 402.495 346.809 403.365 334.448C404.651 316.267 404.055 298.093 402.416 279.95C402.299 278.584 402.275 278.584 404.196 276.11Z" fill="#06122E"/>
<path d="M366.639 374.469C364.71 340.967 364.389 307.777 365.996 274.306C368.333 275.102 367.815 276.863 367.768 278.373C367.384 289.482 366.788 300.583 366.615 311.692C366.38 326.967 367.117 342.234 367.643 357.502C367.799 362.047 367.76 366.592 367.729 371.138C367.713 372.162 368.16 373.368 366.639 374.469Z" fill="#06122E"/>
<path d="M397.626 207.582C389.025 207.582 380.384 207.582 371.046 207.582C371.226 173.61 371.775 140.321 371.242 106.956C380.58 108.034 389.276 108.982 397.681 108.132C400.543 141.239 396.882 174.634 397.626 207.582ZM396.646 136.785C392.906 136.33 389.143 136.36 385.199 136.603C385.199 140.958 385.199 144.904 385.199 149.229C389.19 148.979 392.914 149.176 396.646 147.803C396.646 144.312 396.646 140.936 396.646 136.785ZM396.074 175.909C396.074 172.373 396.074 169.027 396.074 165.354C392.389 165.529 388.805 165.688 384.963 165.87C385.128 169.588 384.611 173.064 385.387 176.615C388.923 177.275 392.232 176.623 396.074 175.909ZM373.335 178.945C373.335 182.981 373.335 186.7 373.335 190.494C376.707 191.632 379.875 191.26 383.458 191.017C383.191 186.874 382.933 182.943 382.666 178.815C379.483 178.876 376.574 178.155 373.335 178.945ZM385.889 193.248C385.003 197.687 385.63 201.595 386.03 205.602C389.535 205.723 392.593 206.148 395.737 205.313C395.11 201.193 395.949 197.156 394.898 193.256C391.856 193.248 389.033 193.248 385.889 193.248ZM373.563 151.21C373.563 155.308 373.563 159.132 373.563 163.017C376.652 163.579 379.428 163.837 382.305 163.617C382.305 159.223 382.305 155.163 382.305 151.058C379.295 150.694 376.597 150.474 373.563 151.21ZM374.002 134.144C376.958 134.266 379.702 135.032 382.298 134.22C382.298 129.766 382.298 125.555 382.298 121.343C379.381 121.343 376.832 121.343 374.002 121.343C374.002 125.714 374.002 129.789 374.002 134.144ZM385.05 118.976C388.735 118.376 392.122 118.778 395.541 117.625C395.917 115.333 395.917 113.14 395.588 110.856C392.365 109.9 389.213 109.673 385.928 110.257C385.097 113.019 384.807 115.698 385.05 118.976Z" fill="#06122E"/>
<path d="M404.196 107.298C405.537 111.039 404.777 114.347 404.988 117.489C406.086 134.008 407.05 150.573 405.263 167.085C403.969 179.051 403.389 191.002 403.781 203.014C403.828 204.555 403.977 206.087 404.134 208.516C401.766 206.406 402.118 204.479 402.079 202.741C401.797 190.35 402.495 177.996 403.365 165.635C404.651 147.454 404.055 129.281 402.416 111.137C402.299 109.772 402.275 109.772 404.196 107.298Z" fill="#06122E"/>
<path d="M366.639 205.656C364.71 172.155 364.389 138.964 365.996 105.493C368.333 106.29 367.815 108.05 367.768 109.56C367.384 120.669 366.788 131.771 366.615 142.88C366.38 158.155 367.117 173.422 367.643 188.689C367.799 193.234 367.76 197.78 367.729 202.325C367.713 203.349 368.16 204.556 366.639 205.656Z" fill="#06122E"/>
<path d="M397.626 292.125C389.025 292.125 380.384 292.125 371.046 292.125C371.226 258.153 371.775 224.864 371.242 191.499C380.58 192.577 389.276 193.525 397.681 192.675C400.543 225.782 396.882 259.177 397.626 292.125ZM396.646 221.328C392.906 220.873 389.143 220.903 385.199 221.146C385.199 225.501 385.199 229.447 385.199 233.772C389.19 233.522 392.914 233.719 396.646 232.346C396.646 228.855 396.646 225.479 396.646 221.328ZM396.074 260.452C396.074 256.916 396.074 253.57 396.074 249.897C392.389 250.072 388.805 250.231 384.963 250.413C385.128 254.131 384.611 257.607 385.387 261.158C388.923 261.818 392.232 261.166 396.074 260.452ZM373.335 263.487C373.335 267.524 373.335 271.243 373.335 275.037C376.707 276.175 379.875 275.803 383.458 275.56C383.191 271.417 382.933 267.486 382.666 263.358C379.483 263.419 376.574 262.698 373.335 263.487ZM385.889 277.791C385.003 282.23 385.63 286.138 386.03 290.145C389.535 290.266 392.593 290.691 395.737 289.856C395.11 285.736 395.949 281.699 394.898 277.799C391.856 277.791 389.033 277.791 385.889 277.791ZM373.563 235.753C373.563 239.851 373.563 243.675 373.563 247.56C376.652 248.122 379.428 248.38 382.305 248.159C382.305 243.766 382.305 239.706 382.305 235.601C379.295 235.237 376.597 235.017 373.563 235.753ZM374.002 218.687C376.958 218.809 379.702 219.575 382.298 218.763C382.298 214.309 382.298 210.097 382.298 205.886C379.381 205.886 376.832 205.886 374.002 205.886C374.002 210.257 374.002 214.332 374.002 218.687ZM385.05 203.519C388.735 202.919 392.122 203.321 395.541 202.168C395.917 199.876 395.917 197.683 395.588 195.399C392.365 194.443 389.213 194.216 385.928 194.8C385.097 197.562 384.807 200.241 385.05 203.519Z" fill="#06122E"/>
<path d="M404.196 283.87C405.537 280.129 404.777 276.821 404.988 273.679C406.086 257.16 407.05 240.595 405.263 224.083C403.969 212.117 403.389 200.166 403.781 188.154C403.828 186.613 403.977 185.081 404.134 182.652C401.766 184.762 402.118 186.689 402.079 188.427C401.797 200.818 402.495 213.172 403.365 225.533C404.651 243.714 404.055 261.887 402.416 280.031C402.299 281.396 402.275 281.396 404.196 283.87Z" fill="#06122E"/>
<path d="M366.639 286.848C364.71 253.346 364.389 220.156 365.996 186.685C368.333 187.481 367.815 189.242 367.768 190.752C367.384 201.861 366.788 212.962 366.615 224.071C366.38 239.346 367.117 254.613 367.643 269.881C367.799 274.426 367.76 278.971 367.729 283.516C367.713 284.541 368.16 285.747 366.639 286.848Z" fill="#06122E"/>
<path d="M397.626 431.223C389.025 431.223 380.384 431.223 371.046 431.223C371.226 397.251 371.775 363.962 371.242 330.597C380.58 331.674 389.276 332.623 397.681 331.773C400.543 364.88 396.882 398.275 397.626 431.223ZM396.646 360.426C392.906 359.97 389.143 360.001 385.199 360.243C385.199 364.599 385.199 368.545 385.199 372.87C389.19 372.62 392.914 372.817 396.646 371.443C396.646 367.953 396.646 364.576 396.646 360.426ZM396.074 399.55C396.074 396.014 396.074 392.667 396.074 388.995C392.389 389.169 388.805 389.329 384.963 389.511C385.128 393.229 384.611 396.704 385.387 400.256C388.923 400.916 392.232 400.263 396.074 399.55ZM373.335 402.585C373.335 406.622 373.335 410.34 373.335 414.134C376.707 415.272 379.875 414.901 383.458 414.658C383.191 410.515 382.933 406.584 382.666 402.456C379.483 402.517 376.574 401.796 373.335 402.585ZM385.889 416.889C385.003 421.328 385.63 425.236 386.03 429.242C389.535 429.364 392.593 429.789 395.737 428.954C395.11 424.833 395.949 420.797 394.898 416.896C391.856 416.889 389.033 416.889 385.889 416.889ZM373.563 374.851C373.563 378.948 373.563 382.773 373.563 386.658C376.652 387.219 379.428 387.477 382.305 387.257C382.305 382.864 382.305 378.804 382.305 374.699C379.295 374.335 376.597 374.115 373.563 374.851ZM374.002 357.785C376.958 357.906 379.702 358.673 382.298 357.861C382.298 353.407 382.298 349.195 382.298 344.984C379.381 344.984 376.832 344.984 374.002 344.984C374.002 349.354 374.002 353.429 374.002 357.785ZM385.05 342.616C388.735 342.017 392.122 342.419 395.541 341.266C395.917 338.974 395.917 336.781 395.588 334.497C392.365 333.541 389.213 333.313 385.928 333.898C385.097 336.66 384.807 339.338 385.05 342.616Z" fill="#06122E"/>
<path d="M404.196 422.968C405.537 419.227 404.777 415.918 404.988 412.777C406.086 396.258 407.05 379.693 405.263 363.181C403.969 351.215 403.389 339.263 403.781 327.251C403.828 325.711 403.977 324.178 404.134 321.75C401.766 323.859 402.118 325.787 402.079 327.525C401.797 339.916 402.495 352.269 403.365 364.63C404.651 382.812 404.055 400.985 402.416 419.128C402.299 420.494 402.275 420.494 404.196 422.968Z" fill="#06122E"/>
<path d="M366.639 425.945C364.71 392.444 364.389 359.253 365.996 325.782C368.333 326.579 367.815 328.339 367.768 329.849C367.384 340.958 366.788 352.06 366.615 363.169C366.38 378.444 367.117 393.711 367.643 408.978C367.799 413.524 367.76 418.069 367.729 422.614C367.713 423.639 368.16 424.845 366.639 425.945Z" fill="#06122E"/>
<path d="M397.626 488.859C389.025 488.859 380.384 488.859 371.046 488.859C371.226 454.887 371.775 421.598 371.242 388.233C380.58 389.311 389.276 390.259 397.681 389.41C400.543 422.517 396.882 455.912 397.626 488.859ZM396.646 418.062C392.906 417.607 389.143 417.637 385.199 417.88C385.199 422.236 385.199 426.182 385.199 430.507C389.19 430.256 392.914 430.454 396.646 429.08C396.646 425.59 396.646 422.213 396.646 418.062ZM396.074 457.187C396.074 453.651 396.074 450.304 396.074 446.632C392.389 446.806 388.805 446.965 384.963 447.148C385.128 450.866 384.611 454.341 385.387 457.892C388.923 458.552 392.232 457.9 396.074 457.187ZM373.335 460.222C373.335 464.259 373.335 467.977 373.335 471.771C376.707 472.909 379.875 472.537 383.458 472.295C383.191 468.151 382.933 464.221 382.666 460.093C379.483 460.154 376.574 459.433 373.335 460.222ZM385.889 474.525C385.003 478.964 385.63 482.872 386.03 486.879C389.535 487 392.593 487.425 395.737 486.591C395.11 482.47 395.949 478.433 394.898 474.533C391.856 474.525 389.033 474.525 385.889 474.525ZM373.563 432.487C373.563 436.585 373.563 440.409 373.563 444.294C376.652 444.856 379.428 445.114 382.305 444.894C382.305 440.5 382.305 436.441 382.305 432.336C379.295 431.971 376.597 431.751 373.563 432.487ZM374.002 415.422C376.958 415.543 379.702 416.309 382.298 415.498C382.298 411.043 382.298 406.832 382.298 402.62C379.381 402.62 376.832 402.62 374.002 402.62C374.002 406.991 374.002 411.066 374.002 415.422ZM385.05 400.253C388.735 399.654 392.122 400.056 395.541 398.902C395.917 396.611 395.917 394.418 395.588 392.134C392.365 391.178 389.213 390.95 385.928 391.534C385.097 394.296 384.807 396.975 385.05 400.253Z" fill="#06122E"/>
<path d="M404.196 480.605C405.537 476.864 404.777 473.555 404.988 470.414C406.086 453.894 407.05 437.33 405.263 420.818C403.969 408.851 403.389 396.9 403.781 384.888C403.828 383.348 403.977 381.815 404.134 379.387C401.766 381.496 402.118 383.424 402.079 385.161C401.797 397.553 402.495 409.906 403.365 422.267C404.651 440.448 404.055 458.622 402.416 476.765C402.299 478.131 402.275 478.131 404.196 480.605Z" fill="#06122E"/>
<path d="M366.639 483.582C364.71 450.081 364.389 416.89 365.996 383.419C368.333 384.216 367.815 385.976 367.768 387.486C367.384 398.595 366.788 409.697 366.615 420.806C366.38 436.08 367.117 451.348 367.643 466.615C367.799 471.16 367.76 475.706 367.729 480.251C367.713 481.275 368.16 482.482 366.639 483.582Z" fill="#06122E"/>
<path d="M397.626 123.313C389.025 123.313 380.384 123.313 371.046 123.312C371.226 89.3405 371.775 56.0515 371.242 22.6866C380.58 23.7641 389.276 24.7126 397.681 23.8627C400.543 56.9696 396.882 90.3649 397.626 123.313ZM396.646 52.5154C392.906 52.0601 389.143 52.0905 385.199 52.3333C385.199 56.6889 385.199 60.6347 385.199 64.9599C389.19 64.7095 392.914 64.9068 396.646 63.5333C396.646 60.0428 396.646 56.6661 396.646 52.5154ZM396.074 91.6397C396.074 88.1037 396.074 84.7573 396.074 81.0846C392.389 81.2592 388.805 81.4185 384.963 81.6006C385.128 85.3188 384.611 88.7942 385.387 92.3454C388.923 93.0056 392.232 92.353 396.074 91.6397ZM373.335 94.675C373.335 98.7118 373.335 102.43 373.335 106.224C376.707 107.362 379.875 106.99 383.458 106.748C383.191 102.605 382.933 98.6739 382.666 94.5459C379.483 94.6066 376.574 93.8858 373.335 94.675ZM385.889 108.979C385.003 113.418 385.63 117.325 386.03 121.332C389.535 121.453 392.593 121.878 395.737 121.044C395.11 116.923 395.949 112.886 394.898 108.986C391.856 108.979 389.033 108.979 385.889 108.979ZM373.563 66.9404C373.563 71.038 373.563 74.8624 373.563 78.7475C376.652 79.3091 379.428 79.567 382.305 79.347C382.305 74.9535 382.305 70.8938 382.305 66.7887C379.295 66.4244 376.597 66.2044 373.563 66.9404ZM374.002 49.8747C376.958 49.9961 379.702 50.7626 382.298 49.9506C382.298 45.4964 382.298 41.285 382.298 37.0736C379.381 37.0736 376.832 37.0736 374.002 37.0736C374.002 41.4443 374.002 45.5192 374.002 49.8747ZM385.05 34.7061C388.735 34.1066 392.122 34.5088 395.541 33.3554C395.917 31.0638 395.917 28.8708 395.588 26.5868C392.365 25.6307 389.213 25.4031 385.928 25.9874C385.097 28.7494 384.807 31.428 385.05 34.7061Z" fill="#06122E"/>
<path d="M404.196 115.058C405.537 111.317 404.777 108.008 404.988 104.867C406.086 88.3475 407.05 71.7826 405.263 55.2709C403.969 43.3045 403.389 31.3532 403.781 19.3412C403.828 17.8008 403.977 16.268 404.134 13.8398C401.766 15.9493 402.118 17.8767 402.079 19.6144C401.797 32.0058 402.495 44.3592 403.365 56.7203C404.651 74.9014 404.055 93.0749 402.416 111.218C402.299 112.584 402.275 112.584 404.196 115.058Z" fill="#06122E"/>
<path d="M366.639 118.035C364.71 84.5336 364.389 51.3432 365.996 17.8721C368.333 18.6688 367.815 20.4293 367.768 21.9393C367.384 33.0483 366.788 44.1497 366.615 55.2587C366.38 70.5335 367.117 85.8008 367.643 101.068C367.799 105.613 367.76 110.159 367.729 114.704C367.713 115.728 368.16 116.935 366.639 118.035Z" fill="#06122E"/>
<path d="M378.845 472.125C378.845 480.727 378.845 489.368 378.845 498.707C344.871 498.527 311.581 497.978 278.214 498.511C279.292 489.172 280.24 480.476 279.39 472.07C312.499 469.208 345.896 472.87 378.845 472.125ZM308.044 473.105C307.589 476.846 307.62 480.609 307.862 484.554C312.218 484.554 316.164 484.554 320.489 484.554C320.239 480.562 320.436 476.838 319.063 473.105C315.572 473.105 312.195 473.105 308.044 473.105ZM347.171 473.678C343.634 473.678 340.288 473.678 336.615 473.678C336.789 477.363 336.949 480.947 337.131 484.789C340.849 484.624 344.325 485.142 347.876 484.365C348.536 480.829 347.884 477.52 347.171 473.678ZM350.206 496.417C354.243 496.417 357.961 496.417 361.756 496.417C362.894 493.046 362.522 489.878 362.279 486.294C358.136 486.561 354.205 486.82 350.077 487.086C350.138 490.27 349.417 493.179 350.206 496.417ZM364.51 483.864C368.949 484.75 372.857 484.122 376.864 483.722C376.986 480.217 377.411 477.159 376.576 474.015C372.455 474.642 368.418 473.803 364.518 474.854C364.51 477.896 364.51 480.719 364.51 483.864ZM322.47 496.19C326.568 496.19 330.392 496.19 334.278 496.19C334.839 493.101 335.097 490.325 334.877 487.447C330.484 487.447 326.424 487.447 322.318 487.447C321.954 490.458 321.734 493.155 322.47 496.19ZM305.404 495.751C305.525 492.795 306.292 490.05 305.48 487.455C301.025 487.455 296.814 487.455 292.602 487.455C292.602 490.372 292.602 492.92 292.602 495.751C296.973 495.751 301.048 495.751 305.404 495.751ZM290.234 484.703C289.635 481.017 290.037 477.63 288.884 474.211C286.592 473.835 284.399 473.835 282.115 474.164C281.159 477.387 280.931 480.539 281.515 483.824C284.277 484.656 286.956 484.946 290.234 484.703Z" fill="#06122E"/>
<path d="M278.556 465.554C282.297 464.213 285.606 464.973 288.747 464.762C305.267 463.664 321.833 462.699 338.345 464.487C350.312 465.781 362.264 466.361 374.277 465.969C375.817 465.922 377.35 465.773 379.778 465.616C377.669 467.984 375.741 467.632 374.004 467.671C361.612 467.953 349.258 467.255 336.896 466.385C318.714 465.099 300.54 465.695 282.396 467.334C281.03 467.451 281.03 467.475 278.556 465.554Z" fill="#06122E"/>
<path d="M376.917 503.113C343.414 505.042 310.222 505.363 276.749 503.756C277.546 501.419 279.307 501.937 280.817 501.984C291.926 502.368 303.028 502.964 314.138 503.136C329.413 503.372 344.681 502.635 359.949 502.109C364.495 501.952 369.04 501.992 373.586 502.023C374.61 502.039 375.817 501.592 376.917 503.113Z" fill="#06122E"/>
<path d="M210.024 472.125C210.024 480.727 210.024 489.368 210.024 498.707C176.051 498.527 142.76 497.978 109.394 498.511C110.471 489.172 111.42 480.476 110.57 472.07C143.679 469.208 177.075 472.87 210.024 472.125ZM139.224 473.105C138.769 476.846 138.799 480.609 139.042 484.554C143.398 484.554 147.344 484.554 151.669 484.554C151.419 480.562 151.616 476.838 150.243 473.105C146.752 473.105 143.375 473.105 139.224 473.105ZM178.35 473.678C174.814 473.678 171.467 473.678 167.795 473.678C167.969 477.363 168.129 480.947 168.311 484.789C172.029 484.624 175.505 485.142 179.056 484.365C179.716 480.829 179.064 477.52 178.35 473.678ZM181.386 496.417C185.423 496.417 189.141 496.417 192.935 496.417C194.073 493.046 193.702 489.878 193.459 486.294C189.316 486.561 185.385 486.82 181.257 487.086C181.317 490.27 180.596 493.179 181.386 496.417ZM195.69 483.864C200.129 484.75 204.037 484.122 208.044 483.722C208.165 480.217 208.59 477.159 207.755 474.015C203.635 474.642 199.598 473.803 195.697 474.854C195.69 477.896 195.69 480.719 195.69 483.864ZM153.65 496.19C157.748 496.19 161.572 496.19 165.457 496.19C166.019 493.101 166.277 490.325 166.057 487.447C161.663 487.447 157.603 487.447 153.498 487.447C153.134 490.458 152.914 493.155 153.65 496.19ZM136.583 495.751C136.705 492.795 137.471 490.05 136.659 487.455C132.205 487.455 127.993 487.455 123.782 487.455C123.782 490.372 123.782 492.92 123.782 495.751C128.153 495.751 132.228 495.751 136.583 495.751ZM121.414 484.703C120.815 481.017 121.217 477.63 120.063 474.211C117.772 473.835 115.578 473.835 113.294 474.164C112.338 477.387 112.111 480.539 112.695 483.824C115.457 484.656 118.136 484.946 121.414 484.703Z" fill="#06122E"/>
<path d="M109.736 465.554C113.477 464.213 116.785 464.973 119.927 464.762C136.447 463.664 153.013 462.699 169.525 464.487C181.492 465.781 193.444 466.361 205.456 465.969C206.997 465.922 208.53 465.773 210.958 465.616C208.848 467.984 206.921 467.632 205.183 467.671C192.791 467.953 180.437 467.255 168.076 466.385C149.894 465.099 131.719 465.695 113.575 467.334C112.209 467.451 112.209 467.475 109.736 465.554Z" fill="#06122E"/>
<path d="M208.098 503.113C174.595 505.042 141.403 505.363 107.93 503.756C108.727 501.419 110.487 501.937 111.997 501.984C123.107 502.368 134.209 502.964 145.318 503.136C160.594 503.372 175.862 502.635 191.13 502.109C195.675 501.952 200.221 501.992 204.766 502.023C205.791 502.039 206.997 501.592 208.098 503.113Z" fill="#06122E"/>
<path d="M294.572 472.125C294.572 480.727 294.572 489.368 294.572 498.707C260.599 498.527 227.308 497.978 193.942 498.511C195.019 489.172 195.968 480.476 195.118 472.07C228.226 469.208 261.623 472.87 294.572 472.125ZM223.772 473.105C223.317 476.846 223.347 480.609 223.59 484.554C227.946 484.554 231.892 484.554 236.217 484.554C235.967 480.562 236.164 476.838 234.79 473.105C231.3 473.105 227.923 473.105 223.772 473.105ZM262.898 473.678C259.362 473.678 256.015 473.678 252.342 473.678C252.517 477.363 252.676 480.947 252.859 484.789C256.577 484.624 260.052 485.142 263.604 484.365C264.264 480.829 263.611 477.52 262.898 473.678ZM265.933 496.417C269.971 496.417 273.689 496.417 277.483 496.417C278.621 493.046 278.249 489.878 278.007 486.294C273.863 486.561 269.933 486.82 265.804 487.086C265.865 490.27 265.144 493.179 265.933 496.417ZM280.238 483.864C284.677 484.75 288.585 484.122 292.592 483.722C292.713 480.217 293.138 477.159 292.303 474.015C288.183 474.642 284.146 473.803 280.245 474.854C280.238 477.896 280.238 480.719 280.238 483.864ZM238.198 496.19C242.295 496.19 246.12 496.19 250.005 496.19C250.567 493.101 250.825 490.325 250.605 487.447C246.211 487.447 242.151 487.447 238.046 487.447C237.682 490.458 237.462 493.155 238.198 496.19ZM221.131 495.751C221.253 492.795 222.019 490.05 221.207 487.455C216.753 487.455 212.541 487.455 208.329 487.455C208.329 490.372 208.329 492.92 208.329 495.751C212.7 495.751 216.775 495.751 221.131 495.751ZM205.962 484.703C205.362 481.017 205.765 477.63 204.611 474.211C202.319 473.835 200.126 473.835 197.842 474.164C196.886 477.387 196.658 480.539 197.243 483.824C200.005 484.656 202.684 484.946 205.962 484.703Z" fill="#06122E"/>
<path d="M286.316 465.554C282.575 464.213 279.266 464.973 276.125 464.762C259.605 463.664 243.039 462.699 226.527 464.487C214.56 465.781 202.608 466.361 190.595 465.969C189.055 465.922 187.522 465.773 185.094 465.616C187.203 467.984 189.131 467.632 190.869 467.671C203.26 467.953 215.615 467.255 227.976 466.385C246.158 465.099 264.332 465.695 282.476 467.334C283.842 467.451 283.842 467.475 286.316 465.554Z" fill="#06122E"/>
<path d="M289.296 503.113C255.793 505.042 222.601 505.363 189.128 503.756C189.925 501.419 191.686 501.937 193.196 501.984C204.305 502.368 215.407 502.964 226.517 503.136C241.792 503.372 257.06 502.635 272.328 502.109C276.874 501.952 281.419 501.992 285.965 502.023C286.989 502.039 288.196 501.592 289.296 503.113Z" fill="#06122E"/>
<path d="M125.752 472.125C125.752 480.727 125.752 489.368 125.752 498.707C91.7784 498.527 58.4879 497.978 25.1215 498.511C26.199 489.172 27.1476 480.476 26.2977 472.07C59.4061 469.208 92.8029 472.87 125.752 472.125ZM54.9517 473.105C54.4964 476.846 54.5267 480.609 54.7696 484.554C59.1253 484.554 63.0713 484.554 67.3967 484.554C67.1463 480.562 67.3436 476.838 65.9701 473.105C62.4794 473.105 59.1026 473.105 54.9517 473.105ZM94.0778 473.678C90.5415 473.678 87.195 473.678 83.5222 473.678C83.6967 477.363 83.8561 480.947 84.0382 484.789C87.7565 484.624 91.2321 485.142 94.7835 484.365C95.4437 480.829 94.7911 477.52 94.0778 473.678ZM97.1131 496.417C101.15 496.417 104.869 496.417 108.663 496.417C109.801 493.046 109.429 489.878 109.186 486.294C105.043 486.561 101.112 486.82 96.9841 487.086C97.0448 490.27 96.3239 493.179 97.1131 496.417ZM111.417 483.864C115.857 484.75 119.765 484.122 123.771 483.722C123.893 480.217 124.318 477.159 123.483 474.015C119.362 474.642 115.325 473.803 111.425 474.854C111.417 477.896 111.417 480.719 111.417 483.864ZM69.3773 496.19C73.4751 496.19 77.2997 496.19 81.185 496.19C81.7465 493.101 82.0045 490.325 81.7844 487.447C77.3907 487.447 73.3309 487.447 69.2256 487.447C68.8613 490.458 68.6413 493.155 69.3773 496.19ZM52.3109 495.751C52.4323 492.795 53.1987 490.05 52.3868 487.455C47.9324 487.455 43.7207 487.455 39.5091 487.455C39.5091 490.372 39.5091 492.92 39.5091 495.751C43.8801 495.751 47.9551 495.751 52.3109 495.751ZM37.1415 484.703C36.5421 481.017 36.9443 477.63 35.7908 474.211C33.4991 473.835 31.306 473.835 29.0219 474.164C28.0658 477.387 27.8381 480.539 28.4224 483.824C31.1846 484.656 33.8633 484.946 37.1415 484.703Z" fill="#06122E"/>
<path d="M117.495 465.554C113.754 464.213 110.445 464.973 107.304 464.762C90.7835 463.664 74.2179 462.699 57.7054 464.487C45.7384 465.781 33.7866 466.361 21.7741 465.969C20.2336 465.922 18.7008 465.773 16.2725 465.616C18.3821 467.984 20.3095 467.632 22.0473 467.671C34.4392 467.953 46.7932 467.255 59.1548 466.385C77.3368 465.099 95.5111 465.695 113.655 467.334C115.021 467.451 115.021 467.475 117.495 465.554Z" fill="#06122E"/>
<path d="M120.476 503.113C86.9726 505.042 53.7807 505.363 20.308 503.756C21.1048 501.419 22.8653 501.937 24.3754 501.984C35.4849 502.368 46.5868 502.964 57.6963 503.136C72.9718 503.372 88.2398 502.635 103.508 502.109C108.053 501.952 112.599 501.992 117.144 502.023C118.169 502.039 119.375 501.592 120.476 503.113Z" fill="#06122E"/>
<path d="M32.6608 363.867C24.059 363.867 15.418 363.867 6.0791 363.867C6.25945 329.894 6.80834 296.603 6.27515 263.237C15.614 264.314 24.31 265.263 32.7157 264.413C35.5778 297.521 31.9159 330.918 32.6608 363.867ZM31.6807 293.067C27.9404 292.612 24.1767 292.642 20.2325 292.885C20.2325 297.241 20.2325 301.187 20.2325 305.512C24.2237 305.262 27.9483 305.459 31.6807 304.085C31.6807 300.595 31.6807 297.218 31.6807 293.067ZM31.1083 332.193C31.1083 328.657 31.1083 325.31 31.1083 321.637C27.4229 321.812 23.8395 321.971 19.9973 322.153C20.1619 325.872 19.6444 329.347 20.4207 332.899C23.9571 333.559 27.2661 332.906 31.1083 332.193ZM8.36875 335.228C8.36875 339.265 8.36875 342.984 8.36875 346.778C11.7405 347.916 14.9083 347.544 18.4918 347.302C18.2252 343.158 17.9664 339.227 17.6998 335.099C14.5163 335.16 11.6072 334.439 8.36875 335.228ZM20.9225 349.533C20.0365 353.972 20.6638 357.88 21.0637 361.887C24.5687 362.008 27.6268 362.433 30.7711 361.598C30.1438 357.478 30.9828 353.441 29.9321 349.54C26.8897 349.533 24.0669 349.533 20.9225 349.533ZM8.59614 307.493C8.59614 311.59 8.59614 315.415 8.59614 319.3C11.6856 319.862 14.4614 320.12 17.3391 319.9C17.3391 315.506 17.3391 311.446 17.3391 307.341C14.3281 306.977 11.6307 306.757 8.59614 307.493ZM9.03526 290.426C11.9914 290.548 14.7358 291.314 17.3313 290.502C17.3313 286.048 17.3313 281.836 17.3313 277.624C14.4143 277.624 11.8659 277.624 9.03526 277.624C9.03526 281.995 9.03526 286.07 9.03526 290.426ZM20.0835 275.257C23.7689 274.657 27.1563 275.06 30.5751 273.906C30.9515 271.614 30.9515 269.421 30.6221 267.137C27.3994 266.181 24.2472 265.953 20.9618 266.538C20.1306 269.3 19.8405 271.979 20.0835 275.257Z" fill="#06122E"/>
<path d="M39.2316 263.578C40.5724 267.319 39.8118 270.628 40.0235 273.77C41.1213 290.29 42.0858 306.855 40.2979 323.368C39.0041 335.335 38.4239 347.287 38.816 359.299C38.863 360.84 39.012 362.372 39.1688 364.801C36.8008 362.691 37.1536 360.764 37.1144 359.026C36.8321 346.634 37.53 334.28 38.4004 321.918C39.6863 303.736 39.0904 285.562 37.4516 267.418C37.334 266.052 37.3105 266.052 39.2316 263.578Z" fill="#06122E"/>
<path d="M1.6722 361.941C-0.256741 328.438 -0.578226 295.246 1.02923 261.774C3.36591 262.571 2.84839 264.331 2.80134 265.841C2.41712 276.951 1.82119 288.053 1.64868 299.162C1.41344 314.438 2.15051 329.706 2.67587 344.974C2.8327 349.519 2.79349 354.065 2.76213 358.61C2.74644 359.635 3.19339 360.841 1.6722 361.941Z" fill="#06122E"/>
<path d="M32.6608 195.047C24.059 195.047 15.418 195.047 6.0791 195.047C6.25945 161.073 6.80834 127.783 6.27515 94.4164C15.614 95.494 24.31 96.4425 32.7157 95.5926C35.5778 128.701 31.9159 162.098 32.6608 195.047ZM31.6807 124.247C27.9404 123.791 24.1767 123.822 20.2325 124.064C20.2325 128.42 20.2325 132.366 20.2325 136.692C24.2237 136.441 27.9483 136.639 31.6807 135.265C31.6807 131.774 31.6807 128.397 31.6807 124.247ZM31.1083 163.373C31.1083 159.836 31.1083 156.49 31.1083 152.817C27.4229 152.992 23.8395 153.151 19.9973 153.333C20.1619 157.051 19.6444 160.527 20.4207 164.078C23.9571 164.739 27.2661 164.086 31.1083 163.373ZM8.36875 166.408C8.36875 170.445 8.36875 174.163 8.36875 177.958C11.7405 179.096 14.9083 178.724 18.4918 178.481C18.2252 174.338 17.9664 170.407 17.6998 166.279C14.5163 166.34 11.6072 165.619 8.36875 166.408ZM20.9225 180.712C20.0365 185.152 20.6638 189.06 21.0637 193.066C24.5687 193.188 27.6268 193.613 30.7711 192.778C30.1438 188.657 30.9828 184.62 29.9321 180.72C26.8897 180.712 24.0669 180.712 20.9225 180.712ZM8.59614 138.672C8.59614 142.77 8.59614 146.595 8.59614 150.48C11.6856 151.041 14.4614 151.299 17.3391 151.079C17.3391 146.686 17.3391 142.626 17.3391 138.52C14.3281 138.156 11.6307 137.936 8.59614 138.672ZM9.03526 121.606C11.9914 121.727 14.7358 122.494 17.3313 121.682C17.3313 117.227 17.3313 113.016 17.3313 108.804C14.4143 108.804 11.8659 108.804 9.03526 108.804C9.03526 113.175 9.03526 117.25 9.03526 121.606ZM20.0835 106.436C23.7689 105.837 27.1563 106.239 30.5751 105.086C30.9515 102.794 30.9515 100.601 30.6221 98.3168C27.3994 97.3607 24.2472 97.1331 20.9618 97.7174C20.1306 100.48 19.8405 103.158 20.0835 106.436Z" fill="#06122E"/>
<path d="M39.2316 94.7581C40.5724 98.4992 39.8118 101.808 40.0235 104.949C41.1213 121.469 42.0858 138.035 40.298 154.548C39.0041 166.515 38.4239 178.466 38.816 190.479C38.863 192.019 39.012 193.552 39.1688 195.98C36.8008 193.871 37.1536 191.943 37.1144 190.206C36.8321 177.814 37.53 165.46 38.4004 153.098C39.6863 134.916 39.0904 116.742 37.4516 98.5979C37.334 97.2319 37.3105 97.2319 39.2316 94.7581Z" fill="#06122E"/>
<path d="M1.6722 193.121C-0.256741 159.618 -0.578226 126.426 1.02923 92.9535C3.36591 93.7503 2.84839 95.5108 2.80134 97.0209C2.41712 108.13 1.82119 119.232 1.64868 130.342C1.41344 145.617 2.15051 160.885 2.67587 176.153C2.8327 180.699 2.79349 185.244 2.76213 189.79C2.74644 190.814 3.19339 192.021 1.6722 193.121Z" fill="#06122E"/>
<path d="M32.6608 279.598C24.059 279.598 15.418 279.598 6.0791 279.598C6.25945 245.624 6.80834 212.334 6.27515 178.967C15.614 180.045 24.31 180.993 32.7157 180.143C35.5778 213.252 31.9159 246.649 32.6608 279.598ZM31.6807 208.797C27.9404 208.342 24.1767 208.372 20.2325 208.615C20.2325 212.971 20.2325 216.917 20.2325 221.242C24.2237 220.992 27.9483 221.189 31.6807 219.816C31.6807 216.325 31.6807 212.948 31.6807 208.797ZM31.1083 247.923C31.1083 244.387 31.1083 241.041 31.1083 237.368C27.4229 237.542 23.8395 237.702 19.9973 237.884C20.1619 241.602 19.6444 245.078 20.4207 248.629C23.9571 249.289 27.2661 248.637 31.1083 247.923ZM8.36875 250.959C8.36875 254.996 8.36875 258.714 8.36875 262.508C11.7405 263.647 14.9083 263.275 18.4918 263.032C18.2252 258.889 17.9664 254.958 17.6998 250.83C14.5163 250.891 11.6072 250.17 8.36875 250.959ZM20.9225 265.263C20.0365 269.702 20.6638 273.61 21.0637 277.617C24.5687 277.738 27.6268 278.163 30.7711 277.329C30.1438 273.208 30.9828 269.171 29.9321 265.271C26.8897 265.263 24.0669 265.263 20.9225 265.263ZM8.59614 223.223C8.59614 227.321 8.59614 231.145 8.59614 235.031C11.6856 235.592 14.4614 235.85 17.3391 235.63C17.3391 231.236 17.3391 227.177 17.3391 223.071C14.3281 222.707 11.6307 222.487 8.59614 223.223ZM9.03526 206.157C11.9914 206.278 14.7358 207.044 17.3313 206.232C17.3313 201.778 17.3313 197.566 17.3313 193.355C14.4143 193.355 11.8659 193.355 9.03526 193.355C9.03526 197.726 9.03526 201.801 9.03526 206.157ZM20.0835 190.987C23.7689 190.388 27.1563 190.79 30.5751 189.637C30.9515 187.345 30.9515 185.152 30.6221 182.868C27.3994 181.911 24.2472 181.684 20.9618 182.268C20.1306 185.03 19.8405 187.709 20.0835 190.987Z" fill="#06122E"/>
<path d="M39.2315 271.34C40.5724 267.598 39.8118 264.29 40.0235 261.148C41.1213 244.628 42.0857 228.063 40.2979 211.55C39.0041 199.583 38.4239 187.631 38.816 175.619C38.863 174.078 39.012 172.545 39.1688 170.117C36.8008 172.227 37.1536 174.154 37.1144 175.892C36.8321 188.284 37.53 200.638 38.4004 213C39.6863 231.181 39.0904 249.356 37.4516 267.5C37.334 268.866 37.3104 268.866 39.2315 271.34Z" fill="#06122E"/>
<path d="M1.6722 274.32C-0.256741 240.817 -0.578226 207.625 1.02923 174.153C3.36591 174.95 2.84839 176.71 2.80134 178.22C2.41712 189.33 1.82119 200.432 1.64868 211.541C1.41344 226.817 2.15051 242.085 2.67587 257.352C2.8327 261.898 2.79349 266.443 2.76213 270.989C2.74644 272.013 3.19339 273.22 1.6722 274.32Z" fill="#06122E"/>
<path d="M32.6608 418.699C24.059 418.699 15.418 418.699 6.0791 418.699C6.25945 384.726 6.80834 351.435 6.27515 318.069C15.614 319.146 24.31 320.095 32.7157 319.245C35.5778 352.353 31.9159 385.75 32.6608 418.699ZM31.6807 347.899C27.9404 347.444 24.1767 347.474 20.2325 347.717C20.2325 352.073 20.2325 356.019 20.2325 360.344C24.2237 360.094 27.9483 360.291 31.6807 358.917C31.6807 355.427 31.6807 352.05 31.6807 347.899ZM31.1083 387.025C31.1083 383.489 31.1083 380.142 31.1083 376.469C27.4229 376.644 23.8395 376.803 19.9973 376.985C20.1619 380.704 19.6444 384.179 20.4207 387.731C23.9571 388.391 27.2661 387.738 31.1083 387.025ZM8.36875 390.06C8.36875 394.097 8.36875 397.816 8.36875 401.61C11.7405 402.748 14.9083 402.376 18.4918 402.134C18.2252 397.99 17.9664 394.059 17.6998 389.931C14.5163 389.992 11.6072 389.271 8.36875 390.06ZM20.9225 404.365C20.0365 408.804 20.6638 412.712 21.0637 416.719C24.5687 416.84 27.6268 417.265 30.7711 416.43C30.1438 412.31 30.9828 408.273 29.9321 404.372C26.8897 404.365 24.0669 404.365 20.9225 404.365ZM8.59614 362.325C8.59614 366.422 8.59614 370.247 8.59614 374.132C11.6856 374.694 14.4614 374.952 17.3391 374.732C17.3391 370.338 17.3391 366.278 17.3391 362.173C14.3281 361.809 11.6307 361.589 8.59614 362.325ZM9.03526 345.258C11.9914 345.38 14.7358 346.146 17.3313 345.334C17.3313 340.88 17.3313 336.668 17.3313 332.456C14.4143 332.456 11.8659 332.456 9.03526 332.456C9.03526 336.827 9.03526 340.902 9.03526 345.258ZM20.0835 330.089C23.7689 329.489 27.1563 329.892 30.5751 328.738C30.9515 326.446 30.9515 324.253 30.6221 321.969C27.3994 321.013 24.2472 320.785 20.9618 321.37C20.1306 324.132 19.8405 326.811 20.0835 330.089Z" fill="#06122E"/>
<path d="M39.2315 410.441C40.5724 406.7 39.8118 403.391 40.0235 400.25C41.1213 383.73 42.0857 367.164 40.2979 350.652C39.0041 338.685 38.4239 326.733 38.816 314.72C38.863 313.18 39.012 311.647 39.1688 309.219C36.8008 311.328 37.1536 313.256 37.1144 314.994C36.8321 327.385 37.53 339.74 38.4004 352.101C39.6863 370.283 39.0904 388.457 37.4516 406.601C37.334 407.967 37.3104 407.967 39.2315 410.441Z" fill="#06122E"/>
<path d="M1.6722 413.422C-0.256741 379.919 -0.578226 346.727 1.02923 313.254C3.36591 314.051 2.84839 315.812 2.80134 317.322C2.41712 328.431 1.82119 339.533 1.64868 350.643C1.41344 365.918 2.15051 381.186 2.67587 396.454C2.8327 401 2.79349 405.545 2.76213 410.091C2.74644 411.115 3.19339 412.322 1.6722 413.422Z" fill="#06122E"/>
<path d="M32.6608 501.398C24.059 501.398 15.418 501.398 6.0791 501.398C6.25945 467.425 6.80834 434.134 6.27515 400.768C15.614 401.846 24.31 402.794 32.7157 401.944C35.5778 435.053 31.9159 468.449 32.6608 501.398ZM31.6807 430.598C27.9404 430.143 24.1767 430.173 20.2325 430.416C20.2325 434.772 20.2325 438.718 20.2325 443.043C24.2237 442.793 27.9483 442.99 31.6807 441.617C31.6807 438.126 31.6807 434.749 31.6807 430.598ZM31.1083 469.724C31.1083 466.188 31.1083 462.841 31.1083 459.169C27.4229 459.343 23.8395 459.503 19.9973 459.685C20.1619 463.403 19.6444 466.879 20.4207 470.43C23.9571 471.09 27.2661 470.438 31.1083 469.724ZM8.36875 472.76C8.36875 476.797 8.36875 480.515 8.36875 484.309C11.7405 485.447 14.9083 485.076 18.4918 484.833C18.2252 480.69 17.9664 476.759 17.6998 472.631C14.5163 472.691 11.6072 471.97 8.36875 472.76ZM20.9225 487.064C20.0365 491.503 20.6638 495.411 21.0637 499.418C24.5687 499.539 27.6268 499.964 30.7711 499.13C30.1438 495.009 30.9828 490.972 29.9321 487.071C26.8897 487.064 24.0669 487.064 20.9225 487.064ZM8.59614 445.024C8.59614 449.122 8.59614 452.946 8.59614 456.831C11.6856 457.393 14.4614 457.651 17.3391 457.431C17.3391 453.037 17.3391 448.977 17.3391 444.872C14.3281 444.508 11.6307 444.288 8.59614 445.024ZM9.03526 427.957C11.9914 428.079 14.7358 428.845 17.3313 428.033C17.3313 423.579 17.3313 419.367 17.3313 415.156C14.4143 415.156 11.8659 415.156 9.03526 415.156C9.03526 419.527 9.03526 423.602 9.03526 427.957ZM20.0835 412.788C23.7689 412.189 27.1563 412.591 30.5751 411.437C30.9515 409.146 30.9515 406.953 30.6221 404.668C27.3994 403.712 24.2472 403.485 20.9618 404.069C20.1306 406.831 19.8405 409.51 20.0835 412.788Z" fill="#06122E"/>
<path d="M39.2315 493.14C40.5724 489.399 39.8118 486.091 40.0235 482.949C41.1213 466.429 42.0857 449.863 40.2979 433.351C39.0041 421.384 38.4239 409.432 38.816 397.42C38.863 395.879 39.012 394.346 39.1688 391.918C36.8008 394.028 37.1536 395.955 37.1144 397.693C36.8321 410.085 37.53 422.439 38.4004 434.8C39.6863 452.982 39.0904 471.157 37.4516 489.301C37.334 490.666 37.3104 490.667 39.2315 493.14Z" fill="#06122E"/>
<path d="M1.6722 496.121C-0.256741 462.618 -0.578226 429.426 1.02923 395.954C3.36591 396.75 2.84839 398.511 2.80134 400.021C2.41712 411.13 1.82119 422.232 1.64868 433.342C1.41344 448.617 2.15051 463.885 2.67587 479.153C2.8327 483.699 2.79349 488.244 2.76213 492.79C2.74644 493.814 3.19339 495.021 1.6722 496.121Z" fill="#06122E"/>
<path d="M32.6608 110.777C24.059 110.777 15.418 110.777 6.0791 110.777C6.25945 76.8038 6.80834 43.5133 6.27515 10.1469C15.614 11.2244 24.31 12.173 32.7157 11.3231C35.5778 44.4315 31.9159 77.8283 32.6608 110.777ZM31.6807 39.9771C27.9404 39.5218 24.1767 39.5521 20.2325 39.795C20.2325 44.1507 20.2325 48.0967 20.2325 52.4221C24.2237 52.1717 27.9483 52.369 31.6807 50.9955C31.6807 47.5048 31.6807 44.128 31.6807 39.9771ZM31.1083 79.1031C31.1083 75.5669 31.1083 72.2204 31.1083 68.5476C27.4229 68.7221 23.8395 68.8815 19.9973 69.0636C20.1619 72.7819 19.6444 76.2575 20.4207 79.8089C23.9571 80.4691 27.2661 79.8165 31.1083 79.1031ZM8.36875 82.1385C8.36875 86.1756 8.36875 89.8939 8.36875 93.6881C11.7405 94.8264 14.9083 94.4546 18.4918 94.2117C18.2252 90.0684 17.9664 86.1376 17.6998 82.0095C14.5163 82.0702 11.6072 81.3493 8.36875 82.1385ZM20.9225 96.4427C20.0365 100.882 20.6638 104.79 21.0637 108.797C24.5687 108.918 27.6268 109.343 30.7711 108.508C30.1438 104.388 30.9828 100.351 29.9321 96.4503C26.8897 96.4428 24.0669 96.4427 20.9225 96.4427ZM8.59614 54.4027C8.59614 58.5005 8.59614 62.3251 8.59614 66.2104C11.6856 66.7719 14.4614 67.0299 17.3391 66.8098C17.3391 62.4161 17.3391 58.3563 17.3391 54.251C14.3281 53.8867 11.6307 53.6667 8.59614 54.4027ZM9.03526 37.3363C11.9914 37.4577 14.7358 38.2241 17.3313 37.4122C17.3313 32.9578 17.3313 28.7461 17.3313 24.5345C14.4143 24.5345 11.8659 24.5345 9.03526 24.5345C9.03526 28.9055 9.03526 32.9805 9.03526 37.3363ZM20.0835 22.167C23.7689 21.5675 27.1563 21.9697 30.5751 20.8162C30.9515 18.5245 30.9515 16.3314 30.6221 14.0473C27.3994 13.0912 24.2472 12.8635 20.9618 13.4478C20.1306 16.21 19.8405 18.8887 20.0835 22.167Z" fill="#06122E"/>
<path d="M39.2315 102.519C40.5724 98.7782 39.8118 95.4696 40.0235 92.3279C41.1213 75.8079 42.0857 59.2423 40.2979 42.7298C39.0041 30.7628 38.4239 18.811 38.816 6.7985C38.863 5.25805 39.012 3.72518 39.1688 1.29688C36.8008 3.40647 37.1536 5.33392 37.1144 7.07168C36.8321 19.4636 37.53 31.8176 38.4004 44.1792C39.6863 62.3612 39.0904 80.5355 37.4516 98.6795C37.334 100.045 37.3104 100.045 39.2315 102.519Z" fill="#06122E"/>
<path d="M1.6722 105.5C-0.256741 71.997 -0.578226 38.8051 1.02923 5.33241C3.36591 6.1292 2.84839 7.88972 2.80134 9.39982C2.41712 20.5093 1.82119 31.6112 1.64868 42.7207C1.41344 57.9963 2.15051 73.2642 2.67587 88.5322C2.8327 93.0777 2.79349 97.6232 2.76213 102.169C2.74644 103.193 3.19339 104.4 1.6722 105.5Z" fill="#06122E"/>
</svg>
