<svg width="114" height="57" viewBox="0 0 114 57" fill="none" xmlns="http://www.w3.org/2000/svg">
<path d="M101.45 38.024L101.294 38.2782C100.128 37.737 99.1153 37.0055 98.1516 36.2159C97.7124 35.856 97.282 35.4829 96.8519 35.1101C96.8103 35.0741 96.7688 35.038 96.7272 35.002C96.5565 34.8542 96.3857 34.7065 96.2141 34.5598C96.3962 34.8096 96.58 35.0616 96.7668 35.3176C97.0229 35.6687 97.2844 36.0272 97.5544 36.3979L97.7963 36.7301L97.3973 36.6319C96.2082 36.3393 94.9948 35.34 94.1053 34.1577C93.217 32.977 92.6213 31.5728 92.7158 30.4422C92.7357 30.2022 92.6351 30.0597 92.4942 29.86C92.4838 29.8453 92.4732 29.8303 92.4625 29.8149C91.8034 28.8844 91.1411 27.9595 90.4464 27.0463C90.6303 27.5195 90.8513 27.9846 91.0784 28.4622C91.098 28.5035 91.1177 28.5448 91.1373 28.5863C91.5135 29.3788 91.8966 30.2068 92.1241 31.1417L92.1935 31.427L91.9217 31.3161C91.3105 31.0668 91.0257 30.6184 90.7885 30.2451C90.7286 30.1507 90.6717 30.0611 90.6133 29.9807C89.7451 28.7913 88.9072 27.5822 88.0831 26.3637L88.083 26.3635C87.5224 25.5319 87.2501 24.542 87.5436 23.5733L87.5437 23.5732C87.7941 22.7475 87.5044 22.1863 86.9953 21.428C87.0333 21.6925 87.08 21.9461 87.1256 22.1945C87.1558 22.3588 87.1856 22.5208 87.2121 22.682C87.3067 23.2559 87.3587 23.8131 87.2158 24.3794L87.1966 24.4558L87.1228 24.4833C87.0188 24.522 86.9219 24.5372 86.8311 24.5273C86.739 24.5172 86.6626 24.4824 86.5995 24.4354C86.4986 24.3604 86.4268 24.2471 86.3762 24.1673C86.3687 24.1555 86.3616 24.1444 86.355 24.1343C84.7975 21.7967 83.7373 19.2461 83.3872 16.4429M101.45 38.024L83.5361 16.4243M101.45 38.024C99.2941 36.3402 97.4254 34.3757 95.7407 32.2255L95.6227 32.318L95.7407 32.2254C94.2068 30.2681 92.7395 28.2693 91.3849 25.9703M101.45 38.024L91.0228 25.6462C91.1778 25.7496 91.2918 25.8583 91.3849 25.9703M83.3872 16.4429L83.5361 16.4243M83.3872 16.4429C83.3872 16.4429 83.3873 16.4429 83.3873 16.4429L83.5361 16.4243M83.3872 16.4429C83.3627 16.2469 83.3583 16.0474 83.3541 15.8575C83.3536 15.8317 83.353 15.8061 83.3524 15.7807C83.3472 15.5644 83.3387 15.3607 83.3013 15.1664C83.2425 14.8612 83.112 14.5743 82.7888 14.3222M83.5361 16.4243C83.5126 16.2364 83.5083 16.0452 83.5041 15.8544C83.4901 15.2233 83.4762 14.598 82.766 14.1207C82.773 14.1882 82.7807 14.2553 82.7888 14.3222M82.7888 14.3222C82.7388 14.2832 82.6842 14.245 82.6245 14.2077C82.6177 14.1463 82.6113 14.0846 82.6058 14.0224L82.4791 16.2002C82.1224 16.7823 81.7556 17.0098 81.2688 16.324C81.0603 16.0297 80.8506 15.736 80.6409 15.4422C78.7817 12.838 76.9204 10.2309 75.8507 7.16447C75.5931 6.42284 75.0505 6.12847 74.3138 5.75275C74.3401 5.82376 74.3661 5.89331 74.3917 5.96157M82.7888 14.3222C82.7942 14.367 82.7997 14.4118 82.8053 14.4566C82.8106 14.4998 82.816 14.5431 82.8212 14.5865C82.8442 14.777 82.8648 14.9685 82.87 15.1573C82.8804 15.5369 82.8293 15.9154 82.6071 16.2785L82.607 16.2786C82.5148 16.429 82.418 16.5633 82.3142 16.6674C82.2109 16.7711 82.0921 16.8535 81.9554 16.8839C81.6631 16.949 81.3966 16.7632 81.1465 16.4108L81.1464 16.4107C80.938 16.1165 80.7282 15.8227 80.5182 15.5285C78.6605 12.9268 76.7863 10.3018 75.7091 7.21387L75.709 7.21369C75.4886 6.57915 75.0501 6.30276 74.3917 5.96157M74.3917 5.96157C74.4291 6.06135 74.4657 6.15836 74.5015 6.25309C74.6836 6.73492 74.8434 7.15787 74.9709 7.58671L74.971 7.58727C75.0136 7.73248 75.0607 7.92503 75.0584 8.10978C75.056 8.29484 75.0024 8.50304 74.8101 8.63086L74.8098 8.63104C74.7073 8.69886 74.6004 8.72535 74.4937 8.71546C74.3908 8.70592 74.2997 8.66359 74.2228 8.61405C74.1459 8.56452 74.0754 8.50257 74.0136 8.44462C73.9853 8.41816 73.9604 8.39408 73.937 8.3714C73.9047 8.34014 73.8751 8.31154 73.8434 8.28307L73.9435 8.17141L73.8438 8.28341C71.8831 6.53663 69.856 4.88656 67.555 3.43072L67.2925 3.26467L67.5858 3.16234C67.7144 3.11746 67.8367 3.09738 67.9523 3.09187M74.3917 5.96157C74.3277 5.92843 74.2617 5.89467 74.1935 5.85992C74.2522 6.01761 74.3088 6.16755 74.3633 6.31172C74.5443 6.79083 74.7012 7.20606 74.8271 7.62947C74.9105 7.91382 74.9938 8.32864 74.7271 8.50594L68.6292 3.31236M67.9523 3.09187C68.1114 3.08429 68.2579 3.10433 68.3904 3.12527C68.4084 3.12811 68.426 3.13093 68.4433 3.13369C68.5221 3.14632 68.5939 3.15782 68.6614 3.16483C65.1941 1.97765 61.6269 1.69287 57.9708 2.02627C57.903 2.07053 57.8287 2.12113 57.7447 2.1794L57.6592 2.05616L57.6442 1.90691C57.7363 1.89765 57.8283 1.88876 57.9203 1.88027C58.386 1.58152 58.6182 1.54746 59.6164 1.44731C66.2381 0.791624 72.1897 2.77206 77.8412 6.04044M67.9523 3.09187C64.6181 2.06365 61.1897 1.85178 57.6742 2.2054L57.0973 2.26343L57.5737 1.93292C57.9093 1.70005 58.1236 1.56474 58.4076 1.47783C58.6845 1.39308 59.0232 1.35607 59.6014 1.29806L59.6016 1.29804C66.2647 0.63826 72.248 2.63246 77.9163 5.91056M67.9523 3.09187C68.1783 3.16159 68.404 3.23506 68.6292 3.31236M77.9163 5.91056L77.8412 6.04044M77.9163 5.91056C77.9163 5.91057 77.9163 5.91058 77.9163 5.91059L77.8412 6.04044M77.9163 5.91056C82.8587 8.76679 86.4547 12.9525 89.6998 17.4946C92.6952 21.6835 95.85 25.7364 99.5383 29.3335C101.426 31.1705 103.459 32.7977 105.843 33.9321C107.894 34.9076 109.998 35.4378 112.263 35.0173L112.264 35.0172C112.304 35.0099 112.345 35.0002 112.39 34.989C112.407 34.9849 112.425 34.9805 112.444 34.9761C112.51 34.9606 112.585 34.9446 112.662 34.9391C112.825 34.9275 113.001 34.9629 113.156 35.1248L113.239 35.2123L113.171 35.3126C112.109 36.8795 110.379 37.9864 108.489 38.5059C106.598 39.0254 104.533 38.9613 102.796 38.1682L102.796 38.1682C100.657 37.1902 98.9106 35.7097 97.3679 33.9801C95.294 31.6577 93.4791 29.1422 91.7699 26.5531M77.8412 6.04044L91.895 26.4703M91.7699 26.5531C91.7698 26.553 91.7698 26.553 91.7698 26.553L91.895 26.4703M91.7699 26.5531C91.77 26.5533 91.7701 26.5534 91.7702 26.5536L91.895 26.4703M91.7699 26.5531C91.7239 26.4842 91.6822 26.4154 91.6407 26.347C91.5632 26.2191 91.4866 26.0927 91.3849 25.9703M91.895 26.4703C91.8531 26.4076 91.8138 26.3426 91.7738 26.2763C91.6276 26.0343 91.4709 25.7748 91.136 25.5421C91.2185 25.686 91.3015 25.8287 91.3849 25.9703M68.6292 3.31236C68.5621 3.30493 68.4944 3.29397 68.4255 3.28283C68.2404 3.25287 68.0471 3.22159 67.8361 3.25391M68.6292 3.31236L67.8361 3.25391M67.8361 3.25391C67.7959 3.22828 67.7557 3.20271 67.7154 3.1772L67.6352 3.30396L67.6846 3.44559C67.7254 3.43136 67.7654 3.42032 67.8048 3.41197L67.8361 3.25391Z" fill="#06122E" stroke="#06122E" stroke-width="0.3"/>
<path d="M13.4039 19.2729C14.1781 19.6274 14.6871 20.042 15.1814 20.4447C15.2101 20.4681 15.2387 20.4914 15.2673 20.5147M13.4039 19.2729L21.2489 26.6801C21.1456 26.4928 21.0422 26.3054 20.9455 26.1248C20.8282 26.0146 20.7085 25.906 20.5886 25.7972C20.2825 25.5195 19.975 25.2406 19.7019 24.9305C18.3182 23.3615 16.8944 21.8361 15.2673 20.5147M13.4039 19.2729C13.3157 19.1849 13.2274 19.0972 13.1389 19.0097L13.0334 19.1163L12.979 19.2561C13.0974 19.3022 13.2098 19.3496 13.3171 19.3981C14.4433 20.5221 15.5446 21.6815 16.5849 22.8312C16.1288 22.368 15.6524 21.923 15.1513 21.5006M15.2673 20.5147L15.3619 20.3983C15.3619 20.3983 15.3619 20.3982 15.3619 20.3982M15.2673 20.5147L15.3619 20.3982M15.3619 20.3982C16.999 21.7278 18.4294 23.2609 19.8144 24.8313L19.8144 24.8313C20.0816 25.1347 20.3795 25.405 20.6832 25.6804C20.8045 25.7905 20.9267 25.9013 21.0482 26.0154L21.0662 26.0323L21.0778 26.054C21.1729 26.2318 21.2747 26.4162 21.377 26.6017L40.3223 51.7413C40.294 51.6638 40.264 51.5886 40.2328 51.5152C40.3011 51.5552 40.3715 51.5963 40.4441 51.6386C40.3281 51.3331 40.1891 51.0613 40.0572 50.8034C39.8294 50.3581 39.623 49.9546 39.5938 49.4919M15.3619 20.3982C15.3328 20.3746 15.3037 20.3509 15.2746 20.3271C14.7047 19.8628 14.1005 19.3706 13.0878 18.9765L12.9279 19.223C13.6824 19.9692 14.4272 20.7329 15.1513 21.5006M15.1513 21.5006C14.9523 21.3328 14.7494 21.1686 14.5423 21.0083C12.134 19.1427 10.2015 18.251 8.32237 18.2274C6.4431 18.2038 4.65001 19.049 2.52333 20.5767C2.45734 20.6238 2.38982 20.6706 2.32131 20.7182C1.83664 21.0544 1.30267 21.4248 0.913959 22.168L0.767415 22.4482L1.07711 22.3844C6.11098 21.3486 9.81746 23.6437 13.3302 26.6041L13.3304 26.6043C13.9812 27.1511 14.5923 27.7546 15.2072 28.3619L15.2653 28.4193C19.2575 32.3656 22.5532 36.8868 25.8566 41.4184L26.0023 41.6183C29.325 46.1808 33.3701 49.8809 38.4321 52.4623C43.8128 55.2087 49.4351 56.6406 55.5143 55.8227C55.5655 55.816 55.6187 55.8102 55.6736 55.8043C56.0358 55.765 56.4725 55.7177 56.9143 55.3282L57.2389 55.0421L56.8068 55.0659C54.1431 55.2127 51.6421 55.1442 49.6276 54.9045C48.6202 54.7847 47.7369 54.6223 47.017 54.4238C46.7197 54.3418 46.4521 54.2541 46.2163 54.1616C46.3326 54.1811 46.4488 54.2005 46.5647 54.2196L46.6763 53.9496C44.4755 52.3752 42.4596 50.6532 40.4631 48.8975C40.4488 48.8849 40.4332 48.8706 40.4164 48.8552C40.3462 48.791 40.2559 48.7084 40.162 48.6525C40.0368 48.578 39.8708 48.5293 39.6935 48.6234L39.6934 48.6235C39.4947 48.7292 39.4316 48.9052 39.4193 49.07C39.4133 49.1493 39.4184 49.2295 39.4251 49.3013C39.4278 49.3305 39.4306 49.3572 39.4333 49.3826C39.4376 49.4242 39.4416 49.4621 39.4441 49.5013C39.4441 49.5013 39.4441 49.5014 39.4441 49.5014L39.5938 49.4919M39.5938 49.4919C39.5912 49.4501 39.5866 49.4065 39.582 49.3623C39.5577 49.1305 39.5315 48.8795 39.7639 48.7559L39.5938 49.4919Z" fill="#06122E" stroke="#06122E" stroke-width="0.3"/>
<mask id="path-3-outside-1_707_78" maskUnits="userSpaceOnUse" x="34.3105" y="4.08398" width="17" height="31" fill="black">
<rect fill="white" x="34.3105" y="4.08398" width="17" height="31"/>
<path d="M39.617 34.5378C38.7134 34.7988 38.0299 34.4609 37.5097 33.7349C35.5526 31.0185 35.0124 27.971 35.4559 24.7093C35.5959 23.6856 36.3194 23.0533 37.1763 22.5315C36.3294 22.4712 35.9927 23.1604 35.3192 23.709C35.4459 22.7723 35.826 22.2404 36.4495 21.839C36.6495 21.7085 37.0129 21.5914 36.7229 21.2301C36.5528 21.0194 36.4295 21.1097 36.1761 21.2134C35.3225 21.568 35.5259 20.7584 35.5892 20.4507C35.796 19.4538 36.1227 18.4836 36.4528 17.3194C37.0863 20.8856 37.0863 20.8856 37.9332 21.3472C38.0799 21.1766 37.9365 21.0796 37.8432 20.9625C37.7732 20.8755 37.7165 20.7785 37.5731 20.5677C38.2266 20.5243 38.8834 20.5979 39.2235 19.9656C39.5003 19.4504 39.2869 18.9954 39.0702 18.5371C38.9668 18.4502 38.8634 18.3598 38.7601 18.2695C38.1499 17.4332 37.6064 17.5034 37.143 18.5672C36.6395 17.3964 36.9029 16.4965 37.5764 15.7338C37.9165 15.349 38.0166 15.0011 38.0132 14.5027C38.0132 13.2984 38.7167 12.3282 39.3436 11.3982C40.5406 9.6185 41.7676 7.83879 43.4747 6.48728C43.7281 6.28656 43.9815 5.88846 44.3616 6.16278C44.655 6.37688 44.3516 6.77832 44.4316 7.01918C44.8951 8.41753 43.518 8.41753 43.0146 9.11001C44.0282 8.83569 44.9484 8.45098 45.2818 7.28681C45.6353 6.06242 47.3791 4.92501 48.5994 5.10231C49.0928 5.17256 49.2329 5.37328 48.8861 5.77472C48.7094 5.97879 48.4994 6.15275 48.2993 6.33339C46.7289 7.73508 45.2818 9.27393 44.1382 11.0302C43.458 12.074 43.0746 13.3318 42.6578 14.5261C42.4811 15.0312 42.311 15.523 42.091 16.0181C41.6175 17.0752 41.5475 18.1156 42.5344 19.0624C43.2479 19.7481 43.8848 20.6079 42.9779 21.7988C42.8879 19.6344 41.1541 18.6208 40.2138 17.092C40.0771 17.8145 39.7037 18.5672 40.6706 18.952C40.4605 19.7481 40.1138 20.4908 39.537 21.4342C40.9007 20.7986 40.6406 19.8217 40.6706 18.9586C40.6372 18.8181 40.7406 18.6843 40.8273 18.7713C41.3574 19.3032 41.5242 19.9823 41.3908 20.6949C41.2574 21.4074 40.7473 21.8055 40.0404 21.9661C39.7804 22.0263 39.2869 21.9126 39.3869 22.3642C39.4603 22.6887 39.6703 23.1604 40.1304 23.1436C40.5906 23.1269 40.3638 22.7522 40.4372 22.5013C40.6172 21.8858 41.5075 21.7052 41.7175 20.9859C42.011 21.1264 41.9643 21.3539 41.9143 21.5044C41.6375 22.324 41.8776 22.5783 42.7011 22.304C43.6747 21.9795 43.9481 22.7857 44.3016 23.3745C44.845 24.2777 45.2451 24.3513 45.9887 23.5852C46.2021 23.3644 46.3921 23.1135 46.5522 22.8493C47.0123 22.0966 47.0756 21.4576 46.0187 21.1733C45.6486 21.0729 45.1918 21.0093 45.5719 20.4239C45.852 19.9957 46.4355 19.4638 45.7753 19.0423C45.0484 18.5773 44.845 19.4236 44.5083 19.8418C44.4183 19.9522 44.3516 20.0827 44.1649 20.3838C44.0115 19.3333 44.2716 18.604 44.9051 18.0855C45.5419 17.5636 46.0254 18.2327 46.5588 18.507C46.8022 18.1524 46.4555 17.7108 46.7622 17.4031C48.6627 18.1591 50.0698 17.6172 49.5263 15.814C50.4632 16.3225 50.5399 16.637 50.0564 17.9484L50.0798 17.9216C49.523 18.3331 48.9661 18.7479 48.3626 19.1962C48.9195 19.8686 49.5496 20.163 50.4132 19.524C50.0964 20.9558 49.5596 21.2803 48.4927 20.8019C48.1659 20.6547 47.7958 20.4875 47.5224 20.7818C47.2557 21.0695 47.6758 21.2301 47.7992 21.4375C48.0859 21.9159 48.1226 22.4244 47.8458 22.8727C47.119 24.0435 46.2454 25.0873 44.785 25.3114C44.2582 25.3917 44.0348 25.5289 44.0748 26.0909C44.1248 26.7365 44.0848 27.3922 44.0848 28.0512C44.635 28.0747 44.815 27.6398 45.1551 27.4926C45.842 27.1948 46.5822 27.0175 47.2824 26.8068C48.2526 26.5157 49.3796 27.6531 49.6563 28.9076C49.6963 29.095 49.6863 29.2924 49.7163 29.483C49.793 30.0116 50.0364 30.6807 49.5796 31.0052C49.1762 31.2895 48.6561 30.7977 48.2159 30.5937C47.029 30.0484 47.0423 30.0317 47.0123 31.3631C47.0023 31.8248 47.069 32.3801 46.6455 32.6477C46.1254 32.9756 45.8253 32.3667 45.4685 32.1392C44.7417 31.6809 44.0582 31.0921 43.8981 30.2123C43.7247 29.2556 43.3446 29.3158 42.7178 29.7741C42.5744 29.8778 42.3744 29.9012 42.1076 29.9179C43.498 28.9645 43.2013 27.7368 42.7511 26.5057C42.4944 25.8032 42.3577 25.0906 42.3677 24.3446C42.3777 23.7859 42.111 23.7023 41.6275 23.8395C40.5506 24.1439 40.3338 24.5487 40.7373 25.5188C40.8673 25.8333 40.9073 26.1779 40.4105 26.1511C40.0571 26.131 39.717 26.1043 39.3936 26.2682C39.1202 26.4053 38.8468 26.5458 38.49 26.7231C38.42 26.2515 38.7467 25.9972 38.8968 25.6794C39.0535 25.3449 39.4569 24.9401 39.0702 24.649C38.7101 24.3781 38.38 24.8364 38.0966 25.0706C37.3397 25.6961 36.9329 26.5258 36.8729 27.4926C36.7529 29.4329 37.303 31.2494 38.0232 33.0157C38.1866 33.4171 38.47 33.7617 38.9401 33.8219C39.3736 33.8788 39.6737 33.658 39.8604 33.2666C40.0338 32.902 39.8204 32.7949 39.527 32.6945C39.1268 32.554 39.0368 32.2295 39.1235 31.8482C39.1669 31.6508 39.2836 31.4936 39.5103 31.4735C39.9137 31.4401 40.1771 31.691 40.3572 31.9887C41.0374 33.1228 40.3405 33.8788 39.5936 34.6081C39.5803 34.6014 39.617 34.5378 39.617 34.5378Z"/>
</mask>
<path d="M39.617 34.5378C38.7134 34.7988 38.0299 34.4609 37.5097 33.7349C35.5526 31.0185 35.0124 27.971 35.4559 24.7093C35.5959 23.6856 36.3194 23.0533 37.1763 22.5315C36.3294 22.4712 35.9927 23.1604 35.3192 23.709C35.4459 22.7723 35.826 22.2404 36.4495 21.839C36.6495 21.7085 37.0129 21.5914 36.7229 21.2301C36.5528 21.0194 36.4295 21.1097 36.1761 21.2134C35.3225 21.568 35.5259 20.7584 35.5892 20.4507C35.796 19.4538 36.1227 18.4836 36.4528 17.3194C37.0863 20.8856 37.0863 20.8856 37.9332 21.3472C38.0799 21.1766 37.9365 21.0796 37.8432 20.9625C37.7732 20.8755 37.7165 20.7785 37.5731 20.5677C38.2266 20.5243 38.8834 20.5979 39.2235 19.9656C39.5003 19.4504 39.2869 18.9954 39.0702 18.5371C38.9668 18.4502 38.8634 18.3598 38.7601 18.2695C38.1499 17.4332 37.6064 17.5034 37.143 18.5672C36.6395 17.3964 36.9029 16.4965 37.5764 15.7338C37.9165 15.349 38.0166 15.0011 38.0132 14.5027C38.0132 13.2984 38.7167 12.3282 39.3436 11.3982C40.5406 9.6185 41.7676 7.83879 43.4747 6.48728C43.7281 6.28656 43.9815 5.88846 44.3616 6.16278C44.655 6.37688 44.3516 6.77832 44.4316 7.01918C44.8951 8.41753 43.518 8.41753 43.0146 9.11001C44.0282 8.83569 44.9484 8.45098 45.2818 7.28681C45.6353 6.06242 47.3791 4.92501 48.5994 5.10231C49.0928 5.17256 49.2329 5.37328 48.8861 5.77472C48.7094 5.97879 48.4994 6.15275 48.2993 6.33339C46.7289 7.73508 45.2818 9.27393 44.1382 11.0302C43.458 12.074 43.0746 13.3318 42.6578 14.5261C42.4811 15.0312 42.311 15.523 42.091 16.0181C41.6175 17.0752 41.5475 18.1156 42.5344 19.0624C43.2479 19.7481 43.8848 20.6079 42.9779 21.7988C42.8879 19.6344 41.1541 18.6208 40.2138 17.092C40.0771 17.8145 39.7037 18.5672 40.6706 18.952C40.4605 19.7481 40.1138 20.4908 39.537 21.4342C40.9007 20.7986 40.6406 19.8217 40.6706 18.9586C40.6372 18.8181 40.7406 18.6843 40.8273 18.7713C41.3574 19.3032 41.5242 19.9823 41.3908 20.6949C41.2574 21.4074 40.7473 21.8055 40.0404 21.9661C39.7804 22.0263 39.2869 21.9126 39.3869 22.3642C39.4603 22.6887 39.6703 23.1604 40.1304 23.1436C40.5906 23.1269 40.3638 22.7522 40.4372 22.5013C40.6172 21.8858 41.5075 21.7052 41.7175 20.9859C42.011 21.1264 41.9643 21.3539 41.9143 21.5044C41.6375 22.324 41.8776 22.5783 42.7011 22.304C43.6747 21.9795 43.9481 22.7857 44.3016 23.3745C44.845 24.2777 45.2451 24.3513 45.9887 23.5852C46.2021 23.3644 46.3921 23.1135 46.5522 22.8493C47.0123 22.0966 47.0756 21.4576 46.0187 21.1733C45.6486 21.0729 45.1918 21.0093 45.5719 20.4239C45.852 19.9957 46.4355 19.4638 45.7753 19.0423C45.0484 18.5773 44.845 19.4236 44.5083 19.8418C44.4183 19.9522 44.3516 20.0827 44.1649 20.3838C44.0115 19.3333 44.2716 18.604 44.9051 18.0855C45.5419 17.5636 46.0254 18.2327 46.5588 18.507C46.8022 18.1524 46.4555 17.7108 46.7622 17.4031C48.6627 18.1591 50.0698 17.6172 49.5263 15.814C50.4632 16.3225 50.5399 16.637 50.0564 17.9484L50.0798 17.9216C49.523 18.3331 48.9661 18.7479 48.3626 19.1962C48.9195 19.8686 49.5496 20.163 50.4132 19.524C50.0964 20.9558 49.5596 21.2803 48.4927 20.8019C48.1659 20.6547 47.7958 20.4875 47.5224 20.7818C47.2557 21.0695 47.6758 21.2301 47.7992 21.4375C48.0859 21.9159 48.1226 22.4244 47.8458 22.8727C47.119 24.0435 46.2454 25.0873 44.785 25.3114C44.2582 25.3917 44.0348 25.5289 44.0748 26.0909C44.1248 26.7365 44.0848 27.3922 44.0848 28.0512C44.635 28.0747 44.815 27.6398 45.1551 27.4926C45.842 27.1948 46.5822 27.0175 47.2824 26.8068C48.2526 26.5157 49.3796 27.6531 49.6563 28.9076C49.6963 29.095 49.6863 29.2924 49.7163 29.483C49.793 30.0116 50.0364 30.6807 49.5796 31.0052C49.1762 31.2895 48.6561 30.7977 48.2159 30.5937C47.029 30.0484 47.0423 30.0317 47.0123 31.3631C47.0023 31.8248 47.069 32.3801 46.6455 32.6477C46.1254 32.9756 45.8253 32.3667 45.4685 32.1392C44.7417 31.6809 44.0582 31.0921 43.8981 30.2123C43.7247 29.2556 43.3446 29.3158 42.7178 29.7741C42.5744 29.8778 42.3744 29.9012 42.1076 29.9179C43.498 28.9645 43.2013 27.7368 42.7511 26.5057C42.4944 25.8032 42.3577 25.0906 42.3677 24.3446C42.3777 23.7859 42.111 23.7023 41.6275 23.8395C40.5506 24.1439 40.3338 24.5487 40.7373 25.5188C40.8673 25.8333 40.9073 26.1779 40.4105 26.1511C40.0571 26.131 39.717 26.1043 39.3936 26.2682C39.1202 26.4053 38.8468 26.5458 38.49 26.7231C38.42 26.2515 38.7467 25.9972 38.8968 25.6794C39.0535 25.3449 39.4569 24.9401 39.0702 24.649C38.7101 24.3781 38.38 24.8364 38.0966 25.0706C37.3397 25.6961 36.9329 26.5258 36.8729 27.4926C36.7529 29.4329 37.303 31.2494 38.0232 33.0157C38.1866 33.4171 38.47 33.7617 38.9401 33.8219C39.3736 33.8788 39.6737 33.658 39.8604 33.2666C40.0338 32.902 39.8204 32.7949 39.527 32.6945C39.1268 32.554 39.0368 32.2295 39.1235 31.8482C39.1669 31.6508 39.2836 31.4936 39.5103 31.4735C39.9137 31.4401 40.1771 31.691 40.3572 31.9887C41.0374 33.1228 40.3405 33.8788 39.5936 34.6081C39.5803 34.6014 39.617 34.5378 39.617 34.5378Z" fill="#06122E"/>
<path d="M39.617 34.5378C38.7134 34.7988 38.0299 34.4609 37.5097 33.7349C35.5526 31.0185 35.0124 27.971 35.4559 24.7093C35.5959 23.6856 36.3194 23.0533 37.1763 22.5315C36.3294 22.4712 35.9927 23.1604 35.3192 23.709C35.4459 22.7723 35.826 22.2404 36.4495 21.839C36.6495 21.7085 37.0129 21.5914 36.7229 21.2301C36.5528 21.0194 36.4295 21.1097 36.1761 21.2134C35.3225 21.568 35.5259 20.7584 35.5892 20.4507C35.796 19.4538 36.1227 18.4836 36.4528 17.3194C37.0863 20.8856 37.0863 20.8856 37.9332 21.3472C38.0799 21.1766 37.9365 21.0796 37.8432 20.9625C37.7732 20.8755 37.7165 20.7785 37.5731 20.5677C38.2266 20.5243 38.8834 20.5979 39.2235 19.9656C39.5003 19.4504 39.2869 18.9954 39.0702 18.5371C38.9668 18.4502 38.8634 18.3598 38.7601 18.2695C38.1499 17.4332 37.6064 17.5034 37.143 18.5672C36.6395 17.3964 36.9029 16.4965 37.5764 15.7338C37.9165 15.349 38.0166 15.0011 38.0132 14.5027C38.0132 13.2984 38.7167 12.3282 39.3436 11.3982C40.5406 9.6185 41.7676 7.83879 43.4747 6.48728C43.7281 6.28656 43.9815 5.88846 44.3616 6.16278C44.655 6.37688 44.3516 6.77832 44.4316 7.01918C44.8951 8.41753 43.518 8.41753 43.0146 9.11001C44.0282 8.83569 44.9484 8.45098 45.2818 7.28681C45.6353 6.06242 47.3791 4.92501 48.5994 5.10231C49.0928 5.17256 49.2329 5.37328 48.8861 5.77472C48.7094 5.97879 48.4994 6.15275 48.2993 6.33339C46.7289 7.73508 45.2818 9.27393 44.1382 11.0302C43.458 12.074 43.0746 13.3318 42.6578 14.5261C42.4811 15.0312 42.311 15.523 42.091 16.0181C41.6175 17.0752 41.5475 18.1156 42.5344 19.0624C43.2479 19.7481 43.8848 20.6079 42.9779 21.7988C42.8879 19.6344 41.1541 18.6208 40.2138 17.092C40.0771 17.8145 39.7037 18.5672 40.6706 18.952C40.4605 19.7481 40.1138 20.4908 39.537 21.4342C40.9007 20.7986 40.6406 19.8217 40.6706 18.9586C40.6372 18.8181 40.7406 18.6843 40.8273 18.7713C41.3574 19.3032 41.5242 19.9823 41.3908 20.6949C41.2574 21.4074 40.7473 21.8055 40.0404 21.9661C39.7804 22.0263 39.2869 21.9126 39.3869 22.3642C39.4603 22.6887 39.6703 23.1604 40.1304 23.1436C40.5906 23.1269 40.3638 22.7522 40.4372 22.5013C40.6172 21.8858 41.5075 21.7052 41.7175 20.9859C42.011 21.1264 41.9643 21.3539 41.9143 21.5044C41.6375 22.324 41.8776 22.5783 42.7011 22.304C43.6747 21.9795 43.9481 22.7857 44.3016 23.3745C44.845 24.2777 45.2451 24.3513 45.9887 23.5852C46.2021 23.3644 46.3921 23.1135 46.5522 22.8493C47.0123 22.0966 47.0756 21.4576 46.0187 21.1733C45.6486 21.0729 45.1918 21.0093 45.5719 20.4239C45.852 19.9957 46.4355 19.4638 45.7753 19.0423C45.0484 18.5773 44.845 19.4236 44.5083 19.8418C44.4183 19.9522 44.3516 20.0827 44.1649 20.3838C44.0115 19.3333 44.2716 18.604 44.9051 18.0855C45.5419 17.5636 46.0254 18.2327 46.5588 18.507C46.8022 18.1524 46.4555 17.7108 46.7622 17.4031C48.6627 18.1591 50.0698 17.6172 49.5263 15.814C50.4632 16.3225 50.5399 16.637 50.0564 17.9484L50.0798 17.9216C49.523 18.3331 48.9661 18.7479 48.3626 19.1962C48.9195 19.8686 49.5496 20.163 50.4132 19.524C50.0964 20.9558 49.5596 21.2803 48.4927 20.8019C48.1659 20.6547 47.7958 20.4875 47.5224 20.7818C47.2557 21.0695 47.6758 21.2301 47.7992 21.4375C48.0859 21.9159 48.1226 22.4244 47.8458 22.8727C47.119 24.0435 46.2454 25.0873 44.785 25.3114C44.2582 25.3917 44.0348 25.5289 44.0748 26.0909C44.1248 26.7365 44.0848 27.3922 44.0848 28.0512C44.635 28.0747 44.815 27.6398 45.1551 27.4926C45.842 27.1948 46.5822 27.0175 47.2824 26.8068C48.2526 26.5157 49.3796 27.6531 49.6563 28.9076C49.6963 29.095 49.6863 29.2924 49.7163 29.483C49.793 30.0116 50.0364 30.6807 49.5796 31.0052C49.1762 31.2895 48.6561 30.7977 48.2159 30.5937C47.029 30.0484 47.0423 30.0317 47.0123 31.3631C47.0023 31.8248 47.069 32.3801 46.6455 32.6477C46.1254 32.9756 45.8253 32.3667 45.4685 32.1392C44.7417 31.6809 44.0582 31.0921 43.8981 30.2123C43.7247 29.2556 43.3446 29.3158 42.7178 29.7741C42.5744 29.8778 42.3744 29.9012 42.1076 29.9179C43.498 28.9645 43.2013 27.7368 42.7511 26.5057C42.4944 25.8032 42.3577 25.0906 42.3677 24.3446C42.3777 23.7859 42.111 23.7023 41.6275 23.8395C40.5506 24.1439 40.3338 24.5487 40.7373 25.5188C40.8673 25.8333 40.9073 26.1779 40.4105 26.1511C40.0571 26.131 39.717 26.1043 39.3936 26.2682C39.1202 26.4053 38.8468 26.5458 38.49 26.7231C38.42 26.2515 38.7467 25.9972 38.8968 25.6794C39.0535 25.3449 39.4569 24.9401 39.0702 24.649C38.7101 24.3781 38.38 24.8364 38.0966 25.0706C37.3397 25.6961 36.9329 26.5258 36.8729 27.4926C36.7529 29.4329 37.303 31.2494 38.0232 33.0157C38.1866 33.4171 38.47 33.7617 38.9401 33.8219C39.3736 33.8788 39.6737 33.658 39.8604 33.2666C40.0338 32.902 39.8204 32.7949 39.527 32.6945C39.1268 32.554 39.0368 32.2295 39.1235 31.8482C39.1669 31.6508 39.2836 31.4936 39.5103 31.4735C39.9137 31.4401 40.1771 31.691 40.3572 31.9887C41.0374 33.1228 40.3405 33.8788 39.5936 34.6081C39.5803 34.6014 39.617 34.5378 39.617 34.5378Z" stroke="#06122E" stroke-width="0.6" mask="url(#path-3-outside-1_707_78)"/>
<path d="M74.2878 45.4063L74.7449 45.3511L74.343 45.1264C73.2409 44.5103 72.5277 43.5927 72.0613 42.4572L72.0613 42.4572L72.0604 42.4549C72.0251 42.3728 71.9687 42.2461 71.8769 42.1598C71.8278 42.1137 71.7633 42.0738 71.6821 42.0611C71.6006 42.0484 71.5184 42.0657 71.4385 42.1058C71.3425 42.1539 71.2723 42.2526 71.2297 42.3371C71.1859 42.424 71.1515 42.5351 71.1595 42.6363L71.1595 42.6363L71.1597 42.6383C71.2038 43.1188 71.1043 43.5802 70.9812 44.0592C70.9654 44.1207 70.9492 44.1827 70.9328 44.245C70.8238 44.6607 70.7102 45.0939 70.6891 45.5413L70.689 45.543C70.6889 45.5474 70.6873 45.5566 70.6769 45.579C70.6384 45.4833 70.601 45.3908 70.5616 45.2934C70.5213 45.1938 70.479 45.089 70.4313 44.9705L70.3106 44.6707L70.1595 44.9564C69.6329 45.9523 69.5428 46.9217 69.6038 47.8717C69.5993 47.8384 69.5947 47.8048 69.5902 47.7709C69.5452 47.4375 69.4968 47.0788 69.4075 46.7137L69.3189 46.3511L69.132 46.6743C68.9845 46.9293 68.8469 47.1749 68.7143 47.4118C68.2769 48.1928 67.8921 48.8798 67.3758 49.504L67.3755 49.5044C67.1285 49.805 66.9952 50.2083 67.1481 50.5711C67.2641 50.8464 67.5279 51.0589 67.947 51.1778C67.218 51.5233 66.499 51.8716 65.786 52.2169C62.4048 53.8546 59.1584 55.427 55.621 56.3322L55.6532 56.6275C59.0294 56.7392 63.358 55.2726 66.8963 53.2567C68.6675 52.2476 70.2485 51.0965 71.419 49.928C72.585 48.764 73.3628 47.5637 73.4886 46.4552L73.5103 46.2645L73.32 46.2895C72.6143 46.3825 72.208 46.2408 72.008 45.9287C71.8143 45.6265 71.7751 45.1138 71.942 44.3364C72.0197 44.3993 72.0969 44.464 72.1751 44.5295C72.2128 44.561 72.2507 44.5928 72.2891 44.6247C72.4667 44.7724 72.651 44.9204 72.8484 45.0473C73.2471 45.3037 73.7036 45.4768 74.2878 45.4063Z" fill="#06122E" stroke="#06122E" stroke-width="0.3"/>
<path d="M68.9919 31.3498C68.9021 31.1229 68.8127 30.8818 68.7084 30.6007C68.7058 30.5939 68.7033 30.587 68.7007 30.5802C68.8717 31.6628 69.1078 32.562 69.4014 33.4542C69.4199 33.5106 69.4473 33.5703 69.4752 33.631C69.5681 33.8332 69.6665 34.0477 69.4614 34.1969C69.1825 34.3985 68.9333 34.1643 68.7307 33.974C68.7081 33.9527 68.686 33.932 68.6646 33.9125C67.5957 32.9379 67.1062 31.6235 66.6191 30.3158C66.6063 30.2814 66.5935 30.247 66.5807 30.2126M68.9919 31.3498C69.1422 32.0873 69.3272 32.749 69.5439 33.4073L69.544 33.4075C69.5597 33.4554 69.5836 33.5075 69.6127 33.5709C69.6146 33.575 69.6165 33.5792 69.6184 33.5835C69.6482 33.6484 69.6828 33.7248 69.7054 33.8022C69.7281 33.8797 69.7431 33.9713 69.7223 34.0656C69.7005 34.1647 69.6428 34.2504 69.5497 34.3182L69.5493 34.3184C69.4482 34.3915 69.3419 34.4257 69.2341 34.4243C69.1289 34.4228 69.0343 34.3876 68.9535 34.3424C68.8286 34.2725 68.7114 34.1621 68.6212 34.0771C68.6005 34.0577 68.5813 34.0395 68.5637 34.0235L68.5635 34.0233C67.4674 33.0239 66.9665 31.6787 66.483 30.3801C66.4687 30.3417 66.4544 30.3033 66.4401 30.265M68.9919 31.3498C68.9392 31.0909 68.8907 30.8227 68.8466 30.542L69.8651 32.0405C69.8267 32.0964 69.7694 32.1202 69.7184 32.1248C69.6724 32.129 69.63 32.1185 69.5982 32.1072C69.5336 32.0843 69.4672 32.0417 69.4086 31.9955C69.2923 31.9039 69.1636 31.7631 69.1035 31.6233L69.1032 31.6224C69.0654 31.5328 69.0286 31.4425 68.9919 31.3498ZM66.4401 30.265C66.4401 30.265 66.4402 30.2651 66.4402 30.2651L66.5807 30.2126M66.4401 30.265C66.3976 30.1511 66.3644 30.035 66.3339 29.9233C66.3281 29.9018 66.3223 29.8806 66.3166 29.8596C66.2922 29.7693 66.2687 29.6825 66.2414 29.597C66.1749 29.3878 66.0913 29.2043 65.9433 29.0529L66.0203 28.9716M66.4401 30.265L66.5807 30.2126M66.5807 30.2126L66.0203 28.9716M66.0203 28.9716L65.9272 28.9718C65.924 27.6547 65.4236 26.5893 64.4137 25.7411C64.2486 25.6029 64.1111 25.4671 64.0163 25.3334C63.9222 25.2006 63.8592 25.0543 63.8722 24.9006C63.8855 24.7419 63.9764 24.6102 64.1157 24.5029C64.2529 24.3973 64.4475 24.3066 64.6972 24.2256L66.0203 28.9716ZM69.1406 27.2026L69.1406 27.2029C69.1346 27.2647 69.135 27.3301 69.1354 27.4048C69.1355 27.4334 69.1357 27.4634 69.1355 27.4951C69.1348 27.6003 69.1301 27.7233 69.0951 27.8335C69.058 27.9503 68.9842 28.0605 68.8464 28.1222C68.7167 28.1803 68.5517 28.1856 68.3508 28.1489L68.3505 28.1488C68.2965 28.1388 68.2686 28.1419 68.2574 28.1445C68.2556 28.1523 68.2538 28.1679 68.2562 28.1943C68.2592 28.2277 68.268 28.268 68.2815 28.313L69.1406 27.2026ZM69.1406 27.2026L69.1417 27.191C69.1743 26.8478 69.2111 26.4606 69.1409 26.1102C69.0676 25.7445 68.8771 25.4134 68.4599 25.1984C68.2955 25.1137 68.1277 25.0565 67.9689 25.0057C67.9415 24.997 67.9144 24.9884 67.8877 24.98C67.7567 24.9386 67.6337 24.8997 67.5137 24.8496C67.2357 24.7334 66.9836 24.5604 66.7844 24.1698M69.1406 27.2026L66.7844 24.1698M66.7844 24.1698C66.6885 23.9809 66.5356 23.8758 66.3553 23.8345C66.1831 23.795 65.9912 23.8143 65.8048 23.8555C65.6165 23.8971 65.4191 23.9644 65.2311 24.0329C65.1736 24.0539 65.1172 24.0749 65.0621 24.0954C64.9338 24.1431 64.8121 24.1883 64.6973 24.2256L66.7844 24.1698ZM71.9772 32.7331C72.4267 32.7179 72.8956 32.5946 73.1786 32.3089L69.8651 32.0405C69.9593 31.9036 70.038 31.8098 70.103 31.7481C70.169 31.6854 70.2128 31.6638 70.2364 31.6574C70.2533 31.6529 70.2601 31.6554 70.2687 31.6606C70.2832 31.6695 70.3053 31.6908 70.3328 31.7353C70.379 31.81 70.4164 31.9081 70.4584 32.0185C70.4684 32.0447 70.4787 32.0715 70.4893 32.0989C70.5153 32.1655 70.5443 32.2355 70.5777 32.2956C70.6093 32.3525 70.6553 32.4202 70.7242 32.4619L70.7247 32.4622C71.0471 32.6555 71.5243 32.7483 71.9772 32.7331Z" fill="#06122E" stroke="#06122E" stroke-width="0.3"/>
<path d="M38.9599 49.5568C37.5151 46.3485 35.4482 43.5396 33.3687 40.761C33.2375 40.5847 33.1078 40.4579 32.9774 40.3855C32.8422 40.3106 32.7012 40.2922 32.568 40.345C32.4419 40.395 32.347 40.4994 32.2758 40.6184C32.2036 40.739 32.147 40.8887 32.1032 41.053L32.1032 41.053C31.8318 42.0726 32.0145 43.0682 32.4925 43.9686L32.4925 43.9687C32.8327 44.6094 33.2133 45.2314 33.5906 45.8481C33.7555 46.1176 33.9198 46.3861 34.0798 46.6547L34.0886 46.6694L34.1005 46.6818C35.5022 48.1418 36.9993 49.5031 38.6453 50.6938L38.7128 50.7426L38.7899 50.7111C38.9619 50.641 39.0861 50.5508 39.157 50.4336C39.2303 50.3123 39.2327 50.1853 39.207 50.0733C39.1823 49.9655 39.1299 49.8633 39.0826 49.7787C39.0657 49.7484 39.0498 49.721 39.0351 49.6956C39.0048 49.6434 38.9795 49.5997 38.9599 49.5568ZM38.9599 49.5568C38.9599 49.557 38.96 49.5571 38.96 49.5572L38.8233 49.6188L38.9597 49.5564C38.9597 49.5566 38.9598 49.5567 38.9599 49.5568Z" fill="#06122E" stroke="#06122E" stroke-width="0.3"/>
<path d="M60.62 20.6253L60.8829 20.3616L60.9062 20.3381L61.1935 20.05L61.1725 20.3203C61.6582 20.3466 61.9962 20.5226 62.1763 20.8298C62.3721 21.1638 62.3509 21.6051 62.2127 22.0508L62.2126 22.0509C62.1184 22.3534 62.1185 22.56 62.1792 22.7321C62.2415 22.9088 62.3751 23.0721 62.597 23.2735L62.5971 23.2736C63.1413 23.7684 63.4548 24.1685 63.5899 24.8119C63.7211 25.4366 63.6822 26.2846 63.5693 27.6654L63.5502 27.8981L63.3465 27.7841C62.6861 27.4145 62.2075 26.8633 62.1271 26.1444C62.0925 25.8386 61.9865 25.6521 61.8382 25.4965C61.7614 25.4158 61.6715 25.3417 61.5678 25.2622C61.5321 25.2348 61.4939 25.2061 61.4541 25.1763C61.3822 25.1224 61.3052 25.0646 61.229 25.0039L61.229 25.0039C59.1275 23.3271 57.0836 21.5056 56.0743 18.8481L60.62 20.6253ZM60.62 20.6253L60.8397 20.6206M60.62 20.6253L61.0358 22.0264C61.0501 22.015 61.0646 22.0037 61.0791 21.9923C61.3086 21.8125 61.5476 21.6253 61.1525 21.3138C60.9194 21.1283 60.9554 20.8737 60.9907 20.6246C60.991 20.6222 60.9914 20.6198 60.9917 20.6174L60.8397 20.6206M57.2314 17.3931C56.4979 17.2861 55.9244 18.0321 56.2145 18.7948L56.0743 18.8481C55.7491 17.9928 56.3914 17.1189 57.2531 17.2447L57.2534 17.2447C57.3546 17.2597 57.4706 17.2778 57.5776 17.308C57.6829 17.3377 57.7966 17.3836 57.8825 17.4647C57.9756 17.5526 58.0261 17.6728 58.0134 17.8209C58.0015 17.9593 57.9354 18.1138 57.8201 18.2886L57.8198 18.289C57.5722 18.6617 57.5377 19.0113 57.6211 19.4002C57.6693 19.6249 57.7557 19.8591 57.8649 20.1161C57.8584 19.6774 57.8536 19.3375 57.8857 19.0047L57.2314 17.3931ZM57.2314 17.3931C57.6382 17.4533 58.1317 17.5436 57.6949 18.206L57.2314 17.3931ZM60.8397 20.6206C60.8382 20.6316 60.8366 20.6428 60.8351 20.6542C60.8243 20.7327 60.814 20.8197 60.815 20.9069C60.817 21.0885 60.8687 21.2797 61.0591 21.4312L61.0596 21.4316C61.1548 21.5066 61.1927 21.5612 61.2064 21.5947C61.217 21.6209 61.2153 21.6386 61.2053 21.6604C61.1922 21.689 61.1637 21.7247 61.1136 21.77C61.0761 21.8041 61.0351 21.8362 60.9898 21.8717C60.9745 21.8837 60.9588 21.896 60.9425 21.9089L60.9424 21.909C60.8086 22.0155 60.705 22.0482 60.6366 22.0398C60.5822 22.033 60.5046 21.9934 60.4344 21.8222L60.4343 21.822C60.3235 21.5534 60.1488 21.3449 59.9717 21.1599C59.9142 21.0998 59.8576 21.0432 59.8024 20.9881C59.6822 20.8679 59.5687 20.7545 59.4662 20.6252L59.4663 20.6252L59.4656 20.6244C59.3124 20.4339 59.2162 20.2557 59.194 20.087C59.1729 19.9274 59.2155 19.7566 59.3839 19.5671C59.4108 19.5371 59.4375 19.5107 59.4671 19.4814C59.4843 19.4644 59.5025 19.4464 59.5223 19.4262C59.5709 19.3765 59.6259 19.3162 59.6651 19.246C59.7062 19.1724 59.7324 19.0838 59.7171 18.982C59.7023 18.8831 59.6508 18.7897 59.5715 18.6992L59.5715 18.6992L59.5709 18.6986C59.3243 18.4207 58.9998 18.2839 58.6367 18.2802L58.6364 18.2802C58.4018 18.2781 58.217 18.3623 58.0886 18.505C57.9637 18.6437 57.9028 18.8253 57.8857 19.0046C57.8857 19.0046 57.8857 19.0046 57.8857 19.0046L60.8397 20.6206Z" fill="#06122E" stroke="#06122E" stroke-width="0.3"/>
<path d="M76.7766 30.44L76.8394 30.3038C76.8362 30.3023 76.8339 30.3011 76.8324 30.3002C76.8323 30.2982 76.8324 30.2954 76.8327 30.2916C76.8335 30.2822 76.8359 30.2692 76.841 30.2521C76.858 30.1959 76.8885 30.1396 76.9228 30.0762C76.937 30.05 76.9519 30.0225 76.9667 29.9934C77.3587 29.2378 77.4234 28.5482 77.2432 27.9091C77.0644 27.2753 76.6492 26.7073 76.1113 26.1812L76.0775 26.2099L76.0885 26.1839C75.5862 25.9699 75.0435 25.9493 74.5332 25.9299C74.4613 25.9271 74.3899 25.9244 74.3195 25.9212C73.7381 25.8946 73.2003 25.8346 72.7239 25.4982L72.7124 25.4895L72.3917 25.2483L72.4755 25.6407C72.6186 26.3108 72.5621 26.8829 72.207 27.5383C71.5343 28.7734 72.1335 30.2792 73.2837 30.9477M76.7766 30.44L76.8387 30.3035C77.1043 30.4243 77.2843 30.5871 77.4056 30.7787C77.5253 30.9679 77.5823 31.1765 77.6164 31.3804C77.6372 31.505 77.6509 31.6397 77.6639 31.768C77.6713 31.842 77.6786 31.9138 77.6869 31.9805C77.7109 32.173 77.7453 32.346 77.8161 32.4975L77.8163 32.4978C77.8195 32.5047 77.8228 32.5119 77.8263 32.5194C77.8459 32.5612 77.8696 32.612 77.8889 32.6632C77.9117 32.7236 77.9332 32.7966 77.9348 32.8732C77.9364 32.9534 77.9159 33.0395 77.8538 33.1152C77.7938 33.1884 77.7064 33.2377 77.6003 33.2699L77.6002 33.2699C77.419 33.3246 77.2525 33.3213 77.108 33.2316C76.9719 33.147 76.8824 33.0015 76.8121 32.8375L76.8121 32.8374C76.5996 32.3405 76.3551 32.0976 76.1293 32.0466C75.9172 31.9987 75.6409 32.1064 75.3187 32.5282C74.6759 33.3711 73.8841 33.6094 73.0813 33.6916C72.804 33.72 72.5194 33.7302 72.2408 33.7402C72.1226 33.7444 72.0054 33.7486 71.8904 33.7542C71.4988 33.773 71.122 33.8074 70.7651 33.9065L70.7638 33.9068C70.6543 33.9361 70.5301 33.9251 70.429 33.8611C70.3218 33.7934 70.2558 33.6755 70.2583 33.5287M76.7766 30.44C76.5992 30.3583 76.711 30.1518 76.7978 29.9916C76.8105 29.9682 76.8227 29.9458 76.8333 29.9248L76.95 32.7784C77.0834 33.0895 77.2467 33.22 77.5568 33.1263C77.8964 33.0235 77.7805 32.7755 77.691 32.5841C77.6873 32.5763 77.6837 32.5686 77.6802 32.561C77.5688 32.3225 77.5413 32.0487 77.5137 31.7742C77.4611 31.2519 77.4083 30.7273 76.7766 30.44ZM70.2583 33.5287C70.2631 33.2082 70.5151 33.0153 70.7908 33.0198L70.791 33.0198C71.1408 33.0261 71.4781 32.9432 71.8321 32.8477C71.8607 32.84 71.8894 32.8322 71.9183 32.8243C72.2404 32.7368 72.5793 32.6447 72.9303 32.6253C73.2982 32.6035 73.5749 32.4894 73.7727 32.3131C73.9708 32.1366 74.1015 31.8872 74.1584 31.574L74.1586 31.573C74.1834 31.4413 74.1621 31.367 74.1322 31.32C74.0999 31.2692 74.0425 31.2261 73.9513 31.1864C73.8713 31.1514 73.7808 31.1253 73.6797 31.0962C73.6642 31.0917 73.6484 31.0872 73.6324 31.0825C73.519 31.0495 73.3908 31.01 73.2837 30.9477M70.2583 33.5287C70.2583 33.5288 70.2583 33.5288 70.2583 33.5289L70.4083 33.5311L70.2583 33.5285C70.2583 33.5286 70.2583 33.5287 70.2583 33.5287ZM73.2837 30.9477L73.359 30.818M73.2837 30.9477L73.359 30.818M73.359 30.818C72.2654 30.1824 71.7119 28.7607 72.3388 27.6099C72.6751 26.9891 72.7572 26.4336 72.6605 25.816L70.7884 33.1698C71.1915 33.177 71.5742 33.0732 71.9554 32.9697C72.2804 32.8815 72.6044 32.7935 72.9389 32.7751C73.7291 32.7282 74.1826 32.2799 74.306 31.6008C74.392 31.1453 74.0515 31.0472 73.7203 30.9518C73.5895 30.9141 73.4601 30.8768 73.359 30.818ZM74.3759 27.1408C73.9866 26.9022 73.7003 26.8995 73.4785 27.0058C73.2203 27.1295 73.0015 27.4213 72.8116 27.8303C72.4136 28.6878 72.7487 29.7874 73.5388 30.2828C73.7667 30.4257 74.0136 30.5642 74.237 30.6048C74.3455 30.6246 74.4393 30.6193 74.5192 30.5873C74.5973 30.556 74.6761 30.4936 74.747 30.3737L74.7472 30.3734C74.8138 30.2612 74.826 30.177 74.8164 30.1123C74.8066 30.0459 74.7709 29.9791 74.7043 29.9088C74.5698 29.7669 74.3502 29.6497 74.1192 29.5264C74.1101 29.5216 74.101 29.5167 74.0919 29.5119L74.3759 27.1408ZM74.3759 27.1408L74.3761 27.1488C74.3782 27.2285 74.398 27.3027 74.4123 27.356C74.4131 27.3591 74.4139 27.3622 74.4147 27.3652C74.4314 27.4277 74.4372 27.4573 74.4356 27.4789L74.4356 27.4793C74.435 27.4876 74.4342 27.4977 74.4105 27.5167C74.3789 27.5421 74.3129 27.5766 74.1807 27.6121L74.3759 27.1408ZM74.7225 27.1768L74.7193 27.0829C74.7144 26.9408 74.7279 26.83 74.7654 26.7578C74.7825 26.7249 74.8038 26.7017 74.8308 26.6855L74.7225 27.1768ZM74.7225 27.1768C74.8194 27.3332 74.9152 27.4896 75.0108 27.6455C75.3269 28.1615 75.6404 28.6731 75.9829 29.1669C75.9829 29.1669 75.9829 29.1669 75.983 29.1669L75.8597 29.2524L74.7225 27.1768Z" fill="#06122E" stroke="#06122E" stroke-width="0.3"/>
<path d="M51.0606 16.5414C51.1073 16.2704 51.3507 16.1834 51.6008 16.2604C52.9178 16.6652 53.4179 15.9158 53.6847 14.8052C53.738 14.5743 53.8647 14.3803 54.1648 14.4171C54.1922 14.5428 54.1363 14.6655 54.0806 14.7878C53.9939 14.9781 53.9075 15.1677 54.1348 15.3672L51.0606 16.5414ZM51.0606 16.5414C50.9842 16.9708 51.2834 17.1752 51.5881 17.361L51.0606 16.5414ZM55.6333 12.0383L55.3999 12.2248C55.4191 12.2539 55.4372 12.2803 55.454 12.3047C55.5106 12.3872 55.5528 12.4487 55.5737 12.5232C55.5824 12.5542 55.5875 12.5896 55.5829 12.6319C54.9879 11.8131 54.0986 11.6628 53.2049 11.6411L53.1821 11.6405L53.1602 11.6467C52.3864 11.8668 51.7852 12.3713 51.2201 12.8455C51.139 12.9135 51.0586 12.9809 50.9786 13.0468C50.8692 13.1368 50.7872 13.214 50.7301 13.2811C50.677 13.3436 50.6286 13.4163 50.6193 13.4962C50.614 13.541 50.6212 13.5879 50.6454 13.6309C50.6687 13.6722 50.7019 13.6995 50.7323 13.7173C50.7886 13.7503 50.856 13.7626 50.9084 13.769C50.9646 13.7758 51.0263 13.7779 51.0819 13.7793C51.0896 13.7795 51.0971 13.7797 51.1046 13.7799C50.782 14.0592 50.579 14.3524 50.4662 14.6581C50.3278 15.0331 50.3306 15.4117 50.393 15.7803C50.4477 16.1031 50.5502 16.4278 50.6487 16.7397C50.6617 16.7809 50.6747 16.822 50.6875 16.8628C50.7815 17.1632 50.8658 17.4511 50.9047 17.7305L50.0401 17.7901L49.9004 17.7997V17.9397C49.9004 17.949 49.9013 17.9661 49.9076 17.986C49.8689 18.2253 49.8856 18.4523 50.0081 18.6196C50.1561 18.8216 50.4136 18.881 50.7271 18.8377C51.1323 18.7835 51.4324 18.6203 51.6143 18.3506C51.7934 18.0849 51.8404 17.7414 51.7965 17.3605L51.7564 17.3651L51.7938 17.3253L51.7705 17.2919L51.7352 17.3052L51.7487 17.283C51.7385 17.2768 51.7283 17.2706 51.7183 17.2645C51.5584 17.1675 51.4192 17.083 51.3216 16.9757C51.2278 16.8725 51.1757 16.7512 51.2083 16.5677L51.2085 16.5668C51.2241 16.4763 51.2676 16.4299 51.3182 16.4062C51.3744 16.3798 51.4579 16.3733 51.5567 16.4037L51.5567 16.4037C52.2468 16.6159 52.7598 16.5344 53.1339 16.2152C53.4951 15.907 53.6957 15.4014 53.8305 14.8402L53.8305 14.8402L53.8308 14.8389C53.8545 14.7364 53.8904 14.6628 53.936 14.619C53.9539 14.6019 53.9761 14.5865 54.0056 14.5761C54.0028 14.5848 53.9997 14.5939 53.9963 14.6034C53.9841 14.6368 53.9688 14.6713 53.951 14.7103C53.9488 14.7152 53.9465 14.7202 53.9442 14.7253C53.9289 14.759 53.9119 14.7963 53.8969 14.8336C53.8626 14.9188 53.8292 15.0257 53.8428 15.1429C53.8571 15.2662 53.9204 15.3786 54.0358 15.4799L54.0783 15.5172H54.1348C54.3534 15.5172 54.553 15.4324 54.7025 15.3184C54.8483 15.2072 54.9669 15.0522 54.9959 14.8921L54.996 14.8914C55.0299 14.6996 55.1463 14.5167 55.3078 14.3195C55.3704 14.2431 55.4367 14.1681 55.5051 14.0907C55.5244 14.0688 55.5439 14.0469 55.5634 14.0246C55.6511 13.9248 55.7403 13.8208 55.8192 13.7127C55.9764 13.4977 56.1054 13.2503 56.0987 12.9604C56.092 12.6684 55.9486 12.3661 55.6333 12.0383ZM50.1842 17.9305L50.2 17.9294C50.1985 17.9082 50.1913 17.8712 50.1603 17.8378C50.1192 17.7936 50.0678 17.7884 50.0401 17.7904C50.04 17.7904 50.04 17.7904 50.0399 17.7904C50.0145 17.7922 49.996 17.8001 49.9889 17.8033C49.9802 17.8073 49.9736 17.8113 49.9701 17.8136C49.9672 17.8155 49.9647 17.8172 49.9627 17.8187L50.0449 17.8602L50.1842 17.9305Z" fill="#06122E" stroke="#06122E" stroke-width="0.3"/>
<path d="M77.8239 35.2846C77.2204 35.9637 76.7569 36.5592 77.6872 37.3353C77.8872 37.5025 77.8739 37.8538 77.5838 38.0378C77.3504 38.185 77.0537 38.0813 76.9737 37.8873C76.545 36.8466 75.7431 36.8653 74.9459 36.8839C74.6643 36.8905 74.3833 36.8971 74.1196 36.8569M77.8239 35.2846L77.9357 35.3846C77.9358 35.3845 77.9358 35.3844 77.9359 35.3844M77.8239 35.2846L77.936 35.3842C77.936 35.3843 77.9359 35.3843 77.9359 35.3844M77.8239 35.2846C78.144 34.9266 78.2407 34.4616 77.4571 34.5352C75.532 34.7157 73.607 34.6355 71.6876 34.5555C71.5791 34.5509 71.4706 34.5464 71.3622 34.5419L70.652 35.3649C70.7753 36.1778 71.3021 36.5826 72.049 36.6896M77.9359 35.3844C77.785 35.5541 77.6483 35.7127 77.5402 35.8681C77.432 36.0235 77.3582 36.1677 77.3267 36.3067C77.296 36.4421 77.3041 36.5774 77.3683 36.7221C77.434 36.8699 77.5617 37.0352 77.7833 37.2201L77.7834 37.2202C78.0728 37.4622 78.027 37.9343 77.6642 38.1645L77.6638 38.1647C77.3611 38.3556 76.9546 38.2345 76.835 37.9445L76.835 37.9444C76.6989 37.6141 76.5275 37.4082 76.3392 37.2768C76.1499 37.1447 75.932 37.0799 75.6899 37.0506C75.4549 37.0221 75.2065 37.0279 74.9454 37.034C74.9348 37.0342 74.9242 37.0345 74.9136 37.0347C74.6457 37.0409 74.3645 37.0459 74.097 37.0052M77.9359 35.3844C78.0233 35.2866 78.0989 35.1778 78.1485 35.0678C78.1971 34.9601 78.2275 34.8358 78.2008 34.7155C78.1717 34.585 78.0815 34.4866 77.9462 34.4319C77.8183 34.3802 77.6499 34.3665 77.4431 34.3859C75.5285 34.5654 73.6128 34.4856 71.691 34.4055C71.5867 34.4011 71.4824 34.3968 71.3781 34.3925C71.0194 34.3315 70.746 34.3896 70.5953 34.6121C70.5249 34.7161 70.4935 34.8407 70.4831 34.9687C70.4727 35.0972 70.4826 35.239 70.5034 35.3859L70.5034 35.3859L70.5037 35.3874C70.5698 35.8231 70.7465 36.1609 71.0164 36.4035C71.2846 36.6447 71.6334 36.7816 72.0274 36.8381M74.097 37.0052C74.097 37.0052 74.097 37.0052 74.0971 37.0052L74.1196 36.8569M74.097 37.0052L74.1196 36.8569M74.097 37.0052C73.7642 36.9547 73.4251 36.9382 73.0772 36.9218L73.0615 36.9211C72.7213 36.9051 72.3724 36.8887 72.0274 36.8381M74.1196 36.8569C73.7737 36.8044 73.4227 36.7879 73.0718 36.7714C72.7292 36.7553 72.3867 36.7392 72.049 36.6896M72.049 36.6896L72.0277 36.8381C72.0276 36.8381 72.0275 36.8381 72.0274 36.8381M72.049 36.6896L72.0272 36.838C72.0273 36.8381 72.0274 36.8381 72.0274 36.8381" fill="#06122E" stroke="#06122E" stroke-width="0.3"/>
<path d="M44.085 39.4698L44.0657 39.4729C43.4174 39.5773 42.7991 39.5692 42.2407 39.3798C41.6793 39.1894 41.1895 38.8193 40.7957 38.2195L40.7954 38.2192C40.6968 38.0681 40.6217 37.9254 40.5815 37.7939C40.5414 37.6626 40.5315 37.5269 40.5858 37.4036C40.6411 37.2777 40.75 37.1943 40.8852 37.142C41.0186 37.0905 41.1889 37.0642 41.3926 37.0573L44.085 39.4698ZM44.085 39.4698L44.1028 39.4618M44.085 39.4698L44.1028 39.4618M44.1028 39.4618C44.208 39.415 44.3134 39.368 44.4188 39.3208C44.6085 39.2361 44.7986 39.1511 44.9891 39.0673L45.0328 39.0482L45.0573 39.0073C45.1056 38.927 45.157 38.8436 45.209 38.7592C45.2782 38.6469 45.3486 38.5326 45.4145 38.4211M44.1028 39.4618L44.5853 37.0506M44.5853 37.0506L44.5855 37.0506C44.8291 37.0617 45.0379 37.0867 45.2048 37.135C45.3705 37.1829 45.5145 37.2594 45.6024 37.3881C45.6932 37.5211 45.7046 37.6803 45.6671 37.8489C45.6301 38.015 45.5427 38.2051 45.4145 38.4211M44.5853 37.0506C43.516 37.0036 42.4546 37.0204 41.3927 37.0573L44.5853 37.0506ZM45.4145 38.4211L45.2855 38.3446M45.4145 38.4211C45.4146 38.4211 45.4146 38.421 45.4147 38.4209L45.2855 38.3446M45.2855 38.3446C45.2194 38.4565 45.1511 38.5673 45.083 38.6777C45.0311 38.762 44.9793 38.846 44.9288 38.93L44.5787 37.2005C45.5356 37.244 45.7857 37.5016 45.2855 38.3446Z" fill="#06122E" stroke="#06122E" stroke-width="0.3"/>
<path d="M39.6734 37.1484L39.6438 37.2954C39.8775 37.3425 40.139 37.3058 40.3919 37.2207C40.6465 37.135 40.9029 36.9968 41.1317 36.8279C41.3603 36.6591 41.5658 36.4563 41.7153 36.2383C41.864 36.0214 41.964 35.7796 41.964 35.5359C41.964 34.929 42.0308 34.4328 42.2515 34.1011C42.4601 33.7875 42.829 33.5905 43.5242 33.6382L43.6739 33.6485L43.6841 33.4988C43.6977 33.3004 43.6539 33.1482 43.5577 33.0365C43.4657 32.9297 43.3428 32.881 43.2462 32.8505C42.2353 32.5311 41.1873 33.3505 41.0417 34.4831C41.0334 34.5476 41.0268 34.6133 41.0205 34.6765C41.0196 34.6852 41.0188 34.6938 41.0179 34.7023C41.0107 34.7745 41.0034 34.8434 40.9935 34.9099C40.9736 35.0442 40.9446 35.1567 40.8936 35.2468C40.8451 35.3327 40.7741 35.403 40.6578 35.4506C40.6138 35.4686 40.5624 35.4837 40.502 35.4948C40.6392 35.3687 40.7651 35.2415 40.8556 35.1129C40.9364 34.9981 40.9979 34.8707 41.0113 34.7303C41.0251 34.5864 40.987 34.4444 40.8956 34.3059L40.8956 34.3059C40.7974 34.157 40.6754 34.069 40.5268 34.0599C40.3919 34.0516 40.2691 34.1122 40.1745 34.1683C40.129 34.1954 40.0834 34.2256 40.0411 34.2537C40.0376 34.256 40.0341 34.2583 40.0306 34.2606C39.984 34.2915 39.941 34.3197 39.8987 34.344C39.8122 34.3936 39.7483 34.4149 39.6962 34.4127C39.6357 34.4084 39.5877 34.4314 39.5662 34.4422C39.5603 34.4451 39.5518 34.4497 39.5454 34.453L39.5151 34.4288C39.3238 34.6052 39.0953 34.6644 38.8273 34.6899C38.7319 34.699 38.6367 34.7035 38.537 34.7082C38.4941 34.7102 38.4503 34.7123 38.4053 34.7148C38.2597 34.7228 38.107 34.7352 37.9556 34.7669L37.8226 34.7947L37.8372 34.9298C37.8704 35.2361 38.0168 35.4556 38.2014 35.6274C38.35 35.7657 38.5305 35.8789 38.6947 35.982C38.7277 36.0026 38.76 36.0229 38.7912 36.0429C38.9871 36.168 39.1469 36.2842 39.2469 36.4311C39.3408 36.5689 39.3899 36.746 39.3333 37.0136L39.3332 37.0136L39.3321 37.0201C39.325 37.0625 39.3373 37.096 39.3452 37.1128C39.3535 37.1306 39.3636 37.1437 39.3702 37.1514C39.3833 37.1669 39.3977 37.1788 39.4076 37.1864C39.4286 37.2026 39.4538 37.2179 39.4776 37.2308C39.5228 37.2554 39.5879 37.2847 39.6453 37.2957L39.6734 37.1484ZM39.6734 37.1484C39.6034 37.135 39.4767 37.0647 39.4801 37.0447M39.6734 37.1484C40.4703 37.309 41.814 36.3488 41.814 35.5359C41.814 34.3188 42.0738 33.3892 43.5323 33.4884C43.533 33.4885 43.5338 33.4885 43.5345 33.4886L43.5448 33.3389C43.54 33.3386 43.5352 33.3383 43.5305 33.338C43.4991 33.1163 43.3512 33.0409 43.2011 32.9935C42.3008 32.7091 41.3272 33.4384 41.1905 34.5022C41.1824 34.5644 41.1761 34.6278 41.1698 34.6914C41.1227 35.163 41.075 35.64 40.3121 35.6643L39.4801 37.0447M39.4801 37.0447C39.6194 36.3855 39.2008 36.1226 38.7707 35.8525C38.4085 35.625 38.0382 35.3924 37.9863 34.9137L39.4801 37.0447Z" fill="#06122E" stroke="#06122E" stroke-width="0.3"/>
<path d="M70.3915 24.1947L70.2157 24.0844C69.842 23.8501 69.6864 23.5443 69.5979 23.2417C69.5639 23.1252 69.5389 23.0059 69.5157 22.8949C69.5097 22.8663 69.5038 22.8383 69.4979 22.811C69.4684 22.6739 69.438 22.5514 69.3908 22.4411C69.3907 22.441 69.3907 22.4409 69.3906 22.4407L69.3905 22.4404C69.0841 21.7353 68.7764 21.0273 68.4953 20.3088L70.3915 24.1947ZM70.3915 24.1947L70.441 23.9932M70.3915 24.1947L70.441 23.9932M70.441 23.9932C70.7016 22.9336 70.4596 22.0092 70.2057 21.1579C70.1982 21.1326 70.1908 21.1076 70.1834 21.0829C70.0444 20.6158 69.942 20.2715 69.8903 20.0016C69.8357 19.717 69.8441 19.5446 69.9038 19.4156C69.9632 19.2874 70.087 19.1727 70.3374 19.0381C70.588 18.9035 70.9389 18.7621 71.4249 18.5667M70.441 23.9932L71.7014 18.1299M71.7014 18.1299L71.6385 18.2497C71.6177 18.2893 71.6039 18.322 71.5896 18.3556C71.5827 18.3717 71.5757 18.3881 71.5679 18.4055C71.5574 18.4288 71.5434 18.4579 71.525 18.4843C71.5064 18.5108 71.4751 18.5466 71.4249 18.5667M71.7014 18.1299L71.5887 18.055M71.7014 18.1299L71.5887 18.055M71.4249 18.5667L71.369 18.4275M71.4249 18.5667C71.4249 18.5667 71.4249 18.5667 71.425 18.5667L71.369 18.4275M71.369 18.4275C71.4013 18.4146 71.4211 18.3682 71.449 18.3027C71.4643 18.2667 71.4821 18.225 71.5057 18.18L71.369 18.4275ZM71.5887 18.055C71.5593 18.0355 71.5296 18.0157 71.4998 17.9957C71.1614 17.7699 70.7942 17.5248 70.4094 17.403C69.9766 17.2661 69.5165 17.2827 69.0382 17.6228L71.5887 18.055ZM68.2637 18.8628C68.3277 18.3896 68.5644 17.9596 69.0381 17.6228L68.2637 18.8628ZM68.2637 18.8628C68.2007 19.3297 68.3069 19.8278 68.4953 20.3087L68.2637 18.8628Z" fill="#06122E" stroke="#06122E" stroke-width="0.3"/>
<path d="M70.6853 25.1957C70.6906 25.3824 70.7321 25.5357 70.8408 25.6299C70.9523 25.7267 71.0913 25.7242 71.1938 25.7085C71.2638 25.6978 71.345 25.6755 71.4146 25.6563C71.4433 25.6484 71.4701 25.641 71.4932 25.6352C71.5893 25.6113 71.6466 25.6069 71.6812 25.6167L71.7221 25.4724L71.6806 25.6165C71.8997 25.6797 72.1368 25.7043 72.3567 25.7271C72.428 25.7345 72.4974 25.7417 72.5639 25.7499L72.7317 25.8762L72.7821 25.6487C72.8335 25.4169 72.9066 25.2686 73.0048 25.1895C73.0939 25.1178 73.2348 25.0793 73.4878 25.1458L73.4882 25.1459C73.5093 25.1514 73.5303 25.1568 73.5513 25.1623C74.479 25.4029 75.3385 25.6258 75.9088 26.4072L75.9578 26.3723L75.9331 26.4161C76.0151 26.4621 76.0973 26.5089 76.1799 26.5558C76.4301 26.698 76.6836 26.8421 76.9419 26.9742L76.9419 26.9742L76.9429 26.9747C77.0575 27.0322 77.1933 27.0832 77.3359 27.0775C77.4878 27.0714 77.6277 27.0019 77.7438 26.8579L77.7438 26.8578C77.8058 26.781 77.8396 26.6836 77.8574 26.5853C77.8756 26.4856 77.8792 26.3741 77.8725 26.2588C77.8591 26.0282 77.8037 25.7665 77.7223 25.5213C77.6411 25.2768 77.5311 25.0396 77.4034 24.8614C77.3395 24.7723 77.2675 24.6927 77.1876 24.6349C77.1076 24.5771 77.0113 24.5355 76.9042 24.5397L76.9042 24.5397C76.2719 24.5651 75.6421 24.5076 75.0014 24.4492C74.7651 24.4276 74.5272 24.406 74.2872 24.3882C73.4046 24.3231 72.5059 24.3137 71.6085 24.5862L71.6521 24.7298L71.6089 24.5861C71.5472 24.6047 71.4704 24.6156 71.3753 24.6289L71.3721 24.6293C71.2833 24.6417 71.1798 24.6561 71.0846 24.6835C70.9883 24.7112 70.8838 24.7567 70.8046 24.8427C70.7214 24.9332 70.681 25.0522 70.6853 25.1957ZM70.6853 25.1957L70.8352 25.1914L70.6853 25.1959C70.6853 25.1958 70.6853 25.1958 70.6853 25.1957Z" fill="#06122E" stroke="#06122E" stroke-width="0.3"/>
<path d="M76.8882 40.9859L76.888 40.9861C76.6316 41.169 76.2495 41.2714 75.8297 41.3172C75.4053 41.3636 74.923 41.3542 74.4502 41.2985C73.9774 41.2429 73.509 41.1405 73.1126 40.9981C72.7212 40.8574 72.3802 40.6707 72.1842 40.4345L72.1833 40.4334L72.1833 40.4334C72.1117 40.3454 72.0411 40.2396 72.0097 40.1214C71.9762 39.9956 71.9888 39.8607 72.0754 39.7328L72.0763 39.7315L72.0763 39.7315C72.1298 39.6542 72.1938 39.5957 72.2687 39.5585C72.3438 39.5213 72.4212 39.5097 72.4951 39.5132C72.6354 39.5198 72.7734 39.5823 72.8818 39.635C72.9867 39.6856 73.0902 39.7366 73.1929 39.7873C73.5049 39.9412 73.8103 40.0919 74.1307 40.2155C74.408 40.322 74.6904 40.4044 74.9789 40.4875C74.8349 40.4093 74.6908 40.3312 74.5466 40.2531C73.9264 39.917 73.3054 39.5806 72.6897 39.2351C72.5703 39.1684 72.4204 39.0725 72.3234 38.9392C72.2732 38.8701 72.2344 38.7875 72.2239 38.6916C72.2133 38.595 72.2326 38.4957 72.2817 38.3959C72.3361 38.2848 72.4091 38.2018 72.5037 38.155C72.5984 38.1081 72.6958 38.1068 72.7807 38.1232C72.8638 38.1392 72.9423 38.1734 73.0083 38.2068C73.0497 38.2277 73.0945 38.253 73.1328 38.2745C73.152 38.2853 73.1696 38.2952 73.1842 38.3031C74.3371 38.918 75.5293 39.433 76.7707 39.8382L76.8882 40.9859ZM76.8882 40.9859C77.0111 40.8979 77.1173 40.8052 77.1949 40.7092M76.8882 40.9859L77.1949 40.7092M77.1949 40.7092C77.2714 40.6144 77.3301 40.5036 77.3338 40.3817M77.1949 40.7092L77.3338 40.3817M77.3338 40.3817C77.3377 40.2526 77.2792 40.1401 77.179 40.0503M77.3338 40.3817L77.179 40.0503M77.179 40.0503C77.0826 39.964 76.9445 39.8948 76.7707 39.8382L77.179 40.0503Z" fill="#06122E" stroke="#06122E" stroke-width="0.3"/>
<path d="M21.1176 26.7517L21.1532 26.8162L21.226 26.8275C21.4478 26.8618 21.6253 26.8524 21.7566 26.7866C21.9012 26.714 21.963 26.5874 21.9774 26.4592C21.9907 26.3402 21.9647 26.2138 21.9356 26.1086C21.9181 26.0454 21.8941 25.9733 21.8741 25.913C21.8629 25.879 21.8529 25.8488 21.8459 25.826C21.1064 23.3882 19.2901 21.9046 17.3699 20.5778L17.2784 20.5145L17.1913 20.5837C17.1507 20.616 17.111 20.6482 17.072 20.6798L17.0717 20.68C17.0324 20.7119 16.9939 20.7432 16.9546 20.7744L16.8408 20.8647L16.9274 20.9813C17.6828 21.9984 18.4395 23.0145 19.1953 24.0294C19.7352 24.7544 20.2746 25.4788 20.8128 26.2024C20.9143 26.3831 21.0158 26.5671 21.1176 26.7517Z" fill="#06122E" stroke="#06122E" stroke-width="0.3"/>
<path d="M50.5294 34.1368L50.5398 34.1377C50.5618 34.1396 50.5864 34.1403 50.6159 34.1406C50.6212 34.1406 50.6268 34.1407 50.6325 34.1407C50.6566 34.1409 50.6839 34.1411 50.7104 34.1423C50.7742 34.145 50.8596 34.1532 50.9376 34.1951L50.9395 34.1961L50.9395 34.1961C51.3946 34.4491 51.8013 34.6528 52.1652 34.6565C52.3399 34.6583 52.5044 34.6134 52.662 34.5C52.822 34.3848 52.9829 34.193 53.1367 33.8883L53.2706 33.9559M50.5294 34.1368L49.9322 35.3684C50.34 35.8157 50.8432 36.1716 51.4083 36.3782C52.01 36.6008 52.7099 36.4537 53.2613 36.1217C53.8114 35.7906 54.2522 35.2516 54.2971 34.6461L54.2971 34.6459C54.3174 34.3679 54.309 34.0151 53.9882 33.7872C53.8486 33.6862 53.6768 33.6466 53.5249 33.6588C53.3781 33.6706 53.2126 33.7361 53.1363 33.889L53.2706 33.9559M50.5294 34.1368L50.519 34.1373C50.4911 34.1387 50.4597 34.1394 50.426 34.1402C50.3228 34.1427 50.1984 34.1456 50.0901 34.1695C49.9309 34.2044 49.7742 34.2881 49.6789 34.4808M50.5294 34.1368L49.6789 34.4808M53.2706 33.9559C53.3573 33.782 53.684 33.7519 53.9008 33.9091M53.2706 33.9559C52.6271 35.2305 51.7635 34.8257 50.8666 34.3273C50.8013 34.2921 50.7163 34.2914 50.6324 34.2907C50.5964 34.2904 50.5606 34.2901 50.5265 34.2871C50.4903 34.2889 50.4533 34.2898 50.4161 34.2907L53.9008 33.9091M53.9008 33.9091C54.1508 34.0864 54.1675 34.3607 54.1475 34.635L53.9008 33.9091ZM49.6789 34.4808C49.5821 34.6714 49.6001 34.8498 49.6686 35.0028C49.7331 35.147 49.8436 35.2712 49.9322 35.3683L49.6789 34.4808Z" fill="#06122E" stroke="#06122E" stroke-width="0.3"/>
<path d="M56.1289 9.679L56.0701 9.54097C54.9134 10.033 53.8734 10.7188 53.0736 11.7339L52.8256 12.0486L53.2193 11.9741C53.3471 11.9499 53.4806 11.9191 53.6106 11.8892C53.6921 11.8704 53.7722 11.8519 53.8487 11.8356C54.0544 11.7917 54.25 11.7591 54.4371 11.7576C54.6229 11.756 54.7973 11.7852 54.9617 11.8627C55.1257 11.94 55.2883 12.0694 55.4449 12.2807L55.7107 12.1542C55.6936 12.0872 55.6665 12.0177 55.6431 11.9574C55.6411 11.9523 55.6391 11.9472 55.6372 11.9422C55.6108 11.8741 55.5893 11.8165 55.5776 11.7639C55.5658 11.7114 55.5673 11.6787 55.5741 11.6576C55.5793 11.6413 55.5918 11.6181 55.637 11.592C55.6899 11.5615 55.7236 11.5578 55.7431 11.5596C55.762 11.5613 55.7838 11.5695 55.8108 11.5933C55.8717 11.6471 55.9295 11.7534 55.9857 11.8977C56.0728 12.1226 56.1676 12.2922 56.275 12.403C56.3866 12.5182 56.5221 12.5786 56.6716 12.5518C56.8089 12.5273 56.9248 12.4344 57.02 12.3256C57.1176 12.2142 57.2094 12.0677 57.2955 11.9028L57.2956 11.9025C57.422 11.6592 57.5345 11.4026 57.6298 11.1464L57.63 11.1459C57.6364 11.1284 57.643 11.1106 57.6497 11.0926C57.7229 10.8952 57.8068 10.6691 57.8238 10.4448C57.8435 10.1865 57.7759 9.92642 57.5328 9.69429L57.5326 9.6941C57.0804 9.2639 56.5204 9.34835 56.0699 9.54109L56.1289 9.679ZM56.1289 9.679C56.559 9.49501 57.0424 9.43479 57.4292 9.80278M56.1289 9.679C55.0607 10.1334 54.1008 10.7521 53.3424 11.6425C53.2831 11.6555 53.2237 11.6679 53.1635 11.6793L53.1914 11.8267L53.3092 11.9195C53.347 11.8716 53.3854 11.8243 53.4243 11.7779C53.4733 11.7669 53.5223 11.7556 53.5713 11.7443C54.1774 11.6045 54.7847 11.4644 55.3068 11.9102C55.3224 11.9599 55.3409 12.0079 55.3575 12.0507C55.3588 12.0542 55.3602 12.0577 55.3615 12.0611C55.3869 12.1266 55.4076 12.1799 55.4201 12.2285L55.5654 12.1913L55.6859 12.102C55.6067 11.9952 55.5242 11.9038 55.4385 11.8262C55.4005 11.6845 55.4061 11.552 55.562 11.4621C55.8521 11.2948 56.0122 11.5524 56.1255 11.8434L57.4292 9.80278M57.4292 9.80278C57.8266 10.1822 57.6633 10.6235 57.5079 11.0435C57.5017 11.0604 57.4954 11.0772 57.4892 11.0941C57.3959 11.345 57.2858 11.5959 57.1625 11.8334L57.4292 9.80278Z" fill="#06122E" stroke="#06122E" stroke-width="0.3"/>
<path d="M43.9796 39.1886L43.9722 39.1919L43.9652 39.196C43.9243 39.2201 43.8748 39.2436 43.8179 39.2694C43.8061 39.2748 43.7939 39.2802 43.7814 39.2859C43.7365 39.3061 43.6882 39.3278 43.6437 39.35C43.5869 39.3784 43.5263 39.4124 43.4756 39.4541C43.4259 39.4951 43.3726 39.5542 43.3524 39.6363C43.3263 39.7353 43.3309 39.8308 43.3745 39.9152C43.4168 39.9972 43.4861 40.0493 43.5517 40.083C43.6625 40.14 43.8048 40.1641 43.9004 40.1802C43.9116 40.1821 43.9221 40.1839 43.9318 40.1856C44.8462 40.3475 45.791 40.4225 46.7217 40.1414C46.9884 40.062 47.2125 39.918 47.3592 39.7081C47.5069 39.4968 47.5667 39.2323 47.5275 38.9313L47.5275 38.9312C47.4415 38.2731 47.0635 37.7264 46.5058 37.4483C46.3559 37.3731 46.214 37.3523 46.0848 37.4034C45.9621 37.4519 45.8837 37.5531 45.8292 37.6432C45.7919 37.7048 45.7564 37.7788 45.7249 37.8444C45.7117 37.8718 45.6992 37.8978 45.6876 37.9208C45.6429 38.0093 45.6045 38.0692 45.5637 38.1044C45.3638 38.2767 45.176 38.4658 44.9949 38.6481C44.9423 38.7011 44.8902 38.7536 44.8385 38.8049C44.7123 38.8616 44.5827 38.9193 44.452 38.9774C44.2945 39.0475 44.1356 39.1182 43.9796 39.1886Z" fill="#06122E" stroke="#06122E" stroke-width="0.3"/>
<path d="M73.0832 22.4123C73.1311 22.4112 73.1794 22.4118 73.2277 22.4124C73.3339 22.4137 73.4402 22.415 73.5433 22.3989M73.0832 22.4123L73.5653 22.5473M73.0832 22.4123C70.7859 22.4558 70.7859 22.4558 71.7095 20.4486C71.7295 20.4047 71.7525 20.3608 71.7756 20.3167C71.895 20.0889 72.0152 19.8594 71.7162 19.6323M73.0832 22.4123L71.4261 19.2543C71.3264 19.4544 71.4538 19.5086 71.5831 19.5635C71.6311 19.5838 71.6792 19.6043 71.7162 19.6323M73.5433 22.3989L73.5641 22.5475C73.5645 22.5474 73.5649 22.5474 73.5653 22.5473M73.5433 22.3989C73.5957 22.3916 73.6524 22.388 73.7099 22.3844C73.9677 22.3684 74.2432 22.3512 74.2269 21.9874L73.5433 22.3989ZM73.5653 22.5473C73.4792 22.5606 73.3938 22.5631 73.3145 22.5631C73.2815 22.5631 73.251 22.5627 73.2216 22.5624C73.1757 22.5618 73.1326 22.5612 73.0865 22.5623L73.0861 22.5623L73.0761 22.5625C72.5102 22.5732 72.0735 22.5814 71.7573 22.5556C71.5979 22.5425 71.4598 22.5202 71.3465 22.4811C71.2323 22.4416 71.1327 22.3812 71.0656 22.2854C70.9981 22.1888 70.977 22.0753 70.9828 21.9562C70.9884 21.839 71.0204 21.7069 71.0692 21.5608C71.1658 21.2714 71.3417 20.8892 71.5687 20.3957L71.573 20.3864C71.5945 20.3391 71.6214 20.2878 71.6457 20.2413C71.6577 20.2184 71.669 20.1968 71.6788 20.1774C71.7119 20.1117 71.7354 20.0569 71.7466 20.0074C71.7572 19.9604 71.7556 19.9233 71.7427 19.8891C71.7294 19.8541 71.6986 19.8073 71.6255 19.7518L71.7162 19.6323M73.5653 22.5473C73.6112 22.5409 73.659 22.538 73.7136 22.5345C73.7361 22.5331 73.7596 22.5317 73.7847 22.5299C73.865 22.5241 73.958 22.5148 74.0442 22.4884C74.1322 22.4613 74.2243 22.413 74.2903 22.3217C74.3566 22.2302 74.3827 22.1148 74.3767 21.9807L74.3767 21.9804C74.3712 21.8641 74.3353 21.7656 74.2657 21.6901C74.1983 21.6169 74.1125 21.5796 74.0339 21.5586C73.956 21.5378 73.873 21.5298 73.8019 21.5241C73.788 21.523 73.7746 21.522 73.7616 21.521C73.7034 21.5165 73.654 21.5127 73.6084 21.505L73.6074 21.5048C73.4748 21.4833 73.3424 21.4824 73.2172 21.4864C73.1619 21.4882 73.1109 21.4907 73.0614 21.4932C72.9919 21.4966 72.9253 21.5 72.8539 21.5008C72.6532 21.5032 72.4766 21.4832 72.3152 21.392C72.3399 21.2975 72.3972 21.2332 72.4769 21.1697C72.5131 21.1409 72.5481 21.1165 72.5869 21.0895C72.609 21.0741 72.6322 21.0579 72.6577 21.0396C72.7219 20.9931 72.7928 20.9374 72.8519 20.8655C72.8884 20.822 72.9246 20.7821 72.963 20.7398C72.9887 20.7115 73.0153 20.6822 73.0436 20.65C73.1098 20.5747 73.1781 20.4913 73.2316 20.3995C73.2857 20.3066 73.3272 20.2011 73.3357 20.0814C73.3444 19.9607 73.3188 19.8357 73.2542 19.7059C73.0226 19.2413 72.6263 18.8961 72.0385 18.8769C71.9234 18.872 71.779 18.8668 71.6467 18.9013C71.505 18.9383 71.3724 19.0217 71.2915 19.1881C71.2494 19.2729 71.2268 19.3626 71.2491 19.4511C71.272 19.5423 71.3339 19.5986 71.3867 19.633C71.4319 19.6624 71.4849 19.6848 71.5235 19.7011C71.5276 19.7028 71.5315 19.7045 71.5352 19.7061C71.5816 19.7259 71.6084 19.7388 71.6255 19.7518L71.7162 19.6323" fill="#06122E" stroke="#06122E" stroke-width="0.3"/>
<path d="M50.8049 29.6202L50.7283 29.5354L50.6263 29.5866C50.5375 29.6312 50.4699 29.6898 50.4225 29.7611C50.3756 29.8319 50.3539 29.9071 50.3444 29.9776C50.3351 30.0468 50.3373 30.1152 50.3408 30.1738C50.3421 30.1961 50.3436 30.2162 50.3449 30.2349C50.3475 30.2699 50.3497 30.3002 50.3502 30.3318C50.36 31.0135 50.2851 31.6214 50.0377 32.1143C49.7937 32.6004 49.3751 32.9884 48.6662 33.2213L48.6662 33.2212L48.6644 33.2219C48.4884 33.2822 48.3359 33.4248 48.2361 33.5583C48.0722 33.7776 48.0096 34.0012 48.0586 34.221C48.1061 34.4343 48.2525 34.6143 48.4426 34.7655C48.6437 34.9271 48.8421 34.9794 49.0286 34.8909C49.1899 34.8145 49.3023 34.6465 49.3896 34.4962L49.3897 34.4959C49.5172 34.2752 49.6913 34.0995 49.8918 33.9363C50.014 33.8368 50.136 33.7491 50.2621 33.6585C50.3514 33.5944 50.4427 33.5287 50.5377 33.4563L50.5378 33.4563C51.794 32.4985 51.8887 30.8202 50.8049 29.6202ZM50.4468 33.337C50.3596 33.4035 50.2705 33.4676 50.1814 33.5317C49.8314 33.7835 49.4831 34.0342 49.2598 34.4209L50.4468 33.337Z" fill="#06122E" stroke="#06122E" stroke-width="0.3"/>
<path d="M56.249 36.4618L56.4518 36.6814C57.0985 37.3817 57.4354 38.0403 57.668 38.7575L56.249 36.4618ZM56.249 36.4618L56.1942 36.7557M56.249 36.4618L56.1942 36.7557M56.1942 36.7557L56.1931 36.7615C56.0887 37.3205 55.9979 37.8072 55.7916 38.179C55.5933 38.5366 55.2858 38.7905 54.7205 38.8693L54.5019 38.8998L54.6107 39.0918C54.9769 39.7381 55.5182 39.992 56.0021 40.2189C56.0297 40.2318 56.057 40.2446 56.0842 40.2575C56.3036 40.3612 56.536 40.4166 56.7683 40.3941C57.0029 40.3714 57.2263 40.2703 57.4256 40.0797L57.4256 40.0797M56.1942 36.7557L57.4256 40.0797M57.4256 40.0797C57.628 39.8861 57.7307 39.6706 57.7588 39.4395M57.4256 40.0797L57.7588 39.4395M57.7588 39.4395C57.7863 39.2133 57.7411 38.9828 57.668 38.7575L57.7588 39.4395Z" fill="#06122E" stroke="#06122E" stroke-width="0.3"/>
<path d="M66.1733 28.8525C66.1783 28.8564 66.1823 28.86 66.1851 28.8627L66.0847 28.8941V28.8227C66.1145 28.8227 66.1368 28.8316 66.148 28.8369C66.16 28.8427 66.1686 28.8489 66.1733 28.8525ZM66.0036 30.4123C65.8499 30.2599 65.6932 30.1118 65.538 29.965C64.5268 29.0092 63.5757 28.1102 63.9208 26.4704C63.9343 26.4066 63.9254 26.3336 63.9165 26.2609C63.8969 26.1011 63.8775 25.9424 64.0975 25.8849L66.0036 30.4123ZM66.2564 29.6755C66.2441 29.4837 66.2324 29.3017 66.2206 29.1227H66.3699L66.2083 28.8877C65.9567 28.5218 65.7994 28.1083 65.6346 27.6753C65.6133 27.6191 65.5918 27.5626 65.5699 27.5058C65.3825 27.0189 65.1709 26.5174 64.7884 26.0983L64.6776 26.1994L64.7891 26.099C64.7858 26.0954 64.7826 26.0917 64.7792 26.088C64.7057 26.0063 64.6126 25.9028 64.5046 25.8292C64.3864 25.7485 64.2361 25.6937 64.0596 25.7398L64.0596 25.7398C63.9544 25.7673 63.8696 25.8185 63.8156 25.9006C63.7638 25.9794 63.7546 26.0658 63.7554 26.1342C63.7559 26.1848 63.7628 26.2406 63.7683 26.2855C63.7699 26.2984 63.7714 26.3104 63.7726 26.321C63.7789 26.3778 63.7795 26.4137 63.7741 26.4392L63.774 26.4395C63.5552 27.4791 63.8354 28.2421 64.3209 28.8957C64.5609 29.2188 64.8508 29.5149 65.1507 29.8037C65.246 29.8955 65.3419 29.9862 65.4378 30.0768C65.6466 30.2741 65.8552 30.4713 66.057 30.6795L66.3416 30.9731L66.3144 30.5651C66.2924 30.2365 66.2738 29.9463 66.2564 29.6755Z" fill="#06122E" stroke="#06122E" stroke-width="0.3"/>
<path d="M75.3947 23.7268L75.2378 23.801C74.6651 24.0716 74.0616 24.1464 73.4589 24.1574C73.1577 24.1629 72.8538 24.1525 72.5534 24.1418C72.544 24.1414 72.5347 24.1411 72.5253 24.1408C72.2332 24.1303 71.9445 24.12 71.6578 24.1232C71.5091 24.125 71.3819 24.0991 71.2769 24.041C71.1701 23.9819 71.0978 23.8957 71.0499 23.7977C70.9602 23.6141 70.9524 23.3758 70.946 23.1724C70.9353 22.9135 70.9911 22.7072 71.1431 22.5704C71.2896 22.4386 71.4935 22.4016 71.7034 22.3981M75.3947 23.7268L71.7036 22.3981C71.7035 22.3981 71.7035 22.3981 71.7034 22.3981M75.3947 23.7268L75.2986 23.5823C74.8219 22.8658 74.2321 22.5603 73.6002 22.4412C73.1161 22.35 72.6007 22.3683 72.1054 22.386C71.9695 22.3908 71.8352 22.3956 71.7034 22.3981M75.3947 23.7268L71.7034 22.3981" fill="#06122E" stroke="#06122E" stroke-width="0.3"/>
<path d="M39.899 30.1042L39.9396 30.3331L40.1314 30.2018C40.2536 30.1182 40.3772 30.0423 40.5015 29.9659C40.5389 29.943 40.5763 29.92 40.6137 29.8968C40.7733 29.7978 40.9322 29.6949 41.0729 29.5778C41.36 29.3388 41.5762 29.0356 41.5969 28.5726L41.5969 28.5726C41.6306 27.8187 41.1114 27.3051 40.6031 26.9268C40.3069 26.7062 40.0083 26.6063 39.7276 26.6853C39.4491 26.7638 39.2395 27.0044 39.0865 27.3434L39.0864 27.3434C38.9764 27.5873 38.9044 27.8048 38.8892 27.9974C38.8735 28.1958 38.9181 28.3726 39.0439 28.5193C39.1646 28.6602 39.3472 28.7576 39.5754 28.8308C39.7743 28.8946 40.0195 28.9437 40.3124 28.9843C40.3048 29.0098 40.2936 29.0352 40.2789 29.0616C40.2496 29.1144 40.2127 29.1624 40.1669 29.222C40.1506 29.2432 40.1332 29.2658 40.1146 29.2906C40.0483 29.3792 39.9754 29.4862 39.9293 29.6207C39.8823 29.7575 39.8656 29.9153 39.899 30.1042Z" fill="#06122E" stroke="#06122E" stroke-width="0.3"/>
<path d="M76.7299 39.6269L76.6727 39.7655C76.7906 39.8142 76.9568 39.8807 77.1192 39.8801C77.2046 39.8799 77.2948 39.8614 77.3783 39.809C77.4621 39.7564 77.528 39.6768 77.5762 39.5728L77.5763 39.5725C77.6264 39.4638 77.6455 39.3585 77.6275 39.2582C77.6094 39.1573 77.5569 39.0791 77.4956 39.0194C77.4359 38.9611 77.3644 38.9169 77.2992 38.8818C77.2559 38.8586 77.2081 38.8356 77.166 38.8155C77.1469 38.8063 77.1289 38.7977 77.1131 38.7899L77.1124 38.7896C76.9491 38.7098 76.7857 38.6296 76.6219 38.5493C75.785 38.1388 74.9417 37.7252 74.0823 37.3516L74.0822 37.3516C73.3924 37.0521 72.6134 36.7285 71.7119 37.0961L71.3761 37.233L71.7105 37.3733C72.8432 37.8485 73.9145 38.414 74.9771 38.9989L74.9773 38.999C75.4914 39.2809 76.0378 39.5051 76.5741 39.7251C76.6071 39.7386 76.64 39.7521 76.6729 39.7656L76.7299 39.6269ZM76.7299 39.6269C76.6976 39.6136 76.6653 39.6004 76.6331 39.5871C76.0949 39.3664 75.5559 39.1452 75.0494 38.8675C74.0488 38.3167 73.0364 37.7808 71.9706 37.3209C71.9225 37.3363 71.8741 37.3539 71.8252 37.3739L71.7686 37.235L71.8266 37.0966C71.8776 37.118 71.9285 37.1396 71.9793 37.1614C72.7281 36.9438 73.3879 37.2137 74.0225 37.4892C74.8784 37.8613 75.7181 38.2731 76.5551 38.6836C76.719 38.764 76.8828 38.8444 77.0466 38.9243C77.0658 38.9338 77.0857 38.9433 77.1059 38.953C77.3278 39.0593 77.5898 39.1847 77.4401 39.5098C77.2867 39.841 76.9733 39.7272 76.7299 39.6269Z" fill="#06122E" stroke="#06122E" stroke-width="0.3"/>
<path d="M48.1727 3.4002L48.2732 3.67555C48.4822 3.64706 48.6915 3.61085 48.8976 3.57519C48.9307 3.56946 48.9637 3.56375 48.9967 3.55808C49.236 3.51692 49.4712 3.47812 49.7045 3.45274C50.171 3.40202 50.6204 3.40619 51.0568 3.54898C51.5126 3.69956 51.862 3.65074 52.1534 3.47673C52.4307 3.31107 52.6423 3.03787 52.8413 2.78099L52.8427 2.7791L52.8431 2.77859C52.9363 2.65718 53.0502 2.50491 53.1048 2.33668C53.1634 2.15609 53.1536 1.95728 53.0081 1.7617C52.9437 1.67428 52.8664 1.61429 52.7784 1.58C52.6917 1.54624 52.604 1.54103 52.5236 1.54801C52.444 1.55492 52.3661 1.57432 52.2965 1.59433C52.26 1.60483 52.2301 1.61407 52.202 1.62279C52.1687 1.63309 52.1378 1.64265 52.1012 1.65268C50.7088 2.03154 49.4048 2.61996 48.1727 3.4002Z" fill="#06122E" stroke="#06122E" stroke-width="0.3"/>
<path d="M72.341 40.6709L72.2822 40.5823L72.1791 40.6086C71.9505 40.6668 71.7991 40.7566 71.7091 40.8824C71.6198 41.0071 71.6096 41.1426 71.6061 41.2403L71.6061 41.2403L71.606 41.2425C71.6 41.5291 71.758 41.8696 71.9806 42.2005C72.2078 42.5383 72.5202 42.892 72.8609 43.211C73.2015 43.53 73.5751 43.8186 73.9268 44.0238C74.2711 44.2247 74.6203 44.361 74.9044 44.3392C75.1106 44.325 75.3858 44.2682 75.5 43.9732C75.564 43.811 75.5484 43.6614 75.4575 43.5443C75.3757 43.4389 75.2499 43.3829 75.1402 43.3525L75.1402 43.3525L75.139 43.3522C74.5613 43.1974 74.1237 42.8791 73.7392 42.4827C73.4624 42.1974 73.2198 41.8797 72.9711 41.5541C72.8694 41.421 72.7668 41.2865 72.6604 41.1524C72.5646 41.0317 72.489 40.9087 72.4238 40.8025C72.3944 40.7546 72.3671 40.7102 72.341 40.6709Z" fill="#06122E" stroke="#06122E" stroke-width="0.3"/>
<path d="M54.5508 2.48428C55.3886 2.18996 56.2144 1.86189 57.0377 1.53481C57.3219 1.42194 57.6057 1.30918 57.8896 1.19797L57.9783 1.16324L54.2106 1.28913L54.179 1.14249C54.179 1.1425 54.1789 1.14251 54.1789 1.14251C53.5411 1.27999 53.2629 1.92405 53.421 2.41558L53.421 2.41558L53.4212 2.41627C53.4775 2.58846 53.5622 2.71822 53.6919 2.77857C53.8228 2.83948 53.9554 2.80923 54.0571 2.76708C54.1558 2.72621 54.254 2.66191 54.3348 2.60898C54.3375 2.60726 54.3401 2.60555 54.3427 2.60385C54.4331 2.54468 54.4988 2.50298 54.5508 2.48428ZM54.5508 2.48428C54.5507 2.48433 54.5505 2.48438 54.5504 2.48442L54.5007 2.34291L54.5512 2.48415C54.5511 2.48419 54.5509 2.48424 54.5508 2.48428ZM57.8194 1.06439C57.5391 1.17421 57.2595 1.28528 56.98 1.39632C56.1573 1.72314 55.3355 2.04964 54.5007 2.3429C54.4275 2.36908 54.3445 2.4234 54.258 2.47998C54.002 2.64751 53.7158 2.83482 53.5638 2.36967L57.8194 1.06439ZM57.8194 1.06439C57.8253 1.06442 57.8313 1.06443 57.8373 1.06444C57.841 1.06445 57.8446 1.06445 57.8482 1.06445V1.05919V0.914451L57.6986 0.903799C57.6984 0.906827 57.6982 0.909861 57.6979 0.912913C57.6173 0.911386 57.5364 0.908922 57.4555 0.906457C57.1708 0.897779 56.8853 0.889081 56.6046 0.921141L57.8194 1.06439Z" fill="#06122E" stroke="#06122E" stroke-width="0.3"/>
<path d="M67.1783 17.5064L67.1113 17.3722C66.7426 17.5563 66.4994 17.8184 66.4082 18.1348C66.3171 18.4507 66.3858 18.7924 66.5831 19.1193C66.7693 19.429 66.9938 19.7131 67.2248 19.9857C67.3173 20.0949 67.4096 20.2009 67.5011 20.306C67.6417 20.4673 67.7804 20.6266 67.9156 20.7926L68.1528 21.0839L68.1815 20.7093C68.2117 20.3137 68.1665 19.9365 68.1244 19.5855C68.1158 19.5138 68.1074 19.4433 68.0997 19.3738C68.0538 18.9576 68.0349 18.5751 68.1551 18.1901L68.0119 18.1454M67.1783 17.5064L67.1111 17.3724C67.1305 17.3626 67.151 17.3521 67.1724 17.3411C67.2857 17.2828 67.4243 17.2115 67.5641 17.1765C67.7422 17.132 67.9409 17.1403 68.128 17.2882C68.2178 17.3586 68.276 17.4423 68.3023 17.5377C68.328 17.6307 68.3194 17.7209 68.3008 17.7992C68.2823 17.8765 68.2515 17.9516 68.2244 18.0155C68.2204 18.025 68.2165 18.0342 68.2127 18.0431C68.189 18.0987 68.1691 18.1454 68.155 18.1903L68.0119 18.1454M67.1783 17.5064C67.2004 17.4954 67.2228 17.4839 67.2454 17.4723C67.4957 17.3439 67.7753 17.2005 68.0352 17.4061C68.2497 17.574 68.1605 17.7832 68.0751 17.9835C68.0516 18.0384 68.0284 18.0928 68.0119 18.1454M67.1783 17.5064C66.4948 17.8477 66.3481 18.4398 66.7116 19.0419C66.962 19.4583 67.2865 19.8311 67.6113 20.204C67.7049 20.3115 67.7985 20.419 67.8903 20.5276L68.0412 20.4739M68.0119 18.1454C67.8595 18.6335 67.9166 19.1112 67.9759 19.6076C68.0095 19.8886 68.0438 20.1756 68.0412 20.4739M68.0412 20.4739C68.0774 20.5169 68.1131 20.56 68.1482 20.6031L68.0319 20.6979L68.0412 20.4739Z" fill="#06122E" stroke="#06122E" stroke-width="0.3"/>
<path d="M55.8805 37.2143L55.8805 37.2143C55.9147 37.5207 55.7962 37.8105 55.5519 38.0245C55.3111 38.2354 54.9543 38.3686 54.5077 38.3907C54.1882 38.4304 53.9276 38.2577 53.7541 38.0403C53.58 37.8221 53.4727 37.5355 53.4611 37.2882M55.8805 37.2143L54.6152 36.0104C54.1747 36.0179 53.8718 36.201 53.6871 36.4606C53.5071 36.7136 53.4482 37.026 53.4611 37.2882M55.8805 37.2143C55.8517 36.9557 55.7593 36.6538 55.5598 36.415M55.8805 37.2143L55.5598 36.415M53.4611 37.2882C53.4611 37.2883 53.4611 37.2884 53.4611 37.2884L53.6109 37.2811L53.4611 37.2881C53.4611 37.2881 53.4611 37.2882 53.4611 37.2882ZM55.5598 36.415C55.3557 36.1707 55.0473 36.0029 54.6153 36.0104L55.5598 36.415Z" fill="#06122E" stroke="#06122E" stroke-width="0.3"/>
<path d="M63.5238 21.8294C63.5147 21.4434 63.1656 21.1919 62.8004 21.2082L62.8004 21.2082L62.7994 21.2082C62.5546 21.2208 62.389 21.3339 62.2879 21.4987C62.1935 21.6526 62.1613 21.8414 62.1475 22.0044L62.1475 22.0044L62.1474 22.0051C62.1263 22.2685 62.1478 22.5381 62.2493 22.7722C62.353 23.0111 62.5374 23.206 62.8237 23.3147C63.7259 23.6584 64.6768 23.8667 65.7978 23.6907L66.0104 23.6574L65.9055 23.4694C65.7612 23.2109 65.6005 22.9941 65.4236 22.8544C65.2436 22.7123 65.033 22.6409 64.8098 22.7101L64.8095 22.7102C64.3244 22.862 64.021 22.852 63.8379 22.7312C63.659 22.613 63.5369 22.3489 63.5238 21.8294ZM63.5238 21.8294C63.5238 21.8295 63.5238 21.8295 63.5238 21.8296L63.3739 21.8331M63.5238 21.8294C63.5238 21.8294 63.5238 21.8294 63.5238 21.8293L63.3739 21.8331M63.3739 21.8331C63.4006 22.8935 63.8707 23.1612 64.8543 22.8534L65.6148 23.5651C64.5965 23.693 63.7202 23.4958 62.8771 23.1746C62.3836 22.9872 62.2569 22.5155 62.2969 22.0171C62.3236 21.7026 62.417 21.3781 62.8071 21.358C63.1071 21.3447 63.3672 21.5487 63.3739 21.8331Z" fill="#06122E" stroke="#06122E" stroke-width="0.3"/>
<path d="M69.4746 26.9135C69.0811 27.2982 69.2045 28.0141 69.6846 28.4758C69.8545 28.639 70.0643 28.745 70.2742 28.8512C70.4915 28.9611 70.7091 29.0711 70.8828 29.2448L69.4746 26.9135ZM69.4746 26.9135C69.9447 26.4552 70.4048 27.0774 70.6282 27.4722L69.4746 26.9135ZM69.4746 26.9135L69.4746 26.9135L69.4746 26.9135ZM70.9363 29.5147C70.9313 29.5135 70.9272 29.5122 70.9241 29.5112L70.9717 29.4623L71.0184 29.4142L71.0795 29.4733C71.2845 29.2613 71.397 29.0531 71.4317 28.8446C71.4665 28.6358 71.4202 28.4449 71.3413 28.2738C71.2635 28.105 71.1505 27.9479 71.044 27.8054C71.0289 27.7851 71.0139 27.7651 70.9991 27.7454C70.9066 27.6223 70.8226 27.5103 70.7587 27.3981C70.645 27.1973 70.4613 26.9193 70.2325 26.7519C70.1163 26.6669 69.9772 26.602 69.8218 26.602C69.6625 26.6019 69.5096 26.6699 69.3699 26.8061L69.3699 26.8061L69.3697 26.8063C69.131 27.0397 69.0567 27.367 69.1036 27.6875C69.1504 28.0075 69.3183 28.3316 69.5807 28.5839L69.5807 28.584C69.7681 28.764 69.9999 28.8809 70.2083 28.9861C70.2391 29.0016 70.2693 29.0168 70.2988 29.032C70.484 29.1272 70.648 29.2214 70.7787 29.3528L70.6179 29.519H70.9717C70.9549 29.519 70.9419 29.5161 70.9363 29.5147Z" fill="#06122E" stroke="#06122E" stroke-width="0.3"/>
<path d="M42.1223 34.9685L42.1115 35.0105L42.1248 35.0517C42.159 35.1582 42.1854 35.2746 42.2141 35.4011C42.2189 35.4222 42.2237 35.4436 42.2287 35.4653C42.2625 35.613 42.301 35.7714 42.3587 35.9196C42.477 36.2233 42.683 36.4986 43.1034 36.5877L43.1034 36.5877L43.1046 36.5879C43.2728 36.6221 43.4234 36.6046 43.5538 36.5428C43.6824 36.4818 43.7801 36.3831 43.8539 36.2725C43.9991 36.0553 44.0672 35.7699 44.0998 35.5423L44.0999 35.5419C44.1343 35.2972 44.0998 35.099 44.006 34.9387C43.9134 34.7804 43.7729 34.6763 43.6277 34.6C43.4985 34.532 43.3543 34.4808 43.2242 34.4345C43.2101 34.4295 43.1961 34.4245 43.1823 34.4196C43.0356 34.3671 42.9116 34.3196 42.8158 34.2576L42.8156 34.2574C42.7072 34.1877 42.5852 34.1515 42.4666 34.2006C42.3573 34.2459 42.2974 34.3463 42.262 34.4281C42.2248 34.5142 42.1997 34.6155 42.1795 34.7075C42.1718 34.7422 42.165 34.7752 42.1584 34.8068C42.1463 34.8648 42.1353 34.918 42.1223 34.9685Z" fill="#06122E" stroke="#06122E" stroke-width="0.3"/>
<path d="M42.7743 32.2247L42.7971 32.1531L42.7534 32.0921C42.7007 32.0182 42.6633 31.9208 42.6248 31.8013C42.6178 31.7794 42.6106 31.7564 42.6033 31.7328C42.5732 31.6363 42.5396 31.5286 42.4955 31.4342C42.4389 31.3129 42.3554 31.1906 42.2142 31.1168C42.0727 31.0427 41.8983 31.0304 41.6866 31.0758C41.6225 31.0892 41.5338 31.087 41.4186 31.0789C41.4001 31.0776 41.3808 31.0762 41.3611 31.0747C41.2675 31.0676 41.1624 31.0596 41.0674 31.0634C40.9551 31.0679 40.8184 31.0892 40.717 31.1808C40.6064 31.2807 40.5746 31.4281 40.5953 31.5984C40.6209 31.8113 40.6767 32.1234 40.8079 32.3954C40.9392 32.6676 41.1608 32.9264 41.5259 32.9704C41.721 32.9955 41.9781 32.9675 42.213 32.8569C42.4517 32.7446 42.6728 32.544 42.7743 32.2247Z" fill="#06122E" stroke="#06122E" stroke-width="0.3"/>
<path d="M51.0563 3.9682C51.0437 3.80187 50.9922 3.66769 50.8912 3.57684C50.7912 3.48683 50.6667 3.46125 50.5552 3.45948C50.4444 3.45772 50.3284 3.47922 50.2272 3.50133C50.1913 3.50917 50.1579 3.5169 50.1264 3.52419C50.0626 3.53898 50.0065 3.55196 49.9535 3.56033C48.7978 3.73666 47.6883 4.0689 46.2953 4.67845L46.36 4.9658C46.913 4.9491 47.4156 4.88391 47.8797 4.82373C48.0272 4.8046 48.1708 4.78597 48.3109 4.76956C48.8966 4.701 49.4266 4.67015 49.9651 4.78525L49.9651 4.78526L49.9663 4.7855C50.2178 4.83716 50.4947 4.78101 50.7061 4.64287C50.9206 4.50277 51.0796 4.2684 51.0563 3.9682ZM51.0563 3.9682L50.9067 3.97953M51.0563 3.9682C51.0562 3.96808 51.0562 3.96795 51.0562 3.96782L50.9067 3.97953M50.9067 3.97953C50.9434 4.44788 50.4199 4.72554 49.9964 4.63856L46.7561 4.64498C47.9556 4.1473 48.9484 3.86539 49.9764 3.70856C50.035 3.69935 50.0996 3.68439 50.1668 3.66884C50.4899 3.5941 50.8708 3.50596 50.9067 3.97953Z" fill="#06122E" stroke="#06122E" stroke-width="0.3"/>
<path d="M38.4636 19.9989C39.1846 19.9481 39.1469 19.3709 39.1126 18.8463C39.1107 18.8178 39.1089 18.7893 39.1072 18.7611C39.1028 18.7107 39.0927 18.6616 39.0825 18.6122C39.0771 18.5862 39.0717 18.5601 39.0671 18.5336C39.0155 18.4885 38.9638 18.4442 38.9121 18.3998C38.8604 18.3555 38.8087 18.3112 38.7571 18.266L38.4636 19.9989ZM38.4636 19.9989C37.8868 20.039 37.7168 19.5105 37.6934 19.0321L38.4636 19.9989ZM38.8558 18.1531L38.8272 18.1281L38.7901 18.1197C38.4622 18.0456 38.1381 18.0354 37.8957 18.1804C37.638 18.3345 37.5239 18.6295 37.5436 19.0393L37.5436 19.0394C37.5558 19.2888 37.6064 19.5709 37.744 19.7898C37.8141 19.9013 37.9085 19.9989 38.0333 20.0647C38.1585 20.1308 38.3057 20.1603 38.4741 20.1485L38.4742 20.1485C38.685 20.1337 38.8531 20.0771 38.9811 19.9784C39.1101 19.8791 39.1849 19.7474 39.2267 19.6073C39.2978 19.3691 39.2786 19.0801 39.2624 18.8373C39.2605 18.8081 39.2586 18.7796 39.2569 18.752L39.2569 18.752L39.2566 18.7482C39.2515 18.6893 39.2379 18.6229 39.2268 18.5688C39.2221 18.5459 39.2179 18.5251 39.2149 18.508L39.2059 18.4557L39.1658 18.4207C39.1136 18.3751 39.0615 18.3304 39.01 18.2862L39.0098 18.286C38.958 18.2416 38.9068 18.1977 38.8558 18.1531Z" fill="#06122E" stroke="#06122E" stroke-width="0.3"/>
<path d="M48.2018 16.0228L48.1774 16.0179L48.1527 16.0212C48.1463 16.0221 48.1398 16.023 48.1332 16.0238C47.9557 16.0474 47.7342 16.0767 47.5556 16.1711C47.459 16.2221 47.3701 16.2942 47.3049 16.3975C47.2396 16.5007 47.2039 16.6258 47.199 16.7738H47.199L47.199 16.7743C47.195 16.9097 47.2215 17.028 47.2774 17.128C47.3333 17.228 47.4136 17.3006 47.5033 17.3526C47.6773 17.4535 47.8955 17.482 48.0788 17.4906L48.0795 17.4907C48.2813 17.4992 48.5237 17.4927 48.7263 17.4087C48.8303 17.3656 48.9278 17.3005 49.0029 17.2035C49.0784 17.106 49.1247 16.9847 49.1387 16.8401L49.1387 16.8396C49.1527 16.6911 49.1296 16.5618 49.0699 16.4523C49.0104 16.3434 48.9215 16.2666 48.8244 16.2108C48.651 16.1114 48.4264 16.0671 48.2412 16.0306C48.2279 16.028 48.2147 16.0254 48.2018 16.0228Z" fill="#06122E" stroke="#06122E" stroke-width="0.3"/>
<path d="M52.6066 33.12L52.5964 33.1642C52.5787 33.2409 52.5725 33.3255 52.566 33.4223C52.5658 33.425 52.5656 33.4277 52.5654 33.4305C52.5594 33.5198 52.5524 33.6224 52.5297 33.7158C52.5057 33.8146 52.4604 33.9193 52.3655 33.9981C52.2703 34.0771 52.1449 34.1138 51.993 34.1168L52.6066 33.12ZM52.6066 33.12L52.5906 33.0776M52.6066 33.12L52.5906 33.0776M52.5906 33.0776C52.5687 33.0195 52.5538 32.9502 52.5353 32.8645C52.534 32.8582 52.5326 32.8519 52.5312 32.8454C52.5121 32.7568 52.4887 32.6526 52.4482 32.5574C52.4069 32.4602 52.3433 32.3619 52.2372 32.2932C52.1304 32.2241 51.9977 32.1963 51.8391 32.2081M52.5906 33.0776L51.2108 33.1669M51.2108 33.1669C51.1888 32.9709 51.2081 32.7487 51.3011 32.5648C51.3981 32.3727 51.5745 32.2274 51.8391 32.2081M51.2108 33.1669C51.2306 33.3516 51.2613 33.5874 51.3665 33.776C51.4209 33.8737 51.4973 33.9627 51.6049 34.0257C51.7127 34.0887 51.842 34.1197 51.993 34.1168L51.2108 33.1669ZM51.8391 32.2081C51.839 32.2081 51.839 32.2081 51.8389 32.2081L51.8501 32.3577L51.8392 32.2081C51.8391 32.2081 51.8391 32.2081 51.8391 32.2081Z" fill="#06122E" stroke="#06122E" stroke-width="0.3"/>
<path d="M51.6922 17.6798L51.8405 17.8711L51.8378 17.8081C51.8806 17.8381 51.9239 17.8616 51.9678 17.8784C52.1359 17.9429 52.2854 17.9002 52.4054 17.8189C52.5175 17.7429 52.613 17.6277 52.6928 17.5259C52.7119 17.5016 52.7302 17.4779 52.7478 17.455C52.8096 17.375 52.8637 17.3048 52.9201 17.2482C53.0146 17.1534 53.1073 17.0016 53.1193 16.8497C53.1256 16.7694 53.1097 16.677 53.0439 16.6004C52.9787 16.5246 52.8836 16.4866 52.7771 16.4747L52.7605 16.6238M51.6922 17.6798L51.829 17.6051C52.1779 17.9485 52.4065 17.652 52.6254 17.3681C52.6881 17.2867 52.7501 17.2063 52.8139 17.1423C52.9706 16.9851 53.0906 16.6606 52.7605 16.6238M51.6922 17.6798C51.6346 17.6187 51.5773 17.5456 51.5196 17.461L51.3598 17.2265H51.5127M51.6922 17.6798L51.5127 17.2265M52.7605 16.6238C52.7127 16.6183 52.6627 16.611 52.6115 16.6037C52.1991 16.5442 51.711 16.4738 51.6636 17.1791C51.6629 17.1955 51.6626 17.2116 51.6627 17.2277C51.6566 17.227 51.6502 17.2265 51.6436 17.2265H51.5127M52.7605 16.6238L52.7778 16.4748C52.7322 16.4695 52.6844 16.4626 52.6329 16.4552C52.6262 16.4542 52.6193 16.4532 52.6125 16.4523C52.5541 16.4439 52.4919 16.4351 52.4291 16.4287C52.3051 16.4159 52.1678 16.4107 52.0379 16.4387C51.9042 16.4675 51.775 16.5324 51.6775 16.6595C51.5821 16.7838 51.5284 16.9528 51.5139 17.1691L51.5139 17.169L51.5137 17.1726C51.5129 17.1906 51.5126 17.2086 51.5127 17.2265" fill="#06122E" stroke="#06122E" stroke-width="0.3"/>
<path d="M44.492 36.8491L44.383 36.9522C44.5465 37.125 44.806 37.1975 45.0402 37.181C45.2758 37.1644 45.528 37.0535 45.6472 36.8074L45.6475 36.8068C45.721 36.6534 45.7449 36.5068 45.7178 36.3659C45.6912 36.227 45.6181 36.1102 45.5275 36.0094C45.4375 35.9094 45.3239 35.8184 45.2056 35.7319C45.1447 35.6873 45.0742 35.6381 45.0033 35.5886C44.9439 35.5471 44.8842 35.5054 44.8297 35.4662L44.5111 35.2367L44.5955 35.6201C44.6373 35.8097 44.5415 35.9374 44.4087 36.1145C44.3966 36.1306 44.3841 36.1472 44.3715 36.1642C44.3045 36.2546 44.223 36.3719 44.2059 36.5114C44.187 36.6652 44.248 36.8108 44.3835 36.9527L44.492 36.8491ZM44.492 36.8491C44.24 36.5853 44.377 36.4047 44.5317 36.2009C44.626 36.0766 44.7269 35.9436 44.7503 35.7778C44.7195 35.7562 44.6877 35.7336 44.6544 35.7096L44.742 35.5879L44.8885 35.5556C44.8998 35.6069 44.9049 35.656 44.9051 35.703C44.9103 35.7066 44.9156 35.7103 44.9208 35.7139C45.3679 36.0258 45.7333 36.2806 45.5122 36.742C45.3355 37.1067 44.742 37.1134 44.492 36.8491Z" fill="#06122E" stroke="#06122E" stroke-width="0.3"/>
<path d="M61.1394 20.8728V20.5363L61.497 20.2224L61.0327 20.2909C61.009 20.2614 60.9815 20.228 60.9498 20.1961C60.9189 20.1641 60.8868 20.1295 60.8536 20.0937C60.7326 19.9632 60.5963 19.8163 60.4433 19.7142C60.232 19.5734 59.9776 19.507 59.6554 19.6134L59.6554 19.6134L59.6548 19.6136C59.5553 19.6469 59.4558 19.7117 59.3918 19.8045C59.3239 19.9029 59.2975 20.0337 59.3597 20.1672L59.4957 20.1038L59.3593 20.1662C59.4307 20.322 59.5249 20.4355 59.6391 20.5136C59.7525 20.5911 59.8763 20.6275 59.9974 20.6438C60.117 20.6599 60.2398 20.6572 60.3524 20.6526C60.3743 20.6517 60.3957 20.6507 60.4168 20.6498C60.508 20.6457 60.5918 20.6419 60.6736 20.6451L60.6749 20.6451C60.7484 20.6473 60.8173 20.6363 60.8764 20.6248C60.8899 20.6222 60.9026 20.6196 60.9146 20.6171L61.1394 20.8728Z" fill="#06122E" stroke="#06122E" stroke-width="0.3"/>
</svg>
