<svg width="364" height="43" viewBox="0 0 364 43" fill="none" xmlns="http://www.w3.org/2000/svg">
<path d="M362.676 9.36131C362.676 17.9631 362.676 26.6042 362.676 35.9431C328.702 35.7627 295.412 35.2138 262.045 35.747C263.123 26.4081 264.071 17.7122 263.221 9.30641C296.33 6.44437 329.727 10.1062 362.676 9.36131ZM291.876 10.3415C291.42 14.0817 291.451 17.8455 291.693 21.7896C296.049 21.7896 299.995 21.7896 304.321 21.7896C304.07 17.7985 304.267 14.0739 302.894 10.3415C299.403 10.3415 296.026 10.3415 291.876 10.3415ZM331.002 10.9139C327.465 10.9139 324.119 10.9139 320.446 10.9139C320.621 14.5992 320.78 18.1827 320.962 22.0249C324.68 21.8602 328.156 22.3777 331.707 21.6015C332.367 18.0651 331.715 14.7561 331.002 10.9139ZM334.037 33.6534C338.074 33.6534 341.792 33.6534 345.587 33.6534C346.725 30.2817 346.353 27.1138 346.11 23.5304C341.967 23.797 338.036 24.0558 333.908 24.3224C333.969 27.5059 333.248 30.415 334.037 33.6534ZM348.341 21.0996C352.78 21.9857 356.689 21.3584 360.695 20.9585C360.817 17.4535 361.242 14.3954 360.407 11.251C356.286 11.8783 352.249 11.0393 348.349 12.09C348.341 15.1324 348.341 17.9553 348.341 21.0996ZM306.301 33.426C310.399 33.426 314.224 33.426 318.109 33.426C318.67 30.3366 318.928 27.5608 318.708 24.6831C314.315 24.6831 310.255 24.6831 306.149 24.6831C305.785 27.6941 305.565 30.3915 306.301 33.426ZM289.235 32.9869C289.356 30.0308 290.123 27.2863 289.311 24.6909C284.856 24.6909 280.645 24.6909 276.433 24.6909C276.433 27.6078 276.433 30.1562 276.433 32.9869C280.804 32.9869 284.879 32.9869 289.235 32.9869ZM274.065 21.9386C273.466 18.2532 273.868 14.8658 272.715 11.4471C270.423 11.0707 268.23 11.0707 265.946 11.4C264.99 14.6228 264.762 17.7749 265.346 21.0604C268.108 21.8916 270.787 22.1817 274.065 21.9386Z" fill="#F6F5E9"/>
<path d="M262.387 2.79049C266.128 1.44964 269.436 2.21023 272.578 1.99852C289.098 0.900747 305.664 -0.0637153 322.176 1.72408C334.143 3.01789 346.095 3.59814 358.108 3.20608C359.648 3.15903 361.181 3.01005 363.609 2.85323C361.5 5.22128 359.572 4.86842 357.834 4.90762C345.442 5.18991 333.088 4.49204 320.727 3.62166C302.545 2.3357 284.371 2.93163 266.227 4.57044C264.861 4.68806 264.861 4.71159 262.387 2.79049Z" fill="#F6F5E9"/>
<path d="M360.748 40.3499C327.245 42.2788 294.053 42.6003 260.58 40.9929C261.377 38.6562 263.138 39.1737 264.648 39.2208C275.757 39.605 286.859 40.2009 297.969 40.3734C313.244 40.6087 328.512 39.8716 343.78 39.3462C348.326 39.1894 352.871 39.2286 357.417 39.26C358.441 39.2757 359.648 38.8287 360.748 40.3499Z" fill="#F6F5E9"/>
<path d="M193.855 9.36137C193.855 17.9632 193.855 26.6042 193.855 35.9431C159.881 35.7628 126.591 35.2139 93.2245 35.7471C94.302 26.4082 95.2506 17.7123 94.4007 9.30647C127.509 6.44443 160.906 10.1063 193.855 9.36137ZM123.055 10.3415C122.599 14.0818 122.63 17.8456 122.873 21.7897C127.228 21.7897 131.174 21.7897 135.5 21.7897C135.249 17.7985 135.447 14.0739 134.073 10.3415C130.582 10.3415 127.206 10.3415 123.055 10.3415ZM162.181 10.9139C158.645 10.9139 155.298 10.9139 151.625 10.9139C151.8 14.5993 151.959 18.1827 152.141 22.0249C155.86 21.8603 159.335 22.3778 162.886 21.6015C163.547 18.0651 162.894 14.7561 162.181 10.9139ZM165.216 33.6535C169.253 33.6535 172.972 33.6535 176.766 33.6535C177.904 30.2817 177.532 27.1139 177.289 23.5305C173.146 23.7971 169.215 24.0558 165.087 24.3224C165.148 27.506 164.427 30.415 165.216 33.6535ZM179.52 21.0997C183.96 21.9857 187.868 21.3584 191.874 20.9585C191.996 17.4535 192.421 14.3954 191.586 11.2511C187.466 11.8784 183.428 11.0394 179.528 12.0901C179.52 15.1325 179.52 17.9553 179.52 21.0997ZM137.48 33.4261C141.578 33.4261 145.403 33.4261 149.288 33.4261C149.85 30.3366 150.108 27.5608 149.887 24.6831C145.494 24.6831 141.434 24.6831 137.329 24.6831C136.964 27.6941 136.744 30.3915 137.48 33.4261ZM120.414 32.987C120.535 30.0308 121.302 27.2864 120.49 24.6909C116.035 24.6909 111.824 24.6909 107.612 24.6909C107.612 27.6079 107.612 30.1563 107.612 32.987C111.983 32.987 116.058 32.987 120.414 32.987ZM105.245 21.9387C104.645 18.2533 105.047 14.8659 103.894 11.4471C101.602 11.0707 99.409 11.0707 97.1249 11.4001C96.1688 14.6228 95.9411 17.775 96.5255 21.0605C99.2876 21.8916 101.966 22.1818 105.245 21.9387Z" fill="#F6F5E9"/>
<path d="M93.5659 2.79055C97.307 1.4497 100.616 2.21029 103.757 1.99858C120.277 0.900807 136.843 -0.0636543 153.355 1.72415C165.322 3.01795 177.274 3.5982 189.287 3.20614C190.827 3.15909 192.36 3.01011 194.788 2.85329C192.679 5.22134 190.751 4.86848 189.014 4.90768C176.622 5.18997 164.268 4.4921 151.906 3.62172C133.724 2.33576 115.55 2.93169 97.4057 4.5705C96.0398 4.68812 96.0398 4.71165 93.5659 2.79055Z" fill="#F6F5E9"/>
<path d="M191.927 40.35C158.424 42.2789 125.233 42.6004 91.7599 40.9929C92.5567 38.6562 94.3172 39.1738 95.8273 39.2208C106.937 39.605 118.039 40.201 129.148 40.3735C144.424 40.6087 159.692 39.8716 174.96 39.3463C179.505 39.1895 184.051 39.2287 188.596 39.26C189.621 39.2757 190.827 38.8288 191.927 40.35Z" fill="#F6F5E9"/>
<path d="M278.403 9.36137C278.403 17.9632 278.403 26.6042 278.403 35.9431C244.429 35.7628 211.139 35.2139 177.772 35.7471C178.85 26.4082 179.798 17.7123 178.949 9.30647C212.057 6.44443 245.454 10.1063 278.403 9.36137ZM207.603 10.3415C207.147 14.0818 207.178 17.8456 207.42 21.7897C211.776 21.7897 215.722 21.7897 220.048 21.7897C219.797 17.7985 219.994 14.0739 218.621 10.3415C215.13 10.3415 211.753 10.3415 207.603 10.3415ZM246.729 10.9139C243.192 10.9139 239.846 10.9139 236.173 10.9139C236.348 14.5993 236.507 18.1827 236.689 22.0249C240.407 21.8603 243.883 22.3778 247.434 21.6015C248.095 18.0651 247.442 14.7561 246.729 10.9139ZM249.764 33.6535C253.801 33.6535 257.519 33.6535 261.314 33.6535C262.452 30.2817 262.08 27.1139 261.837 23.5305C257.694 23.7971 253.763 24.0558 249.635 24.3224C249.696 27.506 248.975 30.415 249.764 33.6535ZM264.068 21.0997C268.507 21.9857 272.416 21.3584 276.422 20.9585C276.544 17.4535 276.969 14.3954 276.134 11.2511C272.013 11.8784 267.976 11.0394 264.076 12.0901C264.068 15.1325 264.068 17.9553 264.068 21.0997ZM222.028 33.4261C226.126 33.4261 229.951 33.4261 233.836 33.4261C234.397 30.3366 234.655 27.5608 234.435 24.6831C230.042 24.6831 225.982 24.6831 221.876 24.6831C221.512 27.6941 221.292 30.3915 222.028 33.4261ZM204.962 32.987C205.083 30.0308 205.85 27.2864 205.038 24.6909C200.583 24.6909 196.372 24.6909 192.16 24.6909C192.16 27.6079 192.16 30.1563 192.16 32.987C196.531 32.987 200.606 32.987 204.962 32.987ZM189.792 21.9387C189.193 18.2533 189.595 14.8659 188.442 11.4471C186.15 11.0707 183.957 11.0707 181.673 11.4001C180.717 14.6228 180.489 17.775 181.073 21.0605C183.835 21.8916 186.514 22.1818 189.792 21.9387Z" fill="#F6F5E9"/>
<path d="M270.146 2.79032C266.405 1.44947 263.097 2.21006 259.955 1.99835C243.435 0.900577 226.869 -0.0638882 210.357 1.72391C198.39 3.01771 186.438 3.59796 174.425 3.2059C172.885 3.15885 171.352 3.00987 168.924 2.85304C171.033 5.22109 172.961 4.86823 174.699 4.90744C187.091 5.18973 199.445 4.49186 211.806 3.62148C229.988 2.33552 248.162 2.93146 266.306 4.57028C267.672 4.68789 267.672 4.71142 270.146 2.79032Z" fill="#F6F5E9"/>
<path d="M273.126 40.35C239.623 42.2789 206.432 42.6004 172.959 40.9929C173.756 38.6562 175.516 39.1738 177.026 39.2208C188.136 39.605 199.238 40.201 210.347 40.3735C225.623 40.6087 240.891 39.8716 256.159 39.3463C260.704 39.1895 265.25 39.2287 269.795 39.26C270.82 39.2757 272.026 38.8288 273.126 40.35Z" fill="#F6F5E9"/>
<path d="M109.583 9.36137C109.583 17.9632 109.583 26.6042 109.583 35.9431C75.609 35.7628 42.3185 35.2139 8.95203 35.7471C10.0296 26.4082 10.9781 17.7123 10.1282 9.30647C43.2367 6.44443 76.6335 10.1063 109.583 9.36137ZM38.7822 10.3415C38.3269 14.0818 38.3573 17.8456 38.6001 21.7897C42.9559 21.7897 46.9019 21.7897 51.2273 21.7897C50.9769 17.7985 51.1742 14.0739 49.8006 10.3415C46.31 10.3415 42.9331 10.3415 38.7822 10.3415ZM77.9083 10.9139C74.3721 10.9139 71.0256 10.9139 67.3528 10.9139C67.5273 14.5993 67.6866 18.1827 67.8688 22.0249C71.5871 21.8603 75.0626 22.3778 78.614 21.6015C79.2742 18.0651 78.6216 14.7561 77.9083 10.9139ZM80.9437 33.6535C84.9808 33.6535 88.6991 33.6535 92.4933 33.6535C93.6316 30.2817 93.2597 27.1139 93.0169 23.5305C88.8736 23.7971 84.9428 24.0558 80.8147 24.3224C80.8754 27.506 80.1545 30.415 80.9437 33.6535ZM95.2479 21.0997C99.6872 21.9857 103.595 21.3584 107.602 20.9585C107.723 17.4535 108.148 14.3954 107.314 11.2511C103.193 11.8784 99.156 11.0394 95.2555 12.0901C95.2479 15.1325 95.2479 17.9553 95.2479 21.0997ZM53.2079 33.4261C57.3057 33.4261 61.1302 33.4261 65.0155 33.4261C65.5771 30.3366 65.8351 27.5608 65.615 24.6831C61.2213 24.6831 57.1615 24.6831 53.0561 24.6831C52.6919 27.6941 52.4718 30.3915 53.2079 33.4261ZM36.1414 32.987C36.2628 30.0308 37.0293 27.2864 36.2173 24.6909C31.7629 24.6909 27.5513 24.6909 23.3397 24.6909C23.3397 27.6079 23.3397 30.1563 23.3397 32.987C27.7107 32.987 31.7857 32.987 36.1414 32.987ZM20.9721 21.9387C20.3726 18.2533 20.7748 14.8659 19.6214 11.4471C17.3297 11.0707 15.1366 11.0707 12.8525 11.4001C11.8963 14.6228 11.6687 17.775 12.253 21.0605C15.0152 21.8916 17.6939 22.1818 20.9721 21.9387Z" fill="#F6F5E9"/>
<path d="M101.326 2.79032C97.5846 1.44947 94.276 2.21006 91.1343 1.99835C74.6143 0.900577 58.0487 -0.0638882 41.5362 1.72391C29.5692 3.01771 17.6174 3.59796 5.6049 3.2059C4.06445 3.15885 2.53158 3.00987 0.103272 2.85304C2.21286 5.22109 4.14032 4.86823 5.87807 4.90744C18.27 5.18973 30.624 4.49186 42.9856 3.62148C61.1676 2.33552 79.3419 2.93146 97.4859 4.57028C98.8518 4.68789 98.8518 4.71142 101.326 2.79032Z" fill="#F6F5E9"/>
<path d="M104.306 40.35C70.8034 42.2789 37.6115 42.6004 4.13879 40.9929C4.93559 38.6562 6.6961 39.1738 8.2062 39.2208C19.3157 39.605 30.4176 40.201 41.5271 40.3735C56.8026 40.6087 72.0706 39.8716 87.3386 39.3463C91.8841 39.1895 96.4296 39.2287 100.975 39.26C101.999 39.2757 103.206 38.8288 104.306 40.35Z" fill="#F6F5E9"/>
</svg>
