<svg width="274" height="424" viewBox="0 0 274 424" fill="none" xmlns="http://www.w3.org/2000/svg">
<rect x="17.9678" y="20.6523" width="236.67" height="386" fill="#E4C3AD" fill-opacity="0.85"/>
<path d="M265.758 305.297C258.515 305.297 251.239 305.297 243.376 305.297C243.528 276.691 243.99 248.659 243.541 220.564C251.405 221.472 258.727 222.27 265.805 221.555C268.214 249.433 265.131 277.553 265.758 305.297ZM264.933 245.682C261.784 245.298 258.614 245.324 255.293 245.528C255.293 249.196 255.293 252.519 255.293 256.161C258.654 255.95 261.79 256.116 264.933 254.96C264.933 252.02 264.933 249.177 264.933 245.682ZM264.451 278.627C264.451 275.649 264.451 272.831 264.451 269.739C261.348 269.886 258.331 270.02 255.095 270.173C255.234 273.304 254.798 276.231 255.452 279.221C258.43 279.777 261.216 279.227 264.451 278.627ZM245.304 281.182C245.304 284.582 245.304 287.713 245.304 290.907C248.143 291.866 250.81 291.553 253.828 291.348C253.603 287.86 253.385 284.55 253.161 281.074C250.48 281.125 248.031 280.518 245.304 281.182ZM255.874 293.227C255.128 296.965 255.657 300.255 255.993 303.629C258.945 303.731 261.52 304.089 264.167 303.386C263.639 299.917 264.345 296.518 263.461 293.233C260.899 293.227 258.522 293.227 255.874 293.227ZM245.495 257.828C245.495 261.279 245.495 264.499 245.495 267.771C248.097 268.244 250.434 268.461 252.857 268.275C252.857 264.576 252.857 261.157 252.857 257.701C250.322 257.394 248.051 257.209 245.495 257.828ZM245.865 243.458C248.354 243.56 250.665 244.206 252.851 243.522C252.851 239.771 252.851 236.225 252.851 232.679C250.394 232.679 248.249 232.679 245.865 232.679C245.865 236.359 245.865 239.791 245.865 243.458ZM255.168 230.685C258.271 230.181 261.123 230.519 264.002 229.548C264.319 227.618 264.319 225.772 264.042 223.848C261.328 223.043 258.674 222.852 255.907 223.344C255.208 225.67 254.963 227.925 255.168 230.685Z" fill="#3D2645"/>
<path d="M271.289 220.851C272.418 224.001 271.778 226.787 271.956 229.432C272.881 243.342 273.693 257.291 272.187 271.195C271.098 281.271 270.609 291.335 270.939 301.45C270.979 302.747 271.104 304.037 271.237 306.082C269.243 304.306 269.54 302.683 269.507 301.22C269.269 290.785 269.857 280.383 270.59 269.974C271.672 254.665 271.171 239.362 269.791 224.084C269.692 222.934 269.672 222.934 271.289 220.851Z" fill="#3D2645"/>
<path d="M239.663 303.676C238.039 275.466 237.768 247.517 239.122 219.333C241.089 220.004 240.653 221.486 240.614 222.758C240.29 232.112 239.788 241.46 239.643 250.815C239.445 263.677 240.066 276.533 240.508 289.389C240.64 293.216 240.607 297.043 240.581 300.871C240.567 301.733 240.944 302.749 239.663 303.676Z" fill="#3D2645"/>
<path d="M265.758 421.078C258.515 421.078 251.239 421.078 243.376 421.078C243.528 392.472 243.99 364.441 243.541 336.346C251.405 337.253 258.727 338.052 265.805 337.336C268.214 365.214 265.131 393.334 265.758 421.078ZM264.933 361.463C261.784 361.08 258.614 361.105 255.293 361.31C255.293 364.977 255.293 368.3 255.293 371.942C258.654 371.731 261.79 371.897 264.933 370.741C264.933 367.802 264.933 364.958 264.933 361.463ZM264.451 394.408C264.451 391.43 264.451 388.612 264.451 385.52C261.348 385.667 258.331 385.801 255.095 385.954C255.234 389.085 254.798 392.012 255.452 395.002C258.43 395.558 261.216 395.009 264.451 394.408ZM245.304 396.964C245.304 400.363 245.304 403.494 245.304 406.689C248.143 407.647 250.81 407.334 253.828 407.13C253.603 403.641 253.385 400.331 253.161 396.855C250.48 396.906 248.031 396.299 245.304 396.964ZM255.874 409.008C255.128 412.746 255.657 416.037 255.993 419.41C258.945 419.513 261.52 419.87 264.167 419.168C263.639 415.698 264.345 412.299 263.461 409.015C260.899 409.008 258.522 409.008 255.874 409.008ZM245.495 373.61C245.495 377.06 245.495 380.28 245.495 383.552C248.097 384.025 250.434 384.242 252.857 384.057C252.857 380.357 252.857 376.939 252.857 373.482C250.322 373.175 248.051 372.99 245.495 373.61ZM245.865 359.239C248.354 359.342 250.665 359.987 252.851 359.303C252.851 355.553 252.851 352.006 252.851 348.46C250.394 348.46 248.249 348.46 245.865 348.46C245.865 352.141 245.865 355.572 245.865 359.239ZM255.168 346.467C258.271 345.962 261.123 346.301 264.002 345.329C264.319 343.4 264.319 341.553 264.042 339.63C261.328 338.825 258.674 338.633 255.907 339.125C255.208 341.451 254.963 343.706 255.168 346.467Z" fill="#3D2645"/>
<path d="M271.289 336.632C272.418 339.782 271.778 342.568 271.956 345.214C272.881 359.124 273.693 373.072 272.187 386.976C271.098 397.052 270.609 407.116 270.939 417.231C270.979 418.528 271.104 419.819 271.237 421.863C269.243 420.087 269.54 418.464 269.507 417.001C269.269 406.567 269.857 396.164 270.59 385.756C271.672 370.446 271.171 355.143 269.791 339.865C269.692 338.715 269.672 338.715 271.289 336.632Z" fill="#3D2645"/>
<path d="M239.663 419.457C238.039 391.247 237.768 363.299 239.122 335.114C241.089 335.785 240.653 337.267 240.614 338.539C240.29 347.893 239.788 357.241 239.643 366.596C239.445 379.458 240.066 392.314 240.508 405.17C240.64 408.997 240.607 412.825 240.581 416.652C240.567 417.515 240.944 418.531 239.663 419.457Z" fill="#3D2645"/>
<path d="M265.755 163.145C258.512 163.145 251.237 163.145 243.373 163.145C243.525 134.538 243.987 106.507 243.538 78.4119C251.402 79.3192 258.724 80.1179 265.802 79.4023C268.211 107.28 265.128 135.401 265.755 163.145ZM264.93 103.529C261.781 103.146 258.612 103.172 255.29 103.376C255.29 107.044 255.29 110.366 255.29 114.008C258.651 113.798 261.787 113.964 264.93 112.807C264.93 109.868 264.93 107.025 264.93 103.529ZM264.448 136.474C264.448 133.497 264.448 130.679 264.448 127.586C261.345 127.733 258.328 127.867 255.092 128.021C255.231 131.152 254.795 134.078 255.449 137.069C258.427 137.624 261.213 137.075 264.448 136.474ZM245.301 139.03C245.301 142.429 245.301 145.56 245.301 148.755C248.14 149.714 250.807 149.4 253.825 149.196C253.6 145.707 253.382 142.397 253.158 138.921C250.477 138.973 248.028 138.366 245.301 139.03ZM255.871 151.075C255.125 154.812 255.654 158.103 255.99 161.477C258.942 161.579 261.517 161.937 264.164 161.234C263.636 157.764 264.342 154.365 263.458 151.081C260.896 151.075 258.519 151.075 255.871 151.075ZM245.492 115.676C245.492 119.127 245.492 122.347 245.492 125.618C248.094 126.091 250.431 126.308 252.854 126.123C252.854 122.424 252.854 119.005 252.854 115.548C250.319 115.242 248.048 115.056 245.492 115.676ZM245.862 101.306C248.351 101.408 250.662 102.053 252.848 101.37C252.848 97.6191 252.848 94.0728 252.848 90.5266C250.391 90.5266 248.246 90.5266 245.862 90.5266C245.862 94.207 245.862 97.6382 245.862 101.306ZM255.165 88.533C258.268 88.0283 261.12 88.3669 263.999 87.3957C264.316 85.466 264.316 83.6194 264.039 81.6961C261.325 80.8911 258.671 80.6994 255.905 81.1914C255.205 83.5172 254.96 85.7727 255.165 88.533Z" fill="#3D2645"/>
<path d="M271.289 78.6987C272.418 81.8487 271.778 84.6346 271.956 87.2799C272.881 101.19 273.693 115.139 272.187 129.042C271.098 139.119 270.609 149.182 270.939 159.297C270.979 160.594 271.104 161.885 271.237 163.93C269.243 162.153 269.54 160.53 269.507 159.067C269.269 148.633 269.857 138.231 270.59 127.822C271.672 112.512 271.171 97.2094 269.791 81.9318C269.692 80.7817 269.672 80.7817 271.289 78.6987Z" fill="#3D2645"/>
<path d="M239.663 161.523C238.039 133.313 237.768 105.365 239.122 77.1806C241.089 77.8515 240.653 79.3339 240.614 80.6054C240.29 89.9598 239.788 99.3078 239.643 108.662C239.445 121.524 240.066 134.38 240.508 147.236C240.64 151.064 240.607 154.891 240.581 158.718C240.567 159.581 240.944 160.597 239.663 161.523Z" fill="#3D2645"/>
<path d="M265.758 234.328C258.515 234.328 251.239 234.328 243.376 234.328C243.528 205.722 243.99 177.691 243.541 149.596C251.405 150.503 258.727 151.302 265.805 150.586C268.214 178.464 265.131 206.584 265.758 234.328ZM264.933 174.713C261.784 174.33 258.614 174.355 255.293 174.56C255.293 178.227 255.293 181.55 255.293 185.192C258.654 184.981 261.79 185.147 264.933 183.991C264.933 181.052 264.933 178.208 264.933 174.713ZM264.451 207.658C264.451 204.68 264.451 201.862 264.451 198.77C261.348 198.917 258.331 199.051 255.095 199.204C255.234 202.335 254.798 205.262 255.452 208.252C258.43 208.808 261.216 208.259 264.451 207.658ZM245.304 210.214C245.304 213.613 245.304 216.744 245.304 219.939C248.143 220.897 250.81 220.584 253.828 220.38C253.603 216.891 253.385 213.581 253.161 210.105C250.48 210.156 248.031 209.549 245.304 210.214ZM255.874 222.258C255.128 225.996 255.657 229.287 255.993 232.66C258.945 232.763 261.52 233.12 264.167 232.418C263.639 228.948 264.345 225.549 263.461 222.265C260.899 222.258 258.522 222.258 255.874 222.258ZM245.495 186.86C245.495 190.31 245.495 193.53 245.495 196.802C248.097 197.275 250.434 197.492 252.857 197.307C252.857 193.607 252.857 190.189 252.857 186.732C250.322 186.425 248.051 186.24 245.495 186.86ZM245.865 172.489C248.354 172.592 250.665 173.237 252.851 172.553C252.851 168.803 252.851 165.256 252.851 161.71C250.394 161.71 248.249 161.71 245.865 161.71C245.865 165.391 245.865 168.822 245.865 172.489ZM255.168 159.717C258.271 159.212 261.123 159.551 264.002 158.579C264.319 156.65 264.319 154.803 264.042 152.88C261.328 152.075 258.674 151.883 255.907 152.375C255.208 154.701 254.963 156.956 255.168 159.717Z" fill="#3D2645"/>
<path d="M271.289 227.376C272.418 224.225 271.778 221.44 271.956 218.794C272.881 204.884 273.693 190.936 272.187 177.032C271.098 166.955 270.609 156.892 270.939 146.777C270.979 145.48 271.104 144.189 271.237 142.145C269.243 143.921 269.54 145.544 269.507 147.007C269.269 157.441 269.857 167.844 270.589 178.252C271.672 193.562 271.171 208.865 269.791 224.142C269.692 225.293 269.672 225.293 271.289 227.376Z" fill="#3D2645"/>
<path d="M239.663 229.887C238.039 201.677 237.768 173.728 239.122 145.544C241.089 146.215 240.653 147.697 240.614 148.969C240.29 158.323 239.788 167.671 239.643 177.025C239.445 189.888 240.066 202.744 240.508 215.6C240.64 219.427 240.607 223.254 240.581 227.082C240.567 227.944 240.944 228.96 239.663 229.887Z" fill="#3D2645"/>
<path d="M265.756 92.1836C258.513 92.1836 251.238 92.1836 243.374 92.1836C243.526 63.5773 243.988 35.5461 243.539 7.45097C251.403 8.3583 258.725 9.15699 265.803 8.44136C268.212 36.3192 265.129 64.4399 265.756 92.1836ZM264.931 32.5685C261.782 32.1852 258.612 32.2107 255.291 32.4152C255.291 36.0828 255.291 39.4054 255.291 43.0475C258.652 42.8366 261.788 43.0027 264.931 41.8462C264.931 38.907 264.931 36.0637 264.931 32.5685ZM264.449 65.5134C264.449 62.5358 264.449 59.718 264.449 56.6254C261.346 56.7724 258.329 56.9065 255.093 57.0599C255.232 60.1908 254.796 63.1173 255.45 66.1076C258.428 66.6635 261.214 66.114 264.449 65.5134ZM245.302 68.0692C245.302 71.4685 245.302 74.5994 245.302 77.7942C248.141 78.7526 250.808 78.4395 253.826 78.2351C253.601 74.7463 253.383 71.4365 253.159 67.9606C250.478 68.0117 248.029 67.4047 245.302 68.0692ZM255.872 80.1136C255.126 83.8515 255.655 87.1422 255.991 90.5159C258.943 90.6182 261.518 90.976 264.165 90.2731C263.637 86.8036 264.343 83.4043 263.459 80.12C260.897 80.1136 258.52 80.1136 255.872 80.1136ZM245.493 44.7152C245.493 48.1656 245.493 51.3859 245.493 54.6574C248.095 55.1303 250.432 55.3475 252.855 55.1622C252.855 51.4626 252.855 48.0442 252.855 44.5874C250.32 44.2807 248.049 44.0954 245.493 44.7152ZM245.863 30.3449C248.352 30.4472 250.663 31.0925 252.849 30.4088C252.849 26.6581 252.849 23.1119 252.849 19.5657C250.392 19.5657 248.247 19.5657 245.863 19.5657C245.863 23.2461 245.863 26.6773 245.863 30.3449ZM255.166 17.5721C258.269 17.0673 261.121 17.406 264 16.4348C264.317 14.5051 264.317 12.6585 264.04 10.7352C261.326 9.93012 258.672 9.73844 255.905 10.2304C255.206 12.5563 254.961 14.8118 255.166 17.5721Z" fill="#3D2645"/>
<path d="M271.289 85.231C272.418 82.081 271.778 79.2951 271.956 76.6498C272.881 62.7396 273.693 48.7911 272.187 34.8873C271.098 24.8108 270.609 14.7472 270.939 4.63247C270.979 3.33538 271.104 2.04468 271.237 2.31354e-07C269.243 1.77631 269.54 3.39926 269.507 4.86248C269.269 15.2967 269.857 25.699 270.589 36.1077C271.672 51.4172 271.171 66.7203 269.791 81.9979C269.692 83.148 269.672 83.148 271.289 85.231Z" fill="#3D2645"/>
<path d="M239.663 87.7422C238.039 59.5321 237.768 31.5839 239.122 3.39933C241.089 4.07024 240.653 5.55262 240.614 6.82416C240.29 16.1785 239.788 25.5265 239.643 34.8809C239.445 47.7432 240.066 60.5991 240.508 73.455C240.64 77.2824 240.607 81.1098 240.581 84.9371C240.567 85.7997 240.944 86.8157 239.663 87.7422Z" fill="#3D2645"/>
<path d="M265.756 373.441C258.513 373.441 251.238 373.441 243.374 373.441C243.526 344.835 243.988 316.804 243.539 288.709C251.403 289.616 258.725 290.415 265.803 289.699C268.212 317.577 265.129 345.698 265.756 373.441ZM264.931 313.826C261.782 313.443 258.612 313.469 255.291 313.673C255.291 317.341 255.291 320.663 255.291 324.305C258.652 324.094 261.788 324.261 264.931 323.104C264.931 320.165 264.931 317.321 264.931 313.826ZM264.449 346.771C264.449 343.794 264.449 340.976 264.449 337.883C261.346 338.03 258.329 338.164 255.093 338.318C255.232 341.449 254.796 344.375 255.45 347.365C258.428 347.921 261.214 347.372 264.449 346.771ZM245.302 349.327C245.302 352.726 245.302 355.857 245.302 359.052C248.141 360.01 250.808 359.697 253.826 359.493C253.601 356.004 253.383 352.694 253.159 349.218C250.478 349.269 248.029 348.663 245.302 349.327ZM255.872 361.371C255.126 365.109 255.655 368.4 255.991 371.774C258.943 371.876 261.518 372.234 264.165 371.531C263.637 368.061 264.343 364.662 263.459 361.378C260.897 361.371 258.52 361.371 255.872 361.371ZM245.493 325.973C245.493 329.423 245.493 332.644 245.493 335.915C248.095 336.388 250.432 336.605 252.855 336.42C252.855 332.72 252.855 329.302 252.855 325.845C250.32 325.539 248.049 325.353 245.493 325.973ZM245.863 311.603C248.352 311.705 250.663 312.35 252.849 311.667C252.849 307.916 252.849 304.37 252.849 300.823C250.392 300.823 248.247 300.823 245.863 300.823C245.863 304.504 245.863 307.935 245.863 311.603ZM255.166 298.83C258.269 298.325 261.121 298.664 264 297.693C264.317 295.763 264.317 293.916 264.04 291.993C261.326 291.188 258.672 290.996 255.905 291.488C255.206 293.814 254.961 296.07 255.166 298.83Z" fill="#3D2645"/>
<path d="M271.289 366.489C272.418 363.339 271.778 360.553 271.956 357.908C272.881 343.997 273.693 330.049 272.187 316.145C271.098 306.069 270.609 296.005 270.939 285.89C270.979 284.593 271.104 283.302 271.237 281.258C269.243 283.034 269.54 284.657 269.507 286.12C269.269 296.555 269.857 306.957 270.589 317.366C271.672 332.675 271.171 347.978 269.791 363.256C269.692 364.406 269.672 364.406 271.289 366.489Z" fill="#3D2645"/>
<path d="M239.663 369.004C238.039 340.794 237.768 312.846 239.122 284.661C241.089 285.332 240.653 286.814 240.614 288.086C240.29 297.44 239.788 306.788 239.643 316.143C239.445 329.005 240.066 341.861 240.508 354.717C240.64 358.544 240.607 362.371 240.581 366.199C240.567 367.061 240.944 368.077 239.663 369.004Z" fill="#3D2645"/>
<path d="M184.738 396.473C184.738 403.716 184.738 410.992 184.738 418.855C155.494 418.704 126.837 418.241 98.1154 418.69C99.043 410.827 99.8595 403.505 99.1279 396.427C127.628 394.017 156.376 397.1 184.738 396.473ZM123.793 397.298C123.401 400.448 123.427 403.617 123.637 406.938C127.386 406.938 130.783 406.938 134.506 406.938C134.29 403.577 134.46 400.441 133.278 397.298C130.273 397.298 127.366 397.298 123.793 397.298ZM157.473 397.78C154.429 397.78 151.548 397.78 148.387 397.78C148.537 400.884 148.674 403.901 148.831 407.136C152.032 406.997 155.024 407.433 158.081 406.78C158.649 403.802 158.087 401.016 157.473 397.78ZM160.086 416.928C163.561 416.928 166.762 416.928 170.028 416.928C171.008 414.088 170.688 411.421 170.479 408.404C166.912 408.628 163.528 408.846 159.975 409.071C160.027 411.751 159.407 414.201 160.086 416.928ZM172.399 406.357C176.22 407.103 179.584 406.575 183.033 406.238C183.138 403.287 183.504 400.712 182.785 398.064C179.238 398.593 175.763 397.886 172.406 398.771C172.399 401.333 172.399 403.709 172.399 406.357ZM136.211 416.736C139.738 416.736 143.03 416.736 146.375 416.736C146.858 414.135 147.08 411.797 146.891 409.374C143.109 409.374 139.614 409.374 136.08 409.374C135.767 411.91 135.577 414.181 136.211 416.736ZM121.52 416.366C121.625 413.877 122.284 411.566 121.585 409.381C117.751 409.381 114.126 409.381 110.5 409.381C110.5 411.837 110.5 413.983 110.5 416.366C114.263 416.366 117.771 416.366 121.52 416.366ZM108.462 407.063C107.946 403.96 108.292 401.108 107.3 398.229C105.327 397.912 103.439 397.912 101.473 398.19C100.65 400.903 100.454 403.558 100.957 406.324C103.335 407.024 105.64 407.268 108.462 407.063Z" fill="#3D2645"/>
<path d="M98.4086 390.945C101.629 389.816 104.477 390.456 107.181 390.278C121.402 389.354 135.661 388.542 149.875 390.047C160.177 391.136 170.465 391.625 180.805 391.295C182.131 391.255 183.451 391.13 185.541 390.998C183.725 392.992 182.066 392.695 180.57 392.728C169.903 392.965 159.269 392.378 148.628 391.645C132.977 390.562 117.332 391.064 101.714 392.444C100.538 392.543 100.538 392.563 98.4086 390.945Z" fill="#3D2645"/>
<path d="M183.08 422.569C154.241 424.193 125.669 424.463 96.8556 423.11C97.5415 421.142 99.057 421.578 100.357 421.618C109.92 421.941 119.476 422.443 129.04 422.588C142.189 422.786 155.331 422.166 168.474 421.723C172.387 421.591 176.3 421.624 180.212 421.651C181.094 421.664 182.133 421.288 183.08 422.569Z" fill="#3D2645"/>
<path d="M257.515 396.469C257.515 403.712 257.515 410.988 257.515 418.852C228.27 418.7 199.614 418.238 170.892 418.686C171.819 410.823 172.636 403.501 171.904 396.423C200.404 394.013 229.152 397.096 257.515 396.469ZM196.57 397.295C196.178 400.444 196.204 403.613 196.413 406.934C200.162 406.934 203.559 406.934 207.282 406.934C207.067 403.573 207.237 400.437 206.054 397.295C203.05 397.295 200.143 397.295 196.57 397.295ZM230.249 397.777C227.205 397.777 224.325 397.777 221.163 397.777C221.313 400.88 221.451 403.897 221.607 407.132C224.808 406.994 227.8 407.429 230.857 406.776C231.425 403.798 230.863 401.012 230.249 397.777ZM232.862 416.924C236.337 416.924 239.538 416.924 242.804 416.924C243.784 414.085 243.464 411.417 243.255 408.4C239.688 408.624 236.305 408.842 232.751 409.067C232.803 411.747 232.183 414.197 232.862 416.924ZM245.175 406.353C248.997 407.099 252.361 406.571 255.81 406.234C255.914 403.283 256.28 400.708 255.562 398.06C252.015 398.589 248.539 397.882 245.182 398.767C245.175 401.329 245.175 403.706 245.175 406.353ZM208.987 416.732C212.515 416.732 215.807 416.732 219.151 416.732C219.635 414.131 219.857 411.794 219.667 409.37C215.885 409.37 212.391 409.37 208.857 409.37C208.543 411.906 208.354 414.177 208.987 416.732ZM194.296 416.362C194.401 413.873 195.061 411.562 194.362 409.377C190.527 409.377 186.902 409.377 183.277 409.377C183.277 411.833 183.277 413.979 183.277 416.362C187.039 416.362 190.547 416.362 194.296 416.362ZM181.239 407.06C180.723 403.956 181.069 401.104 180.076 398.226C178.103 397.909 176.215 397.909 174.249 398.186C173.426 400.9 173.23 403.554 173.733 406.32C176.111 407.02 178.417 407.264 181.239 407.06Z" fill="#3D2645"/>
<path d="M250.409 390.937C247.188 389.808 244.34 390.449 241.636 390.27C227.416 389.346 213.156 388.534 198.942 390.039C188.641 391.129 178.353 391.617 168.012 391.287C166.686 391.248 165.367 391.122 163.276 390.99C165.092 392.984 166.751 392.687 168.247 392.72C178.914 392.958 189.549 392.37 200.19 391.637C215.841 390.554 231.485 391.056 247.103 392.436C248.279 392.535 248.279 392.555 250.409 390.937Z" fill="#3D2645"/>
<path d="M252.974 422.569C224.134 424.193 195.563 424.463 166.749 423.11C167.435 421.142 168.951 421.578 170.25 421.618C179.813 421.941 189.37 422.443 198.933 422.588C212.082 422.786 225.225 422.166 238.368 421.723C242.28 421.591 246.193 421.624 250.106 421.651C250.988 421.664 252.026 421.288 252.974 422.569Z" fill="#3D2645"/>
<path d="M112.196 396.473C112.196 403.716 112.196 410.992 112.196 418.855C82.9518 418.704 54.2953 418.241 25.5734 418.69C26.501 410.827 27.3175 403.505 26.5859 396.427C55.0857 394.017 83.8337 397.1 112.196 396.473ZM51.2513 397.298C50.8594 400.448 50.8855 403.617 51.0945 406.938C54.844 406.938 58.2407 406.938 61.964 406.938C61.7484 403.577 61.9183 400.441 60.736 397.298C57.7312 397.298 54.8244 397.298 51.2513 397.298ZM84.9311 397.78C81.8871 397.78 79.0064 397.78 75.8448 397.78C75.9951 400.884 76.1322 403.901 76.289 407.136C79.4898 406.997 82.4815 407.433 85.5386 406.78C86.1069 403.802 85.5451 401.016 84.9311 397.78ZM87.5439 416.928C91.0191 416.928 94.2198 416.928 97.4859 416.928C98.4657 414.088 98.1456 411.421 97.9366 408.404C94.37 408.628 90.9864 408.846 87.4329 409.071C87.4851 411.751 86.8646 414.201 87.5439 416.928ZM99.857 406.357C103.678 407.103 107.042 406.575 110.491 406.238C110.596 403.287 110.962 400.712 110.243 398.064C106.696 398.593 103.221 397.886 99.8636 398.771C99.857 401.333 99.857 403.709 99.857 406.357ZM63.6689 416.736C67.1963 416.736 70.4885 416.736 73.833 416.736C74.3163 414.135 74.5384 411.797 74.349 409.374C70.5669 409.374 67.0722 409.374 63.5383 409.374C63.2247 411.91 63.0353 414.181 63.6689 416.736ZM48.9781 416.366C49.0826 413.877 49.7424 411.566 49.0434 409.381C45.209 409.381 41.5837 409.381 37.9583 409.381C37.9583 411.837 37.9583 413.983 37.9583 416.366C41.7209 416.366 45.2286 416.366 48.9781 416.366ZM35.9203 407.063C35.4043 403.96 35.7505 401.108 34.7576 398.229C32.7849 397.912 30.8971 397.912 28.9309 398.19C28.1078 400.903 27.9119 403.558 28.4149 406.324C30.7926 407.024 33.0984 407.268 35.9203 407.063Z" fill="#3D2645"/>
<path d="M105.09 390.937C101.87 389.808 99.022 390.449 96.3177 390.27C82.0972 389.346 67.8375 388.534 53.6236 390.039C43.3223 391.129 33.0342 391.617 22.6938 391.287C21.3678 391.248 20.0483 391.122 17.958 390.99C19.7739 392.984 21.4331 392.687 22.929 392.72C33.596 392.958 44.2303 392.37 54.8712 391.637C70.5223 390.554 86.1667 391.056 101.785 392.436C102.961 392.535 102.961 392.555 105.09 390.937Z" fill="#3D2645"/>
<path d="M107.655 422.569C78.8158 424.193 50.2442 424.463 21.4308 423.11C22.1167 421.142 23.6322 421.578 24.9321 421.618C34.4951 421.941 44.0517 422.443 53.6147 422.588C66.764 422.786 79.9067 422.166 93.0493 421.723C96.9621 421.591 100.875 421.624 104.788 421.651C105.669 421.664 106.708 421.288 107.655 422.569Z" fill="#3D2645"/>
<path d="M174.41 9.47317C174.41 16.7161 174.41 23.992 174.41 31.8555C145.166 31.7036 116.509 31.2414 87.7873 31.6904C88.7148 23.8269 89.5313 16.5048 88.7997 9.42695C117.3 7.01706 146.048 10.1004 174.41 9.47317ZM113.465 10.2985C113.073 13.4478 113.099 16.617 113.308 19.938C117.058 19.938 120.455 19.938 124.178 19.938C123.962 16.5774 124.132 13.4412 122.95 10.2985C119.945 10.2985 117.038 10.2985 113.465 10.2985ZM147.145 10.7805C144.101 10.7805 141.22 10.7805 138.059 10.7805C138.209 13.8836 138.346 16.9009 138.503 20.1361C141.704 19.9975 144.695 20.4332 147.752 19.7796C148.321 16.8019 147.759 14.0157 147.145 10.7805ZM149.758 29.9275C153.233 29.9275 156.434 29.9275 159.7 29.9275C160.68 27.0885 160.359 24.4211 160.15 21.4038C156.584 21.6283 153.2 21.8462 149.647 22.0706C149.699 24.7512 149.078 27.2007 149.758 29.9275ZM162.071 19.357C165.892 20.1031 169.256 19.5749 172.705 19.2382C172.81 16.2869 173.176 13.7119 172.457 11.0644C168.91 11.5926 165.435 10.8861 162.077 11.7708C162.071 14.3326 162.071 16.7095 162.071 19.357ZM125.883 29.7361C129.41 29.7361 132.702 29.7361 136.047 29.7361C136.53 27.1347 136.752 24.7974 136.563 22.3744C132.781 22.3744 129.286 22.3744 125.752 22.3744C125.439 24.9097 125.249 27.1809 125.883 29.7361ZM111.192 29.3663C111.296 26.8772 111.956 24.5664 111.257 22.3809C107.423 22.3809 103.798 22.3809 100.172 22.3809C100.172 24.8371 100.172 26.9829 100.172 29.3663C103.935 29.3663 107.442 29.3663 111.192 29.3663ZM98.1342 20.0635C97.6181 16.9603 97.9644 14.1081 96.9715 11.2294C94.9988 10.9125 93.1109 10.9125 91.1448 11.1898C90.3217 13.9034 90.1258 16.5576 90.6287 19.324C93.0064 20.0239 95.3123 20.2682 98.1342 20.0635Z" fill="#3D2645"/>
<path d="M88.0805 3.94501C91.3008 2.81599 94.1489 3.45642 96.8532 3.27815C111.074 2.35381 125.333 1.54172 139.547 3.04708C149.849 4.13648 160.137 4.62506 170.477 4.29494C171.803 4.25533 173.123 4.12988 175.213 3.99784C173.397 5.99177 171.738 5.69466 170.242 5.72767C159.575 5.96536 148.941 5.37774 138.3 4.64487C122.649 3.56207 107.004 4.06385 91.3858 5.44376C90.21 5.5428 90.21 5.56261 88.0805 3.94501Z" fill="#3D2645"/>
<path d="M172.752 35.5685C143.912 37.1927 115.341 37.4634 86.5275 36.1099C87.2134 34.1424 88.7288 34.5782 90.0287 34.6178C99.5918 34.9413 109.148 35.4431 118.711 35.5883C131.861 35.7864 145.003 35.1658 158.146 34.7234C162.059 34.5914 165.972 34.6244 169.884 34.6508C170.766 34.664 171.805 34.2877 172.752 35.5685Z" fill="#3D2645"/>
<path d="M247.185 9.46927C247.185 16.7122 247.185 23.988 247.185 31.8516C217.94 31.6997 189.284 31.2375 160.562 31.6865C161.489 23.823 162.306 16.5009 161.574 9.42304C190.074 7.01315 218.822 10.0965 247.185 9.46927ZM186.24 10.2946C185.848 13.4439 185.874 16.6131 186.083 19.9341C189.832 19.9341 193.229 19.9341 196.952 19.9341C196.737 16.5735 196.907 13.4373 195.724 10.2946C192.719 10.2946 189.813 10.2946 186.24 10.2946ZM219.919 10.7765C216.875 10.7765 213.995 10.7765 210.833 10.7765C210.983 13.8797 211.121 16.897 211.277 20.1322C214.478 19.9936 217.47 20.4293 220.527 19.7757C221.095 16.798 220.533 14.0117 219.919 10.7765ZM222.532 29.9236C226.007 29.9236 229.208 29.9236 232.474 29.9236C233.454 27.0846 233.134 24.4172 232.925 21.3999C229.358 21.6244 225.975 21.8423 222.421 22.0667C222.473 24.7473 221.853 27.1968 222.532 29.9236ZM234.845 19.3531C238.667 20.0992 242.031 19.571 245.48 19.2343C245.584 16.283 245.95 13.708 245.231 11.0605C241.685 11.5886 238.209 10.8822 234.852 11.7669C234.845 14.3287 234.845 16.7055 234.845 19.3531ZM198.657 29.7322C202.185 29.7322 205.477 29.7322 208.821 29.7322C209.305 27.1308 209.527 24.7935 209.337 22.3704C205.555 22.3704 202.06 22.3704 198.527 22.3704C198.213 24.9058 198.024 27.177 198.657 29.7322ZM183.966 29.3624C184.071 26.8733 184.731 24.5625 184.032 22.377C180.197 22.377 176.572 22.377 172.947 22.377C172.947 24.8332 172.947 26.9789 172.947 29.3624C176.709 29.3624 180.217 29.3624 183.966 29.3624ZM170.909 20.0596C170.393 16.9564 170.739 14.1042 169.746 11.2255C167.773 10.9086 165.885 10.9086 163.919 11.1859C163.096 13.8995 162.9 16.5537 163.403 19.3201C165.781 20.02 168.087 20.2643 170.909 20.0596Z" fill="#3D2645"/>
<path d="M240.079 3.93721C236.858 2.80819 234.01 3.44862 231.306 3.27036C217.085 2.34601 202.826 1.53392 188.612 3.03927C178.311 4.12867 168.023 4.61725 157.682 4.28713C156.356 4.24752 155.037 4.12207 152.946 3.99002C154.762 5.98396 156.421 5.68685 157.917 5.71986C168.584 5.95755 179.219 5.36993 189.86 4.63706C205.511 3.55426 221.155 4.05605 236.773 5.43596C237.949 5.535 237.949 5.55481 240.079 3.93721Z" fill="#3D2645"/>
<path d="M242.644 35.5685C213.804 37.1927 185.232 37.4634 156.419 36.1099C157.105 34.1424 158.62 34.5782 159.92 34.6178C169.483 34.9413 179.04 35.4431 188.603 35.5883C201.752 35.7864 214.895 35.1658 228.038 34.7234C231.95 34.5914 235.863 34.6244 239.776 34.6508C240.658 34.664 241.696 34.2877 242.644 35.5685Z" fill="#3D2645"/>
<path d="M101.867 9.47317C101.867 16.7161 101.867 23.992 101.867 31.8555C72.6227 31.7036 43.9662 31.2414 15.2443 31.6904C16.1719 23.8269 16.9884 16.5048 16.2568 9.42695C44.7566 7.01706 73.5046 10.1004 101.867 9.47317ZM40.9222 10.2985C40.5303 13.4478 40.5564 16.617 40.7654 19.938C44.5149 19.938 47.9116 19.938 51.6349 19.938C51.4193 16.5774 51.5892 13.4412 50.4069 10.2985C47.4021 10.2985 44.4953 10.2985 40.9222 10.2985ZM74.602 10.7805C71.558 10.7805 68.6773 10.7805 65.5157 10.7805C65.666 13.8836 65.8031 16.9009 65.9599 20.1361C69.1607 19.9975 72.1524 20.4332 75.2095 19.7796C75.7778 16.8019 75.216 14.0157 74.602 10.7805ZM77.2148 29.9275C80.6899 29.9275 83.8907 29.9275 87.1568 29.9275C88.1366 27.0885 87.8165 24.4211 87.6075 21.4038C84.0409 21.6283 80.6573 21.8462 77.1038 22.0706C77.156 24.7512 76.5355 27.2007 77.2148 29.9275ZM89.5279 19.357C93.3492 20.1031 96.7133 19.5749 100.162 19.2382C100.267 16.2869 100.633 13.7119 99.9141 11.0644C96.3671 11.5926 92.892 10.8861 89.5345 11.7708C89.5279 14.3326 89.5279 16.7095 89.5279 19.357ZM53.3398 29.7361C56.8672 29.7361 60.1594 29.7361 63.5039 29.7361C63.9872 27.1347 64.2093 24.7974 64.0199 22.3744C60.2378 22.3744 56.7431 22.3744 53.2092 22.3744C52.8956 24.9097 52.7062 27.1809 53.3398 29.7361ZM38.649 29.3663C38.7535 26.8772 39.4133 24.5664 38.7143 22.3809C34.8799 22.3809 31.2546 22.3809 27.6292 22.3809C27.6292 24.8371 27.6292 26.9829 27.6292 29.3663C31.3918 29.3663 34.8995 29.3663 38.649 29.3663ZM25.5912 20.0635C25.0752 16.9603 25.4214 14.1081 24.4285 11.2294C22.4558 10.9125 20.568 10.9125 18.6018 11.1898C17.7787 13.9034 17.5828 16.5576 18.0858 19.324C20.4635 20.0239 22.7693 20.2682 25.5912 20.0635Z" fill="#3D2645"/>
<path d="M94.7613 3.93721C91.541 2.80819 88.6929 3.44862 85.9886 3.27036C71.7681 2.34601 57.5084 1.53392 43.2945 3.03927C32.9932 4.12867 22.7051 4.61725 12.3647 4.28713C11.0387 4.24752 9.7192 4.12207 7.62891 3.99002C9.44485 5.98396 11.104 5.68685 12.5999 5.71986C23.2669 5.95755 33.9012 5.36993 44.5421 4.63706C60.1932 3.55426 75.8376 4.05605 91.456 5.43596C92.6318 5.535 92.6318 5.55481 94.7613 3.93721Z" fill="#3D2645"/>
<path d="M97.3262 35.5685C68.4867 37.1927 39.9151 37.4634 11.1017 36.1099C11.7876 34.1424 13.3031 34.5782 14.603 34.6178C24.166 34.9413 33.7226 35.4431 43.2856 35.5883C56.4349 35.7864 69.5776 35.1658 82.7202 34.7234C86.633 34.5914 90.5458 34.6244 94.4585 34.6508C95.3404 34.664 96.379 34.2877 97.3262 35.5685Z" fill="#3D2645"/>
<path d="M28.0835 327.039C20.8406 327.039 13.5647 327.039 5.70117 327.039C5.85303 298.433 6.31521 270.402 5.86624 242.306C13.7298 243.214 21.0519 244.012 28.1297 243.297C30.5396 271.175 27.4562 299.295 28.0835 327.039ZM27.2582 267.424C24.1088 267.041 20.9396 267.066 17.6186 267.271C17.6186 270.938 17.6186 274.261 17.6186 277.903C20.9792 277.692 24.1154 277.858 27.2582 276.702C27.2582 273.762 27.2582 270.919 27.2582 267.424ZM26.7762 300.369C26.7762 297.391 26.7762 294.573 26.7762 291.481C23.673 291.628 20.6557 291.762 17.4205 291.915C17.5592 295.046 17.1234 297.973 17.7771 300.963C20.7548 301.519 23.541 300.969 26.7762 300.369ZM7.62909 302.925C7.62909 306.324 7.62909 309.455 7.62909 312.65C10.4681 313.608 13.1355 313.295 16.1528 313.091C15.9284 309.602 15.7105 306.292 15.486 302.816C12.8054 302.867 10.3559 302.26 7.62909 302.925ZM18.1996 314.969C17.4535 318.707 17.9817 321.998 18.3184 325.371C21.2697 325.474 23.8447 325.831 26.4923 325.129C25.9641 321.659 26.6705 318.26 25.7858 314.975C23.2241 314.969 20.8472 314.969 18.1996 314.969ZM7.82056 279.571C7.82056 283.021 7.82056 286.241 7.82056 289.513C10.4219 289.986 12.7592 290.203 15.1823 290.018C15.1823 286.318 15.1823 282.9 15.1823 279.443C12.647 279.136 10.3757 278.951 7.82056 279.571ZM8.19031 265.2C10.6794 265.303 12.9903 265.948 15.1757 265.264C15.1757 261.514 15.1757 257.967 15.1757 254.421C12.7196 254.421 10.5738 254.421 8.19031 254.421C8.19031 258.102 8.19031 261.533 8.19031 265.2ZM17.4932 252.428C20.5963 251.923 23.4486 252.261 26.3272 251.29C26.6441 249.361 26.6441 247.514 26.3668 245.591C23.6532 244.786 20.9991 244.594 18.2326 245.086C17.5328 247.412 17.2885 249.667 17.4932 252.428Z" fill="#3D2645"/>
<path d="M33.6165 242.593C34.7455 245.743 34.1051 248.529 34.2834 251.174C35.2077 265.085 36.0198 279.033 34.5144 292.937C33.425 303.013 32.9365 313.077 33.2666 323.192C33.3062 324.489 33.4316 325.78 33.5637 327.824C31.5697 326.048 31.8669 324.425 31.8339 322.962C31.5962 312.527 32.1838 302.125 32.9167 291.717C33.9995 276.407 33.4977 261.104 32.1178 245.826C32.0187 244.676 31.9989 244.676 33.6165 242.593Z" fill="#3D2645"/>
<path d="M1.99005 325.418C0.365851 297.208 0.0951547 269.26 1.44866 241.075C3.41619 241.746 2.98042 243.228 2.94081 244.5C2.61729 253.854 2.1155 263.202 1.97025 272.557C1.77217 285.419 2.3928 298.275 2.83516 311.131C2.96721 314.958 2.9342 318.786 2.90779 322.613C2.89458 323.476 3.27092 324.491 1.99005 325.418Z" fill="#3D2645"/>
<path d="M28.0835 184.477C20.8406 184.477 13.5647 184.477 5.70117 184.477C5.85303 155.87 6.31521 127.839 5.86624 99.7439C13.7298 100.651 21.0519 101.45 28.1297 100.734C30.5396 128.612 27.4562 156.733 28.0835 184.477ZM27.2582 124.862C24.1088 124.478 20.9396 124.504 17.6186 124.708C17.6186 128.376 17.6186 131.698 17.6186 135.34C20.9792 135.13 24.1154 135.296 27.2582 134.139C27.2582 131.2 27.2582 128.357 27.2582 124.862ZM26.7762 157.806C26.7762 154.829 26.7762 152.011 26.7762 148.918C23.673 149.065 20.6557 149.2 17.4205 149.353C17.5592 152.484 17.1234 155.41 17.7771 158.401C20.7548 158.956 23.541 158.407 26.7762 157.806ZM7.62909 160.362C7.62909 163.761 7.62909 166.892 7.62909 170.087C10.4681 171.046 13.1355 170.733 16.1528 170.528C15.9284 167.039 15.7105 163.729 15.486 160.254C12.8054 160.305 10.3559 159.698 7.62909 160.362ZM18.1996 172.407C17.4535 176.145 17.9817 179.435 18.3184 182.809C21.2697 182.911 23.8447 183.269 26.4923 182.566C25.9641 179.097 26.6705 175.697 25.7858 172.413C23.2241 172.407 20.8472 172.407 18.1996 172.407ZM7.82056 137.008C7.82056 140.459 7.82056 143.679 7.82056 146.95C10.4219 147.423 12.7592 147.64 15.1823 147.455C15.1823 143.756 15.1823 140.337 15.1823 136.88C12.647 136.574 10.3757 136.388 7.82056 137.008ZM8.19031 122.638C10.6794 122.74 12.9903 123.385 15.1757 122.702C15.1757 118.951 15.1757 115.405 15.1757 111.859C12.7196 111.859 10.5738 111.859 8.19031 111.859C8.19031 115.539 8.19031 118.97 8.19031 122.638ZM17.4932 109.865C20.5963 109.36 23.4486 109.699 26.3272 108.728C26.6441 106.798 26.6441 104.951 26.3668 103.028C23.6532 102.223 20.9991 102.031 18.2326 102.523C17.5328 104.849 17.2885 107.105 17.4932 109.865Z" fill="#3D2645"/>
<path d="M33.6165 100.031C34.7455 103.181 34.1051 105.967 34.2834 108.612C35.2077 122.522 36.0198 136.471 34.5144 150.374C33.425 160.451 32.9365 170.514 33.2666 180.629C33.3062 181.926 33.4316 183.217 33.5637 185.262C31.5697 183.485 31.8669 181.862 31.8339 180.399C31.5962 169.965 32.1838 159.563 32.9167 149.154C33.9995 133.845 33.4977 118.541 32.1178 103.264C32.0187 102.114 31.9989 102.114 33.6165 100.031Z" fill="#3D2645"/>
<path d="M1.99005 182.855C0.365851 154.645 0.0951547 126.697 1.44866 98.5126C3.41619 99.1835 2.98042 100.666 2.94081 101.937C2.61729 111.292 2.1155 120.64 1.97025 129.994C1.77217 142.856 2.3928 155.712 2.83516 168.568C2.96721 172.396 2.9342 176.223 2.90779 180.05C2.89458 180.913 3.27092 181.929 1.99005 182.855Z" fill="#3D2645"/>
<path d="M28.0854 398.227C20.8425 398.227 13.5666 398.227 5.70312 398.227C5.85499 369.62 6.31716 341.589 5.8682 313.494C13.7317 314.401 21.0538 315.2 28.1316 314.484C30.5415 342.362 27.4582 370.483 28.0854 398.227ZM27.2601 338.612C24.1108 338.228 20.9416 338.254 17.6206 338.458C17.6206 342.126 17.6206 345.448 17.6205 349.09C20.9812 348.88 24.1174 349.046 27.2601 347.889C27.2601 344.95 27.2601 342.107 27.2601 338.612ZM26.7781 371.556C26.7781 368.579 26.7781 365.761 26.7781 362.668C23.675 362.815 20.6577 362.95 17.4225 363.103C17.5611 366.234 17.1254 369.16 17.779 372.151C20.7567 372.706 23.5429 372.157 26.7781 371.556ZM7.63105 374.112C7.63105 377.511 7.63105 380.642 7.63105 383.837C10.4701 384.796 13.1375 384.483 16.1548 384.278C15.9303 380.789 15.7124 377.479 15.488 374.004C12.8074 374.055 10.3579 373.448 7.63105 374.112ZM18.2016 386.157C17.4555 389.895 17.9837 393.185 18.3204 396.559C21.2717 396.661 23.8467 397.019 26.4942 396.316C25.966 392.847 26.6725 389.447 25.7878 386.163C23.226 386.157 20.8491 386.157 18.2016 386.157ZM7.82252 350.758C7.82252 354.209 7.82252 357.429 7.82251 360.7C10.4239 361.173 12.7611 361.39 15.1842 361.205C15.1842 357.506 15.1842 354.087 15.1842 350.63C12.6489 350.324 10.3777 350.138 7.82252 350.758ZM8.19226 336.388C10.6814 336.49 12.9922 337.135 15.1776 336.452C15.1776 332.701 15.1777 329.155 15.1777 325.609C12.7215 325.609 10.5757 325.609 8.19226 325.609C8.19226 329.289 8.19226 332.72 8.19226 336.388ZM17.4951 323.615C20.5983 323.11 23.4505 323.449 26.3292 322.478C26.6461 320.548 26.6461 318.701 26.3688 316.778C23.6552 315.973 21.001 315.781 18.2346 316.273C17.5347 318.599 17.2904 320.855 17.4951 323.615Z" fill="#3D2645"/>
<path d="M33.6165 391.274C34.7455 388.124 34.1051 385.338 34.2834 382.693C35.2077 368.783 36.0198 354.834 34.5144 340.93C33.425 330.854 32.9365 320.79 33.2666 310.675C33.3062 309.378 33.4316 308.088 33.5637 306.043C31.5697 307.819 31.8669 309.442 31.8338 310.905C31.5962 321.34 32.1838 331.742 32.9166 342.151C33.9994 357.46 33.4977 372.763 32.1177 388.041C32.0187 389.191 31.9989 389.191 33.6165 391.274Z" fill="#3D2645"/>
<path d="M1.99005 393.785C0.365851 365.575 0.0951547 337.627 1.44866 309.442C3.41619 310.113 2.98042 311.596 2.94081 312.867C2.61729 322.222 2.1155 331.569 1.97025 340.924C1.77217 353.786 2.3928 366.642 2.83516 379.498C2.96721 383.325 2.9342 387.153 2.90779 390.98C2.89458 391.843 3.27092 392.859 1.99005 393.785Z" fill="#3D2645"/>
<path d="M7.26419 329.363C14.5071 329.363 21.783 329.363 29.6465 329.363C29.4946 357.97 29.0325 386.001 29.4814 414.096C21.6179 413.189 14.2958 412.39 7.21797 413.106C4.80807 385.228 7.89142 357.107 7.26419 329.363ZM8.08949 388.978C11.2389 389.362 14.408 389.336 17.7291 389.132C17.7291 385.464 17.7291 382.141 17.7291 378.499C14.3684 378.71 11.2323 378.544 8.08949 379.701C8.08949 382.64 8.08949 385.483 8.08949 388.978ZM8.57147 356.034C8.57147 359.011 8.57147 361.829 8.57147 364.921C11.6746 364.775 14.6919 364.64 17.9271 364.487C17.7885 361.356 18.2242 358.43 17.5706 355.439C14.5929 354.883 11.8067 355.433 8.57147 356.034ZM27.7186 353.478C27.7186 350.078 27.7186 346.948 27.7186 343.753C24.8795 342.794 22.2121 343.107 19.1948 343.312C19.4193 346.801 19.6372 350.11 19.8617 353.586C22.5423 353.535 24.9918 354.142 27.7186 353.478ZM17.1481 341.433C17.8941 337.695 17.3659 334.405 17.0292 331.031C14.0779 330.929 11.503 330.571 8.85538 331.274C9.38357 334.743 8.67711 338.143 9.56184 341.427C12.1236 341.433 14.5005 341.433 17.1481 341.433ZM27.5271 376.832C27.5271 373.381 27.5271 370.161 27.5271 366.889C24.9257 366.417 22.5885 366.199 20.1654 366.385C20.1654 370.084 20.1654 373.503 20.1654 376.959C22.7007 377.266 24.972 377.451 27.5271 376.832ZM27.1574 391.202C24.6682 391.1 22.3574 390.454 20.172 391.138C20.172 394.889 20.172 398.435 20.172 401.981C22.6281 401.981 24.7739 401.981 27.1574 401.981C27.1574 398.301 27.1574 394.87 27.1574 391.202ZM17.8545 403.975C14.7514 404.48 11.8991 404.141 9.02043 405.112C8.70351 407.042 8.70352 408.888 8.98082 410.812C11.6944 411.617 14.3486 411.808 17.115 411.316C17.8149 408.991 18.0592 406.735 17.8545 403.975Z" fill="#3D2645"/>
<path d="M1.7331 336.316C0.604086 339.466 1.24452 342.252 1.06625 344.897C0.141907 358.807 -0.670188 372.756 0.835169 386.66C1.92457 396.736 2.41315 406.8 2.08303 416.914C2.04341 418.211 1.91797 419.502 1.78592 421.547C3.77986 419.771 3.48275 418.148 3.51576 416.684C3.75345 406.25 3.16583 395.848 2.43296 385.439C1.35016 370.13 1.85195 354.827 3.23186 339.549C3.33089 338.399 3.3507 338.399 1.7331 336.316Z" fill="#3D2645"/>
<path d="M33.3596 333.805C34.9838 362.015 35.2545 389.963 33.901 418.148C31.9334 417.477 32.3692 415.994 32.4088 414.723C32.7323 405.368 33.2341 396.02 33.3794 386.666C33.5774 373.804 32.9568 360.948 32.5144 348.092C32.3824 344.265 32.4154 340.437 32.4418 336.61C32.455 335.747 32.0787 334.731 33.3596 333.805Z" fill="#3D2645"/>
<path d="M28.0835 256.082C20.8406 256.082 13.5647 256.082 5.70117 256.082C5.85303 227.476 6.31521 199.445 5.86624 171.349C13.7298 172.257 21.0519 173.055 28.1297 172.34C30.5396 200.218 27.4562 228.338 28.0835 256.082ZM27.2582 196.467C24.1088 196.084 20.9396 196.109 17.6186 196.314C17.6186 199.981 17.6186 203.304 17.6186 206.946C20.9792 206.735 24.1154 206.901 27.2582 205.745C27.2582 202.805 27.2582 199.962 27.2582 196.467ZM26.7762 229.412C26.7762 226.434 26.7762 223.616 26.7762 220.524C23.673 220.671 20.6557 220.805 17.4205 220.958C17.5592 224.089 17.1234 227.016 17.7771 230.006C20.7548 230.562 23.541 230.012 26.7762 229.412ZM7.62909 231.968C7.62909 235.367 7.62909 238.498 7.62909 241.693C10.4681 242.651 13.1355 242.338 16.1528 242.134C15.9284 238.645 15.7105 235.335 15.486 231.859C12.8054 231.91 10.3559 231.303 7.62909 231.968ZM18.1996 244.012C17.4535 247.75 17.9817 251.041 18.3184 254.414C21.2697 254.517 23.8447 254.874 26.4923 254.172C25.9641 250.702 26.6705 247.303 25.7858 244.018C23.2241 244.012 20.8472 244.012 18.1996 244.012ZM7.82056 208.614C7.82056 212.064 7.82056 215.284 7.82056 218.556C10.4219 219.029 12.7592 219.246 15.1823 219.061C15.1823 215.361 15.1823 211.943 15.1823 208.486C12.647 208.179 10.3757 207.994 7.82056 208.614ZM8.19031 194.243C10.6794 194.346 12.9903 194.991 15.1757 194.307C15.1757 190.557 15.1757 187.01 15.1757 183.464C12.7196 183.464 10.5738 183.464 8.19031 183.464C8.19031 187.145 8.19031 190.576 8.19031 194.243ZM17.4932 181.471C20.5963 180.966 23.4486 181.304 26.3272 180.333C26.6441 178.404 26.6441 176.557 26.3668 174.634C23.6532 173.829 20.9991 173.637 18.2326 174.129C17.5328 176.455 17.2885 178.71 17.4932 181.471Z" fill="#3D2645"/>
<path d="M33.6165 249.129C34.7455 245.979 34.1051 243.193 34.2834 240.548C35.2077 226.638 36.0198 212.689 34.5144 198.786C33.425 188.709 32.9365 178.646 33.2666 168.531C33.3062 167.234 33.4316 165.943 33.5637 163.898C31.5697 165.675 31.8669 167.298 31.8338 168.761C31.5962 179.195 32.1838 189.597 32.9166 200.006C33.9994 215.316 33.4977 230.619 32.1177 245.896C32.0187 247.046 31.9989 247.046 33.6165 249.129Z" fill="#3D2645"/>
<path d="M1.99005 251.645C0.365851 223.434 0.0951547 195.486 1.44866 167.302C3.41619 167.973 2.98042 169.455 2.94081 170.727C2.61729 180.081 2.1155 189.429 1.97025 198.783C1.77217 211.646 2.3928 224.501 2.83516 237.357C2.96721 241.185 2.9342 245.012 2.90779 248.839C2.89458 249.702 3.27092 250.718 1.99005 251.645Z" fill="#3D2645"/>
<path d="M28.0835 113.52C20.8406 113.52 13.5647 113.52 5.70117 113.52C5.85303 84.9132 6.31521 56.882 5.86624 28.7869C13.7298 29.6942 21.0519 30.4929 28.1297 29.7773C30.5396 57.6552 27.4562 85.7758 28.0835 113.52ZM27.2582 53.9045C24.1088 53.5211 20.9396 53.5467 17.6186 53.7511C17.6186 57.4188 17.6186 60.7413 17.6186 64.3834C20.9792 64.1726 24.1154 64.3387 27.2582 63.1822C27.2582 60.2429 27.2582 57.3996 27.2582 53.9045ZM26.7762 86.8493C26.7762 83.8717 26.7762 81.0539 26.7762 77.9613C23.673 78.1083 20.6557 78.2425 17.4205 78.3958C17.5592 81.5267 17.1234 84.4532 17.7771 87.4435C20.7548 87.9994 23.541 87.4499 26.7762 86.8493ZM7.62909 89.4051C7.62909 92.8044 7.62909 95.9353 7.62909 99.1301C10.4681 100.089 13.1355 99.7755 16.1528 99.571C15.9284 96.0823 15.7105 92.7724 15.486 89.2965C12.8054 89.3476 10.3559 88.7406 7.62909 89.4051ZM18.1996 101.45C17.4535 105.187 17.9817 108.478 18.3184 111.852C21.2697 111.954 23.8447 112.312 26.4923 111.609C25.9641 108.139 26.6705 104.74 25.7858 101.456C23.2241 101.45 20.8472 101.45 18.1996 101.45ZM7.82056 66.0511C7.82056 69.5015 7.82056 72.7219 7.82056 75.9934C10.4219 76.4662 12.7592 76.6834 15.1823 76.4981C15.1823 72.7985 15.1823 69.3801 15.1823 65.9233C12.647 65.6166 10.3757 65.4313 7.82056 66.0511ZM8.19031 51.6809C10.6794 51.7831 12.9903 52.4285 15.1757 51.7448C15.1757 47.9941 15.1757 44.4478 15.1757 40.9016C12.7196 40.9016 10.5738 40.9016 8.19031 40.9016C8.19031 44.582 8.19031 48.0132 8.19031 51.6809ZM17.4932 38.908C20.5963 38.4033 23.4486 38.7419 26.3272 37.7707C26.6441 35.841 26.6441 33.9944 26.3668 32.0711C23.6532 31.2661 20.9991 31.0744 18.2326 31.5664C17.5328 33.8922 17.2885 36.1477 17.4932 38.908Z" fill="#3D2645"/>
<path d="M33.6165 106.567C34.7455 103.417 34.1051 100.631 34.2834 97.9857C35.2077 84.0755 36.0198 70.127 34.5144 56.2232C33.425 46.1468 32.9365 36.0832 33.2666 25.9684C33.3062 24.6713 33.4316 23.3806 33.5637 21.3359C31.5697 23.1122 31.8669 24.7352 31.8338 26.1984C31.5962 36.6327 32.1838 47.035 32.9166 57.4436C33.9994 72.7531 33.4977 88.0562 32.1177 103.334C32.0187 104.484 31.9989 104.484 33.6165 106.567Z" fill="#3D2645"/>
<path d="M1.99005 109.078C0.365851 80.868 0.0951547 52.9198 1.44866 24.7353C3.41619 25.4062 2.98042 26.8886 2.94081 28.1601C2.61729 37.5145 2.1155 46.8625 1.97025 56.2169C1.77217 69.0791 2.3928 81.935 2.83516 94.7909C2.96721 98.6183 2.9342 102.446 2.90779 106.273C2.89458 107.136 3.27092 108.152 1.99005 109.078Z" fill="#3D2645"/>
</svg>
