<svg width="407" height="378" viewBox="0 0 407 378" fill="none" xmlns="http://www.w3.org/2000/svg">
<path d="M379.42 8.73564C379.42 17.3375 379.42 25.9785 379.42 35.3174C345.447 35.137 312.156 34.5881 278.79 35.1213C279.867 25.7824 280.816 17.0865 279.966 8.68074C313.074 5.81869 346.471 9.48055 379.42 8.73564ZM308.62 9.71578C308.165 13.456 308.195 17.2198 308.438 21.164C312.794 21.164 316.74 21.164 321.065 21.164C320.815 17.1728 321.012 13.4482 319.638 9.71578C316.148 9.71578 312.771 9.71578 308.62 9.71578ZM347.746 10.2882C344.21 10.2882 340.863 10.2882 337.19 10.2882C337.365 13.9736 337.524 17.557 337.706 21.3992C341.425 21.2345 344.9 21.7521 348.452 20.9758C349.112 17.4394 348.459 14.1304 347.746 10.2882ZM350.781 33.0277C354.818 33.0277 358.537 33.0277 362.331 33.0277C363.469 29.656 363.097 26.4882 362.855 22.9047C358.711 23.1713 354.78 23.4301 350.652 23.6967C350.713 26.8802 349.992 29.7893 350.781 33.0277ZM365.086 20.4739C369.525 21.36 373.433 20.7327 377.44 20.3328C377.561 16.8278 377.986 13.7697 377.151 10.6254C373.031 11.2527 368.994 10.4137 365.093 11.4644C365.086 14.5068 365.086 17.3296 365.086 20.4739ZM323.046 32.8003C327.143 32.8003 330.968 32.8003 334.853 32.8003C335.415 29.7109 335.673 26.9351 335.453 24.0574C331.059 24.0574 326.999 24.0574 322.894 24.0574C322.53 27.0684 322.309 29.7658 323.046 32.8003ZM305.979 32.3612C306.1 29.4051 306.867 26.6607 306.055 24.0652C301.601 24.0652 297.389 24.0652 293.177 24.0652C293.177 26.9822 293.177 29.5305 293.177 32.3612C297.548 32.3612 301.623 32.3612 305.979 32.3612ZM290.81 21.313C290.21 17.6276 290.612 14.2402 289.459 10.8214C287.167 10.445 284.974 10.445 282.69 10.7743C281.734 13.9971 281.506 17.1493 282.091 20.4347C284.853 21.2659 287.532 21.556 290.81 21.313Z" fill="#F6F5E9"/>
<path d="M279.131 2.16494C282.872 0.824088 286.18 1.58468 289.322 1.37297C305.842 0.275197 322.408 -0.689265 338.92 1.09854C350.887 2.39234 362.839 2.97259 374.851 2.58053C376.392 2.53348 377.925 2.3845 380.353 2.22768C378.243 4.59573 376.316 4.24287 374.578 4.28207C362.186 4.56436 349.832 3.86649 337.471 2.99611C319.289 1.71015 301.114 2.30608 282.97 3.94489C281.604 4.06251 281.604 4.08604 279.131 2.16494Z" fill="#F6F5E9"/>
<path d="M377.492 39.7243C343.989 41.6532 310.797 41.9747 277.324 40.3673C278.121 38.0306 279.882 38.5481 281.392 38.5951C292.501 38.9794 303.603 39.5753 314.713 39.7478C329.988 39.983 345.256 39.246 360.524 38.7206C365.07 38.5638 369.615 38.603 374.161 38.6344C375.185 38.65 376.392 38.2031 377.492 39.7243Z" fill="#F6F5E9"/>
<path d="M210.599 8.73564C210.599 17.3375 210.599 25.9785 210.599 35.3174C176.626 35.137 143.335 34.5881 109.969 35.1213C111.046 25.7824 111.995 17.0865 111.145 8.68074C144.254 5.81869 177.65 9.48055 210.599 8.73564ZM139.799 9.71578C139.344 13.456 139.374 17.2198 139.617 21.164C143.973 21.164 147.919 21.164 152.244 21.164C151.994 17.1728 152.191 13.4482 150.817 9.71578C147.327 9.71578 143.95 9.71578 139.799 9.71578ZM178.925 10.2882C175.389 10.2882 172.042 10.2882 168.37 10.2882C168.544 13.9736 168.703 17.557 168.886 21.3992C172.604 21.2345 176.079 21.7521 179.631 20.9758C180.291 17.4394 179.638 14.1304 178.925 10.2882ZM181.961 33.0277C185.998 33.0277 189.716 33.0277 193.51 33.0277C194.648 29.656 194.277 26.4882 194.034 22.9047C189.89 23.1713 185.96 23.4301 181.832 23.6967C181.892 26.8802 181.171 29.7893 181.961 33.0277ZM196.265 20.4739C200.704 21.36 204.612 20.7327 208.619 20.3328C208.74 16.8278 209.165 13.7697 208.33 10.6254C204.21 11.2527 200.173 10.4137 196.272 11.4644C196.265 14.5068 196.265 17.3296 196.265 20.4739ZM154.225 32.8003C158.323 32.8003 162.147 32.8003 166.032 32.8003C166.594 29.7109 166.852 26.9351 166.632 24.0574C162.238 24.0574 158.178 24.0574 154.073 24.0574C153.709 27.0684 153.489 29.7658 154.225 32.8003ZM137.158 32.3612C137.28 29.4051 138.046 26.6607 137.234 24.0652C132.78 24.0652 128.568 24.0652 124.357 24.0652C124.357 26.9822 124.357 29.5305 124.357 32.3612C128.728 32.3612 132.803 32.3612 137.158 32.3612ZM121.989 21.313C121.389 17.6276 121.792 14.2402 120.638 10.8214C118.347 10.445 116.153 10.445 113.869 10.7743C112.913 13.9971 112.686 17.1493 113.27 20.4347C116.032 21.2659 118.711 21.556 121.989 21.313Z" fill="#F6F5E9"/>
<path d="M110.31 2.16494C114.051 0.824088 117.36 1.58468 120.501 1.37297C137.021 0.275197 153.587 -0.689265 170.099 1.09854C182.066 2.39234 194.018 2.97259 206.031 2.58053C207.571 2.53348 209.104 2.3845 211.532 2.22768C209.423 4.59573 207.495 4.24287 205.757 4.28207C193.365 4.56436 181.011 3.86649 168.65 2.99611C150.468 1.71015 132.294 2.30608 114.15 3.94489C112.784 4.06251 112.784 4.08604 110.31 2.16494Z" fill="#F6F5E9"/>
<path d="M208.671 39.7243C175.168 41.6532 141.976 41.9747 108.504 40.3673C109.301 38.0306 111.061 38.5481 112.571 38.5951C123.681 38.9794 134.783 39.5753 145.892 39.7478C161.168 39.983 176.436 39.246 191.704 38.7206C196.249 38.5638 200.795 38.603 205.34 38.6344C206.364 38.65 207.571 38.2031 208.671 39.7243Z" fill="#F6F5E9"/>
<path d="M295.147 8.73564C295.147 17.3375 295.147 25.9785 295.147 35.3174C261.173 35.137 227.883 34.5881 194.516 35.1213C195.594 25.7824 196.543 17.0865 195.693 8.68074C228.801 5.81869 262.198 9.48055 295.147 8.73564ZM224.347 9.71578C223.891 13.456 223.922 17.2198 224.165 21.164C228.52 21.164 232.466 21.164 236.792 21.164C236.541 17.1728 236.739 13.4482 235.365 9.71578C231.874 9.71578 228.498 9.71578 224.347 9.71578ZM263.473 10.2882C259.937 10.2882 256.59 10.2882 252.917 10.2882C253.092 13.9736 253.251 17.557 253.433 21.3992C257.152 21.2345 260.627 21.7521 264.178 20.9758C264.839 17.4394 264.186 14.1304 263.473 10.2882ZM266.508 33.0277C270.545 33.0277 274.264 33.0277 278.058 33.0277C279.196 29.656 278.824 26.4882 278.581 22.9047C274.438 23.1713 270.507 23.4301 266.379 23.6967C266.44 26.8802 265.719 29.7893 266.508 33.0277ZM280.812 20.4739C285.252 21.36 289.16 20.7327 293.166 20.3328C293.288 16.8278 293.713 13.7697 292.878 10.6254C288.758 11.2527 284.72 10.4137 280.82 11.4644C280.812 14.5068 280.812 17.3296 280.812 20.4739ZM238.772 32.8003C242.87 32.8003 246.695 32.8003 250.58 32.8003C251.142 29.7109 251.4 26.9351 251.179 24.0574C246.786 24.0574 242.726 24.0574 238.621 24.0574C238.256 27.0684 238.036 29.7658 238.772 32.8003ZM221.706 32.3612C221.827 29.4051 222.594 26.6607 221.782 24.0652C217.327 24.0652 213.116 24.0652 208.904 24.0652C208.904 26.9822 208.904 29.5305 208.904 32.3612C213.275 32.3612 217.35 32.3612 221.706 32.3612ZM206.537 21.313C205.937 17.6276 206.339 14.2402 205.186 10.8214C202.894 10.445 200.701 10.445 198.417 10.7743C197.461 13.9971 197.233 17.1493 197.817 20.4347C200.58 21.2659 203.258 21.556 206.537 21.313Z" fill="#F6F5E9"/>
<path d="M286.89 2.16496C283.149 0.824106 279.841 1.5847 276.699 1.37298C260.179 0.27521 243.613 -0.689254 227.101 1.09854C215.134 2.39234 203.182 2.97259 191.17 2.58053C189.629 2.53348 188.096 2.3845 185.668 2.22768C187.778 4.59573 189.705 4.24287 191.443 4.28207C203.835 4.56436 216.189 3.86649 228.55 2.99612C246.732 1.71016 264.907 2.30609 283.051 3.94491C284.417 4.06253 284.417 4.08605 286.89 2.16496Z" fill="#F6F5E9"/>
<path d="M289.87 39.7243C256.367 41.6532 223.175 41.9747 189.703 40.3673C190.5 38.0306 192.26 38.5481 193.77 38.5951C204.88 38.9794 215.982 39.5753 227.091 39.7478C242.367 39.983 257.635 39.246 272.903 38.7206C277.448 38.5638 281.994 38.603 286.539 38.6344C287.563 38.65 288.77 38.2031 289.87 39.7243Z" fill="#F6F5E9"/>
<path d="M126.327 8.73564C126.327 17.3375 126.327 25.9785 126.327 35.3174C92.3531 35.137 59.0626 34.5881 25.6962 35.1213C26.7737 25.7824 27.7223 17.0865 26.8724 8.68074C59.9808 5.81869 93.3776 9.48055 126.327 8.73564ZM55.5264 9.71578C55.0711 13.456 55.1014 17.2198 55.3443 21.164C59.7 21.164 63.646 21.164 67.9714 21.164C67.721 17.1728 67.9183 13.4482 66.5448 9.71578C63.0541 9.71578 59.6773 9.71578 55.5264 9.71578ZM94.6525 10.2882C91.1162 10.2882 87.7697 10.2882 84.0969 10.2882C84.2714 13.9736 84.4308 17.557 84.6129 21.3992C88.3312 21.2345 91.8068 21.7521 95.3582 20.9758C96.0184 17.4394 95.3658 14.1304 94.6525 10.2882ZM97.6878 33.0277C101.725 33.0277 105.443 33.0277 109.237 33.0277C110.376 29.656 110.004 26.4882 109.761 22.9047C105.618 23.1713 101.687 23.4301 97.5588 23.6967C97.6195 26.8802 96.8986 29.7893 97.6878 33.0277ZM111.992 20.4739C116.431 21.36 120.339 20.7327 124.346 20.3328C124.468 16.8278 124.892 13.7697 124.058 10.6254C119.937 11.2527 115.9 10.4137 112 11.4644C111.992 14.5068 111.992 17.3296 111.992 20.4739ZM69.952 32.8003C74.0498 32.8003 77.8744 32.8003 81.7597 32.8003C82.3212 29.7109 82.5792 26.9351 82.3592 24.0574C77.9654 24.0574 73.9056 24.0574 69.8003 24.0574C69.436 27.0684 69.216 29.7658 69.952 32.8003ZM52.8856 32.3612C53.007 29.4051 53.7734 26.6607 52.9615 24.0652C48.5071 24.0652 44.2954 24.0652 40.0838 24.0652C40.0838 26.9822 40.0838 29.5305 40.0838 32.3612C44.4548 32.3612 48.5298 32.3612 52.8856 32.3612ZM37.7163 21.313C37.1168 17.6276 37.519 14.2402 36.3655 10.8214C34.0738 10.445 31.8807 10.445 29.5966 10.7743C28.6405 13.9971 28.4128 17.1493 28.9971 20.4347C31.7593 21.2659 34.438 21.556 37.7163 21.313Z" fill="#F6F5E9"/>
<path d="M118.07 2.16496C114.328 0.824106 111.02 1.5847 107.878 1.37298C91.3582 0.27521 74.7926 -0.689254 58.2801 1.09854C46.3131 2.39234 34.3613 2.97259 22.3488 2.58053C20.8083 2.53348 19.2755 2.3845 16.8472 2.22768C18.9568 4.59573 20.8842 4.24287 22.622 4.28207C35.0139 4.56436 47.3679 3.86649 59.7295 2.99612C77.9115 1.71016 96.0858 2.30609 114.23 3.94491C115.596 4.06253 115.596 4.08605 118.07 2.16496Z" fill="#F6F5E9"/>
<path d="M121.05 39.7243C87.5473 41.6532 54.3554 41.9747 20.8827 40.3673C21.6795 38.0306 23.44 38.5481 24.9501 38.5951C36.0596 38.9794 47.1615 39.5753 58.271 39.7478C73.5465 39.983 88.8145 39.246 104.082 38.7206C108.628 38.5638 113.173 38.603 117.719 38.6344C118.743 38.65 119.95 38.2031 121.05 39.7243Z" fill="#F6F5E9"/>
<path d="M398.201 376.169C389.599 376.169 380.959 376.169 371.62 376.169C371.8 342.197 372.349 308.908 371.816 275.543C381.155 276.621 389.85 277.569 398.256 276.719C401.117 309.826 397.456 343.221 398.201 376.169ZM397.221 305.372C393.48 304.917 389.717 304.947 385.773 305.19C385.773 309.545 385.773 313.491 385.773 317.816C389.764 317.566 393.488 317.763 397.221 316.39C397.221 312.899 397.221 309.523 397.221 305.372ZM396.648 344.496C396.648 340.96 396.648 337.614 396.648 333.941C392.963 334.116 389.38 334.275 385.538 334.457C385.702 338.175 385.185 341.651 385.961 345.202C389.497 345.862 392.806 345.209 396.648 344.496ZM373.91 347.531C373.91 351.568 373.91 355.286 373.91 359.081C377.281 360.219 380.449 359.847 384.032 359.604C383.766 355.461 383.507 351.53 383.24 347.402C380.057 347.463 377.148 346.742 373.91 347.531ZM386.463 361.835C385.577 366.274 386.204 370.182 386.604 374.188C390.109 374.31 393.167 374.735 396.311 373.9C395.684 369.78 396.523 365.743 395.472 361.843C392.43 361.835 389.607 361.835 386.463 361.835ZM374.137 319.797C374.137 323.894 374.137 327.719 374.137 331.604C377.226 332.165 380.002 332.423 382.88 332.203C382.88 327.81 382.88 323.75 382.88 319.645C379.869 319.281 377.171 319.061 374.137 319.797ZM374.576 302.731C377.532 302.853 380.276 303.619 382.872 302.807C382.872 298.353 382.872 294.141 382.872 289.93C379.955 289.93 377.407 289.93 374.576 289.93C374.576 294.301 374.576 298.376 374.576 302.731ZM385.624 287.563C389.309 286.963 392.696 287.365 396.115 286.212C396.491 283.92 396.491 281.727 396.162 279.443C392.939 278.487 389.787 278.26 386.502 278.844C385.671 281.606 385.381 284.284 385.624 287.563Z" fill="#F6F5E9"/>
<path d="M404.772 275.885C406.113 279.626 405.352 282.934 405.564 286.076C406.661 302.595 407.626 319.16 405.838 335.671C404.544 347.638 403.964 359.589 404.356 371.601C404.403 373.142 404.552 374.674 404.709 377.103C402.341 374.993 402.694 373.066 402.655 371.328C402.372 358.937 403.07 346.583 403.941 334.222C405.227 316.041 404.631 297.868 402.992 279.724C402.874 278.358 402.851 278.358 404.772 275.885Z" fill="#F6F5E9"/>
<path d="M367.214 374.241C365.285 340.74 364.964 307.549 366.571 274.078C368.908 274.875 368.39 276.635 368.343 278.145C367.959 289.254 367.363 300.356 367.19 311.465C366.955 326.74 367.692 342.007 368.218 357.274C368.374 361.819 368.335 366.365 368.304 370.91C368.288 371.934 368.735 373.141 367.214 374.241Z" fill="#F6F5E9"/>
<path d="M398.201 207.356C389.599 207.356 380.959 207.356 371.62 207.356C371.8 173.384 372.349 140.095 371.816 106.73C381.155 107.808 389.85 108.757 398.256 107.907C401.117 141.014 397.456 174.409 398.201 207.356ZM397.221 136.559C393.48 136.104 389.717 136.134 385.773 136.377C385.773 140.733 385.773 144.679 385.773 149.004C389.764 148.753 393.488 148.951 397.221 147.577C397.221 144.087 397.221 140.71 397.221 136.559ZM396.648 175.684C396.648 172.148 396.648 168.801 396.648 165.129C392.963 165.303 389.38 165.462 385.538 165.645C385.702 169.363 385.185 172.838 385.961 176.389C389.497 177.05 392.806 176.397 396.648 175.684ZM373.91 178.719C373.91 182.756 373.91 186.474 373.91 190.268C377.281 191.406 380.449 191.034 384.032 190.792C383.766 186.648 383.507 182.718 383.24 178.59C380.057 178.651 377.148 177.93 373.91 178.719ZM386.463 193.022C385.577 197.462 386.204 201.369 386.604 205.376C390.109 205.497 393.167 205.922 396.311 205.088C395.684 200.967 396.523 196.93 395.472 193.03C392.43 193.022 389.607 193.022 386.463 193.022ZM374.137 150.984C374.137 155.082 374.137 158.906 374.137 162.791C377.226 163.353 380.002 163.611 382.88 163.391C382.88 158.997 382.88 154.938 382.88 150.833C379.869 150.468 377.171 150.248 374.137 150.984ZM374.576 133.919C377.532 134.04 380.276 134.807 382.872 133.995C382.872 129.54 382.872 125.329 382.872 121.118C379.955 121.118 377.407 121.118 374.576 121.118C374.576 125.488 374.576 129.563 374.576 133.919ZM385.624 118.75C389.309 118.151 392.696 118.553 396.115 117.399C396.491 115.108 396.491 112.915 396.162 110.631C392.939 109.675 389.787 109.447 386.502 110.031C385.671 112.793 385.381 115.472 385.624 118.75Z" fill="#F6F5E9"/>
<path d="M404.772 107.072C406.113 110.813 405.352 114.121 405.564 117.263C406.661 133.782 407.626 150.347 405.838 166.858C404.544 178.825 403.964 190.776 404.356 202.788C404.403 204.329 404.552 205.861 404.709 208.29C402.341 206.18 402.694 204.253 402.655 202.515C402.372 190.124 403.07 177.77 403.941 165.409C405.227 147.228 404.631 129.055 402.992 110.911C402.874 109.545 402.851 109.545 404.772 107.072Z" fill="#F6F5E9"/>
<path d="M367.214 205.429C365.285 171.927 364.964 138.737 366.571 105.266C368.908 106.062 368.39 107.823 368.343 109.333C367.959 120.442 367.363 131.543 367.19 142.652C366.955 157.927 367.692 173.194 368.218 188.462C368.374 193.007 368.335 197.552 368.304 202.098C368.288 203.122 368.735 204.328 367.214 205.429Z" fill="#F6F5E9"/>
<path d="M398.201 291.9C389.599 291.9 380.959 291.9 371.62 291.9C371.8 257.928 372.349 224.639 371.816 191.274C381.155 192.351 389.85 193.3 398.256 192.45C401.117 225.557 397.456 258.952 398.201 291.9ZM397.221 221.103C393.48 220.648 389.717 220.678 385.773 220.921C385.773 225.276 385.773 229.222 385.773 233.547C389.764 233.297 393.488 233.494 397.221 232.121C397.221 228.63 397.221 225.254 397.221 221.103ZM396.648 260.227C396.648 256.691 396.648 253.345 396.648 249.672C392.963 249.847 389.38 250.006 385.538 250.188C385.702 253.906 385.185 257.382 385.961 260.933C389.497 261.593 392.806 260.94 396.648 260.227ZM373.91 263.262C373.91 267.299 373.91 271.017 373.91 274.811C377.281 275.95 380.449 275.578 384.032 275.335C383.766 271.192 383.507 267.261 383.24 263.133C380.057 263.194 377.148 262.473 373.91 263.262ZM386.463 277.566C385.577 282.005 386.204 285.913 386.604 289.919C390.109 290.041 393.167 290.466 396.311 289.631C395.684 285.511 396.523 281.474 395.472 277.574C392.43 277.566 389.607 277.566 386.463 277.566ZM374.137 235.528C374.137 239.625 374.137 243.45 374.137 247.335C377.226 247.896 380.002 248.154 382.88 247.934C382.88 243.541 382.88 239.481 382.88 235.376C379.869 235.012 377.171 234.792 374.137 235.528ZM374.576 218.462C377.532 218.584 380.276 219.35 382.872 218.538C382.872 214.084 382.872 209.872 382.872 205.661C379.955 205.661 377.407 205.661 374.576 205.661C374.576 210.032 374.576 214.107 374.576 218.462ZM385.624 203.294C389.309 202.694 392.696 203.096 396.115 201.943C396.491 199.651 396.491 197.458 396.162 195.174C392.939 194.218 389.787 193.99 386.502 194.575C385.671 197.337 385.381 200.015 385.624 203.294Z" fill="#F6F5E9"/>
<path d="M404.771 283.644C406.112 279.903 405.352 276.594 405.563 273.453C406.661 256.933 407.626 240.369 405.838 223.857C404.544 211.89 403.964 199.939 404.356 187.927C404.403 186.387 404.552 184.854 404.709 182.426C402.341 184.535 402.694 186.463 402.654 188.2C402.372 200.592 403.07 212.945 403.94 225.306C405.226 243.487 404.63 261.661 402.992 279.804C402.874 281.17 402.85 281.17 404.771 283.644Z" fill="#F6F5E9"/>
<path d="M367.214 286.624C365.285 253.123 364.964 219.932 366.571 186.461C368.908 187.258 368.39 189.018 368.343 190.528C367.959 201.637 367.363 212.739 367.19 223.848C366.955 239.122 367.692 254.39 368.218 269.657C368.374 274.202 368.335 278.748 368.304 283.293C368.288 284.317 368.735 285.524 367.214 286.624Z" fill="#F6F5E9"/>
<path d="M398.201 123.087C389.599 123.087 380.959 123.087 371.62 123.087C371.8 89.1154 372.349 55.8264 371.816 22.4615C381.155 23.539 389.85 24.4875 398.256 23.6376C401.117 56.7445 397.456 90.1398 398.201 123.087ZM397.221 52.2903C393.48 51.835 389.717 51.8654 385.773 52.1082C385.773 56.4638 385.773 60.4096 385.773 64.7348C389.764 64.4844 393.488 64.6817 397.221 63.3082C397.221 59.8177 397.221 56.441 397.221 52.2903ZM396.648 91.4146C396.648 87.8786 396.648 84.5322 396.648 80.8595C392.963 81.0341 389.38 81.1934 385.538 81.3755C385.702 85.0937 385.185 88.5691 385.961 92.1203C389.497 92.7805 392.806 92.1279 396.648 91.4146ZM373.91 94.4499C373.91 98.4867 373.91 102.205 373.91 105.999C377.281 107.137 380.449 106.765 384.032 106.523C383.766 102.379 383.507 98.4488 383.24 94.3208C380.057 94.3815 377.148 93.6607 373.91 94.4499ZM386.463 108.753C385.577 113.192 386.204 117.1 386.604 121.107C390.109 121.228 393.167 121.653 396.311 120.819C395.684 116.698 396.523 112.661 395.472 108.761C392.43 108.753 389.607 108.753 386.463 108.753ZM374.137 66.7153C374.137 70.8129 374.137 74.6373 374.137 78.5224C377.226 79.084 380.002 79.3419 382.88 79.1219C382.88 74.7284 382.88 70.6687 382.88 66.5636C379.869 66.1993 377.171 65.9793 374.137 66.7153ZM374.576 49.6496C377.532 49.771 380.276 50.5375 382.872 49.7255C382.872 45.2713 382.872 41.0599 382.872 36.8485C379.955 36.8485 377.407 36.8485 374.576 36.8485C374.576 41.2192 374.576 45.2941 374.576 49.6496ZM385.624 34.481C389.309 33.8815 392.696 34.2837 396.115 33.1303C396.491 30.8387 396.491 28.6457 396.162 26.3617C392.939 25.4056 389.787 25.178 386.502 25.7623C385.671 28.5243 385.381 31.2029 385.624 34.481Z" fill="#F6F5E9"/>
<path d="M404.771 114.831C406.112 111.09 405.352 107.782 405.563 104.64C406.661 88.1209 407.626 71.5561 405.838 55.0444C404.544 43.0779 403.964 31.1266 404.356 19.1147C404.403 17.5743 404.552 16.0415 404.709 13.6133C402.341 15.7228 402.694 17.6501 402.654 19.3878C402.372 31.7792 403.07 44.1327 403.94 56.4937C405.226 74.6748 404.63 92.8483 402.992 110.991C402.874 112.357 402.85 112.357 404.771 114.831Z" fill="#F6F5E9"/>
<path d="M367.214 117.812C365.285 84.31 364.964 51.1196 366.571 17.6485C368.908 18.4452 368.39 20.2056 368.343 21.7157C367.959 32.8247 367.363 43.9261 367.19 55.035C366.955 70.3099 367.692 85.5772 368.218 100.844C368.374 105.39 368.335 109.935 368.304 114.48C368.288 115.505 368.735 116.711 367.214 117.812Z" fill="#F6F5E9"/>
<path d="M379.42 335.58C379.42 344.182 379.42 352.823 379.42 362.162C345.447 361.982 312.156 361.433 278.79 361.966C279.867 352.627 280.816 343.931 279.966 335.525C313.075 332.663 346.471 336.325 379.42 335.58ZM308.62 336.561C308.165 340.301 308.195 344.065 308.438 348.009C312.794 348.009 316.74 348.009 321.065 348.009C320.815 344.018 321.012 340.293 319.639 336.561C316.148 336.561 312.771 336.561 308.62 336.561ZM347.746 337.133C344.21 337.133 340.863 337.133 337.191 337.133C337.365 340.818 337.525 344.402 337.707 348.244C341.425 348.079 344.901 348.597 348.452 347.821C349.112 344.284 348.46 340.975 347.746 337.133ZM350.782 359.872C354.819 359.872 358.537 359.872 362.331 359.872C363.469 356.501 363.098 353.333 362.855 349.749C358.712 350.016 354.781 350.275 350.653 350.541C350.713 353.725 349.992 356.634 350.782 359.872ZM365.086 347.319C369.525 348.205 373.433 347.577 377.44 347.178C377.561 343.673 377.986 340.614 377.151 337.47C373.031 338.097 368.994 337.258 365.093 338.309C365.086 341.351 365.086 344.174 365.086 347.319ZM323.046 359.645C327.144 359.645 330.968 359.645 334.853 359.645C335.415 356.556 335.673 353.78 335.453 350.902C331.059 350.902 326.999 350.902 322.894 350.902C322.53 353.913 322.31 356.611 323.046 359.645ZM305.979 359.206C306.101 356.25 306.867 353.505 306.055 350.91C301.601 350.91 297.389 350.91 293.178 350.91C293.178 353.827 293.178 356.375 293.178 359.206C297.549 359.206 301.624 359.206 305.979 359.206ZM290.81 348.158C290.211 344.472 290.613 341.085 289.459 337.666C287.168 337.29 284.974 337.29 282.69 337.619C281.734 340.842 281.507 343.994 282.091 347.279C284.853 348.111 287.532 348.401 290.81 348.158Z" fill="#F6F5E9"/>
<path d="M279.131 329.01C282.872 327.669 286.181 328.429 289.322 328.218C305.842 327.12 322.408 326.155 338.92 327.943C350.887 329.237 362.839 329.817 374.852 329.425C376.392 329.378 377.925 329.229 380.353 329.072C378.244 331.44 376.316 331.088 374.578 331.127C362.187 331.409 349.832 330.711 337.471 329.841C319.289 328.555 301.115 329.151 282.971 330.79C281.605 330.907 281.605 330.931 279.131 329.01Z" fill="#F6F5E9"/>
<path d="M377.492 366.569C343.989 368.498 310.797 368.819 277.325 367.212C278.121 364.875 279.882 365.393 281.392 365.44C292.501 365.824 303.603 366.42 314.713 366.593C329.988 366.828 345.256 366.091 360.524 365.565C365.07 365.409 369.615 365.448 374.161 365.479C375.185 365.495 376.392 365.048 377.492 366.569Z" fill="#F6F5E9"/>
<path d="M210.6 335.58C210.6 344.182 210.6 352.823 210.6 362.162C176.626 361.982 143.336 361.433 109.969 361.966C111.047 352.627 111.995 343.931 111.145 335.525C144.254 332.663 177.651 336.325 210.6 335.58ZM139.799 336.561C139.344 340.301 139.374 344.065 139.617 348.009C143.973 348.009 147.919 348.009 152.244 348.009C151.994 344.018 152.191 340.293 150.818 336.561C147.327 336.561 143.95 336.561 139.799 336.561ZM178.925 337.133C175.389 337.133 172.043 337.133 168.37 337.133C168.544 340.818 168.704 344.402 168.886 348.244C172.604 348.079 176.08 348.597 179.631 347.821C180.291 344.284 179.639 340.975 178.925 337.133ZM181.961 359.872C185.998 359.872 189.716 359.872 193.51 359.872C194.649 356.501 194.277 353.333 194.034 349.749C189.891 350.016 185.96 350.275 181.832 350.541C181.892 353.725 181.172 356.634 181.961 359.872ZM196.265 347.319C200.704 348.205 204.612 347.577 208.619 347.178C208.74 343.673 209.165 340.614 208.331 337.47C204.21 338.097 200.173 337.258 196.273 338.309C196.265 341.351 196.265 344.174 196.265 347.319ZM154.225 359.645C158.323 359.645 162.147 359.645 166.033 359.645C166.594 356.556 166.852 353.78 166.632 350.902C162.238 350.902 158.179 350.902 154.073 350.902C153.709 353.913 153.489 356.611 154.225 359.645ZM137.159 359.206C137.28 356.25 138.046 353.505 137.234 350.91C132.78 350.91 128.568 350.91 124.357 350.91C124.357 353.827 124.357 356.375 124.357 359.206C128.728 359.206 132.803 359.206 137.159 359.206ZM121.989 348.158C121.39 344.472 121.792 341.085 120.638 337.666C118.347 337.29 116.154 337.29 113.87 337.619C112.913 340.842 112.686 343.994 113.27 347.279C116.032 348.111 118.711 348.401 121.989 348.158Z" fill="#F6F5E9"/>
<path d="M110.31 329.01C114.051 327.669 117.36 328.429 120.501 328.218C137.021 327.12 153.587 326.155 170.1 327.943C182.067 329.237 194.018 329.817 206.031 329.425C207.571 329.378 209.104 329.229 211.532 329.072C209.423 331.44 207.495 331.088 205.758 331.127C193.366 331.409 181.012 330.711 168.65 329.841C150.468 328.555 132.294 329.151 114.15 330.79C112.784 330.907 112.784 330.931 110.31 329.01Z" fill="#F6F5E9"/>
<path d="M208.672 366.569C175.169 368.498 141.977 368.819 108.504 367.212C109.301 364.875 111.061 365.393 112.571 365.44C123.681 365.824 134.783 366.42 145.892 366.593C161.168 366.828 176.436 366.091 191.704 365.565C196.249 365.409 200.795 365.448 205.34 365.479C206.365 365.495 207.571 365.048 208.672 366.569Z" fill="#F6F5E9"/>
<path d="M295.147 335.58C295.147 344.182 295.147 352.823 295.147 362.162C261.173 361.982 227.883 361.433 194.516 361.966C195.594 352.627 196.543 343.931 195.693 335.525C228.801 332.663 262.198 336.325 295.147 335.58ZM224.347 336.561C223.891 340.301 223.922 344.065 224.165 348.009C228.52 348.009 232.466 348.009 236.792 348.009C236.541 344.018 236.739 340.293 235.365 336.561C231.874 336.561 228.498 336.561 224.347 336.561ZM263.473 337.133C259.937 337.133 256.59 337.133 252.917 337.133C253.092 340.818 253.251 344.402 253.433 348.244C257.152 348.079 260.627 348.597 264.178 347.821C264.839 344.284 264.186 340.975 263.473 337.133ZM266.508 359.872C270.545 359.872 274.264 359.872 278.058 359.872C279.196 356.501 278.824 353.333 278.581 349.749C274.438 350.016 270.507 350.275 266.379 350.541C266.44 353.725 265.719 356.634 266.508 359.872ZM280.812 347.319C285.252 348.205 289.16 347.577 293.166 347.178C293.288 343.673 293.713 340.614 292.878 337.47C288.758 338.097 284.72 337.258 280.82 338.309C280.812 341.351 280.812 344.174 280.812 347.319ZM238.772 359.645C242.87 359.645 246.695 359.645 250.58 359.645C251.142 356.556 251.4 353.78 251.179 350.902C246.786 350.902 242.726 350.902 238.621 350.902C238.256 353.913 238.036 356.611 238.772 359.645ZM221.706 359.206C221.827 356.25 222.594 353.505 221.782 350.91C217.327 350.91 213.116 350.91 208.904 350.91C208.904 353.827 208.904 356.375 208.904 359.206C213.275 359.206 217.35 359.206 221.706 359.206ZM206.537 348.158C205.937 344.472 206.339 341.085 205.186 337.666C202.894 337.29 200.701 337.29 198.417 337.619C197.461 340.842 197.233 343.994 197.817 347.279C200.58 348.111 203.258 348.401 206.537 348.158Z" fill="#F6F5E9"/>
<path d="M286.89 329.01C283.149 327.669 279.841 328.429 276.699 328.218C260.179 327.12 243.613 326.155 227.101 327.943C215.134 329.237 203.182 329.817 191.17 329.425C189.629 329.378 188.096 329.229 185.668 329.072C187.778 331.44 189.705 331.088 191.443 331.127C203.835 331.409 216.189 330.711 228.55 329.841C246.732 328.555 264.907 329.151 283.051 330.79C284.417 330.907 284.417 330.931 286.89 329.01Z" fill="#F6F5E9"/>
<path d="M289.871 366.569C256.368 368.498 223.176 368.819 189.703 367.212C190.5 364.875 192.261 365.393 193.771 365.44C204.88 365.824 215.982 366.42 227.092 366.593C242.367 366.828 257.635 366.091 272.903 365.565C277.449 365.409 281.994 365.448 286.54 365.479C287.564 365.495 288.771 365.048 289.871 366.569Z" fill="#F6F5E9"/>
<path d="M126.327 335.58C126.327 344.182 126.327 352.823 126.327 362.162C92.3534 361.982 59.0629 361.433 25.6964 361.966C26.774 352.627 27.7225 343.931 26.8726 335.525C59.981 332.663 93.3778 336.325 126.327 335.58ZM55.5266 336.561C55.0713 340.301 55.1017 344.065 55.3445 348.009C59.7003 348.009 63.6462 348.009 67.9717 348.009C67.7213 344.018 67.9185 340.293 66.545 336.561C63.0543 336.561 59.6775 336.561 55.5266 336.561ZM94.6527 337.133C91.1165 337.133 87.7699 337.133 84.0971 337.133C84.2717 340.818 84.431 344.402 84.6131 348.244C88.3315 348.079 91.807 348.597 95.3584 347.821C96.0186 344.284 95.366 340.975 94.6527 337.133ZM97.6881 359.872C101.725 359.872 105.443 359.872 109.238 359.872C110.376 356.501 110.004 353.333 109.761 349.749C105.618 350.016 101.687 350.275 97.559 350.541C97.6198 353.725 96.8989 356.634 97.6881 359.872ZM111.992 347.319C116.432 348.205 120.34 347.577 124.346 347.178C124.468 343.673 124.893 340.614 124.058 337.47C119.937 338.097 115.9 337.258 112 338.309C111.992 341.351 111.992 344.174 111.992 347.319ZM69.9523 359.645C74.0501 359.645 77.8746 359.645 81.7599 359.645C82.3215 356.556 82.5795 353.78 82.3594 350.902C77.9657 350.902 73.9059 350.902 69.8005 350.902C69.4363 353.913 69.2162 356.611 69.9523 359.645ZM52.8858 359.206C53.0072 356.25 53.7737 353.505 52.9617 350.91C48.5073 350.91 44.2957 350.91 40.0841 350.91C40.0841 353.827 40.0841 356.375 40.0841 359.206C44.455 359.206 48.53 359.206 52.8858 359.206ZM37.7165 348.158C37.117 344.472 37.5192 341.085 36.3658 337.666C34.0741 337.29 31.881 337.29 29.5968 337.619C28.6407 340.842 28.4131 343.994 28.9974 347.279C31.7596 348.111 34.4383 348.401 37.7165 348.158Z" fill="#F6F5E9"/>
<path d="M118.07 329.01C114.329 327.669 111.02 328.429 107.878 328.218C91.3584 327.12 74.7928 326.155 58.2804 327.943C46.3134 329.237 34.3616 329.817 22.349 329.425C20.8086 329.378 19.2757 329.229 16.8474 329.072C18.957 331.44 20.8845 331.088 22.6222 331.127C35.0142 331.409 47.3682 330.711 59.7298 329.841C77.9117 328.555 96.086 329.151 114.23 330.79C115.596 330.907 115.596 330.931 118.07 329.01Z" fill="#F6F5E9"/>
<path d="M121.051 366.569C87.5475 368.498 54.3556 368.819 20.8829 367.212C21.6797 364.875 23.4402 365.393 24.9503 365.44C36.0598 365.824 47.1617 366.42 58.2712 366.593C73.5468 366.828 88.8147 366.091 104.083 365.565C108.628 365.409 113.174 365.448 117.719 365.479C118.744 365.495 119.95 365.048 121.051 366.569Z" fill="#F6F5E9"/>
<path d="M33.2356 363.645C24.6337 363.645 15.9927 363.645 6.65381 363.645C6.83416 329.672 7.38305 296.381 6.84985 263.015C16.1887 264.092 24.8847 265.041 33.2905 264.191C36.1525 297.299 32.4906 330.696 33.2356 363.645ZM32.2554 292.845C28.5151 292.389 24.7514 292.42 20.8072 292.663C20.8072 297.018 20.8072 300.964 20.8072 305.29C24.7984 305.039 28.523 305.237 32.2554 303.863C32.2554 300.372 32.2554 296.996 32.2554 292.845ZM31.683 331.971C31.683 328.435 31.683 325.088 31.683 321.415C27.9976 321.59 24.4142 321.749 20.572 321.931C20.7366 325.65 20.2191 329.125 20.9954 332.677C24.5318 333.337 27.8408 332.684 31.683 331.971ZM8.94345 335.006C8.94345 339.043 8.94345 342.762 8.94345 346.556C12.3152 347.694 15.483 347.322 19.0665 347.079C18.7999 342.936 18.5411 339.005 18.2745 334.877C15.091 334.938 12.1819 334.217 8.94345 335.006ZM21.4972 349.31C20.6112 353.75 21.2385 357.658 21.6384 361.664C25.1434 361.786 28.2015 362.211 31.3458 361.376C30.7185 357.256 31.5575 353.218 30.5068 349.318C27.4644 349.31 24.6416 349.31 21.4972 349.31ZM9.17085 307.27C9.17085 311.368 9.17085 315.193 9.17085 319.078C12.2603 319.64 15.0361 319.898 17.9138 319.678C17.9138 315.284 17.9138 311.224 17.9138 307.119C14.9028 306.754 12.2054 306.534 9.17085 307.27ZM9.60996 290.204C12.5661 290.325 15.3105 291.092 17.906 290.28C17.906 285.825 17.906 281.614 17.906 277.402C14.989 277.402 12.4406 277.402 9.60996 277.402C9.60996 281.773 9.60996 285.848 9.60996 290.204ZM20.6582 275.035C24.3436 274.435 27.731 274.837 31.1498 273.684C31.5262 271.392 31.5262 269.199 31.1968 266.915C27.9741 265.959 24.8219 265.731 21.5365 266.316C20.7053 269.078 20.4152 271.756 20.6582 275.035Z" fill="#F6F5E9"/>
<path d="M39.8063 263.356C41.1471 267.097 40.3865 270.405 40.5982 273.547C41.696 290.067 42.6605 306.633 40.8727 323.145C39.5789 335.112 38.9986 347.064 39.3907 359.076C39.4377 360.617 39.5867 362.15 39.7435 364.578C37.3755 362.469 37.7283 360.541 37.6891 358.803C37.4068 346.411 38.1047 334.057 38.9751 321.696C40.261 303.514 39.6651 285.34 38.0263 267.196C37.9087 265.83 37.8852 265.83 39.8063 263.356Z" fill="#F6F5E9"/>
<path d="M2.2469 361.717C0.317966 328.214 -0.00351916 295.022 1.60394 261.549C3.94062 262.346 3.42309 264.107 3.37605 265.617C2.99183 276.726 2.3959 287.828 2.22339 298.937C1.98815 314.213 2.72522 329.481 3.25058 344.749C3.4074 349.294 3.3682 353.84 3.33683 358.385C3.32115 359.41 3.7681 360.616 2.2469 361.717Z" fill="#F6F5E9"/>
<path d="M33.2356 194.824C24.6337 194.824 15.9927 194.824 6.65381 194.824C6.83416 160.851 7.38305 127.56 6.84985 94.1937C16.1887 95.2713 24.8847 96.2199 33.2905 95.3699C36.1525 128.478 32.4906 161.875 33.2356 194.824ZM32.2554 124.024C28.5151 123.569 24.7514 123.599 20.8072 123.842C20.8072 128.198 20.8072 132.144 20.8072 136.469C24.7984 136.219 28.523 136.416 32.2554 135.042C32.2554 131.552 32.2554 128.175 32.2554 124.024ZM31.683 163.15C31.683 159.614 31.683 156.267 31.683 152.594C27.9976 152.769 24.4142 152.928 20.572 153.11C20.7366 156.829 20.2191 160.304 20.9954 163.856C24.5318 164.516 27.8408 163.863 31.683 163.15ZM8.94345 166.185C8.94345 170.222 8.94345 173.941 8.94345 177.735C12.3152 178.873 15.483 178.501 19.0665 178.259C18.7999 174.115 18.5411 170.184 18.2745 166.056C15.091 166.117 12.1819 165.396 8.94345 166.185ZM21.4972 180.49C20.6112 184.929 21.2385 188.837 21.6384 192.844C25.1434 192.965 28.2015 193.39 31.3458 192.555C30.7185 188.435 31.5575 184.398 30.5068 180.497C27.4644 180.49 24.6416 180.49 21.4972 180.49ZM9.17085 138.45C9.17085 142.547 9.17085 146.372 9.17085 150.257C12.2603 150.819 15.0361 151.077 17.9138 150.857C17.9138 146.463 17.9138 142.403 17.9138 138.298C14.9028 137.934 12.2054 137.714 9.17085 138.45ZM9.60996 121.383C12.5661 121.505 15.3105 122.271 17.906 121.459C17.906 117.005 17.906 112.793 17.906 108.581C14.989 108.581 12.4406 108.581 9.60996 108.581C9.60996 112.952 9.60996 117.027 9.60996 121.383ZM20.6582 106.214C24.3436 105.614 27.731 106.017 31.1498 104.863C31.5262 102.571 31.5262 100.378 31.1968 98.0942C27.9741 97.138 24.8219 96.9104 21.5365 97.4947C20.7053 100.257 20.4152 102.936 20.6582 106.214Z" fill="#F6F5E9"/>
<path d="M39.8065 94.5349C41.1474 98.276 40.3868 101.585 40.5985 104.726C41.6962 121.246 42.6607 137.812 40.8729 154.324C39.5791 166.291 38.9988 178.243 39.3909 190.256C39.438 191.796 39.5869 193.329 39.7438 195.757C37.3757 193.648 37.7286 191.72 37.6894 189.983C37.4071 177.591 38.1049 165.237 38.9753 152.875C40.2613 134.693 39.6654 116.519 38.0265 98.3747C37.9089 97.0088 37.8854 97.0088 39.8065 94.5349Z" fill="#F6F5E9"/>
<path d="M2.2469 192.896C0.317966 159.393 -0.00351916 126.202 1.60394 92.7289C3.94062 93.5257 3.42309 95.2862 3.37605 96.7963C2.99183 107.906 2.3959 119.008 2.22339 130.117C1.98815 145.393 2.72522 160.661 3.25058 175.929C3.4074 180.474 3.3682 185.02 3.33683 189.565C3.32115 190.59 3.7681 191.796 2.2469 192.896Z" fill="#F6F5E9"/>
<path d="M33.2356 279.372C24.6337 279.372 15.9927 279.372 6.65381 279.372C6.83416 245.398 7.38305 212.108 6.84985 178.741C16.1887 179.819 24.8847 180.767 33.2905 179.917C36.1525 213.026 32.4906 246.423 33.2356 279.372ZM32.2554 208.571C28.5151 208.116 24.7514 208.146 20.8072 208.389C20.8072 212.745 20.8072 216.691 20.8072 221.016C24.7984 220.766 28.523 220.963 32.2554 219.59C32.2554 216.099 32.2554 212.722 32.2554 208.571ZM31.683 247.697C31.683 244.161 31.683 240.815 31.683 237.142C27.9976 237.316 24.4142 237.476 20.572 237.658C20.7366 241.376 20.2191 244.852 20.9954 248.403C24.5318 249.063 27.8408 248.411 31.683 247.697ZM8.94345 250.733C8.94345 254.77 8.94345 258.488 8.94345 262.282C12.3152 263.421 15.483 263.049 19.0665 262.806C18.7999 258.663 18.5411 254.732 18.2745 250.604C15.091 250.664 12.1819 249.944 8.94345 250.733ZM21.4972 265.037C20.6112 269.476 21.2385 273.384 21.6384 277.391C25.1434 277.512 28.2015 277.937 31.3458 277.103C30.7185 272.982 31.5575 268.945 30.5068 265.045C27.4644 265.037 24.6416 265.037 21.4972 265.037ZM9.17085 222.997C9.17085 227.095 9.17085 230.919 9.17085 234.805C12.2603 235.366 15.0361 235.624 17.9138 235.404C17.9138 231.01 17.9138 226.951 17.9138 222.845C14.9028 222.481 12.2054 222.261 9.17085 222.997ZM9.60996 205.931C12.5661 206.052 15.3105 206.818 17.906 206.006C17.906 201.552 17.906 197.34 17.906 193.129C14.989 193.129 12.4406 193.129 9.60996 193.129C9.60996 197.5 9.60996 201.575 9.60996 205.931ZM20.6582 190.761C24.3436 190.162 27.731 190.564 31.1498 189.41C31.5262 187.119 31.5262 184.926 31.1968 182.642C27.9741 181.685 24.8219 181.458 21.5365 182.042C20.7053 184.804 20.4152 187.483 20.6582 190.761Z" fill="#F6F5E9"/>
<path d="M39.807 271.115C41.1478 267.374 40.3872 264.065 40.5989 260.924C41.6967 244.404 42.6612 227.838 40.8734 211.326C39.5796 199.359 38.9993 187.407 39.3914 175.394C39.4384 173.854 39.5874 172.321 39.7442 169.893C37.3762 172.002 37.7291 173.93 37.6898 175.667C37.4076 188.059 38.1054 200.413 38.9758 212.775C40.2618 230.957 39.6658 249.131 38.027 267.275C37.9094 268.641 37.8859 268.641 39.807 271.115Z" fill="#F6F5E9"/>
<path d="M2.2469 274.095C0.317966 240.592 -0.00351916 207.4 1.60394 173.928C3.94062 174.724 3.42309 176.485 3.37605 177.995C2.99183 189.105 2.3959 200.206 2.22339 211.316C1.98815 226.591 2.72522 241.859 3.25058 257.127C3.4074 261.673 3.3682 266.218 3.33683 270.764C3.32115 271.788 3.7681 272.995 2.2469 274.095Z" fill="#F6F5E9"/>
<path d="M33.2356 110.551C24.6337 110.551 15.9927 110.551 6.65381 110.551C6.83416 76.5778 7.38305 43.2872 6.84985 9.92079C16.1887 10.9984 24.8847 11.9469 33.2905 11.097C36.1525 44.2054 32.4906 77.6022 33.2356 110.551ZM32.2554 39.751C28.5151 39.2957 24.7514 39.3261 20.8072 39.5689C20.8072 43.9247 20.8072 47.8706 20.8072 52.196C24.7984 51.9456 28.523 52.1429 32.2554 50.7694C32.2554 47.2787 32.2554 43.9019 32.2554 39.751ZM31.683 78.8771C31.683 75.3409 31.683 71.9943 31.683 68.3215C27.9976 68.496 24.4142 68.6554 20.572 68.8375C20.7366 72.5559 20.2191 76.0314 20.9954 79.5828C24.5318 80.243 27.8408 79.5904 31.683 78.8771ZM8.94345 81.9125C8.94345 85.9495 8.94345 89.6678 8.94345 93.4621C12.3152 94.6003 15.483 94.2285 19.0665 93.9857C18.7999 89.8424 18.5411 85.9115 18.2745 81.7834C15.091 81.8441 12.1819 81.1233 8.94345 81.9125ZM21.4972 96.2167C20.6112 100.656 21.2385 104.564 21.6384 108.571C25.1434 108.692 28.2015 109.117 31.3458 108.282C30.7185 104.162 31.5575 100.125 30.5068 96.2243C27.4644 96.2167 24.6416 96.2167 21.4972 96.2167ZM9.17085 54.1767C9.17085 58.2744 9.17085 62.099 9.17085 65.9843C12.2603 66.5458 15.0361 66.8038 17.9138 66.5838C17.9138 62.1901 17.9138 58.1302 17.9138 54.0249C14.9028 53.6606 12.2054 53.4406 9.17085 54.1767ZM9.60996 37.1102C12.5661 37.2316 15.3105 37.9981 17.906 37.1861C17.906 32.7317 17.906 28.5201 17.906 24.3085C14.989 24.3085 12.4406 24.3085 9.60996 24.3085C9.60996 28.6794 9.60996 32.7544 9.60996 37.1102ZM20.6582 21.9409C24.3436 21.3414 27.731 21.7436 31.1498 20.5902C31.5262 18.2984 31.5262 16.1053 31.1968 13.8212C27.9741 12.8651 24.8219 12.6374 21.5365 13.2218C20.7053 15.9839 20.4152 18.6627 20.6582 21.9409Z" fill="#F6F5E9"/>
<path d="M39.807 102.295C41.1478 98.5536 40.3872 95.2449 40.5989 92.1033C41.6967 75.5833 42.6612 59.0177 40.8734 42.5052C39.5796 30.5382 38.9993 18.5864 39.3914 6.57389C39.4384 5.03344 39.5874 3.50057 39.7442 1.07227C37.3762 3.18186 37.7291 5.10931 37.6898 6.84707C37.4076 19.239 38.1054 31.593 38.9758 43.9546C40.2618 62.1366 39.6658 80.3109 38.027 98.4549C37.9094 99.8208 37.8859 99.8208 39.807 102.295Z" fill="#F6F5E9"/>
<path d="M2.2469 105.275C0.317966 71.7719 -0.00351916 38.58 1.60394 5.10732C3.94062 5.90411 3.42309 7.66462 3.37605 9.17472C2.99183 20.2842 2.3959 31.3861 2.22339 42.4956C1.98815 57.7712 2.72522 73.0391 3.25058 88.3071C3.4074 92.8526 3.3682 97.3981 3.33683 101.944C3.32115 102.968 3.7681 104.175 2.2469 105.275Z" fill="#F6F5E9"/>
</svg>
