<svg width="137" height="215" viewBox="0 0 137 215" fill="none" xmlns="http://www.w3.org/2000/svg">
<path d="M88.7849 5.30219C88.7849 8.59336 88.7849 11.8995 88.7849 15.4727C75.4962 15.4037 62.4747 15.1937 49.4235 15.3977C49.845 11.8245 50.216 8.49734 49.8836 5.28118C62.8339 4.18613 75.897 5.5872 88.7849 5.30219ZM61.0915 5.6772C60.9134 7.10828 60.9253 8.54835 61.0203 10.0574C62.724 10.0574 64.2675 10.0574 65.9594 10.0574C65.8614 8.53035 65.9386 7.10528 65.4014 5.67721C64.036 5.67721 62.7151 5.67721 61.0915 5.6772ZM76.3956 5.89622C75.0124 5.89622 73.7034 5.89622 72.2668 5.89622C72.3351 7.30629 72.3974 8.67736 72.4687 10.1474C73.9231 10.0844 75.2825 10.2824 76.6717 9.98542C76.9299 8.63236 76.6746 7.36629 76.3956 5.89622ZM77.5829 14.5967C79.162 14.5967 80.6164 14.5967 82.1005 14.5967C82.5457 13.3066 82.4003 12.0945 82.3053 10.7235C80.6847 10.8255 79.1471 10.9245 77.5324 11.0265C77.5562 12.2445 77.2742 13.3576 77.5829 14.5967ZM83.178 9.79342C84.9144 10.1324 86.443 9.89242 88.0102 9.73941C88.0577 8.39835 88.2239 7.22829 87.8974 6.02523C86.2857 6.26524 84.7066 5.94422 83.1809 6.34624C83.178 7.5103 83.178 8.59036 83.178 9.79342ZM66.7341 14.5097C68.3369 14.5097 69.8329 14.5097 71.3526 14.5097C71.5723 13.3276 71.6732 12.2655 71.5871 11.1645C69.8685 11.1645 68.2805 11.1645 66.6747 11.1645C66.5323 12.3165 66.4462 13.3486 66.7341 14.5097ZM60.0586 14.3416C60.1061 13.2106 60.4059 12.1605 60.0883 11.1675C58.3459 11.1675 56.6986 11.1675 55.0512 11.1675C55.0512 12.2835 55.0512 13.2586 55.0512 14.3416C56.7609 14.3416 58.3548 14.3416 60.0586 14.3416ZM54.1251 10.1144C53.8906 8.70436 54.048 7.40829 53.5968 6.10022C52.7004 5.95622 51.8426 5.95622 50.9491 6.08222C50.5752 7.31528 50.4861 8.52135 50.7147 9.77841C51.7951 10.0964 52.8429 10.2074 54.1251 10.1144Z" fill="#F74061"/>
<path d="M49.5567 2.7893C51.0201 2.27628 52.3142 2.56729 53.5431 2.48629C60.0048 2.06627 66.4844 1.69725 72.9433 2.38129C77.6241 2.87631 82.2991 3.09832 86.9977 2.94832C87.6003 2.93032 88.1999 2.87331 89.1497 2.81331C88.3245 3.71936 87.5706 3.58435 86.8909 3.59935C82.0438 3.70735 77.2115 3.44034 72.3763 3.10732C65.2645 2.6153 58.1557 2.84331 51.0587 3.47034C50.5244 3.51534 50.5244 3.52434 49.5567 2.7893Z" fill="#F74061"/>
<path d="M88.0314 17.1599C74.9268 17.898 61.9438 18.021 48.8511 17.4059C49.1627 16.5119 49.8514 16.7099 50.442 16.7279C54.7875 16.8749 59.13 17.1029 63.4754 17.1689C69.4504 17.2589 75.4225 16.9769 81.3945 16.7759C83.1725 16.7159 84.9504 16.7309 86.7284 16.7429C87.1291 16.7489 87.601 16.5779 88.0314 17.1599Z" fill="#F74061"/>
<path d="M121.854 5.30131C121.854 8.59247 121.854 11.8986 121.854 15.4718C108.566 15.4028 95.5443 15.1928 82.4931 15.3968C82.9146 11.8236 83.2856 8.49646 82.9531 5.2803C95.9034 4.18525 108.967 5.58632 121.854 5.30131ZM94.1611 5.67632C93.983 7.10739 93.9949 8.54746 94.0899 10.0565C95.7936 10.0565 97.3371 10.0565 99.029 10.0565C98.931 8.52946 99.0082 7.10439 98.4709 5.67632C97.1056 5.67632 95.7847 5.67632 94.1611 5.67632ZM109.465 5.89533C108.082 5.89533 106.773 5.89533 105.336 5.89533C105.405 7.3054 105.467 8.67647 105.538 10.1465C106.993 10.0835 108.352 10.2816 109.741 9.98454C109.999 8.63147 109.744 7.36541 109.465 5.89533ZM110.652 14.5958C112.232 14.5958 113.686 14.5958 115.17 14.5958C115.615 13.3057 115.47 12.0936 115.375 10.7226C113.754 10.8246 112.217 10.9236 110.602 11.0256C110.626 12.2437 110.344 13.3567 110.652 14.5958ZM116.248 9.79253C117.984 10.1315 119.513 9.89154 121.08 9.73853C121.127 8.39746 121.294 7.2274 120.967 6.02434C119.355 6.26435 117.776 5.94334 116.251 6.34536C116.248 7.50941 116.248 8.58947 116.248 9.79253ZM99.8037 14.5088C101.407 14.5088 102.902 14.5088 104.422 14.5088C104.642 13.3267 104.743 12.2647 104.657 11.1636C102.938 11.1636 101.35 11.1636 99.7443 11.1636C99.6018 12.3157 99.5158 13.3477 99.8037 14.5088ZM93.1281 14.3408C93.1756 13.2097 93.4754 12.1596 93.1578 11.1666C91.4155 11.1666 89.7681 11.1666 88.1208 11.1666C88.1208 12.2826 88.1208 13.2577 88.1208 14.3408C89.8305 14.3408 91.4244 14.3408 93.1281 14.3408ZM87.1947 10.1135C86.9602 8.70347 87.1175 7.4074 86.6664 6.09934C85.77 5.95533 84.9121 5.95533 84.0187 6.08134C83.6447 7.3144 83.5557 8.52046 83.7842 9.77752C84.8647 10.0955 85.9124 10.2065 87.1947 10.1135Z" fill="#F74061"/>
<path d="M118.626 2.78754C117.162 2.27452 115.868 2.56553 114.639 2.48452C108.177 2.0645 101.698 1.69549 95.2391 2.37952C90.5582 2.87454 85.8833 3.09655 81.1846 2.94654C80.582 2.92854 79.9825 2.87154 79.0326 2.81154C79.8578 3.71758 80.6117 3.58258 81.2914 3.59758C86.1385 3.70558 90.9708 3.43857 95.806 3.10555C102.918 2.61353 110.027 2.84154 117.124 3.46858C117.658 3.51358 117.658 3.52258 118.626 2.78754Z" fill="#F74061"/>
<path d="M119.791 17.1599C106.686 17.898 93.7035 18.021 80.6107 17.4059C80.9224 16.5119 81.611 16.7099 82.2016 16.7279C86.5471 16.8749 90.8896 17.1029 95.235 17.1689C101.21 17.2589 107.182 16.9769 113.154 16.7759C114.932 16.7159 116.71 16.7309 118.488 16.7429C118.889 16.7489 119.361 16.5779 119.791 17.1599Z" fill="#F74061"/>
<path d="M55.8219 5.30219C55.8219 8.59336 55.8219 11.8995 55.8219 15.4727C42.5332 15.4037 29.5116 15.1937 16.4604 15.3977C16.8819 11.8245 17.2529 8.49735 16.9205 5.28119C29.8708 4.18613 42.9339 5.58721 55.8219 5.30219ZM28.1285 5.67721C27.9504 7.10828 27.9622 8.54835 28.0572 10.0574C29.761 10.0574 31.3044 10.0574 32.9963 10.0574C32.8984 8.53035 32.9755 7.10528 32.4383 5.67721C31.0729 5.67721 29.7521 5.67721 28.1285 5.67721ZM43.4325 5.89622C42.0494 5.89622 40.7404 5.89622 39.3038 5.89622C39.372 7.30629 39.4344 8.67736 39.5056 10.1474C40.96 10.0844 42.3195 10.2824 43.7086 9.98543C43.9668 8.63236 43.7116 7.3663 43.4325 5.89622ZM44.6198 14.5967C46.1989 14.5967 47.6533 14.5967 49.1374 14.5967C49.5827 13.3066 49.4372 12.0945 49.3422 10.7235C47.7216 10.8255 46.1841 10.9245 44.5694 11.0265C44.5931 12.2445 44.3111 13.3576 44.6198 14.5967ZM50.2149 9.79342C51.9513 10.1324 53.4799 9.89243 55.0472 9.73942C55.0946 8.39835 55.2609 7.22829 54.9344 6.02523C53.3226 6.26524 51.7435 5.94423 50.2179 6.34624C50.2149 7.5103 50.2149 8.59036 50.2149 9.79342ZM33.771 14.5097C35.3739 14.5097 36.8698 14.5097 38.3896 14.5097C38.6092 13.3276 38.7101 12.2655 38.624 11.1645C36.9055 11.1645 35.3175 11.1645 33.7117 11.1645C33.5692 12.3165 33.4831 13.3486 33.771 14.5097ZM27.0955 14.3416C27.143 13.2106 27.4428 12.1605 27.1252 11.1675C25.3829 11.1675 23.7355 11.1675 22.0881 11.1675C22.0881 12.2835 22.0881 13.2586 22.0881 14.3416C23.7978 14.3416 25.3918 14.3416 27.0955 14.3416ZM21.1621 10.1144C20.9276 8.70436 21.0849 7.40829 20.6337 6.10023C19.7373 5.95622 18.8795 5.95622 17.9861 6.08223C17.6121 7.31529 17.523 8.52135 17.7516 9.77841C18.832 10.0964 19.8798 10.2074 21.1621 10.1144Z" fill="#F74061"/>
<path d="M52.5929 2.78754C51.1296 2.27451 49.8355 2.56553 48.6066 2.48452C42.1448 2.0645 35.6652 1.69548 29.2064 2.37951C24.5255 2.87454 19.8506 3.09655 15.1519 2.94654C14.5494 2.92854 13.9498 2.87154 13 2.81153C13.8252 3.71758 14.5791 3.58257 15.2588 3.59757C20.1059 3.70558 24.9381 3.43857 29.7733 3.10555C36.8852 2.61353 43.994 2.84154 51.091 3.46857C51.6253 3.51357 51.6253 3.52258 52.5929 2.78754Z" fill="#F74061"/>
<path d="M53.7584 17.1599C40.6538 17.898 27.6708 18.021 14.5781 17.4059C14.8897 16.5119 15.5783 16.7099 16.169 16.7279C20.5145 16.8749 24.8569 17.1029 29.2024 17.1689C35.1774 17.2589 41.1495 16.9769 47.1215 16.7759C48.8994 16.7159 50.6774 16.7309 52.4554 16.7429C52.8561 16.7489 53.328 16.5779 53.7584 17.1599Z" fill="#F74061"/>
<path d="M89.7849 202.302C89.7849 205.593 89.7849 208.9 89.7849 212.473C76.4962 212.404 63.4747 212.194 50.4235 212.398C50.845 208.825 51.216 205.497 50.8836 202.281C63.8339 201.186 76.897 202.587 89.7849 202.302ZM62.0915 202.677C61.9134 204.108 61.9253 205.548 62.0203 207.057C63.724 207.057 65.2675 207.057 66.9594 207.057C66.8614 205.53 66.9386 204.105 66.4014 202.677C65.036 202.677 63.7151 202.677 62.0915 202.677ZM77.3956 202.896C76.0124 202.896 74.7034 202.896 73.2668 202.896C73.3351 204.306 73.3974 205.677 73.4687 207.147C74.9231 207.084 76.2825 207.282 77.6717 206.985C77.9299 205.632 77.6746 204.366 77.3956 202.896ZM78.5829 211.597C80.162 211.597 81.6164 211.597 83.1005 211.597C83.5457 210.307 83.4003 209.095 83.3053 207.723C81.6847 207.825 80.1471 207.924 78.5324 208.026C78.5562 209.245 78.2742 210.358 78.5829 211.597ZM84.178 206.793C85.9144 207.132 87.443 206.892 89.0102 206.739C89.0577 205.398 89.2239 204.228 88.8974 203.025C87.2857 203.265 85.7066 202.944 84.1809 203.346C84.178 204.51 84.178 205.59 84.178 206.793ZM67.7341 211.51C69.3369 211.51 70.8329 211.51 72.3526 211.51C72.5723 210.328 72.6732 209.266 72.5871 208.164C70.8685 208.164 69.2805 208.164 67.6747 208.164C67.5323 209.317 67.4462 210.349 67.7341 211.51ZM61.0586 211.342C61.1061 210.211 61.4059 209.161 61.0883 208.167C59.3459 208.167 57.6986 208.167 56.0512 208.167C56.0512 209.284 56.0512 210.259 56.0512 211.342C57.7609 211.342 59.3548 211.342 61.0586 211.342ZM55.1251 207.114C54.8906 205.704 55.048 204.408 54.5968 203.1C53.7004 202.956 52.8426 202.956 51.9491 203.082C51.5752 204.315 51.4861 205.521 51.7147 206.778C52.7951 207.096 53.8429 207.207 55.1251 207.114Z" fill="#F74061"/>
<path d="M50.5567 199.789C52.0201 199.276 53.3142 199.567 54.5431 199.486C61.0048 199.066 67.4844 198.697 73.9433 199.381C78.6241 199.876 83.2991 200.098 87.9977 199.948C88.6003 199.93 89.1999 199.873 90.1497 199.813C89.3245 200.719 88.5706 200.584 87.8909 200.599C83.0438 200.707 78.2115 200.44 73.3763 200.107C66.2645 199.615 59.1557 199.843 52.0587 200.47C51.5244 200.515 51.5244 200.524 50.5567 199.789Z" fill="#F74061"/>
<path d="M89.0314 214.16C75.9268 214.898 62.9438 215.021 49.8511 214.406C50.1627 213.512 50.8514 213.71 51.442 213.728C55.7875 213.875 60.13 214.103 64.4754 214.169C70.4504 214.259 76.4225 213.977 82.3945 213.776C84.1725 213.716 85.9504 213.731 87.7284 213.743C88.1291 213.749 88.601 213.578 89.0314 214.16Z" fill="#F74061"/>
<path d="M122.854 202.301C122.854 205.592 122.854 208.899 122.854 212.472C109.566 212.403 96.5443 212.193 83.4931 212.397C83.9146 208.824 84.2856 205.496 83.9531 202.28C96.9034 201.185 109.967 202.586 122.854 202.301ZM95.1611 202.676C94.983 204.107 94.9949 205.547 95.0899 207.057C96.7936 207.057 98.3371 207.057 100.029 207.057C99.931 205.529 100.008 204.104 99.4709 202.676C98.1056 202.676 96.7847 202.676 95.1611 202.676ZM110.465 202.895C109.082 202.895 107.773 202.895 106.336 202.895C106.405 204.305 106.467 205.676 106.538 207.147C107.993 207.084 109.352 207.282 110.741 206.985C110.999 205.631 110.744 204.365 110.465 202.895ZM111.652 211.596C113.232 211.596 114.686 211.596 116.17 211.596C116.615 210.306 116.47 209.094 116.375 207.723C114.754 207.825 113.217 207.924 111.602 208.026C111.626 209.244 111.344 210.357 111.652 211.596ZM117.248 206.793C118.984 207.132 120.513 206.892 122.08 206.739C122.127 205.397 122.294 204.227 121.967 203.024C120.355 203.264 118.776 202.943 117.251 203.345C117.248 204.509 117.248 205.589 117.248 206.793ZM100.804 211.509C102.407 211.509 103.902 211.509 105.422 211.509C105.642 210.327 105.743 209.265 105.657 208.164C103.938 208.164 102.35 208.164 100.744 208.164C100.602 209.316 100.516 210.348 100.804 211.509ZM94.1281 211.341C94.1756 210.21 94.4754 209.16 94.1578 208.167C92.4155 208.167 90.7681 208.167 89.1208 208.167C89.1208 209.283 89.1208 210.258 89.1208 211.341C90.8305 211.341 92.4244 211.341 94.1281 211.341ZM88.1947 207.114C87.9602 205.703 88.1175 204.407 87.6664 203.099C86.77 202.955 85.9121 202.955 85.0187 203.081C84.6447 204.314 84.5557 205.52 84.7842 206.778C85.8647 207.096 86.9124 207.207 88.1947 207.114Z" fill="#F74061"/>
<path d="M119.626 199.788C118.162 199.275 116.868 199.566 115.639 199.485C109.177 199.064 102.698 198.695 96.2391 199.38C91.5582 199.875 86.8833 200.097 82.1846 199.947C81.582 199.929 80.9825 199.872 80.0326 199.812C80.8578 200.718 81.6117 200.583 82.2914 200.598C87.1385 200.706 91.9708 200.439 96.806 200.106C103.918 199.614 111.027 199.842 118.124 200.469C118.658 200.514 118.658 200.523 119.626 199.788Z" fill="#F74061"/>
<path d="M120.791 214.16C107.686 214.898 94.7035 215.021 81.6107 214.406C81.9224 213.512 82.611 213.71 83.2016 213.728C87.5471 213.875 91.8896 214.103 96.235 214.169C102.21 214.259 108.182 213.977 114.154 213.776C115.932 213.716 117.71 213.731 119.488 213.743C119.889 213.749 120.361 213.578 120.791 214.16Z" fill="#F74061"/>
<path d="M56.8219 202.302C56.8219 205.593 56.8219 208.9 56.8219 212.473C43.5332 212.404 30.5116 212.194 17.4604 212.398C17.8819 208.825 18.2529 205.497 17.9205 202.281C30.8708 201.186 43.9339 202.587 56.8219 202.302ZM29.1285 202.677C28.9504 204.108 28.9622 205.548 29.0572 207.057C30.761 207.057 32.3044 207.057 33.9963 207.057C33.8984 205.53 33.9755 204.105 33.4383 202.677C32.0729 202.677 30.7521 202.677 29.1285 202.677ZM44.4325 202.896C43.0494 202.896 41.7404 202.896 40.3038 202.896C40.372 204.306 40.4344 205.677 40.5056 207.147C41.96 207.084 43.3195 207.282 44.7086 206.985C44.9668 205.632 44.7116 204.366 44.4325 202.896ZM45.6198 211.597C47.1989 211.597 48.6533 211.597 50.1374 211.597C50.5827 210.307 50.4372 209.095 50.3422 207.723C48.7216 207.825 47.1841 207.924 45.5694 208.026C45.5931 209.245 45.3111 210.358 45.6198 211.597ZM51.2149 206.793C52.9513 207.132 54.4799 206.892 56.0472 206.739C56.0946 205.398 56.2609 204.228 55.9344 203.025C54.3226 203.265 52.7435 202.944 51.2179 203.346C51.2149 204.51 51.2149 205.59 51.2149 206.793ZM34.771 211.51C36.3739 211.51 37.8698 211.51 39.3896 211.51C39.6092 210.328 39.7101 209.266 39.624 208.164C37.9055 208.164 36.3175 208.164 34.7117 208.164C34.5692 209.317 34.4831 210.349 34.771 211.51ZM28.0955 211.342C28.143 210.211 28.4428 209.161 28.1252 208.167C26.3829 208.167 24.7355 208.167 23.0881 208.167C23.0881 209.284 23.0881 210.259 23.0881 211.342C24.7978 211.342 26.3918 211.342 28.0955 211.342ZM22.1621 207.114C21.9276 205.704 22.0849 204.408 21.6337 203.1C20.7373 202.956 19.8795 202.956 18.9861 203.082C18.6121 204.315 18.523 205.521 18.7516 206.778C19.832 207.096 20.8798 207.207 22.1621 207.114Z" fill="#F74061"/>
<path d="M53.5929 199.788C52.1296 199.275 50.8355 199.566 49.6066 199.485C43.1448 199.064 36.6652 198.695 30.2064 199.38C25.5255 199.875 20.8506 200.097 16.1519 199.947C15.5494 199.929 14.9498 199.872 14 199.812C14.8252 200.718 15.5791 200.583 16.2588 200.598C21.1059 200.706 25.9381 200.439 30.7733 200.106C37.8852 199.614 44.994 199.842 52.091 200.469C52.6253 200.514 52.6253 200.523 53.5929 199.788Z" fill="#F74061"/>
<path d="M54.7584 214.16C41.6538 214.898 28.6708 215.021 15.5781 214.406C15.8897 213.512 16.5783 213.71 17.169 213.728C21.5145 213.875 25.8569 214.103 30.2024 214.169C36.1774 214.259 42.1495 213.977 48.1215 213.776C49.8994 213.716 51.6774 213.731 53.4554 213.743C53.8561 213.749 54.328 213.578 54.7584 214.16Z" fill="#F74061"/>
<path d="M133.498 75.7849C130.206 75.7849 126.9 75.7849 123.327 75.7849C123.396 62.4962 123.606 49.4747 123.402 36.4235C126.975 36.845 130.302 37.216 133.519 36.8836C134.614 49.8339 133.213 62.897 133.498 75.7849ZM133.123 48.0915C131.691 47.9134 130.251 47.9253 128.742 48.0203C128.742 49.724 128.742 51.2675 128.742 52.9594C130.269 52.8614 131.694 52.9386 133.123 52.4014C133.123 51.036 133.123 49.7151 133.123 48.0915ZM132.904 63.3956C132.904 62.0124 132.904 60.7034 132.904 59.2668C131.493 59.3351 130.122 59.3974 128.652 59.4687C128.715 60.9231 128.517 62.2825 128.814 63.6717C130.167 63.9299 131.433 63.6746 132.904 63.3956ZM124.203 64.5829C124.203 66.162 124.203 67.6164 124.203 69.1005C125.493 69.5457 126.705 69.4003 128.076 69.3053C127.974 67.6847 127.875 66.1471 127.773 64.5324C126.555 64.5562 125.442 64.2742 124.203 64.5829ZM129.006 70.178C128.667 71.9144 128.907 73.443 129.06 75.0102C130.401 75.0577 131.571 75.2239 132.775 74.8974C132.534 73.2857 132.856 71.7066 132.453 70.1809C131.289 70.178 130.209 70.178 129.006 70.178ZM124.29 53.7341C124.29 55.3369 124.29 56.8329 124.29 58.3526C125.472 58.5723 126.534 58.6732 127.635 58.5871C127.635 56.8685 127.635 55.2805 127.635 53.6747C126.483 53.5323 125.451 53.4462 124.29 53.7341ZM124.458 47.0586C125.589 47.1061 126.639 47.4059 127.632 47.0883C127.632 45.3459 127.632 43.6986 127.632 42.0512C126.516 42.0512 125.541 42.0512 124.458 42.0512C124.458 43.7609 124.458 45.3548 124.458 47.0586ZM128.685 41.1251C130.095 40.8906 131.391 41.048 132.7 40.5968C132.844 39.7004 132.844 38.8426 132.718 37.9491C131.484 37.5752 130.278 37.4861 129.021 37.7147C128.703 38.7951 128.592 39.8429 128.685 41.1251Z" fill="#F74061"/>
<path d="M136.01 36.5567C136.523 38.0201 136.232 39.3142 136.313 40.5431C136.733 47.0048 137.102 53.4844 136.418 59.9433C135.923 64.6241 135.701 69.2991 135.851 73.9977C135.869 74.6003 135.926 75.1999 135.986 76.1497C135.08 75.3245 135.215 74.5706 135.2 73.8909C135.092 69.0438 135.359 64.2115 135.692 59.3763C136.184 52.2645 135.956 45.1557 135.329 38.0587C135.284 37.5244 135.275 37.5244 136.01 36.5567Z" fill="#F74061"/>
<path d="M121.64 75.0314C120.902 61.9268 120.779 48.9438 121.394 35.8511C122.288 36.1627 122.09 36.8514 122.072 37.442C121.925 41.7875 121.697 46.13 121.631 50.4754C121.541 56.4504 121.823 62.4225 122.024 68.3945C122.084 70.1725 122.069 71.9504 122.057 73.7284C122.051 74.1291 122.222 74.601 121.64 75.0314Z" fill="#F74061"/>
<path d="M133.498 108.854C130.207 108.854 126.901 108.854 123.328 108.854C123.397 95.5658 123.607 82.5443 123.403 69.4931C126.976 69.9146 130.303 70.2856 133.519 69.9531C134.614 82.9034 133.213 95.9665 133.498 108.854ZM133.123 81.1611C131.692 80.983 130.252 80.9949 128.743 81.0899C128.743 82.7936 128.743 84.3371 128.743 86.029C130.27 85.931 131.695 86.0082 133.123 85.4709C133.123 84.1055 133.123 82.7847 133.123 81.1611ZM132.904 96.4652C132.904 95.082 132.904 93.773 132.904 92.3364C131.494 92.4047 130.123 92.467 128.653 92.5382C128.716 93.9927 128.518 95.3521 128.815 96.7412C130.168 96.9995 131.434 96.7442 132.904 96.4652ZM124.204 97.6525C124.204 99.2316 124.204 100.686 124.204 102.17C125.494 102.615 126.706 102.47 128.077 102.375C127.975 100.754 127.876 99.2167 127.774 97.602C126.556 97.6257 125.443 97.3438 124.204 97.6525ZM129.007 103.248C128.668 104.984 128.908 106.513 129.061 108.08C130.402 108.127 131.572 108.294 132.775 107.967C132.535 106.355 132.856 104.776 132.454 103.251C131.29 103.248 130.21 103.248 129.007 103.248ZM124.291 86.8037C124.291 88.4065 124.291 89.9025 124.291 91.4222C125.473 91.6418 126.535 91.7428 127.636 91.6567C127.636 89.9381 127.636 88.3501 127.636 86.7443C126.484 86.6018 125.452 86.5158 124.291 86.8037ZM124.459 80.1281C125.59 80.1756 126.64 80.4754 127.633 80.1578C127.633 78.4155 127.633 76.7681 127.633 75.1208C126.517 75.1208 125.542 75.1208 124.459 75.1208C124.459 76.8305 124.459 78.4244 124.459 80.1281ZM128.686 74.1947C130.096 73.9602 131.392 74.1175 132.7 73.6664C132.844 72.77 132.844 71.9121 132.718 71.0187C131.485 70.6447 130.279 70.5557 129.022 70.7842C128.704 71.8647 128.593 72.9124 128.686 74.1947Z" fill="#F74061"/>
<path d="M136.012 105.626C136.525 104.162 136.234 102.868 136.315 101.639C136.735 95.1775 137.104 88.6979 136.42 82.2391C135.925 77.5582 135.703 72.8833 135.853 68.1846C135.871 67.582 135.928 66.9825 135.988 66.0326C135.082 66.8578 135.217 67.6117 135.202 68.2914C135.094 73.1385 135.361 77.9708 135.694 82.806C136.186 89.9178 135.958 97.0267 135.331 104.124C135.286 104.658 135.277 104.658 136.012 105.626Z" fill="#F74061"/>
<path d="M121.64 106.791C120.902 93.6864 120.779 80.7035 121.394 67.6107C122.288 67.9224 122.09 68.611 122.072 69.2016C121.925 73.5471 121.697 77.8896 121.631 82.235C121.541 88.2101 121.823 94.1821 122.024 100.154C122.084 101.932 122.069 103.71 122.057 105.488C122.051 105.889 122.222 106.361 121.64 106.791Z" fill="#F74061"/>
<path d="M133.498 42.8219C130.206 42.8219 126.9 42.8219 123.327 42.8219C123.396 29.5332 123.606 16.5116 123.402 3.46043C126.975 3.88191 130.302 4.25293 133.519 3.9205C134.614 16.8708 133.213 29.9339 133.498 42.8219ZM133.123 15.1285C131.691 14.9504 130.251 14.9622 128.742 15.0572C128.742 16.761 128.742 18.3044 128.742 19.9963C130.269 19.8984 131.694 19.9755 133.123 19.4383C133.123 18.0729 133.123 16.7521 133.123 15.1285ZM132.904 30.4325C132.904 29.0494 132.904 27.7404 132.904 26.3038C131.493 26.372 130.122 26.4344 128.652 26.5056C128.715 27.96 128.517 29.3195 128.814 30.7086C130.167 30.9668 131.433 30.7116 132.904 30.4325ZM124.203 31.6198C124.203 33.1989 124.203 34.6533 124.203 36.1374C125.493 36.5827 126.705 36.4372 128.076 36.3422C127.974 34.7216 127.875 33.1841 127.773 31.5694C126.555 31.5931 125.442 31.3111 124.203 31.6198ZM129.006 37.2149C128.667 38.9513 128.907 40.4799 129.06 42.0472C130.401 42.0946 131.571 42.2609 132.775 41.9344C132.534 40.3226 132.856 38.7435 132.453 37.2179C131.289 37.2149 130.209 37.2149 129.006 37.2149ZM124.29 20.771C124.29 22.3739 124.29 23.8698 124.29 25.3896C125.472 25.6092 126.534 25.7101 127.635 25.624C127.635 23.9055 127.635 22.3175 127.635 20.7117C126.483 20.5692 125.451 20.4831 124.29 20.771ZM124.458 14.0955C125.589 14.143 126.639 14.4428 127.632 14.1252C127.632 12.3829 127.632 10.7355 127.632 9.08814C126.516 9.08814 125.541 9.08814 124.458 9.08814C124.458 10.7978 124.458 12.3918 124.458 14.0955ZM128.685 8.16206C130.095 7.92757 131.391 8.0849 132.7 7.63373C132.844 6.73733 132.844 5.8795 132.718 4.98607C131.484 4.61208 130.278 4.52304 129.021 4.75159C128.703 5.83202 128.592 6.87979 128.685 8.16206Z" fill="#F74061"/>
<path d="M136.012 39.5929C136.525 38.1296 136.234 36.8355 136.315 35.6066C136.735 29.1448 137.104 22.6652 136.42 16.2064C135.925 11.5255 135.703 6.85062 135.853 2.15194C135.871 1.5494 135.928 0.94982 135.988 -7.52192e-06C135.082 0.825155 135.217 1.57908 135.202 2.2588C135.094 7.10588 135.361 11.9381 135.694 16.7733C136.186 23.8852 135.958 30.994 135.331 38.091C135.286 38.6253 135.277 38.6253 136.012 39.5929Z" fill="#F74061"/>
<path d="M121.64 40.7584C120.902 27.6538 120.779 14.6708 121.394 1.57805C122.288 1.88971 122.09 2.57833 122.072 3.16901C121.925 7.51447 121.697 11.8569 121.631 16.2024C121.541 22.1774 121.823 28.1495 122.024 34.1215C122.084 35.8994 122.069 37.6774 122.057 39.4554C122.051 39.8561 122.222 40.328 121.64 40.7584Z" fill="#F74061"/>
<path d="M133.498 179.785C130.206 179.785 126.9 179.785 123.327 179.785C123.396 166.496 123.606 153.475 123.402 140.423C126.975 140.845 130.302 141.216 133.519 140.884C134.614 153.834 133.213 166.897 133.498 179.785ZM133.123 152.092C131.691 151.913 130.251 151.925 128.742 152.02C128.742 153.724 128.742 155.268 128.742 156.959C130.269 156.861 131.694 156.939 133.123 156.401C133.123 155.036 133.123 153.715 133.123 152.092ZM132.904 167.396C132.904 166.012 132.904 164.703 132.904 163.267C131.493 163.335 130.122 163.397 128.652 163.469C128.715 164.923 128.517 166.283 128.814 167.672C130.167 167.93 131.433 167.675 132.904 167.396ZM124.203 168.583C124.203 170.162 124.203 171.616 124.203 173.101C125.493 173.546 126.705 173.4 128.076 173.305C127.974 171.685 127.875 170.147 127.773 168.532C126.555 168.556 125.442 168.274 124.203 168.583ZM129.006 174.178C128.667 175.914 128.907 177.443 129.06 179.01C130.401 179.058 131.571 179.224 132.775 178.897C132.534 177.286 132.856 175.707 132.453 174.181C131.289 174.178 130.209 174.178 129.006 174.178ZM124.29 157.734C124.29 159.337 124.29 160.833 124.29 162.353C125.472 162.572 126.534 162.673 127.635 162.587C127.635 160.869 127.635 159.281 127.635 157.675C126.483 157.532 125.451 157.446 124.29 157.734ZM124.458 151.059C125.589 151.106 126.639 151.406 127.632 151.088C127.632 149.346 127.632 147.699 127.632 146.051C126.516 146.051 125.541 146.051 124.458 146.051C124.458 147.761 124.458 149.355 124.458 151.059ZM128.685 145.125C130.095 144.891 131.391 145.048 132.7 144.597C132.844 143.7 132.844 142.843 132.718 141.949C131.484 141.575 130.278 141.486 129.021 141.715C128.703 142.795 128.592 143.843 128.685 145.125Z" fill="#F74061"/>
<path d="M136.01 140.557C136.523 142.02 136.232 143.314 136.313 144.543C136.733 151.005 137.102 157.484 136.418 163.943C135.923 168.624 135.701 173.299 135.851 177.998C135.869 178.6 135.926 179.2 135.986 180.15C135.08 179.325 135.215 178.571 135.2 177.891C135.092 173.044 135.359 168.212 135.692 163.376C136.184 156.265 135.956 149.156 135.329 142.059C135.284 141.524 135.275 141.524 136.01 140.557Z" fill="#F74061"/>
<path d="M121.64 179.031C120.902 165.927 120.779 152.944 121.394 139.851C122.288 140.163 122.09 140.851 122.072 141.442C121.925 145.787 121.697 150.13 121.631 154.475C121.541 160.45 121.823 166.422 122.024 172.395C122.084 174.172 122.069 175.95 122.057 177.728C122.051 178.129 122.222 178.601 121.64 179.031Z" fill="#F74061"/>
<path d="M133.498 212.854C130.207 212.854 126.901 212.854 123.328 212.854C123.397 199.566 123.607 186.544 123.403 173.493C126.976 173.915 130.303 174.286 133.519 173.953C134.614 186.903 133.213 199.967 133.498 212.854ZM133.123 185.161C131.692 184.983 130.252 184.995 128.743 185.09C128.743 186.794 128.743 188.337 128.743 190.029C130.27 189.931 131.695 190.008 133.123 189.471C133.123 188.106 133.123 186.785 133.123 185.161ZM132.904 200.465C132.904 199.082 132.904 197.773 132.904 196.336C131.494 196.405 130.123 196.467 128.653 196.538C128.716 197.993 128.518 199.352 128.815 200.741C130.168 200.999 131.434 200.744 132.904 200.465ZM124.204 201.652C124.204 203.232 124.204 204.686 124.204 206.17C125.494 206.615 126.706 206.47 128.077 206.375C127.975 204.754 127.876 203.217 127.774 201.602C126.556 201.626 125.443 201.344 124.204 201.652ZM129.007 207.248C128.668 208.984 128.908 210.513 129.061 212.08C130.402 212.127 131.572 212.294 132.775 211.967C132.535 210.355 132.856 208.776 132.454 207.251C131.29 207.248 130.21 207.248 129.007 207.248ZM124.291 190.804C124.291 192.407 124.291 193.902 124.291 195.422C125.473 195.642 126.535 195.743 127.636 195.657C127.636 193.938 127.636 192.35 127.636 190.744C126.484 190.602 125.452 190.516 124.291 190.804ZM124.459 184.128C125.59 184.176 126.64 184.475 127.633 184.158C127.633 182.416 127.633 180.768 127.633 179.121C126.517 179.121 125.542 179.121 124.459 179.121C124.459 180.83 124.459 182.424 124.459 184.128ZM128.686 178.195C130.096 177.96 131.392 178.118 132.7 177.666C132.844 176.77 132.844 175.912 132.718 175.019C131.485 174.645 130.279 174.556 129.022 174.784C128.704 175.865 128.593 176.912 128.686 178.195Z" fill="#F74061"/>
<path d="M136.012 209.626C136.525 208.162 136.234 206.868 136.315 205.639C136.735 199.177 137.104 192.698 136.42 186.239C135.925 181.558 135.703 176.883 135.853 172.185C135.871 171.582 135.928 170.982 135.988 170.033C135.082 170.858 135.217 171.612 135.202 172.291C135.094 177.139 135.361 181.971 135.694 186.806C136.186 193.918 135.958 201.027 135.331 208.124C135.286 208.658 135.277 208.658 136.012 209.626Z" fill="#F74061"/>
<path d="M121.64 210.791C120.902 197.686 120.779 184.703 121.394 171.611C122.288 171.922 122.09 172.611 122.072 173.202C121.925 177.547 121.697 181.89 121.631 186.235C121.541 192.21 121.823 198.182 122.024 204.154C122.084 205.932 122.069 207.71 122.057 209.488C122.051 209.889 122.222 210.361 121.64 210.791Z" fill="#F74061"/>
<path d="M133.498 146.822C130.206 146.822 126.9 146.822 123.327 146.822C123.396 133.533 123.606 120.512 123.402 107.46C126.975 107.882 130.302 108.253 133.519 107.92C134.614 120.871 133.213 133.934 133.498 146.822ZM133.123 119.128C131.691 118.95 130.251 118.962 128.742 119.057C128.742 120.761 128.742 122.304 128.742 123.996C130.269 123.898 131.694 123.976 133.123 123.438C133.123 122.073 133.123 120.752 133.123 119.128ZM132.904 134.433C132.904 133.049 132.904 131.74 132.904 130.304C131.493 130.372 130.122 130.434 128.652 130.506C128.715 131.96 128.517 133.319 128.814 134.709C130.167 134.967 131.433 134.712 132.904 134.433ZM124.203 135.62C124.203 137.199 124.203 138.653 124.203 140.137C125.493 140.583 126.705 140.437 128.076 140.342C127.974 138.722 127.875 137.184 127.773 135.569C126.555 135.593 125.442 135.311 124.203 135.62ZM129.006 141.215C128.667 142.951 128.907 144.48 129.06 146.047C130.401 146.095 131.571 146.261 132.775 145.934C132.534 144.323 132.856 142.744 132.453 141.218C131.289 141.215 130.209 141.215 129.006 141.215ZM124.29 124.771C124.29 126.374 124.29 127.87 124.29 129.39C125.472 129.609 126.534 129.71 127.635 129.624C127.635 127.905 127.635 126.317 127.635 124.712C126.483 124.569 125.451 124.483 124.29 124.771ZM124.458 118.096C125.589 118.143 126.639 118.443 127.632 118.125C127.632 116.383 127.632 114.735 127.632 113.088C126.516 113.088 125.541 113.088 124.458 113.088C124.458 114.798 124.458 116.392 124.458 118.096ZM128.685 112.162C130.095 111.928 131.391 112.085 132.7 111.634C132.844 110.737 132.844 109.879 132.718 108.986C131.484 108.612 130.278 108.523 129.021 108.752C128.703 109.832 128.592 110.88 128.685 112.162Z" fill="#F74061"/>
<path d="M136.012 143.593C136.525 142.13 136.234 140.835 136.315 139.607C136.735 133.145 137.104 126.665 136.42 120.206C135.925 115.526 135.703 110.851 135.853 106.152C135.871 105.549 135.928 104.95 135.988 104C135.082 104.825 135.217 105.579 135.202 106.259C135.094 111.106 135.361 115.938 135.694 120.773C136.186 127.885 135.958 134.994 135.331 142.091C135.286 142.625 135.277 142.625 136.012 143.593Z" fill="#F74061"/>
<path d="M121.64 144.758C120.902 131.654 120.779 118.671 121.394 105.578C122.288 105.89 122.09 106.578 122.072 107.169C121.925 111.514 121.697 115.857 121.631 120.202C121.541 126.177 121.823 132.149 122.024 138.121C122.084 139.899 122.069 141.677 122.057 143.455C122.051 143.856 122.222 144.328 121.64 144.758Z" fill="#F74061"/>
<path d="M12.4975 181.785C9.20637 181.785 5.90021 181.785 2.32703 181.785C2.39603 168.496 2.60604 155.475 2.40204 142.423C5.97521 142.845 9.30238 143.216 12.5185 142.884C13.6136 155.834 12.2125 168.897 12.4975 181.785ZM12.1225 154.092C10.6915 153.913 9.25138 153.925 7.7423 154.02C7.7423 155.724 7.7423 157.268 7.7423 158.959C9.26938 158.861 10.6944 158.939 12.1225 158.401C12.1225 157.036 12.1225 155.715 12.1225 154.092ZM11.9035 169.396C11.9035 168.012 11.9035 166.703 11.9035 165.267C10.4934 165.335 9.12237 165.397 7.6523 165.469C7.7153 166.923 7.51729 168.283 7.8143 169.672C9.16737 169.93 10.4334 169.675 11.9035 169.396ZM3.20307 170.583C3.20307 172.162 3.20307 173.616 3.20307 175.101C4.49314 175.546 5.7052 175.4 7.07627 175.305C6.97426 173.685 6.87526 172.147 6.77325 170.532C5.55519 170.556 4.44214 170.274 3.20307 170.583ZM8.00631 176.178C7.6673 177.914 7.90731 179.443 8.06031 181.01C9.40138 181.058 10.5714 181.224 11.7745 180.897C11.5345 179.286 11.8555 177.707 11.4535 176.181C10.2894 176.178 9.20937 176.178 8.00631 176.178ZM3.29008 159.734C3.29008 161.337 3.29008 162.833 3.29008 164.353C4.47214 164.572 5.53419 164.673 6.63525 164.587C6.63525 162.869 6.63525 161.281 6.63525 159.675C5.48319 159.532 4.45114 159.446 3.29008 159.734ZM3.45809 153.059C4.58914 153.106 5.6392 153.406 6.63225 153.088C6.63225 151.346 6.63225 149.699 6.63225 148.051C5.51619 148.051 4.54114 148.051 3.45809 148.051C3.45809 149.761 3.45809 151.355 3.45809 153.059ZM7.6853 147.125C9.09537 146.891 10.3914 147.048 11.6995 146.597C11.8435 145.7 11.8435 144.843 11.7175 143.949C10.4844 143.575 9.27838 143.486 8.02132 143.715C7.7033 144.795 7.5923 145.843 7.6853 147.125Z" fill="#F74061"/>
<path d="M15.0104 142.557C15.5234 144.02 15.2324 145.314 15.3134 146.543C15.7335 153.005 16.1025 159.484 15.4184 165.943C14.9234 170.624 14.7014 175.299 14.8514 179.998C14.8694 180.6 14.9264 181.2 14.9864 182.15C14.0804 181.325 14.2154 180.571 14.2004 179.891C14.0924 175.044 14.3594 170.212 14.6924 165.376C15.1844 158.265 14.9564 151.156 14.3294 144.059C14.2844 143.524 14.2754 143.524 15.0104 142.557Z" fill="#F74061"/>
<path d="M0.639803 181.031C-0.0982322 167.927 -0.221237 154.944 0.393796 141.851C1.28784 142.163 1.08983 142.851 1.07183 143.442C0.92482 147.787 0.69681 152.13 0.630806 156.475C0.540801 162.45 0.822814 168.422 1.02382 174.395C1.08383 176.172 1.06882 177.95 1.05682 179.728C1.05082 180.129 1.22183 180.601 0.639803 181.031Z" fill="#F74061"/>
<path d="M12.4984 214.854C9.20726 214.854 5.90109 214.854 2.32791 214.854C2.39692 201.566 2.60693 188.544 2.40292 175.493C5.9761 175.915 9.30327 176.286 12.5194 175.953C13.6145 188.903 12.2134 201.967 12.4984 214.854ZM12.1234 187.161C10.6923 186.983 9.25226 186.995 7.74319 187.09C7.74319 188.794 7.74319 190.337 7.74319 192.029C9.27026 191.931 10.6953 192.008 12.1234 191.471C12.1234 190.106 12.1234 188.785 12.1234 187.161ZM11.9044 202.465C11.9044 201.082 11.9044 199.773 11.9044 198.336C10.4943 198.405 9.12325 198.467 7.65318 198.538C7.71618 199.993 7.51817 201.352 7.81519 202.741C9.16826 202.999 10.4343 202.744 11.9044 202.465ZM3.20396 203.652C3.20396 205.232 3.20396 206.686 3.20396 208.17C4.49402 208.615 5.70608 208.47 7.07715 208.375C6.97515 206.754 6.87614 205.217 6.77414 203.602C5.55607 203.626 4.44302 203.344 3.20396 203.652ZM8.0072 209.248C7.66818 210.984 7.90819 212.513 8.0612 214.08C9.40227 214.127 10.5723 214.294 11.7754 213.967C11.5354 212.355 11.8564 210.776 11.4544 209.251C10.2903 209.248 9.21026 209.248 8.0072 209.248ZM3.29096 192.804C3.29096 194.407 3.29096 195.902 3.29096 197.422C4.47302 197.642 5.53507 197.743 6.63613 197.657C6.63613 195.938 6.63613 194.35 6.63613 192.744C5.48407 192.602 4.45202 192.516 3.29096 192.804ZM3.45897 186.128C4.59003 186.176 5.64008 186.475 6.63313 186.158C6.63313 184.416 6.63313 182.768 6.63313 181.121C5.51708 181.121 4.54203 181.121 3.45897 181.121C3.45897 182.83 3.45897 184.424 3.45897 186.128ZM7.68619 180.195C9.09626 179.96 10.3923 180.118 11.7004 179.666C11.8444 178.77 11.8444 177.912 11.7184 177.019C10.4853 176.645 9.27927 176.556 8.0222 176.784C7.70419 177.865 7.59318 178.912 7.68619 180.195Z" fill="#F74061"/>
<path d="M15.0122 211.626C15.5252 210.162 15.2342 208.868 15.3152 207.639C15.7352 201.177 16.1042 194.698 15.4202 188.239C14.9252 183.558 14.7032 178.883 14.8532 174.185C14.8712 173.582 14.9282 172.982 14.9882 172.033C14.0821 172.858 14.2172 173.612 14.2022 174.291C14.0941 179.139 14.3612 183.971 14.6942 188.806C15.1862 195.918 14.9582 203.027 14.3312 210.124C14.2862 210.658 14.2772 210.658 15.0122 211.626Z" fill="#F74061"/>
<path d="M0.639803 212.791C-0.0982322 199.686 -0.221237 186.703 0.393796 173.611C1.28784 173.922 1.08983 174.611 1.07183 175.202C0.92482 179.547 0.69681 183.89 0.630806 188.235C0.540801 194.21 0.822814 200.182 1.02382 206.154C1.08383 207.932 1.06882 209.71 1.05682 211.488C1.05082 211.889 1.22183 212.361 0.639803 212.791Z" fill="#F74061"/>
<path d="M12.4975 148.822C9.20637 148.822 5.90021 148.822 2.32703 148.822C2.39603 135.533 2.60604 122.512 2.40204 109.46C5.97521 109.882 9.30238 110.253 12.5185 109.92C13.6136 122.871 12.2125 135.934 12.4975 148.822ZM12.1225 121.128C10.6915 120.95 9.25138 120.962 7.7423 121.057C7.7423 122.761 7.7423 124.304 7.7423 125.996C9.26938 125.898 10.6944 125.976 12.1225 125.438C12.1225 124.073 12.1225 122.752 12.1225 121.128ZM11.9035 136.433C11.9035 135.049 11.9035 133.74 11.9035 132.304C10.4934 132.372 9.12237 132.434 7.6523 132.506C7.7153 133.96 7.51729 135.319 7.8143 136.709C9.16737 136.967 10.4334 136.712 11.9035 136.433ZM3.20307 137.62C3.20307 139.199 3.20307 140.653 3.20307 142.137C4.49314 142.583 5.7052 142.437 7.07627 142.342C6.97426 140.722 6.87526 139.184 6.77325 137.569C5.55519 137.593 4.44214 137.311 3.20307 137.62ZM8.00631 143.215C7.6673 144.951 7.90731 146.48 8.06031 148.047C9.40138 148.095 10.5714 148.261 11.7745 147.934C11.5345 146.323 11.8555 144.744 11.4535 143.218C10.2894 143.215 9.20937 143.215 8.00631 143.215ZM3.29008 126.771C3.29008 128.374 3.29008 129.87 3.29008 131.39C4.47214 131.609 5.53419 131.71 6.63525 131.624C6.63525 129.905 6.63525 128.317 6.63525 126.712C5.48319 126.569 4.45114 126.483 3.29008 126.771ZM3.45809 120.096C4.58914 120.143 5.6392 120.443 6.63225 120.125C6.63225 118.383 6.63225 116.735 6.63225 115.088C5.51619 115.088 4.54114 115.088 3.45809 115.088C3.45809 116.798 3.45809 118.392 3.45809 120.096ZM7.6853 114.162C9.09537 113.928 10.3914 114.085 11.6995 113.634C11.8435 112.737 11.8435 111.879 11.7175 110.986C10.4844 110.612 9.27838 110.523 8.02132 110.752C7.7033 111.832 7.5923 112.88 7.6853 114.162Z" fill="#F74061"/>
<path d="M15.0122 145.593C15.5252 144.13 15.2342 142.835 15.3152 141.607C15.7352 135.145 16.1042 128.665 15.4202 122.206C14.9252 117.526 14.7032 112.851 14.8532 108.152C14.8712 107.549 14.9282 106.95 14.9882 106C14.0821 106.825 14.2172 107.579 14.2022 108.259C14.0941 113.106 14.3612 117.938 14.6942 122.773C15.1862 129.885 14.9582 136.994 14.3312 144.091C14.2862 144.625 14.2772 144.625 15.0122 145.593Z" fill="#F74061"/>
<path d="M0.639803 146.758C-0.0982322 133.654 -0.221237 120.671 0.393796 107.578C1.28784 107.89 1.08983 108.578 1.07183 109.169C0.92482 113.514 0.69681 117.857 0.630806 122.202C0.540801 128.177 0.822814 134.149 1.02382 140.121C1.08383 141.899 1.06882 143.677 1.05682 145.455C1.05082 145.856 1.22183 146.328 0.639803 146.758Z" fill="#F74061"/>
<path d="M12.4975 77.7849C9.20637 77.7849 5.90021 77.7849 2.32703 77.7849C2.39603 64.4962 2.60604 51.4747 2.40204 38.4235C5.97521 38.845 9.30238 39.216 12.5185 38.8836C13.6136 51.8339 12.2125 64.897 12.4975 77.7849ZM12.1225 50.0915C10.6915 49.9134 9.25138 49.9253 7.7423 50.0203C7.7423 51.724 7.7423 53.2675 7.7423 54.9594C9.26938 54.8614 10.6944 54.9386 12.1225 54.4014C12.1225 53.036 12.1225 51.7151 12.1225 50.0915ZM11.9035 65.3956C11.9035 64.0124 11.9035 62.7034 11.9035 61.2668C10.4934 61.3351 9.12237 61.3974 7.6523 61.4687C7.7153 62.9231 7.51729 64.2825 7.8143 65.6717C9.16737 65.9299 10.4334 65.6746 11.9035 65.3956ZM3.20307 66.5829C3.20307 68.162 3.20307 69.6164 3.20307 71.1005C4.49314 71.5457 5.7052 71.4003 7.07627 71.3053C6.97426 69.6847 6.87526 68.1471 6.77325 66.5324C5.55519 66.5562 4.44214 66.2742 3.20307 66.5829ZM8.00631 72.178C7.6673 73.9144 7.90731 75.443 8.06031 77.0102C9.40138 77.0577 10.5714 77.2239 11.7745 76.8974C11.5345 75.2857 11.8555 73.7066 11.4535 72.1809C10.2894 72.178 9.20937 72.178 8.00631 72.178ZM3.29008 55.7341C3.29008 57.3369 3.29008 58.8329 3.29008 60.3526C4.47214 60.5723 5.53419 60.6732 6.63525 60.5871C6.63525 58.8685 6.63525 57.2805 6.63525 55.6747C5.48319 55.5323 4.45114 55.4462 3.29008 55.7341ZM3.45809 49.0586C4.58914 49.1061 5.6392 49.4059 6.63225 49.0883C6.63225 47.3459 6.63225 45.6986 6.63225 44.0512C5.51619 44.0512 4.54114 44.0512 3.45809 44.0512C3.45809 45.7609 3.45809 47.3548 3.45809 49.0586ZM7.6853 43.1251C9.09537 42.8906 10.3914 43.048 11.6995 42.5968C11.8435 41.7004 11.8435 40.8426 11.7175 39.9491C10.4844 39.5752 9.27838 39.4861 8.02132 39.7147C7.7033 40.7951 7.5923 41.8429 7.6853 43.1251Z" fill="#F74061"/>
<path d="M15.0104 38.5567C15.5234 40.0201 15.2324 41.3142 15.3134 42.5431C15.7335 49.0048 16.1025 55.4844 15.4184 61.9433C14.9234 66.6241 14.7014 71.2991 14.8514 75.9977C14.8694 76.6003 14.9264 77.1999 14.9864 78.1497C14.0804 77.3245 14.2154 76.5706 14.2004 75.8909C14.0924 71.0438 14.3594 66.2115 14.6924 61.3763C15.1844 54.2645 14.9564 47.1557 14.3294 40.0587C14.2844 39.5244 14.2754 39.5244 15.0104 38.5567Z" fill="#F74061"/>
<path d="M0.639803 77.0314C-0.0982322 63.9268 -0.221237 50.9438 0.393796 37.8511C1.28784 38.1627 1.08983 38.8514 1.07183 39.442C0.92482 43.7875 0.69681 48.13 0.630806 52.4754C0.540801 58.4504 0.822814 64.4225 1.02382 70.3945C1.08383 72.1725 1.06882 73.9504 1.05682 75.7284C1.05082 76.1291 1.22183 76.601 0.639803 77.0314Z" fill="#F74061"/>
<path d="M12.4984 110.854C9.20726 110.854 5.90109 110.854 2.32791 110.854C2.39692 97.5658 2.60693 84.5443 2.40292 71.4931C5.9761 71.9146 9.30327 72.2856 12.5194 71.9531C13.6145 84.9034 12.2134 97.9665 12.4984 110.854ZM12.1234 83.1611C10.6923 82.983 9.25226 82.9949 7.74319 83.0899C7.74319 84.7936 7.74319 86.3371 7.74319 88.029C9.27026 87.931 10.6953 88.0082 12.1234 87.4709C12.1234 86.1055 12.1234 84.7847 12.1234 83.1611ZM11.9044 98.4652C11.9044 97.082 11.9044 95.773 11.9044 94.3364C10.4943 94.4047 9.12325 94.467 7.65318 94.5382C7.71618 95.9927 7.51817 97.3521 7.81519 98.7412C9.16826 98.9995 10.4343 98.7442 11.9044 98.4652ZM3.20396 99.6525C3.20396 101.232 3.20396 102.686 3.20396 104.17C4.49402 104.615 5.70608 104.47 7.07715 104.375C6.97515 102.754 6.87614 101.217 6.77414 99.602C5.55607 99.6257 4.44302 99.3438 3.20396 99.6525ZM8.0072 105.248C7.66818 106.984 7.90819 108.513 8.0612 110.08C9.40227 110.127 10.5723 110.294 11.7754 109.967C11.5354 108.355 11.8564 106.776 11.4544 105.251C10.2903 105.248 9.21026 105.248 8.0072 105.248ZM3.29096 88.8037C3.29096 90.4065 3.29096 91.9025 3.29096 93.4222C4.47302 93.6418 5.53507 93.7428 6.63613 93.6567C6.63613 91.9381 6.63613 90.3501 6.63613 88.7443C5.48407 88.6018 4.45202 88.5158 3.29096 88.8037ZM3.45897 82.1281C4.59003 82.1756 5.64008 82.4754 6.63313 82.1578C6.63313 80.4155 6.63313 78.7681 6.63313 77.1208C5.51708 77.1208 4.54203 77.1208 3.45897 77.1208C3.45897 78.8305 3.45897 80.4244 3.45897 82.1281ZM7.68619 76.1947C9.09626 75.9602 10.3923 76.1175 11.7004 75.6664C11.8444 74.77 11.8444 73.9121 11.7184 73.0187C10.4853 72.6447 9.27927 72.5557 8.0222 72.7842C7.70419 73.8647 7.59318 74.9124 7.68619 76.1947Z" fill="#F74061"/>
<path d="M15.0122 107.626C15.5252 106.162 15.2342 104.868 15.3152 103.639C15.7352 97.1775 16.1042 90.6979 15.4202 84.2391C14.9252 79.5582 14.7032 74.8833 14.8532 70.1846C14.8712 69.582 14.9282 68.9825 14.9882 68.0326C14.0821 68.8578 14.2172 69.6117 14.2022 70.2914C14.0941 75.1385 14.3612 79.9708 14.6942 84.806C15.1862 91.9178 14.9582 99.0267 14.3312 106.124C14.2862 106.658 14.2772 106.658 15.0122 107.626Z" fill="#F74061"/>
<path d="M0.639803 108.791C-0.0982322 95.6864 -0.221237 82.7035 0.393796 69.6107C1.28784 69.9224 1.08983 70.611 1.07183 71.2016C0.92482 75.5471 0.69681 79.8896 0.630806 84.235C0.540801 90.2101 0.822814 96.1821 1.02382 102.154C1.08383 103.932 1.06882 105.71 1.05682 107.488C1.05082 107.889 1.22183 108.361 0.639803 108.791Z" fill="#F74061"/>
<path d="M12.4975 44.8219C9.20637 44.8219 5.90021 44.8219 2.32703 44.8219C2.39603 31.5332 2.60604 18.5116 2.40204 5.46042C5.97521 5.88191 9.30238 6.25293 12.5185 5.92049C13.6136 18.8708 12.2125 31.9339 12.4975 44.8219ZM12.1225 17.1285C10.6915 16.9504 9.25138 16.9622 7.7423 17.0572C7.7423 18.761 7.7423 20.3044 7.7423 21.9963C9.26938 21.8984 10.6944 21.9755 12.1225 21.4383C12.1225 20.0729 12.1225 18.7521 12.1225 17.1285ZM11.9035 32.4325C11.9035 31.0494 11.9035 29.7404 11.9035 28.3038C10.4934 28.372 9.12237 28.4344 7.6523 28.5056C7.7153 29.96 7.51729 31.3195 7.8143 32.7086C9.16737 32.9668 10.4334 32.7116 11.9035 32.4325ZM3.20307 33.6198C3.20307 35.1989 3.20307 36.6533 3.20307 38.1374C4.49314 38.5827 5.7052 38.4372 7.07627 38.3422C6.97426 36.7216 6.87526 35.1841 6.77325 33.5694C5.55519 33.5931 4.44214 33.3111 3.20307 33.6198ZM8.00631 39.2149C7.6673 40.9513 7.90731 42.4799 8.06031 44.0472C9.40138 44.0946 10.5714 44.2609 11.7745 43.9344C11.5345 42.3226 11.8555 40.7435 11.4535 39.2179C10.2894 39.2149 9.20937 39.2149 8.00631 39.2149ZM3.29008 22.771C3.29008 24.3739 3.29008 25.8698 3.29008 27.3896C4.47214 27.6092 5.53419 27.7101 6.63525 27.624C6.63525 25.9055 6.63525 24.3175 6.63525 22.7117C5.48319 22.5692 4.45114 22.4831 3.29008 22.771ZM3.45809 16.0955C4.58914 16.143 5.6392 16.4428 6.63225 16.1252C6.63225 14.3829 6.63225 12.7355 6.63225 11.0881C5.51619 11.0881 4.54114 11.0881 3.45809 11.0881C3.45809 12.7978 3.45809 14.3918 3.45809 16.0955ZM7.6853 10.1621C9.09537 9.92757 10.3914 10.0849 11.6995 9.63373C11.8435 8.73733 11.8435 7.8795 11.7175 6.98607C10.4844 6.61208 9.27838 6.52304 8.02132 6.75159C7.7033 7.83202 7.5923 8.87979 7.6853 10.1621Z" fill="#F74061"/>
<path d="M15.0122 41.5929C15.5252 40.1296 15.2342 38.8355 15.3152 37.6066C15.7352 31.1448 16.1042 24.6652 15.4202 18.2064C14.9252 13.5255 14.7032 8.85062 14.8532 4.15194C14.8712 3.5494 14.9282 2.94982 14.9882 1.99999C14.0821 2.82515 14.2172 3.57908 14.2022 4.2588C14.0941 9.10588 14.3612 13.9381 14.6942 18.7733C15.1862 25.8852 14.9582 32.994 14.3312 40.091C14.2862 40.6253 14.2772 40.6253 15.0122 41.5929Z" fill="#F74061"/>
<path d="M0.639803 42.7584C-0.0982322 29.6538 -0.221237 16.6708 0.393796 3.57805C1.28784 3.88971 1.08983 4.57833 1.07183 5.16901C0.92482 9.51447 0.69681 13.8569 0.630806 18.2024C0.540801 24.1774 0.822814 30.1495 1.02382 36.1215C1.08383 37.8994 1.06882 39.6774 1.05682 41.4554C1.05082 41.8561 1.22183 42.328 0.639803 42.7584Z" fill="#F74061"/>
</svg>
