<?xml version="1.0" encoding="UTF-8" standalone="no" ?>
<!DOCTYPE svg PUBLIC "-//W3C//DTD SVG 1.1//EN" "http://www.w3.org/Graphics/SVG/1.1/DTD/svg11.dtd">
<svg xmlns="http://www.w3.org/2000/svg" xmlns:xlink="http://www.w3.org/1999/xlink" version="1.1" width="750" height="300" viewBox="-375 0 1250 500" xml:space="preserve">
<desc>Created with Fabric.js 4.6.0</desc>
<defs>
</defs>
<g transform="matrix(2.43 0 0 3.24 229.33 244.85)" id="sQ8_916zKZVqe_tWCsxp2"  >
<path style="stroke: none; stroke-width: 1; stroke-dasharray: none; stroke-linecap: butt; stroke-dashoffset: 0; stroke-linejoin: miter; stroke-miterlimit: 4; fill: rgb(247,64,97); fill-rule: nonzero; opacity: 1;" vector-effect="non-scaling-stroke"  transform=" translate(-246.31, -62.05)" d="M 4.88879 57.37736 L 2.87496 56.522000000000006 C 3.04435 56.216080000000005 3.09174 55.94568 3.2137200000000004 55.90984 C 4.451930000000001 55.601040000000005 5.6907700000000006 55.32584 7.0863000000000005 54.9972 L 7.766030000000001 52.96456 C 8.14424 52.87912 8.531780000000001 52.83816 8.92021 52.84232 L 19.45078 53.74344 C 19.98635 53.80104 20.52533 53.82504 21.06424 53.8148 C 21.4493 53.78344 21.816930000000003 53.646159999999995 22.12329 53.419599999999996 C 22.42969 53.193039999999996 22.661820000000002 52.886799999999994 22.79214 52.53704 C 22.87106 52.37992 22.91313 52.20776 22.91539 52.03304 C 22.91761 51.85832 22.88002 51.68552 22.80513 51.52648 C 22.730279999999997 51.36712 22.619979999999998 51.22568 22.48208 51.11208 C 22.34414 50.99848 22.18197 50.915279999999996 22.00689 50.86824 C 20.408119999999997 50.64488 18.810899999999997 50.506 17.213389999999997 50.35016 C 16.58121 50.27752 15.897739999999997 50.273360000000004 15.598599999999998 49.285520000000005 L 19.440009999999997 48.57544000000001 L 17.85626 46.38248000000001 L 22.775779999999997 46.157520000000005 C 23.29441 44.86856 22.159909999999996 44.18216 22.003739999999997 43.34344000000001 C 21.004589999999997 42.40232000000001 19.336819999999996 43.156560000000006 18.328339999999997 41.72744000000001 C 20.300849999999997 41.120720000000006 22.354789999999998 40.79368000000001 24.425159999999998 40.75688000000001 C 29.774029999999996 40.99560000000001 35.12419 41.30152000000001 40.49038 41.52296000000001 C 44.87451 41.71176000000001 49.25716 41.83336000000001 53.65794 41.95464000000001 C 54.48378 41.933200000000014 55.307770000000005 41.86152000000001 56.12436 41.74088000000001 C 56.106970000000004 40.83208000000001 55.355500000000006 40.93032000000001 54.898920000000004 40.88808000000001 C 50.949540000000006 40.52296000000001 46.983880000000006 40.22536000000001 43.034870000000005 39.87688000000001 C 37.76903000000001 39.40104000000001 32.379870000000004 38.893840000000004 27.043400000000005 38.38600000000001 C 24.689530000000005 38.35784000000001 22.356310000000004 37.96296000000001 20.134830000000004 37.21640000000001 C 18.694050000000004 36.81960000000001 17.205760000000005 36.60360000000001 15.706970000000005 36.573840000000004 L 13.457520000000006 36.227920000000005 C 13.436690000000006 35.13416 14.358620000000005 34.78056 14.713340000000006 34.083600000000004 C 15.060660000000006 33.44552 15.452930000000006 32.8308 15.887350000000005 32.24392 C 16.126150000000006 31.902990000000003 16.435990000000004 31.611220000000003 16.674820000000004 31.270160000000004 C 17.886420000000005 29.564500000000002 17.747820000000004 28.725260000000006 16.074010000000005 27.325100000000006 C 15.830920000000004 27.140680000000007 15.575990000000004 26.971080000000008 15.310850000000006 26.817230000000006 C 15.924870000000006 24.095660000000006 15.924900000000006 24.095660000000006 14.559710000000006 19.575500000000005 C 12.953210000000006 18.948460000000004 10.707310000000007 18.787690000000005 10.987540000000006 16.021770000000004 L 16.019840000000006 16.198730000000005 C 16.651760000000007 16.306030000000003 17.299670000000006 16.291310000000006 17.925820000000005 16.155530000000006 C 18.552010000000006 16.019750000000005 19.143900000000006 15.765670000000005 19.666930000000004 15.407950000000007 C 20.324090000000005 15.085650000000006 21.072340000000004 14.977330000000007 21.798800000000004 15.099440000000007 C 30.057610000000004 15.402420000000006 38.318490000000004 15.806420000000006 46.55913 16.076080000000008 C 49.78479 16.168370000000007 53.004900000000006 15.957780000000009 56.22797 15.898640000000007 C 56.69121 15.938420000000008 57.15815 15.872660000000007 57.59031 15.706800000000008 C 58.022470000000006 15.540910000000009 58.408010000000004 15.279540000000008 58.71548 14.943890000000009 C 58.21043 14.64920000000001 57.66283 14.426800000000009 57.09081 14.28354000000001 C 54.2999 14.03176000000001 51.52786 13.84693000000001 48.73917 13.69608000000001 L 38.215630000000004 13.18219000000001 C 37.80086000000001 12.55009000000001 37.45824 12.051340000000009 37.11525 11.518960000000009 C 34.89358 11.711220000000008 32.91127 10.670160000000008 30.702630000000003 10.626510000000009 C 28.49395 10.582860000000009 26.015210000000003 10.157010000000009 23.680100000000003 9.913650000000008 L 17.024720000000002 9.160470000000007 L 14.525850000000002 5.839510000000008 C 15.378370000000002 5.520850000000007 16.621090000000002 5.447540000000008 17.047770000000003 4.8505200000000075 C 18.12214 3.2989000000000077 19.582710000000002 3.6256200000000076 21.019390000000005 3.616090000000008 C 25.089130000000004 3.6256900000000076 29.150920000000006 3.9565100000000077 33.16375000000001 4.605270000000008 C 34.02019000000001 4.685050000000008 34.88096000000001 4.714230000000008 35.74121000000001 4.692660000000008 C 38.19527000000001 4.748630000000008 40.66613000000001 4.753780000000008 43.121080000000006 4.843410000000008 C 48.592270000000006 5.062870000000008 54.06383000000001 5.316020000000009 59.51800000000001 5.552630000000009 C 61.026120000000006 5.625970000000009 62.516850000000005 5.682740000000009 64.02423 5.722390000000009 C 64.87412 5.832660000000009 65.73659 5.816820000000009 66.58167 5.675480000000009 C 70.69755 4.640410000000009 74.89668 5.236760000000009 79.04586 5.059610000000009 C 84.29875 4.845400000000009 89.55571 4.866780000000009 94.81082 4.770360000000009 C 95.41725000000001 4.690070000000009 96.00592 4.514260000000009 96.55315 4.250140000000009 C 97.11481 3.962680000000009 97.69534 3.710270000000009 98.29067 3.494400000000009 C 99.16313000000001 3.293220000000009 100.03781000000001 3.226690000000009 99.96011 4.659010000000009 C 101.51633 4.495780000000009 102.90642 4.7901500000000095 104.02345 3.6417600000000094 C 104.28059999999999 3.350850000000009 105.03466 3.3707200000000093 105.52676 3.4458600000000095 C 108.68508 3.7157500000000097 111.85968 3.7755600000000094 115.02725 3.6250000000000093 C 120.18097999999999 3.7324600000000094 125.27958 2.797230000000009 130.43442 2.9719900000000092 C 131.50297999999998 2.952390000000009 132.57154 2.932780000000009 133.63788 2.812210000000009 C 134.37603 2.663460000000009 135.13675 2.649500000000009 135.88008 2.7710700000000092 C 138.04236 3.3950500000000092 140.37002999999999 3.220210000000009 142.40651 2.2809100000000093 C 143.43363 1.9857400000000094 144.49738 1.8246700000000093 145.56889999999999 1.8020300000000093 C 151.31463 1.2225500000000094 157.0907 0.9704000000000094 162.86676999999997 1.0469300000000095 C 165.14633999999998 0.6008900000000095 167.49102999999997 0.5578700000000094 169.78576999999999 0.9199700000000095 C 171.59432999999999 0.8030300000000095 173.40918 0.8034700000000095 175.21774 0.9213000000000096 C 175.64879 0.9703400000000095 176.08576 0.8980200000000096 176.47537 0.7130700000000095 C 177.19983 0.3796900000000095 177.98608 0.18713000000000957 178.78787 0.14642000000000954 C 179.59002999999998 0.10570000000000954 180.39256 0.21768000000000953 181.14921 0.47586000000000955 C 181.6772 0.6008400000000096 182.33099 0.8749500000000096 182.71283 0.6827700000000095 C 184.95281 -0.38521999999999046 187.33191 0.32866000000000956 189.62369 0.1351100000000095 C 192.59775000000002 -0.10463999999999049 195.61436 0.0252500000000095 198.61284 0.1385700000000095 C 203.8698 0.1543400000000095 209.12713 0.1925200000000095 214.3852 0.2531600000000095 C 218.99392 0.2864300000000095 223.60264 0.30287000000000946 228.21321 0.4202800000000095 C 230.54199 0.6668600000000094 232.89075 0.6857800000000095 235.2236 0.4768000000000095 C 236.92782 0.3223200000000095 238.64462 0.3529100000000095 240.34181 0.5680400000000095 C 243.84978 0.7561800000000095 247.35923 1.0285400000000096 250.86683000000002 1.1830200000000095 C 253.80833 1.5413000000000094 256.77943000000005 1.6220900000000096 259.73758000000004 1.4242500000000096 C 260.47573000000006 1.2519200000000095 261.25162000000006 1.3144900000000095 261.94907000000006 1.6025300000000096 C 262.02456000000006 1.6397200000000096 262.1006100000001 1.6756400000000096 262.17717000000005 1.7102700000000095 C 262.24022 1.6949000000000094 262.3031500000001 1.6788400000000094 262.36595000000005 1.6621100000000095 C 264.09947000000005 1.1600500000000096 265.8763900000001 0.8654500000000095 267.66602000000006 0.7832300000000095 C 270.17485000000005 0.5177400000000095 272.6994900000001 0.4969200000000095 275.2111100000001 0.7210000000000095 C 281.67647000000005 1.0730700000000095 288.14152000000007 1.4033800000000096 294.6062600000001 1.7119800000000094 C 300.7036500000001 2.0066300000000092 306.80135000000007 2.317560000000009 312.9120700000001 2.5303800000000094 C 320.90325000000007 2.8174600000000094 328.9074500000001 3.0065100000000093 336.8973900000001 3.2283800000000094 L 350.6595300000001 3.5886700000000094 C 353.17115000000007 3.665850000000009 355.6821500000001 3.6940900000000094 358.1819900000001 3.9346200000000096 C 359.8463800000001 4.108000000000009 361.5203800000001 4.143340000000009 363.1897300000001 4.040390000000009 C 364.3196800000001 4.016400000000009 365.47133000000014 4.39971000000001 366.6167800000001 4.424360000000009 C 367.7622300000001 4.448970000000009 368.9334100000001 4.244710000000009 370.1073800000001 4.219790000000009 C 370.7323400000001 4.236220000000008 371.3517200000001 4.349280000000008 371.9481600000001 4.5558000000000085 C 373.3239400000001 4.967570000000008 374.76792000000006 5.015160000000009 376.1638500000001 4.694680000000009 C 377.8462200000001 4.365270000000009 379.5642400000001 4.328820000000009 381.2562200000001 4.586640000000009 C 382.2069900000001 4.802120000000009 383.1400900000001 5.104180000000009 384.0459100000001 5.489670000000009 C 384.7223300000001 4.836620000000009 385.6033500000001 4.50716000000001 386.4970800000001 4.573310000000009 C 390.8036000000001 4.873330000000009 395.0940000000001 5.075820000000009 399.3989700000001 5.294340000000009 C 402.19052000000005 5.4308000000000085 404.9675000000001 5.567640000000009 407.7438600000001 5.671830000000009 L 420.6854300000001 6.131130000000009 L 434.1552400000001 6.579140000000009 C 438.4735400000001 6.715820000000009 442.7775800000001 6.869210000000009 447.0955700000001 6.973270000000008 C 450.8552500000001 7.056600000000008 454.6276400000001 7.025510000000009 458.38825000000014 7.157720000000008 C 460.62087000000014 7.224490000000008 462.7980000000001 7.488120000000008 465.09138000000013 7.684100000000008 C 467.85565000000014 7.951600000000008 470.63480000000015 8.202540000000008 473.3993800000001 8.486380000000008 C 474.7230800000001 8.637660000000007 476.0474000000001 8.821550000000007 477.3422700000001 8.989790000000008 C 477.6383200000001 10.043510000000008 476.95384000000007 10.384170000000008 476.6100500000001 10.89700000000001 C 475.9801300000001 11.87254000000001 476.12335000000013 12.538200000000009 477.1435600000001 12.973160000000009 C 477.6318100000001 13.20743000000001 478.1482700000001 13.359510000000009 478.7834600000001 13.606950000000008 L 478.8640600000001 18.497670000000006 C 480.44382000000013 19.034960000000005 481.1028800000001 20.733360000000005 482.4520000000001 21.536450000000006 C 482.6597000000001 21.662530000000007 482.9728000000001 21.949400000000004 482.96102000000013 22.129050000000007 C 482.8264800000001 23.762720000000005 484.15979000000016 24.484590000000008 484.91092000000015 25.528660000000006 C 485.18155000000013 25.914330000000007 485.46644000000015 26.283350000000006 485.78202000000016 26.716950000000004 L 484.13127000000014 28.105590000000003 L 484.07795000000016 30.226730000000003 L 477.48983000000015 32.2257 C 477.87795000000017 34.40283 478.0286100000001 34.62789 479.55970000000013 34.88891 C 482.21020000000016 35.370650000000005 484.87434000000013 35.787290000000006 487.39154000000013 36.206720000000004 C 487.93652000000014 37.036590000000004 488.55931000000015 37.79981 489.2496800000001 38.483050000000006 C 489.9378800000001 38.86652000000001 490.67506000000014 39.13157 491.43549000000013 39.268280000000004 C 491.2795600000001 39.61424 491.23988000000014 39.87588 491.13789000000014 39.92703 C 490.4664300000001 40.169450000000005 489.67469000000017 40.235170000000004 489.3662400000001 41.10627 C 489.15854000000013 41.61808 489.04849000000013 42.172360000000005 489.0426000000001 42.73377 C 489.0364000000001 43.29518 489.1349800000001 43.85163 489.3318300000001 44.3684 C 489.5894400000001 45.31824 490.1183000000001 46.14842 490.8390500000001 46.73401 C 492.1277200000001 47.4405 492.2507900000001 48.66097 492.5948900000001 49.95832 C 492.61442000000005 50.16416 492.6178300000001 50.37124 492.60512000000006 50.5777 C 491.53128000000004 52.23124 491.65249000000006 54.23446 491.37566000000004 56.1484 C 491.37566000000004 56.1484 491.21663000000007 56.298750000000005 491.14316 56.28387 C 489.53643 56.12856 487.92164 56.10283 486.31181000000004 56.20699 C 484.74445000000003 56.59852 483.13896000000005 56.76406 481.53378000000004 56.699889999999996 C 480.99748000000005 56.7033 480.46273 56.763749999999995 479.93666 56.880309999999994 C 479.04138 56.89952999999999 478.13370000000003 57.04926 477.25268 57.035309999999996 C 474.31574 56.99966 471.37849 56.931459999999994 468.3005 57.22503 C 468.61019 57.31648 468.9205 57.440479999999994 469.22988 57.499069999999996 C 470.43701999999996 57.701809999999995 470.43671 57.685379999999995 471.00556 59.238789999999995 L 473.69729 59.55685 C 474.00078 60.153909999999996 474.30396 60.734539999999996 474.57521 61.16916 L 487.55553000000003 63.095189999999995 L 488.82315000000006 65.17223 L 490.5101700000001 65.98443 C 490.3685000000001 66.29722000000001 490.32851000000005 66.54274000000001 490.2262100000001 66.57746 C 489.1889500000001 66.87692 488.1507600000001 67.14352 486.9817500000001 67.46189 L 486.41228000000007 69.4307 C 486.0948400000001 69.5113 485.77089000000007 69.55625 485.4453900000001 69.56555 L 476.6224800000001 68.69259 C 476.1457000000001 68.61974 475.6630300000001 68.60269 475.1828400000001 68.64175 C 474.8604400000001 68.67213 474.5523000000001 68.80481 474.2956200000001 69.02429000000001 C 474.0389400000001 69.24377000000001 473.8442600000001 69.54044 473.7351400000001 69.87927 C 473.6663200000001 70.03117 473.6288100000001 70.19826 473.62571000000014 70.36845000000001 C 473.6226100000001 70.53864000000002 473.6536100000001 70.70728000000001 473.7165400000001 70.86228000000001 C 473.77978000000013 71.01728000000001 473.8730900000001 71.15461000000002 473.9902700000001 71.26435000000001 C 474.10745000000014 71.37378000000001 474.2447800000001 71.45314 474.39296000000013 71.49592000000001 C 475.7327800000001 71.71230000000001 477.0707400000001 71.84684000000001 478.4096300000001 72.01424000000002 C 478.9378700000001 72.00308000000001 479.5101300000001 71.99099000000001 479.7624700000001 73.04561000000001 L 476.5437400000001 73.71738 L 477.8705400000001 75.84181000000001 L 473.7487800000001 76.05974 C 473.3147800000001 77.32454 474.2649300000001 77.97306 474.39575000000013 78.78557 C 475.2327500000001 79.69759 476.63023000000015 78.96661 477.47529000000014 80.35107 C 475.82237000000015 80.93914000000001 474.1015600000001 81.25565 472.36711000000014 81.2913 C 467.9589100000001 81.05849 463.40284000000014 80.76399 458.90722000000017 80.54947000000001 C 455.2340300000002 80.38269000000001 451.56177000000014 80.24877000000001 447.87494000000015 80.14740000000002 C 447.1833300000001 80.16228000000002 446.49296000000015 80.22583000000002 445.80817000000013 80.33805000000002 C 445.89590000000015 81.21690000000002 446.43778000000015 81.12390000000002 446.83489000000014 81.18063000000002 C 450.14383000000015 81.51822000000003 453.46641000000017 81.80652000000002 456.7753500000001 82.16023000000003 C 461.1872700000001 82.62120000000003 465.7021100000001 83.09612000000003 470.17200000000014 83.50687000000002 C 472.14422000000013 83.53384000000003 474.09908000000013 83.91638000000002 475.96032000000014 84.63961000000002 C 477.16808000000015 85.02308000000002 478.41428000000013 85.23760000000001 479.67040000000014 85.27852000000001 C 480.2736600000001 85.36346000000002 480.8775400000001 85.48126000000002 481.55489000000017 85.59720000000002 C 481.57225000000017 86.65709000000001 480.8000400000002 87.01576000000001 480.50275000000016 87.69094000000001 C 480.20825000000013 88.30164 479.87965000000014 88.89126000000002 479.51881000000014 89.45670000000001 C 479.31886000000014 89.78716000000001 479.0593900000001 90.06988000000001 478.85913000000016 90.40034000000001 C 477.84419000000014 92.05264000000001 477.96013000000016 92.86546000000001 479.3625700000002 94.22202000000001 C 479.56624000000016 94.40058000000002 479.7798300000002 94.56488000000002 480.0017900000002 94.71399000000001 C 479.4878100000002 97.36666000000001 479.4878100000002 97.36666000000001 480.6314000000002 101.72929 C 481.9774200000002 102.33689000000001 483.8591200000002 102.49251000000001 483.62414000000024 105.17215 L 479.40814000000023 105.01684 C 478.87959000000023 104.90958 478.3370900000002 104.92074 477.8122600000002 105.04939 C 477.2877400000002 105.17835000000001 476.7911200000002 105.42201 476.3521600000002 105.76673 C 475.8034600000002 106.08448 475.1766400000002 106.19515 474.5662500000002 106.08169 C 467.6464300000002 105.77199999999999 460.72537000000017 105.38046999999999 453.8067900000002 105.13588 C 451.11847000000023 105.02986 448.4205400000002 105.25027 445.7204400000002 105.30762 C 445.33325000000025 105.26577 444.94234000000023 105.32622 444.58026000000024 105.48401 C 444.21787000000023 105.64211 443.8942300000002 105.8929 443.63600000000025 106.21623 C 444.05884000000026 106.50639 444.51733000000024 106.72742 444.9972100000003 106.87218999999999 C 447.33523000000025 107.09973 449.65806000000026 107.27891 451.9945300000003 107.42491999999999 C 454.93395000000027 107.62362999999999 457.87244000000027 107.75692999999998 460.8112400000003 107.92308999999999 C 461.1590600000003 108.53533999999999 461.4458100000003 109.01831999999999 461.7334900000003 109.53415999999999 C 463.5947300000003 109.34784999999998 465.2557100000003 110.35627999999998 467.1064100000003 110.41486999999998 C 468.95711000000034 110.47345999999997 471.0334900000003 110.85351999999997 472.99021000000033 111.10554999999998 L 478.5661800000003 111.83528999999999 L 480.65992000000034 115.05246999999999 C 479.94537000000037 115.34479999999999 478.90408000000036 115.41578999999999 478.54696000000035 116.01067999999998 C 477.64641000000034 117.49743999999998 476.42284000000035 117.18092999999998 475.21911000000034 117.19022999999999 C 471.81004000000036 117.17813999999998 468.4077900000003 116.86317999999999 465.04429000000033 116.24813999999999 C 464.3275700000003 116.157 463.60589000000033 116.12320999999999 462.8848300000003 116.14707999999999 C 460.8301500000003 116.19078999999999 458.7587300000003 116.1043 456.7015700000003 116.00106999999998 C 452.1179100000003 115.80483999999998 447.5333200000003 115.54319999999998 442.9636100000003 115.31410999999999 C 441.7016000000003 115.34076999999999 440.4510600000003 115.18793999999998 439.1878100000003 115.14949999999999 C 438.4754300000003 115.05091999999999 437.7540600000003 115.06611 437.0450900000003 115.19506999999999 C 433.5972700000003 116.21403999999998 430.0787700000003 115.62007999999999 426.6021200000003 115.79181999999999 C 422.2016700000003 116.01563999999999 417.7968800000003 115.97843999999999 413.3939500000003 116.07174999999998 C 412.8864800000003 116.14397999999998 412.3932700000003 116.30858999999998 411.9338500000003 116.55937999999998 C 411.4666800000003 116.84984999999998 410.9799800000003 117.10001999999997 410.4780900000003 117.30802999999997 C 409.7471100000003 117.48658999999998 408.9408000000003 117.55261999999998 409.0796800000003 116.17962999999997 C 407.77520000000027 116.32160999999998 406.6108400000003 116.03640999999998 405.67526000000026 117.16511999999997 C 405.45919000000026 117.43078999999997 404.8277200000003 117.41156999999997 404.41542000000027 117.33871999999997 C 401.7686400000003 117.08544999999997 399.10946000000024 117.02747999999997 396.45555000000024 117.16511999999997 C 392.13756000000024 117.06095999999998 387.86576000000025 117.96708999999997 383.54684000000026 117.79782999999998 C 382.65156000000025 117.81673999999998 381.75628000000023 117.83564999999997 380.86286000000024 117.96894999999998 C 380.24472000000026 118.11340999999997 379.60705000000024 118.12673999999998 378.98457000000025 118.00862999999998 C 377.17200000000025 117.41218999999998 375.2242700000003 117.58113999999998 373.5161700000003 118.48354999999998 C 372.65561000000025 118.76936999999998 371.76467000000025 118.92560999999998 370.8666000000003 118.94730999999997 C 366.0529200000003 119.50871999999997 361.21351000000027 119.75299999999997 356.3741000000003 119.67890999999997 C 354.4397000000003 120.11321999999997 352.4510500000003 120.15537999999998 350.50363000000027 119.80352999999997 C 348.98835000000025 119.91667999999997 347.4678000000003 119.91636999999997 345.9525200000003 119.80228999999997 C 345.59106000000025 119.73842999999997 345.22061000000025 119.80941999999997 344.89883000000026 120.00378999999997 C 343.67061000000024 120.64734999999996 342.26445000000024 120.73011999999997 340.9829100000003 120.23380999999996 C 340.5405400000003 120.11259999999996 339.9927700000003 119.84692999999996 339.6725400000003 120.01680999999996 C 337.7958000000003 121.05158999999996 335.8028100000003 120.37609999999997 333.8092000000003 120.54907999999996 C 331.3171100000003 120.78126999999996 328.78999000000033 120.65540999999996 326.2780600000003 120.56209999999996 L 313.0630700000003 120.43468999999996 C 311.8662500000003 120.42469999999996 310.66949000000034 120.41782999999997 309.47271000000035 120.40924999999996 C 309.4802200000004 120.49101999999996 309.48738000000037 120.57349999999995 309.49407000000036 120.65677999999996 C 309.2491300000004 120.82541999999995 308.97126000000037 120.94509999999995 308.67711000000037 121.00845999999996 L 299.68389000000036 120.76941999999995 C 299.05896000000035 120.66189999999996 298.42293000000035 120.62829999999995 297.78949000000034 120.66925999999995 C 294.19642000000033 121.54349999999995 290.7720700000003 120.22573999999994 287.11980000000034 120.74733999999995 L 287.10796000000033 120.12461999999995 L 290.3209800000003 120.06569999999995 C 287.7130000000003 119.89259999999994 285.1046700000003 119.68124999999995 282.4970800000003 119.53383999999996 C 281.8115900000003 119.43960999999996 281.12426000000033 119.36551999999996 280.43581000000034 119.31160999999996 C 280.57976000000036 119.58523999999996 281.0071200000003 119.72088999999995 281.3222800000003 119.94478999999995 C 280.7717200000003 120.49358999999995 280.0628000000003 120.99470999999996 280.4686900000003 122.04782999999995 L 281.9464700000003 122.35726999999994 C 281.7729400000003 122.46158999999994 281.63567000000035 122.59854999999995 281.4954400000003 122.60110999999995 C 280.32180000000034 122.62286999999995 279.1307700000003 122.64462999999995 277.99228000000033 122.66542999999994 C 276.9207600000003 122.63726999999994 275.85035000000033 122.74734999999994 274.80917000000034 122.99342999999995 C 272.7364300000003 123.49422999999994 270.61781000000036 123.79790999999994 268.48365000000035 123.90062999999995 C 265.48813000000035 124.16078999999995 262.47559000000035 124.17646999999995 259.47785000000033 123.94798999999995 C 251.76113000000032 123.58446999999995 244.04478000000034 123.24910999999994 236.32917000000032 122.94190999999995 C 229.0516400000003 122.63758999999995 221.7733700000003 122.29998999999995 214.4799300000003 122.08014999999995 C 204.9420700000003 121.78382999999995 195.3886700000003 121.58894999999994 185.85192000000032 121.35982999999995 C 180.38258000000033 121.22446999999994 174.8962200000003 121.13998999999994 169.42651000000032 120.98766999999995 C 166.42877000000033 120.92494999999995 163.43214000000032 120.89582999999995 160.44809000000032 120.63054999999996 C 158.46119000000033 120.45742999999996 156.4631900000003 120.42638999999996 154.47148000000033 120.53838999999995 C 153.12246000000033 120.56302999999996 151.74828000000034 120.16750999999995 150.38076000000032 120.12526999999994 C 149.0132400000003 120.08302999999994 147.6161200000003 120.32750999999995 146.21456000000032 120.33646999999995 C 145.47049000000032 120.31630999999994 144.7323400000003 120.20558999999994 144.01787000000033 120.00622999999995 C 142.37803000000034 119.56750999999994 140.65272000000033 119.51246999999995 138.98587000000032 119.84622999999995 C 136.9771400000003 120.17774999999995 134.92771000000033 120.21518999999995 132.90751000000031 119.95758999999995 C 131.77494000000033 119.72078999999995 130.6619800000003 119.40366999999995 129.5778800000003 119.00878999999995 C 129.1801300000003 119.34574999999995 128.71652000000032 119.60302999999995 128.2140600000003 119.76526999999994 C 127.7116000000003 119.92782999999994 127.1806500000003 119.99214999999994 126.6522900000003 119.95470999999995 C 121.51225000000031 119.64494999999995 116.3914500000003 119.43566999999994 111.25326000000031 119.21038999999995 C 107.92141000000031 119.06926999999995 104.60695000000031 118.92814999999995 101.2932300000003 118.82062999999995 L 85.84684000000031 118.34670999999994 L 69.76997000000031 117.88398999999994 C 64.61587000000031 117.74286999999994 59.478790000000316 117.58478999999994 54.32543000000031 117.49422999999994 C 49.83807000000031 117.40814999999995 45.33517000000031 117.42350999999995 40.84707000000031 117.30382999999995 C 38.18196000000031 117.21806999999995 35.58349000000031 116.94574999999995 32.84615000000031 116.74350999999994 C 29.547010000000306 116.48398999999995 26.23003000000031 116.20846999999995 22.930220000000308 115.91534999999995 C 21.350580000000306 115.77614999999994 19.769610000000306 115.56942999999994 18.224340000000307 115.39566999999995 C 17.87069000000031 114.30798999999995 18.687880000000305 113.97294999999995 19.097980000000305 113.42670999999996 C 19.849780000000305 112.41998999999996 19.679030000000306 111.73294999999996 18.461730000000305 111.30062999999996 C 17.878570000000305 111.04206999999995 17.262340000000304 110.88494999999996 16.504020000000306 110.62958999999995 L 16.407860000000305 105.58094999999994 C 14.522410000000304 105.02638999999995 13.718030000000304 103.27374999999995 12.125550000000306 102.46126999999994 C 11.877760000000306 102.33102999999994 11.503840000000306 102.01806999999994 11.517830000000306 101.83246999999994 C 11.678450000000305 100.14638999999994 10.087560000000305 99.41806999999994 9.190570000000307 98.32334999999995 C 8.867600000000307 97.92526999999995 8.527460000000307 97.54414999999995 8.150940000000306 97.09646999999995 L 10.103650000000306 95.66350999999996 L 10.184610000000305 93.47374999999995 L 18.048260000000305 91.42702999999996 C 17.584910000000306 89.17998999999996 17.405270000000304 88.94734999999996 15.577470000000304 88.66094999999996 C 12.414300000000303 88.18030999999996 9.234230000000304 87.73390999999995 6.229640000000304 87.30062999999996 C 5.5794000000003035 86.44398999999996 4.836070000000303 85.65646999999996 4.012120000000303 84.95086999999995 C 3.1874200000003032 84.56238999999995 2.308880000000303 84.28942999999995 1.403360000000303 84.14030999999996 C 1.589310000000303 83.78350999999995 1.6367700000003031 83.51310999999995 1.758740000000303 83.47726999999996 C 2.559680000000303 83.21006999999996 3.504600000000303 83.14222999999996 3.8733000000003033 82.25998999999996 C 4.121130000000303 81.73134999999996 4.252700000000304 81.15950999999995 4.259730000000303 80.57998999999995 C 4.266800000000303 80.00046999999995 4.149210000000303 79.42606999999995 3.914300000000303 78.89230999999995 C 3.606720000000303 77.90766999999995 2.9756000000003033 77.04526999999995 2.115240000000303 76.43406999999995 C 0.5772200000003029 75.72142999999996 0.4302500000003029 74.44494999999995 0.020850000000302682 73.18990999999995 C -0.0021599999996973172 72.98286999999995 -0.0061299999996973185 72.77454999999995 0.008990000000302681 72.56718999999995 C 1.2906600000003028 70.86030999999996 1.1458100000003026 68.77550999999995 1.4764800000003027 66.81646999999995 C 1.5640600000003027 66.81486999999996 1.6662800000003026 66.66158999999995 1.7538600000003026 66.65998999999995 C 3.6713500000003023 66.82062999999995 5.598530000000302 66.84686999999995 7.520240000000302 66.73934999999994 C 9.391550000000302 66.34094999999995 11.308260000000303 66.17550999999995 13.223160000000302 66.24750999999995 C 13.863740000000302 66.23822999999994 14.501990000000301 66.17006999999995 15.129210000000302 66.04430999999995 C 16.197700000000303 66.02446999999995 17.263670000000303 65.87022999999995 18.3327800000003 65.88430999999996 C 21.8379700000003 65.92110999999996 25.3438000000003 65.99150999999996 29.0177100000003 65.68846999999995 C 28.6546300000003 65.57614999999996 28.2841500000003 65.48750999999996 27.9087500000003 65.42254999999996 C 26.4679300000003 65.21326999999995 26.4679300000003 65.21326999999995 25.7893900000003 63.62638999999996 L 22.5761600000003 63.28142999999996 L 21.5282100000003 61.617109999999954 L 6.0355700000003 59.62894999999995 z M 284.3744 120.12424 L 283.98404999999997 119.86216 C 284.05323999999996 119.81032 284.19124999999997 119.70664000000001 284.19124999999997 119.70664000000001 C 284.33333 119.77832000000001 284.46948999999995 119.86056 284.59898999999996 119.95176000000001 z" stroke-linecap="round" />
</g>
</svg>