<svg width="1921" height="55" viewBox="0 0 1921 55" fill="none" xmlns="http://www.w3.org/2000/svg">
<path d="M1.2373 43.4144C1.2373 32.01 1.2373 20.5536 1.2373 8.17188C46.28 8.41098 90.4172 9.13871 134.655 8.43178C133.226 20.8135 131.969 32.3427 133.096 43.4872C89.1999 47.2818 44.9218 42.4268 1.2373 43.4144ZM95.1056 42.1149C95.7093 37.156 95.669 32.1659 95.3471 26.9367C89.5721 26.9367 84.3405 26.9367 78.6058 26.9367C78.9378 32.2283 78.6762 37.1664 80.4972 42.1149C85.1252 42.1149 89.6023 42.1149 95.1056 42.1149ZM43.2316 41.356C47.9199 41.356 52.3568 41.356 57.2263 41.356C56.9949 36.4699 56.7836 31.7189 56.5422 26.6248C51.6123 26.8432 47.0044 26.157 42.2959 27.1862C41.4206 31.8748 42.2858 36.262 43.2316 41.356ZM39.2072 11.2075C33.8548 11.2075 28.925 11.2075 23.8945 11.2075C22.3854 15.6778 22.8783 19.8778 23.2003 24.6288C28.6936 24.2753 33.9051 23.9323 39.3783 23.5788C39.2978 19.358 40.2535 15.5011 39.2072 11.2075ZM20.2424 27.8516C14.3568 26.6768 9.17535 27.5085 3.86319 28.0387C3.70221 32.6857 3.13881 36.7402 4.24551 40.909C9.70858 40.0773 15.061 41.1897 20.2323 39.7966C20.2424 35.763 20.2424 32.0204 20.2424 27.8516ZM75.9798 11.509C70.5469 11.509 65.4762 11.509 60.325 11.509C59.5805 15.605 59.2385 19.2852 59.5302 23.1006C65.3555 23.1006 70.7381 23.1006 76.181 23.1006C76.664 19.1085 76.9557 15.5323 75.9798 11.509ZM98.6069 12.0912C98.4459 16.0105 97.4297 19.6491 98.5062 23.0902C104.412 23.0902 109.996 23.0902 115.58 23.0902C115.58 19.2229 115.58 15.8442 115.58 12.0912C109.785 12.0912 104.382 12.0912 98.6069 12.0912ZM118.719 26.7392C119.513 31.6253 118.98 36.1164 120.509 40.6491C123.548 41.1481 126.455 41.1481 129.484 40.7115C130.751 36.4387 131.053 32.2595 130.279 27.9036C126.616 26.8016 123.065 26.4169 118.719 26.7392Z" fill="#06122E"/>
<path d="M134.203 52.1257C129.243 53.9034 124.856 52.895 120.691 53.1757C98.7881 54.6311 76.8251 55.9098 54.9326 53.5395C39.0665 51.8242 23.2206 51.0549 7.29416 51.5747C5.2518 51.6371 3.21949 51.8346 3.95685e-09 52.0425C2.79693 48.9029 5.35239 49.3707 7.65634 49.3187C24.0858 48.9445 40.465 49.8697 56.8542 51.0237C80.9602 52.7286 105.056 51.9385 129.112 49.7658C130.923 49.6098 130.923 49.5786 134.203 52.1257Z" fill="#06122E"/>
<path d="M3.79297 2.32836C48.2119 -0.229069 92.2183 -0.655307 136.597 1.47588C135.541 4.5739 133.207 3.88776 131.204 3.82538C116.475 3.31597 101.756 2.52588 87.0269 2.29717C66.7743 1.98529 46.5318 2.96251 26.2892 3.65905C20.2627 3.86697 14.2362 3.81499 8.20972 3.77341C6.8515 3.75261 5.2518 4.34519 3.79297 2.32836Z" fill="#06122E"/>
<path d="M112.968 43.4144C112.968 32.01 112.968 20.5536 112.968 8.17188C158.011 8.41098 202.148 9.13871 246.386 8.43178C244.957 20.8135 243.699 32.3427 244.826 43.4872C200.93 47.2818 156.652 42.4268 112.968 43.4144ZM206.836 42.1149C207.44 37.156 207.4 32.1659 207.078 26.9367C201.303 26.9367 196.071 26.9367 190.336 26.9367C190.668 32.2283 190.407 37.1664 192.228 42.1149C196.856 42.1149 201.333 42.1149 206.836 42.1149ZM154.962 41.356C159.65 41.356 164.087 41.356 168.957 41.356C168.725 36.4699 168.514 31.7189 168.273 26.6248C163.343 26.8432 158.735 26.157 154.026 27.1862C153.151 31.8748 154.016 36.262 154.962 41.356ZM150.938 11.2075C145.585 11.2075 140.655 11.2075 135.625 11.2075C134.116 15.6778 134.609 19.8778 134.931 24.6288C140.424 24.2753 145.636 23.9323 151.109 23.5788C151.028 19.358 151.984 15.5011 150.938 11.2075ZM131.973 27.8516C126.087 26.6768 120.906 27.5085 115.594 28.0387C115.433 32.6857 114.869 36.7402 115.976 40.909C121.439 40.0773 126.792 41.1897 131.963 39.7966C131.973 35.763 131.973 32.0204 131.973 27.8516ZM187.71 11.509C182.277 11.509 177.207 11.509 172.056 11.509C171.311 15.605 170.969 19.2852 171.261 23.1006C177.086 23.1006 182.469 23.1006 187.912 23.1006C188.395 19.1085 188.686 15.5323 187.71 11.509ZM210.337 12.0912C210.176 16.0105 209.16 19.6491 210.237 23.0902C216.143 23.0902 221.726 23.0902 227.31 23.0902C227.31 19.2229 227.31 15.8442 227.31 12.0912C221.515 12.0912 216.112 12.0912 210.337 12.0912ZM230.449 26.7392C231.244 31.6253 230.711 36.1164 232.24 40.6491C235.278 41.1481 238.186 41.1481 241.214 40.7115C242.482 36.4387 242.784 32.2595 242.009 27.9036C238.347 26.8016 234.795 26.4169 230.449 26.7392Z" fill="#06122E"/>
<path d="M123.915 52.1256C128.875 53.9033 133.261 52.8949 137.427 53.1756C159.329 54.6311 181.292 55.9098 203.185 53.5395C219.051 51.8241 234.897 51.0548 250.823 51.5746C252.865 51.637 254.898 51.8345 258.117 52.0424C255.32 48.9028 252.765 49.3707 250.461 49.3187C234.031 48.9444 217.652 49.8697 201.263 51.0236C177.157 52.7286 153.061 51.9385 129.006 49.7657C127.195 49.6098 127.195 49.5786 123.915 52.1256Z" fill="#06122E"/>
<path d="M119.963 2.32836C164.382 -0.229069 208.389 -0.655307 252.767 1.47588C251.711 4.5739 249.377 3.88776 247.375 3.82538C232.645 3.31597 217.926 2.52588 203.197 2.29717C182.944 1.98529 162.702 2.96251 142.459 3.65905C136.433 3.86697 130.406 3.81499 124.38 3.77341C123.022 3.75261 121.422 4.34519 119.963 2.32836Z" fill="#06122E"/>
<path d="M222.354 43.4144C222.354 32.01 222.354 20.5536 222.354 8.17188C267.397 8.41098 311.534 9.13871 355.772 8.43178C354.344 20.8135 353.086 32.3427 354.213 43.4872C310.317 47.2818 266.039 42.4268 222.354 43.4144ZM316.223 42.1149C316.826 37.156 316.786 32.1659 316.464 26.9367C310.689 26.9367 305.458 26.9367 299.723 26.9367C300.055 32.2283 299.793 37.1664 301.614 42.1149C306.242 42.1149 310.719 42.1149 316.223 42.1149ZM264.349 41.356C269.037 41.356 273.474 41.356 278.344 41.356C278.112 36.4699 277.901 31.7189 277.659 26.6248C272.73 26.8432 268.122 26.157 263.413 27.1862C262.538 31.8748 263.403 36.262 264.349 41.356ZM260.324 11.2075C254.972 11.2075 250.042 11.2075 245.012 11.2075C243.503 15.6778 243.996 19.8778 244.317 24.6288C249.811 24.2753 255.022 23.9323 260.495 23.5788C260.415 19.358 261.371 15.5011 260.324 11.2075ZM241.36 27.8516C235.474 26.6768 230.293 27.5085 224.98 28.0387C224.819 32.6857 224.256 36.7402 225.363 40.909C230.826 40.0773 236.178 41.1897 241.35 39.7966C241.36 35.763 241.36 32.0204 241.36 27.8516ZM297.097 11.509C291.664 11.509 286.593 11.509 281.442 11.509C280.698 15.605 280.356 19.2852 280.647 23.1006C286.473 23.1006 291.855 23.1006 297.298 23.1006C297.781 19.1085 298.073 15.5323 297.097 11.509ZM319.724 12.0912C319.563 16.0105 318.547 19.6491 319.623 23.0902C325.529 23.0902 331.113 23.0902 336.697 23.0902C336.697 19.2229 336.697 15.8442 336.697 12.0912C330.902 12.0912 325.499 12.0912 319.724 12.0912ZM339.836 26.7392C340.631 31.6253 340.097 36.1164 341.627 40.6491C344.665 41.1481 347.573 41.1481 350.601 40.7115C351.869 36.4387 352.17 32.2595 351.396 27.9036C347.734 26.8016 344.182 26.4169 339.836 26.7392Z" fill="#06122E"/>
<path d="M355.32 52.1257C350.36 53.9034 345.973 52.895 341.808 53.1757C319.905 54.6311 297.942 55.9098 276.05 53.5395C260.184 51.8242 244.338 51.0549 228.411 51.5747C226.369 51.6371 224.337 51.8346 221.117 52.0425C223.914 48.9029 226.47 49.3707 228.774 49.3187C245.203 48.9445 261.582 49.8697 277.971 51.0237C302.077 52.7286 326.173 51.9385 350.229 49.7658C352.04 49.6098 352.04 49.5786 355.32 52.1257Z" fill="#06122E"/>
<path d="M224.911 2.32836C269.33 -0.229069 313.337 -0.655307 357.715 1.47588C356.659 4.5739 354.325 3.88776 352.323 3.82538C337.593 3.31597 322.874 2.52588 308.145 2.29717C287.892 1.98529 267.65 2.96251 247.407 3.65905C241.381 3.86697 235.354 3.81499 229.328 3.77341C227.97 3.75261 226.37 4.34519 224.911 2.32836Z" fill="#06122E"/>
<path d="M446.18 43.4144C446.18 32.01 446.18 20.5536 446.18 8.17188C491.222 8.41098 535.36 9.13871 579.597 8.43178C578.169 20.8135 576.911 32.3427 578.038 43.4872C534.142 47.2818 489.864 42.4268 446.18 43.4144ZM540.048 42.1149C540.652 37.156 540.611 32.1659 540.289 26.9367C534.514 26.9367 529.283 26.9367 523.548 26.9367C523.88 32.2283 523.619 37.1664 525.44 42.1149C530.068 42.1149 534.545 42.1149 540.048 42.1149ZM488.174 41.356C492.862 41.356 497.299 41.356 502.169 41.356C501.937 36.4699 501.726 31.7189 501.485 26.6248C496.555 26.8432 491.947 26.157 487.238 27.1862C486.363 31.8748 487.228 36.262 488.174 41.356ZM484.15 11.2075C478.797 11.2075 473.867 11.2075 468.837 11.2075C467.328 15.6778 467.821 19.8778 468.143 24.6288C473.636 24.2753 478.848 23.9323 484.321 23.5788C484.24 19.358 485.196 15.5011 484.15 11.2075ZM465.185 27.8516C459.299 26.6768 454.118 27.5085 448.806 28.0387C448.645 32.6857 448.081 36.7402 449.188 40.909C454.651 40.0773 460.003 41.1897 465.175 39.7966C465.185 35.763 465.185 32.0204 465.185 27.8516ZM520.922 11.509C515.489 11.509 510.419 11.509 505.267 11.509C504.523 15.605 504.181 19.2852 504.473 23.1006C510.298 23.1006 515.68 23.1006 521.123 23.1006C521.606 19.1085 521.898 15.5323 520.922 11.509ZM543.549 12.0912C543.388 16.0105 542.372 19.6491 543.449 23.0902C549.354 23.0902 554.938 23.0902 560.522 23.0902C560.522 19.2229 560.522 15.8442 560.522 12.0912C554.727 12.0912 549.324 12.0912 543.549 12.0912ZM563.661 26.7392C564.456 31.6253 563.923 36.1164 565.452 40.6491C568.49 41.1481 571.398 41.1481 574.426 40.7115C575.694 36.4387 575.996 32.2595 575.221 27.9036C571.559 26.8016 568.007 26.4169 563.661 26.7392Z" fill="#06122E"/>
<path d="M579.145 52.1257C574.185 53.9034 569.798 52.895 565.633 53.1757C543.73 54.6311 521.767 55.9098 499.875 53.5395C484.009 51.8242 468.163 51.0549 452.237 51.5747C450.194 51.6371 448.162 51.8346 444.942 52.0425C447.739 48.9029 450.295 49.3707 452.599 49.3187C469.028 48.9445 485.407 49.8697 501.797 51.0237C525.903 52.7286 549.998 51.9385 574.054 49.7658C575.865 49.6098 575.865 49.5786 579.145 52.1257Z" fill="#06122E"/>
<path d="M448.736 2.32836C493.154 -0.229069 537.161 -0.655307 581.54 1.47588C580.483 4.5739 578.149 3.88776 576.147 3.82538C561.418 3.31597 546.699 2.52588 531.97 2.29717C511.717 1.98529 491.474 2.96251 471.232 3.65905C465.205 3.86697 459.179 3.81499 453.152 3.77341C451.794 3.75261 450.194 4.34519 448.736 2.32836Z" fill="#06122E"/>
<path d="M334.085 43.4144C334.085 32.01 334.085 20.5536 334.085 8.17188C379.128 8.41098 423.265 9.13871 467.503 8.43178C466.074 20.8135 464.816 32.3427 465.943 43.4872C422.048 47.2818 377.769 42.4268 334.085 43.4144ZM427.953 42.1149C428.557 37.156 428.517 32.1659 428.195 26.9367C422.42 26.9367 417.188 26.9367 411.453 26.9367C411.785 32.2283 411.524 37.1664 413.345 42.1149C417.973 42.1149 422.45 42.1149 427.953 42.1149ZM376.079 41.356C380.768 41.356 385.204 41.356 390.074 41.356C389.843 36.4699 389.631 31.7189 389.39 26.6248C384.46 26.8432 379.852 26.157 375.144 27.1862C374.268 31.8748 375.133 36.262 376.079 41.356ZM372.055 11.2075C366.702 11.2075 361.773 11.2075 356.742 11.2075C355.233 15.6778 355.726 19.8778 356.048 24.6288C361.541 24.2753 366.753 23.9323 372.226 23.5788C372.145 19.358 373.101 15.5011 372.055 11.2075ZM353.09 27.8516C347.204 26.6768 342.023 27.5085 336.711 28.0387C336.55 32.6857 335.986 36.7402 337.093 40.909C342.556 40.0773 347.909 41.1897 353.08 39.7966C353.09 35.763 353.09 32.0204 353.09 27.8516ZM408.827 11.509C403.395 11.509 398.324 11.509 393.173 11.509C392.428 15.605 392.086 19.2852 392.378 23.1006C398.203 23.1006 403.586 23.1006 409.029 23.1006C409.512 19.1085 409.803 15.5323 408.827 11.509ZM431.455 12.0912C431.294 16.0105 430.277 19.6491 431.354 23.0902C437.26 23.0902 442.843 23.0902 448.427 23.0902C448.427 19.2229 448.427 15.8442 448.427 12.0912C442.632 12.0912 437.229 12.0912 431.455 12.0912ZM451.566 26.7392C452.361 31.6253 451.828 36.1164 453.357 40.6491C456.395 41.1481 459.303 41.1481 462.331 40.7115C463.599 36.4387 463.901 32.2595 463.126 27.9036C459.464 26.8016 455.913 26.4169 451.566 26.7392Z" fill="#06122E"/>
<path d="M345.033 52.1257C349.993 53.9034 354.379 52.895 358.545 53.1757C380.447 54.6311 402.41 55.9098 424.303 53.5395C440.169 51.8242 456.015 51.0549 471.941 51.5747C473.984 51.6371 476.016 51.8346 479.235 52.0425C476.438 48.9029 473.883 49.3707 471.579 49.3187C455.15 48.9445 438.77 49.8697 422.381 51.0237C398.275 52.7286 374.179 51.9385 350.124 49.7658C348.313 49.6098 348.313 49.5786 345.033 52.1257Z" fill="#06122E"/>
<path d="M341.08 2.32836C385.499 -0.229069 429.505 -0.655307 473.884 1.47588C472.828 4.5739 470.494 3.88776 468.492 3.82538C453.762 3.31597 439.043 2.52588 424.314 2.29717C404.061 1.98529 383.819 2.96251 363.576 3.65905C357.55 3.86697 351.523 3.81499 345.497 3.77341C344.139 3.75261 342.539 4.34519 341.08 2.32836Z" fill="#06122E"/>
<path d="M557.911 43.4144C557.911 32.01 557.911 20.5536 557.911 8.17188C602.954 8.41098 647.091 9.13871 691.329 8.43178C689.9 20.8135 688.643 32.3427 689.769 43.4872C645.874 47.2818 601.596 42.4268 557.911 43.4144ZM651.779 42.1149C652.383 37.156 652.343 32.1659 652.021 26.9367C646.246 26.9367 641.014 26.9367 635.28 26.9367C635.612 32.2283 635.35 37.1664 637.171 42.1149C641.799 42.1149 646.276 42.1149 651.779 42.1149ZM599.905 41.356C604.594 41.356 609.031 41.356 613.9 41.356C613.669 36.4699 613.457 31.7189 613.216 26.6248C608.286 26.8432 603.678 26.157 598.97 27.1862C598.094 31.8748 598.96 36.262 599.905 41.356ZM595.881 11.2075C590.529 11.2075 585.599 11.2075 580.568 11.2075C579.059 15.6778 579.552 19.8778 579.874 24.6288C585.367 24.2753 590.579 23.9323 596.052 23.5788C595.972 19.358 596.927 15.5011 595.881 11.2075ZM576.916 27.8516C571.031 26.6768 565.849 27.5085 560.537 28.0387C560.376 32.6857 559.813 36.7402 560.919 40.909C566.382 40.0773 571.735 41.1897 576.906 39.7966C576.916 35.763 576.916 32.0204 576.916 27.8516ZM632.654 11.509C627.221 11.509 622.15 11.509 616.999 11.509C616.254 15.605 615.912 19.2852 616.204 23.1006C622.029 23.1006 627.412 23.1006 632.855 23.1006C633.338 19.1085 633.63 15.5323 632.654 11.509ZM655.281 12.0912C655.12 16.0105 654.104 19.6491 655.18 23.0902C661.086 23.0902 666.67 23.0902 672.253 23.0902C672.253 19.2229 672.253 15.8442 672.253 12.0912C666.458 12.0912 661.056 12.0912 655.281 12.0912ZM675.392 26.7392C676.187 31.6253 675.654 36.1164 677.183 40.6491C680.222 41.1481 683.129 41.1481 686.158 40.7115C687.425 36.4387 687.727 32.2595 686.952 27.9036C683.29 26.8016 679.739 26.4169 675.392 26.7392Z" fill="#06122E"/>
<path d="M568.858 52.1255C573.818 53.9033 578.204 52.8949 582.37 53.1756C604.272 54.631 626.235 55.9097 648.128 53.5394C663.994 51.8241 679.84 51.0548 695.766 51.5746C697.809 51.6369 699.841 51.8345 703.06 52.0424C700.263 48.9028 697.708 49.3706 695.404 49.3186C678.975 48.9444 662.595 49.8696 646.206 51.0236C622.1 52.7285 598.004 51.9384 573.949 49.7656C572.138 49.6097 572.138 49.5785 568.858 52.1255Z" fill="#06122E"/>
<path d="M564.906 2.32836C609.325 -0.229069 653.332 -0.655307 697.711 1.47588C696.654 4.5739 694.32 3.88776 692.318 3.82538C677.589 3.31597 662.87 2.52588 648.14 2.29717C627.888 1.98529 607.645 2.96251 587.403 3.65905C581.376 3.86697 575.35 3.81499 569.323 3.77341C567.965 3.75261 566.365 4.34519 564.906 2.32836Z" fill="#06122E"/>
<path d="M670.511 43.4144C670.511 32.01 670.511 20.5536 670.511 8.17188C715.553 8.41098 759.691 9.13871 803.929 8.43178C802.5 20.8135 801.242 32.3427 802.369 43.4872C758.473 47.2818 714.195 42.4268 670.511 43.4144ZM764.379 42.1149C764.983 37.156 764.942 32.1659 764.621 26.9367C758.846 26.9367 753.614 26.9367 747.879 26.9367C748.211 32.2283 747.95 37.1664 749.771 42.1149C754.399 42.1149 758.876 42.1149 764.379 42.1149ZM712.505 41.356C717.193 41.356 721.63 41.356 726.5 41.356C726.268 36.4699 726.057 31.7189 725.816 26.6248C720.886 26.8432 716.278 26.157 711.569 27.1862C710.694 31.8748 711.559 36.262 712.505 41.356ZM708.481 11.2075C703.128 11.2075 698.198 11.2075 693.168 11.2075C691.659 15.6778 692.152 19.8778 692.474 24.6288C697.967 24.2753 703.179 23.9323 708.652 23.5788C708.571 19.358 709.527 15.5011 708.481 11.2075ZM689.516 27.8516C683.63 26.6768 678.449 27.5085 673.137 28.0387C672.976 32.6857 672.412 36.7402 673.519 40.909C678.982 40.0773 684.334 41.1897 689.506 39.7966C689.516 35.763 689.516 32.0204 689.516 27.8516ZM745.253 11.509C739.82 11.509 734.75 11.509 729.598 11.509C728.854 15.605 728.512 19.2852 728.804 23.1006C734.629 23.1006 740.012 23.1006 745.454 23.1006C745.937 19.1085 746.229 15.5323 745.253 11.509ZM767.88 12.0912C767.719 16.0105 766.703 19.6491 767.78 23.0902C773.685 23.0902 779.269 23.0902 784.853 23.0902C784.853 19.2229 784.853 15.8442 784.853 12.0912C779.058 12.0912 773.655 12.0912 767.88 12.0912ZM787.992 26.7392C788.787 31.6253 788.254 36.1164 789.783 40.6491C792.821 41.1481 795.729 41.1481 798.757 40.7115C800.025 36.4387 800.327 32.2595 799.552 27.9036C795.89 26.8016 792.338 26.4169 787.992 26.7392Z" fill="#06122E"/>
<path d="M803.476 52.1257C798.516 53.9034 794.129 52.895 789.964 53.1757C768.062 54.6311 746.099 55.9098 724.206 53.5395C708.34 51.8242 692.494 51.0549 676.568 51.5747C674.525 51.6371 672.493 51.8346 669.273 52.0425C672.07 48.9029 674.626 49.3707 676.93 49.3187C693.359 48.9445 709.738 49.8697 726.128 51.0237C750.234 52.7286 774.329 51.9385 798.385 49.7658C800.196 49.6098 800.196 49.5786 803.476 52.1257Z" fill="#06122E"/>
<path d="M673.066 2.32836C717.485 -0.229069 761.492 -0.655307 805.87 1.47588C804.814 4.5739 802.48 3.88776 800.478 3.82538C785.749 3.31597 771.03 2.52588 756.3 2.29717C736.048 1.98529 715.805 2.96251 695.563 3.65905C689.536 3.86697 683.51 3.81499 677.483 3.77341C676.125 3.75261 674.525 4.34519 673.066 2.32836Z" fill="#06122E"/>
<path d="M782.241 43.4144C782.241 32.01 782.241 20.5536 782.241 8.17188C827.284 8.41098 871.421 9.13871 915.659 8.43178C914.23 20.8135 912.973 32.3427 914.1 43.4872C870.204 47.2818 825.926 42.4268 782.241 43.4144ZM876.11 42.1149C876.713 37.156 876.673 32.1659 876.351 26.9367C870.576 26.9367 865.344 26.9367 859.61 26.9367C859.942 32.2283 859.68 37.1664 861.501 42.1149C866.129 42.1149 870.606 42.1149 876.11 42.1149ZM824.235 41.356C828.924 41.356 833.361 41.356 838.23 41.356C837.999 36.4699 837.788 31.7189 837.546 26.6248C832.616 26.8432 828.008 26.157 823.3 27.1862C822.425 31.8748 823.29 36.262 824.235 41.356ZM820.211 11.2075C814.859 11.2075 809.929 11.2075 804.898 11.2075C803.389 15.6778 803.882 19.8778 804.204 24.6288C809.697 24.2753 814.909 23.9323 820.382 23.5788C820.302 19.358 821.257 15.5011 820.211 11.2075ZM801.246 27.8516C795.361 26.6768 790.179 27.5085 784.867 28.0387C784.706 32.6857 784.143 36.7402 785.249 40.909C790.713 40.0773 796.065 41.1897 801.236 39.7966C801.246 35.763 801.246 32.0204 801.246 27.8516ZM856.984 11.509C851.551 11.509 846.48 11.509 841.329 11.509C840.584 15.605 840.242 19.2852 840.534 23.1006C846.359 23.1006 851.742 23.1006 857.185 23.1006C857.668 19.1085 857.96 15.5323 856.984 11.509ZM879.611 12.0912C879.45 16.0105 878.434 19.6491 879.51 23.0902C885.416 23.0902 891 23.0902 896.584 23.0902C896.584 19.2229 896.584 15.8442 896.584 12.0912C890.788 12.0912 885.386 12.0912 879.611 12.0912ZM899.723 26.7392C900.517 31.6253 899.984 36.1164 901.513 40.6491C904.552 41.1481 907.459 41.1481 910.488 40.7115C911.755 36.4387 912.057 32.2595 911.283 27.9036C907.62 26.8016 904.069 26.4169 899.723 26.7392Z" fill="#06122E"/>
<path d="M793.188 52.1256C798.148 53.9033 802.535 52.8949 806.7 53.1756C828.603 54.6311 850.566 55.9098 872.458 53.5395C888.324 51.8241 904.17 51.0548 920.097 51.5746C922.139 51.637 924.171 51.8345 927.391 52.0424C924.594 48.9028 922.038 49.3707 919.734 49.3187C903.305 48.9444 886.926 49.8697 870.536 51.0236C846.43 52.7286 822.335 51.9385 798.279 49.7657C796.468 49.6098 796.468 49.5786 793.188 52.1256Z" fill="#06122E"/>
<path d="M789.237 2.32836C833.655 -0.229069 877.662 -0.655307 922.041 1.47588C920.984 4.5739 918.65 3.88776 916.648 3.82538C901.919 3.31597 887.2 2.52588 872.47 2.29717C852.218 1.98529 831.975 2.96251 811.733 3.65905C805.706 3.86697 799.68 3.81499 793.653 3.77341C792.295 3.75261 790.695 4.34519 789.237 2.32836Z" fill="#06122E"/>
<path d="M891.628 43.4144C891.628 32.01 891.628 20.5536 891.628 8.17188C936.671 8.41098 980.808 9.13871 1025.05 8.43178C1023.62 20.8135 1022.36 32.3427 1023.49 43.4872C979.591 47.2818 935.312 42.4268 891.628 43.4144ZM985.496 42.1149C986.1 37.156 986.06 32.1659 985.738 26.9367C979.963 26.9367 974.731 26.9367 968.996 26.9367C969.328 32.2283 969.067 37.1664 970.888 42.1149C975.516 42.1149 979.993 42.1149 985.496 42.1149ZM933.622 41.356C938.311 41.356 942.747 41.356 947.617 41.356C947.386 36.4699 947.174 31.7189 946.933 26.6248C942.003 26.8432 937.395 26.157 932.687 27.1862C931.811 31.8748 932.676 36.262 933.622 41.356ZM929.598 11.2075C924.245 11.2075 919.316 11.2075 914.285 11.2075C912.776 15.6778 913.269 19.8778 913.591 24.6288C919.084 24.2753 924.296 23.9323 929.769 23.5788C929.688 19.358 930.644 15.5011 929.598 11.2075ZM910.633 27.8516C904.747 26.6768 899.566 27.5085 894.254 28.0387C894.093 32.6857 893.529 36.7402 894.636 40.909C900.099 40.0773 905.452 41.1897 910.623 39.7966C910.633 35.763 910.633 32.0204 910.633 27.8516ZM966.37 11.509C960.938 11.509 955.867 11.509 950.716 11.509C949.971 15.605 949.629 19.2852 949.921 23.1006C955.746 23.1006 961.129 23.1006 966.572 23.1006C967.055 19.1085 967.346 15.5323 966.37 11.509ZM988.997 12.0912C988.837 16.0105 987.82 19.6491 988.897 23.0902C994.803 23.0902 1000.39 23.0902 1005.97 23.0902C1005.97 19.2229 1005.97 15.8442 1005.97 12.0912C1000.18 12.0912 994.772 12.0912 988.997 12.0912ZM1009.11 26.7392C1009.9 31.6253 1009.37 36.1164 1010.9 40.6491C1013.94 41.1481 1016.85 41.1481 1019.87 40.7115C1021.14 36.4387 1021.44 32.2595 1020.67 27.9036C1017.01 26.8016 1013.46 26.4169 1009.11 26.7392Z" fill="#06122E"/>
<path d="M1024.59 52.1257C1019.63 53.9034 1015.25 52.895 1011.08 53.1757C989.179 54.6311 967.216 55.9098 945.323 53.5395C929.457 51.8242 913.611 51.0549 897.685 51.5747C895.642 51.6371 893.61 51.8346 890.391 52.0425C893.188 48.9029 895.743 49.3707 898.047 49.3187C914.476 48.9445 930.856 49.8697 947.245 51.0237C971.351 52.7286 995.447 51.9385 1019.5 49.7658C1021.31 49.6098 1021.31 49.5786 1024.59 52.1257Z" fill="#06122E"/>
<path d="M894.185 2.32836C938.604 -0.229069 982.61 -0.655307 1026.99 1.47588C1025.93 4.5739 1023.6 3.88776 1021.6 3.82538C1006.87 3.31597 992.148 2.52588 977.419 2.29717C957.166 1.98529 936.923 2.96251 916.681 3.65905C910.654 3.86697 904.628 3.81499 898.601 3.77341C897.243 3.75261 895.643 4.34519 894.185 2.32836Z" fill="#06122E"/>
<path d="M1115.45 43.4144C1115.45 32.01 1115.45 20.5536 1115.45 8.17188C1160.5 8.41098 1204.63 9.13871 1248.87 8.43178C1247.44 20.8135 1246.18 32.3427 1247.31 43.4872C1203.42 47.2818 1159.14 42.4268 1115.45 43.4144ZM1209.32 42.1149C1209.93 37.156 1209.88 32.1659 1209.56 26.9367C1203.79 26.9367 1198.56 26.9367 1192.82 26.9367C1193.15 32.2283 1192.89 37.1664 1194.71 42.1149C1199.34 42.1149 1203.82 42.1149 1209.32 42.1149ZM1157.45 41.356C1162.14 41.356 1166.57 41.356 1171.44 41.356C1171.21 36.4699 1171 31.7189 1170.76 26.6248C1165.83 26.8432 1161.22 26.157 1156.51 27.1862C1155.64 31.8748 1156.5 36.262 1157.45 41.356ZM1153.42 11.2075C1148.07 11.2075 1143.14 11.2075 1138.11 11.2075C1136.6 15.6778 1137.09 19.8778 1137.42 24.6288C1142.91 24.2753 1148.12 23.9323 1153.59 23.5788C1153.51 19.358 1154.47 15.5011 1153.42 11.2075ZM1134.46 27.8516C1128.57 26.6768 1123.39 27.5085 1118.08 28.0387C1117.92 32.6857 1117.35 36.7402 1118.46 40.909C1123.92 40.0773 1129.28 41.1897 1134.45 39.7966C1134.46 35.763 1134.46 32.0204 1134.46 27.8516ZM1190.2 11.509C1184.76 11.509 1179.69 11.509 1174.54 11.509C1173.8 15.605 1173.45 19.2852 1173.75 23.1006C1179.57 23.1006 1184.95 23.1006 1190.4 23.1006C1190.88 19.1085 1191.17 15.5323 1190.2 11.509ZM1212.82 12.0912C1212.66 16.0105 1211.65 19.6491 1212.72 23.0902C1218.63 23.0902 1224.21 23.0902 1229.8 23.0902C1229.8 19.2229 1229.8 15.8442 1229.8 12.0912C1224 12.0912 1218.6 12.0912 1212.82 12.0912ZM1232.93 26.7392C1233.73 31.6253 1233.2 36.1164 1234.73 40.6491C1237.76 41.1481 1240.67 41.1481 1243.7 40.7115C1244.97 36.4387 1245.27 32.2595 1244.49 27.9036C1240.83 26.8016 1237.28 26.4169 1232.93 26.7392Z" fill="#06122E"/>
<path d="M1248.42 52.1257C1243.46 53.9034 1239.07 52.895 1234.91 53.1757C1213 54.6311 1191.04 55.9098 1169.15 53.5395C1153.28 51.8242 1137.44 51.0549 1121.51 51.5747C1119.47 51.6371 1117.44 51.8346 1114.22 52.0425C1117.01 48.9029 1119.57 49.3707 1121.87 49.3187C1138.3 48.9445 1154.68 49.8697 1171.07 51.0237C1195.18 52.7286 1219.27 51.9385 1243.33 49.7658C1245.14 49.6098 1245.14 49.5786 1248.42 52.1257Z" fill="#06122E"/>
<path d="M1118.01 2.32836C1162.43 -0.229069 1206.43 -0.655307 1250.81 1.47588C1249.76 4.5739 1247.42 3.88776 1245.42 3.82538C1230.69 3.31597 1215.97 2.52588 1201.24 2.29717C1180.99 1.98529 1160.75 2.96251 1140.51 3.65905C1134.48 3.86697 1128.45 3.81499 1122.43 3.77341C1121.07 3.75261 1119.47 4.34519 1118.01 2.32836Z" fill="#06122E"/>
<path d="M1003.36 43.4144C1003.36 32.01 1003.36 20.5536 1003.36 8.17188C1048.4 8.41098 1092.54 9.13871 1136.78 8.43178C1135.35 20.8135 1134.09 32.3427 1135.22 43.4872C1091.32 47.2818 1047.04 42.4268 1003.36 43.4144ZM1097.23 42.1149C1097.83 37.156 1097.79 32.1659 1097.47 26.9367C1091.69 26.9367 1086.46 26.9367 1080.73 26.9367C1081.06 32.2283 1080.8 37.1664 1082.62 42.1149C1087.25 42.1149 1091.72 42.1149 1097.23 42.1149ZM1045.35 41.356C1050.04 41.356 1054.48 41.356 1059.35 41.356C1059.12 36.4699 1058.9 31.7189 1058.66 26.6248C1053.73 26.8432 1049.13 26.157 1044.42 27.1862C1043.54 31.8748 1044.41 36.262 1045.35 41.356ZM1041.33 11.2075C1035.98 11.2075 1031.05 11.2075 1026.02 11.2075C1024.51 15.6778 1025 19.8778 1025.32 24.6288C1030.81 24.2753 1036.03 23.9323 1041.5 23.5788C1041.42 19.358 1042.37 15.5011 1041.33 11.2075ZM1022.36 27.8516C1016.48 26.6768 1011.3 27.5085 1005.98 28.0387C1005.82 32.6857 1005.26 36.7402 1006.37 40.909C1011.83 40.0773 1017.18 41.1897 1022.35 39.7966C1022.36 35.763 1022.36 32.0204 1022.36 27.8516ZM1078.1 11.509C1072.67 11.509 1067.6 11.509 1062.45 11.509C1061.7 15.605 1061.36 19.2852 1061.65 23.1006C1067.48 23.1006 1072.86 23.1006 1078.3 23.1006C1078.79 19.1085 1079.08 15.5323 1078.1 11.509ZM1100.73 12.0912C1100.57 16.0105 1099.55 19.6491 1100.63 23.0902C1106.53 23.0902 1112.12 23.0902 1117.7 23.0902C1117.7 19.2229 1117.7 15.8442 1117.7 12.0912C1111.91 12.0912 1106.5 12.0912 1100.73 12.0912ZM1120.84 26.7392C1121.63 31.6253 1121.1 36.1164 1122.63 40.6491C1125.67 41.1481 1128.58 41.1481 1131.6 40.7115C1132.87 36.4387 1133.17 32.2595 1132.4 27.9036C1128.74 26.8016 1125.19 26.4169 1120.84 26.7392Z" fill="#06122E"/>
<path d="M1014.31 52.1257C1019.27 53.9034 1023.65 52.895 1027.82 53.1757C1049.72 54.6311 1071.68 55.9098 1093.58 53.5395C1109.44 51.8242 1125.29 51.0549 1141.21 51.5747C1143.26 51.6371 1145.29 51.8346 1148.51 52.0425C1145.71 48.9029 1143.16 49.3707 1140.85 49.3187C1124.42 48.9445 1108.04 49.8697 1091.65 51.0237C1067.55 52.7286 1043.45 51.9385 1019.4 49.7658C1017.59 49.6098 1017.59 49.5786 1014.31 52.1257Z" fill="#06122E"/>
<path d="M1010.35 2.32836C1054.77 -0.229069 1098.78 -0.655307 1143.16 1.47588C1142.1 4.5739 1139.77 3.88776 1137.76 3.82538C1123.04 3.31597 1108.32 2.52588 1093.59 2.29717C1073.33 1.98529 1053.09 2.96251 1032.85 3.65905C1026.82 3.86697 1020.8 3.81499 1014.77 3.77341C1013.41 3.75261 1011.81 4.34519 1010.35 2.32836Z" fill="#06122E"/>
<path d="M1227.18 43.4144C1227.18 32.01 1227.18 20.5536 1227.18 8.17188C1272.23 8.41098 1316.36 9.13871 1360.6 8.43178C1359.17 20.8135 1357.92 32.3427 1359.04 43.4872C1315.15 47.2818 1270.87 42.4268 1227.18 43.4144ZM1321.05 42.1149C1321.66 37.156 1321.62 32.1659 1321.29 26.9367C1315.52 26.9367 1310.29 26.9367 1304.55 26.9367C1304.89 32.2283 1304.62 37.1664 1306.44 42.1149C1311.07 42.1149 1315.55 42.1149 1321.05 42.1149ZM1269.18 41.356C1273.87 41.356 1278.3 41.356 1283.17 41.356C1282.94 36.4699 1282.73 31.7189 1282.49 26.6248C1277.56 26.8432 1272.95 26.157 1268.24 27.1862C1267.37 31.8748 1268.23 36.262 1269.18 41.356ZM1265.15 11.2075C1259.8 11.2075 1254.87 11.2075 1249.84 11.2075C1248.33 15.6778 1248.83 19.8778 1249.15 24.6288C1254.64 24.2753 1259.85 23.9323 1265.33 23.5788C1265.25 19.358 1266.2 15.5011 1265.15 11.2075ZM1246.19 27.8516C1240.3 26.6768 1235.12 27.5085 1229.81 28.0387C1229.65 32.6857 1229.09 36.7402 1230.19 40.909C1235.66 40.0773 1241.01 41.1897 1246.18 39.7966C1246.19 35.763 1246.19 32.0204 1246.19 27.8516ZM1301.93 11.509C1296.49 11.509 1291.42 11.509 1286.27 11.509C1285.53 15.605 1285.19 19.2852 1285.48 23.1006C1291.3 23.1006 1296.69 23.1006 1302.13 23.1006C1302.61 19.1085 1302.9 15.5323 1301.93 11.509ZM1324.55 12.0912C1324.39 16.0105 1323.38 19.6491 1324.45 23.0902C1330.36 23.0902 1335.94 23.0902 1341.53 23.0902C1341.53 19.2229 1341.53 15.8442 1341.53 12.0912C1335.73 12.0912 1330.33 12.0912 1324.55 12.0912ZM1344.67 26.7392C1345.46 31.6253 1344.93 36.1164 1346.46 40.6491C1349.5 41.1481 1352.4 41.1481 1355.43 40.7115C1356.7 36.4387 1357 32.2595 1356.23 27.9036C1352.56 26.8016 1349.01 26.4169 1344.67 26.7392Z" fill="#06122E"/>
<path d="M1238.13 52.1255C1243.09 53.9033 1247.48 52.8949 1251.64 53.1756C1273.55 54.631 1295.51 55.9097 1317.4 53.5394C1333.27 51.8241 1349.11 51.0548 1365.04 51.5746C1367.08 51.6369 1369.11 51.8345 1372.33 52.0424C1369.54 48.9028 1366.98 49.3706 1364.68 49.3186C1348.25 48.9444 1331.87 49.8696 1315.48 51.0236C1291.37 52.7285 1267.28 51.9384 1243.22 49.7656C1241.41 49.6097 1241.41 49.5785 1238.13 52.1255Z" fill="#06122E"/>
<path d="M1234.18 2.32836C1278.6 -0.229069 1322.61 -0.655307 1366.98 1.47588C1365.93 4.5739 1363.59 3.88776 1361.59 3.82538C1346.86 3.31597 1332.14 2.52588 1317.41 2.29717C1297.16 1.98529 1276.92 2.96251 1256.68 3.65905C1250.65 3.86697 1244.62 3.81499 1238.6 3.77341C1237.24 3.75261 1235.64 4.34519 1234.18 2.32836Z" fill="#06122E"/>
<path d="M1339.78 43.4144C1339.78 32.01 1339.78 20.5536 1339.78 8.17188C1384.83 8.41098 1428.96 9.13871 1473.2 8.43178C1471.77 20.8135 1470.52 32.3427 1471.64 43.4872C1427.75 47.2818 1383.47 42.4268 1339.78 43.4144ZM1433.65 42.1149C1434.26 37.156 1434.22 32.1659 1433.89 26.9367C1428.12 26.9367 1422.89 26.9367 1417.15 26.9367C1417.48 32.2283 1417.22 37.1664 1419.04 42.1149C1423.67 42.1149 1428.15 42.1149 1433.65 42.1149ZM1381.78 41.356C1386.47 41.356 1390.9 41.356 1395.77 41.356C1395.54 36.4699 1395.33 31.7189 1395.09 26.6248C1390.16 26.8432 1385.55 26.157 1380.84 27.1862C1379.97 31.8748 1380.83 36.262 1381.78 41.356ZM1377.75 11.2075C1372.4 11.2075 1367.47 11.2075 1362.44 11.2075C1360.93 15.6778 1361.43 19.8778 1361.75 24.6288C1367.24 24.2753 1372.45 23.9323 1377.93 23.5788C1377.84 19.358 1378.8 15.5011 1377.75 11.2075ZM1358.79 27.8516C1352.9 26.6768 1347.72 27.5085 1342.41 28.0387C1342.25 32.6857 1341.69 36.7402 1342.79 40.909C1348.26 40.0773 1353.61 41.1897 1358.78 39.7966C1358.79 35.763 1358.79 32.0204 1358.79 27.8516ZM1414.53 11.509C1409.09 11.509 1404.02 11.509 1398.87 11.509C1398.13 15.605 1397.79 19.2852 1398.08 23.1006C1403.9 23.1006 1409.28 23.1006 1414.73 23.1006C1415.21 19.1085 1415.5 15.5323 1414.53 11.509ZM1437.15 12.0912C1436.99 16.0105 1435.98 19.6491 1437.05 23.0902C1442.96 23.0902 1448.54 23.0902 1454.13 23.0902C1454.13 19.2229 1454.13 15.8442 1454.13 12.0912C1448.33 12.0912 1442.93 12.0912 1437.15 12.0912ZM1457.27 26.7392C1458.06 31.6253 1457.53 36.1164 1459.06 40.6491C1462.09 41.1481 1465 41.1481 1468.03 40.7115C1469.3 36.4387 1469.6 32.2595 1468.83 27.9036C1465.16 26.8016 1461.61 26.4169 1457.27 26.7392Z" fill="#06122E"/>
<path d="M1472.75 52.1257C1467.79 53.9034 1463.4 52.895 1459.24 53.1757C1437.33 54.6311 1415.37 55.9098 1393.48 53.5395C1377.61 51.8242 1361.77 51.0549 1345.84 51.5747C1343.8 51.6371 1341.77 51.8346 1338.55 52.0425C1341.34 48.9029 1343.9 49.3707 1346.2 49.3187C1362.63 48.9445 1379.01 49.8697 1395.4 51.0237C1419.51 52.7286 1443.6 51.9385 1467.66 49.7658C1469.47 49.6098 1469.47 49.5786 1472.75 52.1257Z" fill="#06122E"/>
<path d="M1342.34 2.32836C1386.76 -0.229069 1430.77 -0.655307 1475.14 1.47588C1474.09 4.5739 1471.75 3.88776 1469.75 3.82538C1455.02 3.31597 1440.3 2.52588 1425.57 2.29717C1405.32 1.98529 1385.08 2.96251 1364.84 3.65905C1358.81 3.86697 1352.78 3.81499 1346.76 3.77341C1345.4 3.75261 1343.8 4.34519 1342.34 2.32836Z" fill="#06122E"/>
<path d="M1451.51 43.4144C1451.51 32.01 1451.51 20.5536 1451.51 8.17188C1496.56 8.41098 1540.69 9.13871 1584.93 8.43178C1583.5 20.8135 1582.25 32.3427 1583.37 43.4872C1539.48 47.2818 1495.2 42.4268 1451.51 43.4144ZM1545.38 42.1149C1545.99 37.156 1545.95 32.1659 1545.62 26.9367C1539.85 26.9367 1534.62 26.9367 1528.88 26.9367C1529.22 32.2283 1528.95 37.1664 1530.77 42.1149C1535.4 42.1149 1539.88 42.1149 1545.38 42.1149ZM1493.51 41.356C1498.2 41.356 1502.63 41.356 1507.5 41.356C1507.27 36.4699 1507.06 31.7189 1506.82 26.6248C1501.89 26.8432 1497.28 26.157 1492.57 27.1862C1491.7 31.8748 1492.56 36.262 1493.51 41.356ZM1489.48 11.2075C1484.13 11.2075 1479.2 11.2075 1474.17 11.2075C1472.66 15.6778 1473.16 19.8778 1473.48 24.6288C1478.97 24.2753 1484.18 23.9323 1489.66 23.5788C1489.58 19.358 1490.53 15.5011 1489.48 11.2075ZM1470.52 27.8516C1464.63 26.6768 1459.45 27.5085 1454.14 28.0387C1453.98 32.6857 1453.42 36.7402 1454.52 40.909C1459.99 40.0773 1465.34 41.1897 1470.51 39.7966C1470.52 35.763 1470.52 32.0204 1470.52 27.8516ZM1526.26 11.509C1520.82 11.509 1515.75 11.509 1510.6 11.509C1509.86 15.605 1509.52 19.2852 1509.81 23.1006C1515.63 23.1006 1521.02 23.1006 1526.46 23.1006C1526.94 19.1085 1527.23 15.5323 1526.26 11.509ZM1548.88 12.0912C1548.72 16.0105 1547.71 19.6491 1548.78 23.0902C1554.69 23.0902 1560.27 23.0902 1565.86 23.0902C1565.86 19.2229 1565.86 15.8442 1565.86 12.0912C1560.06 12.0912 1554.66 12.0912 1548.88 12.0912ZM1569 26.7392C1569.79 31.6253 1569.26 36.1164 1570.79 40.6491C1573.83 41.1481 1576.73 41.1481 1579.76 40.7115C1581.03 36.4387 1581.33 32.2595 1580.56 27.9036C1576.89 26.8016 1573.34 26.4169 1569 26.7392Z" fill="#06122E"/>
<path d="M1462.46 52.1256C1467.42 53.9033 1471.81 52.8949 1475.97 53.1756C1497.88 54.6311 1519.84 55.9098 1541.73 53.5395C1557.6 51.8241 1573.44 51.0548 1589.37 51.5746C1591.41 51.637 1593.44 51.8345 1596.66 52.0424C1593.87 48.9028 1591.31 49.3707 1589.01 49.3187C1572.58 48.9444 1556.2 49.8697 1539.81 51.0236C1515.7 52.7286 1491.61 51.9385 1467.55 49.7657C1465.74 49.6098 1465.74 49.5786 1462.46 52.1256Z" fill="#06122E"/>
<path d="M1458.51 2.32836C1502.93 -0.229069 1546.94 -0.655307 1591.31 1.47588C1590.26 4.5739 1587.92 3.88776 1585.92 3.82538C1571.19 3.31597 1556.47 2.52588 1541.74 2.29717C1521.49 1.98529 1501.25 2.96251 1481.01 3.65905C1474.98 3.86697 1468.95 3.81499 1462.93 3.77341C1461.57 3.75261 1459.97 4.34519 1458.51 2.32836Z" fill="#06122E"/>
<path d="M1560.9 43.4144C1560.9 32.01 1560.9 20.5536 1560.9 8.17188C1605.94 8.41098 1650.08 9.13871 1694.32 8.43178C1692.89 20.8135 1691.63 32.3427 1692.76 43.4872C1648.86 47.2818 1604.59 42.4268 1560.9 43.4144ZM1654.77 42.1149C1655.37 37.156 1655.33 32.1659 1655.01 26.9367C1649.24 26.9367 1644 26.9367 1638.27 26.9367C1638.6 32.2283 1638.34 37.1664 1640.16 42.1149C1644.79 42.1149 1649.27 42.1149 1654.77 42.1149ZM1602.9 41.356C1607.58 41.356 1612.02 41.356 1616.89 41.356C1616.66 36.4699 1616.45 31.7189 1616.21 26.6248C1611.28 26.8432 1606.67 26.157 1601.96 27.1862C1601.08 31.8748 1601.95 36.262 1602.9 41.356ZM1598.87 11.2075C1593.52 11.2075 1588.59 11.2075 1583.56 11.2075C1582.05 15.6778 1582.54 19.8778 1582.86 24.6288C1588.36 24.2753 1593.57 23.9323 1599.04 23.5788C1598.96 19.358 1599.92 15.5011 1598.87 11.2075ZM1579.91 27.8516C1574.02 26.6768 1568.84 27.5085 1563.53 28.0387C1563.37 32.6857 1562.8 36.7402 1563.91 40.909C1569.37 40.0773 1574.73 41.1897 1579.9 39.7966C1579.91 35.763 1579.91 32.0204 1579.91 27.8516ZM1635.64 11.509C1630.21 11.509 1625.14 11.509 1619.99 11.509C1619.24 15.605 1618.9 19.2852 1619.19 23.1006C1625.02 23.1006 1630.4 23.1006 1635.85 23.1006C1636.33 19.1085 1636.62 15.5323 1635.64 11.509ZM1658.27 12.0912C1658.11 16.0105 1657.09 19.6491 1658.17 23.0902C1664.08 23.0902 1669.66 23.0902 1675.24 23.0902C1675.24 19.2229 1675.24 15.8442 1675.24 12.0912C1669.45 12.0912 1664.05 12.0912 1658.27 12.0912ZM1678.38 26.7392C1679.18 31.6253 1678.64 36.1164 1680.17 40.6491C1683.21 41.1481 1686.12 41.1481 1689.15 40.7115C1690.42 36.4387 1690.72 32.2595 1689.94 27.9036C1686.28 26.8016 1682.73 26.4169 1678.38 26.7392Z" fill="#06122E"/>
<path d="M1693.87 52.1257C1688.91 53.9034 1684.52 52.895 1680.35 53.1757C1658.45 54.6311 1636.49 55.9098 1614.6 53.5395C1598.73 51.8242 1582.88 51.0549 1566.96 51.5747C1564.92 51.6371 1562.88 51.8346 1559.66 52.0425C1562.46 48.9029 1565.02 49.3707 1567.32 49.3187C1583.75 48.9445 1600.13 49.8697 1616.52 51.0237C1640.62 52.7286 1664.72 51.9385 1688.78 49.7658C1690.59 49.6098 1690.59 49.5786 1693.87 52.1257Z" fill="#06122E"/>
<path d="M1563.46 2.32836C1607.88 -0.229069 1651.88 -0.655307 1696.26 1.47588C1695.21 4.5739 1692.87 3.88776 1690.87 3.82538C1676.14 3.31597 1661.42 2.52588 1646.69 2.29717C1626.44 1.98529 1606.2 2.96251 1585.95 3.65905C1579.93 3.86697 1573.9 3.81499 1567.87 3.77341C1566.52 3.75261 1564.92 4.34519 1563.46 2.32836Z" fill="#06122E"/>
<path d="M1784.73 43.4144C1784.73 32.01 1784.73 20.5536 1784.73 8.17188C1829.77 8.41098 1873.91 9.13871 1918.14 8.43178C1916.72 20.8135 1915.46 32.3427 1916.58 43.4872C1872.69 47.2818 1828.41 42.4268 1784.73 43.4144ZM1878.59 42.1149C1879.2 37.156 1879.16 32.1659 1878.84 26.9367C1873.06 26.9367 1867.83 26.9367 1862.1 26.9367C1862.43 32.2283 1862.17 37.1664 1863.99 42.1149C1868.61 42.1149 1873.09 42.1149 1878.59 42.1149ZM1826.72 41.356C1831.41 41.356 1835.85 41.356 1840.72 41.356C1840.48 36.4699 1840.27 31.7189 1840.03 26.6248C1835.1 26.8432 1830.49 26.157 1825.79 27.1862C1824.91 31.8748 1825.78 36.262 1826.72 41.356ZM1822.7 11.2075C1817.34 11.2075 1812.41 11.2075 1807.38 11.2075C1805.87 15.6778 1806.37 19.8778 1806.69 24.6288C1812.18 24.2753 1817.39 23.9323 1822.87 23.5788C1822.79 19.358 1823.74 15.5011 1822.7 11.2075ZM1803.73 27.8516C1797.85 26.6768 1792.66 27.5085 1787.35 28.0387C1787.19 32.6857 1786.63 36.7402 1787.73 40.909C1793.2 40.0773 1798.55 41.1897 1803.72 39.7966C1803.73 35.763 1803.73 32.0204 1803.73 27.8516ZM1859.47 11.509C1854.04 11.509 1848.97 11.509 1843.81 11.509C1843.07 15.605 1842.73 19.2852 1843.02 23.1006C1848.84 23.1006 1854.23 23.1006 1859.67 23.1006C1860.15 19.1085 1860.44 15.5323 1859.47 11.509ZM1882.1 12.0912C1881.94 16.0105 1880.92 19.6491 1882 23.0902C1887.9 23.0902 1893.49 23.0902 1899.07 23.0902C1899.07 19.2229 1899.07 15.8442 1899.07 12.0912C1893.27 12.0912 1887.87 12.0912 1882.1 12.0912ZM1902.21 26.7392C1903 31.6253 1902.47 36.1164 1904 40.6491C1907.04 41.1481 1909.94 41.1481 1912.97 40.7115C1914.24 36.4387 1914.54 32.2595 1913.77 27.9036C1910.11 26.8016 1906.55 26.4169 1902.21 26.7392Z" fill="#06122E"/>
<path d="M1917.69 52.1257C1912.73 53.9034 1908.35 52.895 1904.18 53.1757C1882.28 54.6311 1860.31 55.9098 1838.42 53.5395C1822.56 51.8242 1806.71 51.0549 1790.78 51.5747C1788.74 51.6371 1786.71 51.8346 1783.49 52.0425C1786.29 48.9029 1788.84 49.3707 1791.15 49.3187C1807.58 48.9445 1823.95 49.8697 1840.34 51.0237C1864.45 52.7286 1888.55 51.9385 1912.6 49.7658C1914.41 49.6098 1914.41 49.5786 1917.69 52.1257Z" fill="#06122E"/>
<path d="M1787.28 2.32836C1831.7 -0.229069 1875.71 -0.655307 1920.09 1.47588C1919.03 4.5739 1916.7 3.88776 1914.69 3.82538C1899.96 3.31597 1885.25 2.52588 1870.52 2.29717C1850.26 1.98529 1830.02 2.96251 1809.78 3.65905C1803.75 3.86697 1797.73 3.81499 1791.7 3.77341C1790.34 3.75261 1788.74 4.34519 1787.28 2.32836Z" fill="#06122E"/>
<path d="M1672.63 43.4144C1672.63 32.01 1672.63 20.5536 1672.63 8.17188C1717.67 8.41098 1761.81 9.13871 1806.05 8.43178C1804.62 20.8135 1803.36 32.3427 1804.49 43.4872C1760.59 47.2818 1716.32 42.4268 1672.63 43.4144ZM1766.5 42.1149C1767.1 37.156 1767.06 32.1659 1766.74 26.9367C1760.97 26.9367 1755.74 26.9367 1750 26.9367C1750.33 32.2283 1750.07 37.1664 1751.89 42.1149C1756.52 42.1149 1761 42.1149 1766.5 42.1149ZM1714.63 41.356C1719.31 41.356 1723.75 41.356 1728.62 41.356C1728.39 36.4699 1728.18 31.7189 1727.94 26.6248C1723.01 26.8432 1718.4 26.157 1713.69 27.1862C1712.82 31.8748 1713.68 36.262 1714.63 41.356ZM1710.6 11.2075C1705.25 11.2075 1700.32 11.2075 1695.29 11.2075C1693.78 15.6778 1694.27 19.8778 1694.59 24.6288C1700.09 24.2753 1705.3 23.9323 1710.77 23.5788C1710.69 19.358 1711.65 15.5011 1710.6 11.2075ZM1691.64 27.8516C1685.75 26.6768 1680.57 27.5085 1675.26 28.0387C1675.1 32.6857 1674.53 36.7402 1675.64 40.909C1681.1 40.0773 1686.46 41.1897 1691.63 39.7966C1691.64 35.763 1691.64 32.0204 1691.64 27.8516ZM1747.37 11.509C1741.94 11.509 1736.87 11.509 1731.72 11.509C1730.98 15.605 1730.63 19.2852 1730.92 23.1006C1736.75 23.1006 1742.13 23.1006 1747.58 23.1006C1748.06 19.1085 1748.35 15.5323 1747.37 11.509ZM1770 12.0912C1769.84 16.0105 1768.82 19.6491 1769.9 23.0902C1775.81 23.0902 1781.39 23.0902 1786.97 23.0902C1786.97 19.2229 1786.97 15.8442 1786.97 12.0912C1781.18 12.0912 1775.78 12.0912 1770 12.0912ZM1790.11 26.7392C1790.91 31.6253 1790.37 36.1164 1791.9 40.6491C1794.94 41.1481 1797.85 41.1481 1800.88 40.7115C1802.15 36.4387 1802.45 32.2595 1801.67 27.9036C1798.01 26.8016 1794.46 26.4169 1790.11 26.7392Z" fill="#06122E"/>
<path d="M1683.58 52.1257C1688.54 53.9034 1692.93 52.895 1697.09 53.1757C1718.99 54.6311 1740.96 55.9098 1762.85 53.5395C1778.72 51.8242 1794.56 51.0549 1810.49 51.5747C1812.53 51.6371 1814.56 51.8346 1817.78 52.0425C1814.99 48.9029 1812.43 49.3707 1810.13 49.3187C1793.7 48.9445 1777.32 49.8697 1760.93 51.0237C1736.82 52.7286 1712.73 51.9385 1688.67 49.7658C1686.86 49.6098 1686.86 49.5786 1683.58 52.1257Z" fill="#06122E"/>
<path d="M1679.63 2.32836C1724.05 -0.229069 1768.05 -0.655307 1812.43 1.47588C1811.37 4.5739 1809.04 3.88776 1807.04 3.82538C1792.31 3.31597 1777.59 2.52588 1762.86 2.29717C1742.61 1.98529 1722.37 2.96251 1702.12 3.65905C1696.1 3.86697 1690.07 3.81499 1684.04 3.77341C1682.69 3.75261 1681.09 4.34519 1679.63 2.32836Z" fill="#06122E"/>
</svg>
