<svg width="1016" height="235" viewBox="0 0 1016 235" fill="none" xmlns="http://www.w3.org/2000/svg">
<rect x="4.99951" y="9.53223" width="998" height="220" fill="#F74061"/>
<path d="M1006.07 12.0194C669.768 16.2991 336.586 17.0124 0.585476 13.4459C8.58368 8.26151 26.2558 9.40974 41.4143 9.51412C152.932 10.3666 264.373 11.6888 375.891 12.0715C529.228 12.5935 682.489 10.9581 835.75 9.79254C881.377 9.4446 927.005 9.53159 972.633 9.60118C982.917 9.63598 995.028 8.64433 1006.07 12.0194Z" fill="#F6F5E9"/>
<path d="M1006.07 221.915C669.768 230.828 336.586 232.313 0.585476 224.886C8.58368 214.09 26.2558 216.481 41.4143 216.698C152.932 218.474 264.373 221.227 375.891 222.024C529.228 223.111 682.489 219.705 835.75 217.278C881.377 216.554 927.005 216.735 972.633 216.88C982.917 216.952 995.028 214.887 1006.07 221.915Z" fill="#F6F5E9"/>
<path d="M1016 24.0647C901.741 27.4529 788.543 28.0176 674.388 25.1941C677.105 21.0896 683.109 21.9987 688.259 22.0813C726.147 22.7562 764.009 23.803 801.897 24.106C853.993 24.5192 906.063 23.2245 958.132 22.3017C973.634 22.0262 989.136 22.0951 1004.64 22.1502C1008.13 22.1777 1012.25 21.3927 1016 24.0647Z" fill="#F6F5E9"/>
<path d="M947.394 213.941C633.759 217.329 323.037 217.894 9.68606 215.07C17.1451 210.966 33.6259 211.875 47.7626 211.957C151.763 212.632 255.692 213.679 359.692 213.982C502.693 214.395 645.622 213.1 788.551 212.178C831.103 211.902 873.656 211.971 916.208 212.026C925.798 212.054 937.093 211.269 947.394 213.941Z" fill="#F6F5E9"/>
<path d="M984.457 234.27C981.069 156.042 980.504 78.5411 983.327 0.384514C987.432 2.24496 986.523 6.35564 986.44 9.88164C985.765 35.8216 984.718 61.7438 984.415 87.6838C984.002 123.351 985.297 159.001 986.22 194.651C986.495 205.264 986.426 215.878 986.371 226.491C986.344 228.883 987.129 231.7 984.457 234.27Z" fill="#F6F5E9"/>
<path d="M1002.68 6.01367C1015.39 82.3585 1017.5 157.994 1006.91 234.27C991.521 232.454 994.93 228.443 995.24 225.001C997.771 199.686 1001.7 174.387 1002.83 149.072C1004.38 114.263 999.527 79.4708 996.066 44.679C995.033 34.321 995.291 23.9629 995.498 13.605C995.601 11.2705 992.657 8.52103 1002.68 6.01367Z" fill="#F6F5E9"/>
<path d="M6.9673 4.66309C10.1035 79.8311 10.6262 154.301 8.01269 229.401C4.21361 227.613 5.05502 223.663 5.13151 220.275C5.75619 195.35 6.72508 170.441 7.00555 145.516C7.38801 111.243 6.18964 76.9879 5.33548 42.7324C5.08051 32.5341 5.14425 22.3357 5.19525 12.1373C5.22074 9.83889 4.49407 7.1318 6.9673 4.66309Z" fill="#F6F5E9"/>
</svg>
