<svg width="319" height="273" viewBox="0 0 319 273" fill="none" xmlns="http://www.w3.org/2000/svg">
<path d="M13.9283 3.57715C17.2283 92.7086 17.7782 181.012 15.0282 270.063C11.0307 267.943 11.916 263.259 11.9965 259.242C12.6538 229.686 13.6734 200.151 13.9685 170.595C14.3709 129.956 13.11 89.3372 12.2112 48.7183C11.9429 36.6255 12.01 24.5327 12.0637 12.4398C12.0905 9.71443 11.3259 6.50445 13.9283 3.57715Z" fill="#F6F5E9"/>
<path d="M306.365 3.24121C312.412 92.3726 313.42 180.676 308.381 269.727C301.055 267.607 302.677 262.924 302.825 258.906C304.029 229.35 305.898 199.815 306.438 170.259C307.176 129.62 304.865 89.0013 303.218 48.3824C302.726 36.2896 302.849 24.1967 302.948 12.1039C302.997 9.37849 301.596 6.16852 306.365 3.24121Z" fill="#F6F5E9"/>
<path d="M17.6214 1.39844C20.5916 31.6806 21.0866 61.6815 18.6114 91.9362C15.0134 91.216 15.8103 89.6247 15.8827 88.2598C16.4743 78.2184 17.392 68.1838 17.6576 58.1423C18.0198 44.3353 16.8849 30.5352 16.0759 16.735C15.8344 12.6265 15.8948 8.51801 15.9431 4.40951C15.9673 3.48356 15.279 2.39298 17.6214 1.39844Z" fill="#F6F5E9"/>
<path d="M298.67 24.2568C300.54 107.38 300.851 189.731 299.293 272.779C297.029 270.802 297.53 266.434 297.576 262.687C297.948 235.124 298.526 207.579 298.693 180.016C298.921 142.117 298.207 104.236 297.697 66.355C297.545 55.0774 297.583 43.7997 297.614 32.5221C297.629 29.9804 297.196 26.9868 298.67 24.2568Z" fill="#F6F5E9"/>
<path d="M318.994 9.54023C212.633 12.0487 107.26 12.4668 0.995605 10.3764C3.52515 7.33766 9.11417 8.01068 13.9082 8.07186C49.1772 8.57152 84.4219 9.34649 119.691 9.57083C168.186 9.87674 216.656 8.91821 265.127 8.235C279.557 8.03105 293.988 8.08204 308.418 8.12283C311.671 8.14322 315.501 7.56198 318.994 9.54023Z" fill="#F6F5E9"/>
<path d="M8.65527 3.14131C112.456 -0.226599 215.294 -0.787921 319.001 2.01866C316.532 6.09848 311.078 5.19489 306.399 5.11275C271.979 4.44191 237.582 3.40143 203.162 3.10023C155.834 2.68951 108.53 3.97644 61.226 4.89371C47.1429 5.16753 33.0598 5.09908 18.9766 5.04431C15.8027 5.01693 12.0644 5.7973 8.65527 3.14131Z" fill="#F6F5E9"/>
<path d="M7.21875 265.738C109.42 270.787 210.672 271.629 312.78 267.421C310.35 261.305 304.979 262.66 300.373 262.783C266.483 263.789 232.617 265.349 198.727 265.8C152.129 266.416 105.554 264.487 58.9791 263.111C45.1131 262.701 31.247 262.804 17.381 262.886C14.256 262.927 10.5753 261.757 7.21875 265.738Z" fill="#F6F5E9"/>
<path d="M262.99 260.192C279.509 258.106 295.874 257.759 312.377 259.497C311.984 262.023 311.116 261.463 310.372 261.413C304.894 260.997 299.421 260.353 293.943 260.166C286.412 259.912 278.884 260.709 271.356 261.277C269.115 261.447 266.874 261.404 264.633 261.37C264.128 261.353 263.533 261.837 262.99 260.192Z" fill="#F6F5E9"/>
</svg>
