<svg width="65" height="1080" viewBox="0 0 65 1080" fill="none" xmlns="http://www.w3.org/2000/svg">
<path d="M13.5686 1.44238C26.8553 1.44238 40.2026 1.44238 54.6278 1.44238C54.3492 53.9258 53.5014 105.354 54.325 156.9C39.8998 155.235 26.4677 153.77 13.4839 155.083C9.06304 103.936 14.7193 52.3432 13.5686 1.44238ZM15.0826 110.817C20.86 111.52 26.6736 111.473 32.7659 111.098C32.7659 104.369 32.7659 98.2735 32.7659 91.5915C26.601 91.9783 20.8479 91.6735 15.0826 93.7954C15.0826 99.1879 15.0826 104.405 15.0826 110.817ZM15.9668 50.3737C15.9668 55.8366 15.9668 61.0064 15.9668 66.6803C21.6593 66.4107 27.1945 66.1645 33.1293 65.8832C32.8749 60.1389 33.6743 54.7698 32.4752 49.2835C27.0128 48.2636 21.9016 49.2718 15.9668 50.3737ZM51.0911 45.6846C51.0911 39.448 51.0911 33.7038 51.0911 27.8424C45.883 26.0839 40.9898 26.6583 35.4547 27.0335C35.8665 33.4342 36.2662 39.5067 36.678 45.8839C41.5954 45.7901 46.0889 46.9038 51.0911 45.6846ZM31.7001 23.5869C33.0687 16.7291 32.0998 10.6917 31.4821 4.50204C26.0681 4.31447 21.3444 3.658 16.4876 4.94752C17.4565 11.313 16.1606 17.5496 17.7836 23.5752C22.483 23.5869 26.8432 23.5869 31.7001 23.5869ZM50.7399 88.5317C50.7399 82.2014 50.7399 76.293 50.7399 70.2909C45.9678 69.4234 41.6802 69.0249 37.2352 69.3648C37.2352 76.1524 37.2352 82.4241 37.2352 88.7662C41.8861 89.3289 46.0526 89.6689 50.7399 88.5317ZM50.0616 114.897C45.4954 114.709 41.2563 113.525 37.2473 114.779C37.2473 121.661 37.2473 128.167 37.2473 134.673C41.7529 134.673 45.6892 134.673 50.0616 134.673C50.0616 127.921 50.0616 121.626 50.0616 114.897ZM32.996 138.331C27.3035 139.257 22.0711 138.635 16.7904 140.417C16.209 143.958 16.209 147.346 16.7177 150.874C21.6957 152.351 26.5646 152.703 31.6395 151.8C32.9234 147.533 33.3715 143.395 32.996 138.331Z" fill="#F6F5E9"/>
<path d="M3.41876 156.372C1.34737 150.593 2.52236 145.481 2.1953 140.628C0.499428 115.107 -0.990506 89.5162 1.77135 64.0072C3.77005 45.5202 4.66644 27.0567 4.06078 8.49934C3.9881 6.11959 3.75795 3.75157 3.51568 0.000243998C7.17392 3.25921 6.62881 6.23681 6.68938 8.92135C7.12546 28.0648 6.04737 47.1497 4.70278 66.2463C2.71619 94.3344 3.6368 122.411 6.1685 150.44C6.3502 152.55 6.38654 152.55 3.41876 156.372Z" fill="#F6F5E9"/>
<path d="M61.4343 4.42041C64.4142 56.177 64.9109 107.453 62.4276 159.163C58.8178 157.932 59.6173 155.212 59.69 152.879C60.2836 135.717 61.2042 118.566 61.4707 101.404C61.8341 77.8058 60.6954 54.2193 59.8838 30.6329C59.6416 23.6108 59.7021 16.5888 59.7506 9.56678C59.7748 7.98419 59.0843 6.12023 61.4343 4.42041Z" fill="#F6F5E9"/>
<path d="M13.5686 262.242C26.8553 262.242 40.2026 262.242 54.6278 262.242C54.3492 314.725 53.5014 366.154 54.325 417.699C39.8998 416.035 26.4677 414.569 13.4839 415.882C9.06304 364.735 14.7193 313.143 13.5686 262.242ZM15.0826 371.617C20.86 372.32 26.6736 372.273 32.7659 371.898C32.7659 365.169 32.7659 359.073 32.7659 352.391C26.601 352.778 20.8479 352.473 15.0826 354.595C15.0826 359.988 15.0826 365.204 15.0826 371.617ZM15.9668 311.173C15.9668 316.636 15.9668 321.806 15.9668 327.48C21.6593 327.21 27.1945 326.964 33.1293 326.683C32.8749 320.939 33.6743 315.57 32.4752 310.083C27.0128 309.063 21.9016 310.071 15.9668 311.173ZM51.0911 306.484C51.0911 300.248 51.0911 294.503 51.0911 288.642C45.883 286.884 40.9898 287.458 35.4547 287.833C35.8665 294.234 36.2662 300.306 36.678 306.684C41.5954 306.59 46.0889 307.703 51.0911 306.484ZM31.7001 284.387C33.0687 277.529 32.0998 271.491 31.4821 265.302C26.0681 265.114 21.3444 264.458 16.4876 265.747C17.4565 272.113 16.1606 278.349 17.7836 284.375C22.483 284.387 26.8432 284.387 31.7001 284.387ZM50.7399 349.331C50.7399 343.001 50.7399 337.093 50.7399 331.091C45.9678 330.223 41.6802 329.825 37.2352 330.165C37.2352 336.952 37.2352 343.224 37.2352 349.566C41.8861 350.129 46.0526 350.469 50.7399 349.331ZM50.0616 375.696C45.4954 375.509 41.2563 374.325 37.2473 375.579C37.2473 382.46 37.2473 388.967 37.2473 395.473C41.7529 395.473 45.6892 395.473 50.0616 395.473C50.0616 388.72 50.0616 382.425 50.0616 375.696ZM32.996 399.13C27.3035 400.056 22.0711 399.435 16.7904 401.217C16.209 404.757 16.209 408.145 16.7177 411.674C21.6957 413.151 26.5646 413.503 31.6395 412.6C32.9234 408.333 33.3715 404.195 32.996 399.13Z" fill="#F6F5E9"/>
<path d="M3.41876 417.172C1.34737 411.392 2.52236 406.281 2.1953 401.428C0.499427 375.907 -0.990506 350.316 1.77135 324.807C3.77005 306.32 4.66644 287.856 4.06078 269.299C3.9881 266.919 3.75795 264.551 3.51568 260.8C7.17392 264.059 6.62881 267.036 6.68938 269.721C7.12546 288.865 6.04737 307.949 4.70278 327.046C2.71619 355.134 3.6368 383.21 6.16849 411.24C6.3502 413.35 6.38654 413.35 3.41876 417.172Z" fill="#F6F5E9"/>
<path d="M61.4343 265.22C64.4142 316.977 64.9109 368.252 62.4276 419.962C58.8178 418.731 59.6173 416.012 59.69 413.679C60.2836 396.516 61.2042 379.366 61.4707 362.204C61.8341 338.605 60.6954 315.019 59.8838 291.432C59.6416 284.41 59.7021 277.388 59.7506 270.366C59.7748 268.784 59.0843 266.92 61.4343 265.22Z" fill="#F6F5E9"/>
<path d="M13.5686 131.63C26.8553 131.63 40.2026 131.63 54.6278 131.63C54.3492 184.113 53.5014 235.542 54.325 287.087C39.8998 285.423 26.4677 283.957 13.4839 285.27C9.06304 234.123 14.7193 182.531 13.5686 131.63ZM15.0826 241.004C20.86 241.708 26.6736 241.661 32.7659 241.286C32.7659 234.557 32.7659 228.461 32.7659 221.779C26.601 222.166 20.8479 221.861 15.0826 223.983C15.0826 229.375 15.0826 234.592 15.0826 241.004ZM15.9668 180.561C15.9668 186.024 15.9668 191.194 15.9668 196.868C21.6593 196.598 27.1945 196.352 33.1293 196.071C32.8749 190.326 33.6743 184.957 32.4752 179.471C27.0128 178.451 21.9016 179.459 15.9668 180.561ZM51.0911 175.872C51.0911 169.635 51.0911 163.891 51.0911 158.03C45.883 156.271 40.9898 156.846 35.4547 157.221C35.8665 163.622 36.2662 169.694 36.678 176.071C41.5954 175.978 46.0889 177.091 51.0911 175.872ZM31.7001 153.774C33.0687 146.917 32.0998 140.879 31.4821 134.69C26.0681 134.502 21.3444 133.845 16.4876 135.135C17.4565 141.501 16.1606 147.737 17.7836 153.763C22.483 153.774 26.8432 153.774 31.7001 153.774ZM50.7399 218.719C50.7399 212.389 50.7399 206.481 50.7399 200.478C45.9678 199.611 41.6802 199.212 37.2352 199.552C37.2352 206.34 37.2352 212.612 37.2352 218.954C41.8861 219.516 46.0526 219.856 50.7399 218.719ZM50.0616 245.084C45.4954 244.897 41.2563 243.712 37.2473 244.967C37.2473 251.848 37.2473 258.354 37.2473 264.861C41.7529 264.861 45.6892 264.861 50.0616 264.861C50.0616 258.108 50.0616 251.813 50.0616 245.084ZM32.996 268.518C27.3035 269.444 22.0711 268.823 16.7904 270.605C16.209 274.145 16.209 277.533 16.7177 281.062C21.6957 282.539 26.5646 282.89 31.6395 281.988C32.9234 277.721 33.3715 273.582 32.996 268.518Z" fill="#F6F5E9"/>
<path d="M3.41829 144.385C1.3469 150.165 2.52188 155.276 2.19482 160.129C0.498949 185.65 -0.990987 211.241 1.77086 236.75C3.76957 255.237 4.66596 273.7 4.06029 292.258C3.98761 294.637 3.75746 297.006 3.51519 300.757C7.17343 297.498 6.62832 294.52 6.68889 291.836C7.12497 272.692 6.04688 253.607 4.7023 234.511C2.71571 206.423 3.63632 178.346 6.16802 150.317C6.34972 148.207 6.38607 148.207 3.41829 144.385Z" fill="#F6F5E9"/>
<path d="M61.4343 139.781C64.4142 191.538 64.9109 242.814 62.4276 294.523C58.8178 293.292 59.6173 290.573 59.69 288.24C60.2836 271.077 61.2042 253.927 61.4707 236.765C61.8341 213.166 60.6954 189.58 59.8838 165.993C59.6416 158.971 59.7021 151.949 59.7506 144.927C59.7748 143.345 59.0843 141.481 61.4343 139.781Z" fill="#F6F5E9"/>
<path d="M13.5686 392.429C26.8553 392.429 40.2026 392.429 54.6278 392.429C54.3492 444.912 53.5014 496.341 54.325 547.886C39.8998 546.222 26.4677 544.756 13.4839 546.069C9.06304 494.922 14.7193 443.33 13.5686 392.429ZM15.0826 501.804C20.86 502.507 26.6736 502.46 32.7659 502.085C32.7659 495.356 32.7659 489.26 32.7659 482.578C26.601 482.965 20.8479 482.66 15.0826 484.782C15.0826 490.175 15.0826 495.391 15.0826 501.804ZM15.9668 441.36C15.9668 446.823 15.9668 451.993 15.9668 457.667C21.6593 457.397 27.1945 457.151 33.1293 456.87C32.8749 451.126 33.6743 445.757 32.4752 440.27C27.0128 439.25 21.9016 440.258 15.9668 441.36ZM51.0911 436.671C51.0911 430.435 51.0911 424.691 51.0911 418.829C45.883 417.071 40.9898 417.645 35.4547 418.02C35.8665 424.421 36.2662 430.493 36.678 436.871C41.5954 436.777 46.0889 437.89 51.0911 436.671ZM31.7001 414.574C33.0687 407.716 32.0998 401.678 31.4821 395.489C26.0681 395.301 21.3444 394.645 16.4876 395.934C17.4565 402.3 16.1606 408.536 17.7836 414.562C22.483 414.574 26.8432 414.574 31.7001 414.574ZM50.7399 479.518C50.7399 473.188 50.7399 467.28 50.7399 461.278C45.9678 460.41 41.6802 460.012 37.2352 460.352C37.2352 467.139 37.2352 473.411 37.2352 479.753C41.8861 480.316 46.0526 480.656 50.7399 479.518ZM50.0616 505.883C45.4954 505.696 41.2563 504.512 37.2473 505.766C37.2473 512.647 37.2473 519.154 37.2473 525.66C41.7529 525.66 45.6892 525.66 50.0616 525.66C50.0616 518.907 50.0616 512.612 50.0616 505.883ZM32.996 529.317C27.3035 530.243 22.0711 529.622 16.7904 531.404C16.209 534.944 16.209 538.332 16.7177 541.861C21.6957 543.338 26.5646 543.69 31.6395 542.787C32.9234 538.52 33.3715 534.382 32.996 529.317Z" fill="#F6F5E9"/>
<path d="M3.41829 405.184C1.3469 410.964 2.52188 416.075 2.19482 420.928C0.498949 446.449 -0.990987 472.04 1.77086 497.549C3.76957 516.036 4.66596 534.5 4.06029 553.057C3.98761 555.437 3.75746 557.805 3.51519 561.556C7.17343 558.297 6.62832 555.319 6.68889 552.635C7.12497 533.491 6.04688 514.407 4.7023 495.31C2.71571 467.222 3.63632 439.146 6.16802 411.116C6.34972 409.006 6.38607 409.006 3.41829 405.184Z" fill="#F6F5E9"/>
<path d="M61.4343 400.58C64.4142 452.337 64.9109 503.613 62.4276 555.322C58.8178 554.091 59.6173 551.372 59.69 549.039C60.2836 531.877 61.2042 514.726 61.4707 497.564C61.8341 473.965 60.6954 450.379 59.8838 426.793C59.6416 419.771 59.7021 412.748 59.7506 405.726C59.7748 404.144 59.0843 402.28 61.4343 400.58Z" fill="#F6F5E9"/>
<path d="M13.5686 1.44238C26.8553 1.44238 40.2026 1.44238 54.6278 1.44238C54.3492 53.9258 53.5014 105.354 54.325 156.9C39.8998 155.235 26.4677 153.77 13.4839 155.083C9.06304 103.936 14.7193 52.3432 13.5686 1.44238ZM15.0826 110.817C20.86 111.52 26.6736 111.473 32.7659 111.098C32.7659 104.369 32.7659 98.2735 32.7659 91.5915C26.601 91.9783 20.8479 91.6735 15.0826 93.7954C15.0826 99.1879 15.0826 104.405 15.0826 110.817ZM15.9668 50.3737C15.9668 55.8366 15.9668 61.0064 15.9668 66.6803C21.6593 66.4107 27.1945 66.1645 33.1293 65.8832C32.8749 60.1389 33.6743 54.7698 32.4752 49.2835C27.0128 48.2636 21.9016 49.2718 15.9668 50.3737ZM51.0911 45.6846C51.0911 39.448 51.0911 33.7038 51.0911 27.8424C45.883 26.0839 40.9898 26.6583 35.4547 27.0335C35.8665 33.4342 36.2662 39.5067 36.678 45.8839C41.5954 45.7901 46.0889 46.9038 51.0911 45.6846ZM31.7001 23.5869C33.0687 16.7291 32.0998 10.6917 31.4821 4.50204C26.0681 4.31447 21.3444 3.658 16.4876 4.94752C17.4565 11.313 16.1606 17.5496 17.7836 23.5752C22.483 23.5869 26.8432 23.5869 31.7001 23.5869ZM50.7399 88.5317C50.7399 82.2014 50.7399 76.293 50.7399 70.2909C45.9678 69.4234 41.6802 69.0249 37.2352 69.3648C37.2352 76.1524 37.2352 82.4241 37.2352 88.7662C41.8861 89.3289 46.0526 89.6689 50.7399 88.5317ZM50.0616 114.897C45.4954 114.709 41.2563 113.525 37.2473 114.779C37.2473 121.661 37.2473 128.167 37.2473 134.673C41.7529 134.673 45.6892 134.673 50.0616 134.673C50.0616 127.921 50.0616 121.626 50.0616 114.897ZM32.996 138.331C27.3035 139.257 22.0711 138.635 16.7904 140.417C16.209 143.958 16.209 147.346 16.7177 150.874C21.6957 152.351 26.5646 152.703 31.6395 151.8C32.9234 147.533 33.3715 143.395 32.996 138.331Z" fill="#F6F5E9"/>
<path d="M3.41876 156.372C1.34737 150.593 2.52236 145.481 2.1953 140.628C0.499428 115.107 -0.990506 89.5162 1.77135 64.0072C3.77005 45.5202 4.66644 27.0567 4.06078 8.49934C3.9881 6.11959 3.75795 3.75157 3.51568 0.000243998C7.17392 3.25921 6.62881 6.23681 6.68938 8.92135C7.12546 28.0648 6.04737 47.1497 4.70278 66.2463C2.71619 94.3344 3.6368 122.411 6.1685 150.44C6.3502 152.55 6.38654 152.55 3.41876 156.372Z" fill="#F6F5E9"/>
<path d="M61.4343 4.42041C64.4142 56.177 64.9109 107.453 62.4276 159.163C58.8178 157.932 59.6173 155.212 59.69 152.879C60.2836 135.717 61.2042 118.566 61.4707 101.404C61.8341 77.8058 60.6954 54.2193 59.8838 30.6329C59.6416 23.6108 59.7021 16.5888 59.7506 9.56678C59.7748 7.98419 59.0843 6.12023 61.4343 4.42041Z" fill="#F6F5E9"/>
<path d="M13.5686 262.242C26.8553 262.242 40.2026 262.242 54.6278 262.242C54.3492 314.725 53.5014 366.153 54.325 417.699C39.8998 416.034 26.4677 414.569 13.4839 415.882C9.06304 364.735 14.7193 313.143 13.5686 262.242ZM15.0826 371.616C20.86 372.32 26.6736 372.273 32.7659 371.898C32.7659 365.169 32.7659 359.073 32.7659 352.391C26.601 352.778 20.8479 352.473 15.0826 354.595C15.0826 359.987 15.0826 365.204 15.0826 371.616ZM15.9668 311.173C15.9668 316.636 15.9668 321.806 15.9668 327.48C21.6593 327.21 27.1945 326.964 33.1293 326.682C32.8749 320.938 33.6743 315.569 32.4752 310.083C27.0128 309.063 21.9016 310.071 15.9668 311.173ZM51.0911 306.484C51.0911 300.247 51.0911 294.503 51.0911 288.642C45.883 286.883 40.9898 287.458 35.4547 287.833C35.8665 294.233 36.2662 300.306 36.678 306.683C41.5954 306.589 46.0889 307.703 51.0911 306.484ZM31.7001 284.386C33.0687 277.528 32.0998 271.491 31.4821 265.301C26.0681 265.114 21.3444 264.457 16.4876 265.747C17.4565 272.112 16.1606 278.349 17.7836 284.375C22.483 284.386 26.8432 284.386 31.7001 284.386ZM50.7399 349.331C50.7399 343.001 50.7399 337.092 50.7399 331.09C45.9678 330.223 41.6802 329.824 37.2352 330.164C37.2352 336.952 37.2352 343.223 37.2352 349.566C41.8861 350.128 46.0526 350.468 50.7399 349.331ZM50.0616 375.696C45.4954 375.508 41.2563 374.324 37.2473 375.579C37.2473 382.46 37.2473 388.966 37.2473 395.472C41.7529 395.472 45.6892 395.472 50.0616 395.472C50.0616 388.72 50.0616 382.425 50.0616 375.696ZM32.996 399.13C27.3035 400.056 22.0711 399.435 16.7904 401.217C16.209 404.757 16.209 408.145 16.7177 411.673C21.6957 413.151 26.5646 413.502 31.6395 412.6C32.9234 408.332 33.3715 404.194 32.996 399.13Z" fill="#F6F5E9"/>
<path d="M3.41876 417.171C1.34737 411.392 2.52236 406.281 2.1953 401.427C0.499427 375.907 -0.990506 350.316 1.77135 324.807C3.77005 306.32 4.66644 287.856 4.06078 269.299C3.9881 266.919 3.75795 264.551 3.51568 260.8C7.17392 264.059 6.62881 267.036 6.68938 269.721C7.12546 288.864 6.04737 307.949 4.70278 327.046C2.71619 355.134 3.6368 383.21 6.16849 411.239C6.3502 413.35 6.38654 413.35 3.41876 417.171Z" fill="#F6F5E9"/>
<path d="M61.4343 265.22C64.4142 316.976 64.9109 368.252 62.4276 419.962C58.8178 418.731 59.6173 416.011 59.69 413.678C60.2836 396.516 61.2042 379.365 61.4707 362.203C61.8341 338.605 60.6954 315.019 59.8838 291.432C59.6416 284.41 59.7021 277.388 59.7506 270.366C59.7748 268.783 59.0843 266.919 61.4343 265.22Z" fill="#F6F5E9"/>
<path d="M13.5686 131.63C26.8553 131.63 40.2026 131.63 54.6278 131.63C54.3492 184.113 53.5014 235.542 54.325 287.087C39.8998 285.423 26.4677 283.957 13.4839 285.27C9.06304 234.123 14.7193 182.531 13.5686 131.63ZM15.0826 241.004C20.86 241.708 26.6736 241.661 32.7659 241.286C32.7659 234.557 32.7659 228.461 32.7659 221.779C26.601 222.166 20.8479 221.861 15.0826 223.983C15.0826 229.375 15.0826 234.592 15.0826 241.004ZM15.9668 180.561C15.9668 186.024 15.9668 191.194 15.9668 196.868C21.6593 196.598 27.1945 196.352 33.1293 196.071C32.8749 190.326 33.6743 184.957 32.4752 179.471C27.0128 178.451 21.9016 179.459 15.9668 180.561ZM51.0911 175.872C51.0911 169.635 51.0911 163.891 51.0911 158.03C45.883 156.271 40.9898 156.846 35.4547 157.221C35.8665 163.622 36.2662 169.694 36.678 176.071C41.5954 175.978 46.0889 177.091 51.0911 175.872ZM31.7001 153.774C33.0687 146.917 32.0998 140.879 31.4821 134.69C26.0681 134.502 21.3444 133.845 16.4876 135.135C17.4565 141.501 16.1606 147.737 17.7836 153.763C22.483 153.774 26.8432 153.774 31.7001 153.774ZM50.7399 218.719C50.7399 212.389 50.7399 206.481 50.7399 200.478C45.9678 199.611 41.6802 199.212 37.2352 199.552C37.2352 206.34 37.2352 212.612 37.2352 218.954C41.8861 219.516 46.0526 219.856 50.7399 218.719ZM50.0616 245.084C45.4954 244.897 41.2563 243.712 37.2473 244.967C37.2473 251.848 37.2473 258.354 37.2473 264.861C41.7529 264.861 45.6892 264.861 50.0616 264.861C50.0616 258.108 50.0616 251.813 50.0616 245.084ZM32.996 268.518C27.3035 269.444 22.0711 268.823 16.7904 270.605C16.209 274.145 16.209 277.533 16.7177 281.062C21.6957 282.539 26.5646 282.89 31.6395 281.988C32.9234 277.721 33.3715 273.582 32.996 268.518Z" fill="#F6F5E9"/>
<path d="M3.41829 144.385C1.3469 150.165 2.52188 155.276 2.19482 160.129C0.498949 185.65 -0.990987 211.241 1.77086 236.75C3.76957 255.237 4.66596 273.7 4.06029 292.258C3.98761 294.637 3.75746 297.006 3.51519 300.757C7.17343 297.498 6.62832 294.52 6.68889 291.836C7.12497 272.692 6.04688 253.607 4.7023 234.511C2.71571 206.423 3.63632 178.346 6.16802 150.317C6.34972 148.207 6.38607 148.207 3.41829 144.385Z" fill="#F6F5E9"/>
<path d="M61.4343 139.781C64.4142 191.538 64.9109 242.814 62.4276 294.523C58.8178 293.292 59.6173 290.573 59.69 288.24C60.2836 271.077 61.2042 253.927 61.4707 236.765C61.8341 213.166 60.6954 189.58 59.8838 165.993C59.6416 158.971 59.7021 151.949 59.7506 144.927C59.7748 143.345 59.0843 141.481 61.4343 139.781Z" fill="#F6F5E9"/>
<path d="M13.5686 392.429C26.8553 392.429 40.2026 392.429 54.6278 392.429C54.3492 444.912 53.5014 496.341 54.325 547.886C39.8998 546.222 26.4677 544.756 13.4839 546.069C9.06304 494.922 14.7193 443.33 13.5686 392.429ZM15.0826 501.804C20.86 502.507 26.6736 502.46 32.7659 502.085C32.7659 495.356 32.7659 489.26 32.7659 482.578C26.601 482.965 20.8479 482.66 15.0826 484.782C15.0826 490.174 15.0826 495.391 15.0826 501.804ZM15.9668 441.36C15.9668 446.823 15.9668 451.993 15.9668 457.667C21.6593 457.397 27.1945 457.151 33.1293 456.87C32.8749 451.126 33.6743 445.756 32.4752 440.27C27.0128 439.25 21.9016 440.258 15.9668 441.36ZM51.0911 436.671C51.0911 430.435 51.0911 424.69 51.0911 418.829C45.883 417.071 40.9898 417.645 35.4547 418.02C35.8665 424.421 36.2662 430.493 36.678 436.87C41.5954 436.777 46.0889 437.89 51.0911 436.671ZM31.7001 414.574C33.0687 407.716 32.0998 401.678 31.4821 395.489C26.0681 395.301 21.3444 394.645 16.4876 395.934C17.4565 402.3 16.1606 408.536 17.7836 414.562C22.483 414.574 26.8432 414.574 31.7001 414.574ZM50.7399 479.518C50.7399 473.188 50.7399 467.28 50.7399 461.277C45.9678 460.41 41.6802 460.011 37.2352 460.351C37.2352 467.139 37.2352 473.411 37.2352 479.753C41.8861 480.315 46.0526 480.655 50.7399 479.518ZM50.0616 505.883C45.4954 505.696 41.2563 504.512 37.2473 505.766C37.2473 512.647 37.2473 519.153 37.2473 525.66C41.7529 525.66 45.6892 525.66 50.0616 525.66C50.0616 518.907 50.0616 512.612 50.0616 505.883ZM32.996 529.317C27.3035 530.243 22.0711 529.622 16.7904 531.404C16.209 534.944 16.209 538.332 16.7177 541.861C21.6957 543.338 26.5646 543.689 31.6395 542.787C32.9234 538.52 33.3715 534.381 32.996 529.317Z" fill="#F6F5E9"/>
<path d="M3.41829 405.184C1.3469 410.964 2.52188 416.075 2.19482 420.928C0.498949 446.449 -0.990987 472.04 1.77086 497.549C3.76957 516.036 4.66596 534.499 4.06029 553.057C3.98761 555.437 3.75746 557.805 3.51519 561.556C7.17343 558.297 6.62832 555.319 6.68889 552.635C7.12497 533.491 6.04688 514.406 4.7023 495.31C2.71571 467.222 3.63632 439.146 6.16802 411.116C6.34972 409.006 6.38607 409.006 3.41829 405.184Z" fill="#F6F5E9"/>
<path d="M61.4343 400.58C64.4142 452.337 64.9109 503.612 62.4276 555.322C58.8178 554.091 59.6173 551.372 59.69 549.039C60.2836 531.876 61.2042 514.726 61.4707 497.564C61.8341 473.965 60.6954 450.379 59.8838 426.792C59.6416 419.77 59.7021 412.748 59.7506 405.726C59.7748 404.144 59.0843 402.28 61.4343 400.58Z" fill="#F6F5E9"/>
<path d="M13.5686 519.886C26.8553 519.886 40.2026 519.886 54.6278 519.886C54.3492 572.369 53.5014 623.797 54.325 675.343C39.8998 673.678 26.4677 672.213 13.4839 673.526C9.06304 622.379 14.7193 570.787 13.5686 519.886ZM15.0826 629.26C20.86 629.964 26.6736 629.917 32.7659 629.542C32.7659 622.813 32.7659 616.717 32.7659 610.035C26.601 610.422 20.8479 610.117 15.0826 612.239C15.0826 617.631 15.0826 622.848 15.0826 629.26ZM15.9668 568.817C15.9668 574.28 15.9668 579.45 15.9668 585.124C21.6593 584.854 27.1945 584.608 33.1293 584.327C32.8749 578.582 33.6743 573.213 32.4752 567.727C27.0128 566.707 21.9016 567.715 15.9668 568.817ZM51.0911 564.128C51.0911 557.891 51.0911 552.147 51.0911 546.286C45.883 544.527 40.9898 545.102 35.4547 545.477C35.8665 551.878 36.2662 557.95 36.678 564.327C41.5954 564.233 46.0889 565.347 51.0911 564.128ZM31.7001 542.03C33.0687 535.172 32.0998 529.135 31.4821 522.945C26.0681 522.758 21.3444 522.101 16.4876 523.391C17.4565 529.756 16.1606 535.993 17.7836 542.019C22.483 542.03 26.8432 542.03 31.7001 542.03ZM50.7399 606.975C50.7399 600.645 50.7399 594.736 50.7399 588.734C45.9678 587.867 41.6802 587.468 37.2352 587.808C37.2352 594.596 37.2352 600.867 37.2352 607.21C41.8861 607.772 46.0526 608.112 50.7399 606.975ZM50.0616 633.34C45.4954 633.152 41.2563 631.968 37.2473 633.223C37.2473 640.104 37.2473 646.61 37.2473 653.116C41.7529 653.116 45.6892 653.116 50.0616 653.116C50.0616 646.364 50.0616 640.069 50.0616 633.34ZM32.996 656.774C27.3035 657.7 22.0711 657.079 16.7904 658.861C16.209 662.401 16.209 665.789 16.7177 669.318C21.6957 670.795 26.5646 671.146 31.6395 670.244C32.9234 665.976 33.3715 661.838 32.996 656.774Z" fill="#F6F5E9"/>
<path d="M3.41876 674.815C1.34737 669.036 2.52236 663.925 2.1953 659.071C0.499427 633.551 -0.990506 607.96 1.77135 582.451C3.77005 563.964 4.66644 545.5 4.06078 526.943C3.9881 524.563 3.75795 522.195 3.51568 518.444C7.17392 521.703 6.62881 524.68 6.68938 527.365C7.12546 546.508 6.04737 565.593 4.70278 584.69C2.71619 612.778 3.6368 640.854 6.16849 668.883C6.3502 670.994 6.38654 670.994 3.41876 674.815Z" fill="#F6F5E9"/>
<path d="M61.4343 522.864C64.4142 574.62 64.9109 625.896 62.4276 677.606C58.8178 676.375 59.6173 673.655 59.69 671.322C60.2836 654.16 61.2042 637.01 61.4707 619.847C61.8341 596.249 60.6954 572.663 59.8838 549.076C59.6416 542.054 59.7021 535.032 59.7506 528.01C59.7748 526.427 59.0843 524.563 61.4343 522.864Z" fill="#F6F5E9"/>
<path d="M13.5686 780.686C26.8553 780.686 40.2026 780.686 54.6278 780.686C54.3492 833.169 53.5014 884.597 54.325 936.143C39.8998 934.478 26.4677 933.013 13.4839 934.326C9.06304 883.179 14.7193 831.586 13.5686 780.686ZM15.0826 890.06C20.86 890.764 26.6736 890.717 32.7659 890.341C32.7659 883.613 32.7659 877.517 32.7659 870.835C26.601 871.221 20.8479 870.917 15.0826 873.039C15.0826 878.431 15.0826 883.648 15.0826 890.06ZM15.9668 829.617C15.9668 835.08 15.9668 840.25 15.9668 845.923C21.6593 845.654 27.1945 845.408 33.1293 845.126C32.8749 839.382 33.6743 834.013 32.4752 828.527C27.0128 827.507 21.9016 828.515 15.9668 829.617ZM51.0911 824.928C51.0911 818.691 51.0911 812.947 51.0911 807.086C45.883 805.327 40.9898 805.902 35.4547 806.277C35.8665 812.677 36.2662 818.75 36.678 825.127C41.5954 825.033 46.0889 826.147 51.0911 824.928ZM31.7001 802.83C33.0687 795.972 32.0998 789.935 31.4821 783.745C26.0681 783.558 21.3444 782.901 16.4876 784.191C17.4565 790.556 16.1606 796.793 17.7836 802.818C22.483 802.83 26.8432 802.83 31.7001 802.83ZM50.7399 867.775C50.7399 861.445 50.7399 855.536 50.7399 849.534C45.9678 848.667 41.6802 848.268 37.2352 848.608C37.2352 855.396 37.2352 861.667 37.2352 868.009C41.8861 868.572 46.0526 868.912 50.7399 867.775ZM50.0616 894.14C45.4954 893.952 41.2563 892.768 37.2473 894.022C37.2473 900.904 37.2473 907.41 37.2473 913.916C41.7529 913.916 45.6892 913.916 50.0616 913.916C50.0616 907.164 50.0616 900.869 50.0616 894.14ZM32.996 917.574C27.3035 918.5 22.0711 917.879 16.7904 919.66C16.209 923.201 16.209 926.589 16.7177 930.117C21.6957 931.594 26.5646 931.946 31.6395 931.043C32.9234 926.776 33.3715 922.638 32.996 917.574Z" fill="#F6F5E9"/>
<path d="M3.41876 935.615C1.34737 929.835 2.52236 924.724 2.1953 919.871C0.499427 894.35 -0.990506 868.759 1.77135 843.25C3.77005 824.763 4.66644 806.3 4.06078 787.742C3.9881 785.363 3.75795 782.994 3.51568 779.243C7.17392 782.502 6.62881 785.48 6.68938 788.164C7.12546 807.308 6.04737 826.393 4.70278 845.489C2.71619 873.577 3.6368 901.654 6.16849 929.683C6.3502 931.793 6.38654 931.793 3.41876 935.615Z" fill="#F6F5E9"/>
<path d="M61.4343 783.663C64.4142 835.42 64.9109 886.696 62.4276 938.405C58.8178 937.174 59.6173 934.455 59.69 932.122C60.2836 914.96 61.2042 897.809 61.4707 880.647C61.8341 857.048 60.6954 833.462 59.8838 809.876C59.6416 802.854 59.7021 795.831 59.7506 788.809C59.7748 787.227 59.0843 785.363 61.4343 783.663Z" fill="#F6F5E9"/>
<path d="M13.5686 650.073C26.8553 650.073 40.2026 650.073 54.6278 650.073C54.3492 702.556 53.5014 753.985 54.325 805.53C39.8998 803.866 26.4677 802.4 13.4839 803.713C9.06304 752.566 14.7193 700.974 13.5686 650.073ZM15.0826 759.448C20.86 760.151 26.6736 760.104 32.7659 759.729C32.7659 753 32.7659 746.904 32.7659 740.222C26.601 740.609 20.8479 740.304 15.0826 742.426C15.0826 747.819 15.0826 753.035 15.0826 759.448ZM15.9668 699.004C15.9668 704.467 15.9668 709.637 15.9668 715.311C21.6593 715.041 27.1945 714.795 33.1293 714.514C32.8749 708.77 33.6743 703.4 32.4752 697.914C27.0128 696.894 21.9016 697.902 15.9668 699.004ZM51.0911 694.315C51.0911 688.079 51.0911 682.334 51.0911 676.473C45.883 674.715 40.9898 675.289 35.4547 675.664C35.8665 682.065 36.2662 688.137 36.678 694.515C41.5954 694.421 46.0889 695.534 51.0911 694.315ZM31.7001 672.218C33.0687 665.36 32.0998 659.322 31.4821 653.133C26.0681 652.945 21.3444 652.289 16.4876 653.578C17.4565 659.944 16.1606 666.18 17.7836 672.206C22.483 672.218 26.8432 672.218 31.7001 672.218ZM50.7399 737.162C50.7399 730.832 50.7399 724.924 50.7399 718.922C45.9678 718.054 41.6802 717.655 37.2352 717.995C37.2352 724.783 37.2352 731.055 37.2352 737.397C41.8861 737.96 46.0526 738.299 50.7399 737.162ZM50.0616 763.527C45.4954 763.34 41.2563 762.156 37.2473 763.41C37.2473 770.291 37.2473 776.798 37.2473 783.304C41.7529 783.304 45.6892 783.304 50.0616 783.304C50.0616 776.551 50.0616 770.256 50.0616 763.527ZM32.996 786.961C27.3035 787.887 22.0711 787.266 16.7904 789.048C16.209 792.588 16.209 795.976 16.7177 799.505C21.6957 800.982 26.5646 801.334 31.6395 800.431C32.9234 796.164 33.3715 792.026 32.996 786.961Z" fill="#F6F5E9"/>
<path d="M3.41829 662.829C1.3469 668.608 2.52188 673.719 2.19482 678.573C0.498949 704.093 -0.990987 729.684 1.77086 755.193C3.76957 773.68 4.66596 792.144 4.06029 810.701C3.98761 813.081 3.75746 815.449 3.51519 819.2C7.17343 815.941 6.62832 812.964 6.68889 810.279C7.12497 791.136 6.04688 772.051 4.7023 752.954C2.71571 724.866 3.63632 696.79 6.16802 668.761C6.34972 666.65 6.38607 666.65 3.41829 662.829Z" fill="#F6F5E9"/>
<path d="M61.4343 658.224C64.4142 709.981 64.9109 761.257 62.4276 812.966C58.8178 811.735 59.6173 809.016 59.69 806.683C60.2836 789.52 61.2042 772.37 61.4707 755.208C61.8341 731.609 60.6954 708.023 59.8838 684.436C59.6416 677.414 59.7021 670.392 59.7506 663.37C59.7748 661.788 59.0843 659.924 61.4343 658.224Z" fill="#F6F5E9"/>
<path d="M13.5686 910.873C26.8553 910.873 40.2026 910.873 54.6278 910.873C54.3492 963.357 53.5014 1014.79 54.325 1066.33C39.8998 1064.67 26.4677 1063.2 13.4839 1064.51C9.06304 1013.37 14.7193 961.774 13.5686 910.873ZM15.0826 1020.25C20.86 1020.95 26.6736 1020.9 32.7659 1020.53C32.7659 1013.8 32.7659 1007.7 32.7659 1001.02C26.601 1001.41 20.8479 1001.1 15.0826 1003.23C15.0826 1008.62 15.0826 1013.84 15.0826 1020.25ZM15.9668 959.805C15.9668 965.268 15.9668 970.437 15.9668 976.111C21.6593 975.842 27.1945 975.595 33.1293 975.314C32.8749 969.57 33.6743 964.201 32.4752 958.714C27.0128 957.695 21.9016 958.703 15.9668 959.805ZM51.0911 955.115C51.0911 948.879 51.0911 943.135 51.0911 937.273C45.883 935.515 40.9898 936.089 35.4547 936.464C35.8665 942.865 36.2662 948.938 36.678 955.315C41.5954 955.221 46.0889 956.335 51.0911 955.115ZM31.7001 933.018C33.0687 926.16 32.0998 920.123 31.4821 913.933C26.0681 913.745 21.3444 913.089 16.4876 914.378C17.4565 920.744 16.1606 926.981 17.7836 933.006C22.483 933.018 26.8432 933.018 31.7001 933.018ZM50.7399 997.963C50.7399 991.632 50.7399 985.724 50.7399 979.722C45.9678 978.854 41.6802 978.456 37.2352 978.796C37.2352 985.583 37.2352 991.855 37.2352 998.197C41.8861 998.76 46.0526 999.1 50.7399 997.963ZM50.0616 1024.33C45.4954 1024.14 41.2563 1022.96 37.2473 1024.21C37.2473 1031.09 37.2473 1037.6 37.2473 1044.1C41.7529 1044.1 45.6892 1044.1 50.0616 1044.1C50.0616 1037.35 50.0616 1031.06 50.0616 1024.33ZM32.996 1047.76C27.3035 1048.69 22.0711 1048.07 16.7904 1049.85C16.209 1053.39 16.209 1056.78 16.7177 1060.31C21.6957 1061.78 26.5646 1062.13 31.6395 1061.23C32.9234 1056.96 33.3715 1052.83 32.996 1047.76Z" fill="#F6F5E9"/>
<path d="M3.41829 923.629C1.3469 929.408 2.52188 934.519 2.19482 939.372C0.498949 964.893 -0.990987 990.484 1.77086 1015.99C3.76957 1034.48 4.66596 1052.94 4.06029 1071.5C3.98761 1073.88 3.75746 1076.25 3.51519 1080C7.17343 1076.74 6.62832 1073.76 6.68889 1071.08C7.12497 1051.94 6.04688 1032.85 4.7023 1013.75C2.71571 985.666 3.63632 957.59 6.16802 929.56C6.34972 927.45 6.38607 927.45 3.41829 923.629Z" fill="#F6F5E9"/>
<path d="M61.4343 919.024C64.4142 970.781 64.9109 1022.06 62.4276 1073.77C58.8178 1072.54 59.6173 1069.82 59.69 1067.48C60.2836 1050.32 61.2042 1033.17 61.4707 1016.01C61.8341 992.41 60.6954 968.823 59.8838 945.237C59.6416 938.215 59.7021 931.193 59.7506 924.171C59.7748 922.588 59.0843 920.724 61.4343 919.024Z" fill="#F6F5E9"/>
</svg>
