<svg width="880" height="218" viewBox="0 0 880 218" fill="none" xmlns="http://www.w3.org/2000/svg">
<path d="M492.587 53.902C518.477 53.902 544.367 53.902 570.257 53.902C571.436 53.902 572.627 53.8453 573.806 53.8793C576.675 53.9473 577.344 52.8937 575.848 50.3448C572.434 44.5219 570.098 38.3138 568.987 31.6073C567.354 21.7627 570.393 14.0593 578.83 8.56489C593.414 -0.939802 608.95 -2.37853 625.166 3.47835C636.439 7.54532 640.929 19.0665 636.711 31.9698C634.567 38.5404 630.995 44.3293 627.083 49.9483C624.951 53.007 625.325 53.7434 628.965 53.834C632.9 53.9473 636.847 53.8793 640.793 53.8793C700.194 53.8906 759.594 53.9359 818.994 53.902C832.478 53.902 845.383 56.2696 857.426 62.557C861.985 64.936 866.283 67.7002 870.105 71.1667C879.268 79.4593 881.706 89.587 877.34 101.176C874.63 108.393 870.502 114.793 865.557 120.627C831.423 160.855 790.78 192.111 741.234 211.437C717.317 220.772 694.433 220.172 671.015 209.489C653.71 201.593 636.643 193.062 618.77 186.401C608.156 182.448 597.281 179.457 586.145 177.44C579.057 176.16 572.332 178.381 565.562 179.887C549.799 183.399 534.07 187.104 518.307 190.638C516.152 191.125 513.884 191.171 511.662 191.318C510.8 191.375 509.575 191.476 509.394 190.31C509.212 189.143 510.391 188.905 511.242 188.656C516.787 187.013 522.321 185.348 527.89 183.818C546.113 178.811 564.224 173.419 582.81 169.703C599.481 166.372 615.221 168.989 630.7 174.801C646.123 180.578 660.185 189.211 674.996 196.291C679.974 198.67 684.941 201.072 689.851 203.587C704.129 210.905 718.633 210.735 733.33 205.059C779.87 187.104 817.384 156.992 849.035 119.064C854.705 112.278 859.218 104.733 861.804 96.1576C864.061 88.6921 862.496 82.0195 857.132 76.5138C848.649 67.8248 838.749 62.8855 826.025 64.8567C818.654 66.0009 811.113 66.1368 803.651 66.6466C798.457 67.0091 797.935 67.315 797.743 72.3336C797.108 88.7261 796.631 105.119 795.962 121.511C795.747 126.722 796.892 131.288 800.249 135.423C802.948 138.753 802.165 140.645 798.094 141.97C789.067 144.916 780.313 138.674 779.224 128.501C778.192 118.928 779.065 109.355 779.473 99.7828C779.859 90.6066 780.539 81.4531 781.072 72.2769C781.186 70.3851 781.333 68.4139 778.634 68.2213C775.958 68.0287 774.881 69.4108 774.801 72.0051C774.495 81.5777 774.087 91.1504 773.735 100.723C773.486 107.543 773.248 114.363 773.021 121.182C772.839 126.575 773.849 131.514 777.466 135.853C779.995 138.9 779.281 140.52 775.459 141.823C768.179 144.316 760.116 140.52 757.428 133.293C755.557 128.263 755.682 122.984 755.636 117.739C755.625 116.617 756.101 115.076 754.944 114.476C753.697 113.842 752.846 115.246 752.03 115.994C745.645 121.84 738.036 125.714 730.381 129.498C729.916 129.736 729.429 129.951 728.93 130.121C726.56 130.891 724.337 130.483 722.942 128.421C721.457 126.224 723.328 124.728 724.768 123.46C732.786 116.458 740.837 109.514 748.911 102.592C754.185 98.0722 754.219 98.1061 749.717 92.9969C749.025 92.2039 748.299 91.4449 747.551 90.7086C740.179 83.3903 738.399 83.345 730.461 90.0628C729.576 90.8105 728.612 91.6035 727.546 92C725.879 92.6231 724.122 92.5098 722.795 91.1051C721.547 89.7683 721.876 88.2389 722.5 86.6869C726.412 76.9783 737.231 72.5148 747.006 76.6158C749.83 77.794 752.268 79.5725 754.604 81.4871C756.453 82.9938 757.666 82.9371 757.836 80.207C757.848 79.9464 757.893 79.6858 757.893 79.4253C758.029 64.5508 759.707 66.8732 746.099 66.6806C737.56 66.556 729.009 66.7826 720.47 66.6126C716.841 66.5447 715.684 68.0627 715.582 71.5179C715.117 88.3069 714.482 105.096 713.893 121.874C713.711 127.073 715.265 131.627 718.451 135.762C720.878 138.912 720.255 140.441 716.456 141.801C708.653 144.599 699.808 140.022 698.028 131.854C695.794 121.602 697.03 111.202 697.574 100.87C698.096 90.7879 698.799 80.7054 699.4 70.623C699.525 68.5725 698.969 66.9638 696.519 66.7712C693.968 66.5673 692.845 68.0061 692.743 70.2718C692.55 75.1204 692.539 79.9804 692.403 84.8403C692.074 96.6448 691.688 108.449 691.382 120.265C691.235 125.827 691.484 131.22 695.487 135.819C698.039 138.753 697.268 140.509 693.571 141.823C686.007 144.508 677.207 140.215 675.188 132.205C674.032 127.617 672.024 126.065 667.364 126.348C650.693 127.391 642.687 115.892 635.259 103.691C634.647 102.683 634.182 101.584 633.694 100.519C630.519 93.654 630.825 92.7704 637.527 89.5191C645.499 85.656 647.949 75.4943 642.676 68.3799C641.803 67.2017 640.634 66.7486 639.285 66.7373C635.339 66.6919 631.404 66.7033 627.457 66.7033C625.2 66.7033 623.987 67.8814 623.953 70.0679C623.669 89.3491 621.968 108.608 622.796 127.912C622.932 131.129 624.078 133.633 626.561 135.785C629.272 138.13 628.75 140.181 625.416 141.631C616.627 145.448 606.489 139.252 605.752 129.169C604.89 117.376 605.355 105.549 606.092 93.756C606.546 86.4264 607.079 79.0968 607.476 71.7672C607.6 69.3995 607.77 66.8166 604.176 66.7259C600.569 66.6353 600.275 69.003 600.206 71.7105C599.787 88.1143 599.311 104.507 598.891 120.911C598.755 126.235 599.322 131.288 603.019 135.683C605.672 138.844 604.709 140.872 600.592 142.095C591.531 144.791 582.879 138.504 582.039 128.591C581.075 117.308 582.017 106.036 582.516 94.7755C582.867 87.0494 583.593 79.3347 584.092 71.6086C584.205 69.796 584.489 67.4849 582.164 67.0091C579.25 66.4087 576.165 66.0689 573.307 67.4056C572.536 67.7682 572.865 68.833 573.126 69.5807C578.376 84.9197 571.629 96.9053 562.228 108.087C558.395 112.641 558.315 112.675 562.33 117.15C567.841 123.278 572.604 130.177 580.146 134.21C581.348 134.856 582.164 136.012 581.722 137.507C581.245 139.15 579.998 140.135 578.41 140.588C574.657 141.653 571.402 140.418 568.465 138.164C563.441 134.301 558.894 129.894 555.265 124.706C551.579 119.427 547.1 115.892 540.409 115.756C538.765 115.722 537.313 114.974 536.327 113.649C533.299 109.548 531.507 104.858 530.997 99.8507C530.657 96.5201 533.208 95.0134 536.179 94.4697C541.6 93.4727 545.716 95.9084 548.869 99.9414C551.16 102.875 552.611 102.264 554.437 99.5902C558.44 93.7106 562.443 87.8198 563.827 80.6828C565.29 73.1492 560.391 66.7712 553.587 67.0771C549.912 67.247 548.381 68.8557 548.438 72.5488C548.506 77.1822 550.321 80.898 554.188 83.6055C555.639 84.6251 557.59 85.7353 556.592 87.9784C555.685 89.9949 553.689 90.448 551.602 90.4707C545.728 90.5273 539.332 84.5911 537.948 77.6807C537.461 75.2337 537.109 72.7527 537.54 70.2491C537.982 67.6549 536.803 66.624 534.285 66.6806C531.269 66.7486 528.241 66.7826 525.225 66.658C521.346 66.488 519.827 68.3119 519.759 72.0844C519.554 83.9001 519.226 95.7045 518.84 107.509C518.613 114.589 517.785 121.636 518.772 128.739C519.158 131.503 520.019 133.689 522.095 135.592C525.054 138.3 524.499 140.396 520.666 141.857C512.217 145.097 502.941 139.002 501.557 129.724C499.89 118.543 501.603 107.452 501.864 96.3275C502.056 88.069 502.68 79.8105 503.27 71.5632C503.519 68.04 502.306 66.5447 498.643 66.556C488.391 66.5787 478.151 66.3181 467.899 66.2728C462.808 66.2501 462.229 66.8959 462.218 71.9258C462.207 75.0751 462.218 78.2244 462.252 81.3738C462.263 82.1328 462.048 83.1071 462.808 83.5376C463.874 84.1493 464.497 83.1071 465.098 82.518C467.854 79.8104 471.007 77.7147 474.534 76.1853C481.587 73.1379 485.908 75.4376 487.745 82.8012C489.888 91.3656 489.412 99.9867 488.913 108.642C488.777 111.021 488.72 113.377 489.764 115.597C490.954 118.135 489.684 119.551 487.53 120.582C482.245 123.108 475.872 120.061 474.488 114.351C473.921 112.018 474.114 109.65 474.239 107.294C474.432 103.623 474.704 99.9527 474.817 96.2822C474.874 94.6169 475.656 92.3286 474.227 91.4223C472.402 90.2667 471.097 92.6797 469.498 93.3821C462.615 96.4069 460.528 101.811 460.982 109.027C461.345 114.771 460.732 120.559 460.687 126.326C460.653 129.996 461.719 133.213 464.713 135.751C467.366 137.994 466.777 140.215 463.477 141.642C456.639 144.599 447.895 140.781 444.867 133.542C443.087 129.294 443.246 124.819 443.11 120.356C442.996 116.651 442.316 116.209 439.299 118.407C434.48 121.896 429.433 123.879 423.457 122.009C418.91 120.593 416.71 117.92 416.392 113.162C415.689 102.672 416.596 92.4532 421.643 82.9371C425.963 74.8032 433.879 71.8125 442.214 75.6982C445.446 77.2049 445.627 76.0947 445.639 73.3645C445.661 66.658 445.366 66.3068 438.574 66.2388C430.295 66.1595 422.017 66.0349 413.738 65.9896C411.198 65.9782 408.726 65.6384 406.413 64.6868C402.137 62.9082 401.718 58.8639 405.449 56.1337C407.944 54.3098 410.847 54.2758 413.75 54.2758C440.036 54.2758 466.312 54.2758 492.599 54.2758C492.587 54.1512 492.587 54.0266 492.587 53.902ZM602.554 53.9926C606.829 53.7887 611.388 54.6836 613.452 50.7979C617.943 42.3581 622.036 33.6464 624.078 24.221C625.223 18.9192 622.864 14.3878 618.135 12.7338C607.385 8.97272 597.201 10.3435 587.8 16.8008C583.321 19.8822 581.688 24.2437 582.844 29.5001C584.081 35.1418 585.748 40.6701 588.481 45.802C591.576 51.6476 595.988 55.2274 602.554 53.9926ZM667.125 66.6693C665.152 66.6693 663.19 66.7146 661.217 66.658C658.541 66.5787 657.634 67.7455 658.405 70.3058C661.637 80.9546 659.357 89.689 649.491 95.7725C648.074 96.6448 647.609 97.9136 648.437 99.4769C651.884 106.025 656.273 111.655 663.655 114.045C670.788 116.357 673.839 114.181 674.236 106.795C674.78 96.4522 675.347 86.1205 675.925 75.7888C676.424 66.6353 676.447 66.6353 667.125 66.6693ZM430.839 105.526C430.839 106.965 430.749 108.415 430.862 109.854C431.055 112.346 432.2 113.003 434.548 111.825C442.622 107.769 445.548 99.8507 441.828 91.7961C441 90.0062 440.195 88.2163 439.243 86.4943C438.653 85.4408 438.585 83.5262 436.929 83.7641C435.591 83.9567 435.16 85.588 434.673 86.7889C432.257 92.7817 430.896 99.0351 430.839 105.526Z" fill="#F6F5E9"/>
<path d="M306.074 88.7948C311.053 97.5632 316.507 105.006 322.223 112.268C327.973 119.575 334.357 126.259 341.728 131.991C333.903 128.377 328.109 122.203 321.418 116.867C323.663 119.948 325.92 123.019 328.381 126.383C320.613 124.48 312.232 113.253 312.845 105.958C312.935 104.87 312.402 104.224 311.892 103.499C309.08 99.5457 306.245 95.6147 303.194 91.7516C304.702 97.3593 308.308 102.185 309.828 108.405C307.401 107.419 306.664 105.516 305.598 104.054C302.65 100.033 299.803 95.9432 297.002 91.8196C295.154 89.0894 294.292 85.8947 295.233 82.802C296.345 79.1542 294.507 76.8658 292.149 73.4219C292.489 78.0553 294.054 81.6352 293.135 85.2603C291.944 85.7021 291.536 84.8978 291.128 84.2747C285.866 76.4127 282.294 67.8483 281.115 58.4455C280.752 55.5567 281.738 52.43 277.951 50.3116C278.189 52.9965 278.892 55.4548 277.52 57.6865C276.306 59.6577 275.059 60.428 273.403 58.1057C266.406 48.2724 259.024 38.6431 254.975 27.088C254.023 24.3578 251.925 23.4175 249.078 21.9674C250.054 24.6183 250.881 26.6122 251.494 28.6626C251.777 29.6256 252.061 31.0303 251.154 31.6307C250.122 32.3105 249.237 31.1663 248.489 30.4979C241.809 24.573 234.892 18.9654 227.033 14.0148C228.859 13.3804 230.276 14.3886 231.739 13.9695C219.231 9.472 206.337 8.46376 193.103 9.7892C195.382 8.21453 195.79 8.1239 199.759 7.7274C222.281 5.50699 242.524 12.2135 261.745 23.2816C278.461 32.8995 290.64 47.0036 301.663 62.3652C311.858 76.56 322.609 90.3129 335.185 102.525C341.626 108.767 348.589 114.318 356.765 118.193C363.796 121.523 371.066 123.358 378.913 121.908C379.741 121.761 380.693 121.297 381.487 122.124C374.422 132.501 358.398 136.873 346.831 131.617C339.642 128.343 333.756 123.381 328.54 117.558C321.509 109.719 315.351 101.222 309.545 92.4653C308.762 91.2985 308.252 89.905 306.074 88.7948Z" fill="#F6F5E9"/>
<path d="M69.2664 93.179C72.8499 98.4582 76.4334 103.749 80.0169 109.028C78.7242 102.944 75.2314 97.7784 73.9839 91.6837C79.2231 97.9937 84.9386 103.93 87.8644 111.758C88.3861 113.163 88.7036 115.077 88.1706 116.369C86.2654 121.013 89.2253 123.97 91.4593 127.267C91.0397 122.973 89.2933 118.804 90.2005 114.318C92.1964 114.488 92.582 116.085 93.2737 117.207C97.6397 124.31 101.813 131.866 101.768 140.193C101.722 149.686 108.368 154.433 113.335 160.55C118.098 165.478 123.155 170.066 128.723 174.077C130.186 175.81 132.125 176.875 134.813 178.438C133.77 175.209 131.831 173.114 131.661 170.429C131.604 169.545 131.298 168.435 132.239 167.936C133.01 167.529 133.702 168.288 134.28 168.797C141.073 174.745 147.945 180.59 155.452 185.938C154.001 185.7 152.561 185.45 151.12 185.213C156.087 188.883 172.066 190.809 190.233 189.812C188.645 191.205 187.126 191.183 185.742 191.364C165.194 194.117 146.176 189.302 127.941 180.035C110.806 171.335 97.1067 158.862 85.8458 143.467C74.4489 127.901 63.0859 112.302 49.2735 98.7074C47.1188 96.5889 44.9642 94.4592 42.6621 92.5333C30.6868 82.4848 17.9176 74.5775 0.555664 78.1347C1.99588 75.3931 4.02579 74.2376 5.87425 72.9235C20.2877 62.6145 29.8249 61.7875 46.1436 74.3736C56.9735 82.7227 64.4241 94.1759 72.0674 105.346C73.9159 108.042 75.6963 110.772 77.8623 114.012C76.0819 106.422 59.5364 85.4982 41.3239 67.5651C44.8621 68.9358 46.892 70.6578 48.9219 72.3004C54.456 76.7752 59.2983 81.9411 64.0045 87.2542C65.2973 88.7156 66.8169 89.973 68.2344 91.2985C68.5633 91.9102 68.9148 92.5446 69.2664 93.179Z" fill="#F6F5E9"/>
<path d="M131.74 119.79C128.667 120.673 126.342 119.529 124.573 117.071C117.916 107.872 116.079 97.5517 117.587 86.5063C118.063 83.0398 120.524 80.8987 123.439 79.1314C120.558 78.9275 119.413 81.2612 117.122 83.1191C117.553 79.9471 118.846 78.1458 120.966 76.7864C121.647 76.3446 122.883 75.9481 121.896 74.7246C121.318 74.0109 120.898 74.3168 120.037 74.668C117.133 75.8688 117.825 73.1273 118.041 72.085C118.744 68.7091 119.855 65.4238 120.978 61.4815C123.132 73.5578 123.132 73.5578 126.013 75.1211C126.512 74.5433 126.024 74.2148 125.707 73.8183C125.469 73.5238 125.276 73.1952 124.788 72.4815C127.011 72.3343 129.245 72.5835 130.402 70.4424C131.343 68.6978 130.617 67.1571 129.88 65.6051C129.528 65.3105 129.177 65.0047 128.825 64.6988C126.75 61.8666 124.902 62.1045 123.325 65.707C121.613 61.742 122.509 58.6946 124.8 56.1117C125.956 54.8089 126.296 53.6308 126.285 51.9428C126.285 47.8645 128.678 44.5792 130.81 41.4299C134.881 35.403 139.054 29.3762 144.86 24.7995C145.722 24.1198 146.584 22.7717 147.877 23.7006C148.875 24.4256 147.843 25.7851 148.115 26.6007C149.691 31.3361 145.008 31.3361 143.295 33.6811C146.743 32.7521 149.873 31.4494 151.007 27.507C152.209 23.3607 158.14 19.509 162.29 20.1094C163.969 20.3473 164.445 21.027 163.266 22.3865C162.665 23.0775 161.95 23.6666 161.27 24.2784C155.929 29.025 151.007 34.2362 147.117 40.1837C144.804 43.7182 143.5 47.9778 142.082 52.0221C141.481 53.7327 140.903 55.398 140.154 57.0746C138.544 60.6545 138.306 64.1777 141.662 67.3837C144.089 69.706 146.255 72.6175 143.171 76.6505C142.865 69.3209 136.968 65.8883 133.77 60.7111C133.305 63.1581 132.035 65.707 135.323 67.0098C134.609 69.706 133.429 72.221 131.468 75.4156C136.106 73.2632 135.221 69.9553 135.323 67.0325C135.21 66.5567 135.561 66.1035 135.856 66.3981C137.659 68.1993 138.226 70.499 137.773 72.912C137.319 75.325 135.584 76.6731 133.18 77.2169C132.295 77.4208 130.617 77.0356 130.957 78.565C131.207 79.6639 131.921 81.2612 133.486 81.2046C135.051 81.1479 134.28 79.8791 134.529 79.0295C135.142 76.945 138.17 76.3333 138.884 73.8976C139.882 74.3734 139.723 75.1438 139.553 75.6535C138.612 78.4291 139.428 79.29 142.229 78.3611C145.541 77.2622 146.471 79.9924 147.673 81.9862C149.521 85.045 150.882 85.2942 153.411 82.6999C154.137 81.9523 154.783 81.1026 155.328 80.2076C156.892 77.6587 157.108 75.4949 153.513 74.532C152.254 74.1922 150.701 73.9769 151.993 71.9944C152.946 70.5444 154.931 68.7431 152.685 67.3157C150.213 65.741 149.521 68.6072 148.376 70.0232C148.07 70.3971 147.843 70.8389 147.208 71.8585C146.686 68.3013 147.571 65.8317 149.725 64.0757C151.891 62.3085 153.536 64.5742 155.35 65.5031C156.178 64.3023 154.999 62.8069 156.042 61.7647C162.506 64.325 167.291 62.4897 165.443 56.3836C168.63 58.1056 168.89 59.1704 167.246 63.6113L167.326 63.5206C165.432 64.914 163.538 66.3188 161.485 67.8368C163.379 70.1139 165.522 71.1108 168.46 68.947C167.382 73.7957 165.556 74.8945 161.928 73.2745C160.816 72.7761 159.557 72.2097 158.628 73.2066C157.72 74.1808 159.149 74.7246 159.569 75.427C160.544 77.047 160.669 78.7689 159.728 80.2869C157.255 84.252 154.284 87.7865 149.317 88.5455C147.525 88.8174 146.766 89.2819 146.902 91.1851C147.072 93.3715 146.936 95.5919 146.936 97.8236C148.807 97.9029 149.419 96.4302 150.576 95.9317C152.912 94.9235 155.43 94.3231 157.811 93.6094C161.111 92.6238 164.944 96.4755 165.885 100.724C166.021 101.358 165.987 102.027 166.089 102.672C166.35 104.462 167.178 106.728 165.624 107.827C164.252 108.79 162.483 107.124 160.986 106.433C156.949 104.587 156.995 104.53 156.892 109.039C156.858 110.602 157.085 112.483 155.645 113.389C153.876 114.499 152.855 112.438 151.642 111.667C149.17 110.115 146.845 108.121 146.301 105.142C145.711 101.902 144.418 102.106 142.286 103.658C141.799 104.009 141.118 104.088 140.211 104.145C144.94 100.916 143.931 96.7587 142.4 92.5898C141.526 90.2108 141.061 87.7978 141.095 85.2715C141.129 83.3797 140.222 83.0964 138.578 83.5609C134.915 84.5918 134.178 85.9626 135.55 89.2479C135.992 90.3128 136.128 91.4796 134.439 91.389C133.237 91.321 132.08 91.2304 130.98 91.7855C130.05 92.2499 129.12 92.7257 127.907 93.3262C127.669 91.7288 128.78 90.8679 129.29 89.7916C129.823 88.6588 131.195 87.288 129.88 86.3024C128.655 85.3848 127.533 86.9368 126.569 87.7298C123.994 89.8483 122.611 92.6578 122.407 95.9317C121.998 102.502 123.87 108.654 126.319 114.635C126.875 115.995 127.839 117.162 129.438 117.365C130.912 117.558 131.933 116.81 132.568 115.485C133.157 114.25 132.432 113.888 131.434 113.548C130.073 113.072 129.767 111.973 130.061 110.682C130.209 110.013 130.606 109.481 131.377 109.413C132.749 109.299 133.645 110.149 134.257 111.157C136.571 114.998 134.201 117.558 131.66 120.028C131.615 120.005 131.74 119.79 131.74 119.79Z" fill="#F6F5E9"/>
<path d="M249.6 156.086C245.925 156.528 243.862 153.945 241.367 152.076C239.824 158.239 241.514 160.731 246.436 160.085C244.803 174.405 209.002 194.83 186.298 194.083C201.415 190.231 214.989 182.822 229.743 175.923C225.161 175.458 225.003 172.66 226.545 170.791C228.87 167.993 230.435 164.809 232.567 161.139C233.44 164.696 233.111 167.879 234.937 170.485C234.177 165.455 233.315 160.493 236.071 155.305C236.547 156.483 236.865 157.253 237.307 158.363C237.636 157.706 237.919 157.389 237.931 157.072C238.089 153.719 239.847 150.615 239.53 147.171C239.496 146.74 239.836 146.049 240.199 145.868C240.992 145.472 241.367 146.219 241.616 146.797C243.238 150.728 245.733 153.934 249.6 156.086Z" fill="#F6F5E9"/>
<path d="M221.737 100.938C221.725 96.3276 219.956 92.5778 216.407 89.6097C214.218 87.7858 213.901 86.4151 217.201 85.3502C219.48 84.6138 222.678 82.9259 223.687 84.9084C225.173 87.8085 227.532 87.5479 229.607 88.6128C232.124 89.9043 231.875 92.5212 231.648 94.9002C231.523 96.1803 232.113 98.1175 229.561 97.653C228.518 97.4604 228.541 98.1741 228.745 98.8539C228.96 99.5676 229.119 100.655 229.981 100.587C233.02 100.338 235.549 102.298 238.475 102.366L238.373 102.298C242.002 103.657 243.34 107.169 245.54 109.877C246.118 110.59 246.277 111.134 245.529 111.882C243.873 113.547 239.779 113.502 237.806 112.324C236.865 111.757 236.853 107.203 234.2 111.043C233.973 111.372 232.816 110.454 232.499 109.718C231.841 108.166 231.285 106.569 230.333 104.065C230.922 108.812 231.841 112.482 233.043 116.119C233.315 116.946 234.154 117.977 233.247 118.634C232.192 119.393 231.263 118.328 230.537 117.671C226.806 114.283 225.15 109.684 223.449 105.141C222.905 103.691 222.814 102.049 221.646 100.859L221.737 100.938Z" fill="#F6F5E9"/>
<path d="M128.735 174.088C123.167 170.078 118.098 165.49 113.346 160.562C111.543 157.548 109.615 154.591 107.96 151.487C106.384 148.531 105.794 145.291 106.678 141.983C107.245 139.864 108.379 138.89 110.08 141.167C117.157 150.581 124.154 160.052 129.041 170.859C129.484 171.822 130.856 173.227 128.735 174.088Z" fill="#F6F5E9"/>
<path d="M204.43 72.1419C208.218 72.0626 209.012 74.4416 208.105 77.353C207.424 79.5281 208.014 80.627 209.556 82.0204C213.185 85.3057 213.469 87.0843 212.698 96.4757C210.543 95.2749 209.057 93.5303 208.808 91.3099C208.547 89.0102 207.164 88.3758 205.565 87.107C198.42 81.4313 191.571 75.3365 188.191 66.4776C187.205 63.8947 189.155 61.3684 191.65 61.7309C193.034 61.9348 194.712 62.2407 193.226 64.4837C191.367 67.2706 192.716 69.7969 194.338 73.388C194.338 70.5445 194.224 68.8792 194.383 67.2366C194.485 66.1717 195.097 65.2314 196.424 65.2428C197.524 65.2541 198.488 65.6619 199.225 66.4889C200.144 67.5311 199.203 68.0749 198.59 68.7546C197.275 70.2273 197.762 71.6434 198.851 72.9915C199.906 74.317 201.391 75.2799 202.072 76.9225C202.627 78.2707 203.603 78.2027 204.589 77.421C205.406 76.7753 206.415 76.1295 204.986 75.008C204 74.2263 204.431 73.0822 204.51 72.0626L204.43 72.1419Z" fill="#F6F5E9"/>
<path d="M255.507 91.8534C259.102 95.354 260.883 99.251 258.32 104.168C258.036 104.723 257.435 105.595 258.127 105.912C261.404 107.396 260.1 110.75 261.2 113.095C261.506 113.752 261.983 114.647 260.781 115.009C259.726 115.326 259.17 114.884 258.717 113.831C257.242 110.398 255.031 109.719 252.763 112.675C248.624 118.079 242.625 115.757 237.544 117.161C237.034 117.297 236.456 117.037 236.467 116.38C236.478 115.609 237.068 115.145 237.76 115.156C240.3 115.202 242.602 113.956 245.074 113.82C247.762 113.661 249.304 112.143 249.724 109.843C250.132 107.691 247.717 107.895 246.503 107.192C242.783 105.04 240.901 100.225 243.033 96.3282C244.303 93.9945 244.507 91.9327 243.997 89.5537L244.042 89.5877C247.546 92.0573 251.901 90.4034 255.587 91.9667L255.507 91.8534ZM250.472 94.7535C251.969 97.1439 253.398 99.5795 255.008 101.891C255.53 102.638 256.358 104.462 257.571 102.593C258.989 100.418 258.535 98.0955 257.242 95.977C256.052 94.0172 254.441 92.5105 251.958 92.5784C250.778 92.6124 250.586 93.564 250.62 94.5609C247.41 92.3519 245.494 94.0398 244.178 96.8607C242.715 99.9987 243.94 103.998 246.843 105.81C248.386 106.773 250.506 107.895 251.663 105.946C252.752 104.122 250.812 103.159 249.236 102.321C246.787 101.03 246.787 97.5177 249.429 96.8267C251.334 96.3169 250.495 95.6145 250.472 94.7535Z" fill="#F6F5E9"/>
<path d="M185.845 43.9446C189.927 48.1702 184.098 50.0281 183.543 53.1661C183.407 53.9138 182.341 54.8654 181.116 54.8654C179.846 53.7552 181.456 52.7356 181.218 51.6481C180.197 51.5235 179.766 52.1805 179.585 52.9622C178.678 56.7233 176.977 59.2609 172.497 57.8901C171.647 57.6296 170.819 57.9241 170.66 58.8417C170.377 60.4277 171.613 61.1075 172.735 61.7872L172.656 61.6739C172.939 64.1209 172.01 65.7748 169.458 66.1147C167.485 66.3866 166.906 65.2877 167.303 63.4978C167.303 63.4978 167.224 63.5884 167.224 63.5771C168.381 63.4978 169.537 63.4185 170.694 63.3392C170.331 58.6605 165.84 53.6193 171.93 49.2577C171.851 48.544 167.814 49.7675 170.705 47.3999C172.917 45.5873 175.06 43.5708 177.941 42.7551C181.218 42.8344 184.268 43.4235 186.128 46.6748C187.013 45.372 186.332 44.681 185.845 43.9446Z" fill="#F6F5E9"/>
<path d="M239.711 119.801C246.606 120.085 253.524 120.425 260.441 119.779C263.106 119.53 262.777 121.104 261.689 122.316C259.636 124.616 258.06 126.633 261.224 129.261C261.904 129.827 261.859 131.017 260.872 131.64C260.078 132.138 259.069 131.787 258.797 131.13C256.824 126.361 252.526 128.162 249.089 127.641C246.765 127.29 244.372 127.414 242.047 127.074C239.507 126.712 237.715 125.341 237.296 122.588C237.023 120.674 237.375 119.394 239.711 119.801Z" fill="#F6F5E9"/>
<path d="M146.789 136C142.48 136.691 138.737 135.864 136.174 131.978C134.882 130.007 135.131 128.919 137.796 128.829C141.402 128.704 144.997 128.648 148.615 128.806C151.869 128.953 152.72 129.826 151.019 132.681C150.622 133.349 150.202 134.006 149.805 134.663C148.796 135.105 147.787 135.558 146.789 136Z" fill="#F6F5E9"/>
<path d="M131.74 119.79L131.615 120.006C131.74 119.96 131.853 119.858 131.978 119.87C133.294 119.938 134.552 117.604 135.664 119.281C136.684 120.821 135.074 122.067 133.35 123.585C137.081 123.835 136.843 121.58 137.093 119.666C137.558 116.063 140.869 113.594 143.931 114.557C144.543 114.749 145.144 115.078 145.065 116.233C140.098 115.893 139.213 119.043 139.213 123.166C139.213 125.919 134.643 129.17 131.933 128.627C131.695 128.581 131.264 128.344 131.275 128.276C132.148 124.163 126.58 124.605 126.195 121.059C128.1 120.663 130.198 121.206 131.74 119.79Z" fill="#F6F5E9"/>
<path d="M236.082 83.9566C233.814 82.5405 234.199 80.3088 233.474 78.6208C232.43 76.2305 231.387 73.8401 230.434 71.4158C229.187 68.2438 229.108 65.0378 232.101 62.9194C235.061 60.8236 237.681 62.7268 240.198 64.3921C239.972 64.8226 239.903 65.1624 239.733 65.2304C233.167 67.8586 233.258 67.8247 235.288 74.6218C236.15 77.4993 236.932 80.5127 236.082 83.9566Z" fill="#F6F5E9"/>
<path d="M244.042 89.5763L243.997 89.5423C242.976 89.4063 241.922 89.3724 240.935 89.0891C239.892 88.7946 237.987 90.4939 237.919 88.1375C237.873 86.6308 239.676 86.8801 240.697 86.5742C246.617 84.7843 252.616 86.6762 258.581 86.4383C260.304 86.3703 262.119 92.1025 261.019 93.462C260.395 94.2323 259.647 94.0851 258.921 93.7225C257.764 93.1335 256.641 92.4764 255.507 91.842L255.587 91.9553C253.477 89.0778 250.268 88.3188 247.07 87.4918C245.165 86.9934 244.405 87.945 244.042 89.5763Z" fill="#F6F5E9"/>
<path d="M253.716 140.283C250.631 138.606 247.535 136.963 244.474 135.253C243.68 134.811 242.773 134.131 243.294 133.078C243.895 131.854 244.95 132.602 245.664 132.987C249.611 135.083 253.693 136.839 257.946 138.221C260.18 138.946 259.794 140.079 258.207 141.212C255.145 143.387 245.211 142.209 242.897 139.433C242.444 138.878 242.149 138.266 242.557 137.666C243.124 136.85 243.907 137.145 244.655 137.507C246.073 138.187 247.467 138.923 248.942 139.49C250.393 140.045 251.913 140.419 253.398 140.872C253.5 140.657 253.614 140.475 253.716 140.283Z" fill="#F6F5E9"/>
<path d="M69.2669 93.1788C68.9153 92.5444 68.5638 91.91 68.2122 91.2869C63.8122 85.396 59.3895 79.4938 54.9781 73.5803C55.2503 73.3651 55.5111 73.1498 55.7833 72.9346C62.304 77.4207 68.3483 82.36 70.8092 90.4373C71.138 91.5135 72.136 93.6206 69.2669 93.1788Z" fill="#F6F5E9"/>
<path d="M168.846 118.94C169.232 118.974 169.685 118.906 170.003 119.075C173.053 120.763 175.99 122.134 178.179 117.818C178.474 117.229 179.585 117.127 180.322 117.659C181.173 118.26 181.23 119.189 181.162 120.118C180.889 123.777 175.741 126.915 172.021 125.544C170.184 124.876 168.54 123.72 167.202 122.259C166.589 121.59 165.92 120.797 166.419 119.823C166.895 118.86 167.939 118.985 168.846 118.94Z" fill="#F6F5E9"/>
<path d="M177.907 42.879C180.56 39.5257 184.019 37.2487 187.898 35.606C189.361 34.983 191.005 34.779 192.32 36.0252C193.727 37.362 193.069 38.9253 192.524 40.398C192.207 41.2477 191.833 42.0973 191.413 42.9016C190.279 45.0654 189.032 45.8811 187.886 42.9356C187.501 41.95 186.956 41.0777 185.97 41.6442C184.983 42.2106 185.766 43.2755 185.981 44.1138C183.679 41.0211 180.731 42.3465 177.907 42.879Z" fill="#F6F5E9"/>
<path d="M146.789 136C147.798 135.547 148.807 135.106 149.794 134.664C150.61 133.859 151.415 133.01 152.3 132.251C153.185 131.492 153.219 129.237 154.942 130.098C156.677 130.959 157.868 132.659 158.14 134.732C158.378 136.556 157.403 137.79 155.759 138.278C152.708 139.195 149.59 138.957 146.505 138.413C145.791 138.289 144.679 138.153 144.94 137.179C145.065 136.658 146.131 136.386 146.789 136Z" fill="#F6F5E9"/>
<path d="M242.399 75.5176C243.895 76.6051 245.653 75.8914 247.264 76.152C248.137 76.2992 249.396 76.084 249.452 77.2848C249.52 78.7915 248.103 78.5423 247.127 78.6782C246.617 78.7575 246.084 78.7122 245.562 78.7236C237.749 78.8708 237.749 78.8708 240.89 72.0737C241.31 71.1561 242.126 70.2271 240.913 69.3095C240.448 68.9583 239.461 68.9583 239.926 68.0294C240.323 67.2137 241.185 67.225 241.99 67.259C243.759 67.3157 244.961 68.3352 245.687 69.7853C246.424 71.258 245.222 72.1643 244.383 73.1612C243.748 73.9316 242.478 74.1581 242.399 75.5176Z" fill="#F6F5E9"/>
<path d="M169.413 103.476C172.917 107.339 172.588 112.675 168.573 115.722C167.11 116.832 165.489 117.75 164.536 119.393C163.935 120.423 163.277 121.126 162.075 120.163C160.873 119.211 160.476 118.09 161.463 116.776C161.769 116.368 162.211 115.971 162.676 115.813C167.734 114.159 168.823 110.216 168.755 105.538C168.743 104.824 168.483 103.94 169.413 103.476Z" fill="#F6F5E9"/>
<path d="M188.622 127.391C190.766 129.702 191.877 131.866 192.648 134.234C193.125 135.695 193.17 137.032 191.957 138.188C190.754 139.332 189.337 139.343 187.965 138.697C186.23 137.882 184.404 137.111 183.179 134.959C187.341 134.381 187.919 131.141 188.622 127.391Z" fill="#F6F5E9"/>
<path d="M221.669 100.826C221.782 102.503 221.884 104.168 222.032 106.366C217.994 102.22 212.982 99.1724 214.4 92.4658C214.547 91.7748 213.912 90.7666 215.001 90.4833C215.828 90.2681 216.441 90.9591 216.974 91.5482C219.435 94.2331 219.741 98.0169 221.759 100.94C221.737 100.94 221.669 100.826 221.669 100.826Z" fill="#F6F5E9"/>
<path d="M252.673 82.9714C248.964 84.716 244.791 83.9683 240.709 84.0136C238.928 84.0363 238.849 82.7222 238.804 81.2834C238.736 79.6748 239.518 79.2103 240.879 79.1876C245.154 79.1083 249.6 78.372 252.673 82.9714Z" fill="#F6F5E9"/>
<path d="M133.203 104.688C132.806 102.456 134.824 102.003 134.643 100.541C129.857 99.9524 128.939 98.8648 130.402 95.6362C131.388 93.4611 132.897 93.0193 134.79 94.424C136.503 95.6928 138.068 97.2902 137.966 99.5672C137.841 102.343 135.414 103.181 133.203 104.688Z" fill="#F6F5E9"/>
<path d="M241.094 128.92C243.941 127.765 246.401 128.762 248.76 129.781C252.242 131.288 255.644 132.987 259.046 134.641C259.828 135.027 260.94 135.423 260.384 136.624C259.862 137.745 258.796 137.36 257.968 137.02C256.029 136.227 254.079 135.446 252.253 134.449C248.635 132.466 244.972 130.54 241.094 128.92Z" fill="#F6F5E9"/>
<path d="M161.112 14.7731C165.262 12.1562 169.651 10.185 174.334 8.91623C175.208 8.67833 176.206 8.1912 176.875 9.09749C177.646 10.1284 176.965 11.0913 176.319 11.9296C174.935 13.7082 173.665 15.3056 170.808 14.3653C167.644 13.3344 164.366 14.3313 161.112 14.7731Z" fill="#F6F5E9"/>
<path d="M242.614 140.837C242.863 141.211 243.237 141.891 243.725 142.503C246.163 145.561 248.261 149.017 252.423 150.127C253.081 150.308 253.636 150.727 253.308 151.554C253.035 152.257 252.389 152.427 251.72 152.472C248.511 152.721 240.981 145.72 241.049 142.503C241.071 141.868 241.185 141.2 242.614 140.837Z" fill="#F6F5E9"/>
<path d="M193.704 6.41318C189.927 7.8859 186.185 9.42659 182.363 10.7634C181.377 11.1146 179.868 12.9611 179.177 10.854C178.723 9.44925 179.528 7.59136 181.377 7.19486C184.053 6.6171 186.786 6.26591 189.519 5.94871C190.914 5.79011 192.343 5.92605 193.749 5.92605C193.738 6.08465 193.715 6.24325 193.704 6.41318Z" fill="#F6F5E9"/>
<path d="M228.383 72.9228C226.863 71.0649 225.117 69.343 223.892 67.3151C222.655 65.276 223.154 63.2708 225.479 62.1153C226.387 61.6622 227.43 61.0164 228.394 61.7755C229.324 62.5005 228.576 63.4521 228.315 64.2791C227.43 67.0999 228.621 69.8188 228.383 72.9228Z" fill="#F6F5E9"/>
<path d="M182.341 132.33C180.628 132.557 179.403 130.529 179.335 129.079C179.256 127.47 180.072 125.329 182.76 125.284C185.392 125.238 186.367 127.289 186.549 128.909C186.741 130.631 185.233 132.194 182.341 132.33Z" fill="#F6F5E9"/>
<path d="M220.704 82.5533C217.008 83.131 213.866 82.4513 210.85 81.3071C209.171 80.6727 208.74 79.0754 208.877 77.3874C208.967 76.3225 209.285 75.2236 210.612 75.1557C211.632 75.1104 212.517 75.8014 212.539 76.7643C212.63 80.3555 214.229 81.2618 217.575 80.2196C218.675 79.8797 219.752 80.854 220.704 82.5533Z" fill="#F6F5E9"/>
<path d="M238.498 102.354C237.375 100.779 235.333 100.53 234.006 99.2614C232.373 97.6981 231.953 95.2738 233.292 93.971C234.891 92.4189 236.456 94.5261 237.216 95.8628C238.305 97.766 240.97 99.6239 238.384 102.286C238.396 102.286 238.498 102.354 238.498 102.354Z" fill="#F6F5E9"/>
<path d="M140.756 121.375C141.039 120.276 141.141 118.497 142.344 119.268C143.875 120.253 146.903 120.151 146.483 123.119C146.268 124.615 145.61 126.62 143.705 126.235C141.289 125.725 141.334 123.165 140.756 121.375Z" fill="#F6F5E9"/>
<path d="M141.993 111.804C141.403 113.65 139.441 114.126 138.296 113.979C136.299 113.741 135.744 111.181 135.574 109.776C135.335 107.827 137.694 108.813 138.885 108.564C141.483 108.009 141.074 110.524 141.993 111.804Z" fill="#F6F5E9"/>
<path d="M154.659 19.1355C159.365 17.085 163.096 15.9748 166.974 15.3857C168.131 15.2044 169.991 14.3661 170.138 16.3033C170.263 17.8893 168.483 18.8296 167.042 18.535C163.209 17.7194 159.558 18.9882 154.659 19.1355Z" fill="#F6F5E9"/>
<path d="M128.815 64.687C129.166 64.9928 129.518 65.2874 129.87 65.5933C129.915 65.8538 129.983 66.103 130.006 66.3636C130.119 68.2102 130.403 70.3739 127.817 70.5552C125.855 70.6911 125.276 68.9012 125.197 67.2812C125.072 64.6983 126.649 64.1998 128.815 64.687Z" fill="#F6F5E9"/>
<path d="M160.84 57.584C162.212 57.8559 163.777 58.1164 163.619 59.8044C163.46 61.4357 161.895 61.6056 160.545 61.549C159.331 61.4924 157.993 61.1752 158.038 59.6458C158.095 57.9352 159.558 57.7539 160.84 57.584Z" fill="#F6F5E9"/>
<path d="M175.389 115.021C175.106 116.245 175.593 117.819 173.824 117.853C172.077 117.887 171.816 116.358 171.68 115.089C171.544 113.888 171.941 112.506 173.348 112.404C175.185 112.268 175.003 114.002 175.389 115.021Z" fill="#F6F5E9"/>
<path d="M172.736 61.7769C172.724 61.5163 172.702 61.2671 172.713 61.0065C172.894 58.3216 174.97 58.956 176.444 59.126C177.567 59.2506 177.159 60.3495 176.626 60.8819C175.526 61.9808 174.584 64.5071 172.645 61.6749C172.656 61.6749 172.736 61.7769 172.736 61.7769Z" fill="#F6F5E9"/>
<path d="M149.17 123.346C150.939 124.615 152.64 125.487 151.79 127.254C151.189 128.489 149.17 128.512 148.319 127.617C146.754 125.986 149.601 125.294 149.17 123.346Z" fill="#F6F5E9"/>
<path d="M204.522 72.0627C204.137 72.1193 203.762 72.2439 203.377 72.2326C201.902 72.176 200.19 72.7311 199.35 70.9071C199.101 70.3747 199.543 69.8989 200.054 69.729C201.914 69.1172 202.866 70.4767 203.932 71.5755C204.114 71.7568 204.261 71.972 204.431 72.1646C204.431 72.142 204.522 72.0627 204.522 72.0627Z" fill="#F6F5E9"/>
</svg>
