<svg width="199" height="50" viewBox="0 0 199 50" fill="none" xmlns="http://www.w3.org/2000/svg">
<g clip-path="url(#clip0_93_384)">
<path d="M111.251 12.1787C117.095 12.1787 122.939 12.1787 128.782 12.1787C129.048 12.1787 129.317 12.1659 129.583 12.1736C130.231 12.1889 130.382 11.9509 130.044 11.375C129.274 10.0593 128.746 8.65667 128.495 7.14138C128.127 4.91707 128.813 3.17653 130.717 1.93512C134.009 -0.212397 137.516 -0.537468 141.176 0.785853C143.72 1.70476 144.734 4.30788 143.781 7.22328C143.298 8.70786 142.491 10.0158 141.608 11.2854C141.127 11.9765 141.212 12.1429 142.033 12.1633C142.921 12.1889 143.812 12.1736 144.703 12.1736C158.11 12.1761 171.517 12.1864 184.925 12.1787C187.968 12.1787 190.881 12.7137 193.599 14.1342C194.628 14.6718 195.598 15.2963 196.461 16.0796C198.529 17.9532 199.079 20.2415 198.094 22.86C197.482 24.4904 196.551 25.9366 195.435 27.2548C187.73 36.344 178.556 43.406 167.373 47.7727C161.975 49.8818 156.81 49.7462 151.524 47.3324C147.618 45.5484 143.766 43.621 139.732 42.116C137.336 41.2226 134.882 40.5469 132.368 40.0913C130.768 39.8021 129.251 40.3037 127.722 40.6442C124.165 41.4377 120.614 42.2746 117.057 43.0732C116.57 43.1833 116.058 43.1936 115.557 43.2268C115.362 43.2396 115.086 43.2627 115.045 42.999C115.004 42.7354 115.27 42.6816 115.462 42.6253C116.714 42.2542 117.963 41.8779 119.219 41.5324C123.333 40.401 127.42 39.1826 131.616 38.3431C135.378 37.5906 138.931 38.1818 142.425 39.4949C145.906 40.8003 149.08 42.7507 152.423 44.3505C153.546 44.888 154.668 45.4307 155.776 45.9989C158.998 47.6524 162.272 47.614 165.589 46.3316C176.094 42.2746 184.561 35.4712 191.705 26.9016C192.985 25.3684 194.004 23.6637 194.587 21.7261C195.097 20.0393 194.743 18.5317 193.533 17.2877C191.618 15.3245 189.384 14.2085 186.512 14.6538C184.848 14.9124 183.146 14.9431 181.462 15.0583C180.289 15.1402 180.172 15.2093 180.128 16.3432C179.985 20.047 179.877 23.7507 179.726 27.4545C179.678 28.6319 179.936 29.6634 180.694 30.5977C181.303 31.3502 181.126 31.7777 180.207 32.0771C178.17 32.7426 176.194 31.3323 175.948 29.0338C175.715 26.8709 175.912 24.708 176.004 22.5451C176.092 20.4719 176.245 18.4037 176.365 16.3304C176.391 15.9029 176.424 15.4576 175.815 15.4141C175.211 15.3705 174.968 15.6828 174.95 16.269C174.881 18.4318 174.789 20.5947 174.709 22.7576C174.653 24.2985 174.599 25.8394 174.548 27.3803C174.507 28.5986 174.735 29.7146 175.551 30.695C176.122 31.3835 175.961 31.7495 175.098 32.0439C173.455 32.607 171.635 31.7495 171.029 30.1165C170.606 28.98 170.634 27.7872 170.624 26.6021C170.622 26.3487 170.729 26.0006 170.468 25.865C170.186 25.7216 169.995 26.039 169.81 26.2079C168.369 27.5287 166.652 28.4041 164.924 29.259C164.819 29.3128 164.709 29.3614 164.596 29.3998C164.061 29.5738 163.56 29.4817 163.245 29.0158C162.91 28.5193 163.332 28.1814 163.657 27.8947C165.467 26.3129 167.284 24.7438 169.106 23.1799C170.297 22.1586 170.304 22.1663 169.288 21.0119C169.132 20.8328 168.968 20.6613 168.799 20.4949C167.135 18.8414 166.734 18.8311 164.942 20.349C164.742 20.5179 164.525 20.6971 164.284 20.7867C163.908 20.9275 163.511 20.9019 163.212 20.5845C162.93 20.2824 163.004 19.9369 163.145 19.5862C164.028 17.3926 166.47 16.3841 168.676 17.3107C169.314 17.5769 169.864 17.9788 170.391 18.4114C170.808 18.7518 171.082 18.739 171.121 18.1221C171.123 18.0633 171.134 18.0044 171.134 17.9455C171.164 14.5847 171.543 15.1095 168.472 15.0659C166.544 15.0378 164.614 15.089 162.687 15.0506C161.868 15.0352 161.607 15.3782 161.584 16.1589C161.479 19.9522 161.335 23.7456 161.202 27.5364C161.161 28.7113 161.512 29.7402 162.231 30.6745C162.779 31.386 162.638 31.7316 161.781 32.0387C160.02 32.671 158.023 31.6369 157.621 29.7914C157.117 27.475 157.396 25.1252 157.519 22.7909C157.637 20.5128 157.795 18.2347 157.931 15.9567C157.959 15.4934 157.834 15.1299 157.281 15.0864C156.705 15.0403 156.452 15.3654 156.429 15.8773C156.385 16.9729 156.382 18.0709 156.352 19.169C156.278 21.8361 156.191 24.5032 156.121 27.1729C156.088 28.4297 156.144 29.6481 157.048 30.6873C157.624 31.3502 157.45 31.747 156.615 32.0439C154.908 32.6505 152.922 31.6804 152.466 29.8708C152.205 28.8341 151.752 28.4834 150.7 28.5474C146.938 28.7829 145.13 26.1849 143.454 23.4282C143.316 23.2004 143.211 22.9521 143.101 22.7115C142.384 21.1604 142.453 20.9607 143.966 20.2261C145.765 19.3533 146.318 17.0573 145.128 15.4499C144.931 15.1837 144.667 15.0813 144.363 15.0787C143.472 15.0685 142.584 15.0711 141.693 15.0711C141.183 15.0711 140.91 15.3373 140.902 15.8313C140.838 20.1877 140.454 24.5391 140.641 28.9007C140.672 29.6276 140.93 30.1933 141.491 30.6796C142.102 31.2094 141.985 31.6727 141.232 32.0004C139.248 32.8629 136.96 31.4628 136.794 29.1848C136.599 26.5202 136.704 23.848 136.871 21.1834C136.973 19.5274 137.093 17.8713 137.183 16.2152C137.211 15.6803 137.249 15.0967 136.438 15.0762C135.624 15.0557 135.557 15.5907 135.542 16.2024C135.447 19.9087 135.34 23.6125 135.245 27.3188C135.214 28.5218 135.342 29.6634 136.177 30.6566C136.776 31.3707 136.558 31.8289 135.629 32.1053C133.584 32.7145 131.631 31.2939 131.442 29.0542C131.224 26.5049 131.436 23.958 131.549 21.4138C131.628 19.6681 131.792 17.925 131.905 16.1794C131.93 15.7698 131.994 15.2477 131.47 15.1402C130.812 15.0045 130.116 14.9277 129.471 15.2298C129.297 15.3117 129.371 15.5523 129.43 15.7212C130.615 19.1869 129.092 21.895 126.97 24.4213C126.105 25.4503 126.087 25.458 126.993 26.469C128.237 27.8538 129.312 29.4126 131.014 30.3238C131.285 30.4697 131.47 30.7308 131.37 31.0687C131.262 31.4398 130.981 31.6625 130.623 31.7649C129.775 32.0055 129.041 31.7265 128.378 31.2171C127.244 30.3443 126.217 29.3486 125.398 28.1763C124.566 26.9835 123.555 26.1849 122.045 26.1542C121.674 26.1465 121.346 25.9776 121.124 25.6781C120.44 24.7515 120.036 23.6918 119.921 22.5605C119.844 21.808 120.42 21.4675 121.091 21.3447C122.314 21.1194 123.243 21.6697 123.955 22.581C124.472 23.2439 124.799 23.1057 125.212 22.5016C126.115 21.1732 127.019 19.8422 127.331 18.2296C127.661 16.5275 126.555 15.0864 125.02 15.1555C124.19 15.1939 123.845 15.5574 123.857 16.3918C123.873 17.4387 124.282 18.2783 125.155 18.89C125.483 19.1204 125.923 19.3712 125.698 19.878C125.493 20.3336 125.043 20.436 124.572 20.4411C123.246 20.4539 121.802 19.1127 121.49 17.5513C121.38 16.9985 121.3 16.4379 121.398 15.8722C121.497 15.2861 121.231 15.0531 120.663 15.0659C119.982 15.0813 119.299 15.089 118.618 15.0608C117.743 15.0224 117.4 15.4345 117.384 16.2869C117.338 18.9566 117.264 21.6237 117.177 24.2908C117.126 25.8906 116.939 27.4826 117.162 29.0875C117.249 29.7121 117.443 30.2061 117.911 30.6361C118.58 31.2478 118.454 31.7214 117.589 32.0515C115.682 32.7836 113.588 31.4065 113.276 29.3102C112.9 26.7839 113.286 24.278 113.345 21.7645C113.389 19.8985 113.529 18.0325 113.663 16.1691C113.719 15.3731 113.445 15.0352 112.618 15.0378C110.304 15.0429 107.993 14.984 105.679 14.9738C104.53 14.9687 104.399 15.1146 104.397 16.251C104.394 16.9626 104.397 17.6742 104.404 18.3858C104.407 18.5573 104.358 18.7774 104.53 18.8746C104.77 19.0129 104.911 18.7774 105.047 18.6443C105.669 18.0325 106.38 17.559 107.176 17.2135C108.769 16.5249 109.744 17.0445 110.158 18.7083C110.642 20.6433 110.535 22.5912 110.422 24.5468C110.391 25.0843 110.379 25.6167 110.614 26.1184C110.883 26.6917 110.596 27.0117 110.11 27.2446C108.917 27.8154 107.478 27.1268 107.166 25.8368C107.038 25.3095 107.082 24.7746 107.11 24.2422C107.153 23.4128 107.215 22.5835 107.24 21.7542C107.253 21.378 107.43 20.8609 107.107 20.6561C106.695 20.3951 106.401 20.9403 106.04 21.099C104.486 21.7824 104.015 23.0033 104.118 24.6338C104.2 25.9315 104.061 27.2395 104.051 28.5423C104.043 29.3716 104.284 30.0986 104.96 30.6719C105.559 31.1787 105.426 31.6804 104.681 32.0029C103.137 32.671 101.164 31.8084 100.48 30.1728C100.079 29.2129 100.114 28.2019 100.084 27.1934C100.058 26.3564 99.9046 26.2566 99.2237 26.7531C98.1359 27.5415 96.9969 27.9894 95.648 27.5671C94.6215 27.2471 94.125 26.6431 94.0533 25.568C93.8946 23.1978 94.0994 20.8891 95.2384 18.739C96.2136 16.9012 98.0002 16.2254 99.8815 17.1034C100.611 17.4438 100.652 17.193 100.655 16.5761C100.66 15.0608 100.593 14.9815 99.0599 14.9661C97.1914 14.9482 95.3229 14.92 93.4544 14.9098C92.881 14.9072 92.323 14.8305 91.8008 14.6155C90.8359 14.2136 90.7412 13.2998 91.5833 12.6829C92.1464 12.2708 92.8017 12.2632 93.4569 12.2632C99.3901 12.2632 105.321 12.2632 111.254 12.2632C111.251 12.235 111.251 12.2069 111.251 12.1787ZM136.072 12.1992C137.037 12.1531 138.066 12.3553 138.532 11.4774C139.545 9.57045 140.469 7.60211 140.93 5.47251C141.189 4.27461 140.656 3.25076 139.589 2.87706C137.162 2.02727 134.864 2.33698 132.742 3.79596C131.731 4.49218 131.362 5.47763 131.623 6.66529C131.902 7.93998 132.279 9.18907 132.895 10.3486C133.594 11.6693 134.59 12.4782 136.072 12.1992ZM150.646 15.0634C150.201 15.0634 149.758 15.0736 149.313 15.0608C148.709 15.0429 148.504 15.3065 148.678 15.885C149.408 18.2911 148.893 20.2645 146.666 21.639C146.346 21.8361 146.241 22.1228 146.428 22.476C147.206 23.9555 148.197 25.2276 149.863 25.7677C151.473 26.2899 152.162 25.7984 152.251 24.1295C152.374 21.7926 152.502 19.4582 152.633 17.1239C152.745 15.0557 152.75 15.0557 150.646 15.0634ZM97.3143 23.8429C97.3143 24.1679 97.2938 24.4956 97.3194 24.8206C97.3629 25.3838 97.6214 25.5322 98.1513 25.266C99.9737 24.3497 100.634 22.5605 99.7945 20.7406C99.6077 20.3362 99.4259 19.9318 99.2109 19.5427C99.0778 19.3047 99.0625 18.8721 98.6888 18.9258C98.3867 18.9694 98.2895 19.3379 98.1794 19.6093C97.6342 20.9633 97.3271 22.3762 97.3143 23.8429Z" fill="#F6F5E9"/>
<path d="M69.1535 20.0625C70.2771 22.0437 71.5083 23.7254 72.7983 25.3661C74.0961 27.017 75.5371 28.5272 77.2009 29.8224C75.4348 29.0058 74.1268 27.6109 72.6166 26.4053C73.1234 27.1015 73.6328 27.7951 74.1882 28.5553C72.4349 28.1253 70.5433 25.5888 70.6815 23.9404C70.702 23.6946 70.5817 23.5487 70.4665 23.3849C69.8318 22.4916 69.1918 21.6034 68.5033 20.7306C68.8437 21.9976 69.6577 23.088 70.0007 24.4932C69.4529 24.2706 69.2866 23.8405 69.0459 23.5103C68.3804 22.6017 67.738 21.6777 67.1058 20.746C66.6885 20.1291 66.494 19.4073 66.7065 18.7085C66.9573 17.8843 66.5426 17.3673 66.0102 16.5891C66.087 17.636 66.4403 18.4449 66.2329 19.2639C65.9642 19.3638 65.872 19.182 65.7799 19.0413C64.5922 17.2649 63.7859 15.3298 63.5197 13.2053C63.4378 12.5526 63.6605 11.8462 62.8056 11.3675C62.8594 11.9742 63.0181 12.5296 62.7083 13.0338C62.4345 13.4792 62.1529 13.6533 61.7792 13.1285C60.1999 10.9068 58.5336 8.73113 57.6198 6.12032C57.4048 5.50346 56.9313 5.29101 56.2888 4.96338C56.509 5.56233 56.6958 6.01282 56.834 6.47611C56.898 6.69368 56.962 7.01107 56.7572 7.14673C56.5243 7.30031 56.3247 7.04179 56.1557 6.89077C54.6481 5.55209 53.0868 4.28508 51.3129 3.16653C51.725 3.02319 52.045 3.251 52.3752 3.15629C49.5519 2.14012 46.6416 1.91232 43.6546 2.21179C44.1691 1.85601 44.2612 1.83553 45.1571 1.74594C50.2405 1.24426 54.8094 2.75955 59.1479 5.26029C62.9208 7.43341 65.6698 10.6201 68.1578 14.091C70.4589 17.2982 72.8854 20.4055 75.724 23.1648C77.1778 24.5751 78.7494 25.8294 80.5949 26.7047C82.1819 27.4573 83.8226 27.8719 85.5939 27.5443C85.7807 27.511 85.9957 27.4061 86.1749 27.5929C84.5803 29.9375 80.9635 30.9256 78.3527 29.7379C76.7299 28.9982 75.4015 27.877 74.2241 26.5614C72.6371 24.7902 71.2472 22.8704 69.9367 20.8919C69.7601 20.6282 69.6449 20.3134 69.1535 20.0625Z" fill="#F6F5E9"/>
<path d="M15.7035 21.0531C16.5124 22.2459 17.3212 23.4412 18.13 24.634C17.8382 23.2595 17.0499 22.0923 16.7683 20.7152C17.9509 22.1409 19.2409 23.4821 19.9013 25.2508C20.019 25.5682 20.0907 26.0008 19.9704 26.2926C19.5404 27.342 20.2085 28.0101 20.7127 28.755C20.618 27.7849 20.2238 26.8429 20.4286 25.8293C20.8791 25.8677 20.9661 26.2286 21.1222 26.482C22.1077 28.0869 23.0496 29.7942 23.0394 31.6755C23.0291 33.8204 24.5291 34.8929 25.6502 36.2751C26.7252 37.3885 27.8668 38.4252 29.1236 39.3313C29.4538 39.7229 29.8915 39.9635 30.4981 40.3167C30.2626 39.5872 29.8249 39.1137 29.7865 38.5071C29.7737 38.3074 29.7046 38.0566 29.9171 37.944C30.0911 37.8518 30.2473 38.0233 30.3778 38.1385C31.911 39.4823 33.4621 40.8031 35.1566 42.0112C34.829 41.9574 34.5039 41.9011 34.1788 41.8474C35.2999 42.6767 38.9064 43.1118 43.0069 42.8866C42.6486 43.2014 42.3056 43.1963 41.9933 43.2373C37.3553 43.8592 33.0628 42.7714 28.947 40.6776C25.0794 38.7119 21.9874 35.8937 19.4457 32.4152C16.8733 28.8983 14.3085 25.3737 11.1909 22.3022C10.7046 21.8235 10.2183 21.3423 9.69867 20.9072C6.99572 18.6368 4.11359 16.8502 0.194824 17.6539C0.519895 17.0345 0.978066 16.7734 1.39528 16.4765C4.64855 14.1472 6.80119 13.9604 10.4845 16.8041C12.9289 18.6906 14.6106 21.2783 16.3358 23.8021C16.753 24.4113 17.1548 25.0282 17.6437 25.7602C17.2419 24.0453 13.5074 19.3177 9.39664 15.2658C10.1952 15.5755 10.6534 15.9646 11.1116 16.3357C12.3607 17.3468 13.4536 18.5139 14.5159 19.7144C14.8077 20.0446 15.1507 20.3287 15.4706 20.6282C15.5448 20.7664 15.6242 20.9097 15.7035 21.0531Z" fill="#F6F5E9"/>
<path d="M29.8044 27.0655C29.1107 27.2651 28.586 27.0066 28.1867 26.4512C26.6842 24.3728 26.2696 22.041 26.61 19.5453C26.7175 18.7621 27.2729 18.2783 27.9308 17.879C27.2806 17.833 27.0221 18.3602 26.5051 18.78C26.6023 18.0633 26.8941 17.6563 27.3728 17.3492C27.5263 17.2494 27.8053 17.1598 27.5827 16.8833C27.4521 16.7221 27.3574 16.7912 27.1629 16.8705C26.5076 17.1419 26.6638 16.5224 26.7124 16.287C26.8711 15.5242 27.1219 14.7819 27.3753 13.8912C27.8617 16.6197 27.8617 16.6197 28.5118 16.9729C28.6244 16.8424 28.5144 16.7682 28.4427 16.6786C28.3889 16.612 28.3454 16.5378 28.2354 16.3765C28.737 16.3433 29.2413 16.3996 29.5024 15.9158C29.7148 15.5216 29.551 15.1735 29.3846 14.8229C29.3053 14.7563 29.2259 14.6872 29.1466 14.6181C28.6782 13.9782 28.261 14.0319 27.9052 14.8459C27.5187 13.95 27.7209 13.2615 28.2379 12.6779C28.499 12.3835 28.5758 12.1173 28.5732 11.736C28.5732 10.8145 29.1133 10.0722 29.5945 9.36064C30.5134 7.99892 31.4554 6.63721 32.7659 5.60312C32.9604 5.44955 33.1549 5.14495 33.4467 5.35484C33.672 5.51866 33.4391 5.82581 33.5005 6.0101C33.8563 7.08002 32.7992 7.08002 32.4126 7.60986C33.1908 7.39997 33.8972 7.10562 34.1532 6.21487C34.4245 5.27805 35.7632 4.40778 36.7 4.54344C37.0788 4.59719 37.1863 4.75077 36.9201 5.05793C36.7845 5.21406 36.6232 5.34716 36.4696 5.48538C35.2641 6.55786 34.1532 7.73528 33.2752 9.07908C32.7531 9.87768 32.4587 10.8401 32.1388 11.7539C32.0031 12.1404 31.8726 12.5166 31.7036 12.8955C31.3402 13.7043 31.2864 14.5003 32.0441 15.2247C32.5918 15.7494 33.0807 16.4073 32.3845 17.3185C32.3154 15.6624 30.9844 14.8868 30.2626 13.7171C30.1576 14.27 29.871 14.8459 30.6132 15.1402C30.452 15.7494 30.1858 16.3177 29.743 17.0395C30.7899 16.5532 30.5902 15.8057 30.6132 15.1454C30.5876 15.0379 30.667 14.9355 30.7335 15.002C31.1405 15.409 31.2685 15.9286 31.1661 16.4738C31.0637 17.019 30.6721 17.3236 30.1295 17.4465C29.9298 17.4925 29.551 17.4055 29.6278 17.7511C29.6841 17.9993 29.8454 18.3602 30.1986 18.3474C30.5518 18.3346 30.3778 18.048 30.4341 17.856C30.5723 17.385 31.2557 17.2468 31.417 16.6965C31.6422 16.804 31.6064 16.9781 31.568 17.0932C31.3555 17.7203 31.5398 17.9149 32.172 17.705C32.9195 17.4567 33.1293 18.0736 33.4007 18.5241C33.8179 19.2152 34.125 19.2715 34.6958 18.6853C34.8596 18.5164 35.0055 18.3244 35.1284 18.1222C35.4816 17.5463 35.5303 17.0574 34.7189 16.8398C34.4347 16.763 34.0841 16.7144 34.3759 16.2665C34.5909 15.9388 35.0388 15.5319 34.532 15.2094C33.974 14.8536 33.8179 15.5012 33.5594 15.8211C33.4902 15.9056 33.4391 16.0054 33.2957 16.2358C33.178 15.432 33.3776 14.874 33.8639 14.4773C34.3528 14.078 34.724 14.5899 35.1335 14.7998C35.3204 14.5285 35.0542 14.1906 35.2897 13.9551C36.7486 14.5336 37.8288 14.119 37.4116 12.7393C38.1308 13.1284 38.1897 13.369 37.8186 14.3724L37.8365 14.3519C37.409 14.6667 36.9816 14.9841 36.5183 15.3271C36.9457 15.8416 37.4295 16.0668 38.0924 15.5779C37.8493 16.6735 37.4372 16.9217 36.6181 16.5557C36.3673 16.4431 36.0831 16.3151 35.8732 16.5404C35.6685 16.7605 35.991 16.8833 36.0857 17.042C36.3058 17.4081 36.334 17.7971 36.1215 18.1401C35.5635 19.036 34.8929 19.8346 33.7718 20.0061C33.3674 20.0675 33.1959 20.1724 33.2266 20.6025C33.265 21.0965 33.2343 21.5982 33.2343 22.1024C33.6566 22.1203 33.7948 21.7876 34.0559 21.6749C34.5832 21.4471 35.1514 21.3115 35.689 21.1502C36.4338 20.9275 37.299 21.7978 37.5114 22.7577C37.5421 22.901 37.5344 23.052 37.5575 23.1979C37.6163 23.6023 37.8032 24.1143 37.4525 24.3625C37.1428 24.5801 36.7435 24.2038 36.4056 24.0477C35.4944 23.6305 35.5047 23.6177 35.4816 24.6364C35.4739 24.9896 35.5251 25.4145 35.2001 25.6193C34.8008 25.8701 34.5704 25.4043 34.2965 25.2302C33.7385 24.8796 33.2138 24.4291 33.0909 23.7559C32.9578 23.0239 32.6661 23.0699 32.1848 23.4206C32.0748 23.4999 31.9212 23.5179 31.7164 23.5307C32.7838 22.8012 32.556 21.8618 32.2104 20.9199C32.0133 20.3823 31.9084 19.8371 31.9161 19.2663C31.9238 18.8389 31.719 18.7749 31.3478 18.8798C30.5211 19.1128 30.3547 19.4225 30.6644 20.1648C30.7643 20.4054 30.795 20.669 30.4136 20.6485C30.1423 20.6332 29.8812 20.6127 29.6329 20.7381C29.423 20.8431 29.2131 20.9506 28.9393 21.0862C28.8855 20.7253 29.1363 20.5308 29.2515 20.2876C29.3718 20.0317 29.6815 19.722 29.3846 19.4993C29.1082 19.2919 28.8548 19.6426 28.6372 19.8218C28.0562 20.3004 27.7439 20.9352 27.6978 21.6749C27.6057 23.1595 28.028 24.5494 28.5809 25.9009C28.7063 26.208 28.9239 26.4717 29.2848 26.5177C29.6175 26.5612 29.8479 26.3923 29.9913 26.0928C30.1244 25.8138 29.9605 25.7319 29.7353 25.6551C29.4281 25.5476 29.359 25.2994 29.4256 25.0076C29.4589 24.8565 29.5484 24.7362 29.7225 24.7209C30.0322 24.6953 30.2344 24.8873 30.3726 25.1151C30.8948 25.9828 30.3598 26.5612 29.7865 27.1192C29.7762 27.1141 29.8044 27.0655 29.8044 27.0655Z" fill="#F6F5E9"/>
<path d="M56.4065 35.2665C55.5772 35.3663 55.1114 34.7827 54.5483 34.3604C54.2002 35.7528 54.5815 36.316 55.6924 36.1701C55.3238 39.4054 47.2431 44.0204 42.1188 43.8515C45.5307 42.9812 48.5946 41.3072 51.9247 39.7484C50.8906 39.6434 50.8547 39.0112 51.2028 38.5889C51.7276 37.9567 52.0808 37.2374 52.562 36.4081C52.7591 37.2118 52.6849 37.9311 53.097 38.5198C52.9255 37.3833 52.7309 36.2622 53.3529 35.0899C53.4604 35.3561 53.5321 35.5301 53.6319 35.781C53.7062 35.6325 53.7701 35.5609 53.7727 35.4892C53.8085 34.7315 54.2053 34.0302 54.1336 33.2521C54.1259 33.1548 54.2027 32.9987 54.2846 32.9577C54.4638 32.8681 54.5483 33.0371 54.6046 33.1676C54.9706 34.0558 55.5337 34.7802 56.4065 35.2665Z" fill="#F6F5E9"/>
<path d="M50.1176 22.8062C50.115 21.7645 49.7157 20.9172 48.9145 20.2466C48.4205 19.8345 48.3489 19.5248 49.0937 19.2842C49.6082 19.1178 50.33 18.7364 50.5578 19.1844C50.8931 19.8396 51.4255 19.7808 51.8939 20.0214C52.4622 20.3132 52.4059 20.9044 52.3547 21.4419C52.3265 21.7312 52.4596 22.1689 51.8837 22.0639C51.6482 22.0204 51.6533 22.1817 51.6994 22.3353C51.748 22.4965 51.7839 22.7422 51.9784 22.7269C52.6644 22.6706 53.2352 23.1134 53.8956 23.1287L53.8725 23.1134C54.6916 23.4205 54.9936 24.214 55.4902 24.8258C55.6207 24.987 55.6566 25.1099 55.4876 25.2788C55.1139 25.6551 54.1899 25.6448 53.7445 25.3786C53.5321 25.2507 53.5295 24.2217 52.9306 25.0894C52.8794 25.1636 52.6183 24.9563 52.5466 24.7899C52.3982 24.4393 52.2728 24.0783 52.0577 23.5127C52.1908 24.5852 52.3982 25.4145 52.6695 26.2361C52.7309 26.423 52.9203 26.6559 52.7156 26.8043C52.4775 26.9758 52.2676 26.7352 52.1038 26.5868C51.2617 25.8214 50.888 24.7822 50.5041 23.7558C50.3812 23.4282 50.3607 23.0571 50.0971 22.7883L50.1176 22.8062Z" fill="#F6F5E9"/>
<path d="M29.1262 39.3338C27.8694 38.4277 26.7253 37.3911 25.6528 36.2776C25.2458 35.5968 24.8107 34.9287 24.437 34.2274C24.0812 33.5593 23.9481 32.8273 24.1477 32.0799C24.2757 31.6012 24.5317 31.3811 24.9156 31.8956C26.5128 34.0226 28.0921 36.1625 29.1953 38.6043C29.2951 38.8219 29.6048 39.1393 29.1262 39.3338Z" fill="#F6F5E9"/>
<path d="M46.2115 16.2999C47.0664 16.2819 47.2455 16.8195 47.0408 17.4773C46.8872 17.9687 47.0203 18.217 47.3684 18.5318C48.1875 19.2741 48.2515 19.676 48.0774 21.7979C47.5911 21.5266 47.2558 21.1324 47.1995 20.6307C47.1406 20.1111 46.8283 19.9678 46.4674 19.6811C44.8549 18.3987 43.3089 17.0217 42.5461 15.0201C42.3234 14.4365 42.7637 13.8657 43.3268 13.9476C43.639 13.9936 44.0179 14.0628 43.6826 14.5696C43.2628 15.1992 43.5674 15.77 43.9334 16.5814C43.9334 15.939 43.9078 15.5627 43.9436 15.1915C43.9667 14.9509 44.1049 14.7385 44.4044 14.7411C44.6526 14.7436 44.8702 14.8358 45.0366 15.0226C45.2439 15.2581 45.0315 15.381 44.8933 15.5345C44.5963 15.8673 44.7064 16.1872 44.9521 16.4918C45.1902 16.7913 45.5255 17.0089 45.6791 17.38C45.8045 17.6846 46.0246 17.6693 46.2473 17.4926C46.4316 17.3467 46.6594 17.2008 46.3369 16.9474C46.1142 16.7708 46.2115 16.5123 46.2294 16.2819L46.2115 16.2999Z" fill="#F6F5E9"/>
<path d="M57.74 20.7535C58.5514 21.5444 58.9533 22.4249 58.3748 23.5358C58.3108 23.6612 58.1751 23.8583 58.3313 23.93C59.071 24.2653 58.7767 25.0229 59.0249 25.5528C59.094 25.7012 59.2016 25.9034 58.9302 25.9853C58.6922 26.057 58.5668 25.9572 58.4644 25.7191C58.1316 24.9436 57.6325 24.79 57.1206 25.4581C56.1863 26.679 54.8323 26.1543 53.6856 26.4717C53.5704 26.5024 53.4399 26.4435 53.4424 26.2951C53.445 26.121 53.5781 26.0161 53.7342 26.0186C54.3076 26.0289 54.8272 25.7473 55.3852 25.7166C55.9918 25.6807 56.3399 25.3378 56.4346 24.8182C56.5268 24.3318 55.9816 24.3779 55.7077 24.2192C54.8681 23.7329 54.4432 22.645 54.9244 21.7645C55.2111 21.2373 55.2572 20.7714 55.142 20.2339L55.1522 20.2416C55.9432 20.7996 56.9261 20.4259 57.7579 20.7791L57.74 20.7535ZM56.6035 21.4087C56.9414 21.9488 57.2639 22.4991 57.6274 23.0213C57.7451 23.1902 57.932 23.6023 58.2059 23.18C58.5258 22.6886 58.4234 22.1638 58.1316 21.6852C57.8629 21.2424 57.4994 20.9019 56.9389 20.9173C56.6727 20.925 56.6291 21.14 56.6368 21.3652C55.9124 20.8661 55.4799 21.2475 55.183 21.8848C54.8528 22.5939 55.1292 23.4974 55.7845 23.9069C56.1326 24.1245 56.6112 24.3779 56.8723 23.9376C57.118 23.5255 56.6803 23.308 56.3245 23.1186C55.7717 22.8268 55.7717 22.0333 56.3681 21.8772C56.7981 21.762 56.6087 21.6033 56.6035 21.4087Z" fill="#F6F5E9"/>
<path d="M42.0164 9.92892C42.9379 10.8837 41.6222 11.3034 41.4968 12.0124C41.4661 12.1814 41.2255 12.3964 40.949 12.3964C40.6624 12.1455 41.0258 11.9152 40.9721 11.6695C40.7417 11.6413 40.6445 11.7898 40.6035 11.9664C40.3987 12.8162 40.0148 13.3895 39.0037 13.0798C38.8118 13.0209 38.6249 13.0875 38.5891 13.2948C38.5251 13.6532 38.8041 13.8067 39.0575 13.9603L39.0396 13.9347C39.1036 14.4876 38.8937 14.8613 38.3178 14.9381C37.8724 14.9995 37.7418 14.7512 37.8314 14.3468C37.8314 14.3468 37.8135 14.3673 37.8135 14.3647C38.0746 14.3468 38.3357 14.3289 38.5968 14.311C38.5149 13.2539 37.5012 12.1148 38.8758 11.1294C38.8578 10.9681 37.9466 11.2446 38.5993 10.7096C39.0984 10.3001 39.5822 9.84445 40.2324 9.66016C40.9721 9.67807 41.6606 9.81117 42.0804 10.5458C42.28 10.2514 42.1265 10.0953 42.0164 9.92892Z" fill="#F6F5E9"/>
<path d="M54.1746 27.0682C55.7309 27.1322 57.2922 27.2089 58.8536 27.0631C59.4551 27.0067 59.3809 27.3625 59.1351 27.6364C58.6719 28.156 58.3161 28.6116 59.0302 29.2054C59.1838 29.3334 59.1735 29.6022 58.9509 29.743C58.7717 29.8556 58.5439 29.7762 58.4824 29.6278C58.0371 28.5502 57.067 28.9572 56.2914 28.8394C55.7667 28.7601 55.2266 28.7882 54.7019 28.7114C54.1285 28.6295 53.7241 28.3198 53.6294 27.6978C53.568 27.2653 53.6473 26.976 54.1746 27.0682Z" fill="#F6F5E9"/>
<path d="M33.2011 30.7281C32.2284 30.8842 31.3837 30.6973 30.8053 29.8194C30.5135 29.374 30.5698 29.1283 31.1713 29.1078C31.9852 29.0797 32.7966 29.0669 33.6132 29.1027C34.3478 29.136 34.5397 29.3331 34.1558 29.9781C34.0662 30.1291 33.9715 30.2776 33.8819 30.426C33.6541 30.5259 33.4263 30.6282 33.2011 30.7281Z" fill="#F6F5E9"/>
<path d="M29.8044 27.0657L29.7763 27.1143C29.8044 27.1041 29.83 27.081 29.8582 27.0836C30.1551 27.099 30.4392 26.5717 30.6901 26.9505C30.9204 27.2986 30.557 27.5802 30.1679 27.9231C31.01 27.9795 30.9563 27.4701 31.0126 27.0375C31.1175 26.2236 31.8649 25.6656 32.556 25.8831C32.6942 25.9266 32.8299 26.0009 32.812 26.262C31.6909 26.1852 31.4912 26.8967 31.4912 27.8284C31.4912 28.4504 30.4597 29.185 29.8479 29.0622C29.7942 29.0519 29.6969 28.9982 29.6995 28.9828C29.8966 28.0537 28.6398 28.1535 28.5528 27.3524C28.9828 27.2628 29.4563 27.3856 29.8044 27.0657Z" fill="#F6F5E9"/>
<path d="M53.3554 18.9693C52.8435 18.6494 52.9305 18.1451 52.7667 17.7638C52.5312 17.2237 52.2957 16.6836 52.0807 16.1358C51.7991 15.4192 51.7812 14.6948 52.4569 14.2161C53.125 13.7426 53.7163 14.1726 54.2845 14.5489C54.2333 14.6461 54.218 14.7229 54.1796 14.7383C52.6976 15.3321 52.718 15.3244 53.1762 16.8602C53.3707 17.5104 53.5473 18.1912 53.3554 18.9693Z" fill="#F6F5E9"/>
<path d="M55.1522 20.239L55.142 20.2313C54.9116 20.2006 54.6736 20.1929 54.4509 20.1289C54.2154 20.0624 53.7854 20.4463 53.77 19.9139C53.7598 19.5735 54.1668 19.6298 54.3971 19.5607C55.7333 19.1563 57.0873 19.5837 58.4337 19.53C58.8227 19.5146 59.2323 20.8098 58.984 21.1169C58.8432 21.291 58.6743 21.2577 58.5104 21.1758C58.2494 21.0427 57.996 20.8942 57.74 20.7509L57.7579 20.7765C57.2818 20.1264 56.5575 19.9549 55.8357 19.768C55.4056 19.6554 55.2341 19.8704 55.1522 20.239Z" fill="#F6F5E9"/>
<path d="M57.3356 31.6958C56.6394 31.317 55.9406 30.9458 55.2495 30.5593C55.0703 30.4595 54.8656 30.3059 54.9833 30.0679C55.119 29.7915 55.357 29.9604 55.5183 30.0474C56.409 30.5209 57.3305 30.9177 58.2903 31.23C58.7946 31.3938 58.7075 31.6497 58.3492 31.9057C57.6581 32.3971 55.4159 32.1309 54.8937 31.5038C54.7913 31.3784 54.7248 31.2402 54.8169 31.1045C54.9449 30.9202 55.1215 30.9868 55.2905 31.0687C55.6104 31.2223 55.9252 31.3887 56.258 31.5166C56.5856 31.6421 56.9286 31.7265 57.2639 31.8289C57.287 31.7803 57.3126 31.7393 57.3356 31.6958Z" fill="#F6F5E9"/>
<path d="M15.7036 21.053C15.6242 20.9097 15.5449 20.7664 15.4655 20.6256C14.4724 19.2946 13.4742 17.961 12.4785 16.6249C12.5399 16.5763 12.5988 16.5276 12.6602 16.479C14.132 17.4926 15.4963 18.6086 16.0517 20.4336C16.1259 20.6768 16.3512 21.1529 15.7036 21.053Z" fill="#F6F5E9"/>
<path d="M38.1796 26.8735C38.2666 26.8812 38.369 26.8658 38.4407 26.9042C39.1292 27.2856 39.7922 27.5953 40.2862 26.6201C40.3527 26.487 40.6036 26.4639 40.7699 26.5842C40.9619 26.7199 40.9747 26.9298 40.9593 27.1397C40.8979 27.9664 39.7358 28.6754 38.8963 28.3657C38.4816 28.2147 38.1105 27.9536 37.8085 27.6234C37.6702 27.4724 37.5192 27.2933 37.6318 27.0731C37.7393 26.8556 37.9748 26.8837 38.1796 26.8735Z" fill="#F6F5E9"/>
<path d="M40.2247 9.68805C40.8237 8.93041 41.6044 8.41593 42.4798 8.04478C42.8099 7.904 43.1811 7.85793 43.478 8.13949C43.7954 8.44152 43.6469 8.79475 43.5241 9.1275C43.4524 9.31947 43.3679 9.51144 43.2732 9.69317C43.0173 10.1821 42.7357 10.3664 42.4772 9.70085C42.3902 9.47817 42.2673 9.28107 42.0446 9.40906C41.8219 9.53704 41.9985 9.77764 42.0472 9.96705C41.5276 9.26828 40.8621 9.56775 40.2247 9.68805Z" fill="#F6F5E9"/>
<path d="M33.201 30.7282C33.4288 30.6259 33.6567 30.526 33.8793 30.4262C34.0636 30.2445 34.2454 30.0525 34.445 29.881C34.6447 29.7095 34.6523 29.2001 35.0414 29.3947C35.433 29.5892 35.7018 29.9732 35.7632 30.4416C35.817 30.8537 35.5968 31.1327 35.2257 31.2427C34.5372 31.4501 33.8333 31.3963 33.1371 31.2734C32.9758 31.2453 32.725 31.2146 32.7838 30.9944C32.812 30.8767 33.0526 30.8153 33.201 30.7282Z" fill="#F6F5E9"/>
<path d="M54.7812 17.0626C55.119 17.3084 55.5158 17.1471 55.8793 17.206C56.0763 17.2393 56.3605 17.1906 56.3733 17.4619C56.3886 17.8024 56.0687 17.7461 55.8485 17.7768C55.7334 17.7947 55.6131 17.7845 55.4953 17.787C53.7317 17.8203 53.7317 17.8203 54.4407 16.2845C54.5355 16.0772 54.7197 15.8673 54.4459 15.66C54.3409 15.5806 54.1182 15.5806 54.2232 15.3707C54.3128 15.1864 54.5073 15.189 54.689 15.1967C55.0883 15.2095 55.3597 15.4398 55.5235 15.7675C55.6898 16.1002 55.4185 16.305 55.2291 16.5302C55.0858 16.7043 54.7991 16.7555 54.7812 17.0626Z" fill="#F6F5E9"/>
<path d="M38.3074 23.3795C39.0984 24.2523 39.0241 25.4579 38.118 26.1465C37.7878 26.3973 37.4218 26.6046 37.2068 26.9758C37.0712 27.2087 36.9227 27.3674 36.6514 27.1498C36.3801 26.9348 36.2905 26.6814 36.5132 26.3845C36.5823 26.2924 36.6821 26.2028 36.787 26.1669C37.9286 25.7932 38.1744 24.9025 38.159 23.8454C38.1564 23.6841 38.0976 23.4845 38.3074 23.3795Z" fill="#F6F5E9"/>
<path d="M42.6434 28.7831C43.1271 29.3052 43.378 29.7941 43.552 30.3291C43.6595 30.6593 43.6698 30.9613 43.3959 31.2224C43.1246 31.4809 42.8046 31.4835 42.4949 31.3376C42.1033 31.1533 41.6912 30.9792 41.4148 30.4929C42.3541 30.3624 42.4847 29.6303 42.6434 28.7831Z" fill="#F6F5E9"/>
<path d="M50.1022 22.781C50.1278 23.1598 50.1509 23.536 50.1841 24.0326C49.2729 23.0958 48.1416 22.4072 48.4615 20.892C48.4948 20.7358 48.3515 20.508 48.5972 20.444C48.784 20.3954 48.9223 20.5515 49.0426 20.6846C49.598 21.2913 49.6671 22.1462 50.1227 22.8065C50.1176 22.8065 50.1022 22.781 50.1022 22.781Z" fill="#F6F5E9"/>
<path d="M57.1002 18.7467C56.2632 19.1409 55.3213 18.9719 54.3998 18.9822C53.998 18.9873 53.98 18.6904 53.9698 18.3653C53.9544 18.0019 54.1311 17.8969 54.4382 17.8918C55.4032 17.8739 56.4066 17.7075 57.1002 18.7467Z" fill="#F6F5E9"/>
<path d="M30.1346 23.6533C30.045 23.149 30.5006 23.0466 30.4596 22.7164C29.3795 22.5833 29.1722 22.3376 29.5023 21.6081C29.725 21.1167 30.0655 21.0169 30.4929 21.3343C30.8794 21.6209 31.2326 21.9818 31.2096 22.4963C31.1815 23.1234 30.6337 23.3128 30.1346 23.6533Z" fill="#F6F5E9"/>
<path d="M54.4868 29.1286C55.1292 28.8675 55.6847 29.0928 56.2171 29.3231C57.0029 29.6636 57.7707 30.0475 58.5386 30.4212C58.7152 30.5082 58.9661 30.5978 58.8407 30.8691C58.7229 31.1225 58.4823 31.0355 58.2955 30.9587C57.8578 30.7796 57.4175 30.6029 57.0054 30.3777C56.1889 29.9298 55.3621 29.4946 54.4868 29.1286Z" fill="#F6F5E9"/>
<path d="M36.4338 3.33783C37.3707 2.74655 38.3612 2.30118 39.4183 2.0145C39.6154 1.96075 39.8407 1.85069 39.9917 2.05546C40.1658 2.28838 40.0122 2.50595 39.8663 2.69536C39.554 3.09722 39.2673 3.45813 38.6223 3.24568C37.9082 3.01275 37.1684 3.238 36.4338 3.33783Z" fill="#F6F5E9"/>
<path d="M54.8298 31.821C54.8861 31.9055 54.9705 32.0591 55.0806 32.1973C55.6309 32.8884 56.1044 33.6691 57.0438 33.9199C57.1923 33.9609 57.3177 34.0556 57.2435 34.2424C57.182 34.4011 57.0361 34.4395 56.8851 34.4498C56.1608 34.5061 54.4612 32.9242 54.4765 32.1973C54.4816 32.054 54.5072 31.903 54.8298 31.821Z" fill="#F6F5E9"/>
<path d="M43.7902 1.44898C42.9378 1.78173 42.0932 2.12983 41.2306 2.43187C41.0079 2.51122 40.6675 2.92843 40.5113 2.45234C40.4089 2.13495 40.5907 1.71518 41.0079 1.62559C41.612 1.49505 42.2288 1.4157 42.8457 1.34403C43.1605 1.3082 43.483 1.33891 43.8004 1.33891C43.7979 1.37475 43.7927 1.41058 43.7902 1.44898Z" fill="#F6F5E9"/>
<path d="M51.6175 16.4763C51.2745 16.0565 50.8803 15.6674 50.6039 15.2093C50.3249 14.7485 50.4375 14.2955 50.9623 14.0344C51.167 13.932 51.4025 13.7861 51.6201 13.9576C51.83 14.1214 51.661 14.3364 51.6022 14.5233C51.4025 15.1606 51.6713 15.7749 51.6175 16.4763Z" fill="#F6F5E9"/>
<path d="M41.2254 29.8989C40.8389 29.9501 40.5625 29.4919 40.5471 29.1643C40.5292 28.8008 40.7135 28.317 41.3201 28.3068C41.914 28.2966 42.1341 28.7599 42.175 29.1259C42.2186 29.5149 41.8781 29.8682 41.2254 29.8989Z" fill="#F6F5E9"/>
<path d="M49.8846 18.6523C49.0502 18.7828 48.3412 18.6292 47.6603 18.3707C47.2815 18.2274 47.1842 17.8664 47.2149 17.4851C47.2354 17.2445 47.3071 16.9962 47.6066 16.9808C47.8369 16.9706 48.0366 17.1267 48.0417 17.3443C48.0622 18.1557 48.4231 18.3605 49.1782 18.125C49.4265 18.0482 49.6696 18.2683 49.8846 18.6523Z" fill="#F6F5E9"/>
<path d="M53.9006 23.126C53.6472 22.7702 53.1864 22.7139 52.887 22.4272C52.5184 22.074 52.4237 21.5263 52.7257 21.2319C53.0866 20.8812 53.4398 21.3573 53.6113 21.6594C53.8571 22.0894 54.4586 22.5091 53.875 23.1107C53.8775 23.1107 53.9006 23.126 53.9006 23.126Z" fill="#F6F5E9"/>
<path d="M31.8393 27.4237C31.9033 27.1754 31.9264 26.7735 32.1977 26.9476C32.5432 27.1703 33.2267 27.1472 33.1319 27.8178C33.0833 28.1557 32.9349 28.6088 32.5048 28.5217C31.9596 28.4066 31.9699 27.8281 31.8393 27.4237Z" fill="#F6F5E9"/>
<path d="M32.1184 25.2611C31.9853 25.6783 31.5425 25.7858 31.284 25.7525C30.8335 25.6988 30.708 25.1203 30.6696 24.8029C30.6159 24.3627 31.1483 24.5853 31.4171 24.529C32.0032 24.4036 31.9111 24.9718 32.1184 25.2611Z" fill="#F6F5E9"/>
<path d="M34.9774 4.32339C36.0397 3.8601 36.8818 3.60926 37.7572 3.47616C38.0183 3.43521 38.438 3.2458 38.4713 3.68349C38.4995 4.04184 38.0976 4.25428 37.7725 4.18773C36.9074 4.00344 36.0832 4.29012 34.9774 4.32339Z" fill="#F6F5E9"/>
<path d="M29.1441 14.6155C29.2234 14.6847 29.3028 14.7512 29.3821 14.8203C29.3924 14.8792 29.4077 14.9355 29.4128 14.9944C29.4384 15.4116 29.5024 15.9005 28.9188 15.9414C28.476 15.9721 28.3455 15.5677 28.3276 15.2017C28.2994 14.6181 28.6552 14.5055 29.1441 14.6155Z" fill="#F6F5E9"/>
<path d="M36.3724 13.0106C36.6822 13.0721 37.0354 13.1309 36.9995 13.5123C36.9637 13.8809 36.6105 13.9193 36.3059 13.9065C36.032 13.8937 35.73 13.822 35.7402 13.4765C35.753 13.09 36.0832 13.049 36.3724 13.0106Z" fill="#F6F5E9"/>
<path d="M39.6564 25.9881C39.5924 26.2646 39.7025 26.6203 39.3032 26.628C38.909 26.6357 38.8501 26.2902 38.8194 26.0035C38.7887 25.7322 38.8783 25.4199 39.1957 25.3968C39.6103 25.3661 39.5694 25.7578 39.6564 25.9881Z" fill="#F6F5E9"/>
<path d="M39.0575 13.9579C39.055 13.899 39.0498 13.8427 39.0524 13.7838C39.0934 13.1772 39.5618 13.3206 39.8945 13.3589C40.1479 13.3871 40.0558 13.6354 39.9355 13.7557C39.6872 14.004 39.4747 14.5748 39.037 13.9349C39.0396 13.9349 39.0575 13.9579 39.0575 13.9579Z" fill="#F6F5E9"/>
<path d="M33.7385 27.869C34.1378 28.1557 34.5217 28.3528 34.3297 28.7521C34.1941 29.0311 33.7385 29.0362 33.5465 28.834C33.1933 28.4654 33.8357 28.3093 33.7385 27.869Z" fill="#F6F5E9"/>
<path d="M46.2319 16.282C46.1449 16.2948 46.0605 16.3229 45.9734 16.3204C45.6407 16.3076 45.2542 16.433 45.0648 16.0209C45.0085 15.9006 45.1083 15.7931 45.2235 15.7547C45.6432 15.6165 45.8582 15.9236 46.0988 16.1719C46.1398 16.2129 46.1731 16.2615 46.2115 16.305C46.2115 16.2999 46.2319 16.282 46.2319 16.282Z" fill="#F6F5E9"/>
</g>
<rect x="0.694824" y="0.5" width="197.374" height="48.2555" stroke="#098770"/>
<defs>
<clipPath id="clip0_93_384">
<rect x="0.194824" width="198.374" height="49.2555" fill="white"/>
</clipPath>
</defs>
</svg>
