<svg xmlns="http://www.w3.org/2000/svg" xmlns:xlink="http://www.w3.org/1999/xlink" version="1.1" width="1000" height="1000" viewBox="0 0 1000 1000" xml:space="preserve">
<desc>Created with Fabric.js 3.5.0</desc>
<defs>
</defs>
<rect x="0" y="0" width="100%" height="100%" fill="#ffffff"/>
<g transform="matrix(0.9361 0 0 0.9361 499.9956 499.9897)" id="836469">
<rect style="stroke: none; stroke-width: 1; stroke-dasharray: none; stroke-linecap: butt; stroke-dashoffset: 0; stroke-linejoin: miter; stroke-miterlimit: 4; is-custom-font: none; font-file-url: none; fill: rgb(9,135,112); fill-rule: nonzero; opacity: 1;" vector-effect="non-scaling-stroke" x="-228.802" y="-534.12" rx="0" ry="0" width="457.604" height="1068.24"/>
</g>
<g transform="matrix(0.6481 0 0 0.9462 298.2407 500.0105)" id="352494">
<g style="" vector-effect="non-scaling-stroke">
		<g transform="matrix(1 0 0 1 1.1766 -460.8288)">
<path style="stroke: none; stroke-width: 1; stroke-dasharray: none; stroke-linecap: butt; stroke-dashoffset: 0; stroke-linejoin: miter; stroke-miterlimit: 4; is-custom-font: none; font-file-url: none; fill: rgb(246,245,233); fill-rule: nonzero; opacity: 1;" transform=" translate(-33.1766, -79.1712)" d="M 13.5447 1.44238 C 26.833 1.44238 40.182 1.44238 54.609 1.44238 C 54.3304 53.9258 53.4825 105.354 54.3062 156.9 C 39.8791 155.235 26.4454 153.77 13.4599 155.083 C 9.03847 103.936 14.6954 52.3432 13.5447 1.44238 Z M 15.0588 110.817 C 20.8369 111.52 26.6513 111.473 32.7444 111.098 C 32.7444 104.369 32.7444 98.2735 32.7444 91.5915 C 26.5786 91.9783 20.8248 91.6735 15.0588 93.7954 C 15.0588 99.1879 15.0588 104.405 15.0588 110.817 Z M 15.9431 50.3737 C 15.9431 55.8366 15.9431 61.0064 15.9431 66.6803 C 21.6364 66.4107 27.1722 66.1645 33.1078 65.8832 C 32.8534 60.1389 33.6529 54.7698 32.4536 49.2835 C 26.9905 48.2636 21.8787 49.2718 15.9431 50.3737 Z M 51.0719 45.6846 C 51.0719 39.448 51.0719 33.7038 51.0719 27.8424 C 45.8631 26.0839 40.9693 26.6583 35.4335 27.0335 C 35.8454 33.4342 36.2451 39.5067 36.657 45.8839 C 41.575 45.7901 46.0691 46.9038 51.0719 45.6846 Z M 31.6784 23.5869 C 33.0472 16.7291 32.0781 10.6917 31.4603 4.50204 C 26.0457 4.31447 21.3214 3.658 16.464 4.94751 C 17.433 11.313 16.1369 17.5496 17.7601 23.5752 C 22.4601 23.5869 26.8209 23.5869 31.6784 23.5869 Z M 50.7206 88.5317 C 50.7206 82.2014 50.7206 76.293 50.7206 70.2909 C 45.9479 69.4234 41.6598 69.0249 37.2142 69.3648 C 37.2142 76.1524 37.2142 82.4241 37.2142 88.7662 C 41.8657 89.3289 46.0327 89.6689 50.7206 88.5317 Z M 50.0423 114.897 C 45.4755 114.709 41.2358 113.525 37.2263 114.779 C 37.2263 121.661 37.2263 128.167 37.2263 134.673 C 41.7325 134.673 45.6693 134.673 50.0423 134.673 C 50.0423 127.921 50.0423 121.626 50.0423 114.897 Z M 32.9745 138.331 C 27.2812 139.257 22.0482 138.635 16.7668 140.417 C 16.1854 143.958 16.1854 147.346 16.6941 150.874 C 21.6727 152.351 26.5423 152.703 31.6178 151.8 C 32.9018 147.533 33.35 143.395 32.9745 138.331 Z" stroke-linecap="round"/>
</g>
		<g transform="matrix(1 0 0 1 -28.5115 -461.814)">
<path style="stroke: none; stroke-width: 1; stroke-dasharray: none; stroke-linecap: butt; stroke-dashoffset: 0; stroke-linejoin: miter; stroke-miterlimit: 4; is-custom-font: none; font-file-url: none; fill: rgb(246,245,233); fill-rule: nonzero; opacity: 1;" transform=" translate(-3.4885, -78.186)" d="M 3.39391 156.372 C 1.32252 150.592 2.4975 145.481 2.17044 140.628 C 0.474571 115.107 -1.01536 89.516 1.74649 64.007 C 3.7452 45.52 4.64159 27.0564 4.03592 8.4991 C 3.96324 6.11935 3.73309 3.75133 3.49082 -1.43023e-7 C 7.14906 3.25896 6.60395 6.23656 6.66452 8.9211 C 7.1006 28.0646 6.02251 47.1495 4.67792 66.2461 C 2.69133 94.3341 3.61194 122.41 6.14364 150.44 C 6.32534 152.55 6.36168 152.55 3.39391 156.372 Z" stroke-linecap="round"/>
</g>
		<g transform="matrix(1 0 0 1 29.7739 -458.2091)">
<path style="stroke: none; stroke-width: 1; stroke-dasharray: none; stroke-linecap: butt; stroke-dashoffset: 0; stroke-linejoin: miter; stroke-miterlimit: 4; is-custom-font: none; font-file-url: none; fill: rgb(246,245,233); fill-rule: nonzero; opacity: 1;" transform=" translate(-61.7739, -81.791)" d="M 61.4169 4.41992 C 64.3967 56.1765 64.8934 107.452 62.4101 159.162 C 58.8004 157.931 59.5999 155.212 59.6725 152.879 C 60.2661 135.716 61.1867 118.566 61.4532 101.403 C 61.8166 77.8053 60.6779 54.2188 59.8663 30.6324 C 59.6241 23.6104 59.6846 16.5883 59.7331 9.56629 C 59.7573 7.9837 59.0669 6.11974 61.4169 4.41992 Z" stroke-linecap="round"/>
</g>
		<g transform="matrix(1 0 0 1 1.1766 -200.0295)">
<path style="stroke: none; stroke-width: 1; stroke-dasharray: none; stroke-linecap: butt; stroke-dashoffset: 0; stroke-linejoin: miter; stroke-miterlimit: 4; is-custom-font: none; font-file-url: none; fill: rgb(246,245,233); fill-rule: nonzero; opacity: 1;" transform=" translate(-33.1766, -339.9705)" d="M 13.5447 262.242 C 26.833 262.242 40.182 262.242 54.609 262.242 C 54.3304 314.725 53.4825 366.153 54.3062 417.699 C 39.8791 416.034 26.4454 414.569 13.4599 415.882 C 9.03847 364.735 14.6954 313.142 13.5447 262.242 Z M 15.0588 371.616 C 20.8369 372.32 26.6513 372.273 32.7444 371.898 C 32.7444 365.169 32.7444 359.073 32.7444 352.391 C 26.5786 352.778 20.8248 352.473 15.0588 354.595 C 15.0588 359.987 15.0588 365.204 15.0588 371.616 Z M 15.9431 311.173 C 15.9431 316.636 15.9431 321.806 15.9431 327.48 C 21.6364 327.21 27.1722 326.964 33.1078 326.682 C 32.8534 320.938 33.6529 315.569 32.4536 310.083 C 26.9905 309.063 21.8787 310.071 15.9431 311.173 Z M 51.0719 306.484 C 51.0719 300.247 51.0719 294.503 51.0719 288.642 C 45.8631 286.883 40.9693 287.458 35.4335 287.833 C 35.8454 294.233 36.2451 300.306 36.657 306.683 C 41.575 306.589 46.0691 307.703 51.0719 306.484 Z M 31.6784 284.386 C 33.0472 277.528 32.0781 271.491 31.4603 265.301 C 26.0457 265.114 21.3214 264.457 16.464 265.747 C 17.433 272.112 16.1369 278.349 17.7601 284.375 C 22.4601 284.386 26.8209 284.386 31.6784 284.386 Z M 50.7206 349.331 C 50.7206 343.001 50.7206 337.092 50.7206 331.09 C 45.9479 330.223 41.6598 329.824 37.2142 330.164 C 37.2142 336.952 37.2142 343.223 37.2142 349.566 C 41.8657 350.128 46.0327 350.468 50.7206 349.331 Z M 50.0423 375.696 C 45.4755 375.508 41.2358 374.324 37.2263 375.579 C 37.2263 382.46 37.2263 388.966 37.2263 395.472 C 41.7325 395.472 45.6693 395.472 50.0423 395.472 C 50.0423 388.72 50.0423 382.425 50.0423 375.696 Z M 32.9745 399.13 C 27.2812 400.056 22.0482 399.435 16.7668 401.217 C 16.1854 404.757 16.1854 408.145 16.6941 411.673 C 21.6727 413.151 26.5423 413.502 31.6178 412.6 C 32.9018 408.332 33.35 404.194 32.9745 399.13 Z" stroke-linecap="round"/>
</g>
		<g transform="matrix(1 0 0 1 -28.5115 -201.014)">
<path style="stroke: none; stroke-width: 1; stroke-dasharray: none; stroke-linecap: butt; stroke-dashoffset: 0; stroke-linejoin: miter; stroke-miterlimit: 4; is-custom-font: none; font-file-url: none; fill: rgb(246,245,233); fill-rule: nonzero; opacity: 1;" transform=" translate(-3.4885, -338.986)" d="M 3.3939 417.172 C 1.32252 411.392 2.4975 406.281 2.17044 401.428 C 0.474571 375.907 -1.01536 350.316 1.74649 324.807 C 3.7452 306.32 4.64159 287.856 4.03592 269.299 C 3.96324 266.919 3.73309 264.551 3.49082 260.8 C 7.14906 264.059 6.60395 267.036 6.66452 269.721 C 7.1006 288.864 6.02251 307.949 4.67792 327.046 C 2.69133 355.134 3.61194 383.21 6.14364 411.24 C 6.32534 413.35 6.36168 413.35 3.3939 417.172 Z" stroke-linecap="round"/>
</g>
		<g transform="matrix(1 0 0 1 29.7739 -197.409)">
<path style="stroke: none; stroke-width: 1; stroke-dasharray: none; stroke-linecap: butt; stroke-dashoffset: 0; stroke-linejoin: miter; stroke-miterlimit: 4; is-custom-font: none; font-file-url: none; fill: rgb(246,245,233); fill-rule: nonzero; opacity: 1;" transform=" translate(-61.7739, -342.591)" d="M 61.4169 265.22 C 64.3967 316.976 64.8934 368.252 62.4101 419.962 C 58.8004 418.731 59.5999 416.011 59.6725 413.678 C 60.2661 396.516 61.1867 379.366 61.4532 362.203 C 61.8166 338.605 60.6779 315.019 59.8663 291.432 C 59.6241 284.41 59.6846 277.388 59.7331 270.366 C 59.7573 268.784 59.0669 266.92 61.4169 265.22 Z" stroke-linecap="round"/>
</g>
		<g transform="matrix(1 0 0 1 1.1766 -330.642)">
<path style="stroke: none; stroke-width: 1; stroke-dasharray: none; stroke-linecap: butt; stroke-dashoffset: 0; stroke-linejoin: miter; stroke-miterlimit: 4; is-custom-font: none; font-file-url: none; fill: rgb(246,245,233); fill-rule: nonzero; opacity: 1;" transform=" translate(-33.1766, -209.358)" d="M 13.5447 131.629 C 26.833 131.629 40.182 131.629 54.609 131.629 C 54.3304 184.113 53.4825 235.541 54.3062 287.087 C 39.8791 285.422 26.4454 283.957 13.4599 285.27 C 9.03847 234.123 14.6954 182.53 13.5447 131.629 Z M 15.0588 241.004 C 20.8369 241.707 26.6513 241.66 32.7444 241.285 C 32.7444 234.556 32.7444 228.461 32.7444 221.778 C 26.5786 222.165 20.8248 221.861 15.0588 223.982 C 15.0588 229.375 15.0588 234.592 15.0588 241.004 Z M 15.9431 180.561 C 15.9431 186.024 15.9431 191.193 15.9431 196.867 C 21.6364 196.598 27.1722 196.352 33.1078 196.07 C 32.8534 190.326 33.6529 184.957 32.4536 179.471 C 26.9905 178.451 21.8787 179.459 15.9431 180.561 Z M 51.0719 175.872 C 51.0719 169.635 51.0719 163.891 51.0719 158.029 C 45.8631 156.271 40.9693 156.845 35.4335 157.22 C 35.8454 163.621 36.2451 169.694 36.657 176.071 C 41.575 175.977 46.0691 177.091 51.0719 175.872 Z M 31.6784 153.774 C 33.0472 146.916 32.0781 140.879 31.4603 134.689 C 26.0457 134.501 21.3214 133.845 16.464 135.135 C 17.433 141.5 16.1369 147.737 17.7601 153.762 C 22.4601 153.774 26.8209 153.774 31.6784 153.774 Z M 50.7206 218.719 C 50.7206 212.388 50.7206 206.48 50.7206 200.478 C 45.9479 199.61 41.6598 199.212 37.2142 199.552 C 37.2142 206.339 37.2142 212.611 37.2142 218.953 C 41.8657 219.516 46.0327 219.856 50.7206 218.719 Z M 50.0423 245.084 C 45.4755 244.896 41.2358 243.712 37.2263 244.966 C 37.2263 251.848 37.2263 258.354 37.2263 264.86 C 41.7325 264.86 45.6693 264.86 50.0423 264.86 C 50.0423 258.108 50.0423 251.813 50.0423 245.084 Z M 32.9745 268.518 C 27.2812 269.444 22.0482 268.822 16.7668 270.604 C 16.1854 274.145 16.1854 277.533 16.6941 281.061 C 21.6727 282.538 26.5423 282.89 31.6178 281.987 C 32.9018 277.72 33.35 273.582 32.9745 268.518 Z" stroke-linecap="round"/>
</g>
		<g transform="matrix(1 0 0 1 -28.5119 -317.4295)">
<path style="stroke: none; stroke-width: 1; stroke-dasharray: none; stroke-linecap: butt; stroke-dashoffset: 0; stroke-linejoin: miter; stroke-miterlimit: 4; is-custom-font: none; font-file-url: none; fill: rgb(246,245,233); fill-rule: nonzero; opacity: 1;" transform=" translate(-3.4881, -222.5705)" d="M 3.39355 144.385 C 1.32216 150.164 2.49715 155.275 2.17009 160.129 C 0.474215 185.649 -1.01572 211.24 1.74613 236.749 C 3.74484 255.236 4.64122 273.7 4.03555 292.257 C 3.96287 294.637 3.73272 297.005 3.49046 300.756 C 7.1487 297.497 6.60359 294.52 6.66416 291.835 C 7.10024 272.692 6.02215 253.607 4.67756 234.51 C 2.69097 206.422 3.61159 178.346 6.14329 150.317 C 6.32499 148.206 6.36133 148.206 3.39355 144.385 Z" stroke-linecap="round"/>
</g>
		<g transform="matrix(1 0 0 1 29.7739 -322.849)">
<path style="stroke: none; stroke-width: 1; stroke-dasharray: none; stroke-linecap: butt; stroke-dashoffset: 0; stroke-linejoin: miter; stroke-miterlimit: 4; is-custom-font: none; font-file-url: none; fill: rgb(246,245,233); fill-rule: nonzero; opacity: 1;" transform=" translate(-61.7739, -217.151)" d="M 61.4169 139.78 C 64.3967 191.537 64.8934 242.813 62.4101 294.522 C 58.8004 293.292 59.5999 290.572 59.6725 288.239 C 60.2661 271.077 61.1867 253.926 61.4532 236.764 C 61.8166 213.166 60.6779 189.579 59.8663 165.993 C 59.6241 158.971 59.6846 151.949 59.7331 144.927 C 59.7573 143.344 59.0669 141.48 61.4169 139.78 Z" stroke-linecap="round"/>
</g>
		<g transform="matrix(1 0 0 1 1.1766 -69.8425)">
<path style="stroke: none; stroke-width: 1; stroke-dasharray: none; stroke-linecap: butt; stroke-dashoffset: 0; stroke-linejoin: miter; stroke-miterlimit: 4; is-custom-font: none; font-file-url: none; fill: rgb(246,245,233); fill-rule: nonzero; opacity: 1;" transform=" translate(-33.1766, -470.1575)" d="M 13.5447 392.429 C 26.833 392.429 40.182 392.429 54.609 392.429 C 54.3304 444.912 53.4825 496.34 54.3062 547.886 C 39.8791 546.221 26.4454 544.756 13.4599 546.069 C 9.03847 494.922 14.6954 443.33 13.5447 392.429 Z M 15.0588 501.803 C 20.8369 502.507 26.6513 502.46 32.7444 502.085 C 32.7444 495.356 32.7444 489.26 32.7444 482.578 C 26.5786 482.965 20.8248 482.66 15.0588 484.782 C 15.0588 490.174 15.0588 495.391 15.0588 501.803 Z M 15.9431 441.36 C 15.9431 446.823 15.9431 451.993 15.9431 457.667 C 21.6364 457.397 27.1722 457.151 33.1078 456.869 C 32.8534 451.125 33.6529 445.756 32.4536 440.27 C 26.9905 439.25 21.8787 440.258 15.9431 441.36 Z M 51.0719 436.671 C 51.0719 430.434 51.0719 424.69 51.0719 418.829 C 45.8631 417.07 40.9693 417.645 35.4335 418.02 C 35.8454 424.421 36.2451 430.493 36.657 436.87 C 41.575 436.776 46.0691 437.89 51.0719 436.671 Z M 31.6784 414.573 C 33.0472 407.715 32.0781 401.678 31.4603 395.488 C 26.0457 395.301 21.3214 394.644 16.464 395.934 C 17.433 402.299 16.1369 408.536 17.7601 414.562 C 22.4601 414.573 26.8209 414.573 31.6784 414.573 Z M 50.7206 479.518 C 50.7206 473.188 50.7206 467.279 50.7206 461.277 C 45.9479 460.41 41.6598 460.011 37.2142 460.351 C 37.2142 467.139 37.2142 473.41 37.2142 479.753 C 41.8657 480.315 46.0327 480.655 50.7206 479.518 Z M 50.0423 505.883 C 45.4755 505.695 41.2358 504.511 37.2263 505.766 C 37.2263 512.647 37.2263 519.153 37.2263 525.659 C 41.7325 525.659 45.6693 525.659 50.0423 525.659 C 50.0423 518.907 50.0423 512.612 50.0423 505.883 Z M 32.9745 529.317 C 27.2812 530.243 22.0482 529.622 16.7668 531.404 C 16.1854 534.944 16.1854 538.332 16.6941 541.86 C 21.6727 543.338 26.5423 543.689 31.6178 542.787 C 32.9018 538.519 33.35 534.381 32.9745 529.317 Z" stroke-linecap="round"/>
</g>
		<g transform="matrix(1 0 0 1 -28.5119 -56.63)">
<path style="stroke: none; stroke-width: 1; stroke-dasharray: none; stroke-linecap: butt; stroke-dashoffset: 0; stroke-linejoin: miter; stroke-miterlimit: 4; is-custom-font: none; font-file-url: none; fill: rgb(246,245,233); fill-rule: nonzero; opacity: 1;" transform=" translate(-3.4881, -483.37)" d="M 3.39355 405.184 C 1.32216 410.963 2.49715 416.075 2.17009 420.928 C 0.474215 446.449 -1.01572 472.04 1.74613 497.549 C 3.74484 516.036 4.64122 534.499 4.03555 553.057 C 3.96287 555.436 3.73272 557.804 3.49046 561.556 C 7.1487 558.297 6.60359 555.319 6.66416 552.635 C 7.10024 533.491 6.02215 514.406 4.67756 495.31 C 2.69097 467.222 3.61159 439.145 6.14329 411.116 C 6.32499 409.006 6.36133 409.006 3.39355 405.184 Z" stroke-linecap="round"/>
</g>
		<g transform="matrix(1 0 0 1 29.7739 -62.049)">
<path style="stroke: none; stroke-width: 1; stroke-dasharray: none; stroke-linecap: butt; stroke-dashoffset: 0; stroke-linejoin: miter; stroke-miterlimit: 4; is-custom-font: none; font-file-url: none; fill: rgb(246,245,233); fill-rule: nonzero; opacity: 1;" transform=" translate(-61.7739, -477.951)" d="M 61.4169 400.58 C 64.3967 452.336 64.8934 503.612 62.4101 555.322 C 58.8004 554.091 59.5999 551.371 59.6725 549.038 C 60.2661 531.876 61.1867 514.725 61.4532 497.563 C 61.8166 473.965 60.6779 450.378 59.8663 426.792 C 59.6241 419.77 59.6846 412.748 59.7331 405.726 C 59.7573 404.143 59.0669 402.279 61.4169 400.58 Z" stroke-linecap="round"/>
</g>
		<g transform="matrix(1 0 0 1 1.1766 -460.8288)">
<path style="stroke: none; stroke-width: 1; stroke-dasharray: none; stroke-linecap: butt; stroke-dashoffset: 0; stroke-linejoin: miter; stroke-miterlimit: 4; is-custom-font: none; font-file-url: none; fill: rgb(246,245,233); fill-rule: nonzero; opacity: 1;" transform=" translate(-33.1766, -79.1712)" d="M 13.5447 1.44238 C 26.833 1.44238 40.182 1.44238 54.609 1.44238 C 54.3304 53.9258 53.4825 105.354 54.3062 156.9 C 39.8791 155.235 26.4454 153.77 13.4599 155.083 C 9.03847 103.936 14.6954 52.3432 13.5447 1.44238 Z M 15.0588 110.817 C 20.8369 111.52 26.6513 111.473 32.7444 111.098 C 32.7444 104.369 32.7444 98.2735 32.7444 91.5915 C 26.5786 91.9783 20.8248 91.6735 15.0588 93.7954 C 15.0588 99.1879 15.0588 104.405 15.0588 110.817 Z M 15.9431 50.3737 C 15.9431 55.8366 15.9431 61.0064 15.9431 66.6803 C 21.6364 66.4107 27.1722 66.1645 33.1078 65.8832 C 32.8534 60.1389 33.6529 54.7698 32.4536 49.2835 C 26.9905 48.2636 21.8787 49.2718 15.9431 50.3737 Z M 51.0719 45.6846 C 51.0719 39.448 51.0719 33.7038 51.0719 27.8424 C 45.8631 26.0839 40.9693 26.6583 35.4335 27.0335 C 35.8454 33.4342 36.2451 39.5067 36.657 45.8839 C 41.575 45.7901 46.0691 46.9038 51.0719 45.6846 Z M 31.6784 23.5869 C 33.0472 16.7291 32.0781 10.6917 31.4603 4.50204 C 26.0457 4.31447 21.3214 3.658 16.464 4.94751 C 17.433 11.313 16.1369 17.5496 17.7601 23.5752 C 22.4601 23.5869 26.8209 23.5869 31.6784 23.5869 Z M 50.7206 88.5317 C 50.7206 82.2014 50.7206 76.293 50.7206 70.2909 C 45.9479 69.4234 41.6598 69.0249 37.2142 69.3648 C 37.2142 76.1524 37.2142 82.4241 37.2142 88.7662 C 41.8657 89.3289 46.0327 89.6689 50.7206 88.5317 Z M 50.0423 114.897 C 45.4755 114.709 41.2358 113.525 37.2263 114.779 C 37.2263 121.661 37.2263 128.167 37.2263 134.673 C 41.7325 134.673 45.6693 134.673 50.0423 134.673 C 50.0423 127.921 50.0423 121.626 50.0423 114.897 Z M 32.9745 138.331 C 27.2812 139.257 22.0482 138.635 16.7668 140.417 C 16.1854 143.958 16.1854 147.346 16.6941 150.874 C 21.6727 152.351 26.5423 152.703 31.6178 151.8 C 32.9018 147.533 33.35 143.395 32.9745 138.331 Z" stroke-linecap="round"/>
</g>
		<g transform="matrix(1 0 0 1 -28.5115 -461.814)">
<path style="stroke: none; stroke-width: 1; stroke-dasharray: none; stroke-linecap: butt; stroke-dashoffset: 0; stroke-linejoin: miter; stroke-miterlimit: 4; is-custom-font: none; font-file-url: none; fill: rgb(246,245,233); fill-rule: nonzero; opacity: 1;" transform=" translate(-3.4885, -78.186)" d="M 3.39391 156.372 C 1.32252 150.592 2.4975 145.481 2.17044 140.628 C 0.474571 115.107 -1.01536 89.516 1.74649 64.007 C 3.7452 45.52 4.64159 27.0564 4.03592 8.4991 C 3.96324 6.11935 3.73309 3.75133 3.49082 -1.43023e-7 C 7.14906 3.25896 6.60395 6.23656 6.66452 8.9211 C 7.1006 28.0646 6.02251 47.1495 4.67792 66.2461 C 2.69133 94.3341 3.61194 122.41 6.14364 150.44 C 6.32534 152.55 6.36168 152.55 3.39391 156.372 Z" stroke-linecap="round"/>
</g>
		<g transform="matrix(1 0 0 1 29.7739 -458.2091)">
<path style="stroke: none; stroke-width: 1; stroke-dasharray: none; stroke-linecap: butt; stroke-dashoffset: 0; stroke-linejoin: miter; stroke-miterlimit: 4; is-custom-font: none; font-file-url: none; fill: rgb(246,245,233); fill-rule: nonzero; opacity: 1;" transform=" translate(-61.7739, -81.791)" d="M 61.4169 4.41992 C 64.3967 56.1765 64.8934 107.452 62.4101 159.162 C 58.8004 157.931 59.5999 155.212 59.6725 152.879 C 60.2661 135.716 61.1867 118.566 61.4532 101.403 C 61.8166 77.8053 60.6779 54.2188 59.8663 30.6324 C 59.6241 23.6104 59.6846 16.5883 59.7331 9.56629 C 59.7573 7.9837 59.0669 6.11974 61.4169 4.41992 Z" stroke-linecap="round"/>
</g>
		<g transform="matrix(1 0 0 1 1.1766 -200.0305)">
<path style="stroke: none; stroke-width: 1; stroke-dasharray: none; stroke-linecap: butt; stroke-dashoffset: 0; stroke-linejoin: miter; stroke-miterlimit: 4; is-custom-font: none; font-file-url: none; fill: rgb(246,245,233); fill-rule: nonzero; opacity: 1;" transform=" translate(-33.1766, -339.9695)" d="M 13.5447 262.241 C 26.833 262.241 40.182 262.241 54.609 262.241 C 54.3304 314.725 53.4825 366.153 54.3062 417.698 C 39.8791 416.034 26.4454 414.568 13.4599 415.881 C 9.03847 364.734 14.6954 313.142 13.5447 262.241 Z M 15.0588 371.616 C 20.8369 372.319 26.6513 372.272 32.7444 371.897 C 32.7444 365.168 32.7444 359.072 32.7444 352.39 C 26.5786 352.777 20.8248 352.472 15.0588 354.594 C 15.0588 359.987 15.0588 365.203 15.0588 371.616 Z M 15.9431 311.173 C 15.9431 316.635 15.9431 321.805 15.9431 327.479 C 21.6364 327.21 27.1722 326.963 33.1078 326.682 C 32.8534 320.938 33.6529 315.569 32.4536 310.082 C 26.9905 309.062 21.8787 310.071 15.9431 311.173 Z M 51.0719 306.483 C 51.0719 300.247 51.0719 294.503 51.0719 288.641 C 45.8631 286.883 40.9693 287.457 35.4335 287.832 C 35.8454 294.233 36.2451 300.305 36.657 306.683 C 41.575 306.589 46.0691 307.703 51.0719 306.483 Z M 31.6784 284.386 C 33.0472 277.528 32.0781 271.491 31.4603 265.301 C 26.0457 265.113 21.3214 264.457 16.464 265.746 C 17.433 272.112 16.1369 278.348 17.7601 284.374 C 22.4601 284.386 26.8209 284.386 31.6784 284.386 Z M 50.7206 349.331 C 50.7206 343 50.7206 337.092 50.7206 331.09 C 45.9479 330.222 41.6598 329.824 37.2142 330.164 C 37.2142 336.951 37.2142 343.223 37.2142 349.565 C 41.8657 350.128 46.0327 350.468 50.7206 349.331 Z M 50.0423 375.695 C 45.4755 375.508 41.2358 374.324 37.2263 375.578 C 37.2263 382.459 37.2263 388.966 37.2263 395.472 C 41.7325 395.472 45.6693 395.472 50.0423 395.472 C 50.0423 388.72 50.0423 382.424 50.0423 375.695 Z M 32.9745 399.129 C 27.2812 400.056 22.0482 399.434 16.7668 401.216 C 16.1854 404.756 16.1854 408.144 16.6941 411.673 C 21.6727 413.15 26.5423 413.502 31.6178 412.599 C 32.9018 408.332 33.35 404.194 32.9745 399.129 Z" stroke-linecap="round"/>
</g>
		<g transform="matrix(1 0 0 1 -28.5115 -201.015)">
<path style="stroke: none; stroke-width: 1; stroke-dasharray: none; stroke-linecap: butt; stroke-dashoffset: 0; stroke-linejoin: miter; stroke-miterlimit: 4; is-custom-font: none; font-file-url: none; fill: rgb(246,245,233); fill-rule: nonzero; opacity: 1;" transform=" translate(-3.4885, -338.985)" d="M 3.3939 417.171 C 1.32252 411.392 2.4975 406.28 2.17044 401.427 C 0.474571 375.906 -1.01536 350.315 1.74649 324.806 C 3.7452 306.319 4.64159 287.856 4.03592 269.298 C 3.96324 266.919 3.73309 264.551 3.49082 260.799 C 7.14906 264.058 6.60395 267.036 6.66452 269.72 C 7.1006 288.864 6.02251 307.949 4.67792 327.045 C 2.69133 355.133 3.61194 383.21 6.14364 411.239 C 6.32534 413.349 6.36168 413.349 3.3939 417.171 Z" stroke-linecap="round"/>
</g>
		<g transform="matrix(1 0 0 1 29.7739 -197.41)">
<path style="stroke: none; stroke-width: 1; stroke-dasharray: none; stroke-linecap: butt; stroke-dashoffset: 0; stroke-linejoin: miter; stroke-miterlimit: 4; is-custom-font: none; font-file-url: none; fill: rgb(246,245,233); fill-rule: nonzero; opacity: 1;" transform=" translate(-61.7739, -342.59)" d="M 61.4169 265.219 C 64.3967 316.976 64.8934 368.252 62.4101 419.961 C 58.8004 418.731 59.5999 416.011 59.6725 413.678 C 60.2661 396.516 61.1867 379.365 61.4532 362.203 C 61.8166 338.605 60.6779 315.018 59.8663 291.432 C 59.6241 284.41 59.6846 277.388 59.7331 270.366 C 59.7573 268.783 59.0669 266.919 61.4169 265.219 Z" stroke-linecap="round"/>
</g>
		<g transform="matrix(1 0 0 1 1.1766 -330.642)">
<path style="stroke: none; stroke-width: 1; stroke-dasharray: none; stroke-linecap: butt; stroke-dashoffset: 0; stroke-linejoin: miter; stroke-miterlimit: 4; is-custom-font: none; font-file-url: none; fill: rgb(246,245,233); fill-rule: nonzero; opacity: 1;" transform=" translate(-33.1766, -209.358)" d="M 13.5447 131.629 C 26.833 131.629 40.182 131.629 54.609 131.629 C 54.3304 184.113 53.4825 235.541 54.3062 287.087 C 39.8791 285.422 26.4454 283.957 13.4599 285.27 C 9.03847 234.123 14.6954 182.53 13.5447 131.629 Z M 15.0588 241.004 C 20.8369 241.707 26.6513 241.66 32.7444 241.285 C 32.7444 234.556 32.7444 228.461 32.7444 221.778 C 26.5786 222.165 20.8248 221.861 15.0588 223.982 C 15.0588 229.375 15.0588 234.592 15.0588 241.004 Z M 15.9431 180.561 C 15.9431 186.024 15.9431 191.193 15.9431 196.867 C 21.6364 196.598 27.1722 196.352 33.1078 196.07 C 32.8534 190.326 33.6529 184.957 32.4536 179.471 C 26.9905 178.451 21.8787 179.459 15.9431 180.561 Z M 51.0719 175.872 C 51.0719 169.635 51.0719 163.891 51.0719 158.029 C 45.8631 156.271 40.9693 156.845 35.4335 157.22 C 35.8454 163.621 36.2451 169.694 36.657 176.071 C 41.575 175.977 46.0691 177.091 51.0719 175.872 Z M 31.6784 153.774 C 33.0472 146.916 32.0781 140.879 31.4603 134.689 C 26.0457 134.501 21.3214 133.845 16.464 135.135 C 17.433 141.5 16.1369 147.737 17.7601 153.762 C 22.4601 153.774 26.8209 153.774 31.6784 153.774 Z M 50.7206 218.719 C 50.7206 212.388 50.7206 206.48 50.7206 200.478 C 45.9479 199.61 41.6598 199.212 37.2142 199.552 C 37.2142 206.339 37.2142 212.611 37.2142 218.953 C 41.8657 219.516 46.0327 219.856 50.7206 218.719 Z M 50.0423 245.084 C 45.4755 244.896 41.2358 243.712 37.2263 244.966 C 37.2263 251.848 37.2263 258.354 37.2263 264.86 C 41.7325 264.86 45.6693 264.86 50.0423 264.86 C 50.0423 258.108 50.0423 251.813 50.0423 245.084 Z M 32.9745 268.518 C 27.2812 269.444 22.0482 268.822 16.7668 270.604 C 16.1854 274.145 16.1854 277.533 16.6941 281.061 C 21.6727 282.538 26.5423 282.89 31.6178 281.987 C 32.9018 277.72 33.35 273.582 32.9745 268.518 Z" stroke-linecap="round"/>
</g>
		<g transform="matrix(1 0 0 1 -28.5119 -317.4295)">
<path style="stroke: none; stroke-width: 1; stroke-dasharray: none; stroke-linecap: butt; stroke-dashoffset: 0; stroke-linejoin: miter; stroke-miterlimit: 4; is-custom-font: none; font-file-url: none; fill: rgb(246,245,233); fill-rule: nonzero; opacity: 1;" transform=" translate(-3.4881, -222.5705)" d="M 3.39355 144.385 C 1.32216 150.164 2.49715 155.275 2.17009 160.129 C 0.474215 185.649 -1.01572 211.24 1.74613 236.749 C 3.74484 255.236 4.64122 273.7 4.03555 292.257 C 3.96287 294.637 3.73272 297.005 3.49046 300.756 C 7.1487 297.497 6.60359 294.52 6.66416 291.835 C 7.10024 272.692 6.02215 253.607 4.67756 234.51 C 2.69097 206.422 3.61159 178.346 6.14329 150.317 C 6.32499 148.206 6.36133 148.206 3.39355 144.385 Z" stroke-linecap="round"/>
</g>
		<g transform="matrix(1 0 0 1 29.7739 -322.849)">
<path style="stroke: none; stroke-width: 1; stroke-dasharray: none; stroke-linecap: butt; stroke-dashoffset: 0; stroke-linejoin: miter; stroke-miterlimit: 4; is-custom-font: none; font-file-url: none; fill: rgb(246,245,233); fill-rule: nonzero; opacity: 1;" transform=" translate(-61.7739, -217.151)" d="M 61.4169 139.78 C 64.3967 191.537 64.8934 242.813 62.4101 294.522 C 58.8004 293.292 59.5999 290.572 59.6725 288.239 C 60.2661 271.077 61.1867 253.926 61.4532 236.764 C 61.8166 213.166 60.6779 189.579 59.8663 165.993 C 59.6241 158.971 59.6846 151.949 59.7331 144.927 C 59.7573 143.344 59.0669 141.48 61.4169 139.78 Z" stroke-linecap="round"/>
</g>
		<g transform="matrix(1 0 0 1 1.1766 -69.8425)">
<path style="stroke: none; stroke-width: 1; stroke-dasharray: none; stroke-linecap: butt; stroke-dashoffset: 0; stroke-linejoin: miter; stroke-miterlimit: 4; is-custom-font: none; font-file-url: none; fill: rgb(246,245,233); fill-rule: nonzero; opacity: 1;" transform=" translate(-33.1766, -470.1575)" d="M 13.5447 392.429 C 26.833 392.429 40.182 392.429 54.609 392.429 C 54.3304 444.912 53.4825 496.34 54.3062 547.886 C 39.8791 546.221 26.4454 544.756 13.4599 546.069 C 9.03847 494.922 14.6954 443.33 13.5447 392.429 Z M 15.0588 501.803 C 20.8369 502.507 26.6513 502.46 32.7444 502.085 C 32.7444 495.356 32.7444 489.26 32.7444 482.578 C 26.5786 482.965 20.8248 482.66 15.0588 484.782 C 15.0588 490.174 15.0588 495.391 15.0588 501.803 Z M 15.9431 441.36 C 15.9431 446.823 15.9431 451.993 15.9431 457.667 C 21.6364 457.397 27.1722 457.151 33.1078 456.869 C 32.8534 451.125 33.6529 445.756 32.4536 440.27 C 26.9905 439.25 21.8787 440.258 15.9431 441.36 Z M 51.0719 436.671 C 51.0719 430.434 51.0719 424.69 51.0719 418.829 C 45.8631 417.07 40.9693 417.645 35.4335 418.02 C 35.8454 424.421 36.2451 430.493 36.657 436.87 C 41.575 436.776 46.0691 437.89 51.0719 436.671 Z M 31.6784 414.573 C 33.0472 407.715 32.0781 401.678 31.4603 395.488 C 26.0457 395.301 21.3214 394.644 16.464 395.934 C 17.433 402.299 16.1369 408.536 17.7601 414.562 C 22.4601 414.573 26.8209 414.573 31.6784 414.573 Z M 50.7206 479.518 C 50.7206 473.188 50.7206 467.279 50.7206 461.277 C 45.9479 460.41 41.6598 460.011 37.2142 460.351 C 37.2142 467.139 37.2142 473.41 37.2142 479.753 C 41.8657 480.315 46.0327 480.655 50.7206 479.518 Z M 50.0423 505.883 C 45.4755 505.695 41.2358 504.511 37.2263 505.766 C 37.2263 512.647 37.2263 519.153 37.2263 525.659 C 41.7325 525.659 45.6693 525.659 50.0423 525.659 C 50.0423 518.907 50.0423 512.612 50.0423 505.883 Z M 32.9745 529.317 C 27.2812 530.243 22.0482 529.622 16.7668 531.404 C 16.1854 534.944 16.1854 538.332 16.6941 541.86 C 21.6727 543.338 26.5423 543.689 31.6178 542.787 C 32.9018 538.519 33.35 534.381 32.9745 529.317 Z" stroke-linecap="round"/>
</g>
		<g transform="matrix(1 0 0 1 -28.5119 -56.63)">
<path style="stroke: none; stroke-width: 1; stroke-dasharray: none; stroke-linecap: butt; stroke-dashoffset: 0; stroke-linejoin: miter; stroke-miterlimit: 4; is-custom-font: none; font-file-url: none; fill: rgb(246,245,233); fill-rule: nonzero; opacity: 1;" transform=" translate(-3.4881, -483.37)" d="M 3.39355 405.184 C 1.32216 410.963 2.49715 416.075 2.17009 420.928 C 0.474215 446.449 -1.01572 472.04 1.74613 497.549 C 3.74484 516.036 4.64122 534.499 4.03555 553.057 C 3.96287 555.436 3.73272 557.804 3.49046 561.556 C 7.1487 558.297 6.60359 555.319 6.66416 552.635 C 7.10024 533.491 6.02215 514.406 4.67756 495.31 C 2.69097 467.222 3.61159 439.145 6.14329 411.116 C 6.32499 409.006 6.36133 409.006 3.39355 405.184 Z" stroke-linecap="round"/>
</g>
		<g transform="matrix(1 0 0 1 29.7739 -62.049)">
<path style="stroke: none; stroke-width: 1; stroke-dasharray: none; stroke-linecap: butt; stroke-dashoffset: 0; stroke-linejoin: miter; stroke-miterlimit: 4; is-custom-font: none; font-file-url: none; fill: rgb(246,245,233); fill-rule: nonzero; opacity: 1;" transform=" translate(-61.7739, -477.951)" d="M 61.4169 400.58 C 64.3967 452.336 64.8934 503.612 62.4101 555.322 C 58.8004 554.091 59.5999 551.371 59.6725 549.038 C 60.2661 531.876 61.1867 514.725 61.4532 497.563 C 61.8166 473.965 60.6779 450.378 59.8663 426.792 C 59.6241 419.77 59.6846 412.748 59.7331 405.726 C 59.7573 404.143 59.0669 402.279 61.4169 400.58 Z" stroke-linecap="round"/>
</g>
		<g transform="matrix(1 0 0 1 1.1764 57.614)">
<path style="stroke: none; stroke-width: 1; stroke-dasharray: none; stroke-linecap: butt; stroke-dashoffset: 0; stroke-linejoin: miter; stroke-miterlimit: 4; is-custom-font: none; font-file-url: none; fill: rgb(246,245,233); fill-rule: nonzero; opacity: 1;" transform=" translate(-33.1765, -597.614)" d="M 13.5445 519.885 C 26.8329 519.885 40.1819 519.885 54.6089 519.885 C 54.3303 572.369 53.4823 623.797 54.306 675.343 C 39.879 673.678 26.4453 672.213 13.4597 673.525 C 9.03835 622.379 14.6953 570.786 13.5445 519.885 Z M 15.0587 629.26 C 20.8368 629.963 26.6512 629.916 32.7442 629.541 C 32.7442 622.812 32.7442 616.716 32.7442 610.034 C 26.5785 610.421 20.8247 610.116 15.0587 612.238 C 15.0587 617.631 15.0587 622.847 15.0587 629.26 Z M 15.943 568.817 C 15.943 574.279 15.943 579.449 15.943 585.123 C 21.6363 584.854 27.1721 584.607 33.1076 584.326 C 32.8533 578.582 33.6527 573.213 32.4535 567.726 C 26.9904 566.706 21.8785 567.715 15.943 568.817 Z M 51.0718 564.127 C 51.0718 557.891 51.0718 552.147 51.0718 546.285 C 45.863 544.527 40.9692 545.101 35.4334 545.476 C 35.8453 551.877 36.245 557.95 36.6569 564.327 C 41.5749 564.233 46.0689 565.347 51.0718 564.127 Z M 31.6783 542.03 C 33.0471 535.172 32.078 529.135 31.4602 522.945 C 26.0455 522.757 21.3213 522.101 16.4639 523.39 C 17.4329 529.756 16.1368 535.993 17.76 542.018 C 22.46 542.03 26.8208 542.03 31.6783 542.03 Z M 50.7205 606.975 C 50.7205 600.644 50.7205 594.736 50.7205 588.734 C 45.9478 587.866 41.6597 587.468 37.2141 587.808 C 37.2141 594.595 37.2141 600.867 37.2141 607.209 C 41.8656 607.772 46.0326 608.112 50.7205 606.975 Z M 50.0421 633.339 C 45.4754 633.152 41.2357 631.968 37.2262 633.222 C 37.2262 640.104 37.2262 646.61 37.2262 653.116 C 41.7324 653.116 45.6692 653.116 50.0421 653.116 C 50.0421 646.364 50.0421 640.068 50.0421 633.339 Z M 32.9744 656.774 C 27.2811 657.7 22.0481 657.078 16.7667 658.86 C 16.1852 662.4 16.1852 665.788 16.694 669.317 C 21.6726 670.794 26.5422 671.146 31.6177 670.243 C 32.9017 665.976 33.3499 661.838 32.9744 656.774 Z" stroke-linecap="round"/>
</g>
		<g transform="matrix(1 0 0 1 -28.5116 56.629)">
<path style="stroke: none; stroke-width: 1; stroke-dasharray: none; stroke-linecap: butt; stroke-dashoffset: 0; stroke-linejoin: miter; stroke-miterlimit: 4; is-custom-font: none; font-file-url: none; fill: rgb(246,245,233); fill-rule: nonzero; opacity: 1;" transform=" translate(-3.4884, -596.629)" d="M 3.39378 674.815 C 1.3224 669.036 2.49738 663.924 2.17032 659.071 C 0.474449 633.55 -1.01548 607.959 1.74637 582.45 C 3.74508 563.963 4.64147 545.5 4.0358 526.942 C 3.96312 524.563 3.73297 522.195 3.4907 518.443 C 7.14894 521.702 6.60383 524.68 6.6644 527.364 C 7.10048 546.508 6.02239 565.593 4.6778 584.689 C 2.69121 612.777 3.61182 640.854 6.14352 668.883 C 6.32522 670.993 6.36156 670.993 3.39378 674.815 Z" stroke-linecap="round"/>
</g>
		<g transform="matrix(1 0 0 1 29.7737 60.234)">
<path style="stroke: none; stroke-width: 1; stroke-dasharray: none; stroke-linecap: butt; stroke-dashoffset: 0; stroke-linejoin: miter; stroke-miterlimit: 4; is-custom-font: none; font-file-url: none; fill: rgb(246,245,233); fill-rule: nonzero; opacity: 1;" transform=" translate(-61.7738, -600.234)" d="M 61.4167 522.863 C 64.3966 574.62 64.8933 625.896 62.41 677.605 C 58.8002 676.375 59.5997 673.655 59.6724 671.322 C 60.266 654.16 61.1866 637.009 61.4531 619.847 C 61.8165 596.249 60.6778 572.662 59.8662 549.076 C 59.624 542.054 59.6845 535.032 59.733 528.01 C 59.7572 526.427 59.0667 524.563 61.4167 522.863 Z" stroke-linecap="round"/>
</g>
		<g transform="matrix(1 0 0 1 1.1764 318.4145)">
<path style="stroke: none; stroke-width: 1; stroke-dasharray: none; stroke-linecap: butt; stroke-dashoffset: 0; stroke-linejoin: miter; stroke-miterlimit: 4; is-custom-font: none; font-file-url: none; fill: rgb(246,245,233); fill-rule: nonzero; opacity: 1;" transform=" translate(-33.1765, -858.4145)" d="M 13.5445 780.686 C 26.8329 780.686 40.1819 780.686 54.6089 780.686 C 54.3303 833.169 53.4823 884.597 54.306 936.143 C 39.879 934.478 26.4453 933.013 13.4597 934.326 C 9.03835 883.179 14.6953 831.586 13.5445 780.686 Z M 15.0587 890.06 C 20.8368 890.764 26.6512 890.717 32.7442 890.341 C 32.7442 883.613 32.7442 877.517 32.7442 870.835 C 26.5785 871.221 20.8247 870.917 15.0587 873.039 C 15.0587 878.431 15.0587 883.648 15.0587 890.06 Z M 15.943 829.617 C 15.943 835.08 15.943 840.25 15.943 845.923 C 21.6363 845.654 27.1721 845.408 33.1076 845.126 C 32.8533 839.382 33.6527 834.013 32.4535 828.527 C 26.9904 827.507 21.8785 828.515 15.943 829.617 Z M 51.0718 824.928 C 51.0718 818.691 51.0718 812.947 51.0718 807.086 C 45.863 805.327 40.9692 805.902 35.4334 806.277 C 35.8453 812.677 36.245 818.75 36.6569 825.127 C 41.5749 825.033 46.0689 826.147 51.0718 824.928 Z M 31.6783 802.83 C 33.0471 795.972 32.078 789.935 31.4602 783.745 C 26.0455 783.558 21.3213 782.901 16.4639 784.191 C 17.4329 790.556 16.1368 796.793 17.76 802.818 C 22.46 802.83 26.8208 802.83 31.6783 802.83 Z M 50.7205 867.775 C 50.7205 861.445 50.7205 855.536 50.7205 849.534 C 45.9478 848.667 41.6597 848.268 37.2141 848.608 C 37.2141 855.396 37.2141 861.667 37.2141 868.009 C 41.8656 868.572 46.0326 868.912 50.7205 867.775 Z M 50.0421 894.14 C 45.4754 893.952 41.2357 892.768 37.2262 894.022 C 37.2262 900.904 37.2262 907.41 37.2262 913.916 C 41.7324 913.916 45.6692 913.916 50.0421 913.916 C 50.0421 907.164 50.0421 900.869 50.0421 894.14 Z M 32.9744 917.574 C 27.2811 918.5 22.0481 917.879 16.7667 919.66 C 16.1852 923.201 16.1852 926.589 16.694 930.117 C 21.6726 931.594 26.5422 931.946 31.6177 931.043 C 32.9017 926.776 33.3499 922.638 32.9744 917.574 Z" stroke-linecap="round"/>
</g>
		<g transform="matrix(1 0 0 1 -28.5116 317.429)">
<path style="stroke: none; stroke-width: 1; stroke-dasharray: none; stroke-linecap: butt; stroke-dashoffset: 0; stroke-linejoin: miter; stroke-miterlimit: 4; is-custom-font: none; font-file-url: none; fill: rgb(246,245,233); fill-rule: nonzero; opacity: 1;" transform=" translate(-3.4884, -857.429)" d="M 3.39378 935.615 C 1.3224 929.835 2.49738 924.724 2.17032 919.871 C 0.474449 894.35 -1.01548 868.759 1.74637 843.25 C 3.74508 824.763 4.64147 806.3 4.0358 787.742 C 3.96312 785.363 3.73297 782.994 3.4907 779.243 C 7.14894 782.502 6.60383 785.48 6.6644 788.164 C 7.10048 807.308 6.02239 826.393 4.6778 845.489 C 2.69121 873.577 3.61182 901.654 6.14352 929.683 C 6.32522 931.793 6.36156 931.793 3.39378 935.615 Z" stroke-linecap="round"/>
</g>
		<g transform="matrix(1 0 0 1 29.7737 321.034)">
<path style="stroke: none; stroke-width: 1; stroke-dasharray: none; stroke-linecap: butt; stroke-dashoffset: 0; stroke-linejoin: miter; stroke-miterlimit: 4; is-custom-font: none; font-file-url: none; fill: rgb(246,245,233); fill-rule: nonzero; opacity: 1;" transform=" translate(-61.7738, -861.034)" d="M 61.4167 783.663 C 64.3966 835.42 64.8933 886.696 62.41 938.405 C 58.8002 937.174 59.5997 934.455 59.6724 932.122 C 60.266 914.96 61.1866 897.809 61.4531 880.647 C 61.8165 857.048 60.6778 833.462 59.8662 809.876 C 59.624 802.854 59.6845 795.831 59.733 788.809 C 59.7572 787.227 59.0667 785.363 61.4167 783.663 Z" stroke-linecap="round"/>
</g>
		<g transform="matrix(1 0 0 1 1.1764 187.8015)">
<path style="stroke: none; stroke-width: 1; stroke-dasharray: none; stroke-linecap: butt; stroke-dashoffset: 0; stroke-linejoin: miter; stroke-miterlimit: 4; is-custom-font: none; font-file-url: none; fill: rgb(246,245,233); fill-rule: nonzero; opacity: 1;" transform=" translate(-33.1765, -727.8015)" d="M 13.5445 650.073 C 26.8329 650.073 40.1819 650.073 54.6089 650.073 C 54.3303 702.556 53.4823 753.984 54.306 805.53 C 39.879 803.865 26.4453 802.4 13.4597 803.713 C 9.03835 752.566 14.6953 700.974 13.5445 650.073 Z M 15.0587 759.447 C 20.8368 760.151 26.6512 760.104 32.7442 759.729 C 32.7442 753 32.7442 746.904 32.7442 740.222 C 26.5785 740.609 20.8247 740.304 15.0587 742.426 C 15.0587 747.818 15.0587 753.035 15.0587 759.447 Z M 15.943 699.004 C 15.943 704.467 15.943 709.637 15.943 715.311 C 21.6363 715.041 27.1721 714.795 33.1076 714.514 C 32.8533 708.769 33.6527 703.4 32.4535 697.914 C 26.9904 696.894 21.8785 697.902 15.943 699.004 Z M 51.0718 694.315 C 51.0718 688.078 51.0718 682.334 51.0718 676.473 C 45.863 674.714 40.9692 675.289 35.4334 675.664 C 35.8453 682.065 36.245 688.137 36.6569 694.514 C 41.5749 694.421 46.0689 695.534 51.0718 694.315 Z M 31.6783 672.217 C 33.0471 665.359 32.078 659.322 31.4602 653.132 C 26.0455 652.945 21.3213 652.288 16.4639 653.578 C 17.4329 659.943 16.1368 666.18 17.76 672.206 C 22.46 672.217 26.8208 672.217 31.6783 672.217 Z M 50.7205 737.162 C 50.7205 730.832 50.7205 724.923 50.7205 718.921 C 45.9478 718.054 41.6597 717.655 37.2141 717.995 C 37.2141 724.783 37.2141 731.054 37.2141 737.397 C 41.8656 737.959 46.0326 738.299 50.7205 737.162 Z M 50.0421 763.527 C 45.4754 763.339 41.2357 762.155 37.2262 763.41 C 37.2262 770.291 37.2262 776.797 37.2262 783.303 C 41.7324 783.303 45.6692 783.303 50.0421 783.303 C 50.0421 776.551 50.0421 770.256 50.0421 763.527 Z M 32.9744 786.961 C 27.2811 787.887 22.0481 787.266 16.7667 789.048 C 16.1852 792.588 16.1852 795.976 16.694 799.505 C 21.6726 800.982 26.5422 801.333 31.6177 800.431 C 32.9017 796.163 33.3499 792.025 32.9744 786.961 Z" stroke-linecap="round"/>
</g>
		<g transform="matrix(1 0 0 1 -28.512 201.014)">
<path style="stroke: none; stroke-width: 1; stroke-dasharray: none; stroke-linecap: butt; stroke-dashoffset: 0; stroke-linejoin: miter; stroke-miterlimit: 4; is-custom-font: none; font-file-url: none; fill: rgb(246,245,233); fill-rule: nonzero; opacity: 1;" transform=" translate(-3.488, -741.014)" d="M 3.39343 662.828 C 1.32204 668.608 2.49703 673.719 2.16997 678.572 C 0.474093 704.093 -1.01584 729.684 1.74601 755.193 C 3.74471 773.68 4.6411 792.144 4.03543 810.701 C 3.96275 813.081 3.7326 815.449 3.49033 819.2 C 7.14857 815.941 6.60347 812.964 6.66403 810.279 C 7.10012 791.136 6.02203 772.051 4.67744 752.954 C 2.69085 724.866 3.61147 696.79 6.14316 668.76 C 6.32486 666.65 6.36121 666.65 3.39343 662.828 Z" stroke-linecap="round"/>
</g>
		<g transform="matrix(1 0 0 1 29.7737 195.595)">
<path style="stroke: none; stroke-width: 1; stroke-dasharray: none; stroke-linecap: butt; stroke-dashoffset: 0; stroke-linejoin: miter; stroke-miterlimit: 4; is-custom-font: none; font-file-url: none; fill: rgb(246,245,233); fill-rule: nonzero; opacity: 1;" transform=" translate(-61.7738, -735.595)" d="M 61.4167 658.224 C 64.3966 709.98 64.8933 761.256 62.41 812.966 C 58.8002 811.735 59.5997 809.015 59.6724 806.682 C 60.266 789.52 61.1866 772.369 61.4531 755.207 C 61.8165 731.609 60.6778 708.023 59.8662 684.436 C 59.624 677.414 59.6845 670.392 59.733 663.37 C 59.7572 661.787 59.0667 659.923 61.4167 658.224 Z" stroke-linecap="round"/>
</g>
		<g transform="matrix(1 0 0 1 1.1764 448.6015)">
<path style="stroke: none; stroke-width: 1; stroke-dasharray: none; stroke-linecap: butt; stroke-dashoffset: 0; stroke-linejoin: miter; stroke-miterlimit: 4; is-custom-font: none; font-file-url: none; fill: rgb(246,245,233); fill-rule: nonzero; opacity: 1;" transform=" translate(-33.1765, -988.6015)" d="M 13.5445 910.873 C 26.8329 910.873 40.1819 910.873 54.6089 910.873 C 54.3303 963.356 53.4823 1014.78 54.306 1066.33 C 39.879 1064.67 26.4453 1063.2 13.4597 1064.51 C 9.03835 1013.37 14.6953 961.774 13.5445 910.873 Z M 15.0587 1020.25 C 20.8368 1020.95 26.6512 1020.9 32.7442 1020.53 C 32.7442 1013.8 32.7442 1007.7 32.7442 1001.02 C 26.5785 1001.41 20.8247 1001.1 15.0587 1003.23 C 15.0587 1008.62 15.0587 1013.84 15.0587 1020.25 Z M 15.943 959.804 C 15.943 965.267 15.943 970.437 15.943 976.111 C 21.6363 975.841 27.1721 975.595 33.1076 975.314 C 32.8533 969.57 33.6527 964.2 32.4535 958.714 C 26.9904 957.694 21.8785 958.702 15.943 959.804 Z M 51.0718 955.115 C 51.0718 948.879 51.0718 943.134 51.0718 937.273 C 45.863 935.515 40.9692 936.089 35.4334 936.464 C 35.8453 942.865 36.245 948.937 36.6569 955.315 C 41.5749 955.221 46.0689 956.334 51.0718 955.115 Z M 31.6783 933.018 C 33.0471 926.16 32.078 920.122 31.4602 913.933 C 26.0455 913.745 21.3213 913.089 16.4639 914.378 C 17.4329 920.744 16.1368 926.98 17.76 933.006 C 22.46 933.018 26.8208 933.018 31.6783 933.018 Z M 50.7205 997.962 C 50.7205 991.632 50.7205 985.724 50.7205 979.722 C 45.9478 978.854 41.6597 978.456 37.2141 978.795 C 37.2141 985.583 37.2141 991.855 37.2141 998.197 C 41.8656 998.76 46.0326 999.1 50.7205 997.962 Z M 50.0421 1024.33 C 45.4754 1024.14 41.2357 1022.96 37.2262 1024.21 C 37.2262 1031.09 37.2262 1037.6 37.2262 1044.1 C 41.7324 1044.1 45.6692 1044.1 50.0421 1044.1 C 50.0421 1037.35 50.0421 1031.06 50.0421 1024.33 Z M 32.9744 1047.76 C 27.2811 1048.69 22.0481 1048.07 16.7667 1049.85 C 16.1852 1053.39 16.1852 1056.78 16.694 1060.3 C 21.6726 1061.78 26.5422 1062.13 31.6177 1061.23 C 32.9017 1056.96 33.3499 1052.83 32.9744 1047.76 Z" stroke-linecap="round"/>
</g>
		<g transform="matrix(1 0 0 1 -28.512 461.814)">
<path style="stroke: none; stroke-width: 1; stroke-dasharray: none; stroke-linecap: butt; stroke-dashoffset: 0; stroke-linejoin: miter; stroke-miterlimit: 4; is-custom-font: none; font-file-url: none; fill: rgb(246,245,233); fill-rule: nonzero; opacity: 1;" transform=" translate(-3.488, -1001.814)" d="M 3.39343 923.628 C 1.32204 929.408 2.49703 934.519 2.16997 939.372 C 0.474093 964.893 -1.01584 990.484 1.74601 1015.99 C 3.74471 1034.48 4.6411 1052.94 4.03543 1071.5 C 3.96275 1073.88 3.7326 1076.25 3.49033 1080 C 7.14857 1076.74 6.60347 1073.76 6.66403 1071.08 C 7.10012 1051.94 6.02203 1032.85 4.67744 1013.75 C 2.69085 985.666 3.61147 957.59 6.14316 929.56 C 6.32486 927.45 6.36121 927.45 3.39343 923.628 Z" stroke-linecap="round"/>
</g>
		<g transform="matrix(1 0 0 1 29.7737 456.397)">
<path style="stroke: none; stroke-width: 1; stroke-dasharray: none; stroke-linecap: butt; stroke-dashoffset: 0; stroke-linejoin: miter; stroke-miterlimit: 4; is-custom-font: none; font-file-url: none; fill: rgb(246,245,233); fill-rule: nonzero; opacity: 1;" transform=" translate(-61.7738, -996.397)" d="M 61.4167 919.024 C 64.3966 970.781 64.8933 1022.06 62.41 1073.77 C 58.8002 1072.54 59.5997 1069.82 59.6724 1067.48 C 60.266 1050.32 61.1866 1033.17 61.4531 1016.01 C 61.8165 992.409 60.6778 968.823 59.8662 945.236 C 59.624 938.214 59.6845 931.192 59.733 924.17 C 59.7572 922.588 59.0667 920.724 61.4167 919.024 Z" stroke-linecap="round"/>
</g>
</g>
</g>
<g transform="matrix(0.6481 0 0 0.9404 701.1703 507.816)" id="279675">
<g style="" vector-effect="non-scaling-stroke">
		<g transform="matrix(1 0 0 1 1.0721 -460.8288)">
<path style="stroke: none; stroke-width: 1; stroke-dasharray: none; stroke-linecap: butt; stroke-dashoffset: 0; stroke-linejoin: miter; stroke-miterlimit: 4; is-custom-font: none; font-file-url: none; fill: rgb(246,245,233); fill-rule: nonzero; opacity: 1;" transform=" translate(-33.5721, -79.1712)" d="M 13.9402 1.44238 C 27.2285 1.44238 40.5775 1.44238 55.0045 1.44238 C 54.7259 53.9258 53.878 105.354 54.7017 156.9 C 40.2746 155.235 26.8409 153.77 13.8554 155.083 C 9.43398 103.936 15.0909 52.3432 13.9402 1.44238 Z M 15.4543 110.817 C 21.2324 111.52 27.0468 111.473 33.1399 111.098 C 33.1399 104.369 33.1399 98.2735 33.1399 91.5915 C 26.9742 91.9783 21.2203 91.6735 15.4543 93.7954 C 15.4543 99.1879 15.4543 104.405 15.4543 110.817 Z M 16.3386 50.3737 C 16.3386 55.8366 16.3386 61.0064 16.3386 66.6803 C 22.0319 66.4107 27.5677 66.1645 33.5033 65.8832 C 33.2489 60.1389 34.0484 54.7698 32.8491 49.2835 C 27.386 48.2636 22.2742 49.2718 16.3386 50.3737 Z M 51.4674 45.6846 C 51.4674 39.448 51.4674 33.7038 51.4674 27.8424 C 46.2586 26.0839 41.3648 26.6583 35.829 27.0335 C 36.2409 33.4342 36.6406 39.5067 37.0525 45.8839 C 41.9705 45.7901 46.4646 46.9038 51.4674 45.6846 Z M 32.0739 23.5869 C 33.4427 16.7291 32.4736 10.6917 31.8559 4.50204 C 26.4412 4.31447 21.7169 3.658 16.8595 4.94751 C 17.8286 11.313 16.5324 17.5496 18.1556 23.5752 C 22.8556 23.5869 27.2164 23.5869 32.0739 23.5869 Z M 51.1161 88.5317 C 51.1161 82.2014 51.1161 76.293 51.1161 70.2909 C 46.3434 69.4234 42.0553 69.0249 37.6097 69.3648 C 37.6097 76.1524 37.6097 82.4241 37.6097 88.7662 C 42.2612 89.3289 46.4282 89.6689 51.1161 88.5317 Z M 50.4378 114.897 C 45.871 114.709 41.6313 113.525 37.6218 114.779 C 37.6218 121.661 37.6218 128.167 37.6218 134.673 C 42.128 134.673 46.0648 134.673 50.4378 134.673 C 50.4378 127.921 50.4378 121.626 50.4378 114.897 Z M 33.37 138.331 C 27.6767 139.257 22.4437 138.635 17.1623 140.417 C 16.5809 143.958 16.5809 147.346 17.0896 150.874 C 22.0682 152.351 26.9378 152.703 32.0133 151.8 C 33.2973 147.533 33.7455 143.395 33.37 138.331 Z" stroke-linecap="round"/>
</g>
		<g transform="matrix(1 0 0 1 -28.616 -461.814)">
<path style="stroke: none; stroke-width: 1; stroke-dasharray: none; stroke-linecap: butt; stroke-dashoffset: 0; stroke-linejoin: miter; stroke-miterlimit: 4; is-custom-font: none; font-file-url: none; fill: rgb(246,245,233); fill-rule: nonzero; opacity: 1;" transform=" translate(-3.884, -78.186)" d="M 3.78941 156.372 C 1.71803 150.592 2.89301 145.481 2.56595 140.628 C 0.870079 115.107 -0.619855 89.516 2.142 64.007 C 4.14071 45.52 5.0371 27.0564 4.43143 8.4991 C 4.35875 6.11935 4.1286 3.75133 3.88633 -1.43023e-7 C 7.54457 3.25896 6.99946 6.23656 7.06003 8.9211 C 7.49611 28.0646 6.41802 47.1495 5.07343 66.2461 C 3.08684 94.3341 4.00745 122.41 6.53915 150.44 C 6.72085 152.55 6.75719 152.55 3.78941 156.372 Z" stroke-linecap="round"/>
</g>
		<g transform="matrix(1 0 0 1 29.6694 -458.2091)">
<path style="stroke: none; stroke-width: 1; stroke-dasharray: none; stroke-linecap: butt; stroke-dashoffset: 0; stroke-linejoin: miter; stroke-miterlimit: 4; is-custom-font: none; font-file-url: none; fill: rgb(246,245,233); fill-rule: nonzero; opacity: 1;" transform=" translate(-62.1694, -81.791)" d="M 61.8124 4.41992 C 64.7923 56.1765 65.2889 107.452 62.8057 159.162 C 59.1959 157.931 59.9954 155.212 60.068 152.879 C 60.6616 135.716 61.5822 118.566 61.8487 101.403 C 62.2121 77.8053 61.0735 54.2188 60.2619 30.6324 C 60.0196 23.6104 60.0802 16.5883 60.1286 9.56629 C 60.1528 7.9837 59.4624 6.11974 61.8124 4.41992 Z" stroke-linecap="round"/>
</g>
		<g transform="matrix(1 0 0 1 1.0721 -200.0295)">
<path style="stroke: none; stroke-width: 1; stroke-dasharray: none; stroke-linecap: butt; stroke-dashoffset: 0; stroke-linejoin: miter; stroke-miterlimit: 4; is-custom-font: none; font-file-url: none; fill: rgb(246,245,233); fill-rule: nonzero; opacity: 1;" transform=" translate(-33.5721, -339.9705)" d="M 13.9402 262.242 C 27.2285 262.242 40.5775 262.242 55.0045 262.242 C 54.7259 314.725 53.878 366.153 54.7017 417.699 C 40.2746 416.034 26.8409 414.569 13.8554 415.882 C 9.43398 364.735 15.0909 313.142 13.9402 262.242 Z M 15.4543 371.616 C 21.2324 372.32 27.0468 372.273 33.1399 371.898 C 33.1399 365.169 33.1399 359.073 33.1399 352.391 C 26.9742 352.778 21.2203 352.473 15.4543 354.595 C 15.4543 359.987 15.4543 365.204 15.4543 371.616 Z M 16.3386 311.173 C 16.3386 316.636 16.3386 321.806 16.3386 327.48 C 22.0319 327.21 27.5677 326.964 33.5033 326.682 C 33.2489 320.938 34.0484 315.569 32.8491 310.083 C 27.386 309.063 22.2742 310.071 16.3386 311.173 Z M 51.4674 306.484 C 51.4674 300.247 51.4674 294.503 51.4674 288.642 C 46.2586 286.883 41.3648 287.458 35.829 287.833 C 36.2409 294.233 36.6406 300.306 37.0525 306.683 C 41.9705 306.589 46.4646 307.703 51.4674 306.484 Z M 32.0739 284.386 C 33.4427 277.528 32.4736 271.491 31.8559 265.301 C 26.4412 265.114 21.7169 264.457 16.8595 265.747 C 17.8286 272.112 16.5324 278.349 18.1556 284.375 C 22.8556 284.386 27.2164 284.386 32.0739 284.386 Z M 51.1161 349.331 C 51.1161 343.001 51.1161 337.092 51.1161 331.09 C 46.3434 330.223 42.0553 329.824 37.6097 330.164 C 37.6097 336.952 37.6097 343.223 37.6097 349.566 C 42.2612 350.128 46.4282 350.468 51.1161 349.331 Z M 50.4378 375.696 C 45.871 375.508 41.6313 374.324 37.6218 375.579 C 37.6218 382.46 37.6218 388.966 37.6218 395.472 C 42.128 395.472 46.0648 395.472 50.4378 395.472 C 50.4378 388.72 50.4378 382.425 50.4378 375.696 Z M 33.37 399.13 C 27.6767 400.056 22.4437 399.435 17.1623 401.217 C 16.5809 404.757 16.5809 408.145 17.0896 411.673 C 22.0682 413.151 26.9378 413.502 32.0133 412.6 C 33.2973 408.332 33.7455 404.194 33.37 399.13 Z" stroke-linecap="round"/>
</g>
		<g transform="matrix(1 0 0 1 -28.616 -201.014)">
<path style="stroke: none; stroke-width: 1; stroke-dasharray: none; stroke-linecap: butt; stroke-dashoffset: 0; stroke-linejoin: miter; stroke-miterlimit: 4; is-custom-font: none; font-file-url: none; fill: rgb(246,245,233); fill-rule: nonzero; opacity: 1;" transform=" translate(-3.884, -338.986)" d="M 3.78941 417.172 C 1.71803 411.392 2.89301 406.281 2.56595 401.428 C 0.870078 375.907 -0.619855 350.316 2.142 324.807 C 4.1407 306.32 5.0371 287.856 4.43143 269.299 C 4.35875 266.919 4.1286 264.551 3.88633 260.8 C 7.54457 264.059 6.99946 267.036 7.06003 269.721 C 7.49611 288.864 6.41802 307.949 5.07343 327.046 C 3.08684 355.134 4.00745 383.21 6.53915 411.24 C 6.72085 413.35 6.75719 413.35 3.78941 417.172 Z" stroke-linecap="round"/>
</g>
		<g transform="matrix(1 0 0 1 29.6694 -197.409)">
<path style="stroke: none; stroke-width: 1; stroke-dasharray: none; stroke-linecap: butt; stroke-dashoffset: 0; stroke-linejoin: miter; stroke-miterlimit: 4; is-custom-font: none; font-file-url: none; fill: rgb(246,245,233); fill-rule: nonzero; opacity: 1;" transform=" translate(-62.1694, -342.591)" d="M 61.8124 265.22 C 64.7923 316.976 65.2889 368.252 62.8057 419.962 C 59.1959 418.731 59.9954 416.011 60.068 413.678 C 60.6616 396.516 61.5822 379.366 61.8487 362.203 C 62.2121 338.605 61.0735 315.019 60.2619 291.432 C 60.0196 284.41 60.0802 277.388 60.1286 270.366 C 60.1528 268.784 59.4624 266.92 61.8124 265.22 Z" stroke-linecap="round"/>
</g>
		<g transform="matrix(1 0 0 1 1.0721 -330.642)">
<path style="stroke: none; stroke-width: 1; stroke-dasharray: none; stroke-linecap: butt; stroke-dashoffset: 0; stroke-linejoin: miter; stroke-miterlimit: 4; is-custom-font: none; font-file-url: none; fill: rgb(246,245,233); fill-rule: nonzero; opacity: 1;" transform=" translate(-33.5721, -209.358)" d="M 13.9402 131.629 C 27.2285 131.629 40.5775 131.629 55.0045 131.629 C 54.7259 184.113 53.878 235.541 54.7017 287.087 C 40.2746 285.422 26.8409 283.957 13.8554 285.27 C 9.43398 234.123 15.0909 182.53 13.9402 131.629 Z M 15.4543 241.004 C 21.2324 241.707 27.0468 241.66 33.1399 241.285 C 33.1399 234.556 33.1399 228.461 33.1399 221.778 C 26.9742 222.165 21.2203 221.861 15.4543 223.982 C 15.4543 229.375 15.4543 234.592 15.4543 241.004 Z M 16.3386 180.561 C 16.3386 186.024 16.3386 191.193 16.3386 196.867 C 22.0319 196.598 27.5677 196.352 33.5033 196.07 C 33.2489 190.326 34.0484 184.957 32.8491 179.471 C 27.386 178.451 22.2742 179.459 16.3386 180.561 Z M 51.4674 175.872 C 51.4674 169.635 51.4674 163.891 51.4674 158.029 C 46.2586 156.271 41.3648 156.845 35.829 157.22 C 36.2409 163.621 36.6406 169.694 37.0525 176.071 C 41.9705 175.977 46.4646 177.091 51.4674 175.872 Z M 32.0739 153.774 C 33.4427 146.916 32.4736 140.879 31.8559 134.689 C 26.4412 134.501 21.7169 133.845 16.8595 135.135 C 17.8286 141.5 16.5324 147.737 18.1556 153.762 C 22.8556 153.774 27.2164 153.774 32.0739 153.774 Z M 51.1161 218.719 C 51.1161 212.388 51.1161 206.48 51.1161 200.478 C 46.3434 199.61 42.0553 199.212 37.6097 199.552 C 37.6097 206.339 37.6097 212.611 37.6097 218.953 C 42.2612 219.516 46.4282 219.856 51.1161 218.719 Z M 50.4378 245.084 C 45.871 244.896 41.6313 243.712 37.6218 244.966 C 37.6218 251.848 37.6218 258.354 37.6218 264.86 C 42.128 264.86 46.0648 264.86 50.4378 264.86 C 50.4378 258.108 50.4378 251.813 50.4378 245.084 Z M 33.37 268.518 C 27.6767 269.444 22.4437 268.822 17.1623 270.604 C 16.5809 274.145 16.5809 277.533 17.0896 281.061 C 22.0682 282.538 26.9378 282.89 32.0133 281.987 C 33.2973 277.72 33.7455 273.582 33.37 268.518 Z" stroke-linecap="round"/>
</g>
		<g transform="matrix(1 0 0 1 -28.6164 -317.4295)">
<path style="stroke: none; stroke-width: 1; stroke-dasharray: none; stroke-linecap: butt; stroke-dashoffset: 0; stroke-linejoin: miter; stroke-miterlimit: 4; is-custom-font: none; font-file-url: none; fill: rgb(246,245,233); fill-rule: nonzero; opacity: 1;" transform=" translate(-3.8836, -222.5705)" d="M 3.78906 144.385 C 1.71767 150.164 2.89266 155.275 2.5656 160.129 C 0.869723 185.649 -0.620213 211.24 2.14164 236.749 C 4.14034 255.236 5.03673 273.7 4.43106 292.257 C 4.35838 294.637 4.12823 297.005 3.88596 300.756 C 7.5442 297.497 6.9991 294.52 7.05966 291.835 C 7.49575 272.692 6.41766 253.607 5.07307 234.51 C 3.08648 206.422 4.0071 178.346 6.53879 150.317 C 6.72049 148.206 6.75684 148.206 3.78906 144.385 Z" stroke-linecap="round"/>
</g>
		<g transform="matrix(1 0 0 1 29.6694 -322.849)">
<path style="stroke: none; stroke-width: 1; stroke-dasharray: none; stroke-linecap: butt; stroke-dashoffset: 0; stroke-linejoin: miter; stroke-miterlimit: 4; is-custom-font: none; font-file-url: none; fill: rgb(246,245,233); fill-rule: nonzero; opacity: 1;" transform=" translate(-62.1694, -217.151)" d="M 61.8124 139.78 C 64.7923 191.537 65.2889 242.813 62.8057 294.522 C 59.1959 293.292 59.9954 290.572 60.068 288.239 C 60.6616 271.077 61.5822 253.926 61.8487 236.764 C 62.2121 213.166 61.0735 189.579 60.2619 165.993 C 60.0196 158.971 60.0802 151.949 60.1286 144.927 C 60.1528 143.344 59.4624 141.48 61.8124 139.78 Z" stroke-linecap="round"/>
</g>
		<g transform="matrix(1 0 0 1 1.0721 -69.8425)">
<path style="stroke: none; stroke-width: 1; stroke-dasharray: none; stroke-linecap: butt; stroke-dashoffset: 0; stroke-linejoin: miter; stroke-miterlimit: 4; is-custom-font: none; font-file-url: none; fill: rgb(246,245,233); fill-rule: nonzero; opacity: 1;" transform=" translate(-33.5721, -470.1575)" d="M 13.9402 392.429 C 27.2285 392.429 40.5775 392.429 55.0045 392.429 C 54.7259 444.912 53.878 496.34 54.7017 547.886 C 40.2746 546.221 26.8409 544.756 13.8554 546.069 C 9.43398 494.922 15.0909 443.33 13.9402 392.429 Z M 15.4543 501.803 C 21.2324 502.507 27.0468 502.46 33.1399 502.085 C 33.1399 495.356 33.1399 489.26 33.1399 482.578 C 26.9742 482.965 21.2203 482.66 15.4543 484.782 C 15.4543 490.174 15.4543 495.391 15.4543 501.803 Z M 16.3386 441.36 C 16.3386 446.823 16.3386 451.993 16.3386 457.667 C 22.0319 457.397 27.5677 457.151 33.5033 456.869 C 33.2489 451.125 34.0484 445.756 32.8491 440.27 C 27.386 439.25 22.2742 440.258 16.3386 441.36 Z M 51.4674 436.671 C 51.4674 430.434 51.4674 424.69 51.4674 418.829 C 46.2586 417.07 41.3648 417.645 35.829 418.02 C 36.2409 424.421 36.6406 430.493 37.0525 436.87 C 41.9705 436.776 46.4646 437.89 51.4674 436.671 Z M 32.0739 414.573 C 33.4427 407.715 32.4736 401.678 31.8559 395.488 C 26.4412 395.301 21.7169 394.644 16.8595 395.934 C 17.8286 402.299 16.5324 408.536 18.1556 414.562 C 22.8556 414.573 27.2164 414.573 32.0739 414.573 Z M 51.1161 479.518 C 51.1161 473.188 51.1161 467.279 51.1161 461.277 C 46.3434 460.41 42.0553 460.011 37.6097 460.351 C 37.6097 467.139 37.6097 473.41 37.6097 479.753 C 42.2612 480.315 46.4282 480.655 51.1161 479.518 Z M 50.4378 505.883 C 45.871 505.695 41.6313 504.511 37.6218 505.766 C 37.6218 512.647 37.6218 519.153 37.6218 525.659 C 42.128 525.659 46.0648 525.659 50.4378 525.659 C 50.4378 518.907 50.4378 512.612 50.4378 505.883 Z M 33.37 529.317 C 27.6767 530.243 22.4437 529.622 17.1623 531.404 C 16.5809 534.944 16.5809 538.332 17.0896 541.86 C 22.0682 543.338 26.9378 543.689 32.0133 542.787 C 33.2973 538.519 33.7455 534.381 33.37 529.317 Z" stroke-linecap="round"/>
</g>
		<g transform="matrix(1 0 0 1 -28.6164 -56.63)">
<path style="stroke: none; stroke-width: 1; stroke-dasharray: none; stroke-linecap: butt; stroke-dashoffset: 0; stroke-linejoin: miter; stroke-miterlimit: 4; is-custom-font: none; font-file-url: none; fill: rgb(246,245,233); fill-rule: nonzero; opacity: 1;" transform=" translate(-3.8836, -483.37)" d="M 3.78906 405.184 C 1.71767 410.963 2.89266 416.075 2.5656 420.928 C 0.869723 446.449 -0.620213 472.04 2.14164 497.549 C 4.14034 516.036 5.03673 534.499 4.43106 553.057 C 4.35838 555.436 4.12823 557.804 3.88596 561.556 C 7.5442 558.297 6.9991 555.319 7.05966 552.635 C 7.49575 533.491 6.41766 514.406 5.07307 495.31 C 3.08648 467.222 4.0071 439.145 6.53879 411.116 C 6.72049 409.006 6.75684 409.006 3.78906 405.184 Z" stroke-linecap="round"/>
</g>
		<g transform="matrix(1 0 0 1 29.6694 -62.049)">
<path style="stroke: none; stroke-width: 1; stroke-dasharray: none; stroke-linecap: butt; stroke-dashoffset: 0; stroke-linejoin: miter; stroke-miterlimit: 4; is-custom-font: none; font-file-url: none; fill: rgb(246,245,233); fill-rule: nonzero; opacity: 1;" transform=" translate(-62.1694, -477.951)" d="M 61.8124 400.58 C 64.7923 452.336 65.2889 503.612 62.8057 555.322 C 59.1959 554.091 59.9954 551.371 60.068 549.038 C 60.6616 531.876 61.5822 514.725 61.8487 497.563 C 62.2121 473.965 61.0735 450.378 60.2619 426.792 C 60.0196 419.77 60.0802 412.748 60.1286 405.726 C 60.1528 404.143 59.4624 402.279 61.8124 400.58 Z" stroke-linecap="round"/>
</g>
		<g transform="matrix(1 0 0 1 1.0721 -460.8288)">
<path style="stroke: none; stroke-width: 1; stroke-dasharray: none; stroke-linecap: butt; stroke-dashoffset: 0; stroke-linejoin: miter; stroke-miterlimit: 4; is-custom-font: none; font-file-url: none; fill: rgb(246,245,233); fill-rule: nonzero; opacity: 1;" transform=" translate(-33.5721, -79.1712)" d="M 13.9402 1.44238 C 27.2285 1.44238 40.5775 1.44238 55.0045 1.44238 C 54.7259 53.9258 53.878 105.354 54.7017 156.9 C 40.2746 155.235 26.8409 153.77 13.8554 155.083 C 9.43398 103.936 15.0909 52.3432 13.9402 1.44238 Z M 15.4543 110.817 C 21.2324 111.52 27.0468 111.473 33.1399 111.098 C 33.1399 104.369 33.1399 98.2735 33.1399 91.5915 C 26.9742 91.9783 21.2203 91.6735 15.4543 93.7954 C 15.4543 99.1879 15.4543 104.405 15.4543 110.817 Z M 16.3386 50.3737 C 16.3386 55.8366 16.3386 61.0064 16.3386 66.6803 C 22.0319 66.4107 27.5677 66.1645 33.5033 65.8832 C 33.2489 60.1389 34.0484 54.7698 32.8491 49.2835 C 27.386 48.2636 22.2742 49.2718 16.3386 50.3737 Z M 51.4674 45.6846 C 51.4674 39.448 51.4674 33.7038 51.4674 27.8424 C 46.2586 26.0839 41.3648 26.6583 35.829 27.0335 C 36.2409 33.4342 36.6406 39.5067 37.0525 45.8839 C 41.9705 45.7901 46.4646 46.9038 51.4674 45.6846 Z M 32.0739 23.5869 C 33.4427 16.7291 32.4736 10.6917 31.8559 4.50204 C 26.4412 4.31447 21.7169 3.658 16.8595 4.94751 C 17.8286 11.313 16.5324 17.5496 18.1556 23.5752 C 22.8556 23.5869 27.2164 23.5869 32.0739 23.5869 Z M 51.1161 88.5317 C 51.1161 82.2014 51.1161 76.293 51.1161 70.2909 C 46.3434 69.4234 42.0553 69.0249 37.6097 69.3648 C 37.6097 76.1524 37.6097 82.4241 37.6097 88.7662 C 42.2612 89.3289 46.4282 89.6689 51.1161 88.5317 Z M 50.4378 114.897 C 45.871 114.709 41.6313 113.525 37.6218 114.779 C 37.6218 121.661 37.6218 128.167 37.6218 134.673 C 42.128 134.673 46.0648 134.673 50.4378 134.673 C 50.4378 127.921 50.4378 121.626 50.4378 114.897 Z M 33.37 138.331 C 27.6767 139.257 22.4437 138.635 17.1623 140.417 C 16.5809 143.958 16.5809 147.346 17.0896 150.874 C 22.0682 152.351 26.9378 152.703 32.0133 151.8 C 33.2973 147.533 33.7455 143.395 33.37 138.331 Z" stroke-linecap="round"/>
</g>
		<g transform="matrix(1 0 0 1 -28.616 -461.814)">
<path style="stroke: none; stroke-width: 1; stroke-dasharray: none; stroke-linecap: butt; stroke-dashoffset: 0; stroke-linejoin: miter; stroke-miterlimit: 4; is-custom-font: none; font-file-url: none; fill: rgb(246,245,233); fill-rule: nonzero; opacity: 1;" transform=" translate(-3.884, -78.186)" d="M 3.78941 156.372 C 1.71803 150.592 2.89301 145.481 2.56595 140.628 C 0.870079 115.107 -0.619855 89.516 2.142 64.007 C 4.14071 45.52 5.0371 27.0564 4.43143 8.4991 C 4.35875 6.11935 4.1286 3.75133 3.88633 -1.43023e-7 C 7.54457 3.25896 6.99946 6.23656 7.06003 8.9211 C 7.49611 28.0646 6.41802 47.1495 5.07343 66.2461 C 3.08684 94.3341 4.00745 122.41 6.53915 150.44 C 6.72085 152.55 6.75719 152.55 3.78941 156.372 Z" stroke-linecap="round"/>
</g>
		<g transform="matrix(1 0 0 1 29.6694 -458.2091)">
<path style="stroke: none; stroke-width: 1; stroke-dasharray: none; stroke-linecap: butt; stroke-dashoffset: 0; stroke-linejoin: miter; stroke-miterlimit: 4; is-custom-font: none; font-file-url: none; fill: rgb(246,245,233); fill-rule: nonzero; opacity: 1;" transform=" translate(-62.1694, -81.791)" d="M 61.8124 4.41992 C 64.7923 56.1765 65.2889 107.452 62.8057 159.162 C 59.1959 157.931 59.9954 155.212 60.068 152.879 C 60.6616 135.716 61.5822 118.566 61.8487 101.403 C 62.2121 77.8053 61.0735 54.2188 60.2619 30.6324 C 60.0196 23.6104 60.0802 16.5883 60.1286 9.56629 C 60.1528 7.9837 59.4624 6.11974 61.8124 4.41992 Z" stroke-linecap="round"/>
</g>
		<g transform="matrix(1 0 0 1 1.0721 -200.0305)">
<path style="stroke: none; stroke-width: 1; stroke-dasharray: none; stroke-linecap: butt; stroke-dashoffset: 0; stroke-linejoin: miter; stroke-miterlimit: 4; is-custom-font: none; font-file-url: none; fill: rgb(246,245,233); fill-rule: nonzero; opacity: 1;" transform=" translate(-33.5721, -339.9695)" d="M 13.9402 262.241 C 27.2285 262.241 40.5775 262.241 55.0045 262.241 C 54.7259 314.725 53.878 366.153 54.7017 417.698 C 40.2746 416.034 26.8409 414.568 13.8554 415.881 C 9.43398 364.734 15.0909 313.142 13.9402 262.241 Z M 15.4543 371.616 C 21.2324 372.319 27.0468 372.272 33.1399 371.897 C 33.1399 365.168 33.1399 359.072 33.1399 352.39 C 26.9742 352.777 21.2203 352.472 15.4543 354.594 C 15.4543 359.987 15.4543 365.203 15.4543 371.616 Z M 16.3386 311.173 C 16.3386 316.635 16.3386 321.805 16.3386 327.479 C 22.0319 327.21 27.5677 326.963 33.5033 326.682 C 33.2489 320.938 34.0484 315.569 32.8491 310.082 C 27.386 309.062 22.2742 310.071 16.3386 311.173 Z M 51.4674 306.483 C 51.4674 300.247 51.4674 294.503 51.4674 288.641 C 46.2586 286.883 41.3648 287.457 35.829 287.832 C 36.2409 294.233 36.6406 300.305 37.0525 306.683 C 41.9705 306.589 46.4646 307.703 51.4674 306.483 Z M 32.0739 284.386 C 33.4427 277.528 32.4736 271.491 31.8559 265.301 C 26.4412 265.113 21.7169 264.457 16.8595 265.746 C 17.8286 272.112 16.5324 278.348 18.1556 284.374 C 22.8556 284.386 27.2164 284.386 32.0739 284.386 Z M 51.1161 349.331 C 51.1161 343 51.1161 337.092 51.1161 331.09 C 46.3434 330.222 42.0553 329.824 37.6097 330.164 C 37.6097 336.951 37.6097 343.223 37.6097 349.565 C 42.2612 350.128 46.4282 350.468 51.1161 349.331 Z M 50.4378 375.695 C 45.871 375.508 41.6313 374.324 37.6218 375.578 C 37.6218 382.459 37.6218 388.966 37.6218 395.472 C 42.128 395.472 46.0648 395.472 50.4378 395.472 C 50.4378 388.72 50.4378 382.424 50.4378 375.695 Z M 33.37 399.129 C 27.6767 400.056 22.4437 399.434 17.1623 401.216 C 16.5809 404.756 16.5809 408.144 17.0896 411.673 C 22.0682 413.15 26.9378 413.502 32.0133 412.599 C 33.2973 408.332 33.7455 404.194 33.37 399.129 Z" stroke-linecap="round"/>
</g>
		<g transform="matrix(1 0 0 1 -28.616 -201.015)">
<path style="stroke: none; stroke-width: 1; stroke-dasharray: none; stroke-linecap: butt; stroke-dashoffset: 0; stroke-linejoin: miter; stroke-miterlimit: 4; is-custom-font: none; font-file-url: none; fill: rgb(246,245,233); fill-rule: nonzero; opacity: 1;" transform=" translate(-3.884, -338.985)" d="M 3.78941 417.171 C 1.71803 411.392 2.89301 406.28 2.56595 401.427 C 0.870078 375.906 -0.619855 350.315 2.142 324.806 C 4.1407 306.319 5.0371 287.856 4.43143 269.298 C 4.35875 266.919 4.1286 264.551 3.88633 260.799 C 7.54457 264.058 6.99946 267.036 7.06003 269.72 C 7.49611 288.864 6.41802 307.949 5.07343 327.045 C 3.08684 355.133 4.00745 383.21 6.53915 411.239 C 6.72085 413.349 6.75719 413.349 3.78941 417.171 Z" stroke-linecap="round"/>
</g>
		<g transform="matrix(1 0 0 1 29.6694 -197.41)">
<path style="stroke: none; stroke-width: 1; stroke-dasharray: none; stroke-linecap: butt; stroke-dashoffset: 0; stroke-linejoin: miter; stroke-miterlimit: 4; is-custom-font: none; font-file-url: none; fill: rgb(246,245,233); fill-rule: nonzero; opacity: 1;" transform=" translate(-62.1694, -342.59)" d="M 61.8124 265.219 C 64.7923 316.976 65.2889 368.252 62.8057 419.961 C 59.1959 418.731 59.9954 416.011 60.068 413.678 C 60.6616 396.516 61.5822 379.365 61.8487 362.203 C 62.2121 338.605 61.0735 315.018 60.2619 291.432 C 60.0196 284.41 60.0802 277.388 60.1286 270.366 C 60.1528 268.783 59.4624 266.919 61.8124 265.219 Z" stroke-linecap="round"/>
</g>
		<g transform="matrix(1 0 0 1 1.0721 -330.642)">
<path style="stroke: none; stroke-width: 1; stroke-dasharray: none; stroke-linecap: butt; stroke-dashoffset: 0; stroke-linejoin: miter; stroke-miterlimit: 4; is-custom-font: none; font-file-url: none; fill: rgb(246,245,233); fill-rule: nonzero; opacity: 1;" transform=" translate(-33.5721, -209.358)" d="M 13.9402 131.629 C 27.2285 131.629 40.5775 131.629 55.0045 131.629 C 54.7259 184.113 53.878 235.541 54.7017 287.087 C 40.2746 285.422 26.8409 283.957 13.8554 285.27 C 9.43398 234.123 15.0909 182.53 13.9402 131.629 Z M 15.4543 241.004 C 21.2324 241.707 27.0468 241.66 33.1399 241.285 C 33.1399 234.556 33.1399 228.461 33.1399 221.778 C 26.9742 222.165 21.2203 221.861 15.4543 223.982 C 15.4543 229.375 15.4543 234.592 15.4543 241.004 Z M 16.3386 180.561 C 16.3386 186.024 16.3386 191.193 16.3386 196.867 C 22.0319 196.598 27.5677 196.352 33.5033 196.07 C 33.2489 190.326 34.0484 184.957 32.8491 179.471 C 27.386 178.451 22.2742 179.459 16.3386 180.561 Z M 51.4674 175.872 C 51.4674 169.635 51.4674 163.891 51.4674 158.029 C 46.2586 156.271 41.3648 156.845 35.829 157.22 C 36.2409 163.621 36.6406 169.694 37.0525 176.071 C 41.9705 175.977 46.4646 177.091 51.4674 175.872 Z M 32.0739 153.774 C 33.4427 146.916 32.4736 140.879 31.8559 134.689 C 26.4412 134.501 21.7169 133.845 16.8595 135.135 C 17.8286 141.5 16.5324 147.737 18.1556 153.762 C 22.8556 153.774 27.2164 153.774 32.0739 153.774 Z M 51.1161 218.719 C 51.1161 212.388 51.1161 206.48 51.1161 200.478 C 46.3434 199.61 42.0553 199.212 37.6097 199.552 C 37.6097 206.339 37.6097 212.611 37.6097 218.953 C 42.2612 219.516 46.4282 219.856 51.1161 218.719 Z M 50.4378 245.084 C 45.871 244.896 41.6313 243.712 37.6218 244.966 C 37.6218 251.848 37.6218 258.354 37.6218 264.86 C 42.128 264.86 46.0648 264.86 50.4378 264.86 C 50.4378 258.108 50.4378 251.813 50.4378 245.084 Z M 33.37 268.518 C 27.6767 269.444 22.4437 268.822 17.1623 270.604 C 16.5809 274.145 16.5809 277.533 17.0896 281.061 C 22.0682 282.538 26.9378 282.89 32.0133 281.987 C 33.2973 277.72 33.7455 273.582 33.37 268.518 Z" stroke-linecap="round"/>
</g>
		<g transform="matrix(1 0 0 1 -28.6164 -317.4295)">
<path style="stroke: none; stroke-width: 1; stroke-dasharray: none; stroke-linecap: butt; stroke-dashoffset: 0; stroke-linejoin: miter; stroke-miterlimit: 4; is-custom-font: none; font-file-url: none; fill: rgb(246,245,233); fill-rule: nonzero; opacity: 1;" transform=" translate(-3.8836, -222.5705)" d="M 3.78906 144.385 C 1.71767 150.164 2.89266 155.275 2.5656 160.129 C 0.869723 185.649 -0.620213 211.24 2.14164 236.749 C 4.14034 255.236 5.03673 273.7 4.43106 292.257 C 4.35838 294.637 4.12823 297.005 3.88596 300.756 C 7.5442 297.497 6.9991 294.52 7.05966 291.835 C 7.49575 272.692 6.41766 253.607 5.07307 234.51 C 3.08648 206.422 4.0071 178.346 6.53879 150.317 C 6.72049 148.206 6.75684 148.206 3.78906 144.385 Z" stroke-linecap="round"/>
</g>
		<g transform="matrix(1 0 0 1 29.6694 -322.849)">
<path style="stroke: none; stroke-width: 1; stroke-dasharray: none; stroke-linecap: butt; stroke-dashoffset: 0; stroke-linejoin: miter; stroke-miterlimit: 4; is-custom-font: none; font-file-url: none; fill: rgb(246,245,233); fill-rule: nonzero; opacity: 1;" transform=" translate(-62.1694, -217.151)" d="M 61.8124 139.78 C 64.7923 191.537 65.2889 242.813 62.8057 294.522 C 59.1959 293.292 59.9954 290.572 60.068 288.239 C 60.6616 271.077 61.5822 253.926 61.8487 236.764 C 62.2121 213.166 61.0735 189.579 60.2619 165.993 C 60.0196 158.971 60.0802 151.949 60.1286 144.927 C 60.1528 143.344 59.4624 141.48 61.8124 139.78 Z" stroke-linecap="round"/>
</g>
		<g transform="matrix(1 0 0 1 1.0721 -69.8425)">
<path style="stroke: none; stroke-width: 1; stroke-dasharray: none; stroke-linecap: butt; stroke-dashoffset: 0; stroke-linejoin: miter; stroke-miterlimit: 4; is-custom-font: none; font-file-url: none; fill: rgb(246,245,233); fill-rule: nonzero; opacity: 1;" transform=" translate(-33.5721, -470.1575)" d="M 13.9402 392.429 C 27.2285 392.429 40.5775 392.429 55.0045 392.429 C 54.7259 444.912 53.878 496.34 54.7017 547.886 C 40.2746 546.221 26.8409 544.756 13.8554 546.069 C 9.43398 494.922 15.0909 443.33 13.9402 392.429 Z M 15.4543 501.803 C 21.2324 502.507 27.0468 502.46 33.1399 502.085 C 33.1399 495.356 33.1399 489.26 33.1399 482.578 C 26.9742 482.965 21.2203 482.66 15.4543 484.782 C 15.4543 490.174 15.4543 495.391 15.4543 501.803 Z M 16.3386 441.36 C 16.3386 446.823 16.3386 451.993 16.3386 457.667 C 22.0319 457.397 27.5677 457.151 33.5033 456.869 C 33.2489 451.125 34.0484 445.756 32.8491 440.27 C 27.386 439.25 22.2742 440.258 16.3386 441.36 Z M 51.4674 436.671 C 51.4674 430.434 51.4674 424.69 51.4674 418.829 C 46.2586 417.07 41.3648 417.645 35.829 418.02 C 36.2409 424.421 36.6406 430.493 37.0525 436.87 C 41.9705 436.776 46.4646 437.89 51.4674 436.671 Z M 32.0739 414.573 C 33.4427 407.715 32.4736 401.678 31.8559 395.488 C 26.4412 395.301 21.7169 394.644 16.8595 395.934 C 17.8286 402.299 16.5324 408.536 18.1556 414.562 C 22.8556 414.573 27.2164 414.573 32.0739 414.573 Z M 51.1161 479.518 C 51.1161 473.188 51.1161 467.279 51.1161 461.277 C 46.3434 460.41 42.0553 460.011 37.6097 460.351 C 37.6097 467.139 37.6097 473.41 37.6097 479.753 C 42.2612 480.315 46.4282 480.655 51.1161 479.518 Z M 50.4378 505.883 C 45.871 505.695 41.6313 504.511 37.6218 505.766 C 37.6218 512.647 37.6218 519.153 37.6218 525.659 C 42.128 525.659 46.0648 525.659 50.4378 525.659 C 50.4378 518.907 50.4378 512.612 50.4378 505.883 Z M 33.37 529.317 C 27.6767 530.243 22.4437 529.622 17.1623 531.404 C 16.5809 534.944 16.5809 538.332 17.0896 541.86 C 22.0682 543.338 26.9378 543.689 32.0133 542.787 C 33.2973 538.519 33.7455 534.381 33.37 529.317 Z" stroke-linecap="round"/>
</g>
		<g transform="matrix(1 0 0 1 -28.6164 -56.63)">
<path style="stroke: none; stroke-width: 1; stroke-dasharray: none; stroke-linecap: butt; stroke-dashoffset: 0; stroke-linejoin: miter; stroke-miterlimit: 4; is-custom-font: none; font-file-url: none; fill: rgb(246,245,233); fill-rule: nonzero; opacity: 1;" transform=" translate(-3.8836, -483.37)" d="M 3.78906 405.184 C 1.71767 410.963 2.89266 416.075 2.5656 420.928 C 0.869723 446.449 -0.620213 472.04 2.14164 497.549 C 4.14034 516.036 5.03673 534.499 4.43106 553.057 C 4.35838 555.436 4.12823 557.804 3.88596 561.556 C 7.5442 558.297 6.9991 555.319 7.05966 552.635 C 7.49575 533.491 6.41766 514.406 5.07307 495.31 C 3.08648 467.222 4.0071 439.145 6.53879 411.116 C 6.72049 409.006 6.75684 409.006 3.78906 405.184 Z" stroke-linecap="round"/>
</g>
		<g transform="matrix(1 0 0 1 29.6694 -62.049)">
<path style="stroke: none; stroke-width: 1; stroke-dasharray: none; stroke-linecap: butt; stroke-dashoffset: 0; stroke-linejoin: miter; stroke-miterlimit: 4; is-custom-font: none; font-file-url: none; fill: rgb(246,245,233); fill-rule: nonzero; opacity: 1;" transform=" translate(-62.1694, -477.951)" d="M 61.8124 400.58 C 64.7923 452.336 65.2889 503.612 62.8057 555.322 C 59.1959 554.091 59.9954 551.371 60.068 549.038 C 60.6616 531.876 61.5822 514.725 61.8487 497.563 C 62.2121 473.965 61.0735 450.378 60.2619 426.792 C 60.0196 419.77 60.0802 412.748 60.1286 405.726 C 60.1528 404.143 59.4624 402.279 61.8124 400.58 Z" stroke-linecap="round"/>
</g>
		<g transform="matrix(1 0 0 1 1.0719 57.614)">
<path style="stroke: none; stroke-width: 1; stroke-dasharray: none; stroke-linecap: butt; stroke-dashoffset: 0; stroke-linejoin: miter; stroke-miterlimit: 4; is-custom-font: none; font-file-url: none; fill: rgb(246,245,233); fill-rule: nonzero; opacity: 1;" transform=" translate(-33.572, -597.614)" d="M 13.94 519.885 C 27.2284 519.885 40.5774 519.885 55.0044 519.885 C 54.7258 572.369 53.8778 623.797 54.7016 675.343 C 40.2745 673.678 26.8408 672.213 13.8552 673.525 C 9.43386 622.379 15.0908 570.786 13.94 519.885 Z M 15.4542 629.26 C 21.2323 629.963 27.0467 629.916 33.1397 629.541 C 33.1397 622.812 33.1397 616.716 33.1397 610.034 C 26.974 610.421 21.2202 610.116 15.4542 612.238 C 15.4542 617.631 15.4542 622.847 15.4542 629.26 Z M 16.3385 568.817 C 16.3385 574.279 16.3385 579.449 16.3385 585.123 C 22.0318 584.854 27.5676 584.607 33.5031 584.326 C 33.2488 578.582 34.0482 573.213 32.849 567.726 C 27.3859 566.706 22.274 567.715 16.3385 568.817 Z M 51.4673 564.127 C 51.4673 557.891 51.4673 552.147 51.4673 546.285 C 46.2585 544.527 41.3647 545.101 35.8289 545.476 C 36.2408 551.877 36.6405 557.95 37.0524 564.327 C 41.9704 564.233 46.4645 565.347 51.4673 564.127 Z M 32.0738 542.03 C 33.4426 535.172 32.4735 529.135 31.8557 522.945 C 26.441 522.757 21.7168 522.101 16.8594 523.39 C 17.8284 529.756 16.5323 535.993 18.1555 542.018 C 22.8555 542.03 27.2163 542.03 32.0738 542.03 Z M 51.116 606.975 C 51.116 600.644 51.116 594.736 51.116 588.734 C 46.3433 587.866 42.0552 587.468 37.6096 587.808 C 37.6096 594.595 37.6096 600.867 37.6096 607.209 C 42.2611 607.772 46.4281 608.112 51.116 606.975 Z M 50.4376 633.339 C 45.8709 633.152 41.6312 631.968 37.6217 633.222 C 37.6217 640.104 37.6217 646.61 37.6217 653.116 C 42.1279 653.116 46.0647 653.116 50.4376 653.116 C 50.4376 646.364 50.4376 640.068 50.4376 633.339 Z M 33.3699 656.774 C 27.6766 657.7 22.4436 657.078 17.1622 658.86 C 16.5807 662.4 16.5807 665.788 17.0895 669.317 C 22.0681 670.794 26.9377 671.146 32.0132 670.243 C 33.2972 665.976 33.7454 661.838 33.3699 656.774 Z" stroke-linecap="round"/>
</g>
		<g transform="matrix(1 0 0 1 -28.6161 56.629)">
<path style="stroke: none; stroke-width: 1; stroke-dasharray: none; stroke-linecap: butt; stroke-dashoffset: 0; stroke-linejoin: miter; stroke-miterlimit: 4; is-custom-font: none; font-file-url: none; fill: rgb(246,245,233); fill-rule: nonzero; opacity: 1;" transform=" translate(-3.8839, -596.629)" d="M 3.78929 674.815 C 1.7179 669.036 2.89289 663.924 2.56583 659.071 C 0.869956 633.55 -0.619977 607.959 2.14187 582.45 C 4.14058 563.963 5.03697 545.5 4.4313 526.942 C 4.35862 524.563 4.12847 522.195 3.88621 518.443 C 7.54445 521.702 6.99934 524.68 7.05991 527.364 C 7.49599 546.508 6.4179 565.593 5.07331 584.689 C 3.08671 612.777 4.00733 640.854 6.53902 668.883 C 6.72072 670.993 6.75707 670.993 3.78929 674.815 Z" stroke-linecap="round"/>
</g>
		<g transform="matrix(1 0 0 1 29.6692 60.234)">
<path style="stroke: none; stroke-width: 1; stroke-dasharray: none; stroke-linecap: butt; stroke-dashoffset: 0; stroke-linejoin: miter; stroke-miterlimit: 4; is-custom-font: none; font-file-url: none; fill: rgb(246,245,233); fill-rule: nonzero; opacity: 1;" transform=" translate(-62.1693, -600.234)" d="M 61.8122 522.863 C 64.7921 574.62 65.2888 625.896 62.8055 677.605 C 59.1957 676.375 59.9952 673.655 60.0679 671.322 C 60.6615 654.16 61.5821 637.009 61.8486 619.847 C 62.212 596.249 61.0733 572.662 60.2617 549.076 C 60.0195 542.054 60.08 535.032 60.1285 528.01 C 60.1527 526.427 59.4622 524.563 61.8122 522.863 Z" stroke-linecap="round"/>
</g>
		<g transform="matrix(1 0 0 1 1.0719 318.4145)">
<path style="stroke: none; stroke-width: 1; stroke-dasharray: none; stroke-linecap: butt; stroke-dashoffset: 0; stroke-linejoin: miter; stroke-miterlimit: 4; is-custom-font: none; font-file-url: none; fill: rgb(246,245,233); fill-rule: nonzero; opacity: 1;" transform=" translate(-33.572, -858.4145)" d="M 13.94 780.686 C 27.2284 780.686 40.5774 780.686 55.0044 780.686 C 54.7258 833.169 53.8778 884.597 54.7016 936.143 C 40.2745 934.478 26.8408 933.013 13.8552 934.326 C 9.43386 883.179 15.0908 831.586 13.94 780.686 Z M 15.4542 890.06 C 21.2323 890.764 27.0467 890.717 33.1397 890.341 C 33.1397 883.613 33.1397 877.517 33.1397 870.835 C 26.974 871.221 21.2202 870.917 15.4542 873.039 C 15.4542 878.431 15.4542 883.648 15.4542 890.06 Z M 16.3385 829.617 C 16.3385 835.08 16.3385 840.25 16.3385 845.923 C 22.0318 845.654 27.5676 845.408 33.5031 845.126 C 33.2488 839.382 34.0482 834.013 32.849 828.527 C 27.3859 827.507 22.274 828.515 16.3385 829.617 Z M 51.4673 824.928 C 51.4673 818.691 51.4673 812.947 51.4673 807.086 C 46.2585 805.327 41.3647 805.902 35.8289 806.277 C 36.2408 812.677 36.6405 818.75 37.0524 825.127 C 41.9704 825.033 46.4645 826.147 51.4673 824.928 Z M 32.0738 802.83 C 33.4426 795.972 32.4735 789.935 31.8557 783.745 C 26.441 783.558 21.7168 782.901 16.8594 784.191 C 17.8284 790.556 16.5323 796.793 18.1555 802.818 C 22.8555 802.83 27.2163 802.83 32.0738 802.83 Z M 51.116 867.775 C 51.116 861.445 51.116 855.536 51.116 849.534 C 46.3433 848.667 42.0552 848.268 37.6096 848.608 C 37.6096 855.396 37.6096 861.667 37.6096 868.009 C 42.2611 868.572 46.4281 868.912 51.116 867.775 Z M 50.4376 894.14 C 45.8709 893.952 41.6312 892.768 37.6217 894.022 C 37.6217 900.904 37.6217 907.41 37.6217 913.916 C 42.1279 913.916 46.0647 913.916 50.4376 913.916 C 50.4376 907.164 50.4376 900.869 50.4376 894.14 Z M 33.3699 917.574 C 27.6766 918.5 22.4436 917.879 17.1622 919.66 C 16.5807 923.201 16.5807 926.589 17.0895 930.117 C 22.0681 931.594 26.9377 931.946 32.0132 931.043 C 33.2972 926.776 33.7454 922.638 33.3699 917.574 Z" stroke-linecap="round"/>
</g>
		<g transform="matrix(1 0 0 1 -28.6161 317.429)">
<path style="stroke: none; stroke-width: 1; stroke-dasharray: none; stroke-linecap: butt; stroke-dashoffset: 0; stroke-linejoin: miter; stroke-miterlimit: 4; is-custom-font: none; font-file-url: none; fill: rgb(246,245,233); fill-rule: nonzero; opacity: 1;" transform=" translate(-3.8839, -857.429)" d="M 3.78929 935.615 C 1.7179 929.835 2.89289 924.724 2.56583 919.871 C 0.869956 894.35 -0.619977 868.759 2.14187 843.25 C 4.14058 824.763 5.03697 806.3 4.4313 787.742 C 4.35862 785.363 4.12847 782.994 3.88621 779.243 C 7.54445 782.502 6.99934 785.48 7.05991 788.164 C 7.49599 807.308 6.4179 826.393 5.07331 845.489 C 3.08671 873.577 4.00733 901.654 6.53902 929.683 C 6.72072 931.793 6.75707 931.793 3.78929 935.615 Z" stroke-linecap="round"/>
</g>
		<g transform="matrix(1 0 0 1 29.6692 321.034)">
<path style="stroke: none; stroke-width: 1; stroke-dasharray: none; stroke-linecap: butt; stroke-dashoffset: 0; stroke-linejoin: miter; stroke-miterlimit: 4; is-custom-font: none; font-file-url: none; fill: rgb(246,245,233); fill-rule: nonzero; opacity: 1;" transform=" translate(-62.1693, -861.034)" d="M 61.8122 783.663 C 64.7921 835.42 65.2888 886.696 62.8055 938.405 C 59.1957 937.174 59.9952 934.455 60.0679 932.122 C 60.6615 914.96 61.5821 897.809 61.8486 880.647 C 62.212 857.048 61.0733 833.462 60.2617 809.876 C 60.0195 802.854 60.08 795.831 60.1285 788.809 C 60.1527 787.227 59.4622 785.363 61.8122 783.663 Z" stroke-linecap="round"/>
</g>
		<g transform="matrix(1 0 0 1 1.0719 187.8015)">
<path style="stroke: none; stroke-width: 1; stroke-dasharray: none; stroke-linecap: butt; stroke-dashoffset: 0; stroke-linejoin: miter; stroke-miterlimit: 4; is-custom-font: none; font-file-url: none; fill: rgb(246,245,233); fill-rule: nonzero; opacity: 1;" transform=" translate(-33.572, -727.8015)" d="M 13.94 650.073 C 27.2284 650.073 40.5774 650.073 55.0044 650.073 C 54.7258 702.556 53.8778 753.984 54.7016 805.53 C 40.2745 803.865 26.8408 802.4 13.8552 803.713 C 9.43386 752.566 15.0908 700.974 13.94 650.073 Z M 15.4542 759.447 C 21.2323 760.151 27.0467 760.104 33.1397 759.729 C 33.1397 753 33.1397 746.904 33.1397 740.222 C 26.974 740.609 21.2202 740.304 15.4542 742.426 C 15.4542 747.818 15.4542 753.035 15.4542 759.447 Z M 16.3385 699.004 C 16.3385 704.467 16.3385 709.637 16.3385 715.311 C 22.0318 715.041 27.5676 714.795 33.5031 714.514 C 33.2488 708.769 34.0482 703.4 32.849 697.914 C 27.3859 696.894 22.274 697.902 16.3385 699.004 Z M 51.4673 694.315 C 51.4673 688.078 51.4673 682.334 51.4673 676.473 C 46.2585 674.714 41.3647 675.289 35.8289 675.664 C 36.2408 682.065 36.6405 688.137 37.0524 694.514 C 41.9704 694.421 46.4645 695.534 51.4673 694.315 Z M 32.0738 672.217 C 33.4426 665.359 32.4735 659.322 31.8557 653.132 C 26.441 652.945 21.7168 652.288 16.8594 653.578 C 17.8284 659.943 16.5323 666.18 18.1555 672.206 C 22.8555 672.217 27.2163 672.217 32.0738 672.217 Z M 51.116 737.162 C 51.116 730.832 51.116 724.923 51.116 718.921 C 46.3433 718.054 42.0552 717.655 37.6096 717.995 C 37.6096 724.783 37.6096 731.054 37.6096 737.397 C 42.2611 737.959 46.4281 738.299 51.116 737.162 Z M 50.4376 763.527 C 45.8709 763.339 41.6312 762.155 37.6217 763.41 C 37.6217 770.291 37.6217 776.797 37.6217 783.303 C 42.1279 783.303 46.0647 783.303 50.4376 783.303 C 50.4376 776.551 50.4376 770.256 50.4376 763.527 Z M 33.3699 786.961 C 27.6766 787.887 22.4436 787.266 17.1622 789.048 C 16.5807 792.588 16.5807 795.976 17.0895 799.505 C 22.0681 800.982 26.9377 801.333 32.0132 800.431 C 33.2972 796.163 33.7454 792.025 33.3699 786.961 Z" stroke-linecap="round"/>
</g>
		<g transform="matrix(1 0 0 1 -28.6165 201.014)">
<path style="stroke: none; stroke-width: 1; stroke-dasharray: none; stroke-linecap: butt; stroke-dashoffset: 0; stroke-linejoin: miter; stroke-miterlimit: 4; is-custom-font: none; font-file-url: none; fill: rgb(246,245,233); fill-rule: nonzero; opacity: 1;" transform=" translate(-3.8835, -741.014)" d="M 3.78894 662.828 C 1.71755 668.608 2.89254 673.719 2.56547 678.572 C 0.869601 704.093 -0.620335 729.684 2.14151 755.193 C 4.14022 773.68 5.03661 792.144 4.43094 810.701 C 4.35826 813.081 4.12811 815.449 3.88584 819.2 C 7.54408 815.941 6.99897 812.964 7.05954 810.279 C 7.49562 791.136 6.41753 772.051 5.07295 752.954 C 3.08636 724.866 4.00697 696.79 6.53867 668.76 C 6.72037 666.65 6.75672 666.65 3.78894 662.828 Z" stroke-linecap="round"/>
</g>
		<g transform="matrix(1 0 0 1 29.6692 195.595)">
<path style="stroke: none; stroke-width: 1; stroke-dasharray: none; stroke-linecap: butt; stroke-dashoffset: 0; stroke-linejoin: miter; stroke-miterlimit: 4; is-custom-font: none; font-file-url: none; fill: rgb(246,245,233); fill-rule: nonzero; opacity: 1;" transform=" translate(-62.1693, -735.595)" d="M 61.8122 658.224 C 64.7921 709.98 65.2888 761.256 62.8055 812.966 C 59.1957 811.735 59.9952 809.015 60.0679 806.682 C 60.6615 789.52 61.5821 772.369 61.8486 755.207 C 62.212 731.609 61.0733 708.023 60.2617 684.436 C 60.0195 677.414 60.08 670.392 60.1285 663.37 C 60.1527 661.787 59.4622 659.923 61.8122 658.224 Z" stroke-linecap="round"/>
</g>
		<g transform="matrix(1 0 0 1 1.0719 448.6015)">
<path style="stroke: none; stroke-width: 1; stroke-dasharray: none; stroke-linecap: butt; stroke-dashoffset: 0; stroke-linejoin: miter; stroke-miterlimit: 4; is-custom-font: none; font-file-url: none; fill: rgb(246,245,233); fill-rule: nonzero; opacity: 1;" transform=" translate(-33.572, -988.6015)" d="M 13.94 910.873 C 27.2284 910.873 40.5774 910.873 55.0044 910.873 C 54.7258 963.356 53.8778 1014.78 54.7016 1066.33 C 40.2745 1064.67 26.8408 1063.2 13.8552 1064.51 C 9.43386 1013.37 15.0908 961.774 13.94 910.873 Z M 15.4542 1020.25 C 21.2323 1020.95 27.0467 1020.9 33.1397 1020.53 C 33.1397 1013.8 33.1397 1007.7 33.1397 1001.02 C 26.974 1001.41 21.2202 1001.1 15.4542 1003.23 C 15.4542 1008.62 15.4542 1013.84 15.4542 1020.25 Z M 16.3385 959.804 C 16.3385 965.267 16.3385 970.437 16.3385 976.111 C 22.0318 975.841 27.5676 975.595 33.5031 975.314 C 33.2488 969.57 34.0482 964.2 32.849 958.714 C 27.3859 957.694 22.274 958.702 16.3385 959.804 Z M 51.4673 955.115 C 51.4673 948.879 51.4673 943.134 51.4673 937.273 C 46.2585 935.515 41.3647 936.089 35.8289 936.464 C 36.2408 942.865 36.6405 948.937 37.0524 955.315 C 41.9704 955.221 46.4645 956.334 51.4673 955.115 Z M 32.0738 933.018 C 33.4426 926.16 32.4735 920.122 31.8557 913.933 C 26.441 913.745 21.7168 913.089 16.8594 914.378 C 17.8284 920.744 16.5323 926.98 18.1555 933.006 C 22.8555 933.018 27.2163 933.018 32.0738 933.018 Z M 51.116 997.962 C 51.116 991.632 51.116 985.724 51.116 979.722 C 46.3433 978.854 42.0552 978.456 37.6096 978.795 C 37.6096 985.583 37.6096 991.855 37.6096 998.197 C 42.2611 998.76 46.4281 999.1 51.116 997.962 Z M 50.4376 1024.33 C 45.8709 1024.14 41.6312 1022.96 37.6217 1024.21 C 37.6217 1031.09 37.6217 1037.6 37.6217 1044.1 C 42.1279 1044.1 46.0647 1044.1 50.4376 1044.1 C 50.4376 1037.35 50.4376 1031.06 50.4376 1024.33 Z M 33.3699 1047.76 C 27.6766 1048.69 22.4436 1048.07 17.1622 1049.85 C 16.5807 1053.39 16.5807 1056.78 17.0895 1060.3 C 22.0681 1061.78 26.9377 1062.13 32.0132 1061.23 C 33.2972 1056.96 33.7454 1052.83 33.3699 1047.76 Z" stroke-linecap="round"/>
</g>
		<g transform="matrix(1 0 0 1 -28.6165 461.814)">
<path style="stroke: none; stroke-width: 1; stroke-dasharray: none; stroke-linecap: butt; stroke-dashoffset: 0; stroke-linejoin: miter; stroke-miterlimit: 4; is-custom-font: none; font-file-url: none; fill: rgb(246,245,233); fill-rule: nonzero; opacity: 1;" transform=" translate(-3.8835, -1001.814)" d="M 3.78894 923.628 C 1.71755 929.408 2.89254 934.519 2.56547 939.372 C 0.869601 964.893 -0.620335 990.484 2.14151 1015.99 C 4.14022 1034.48 5.03661 1052.94 4.43094 1071.5 C 4.35826 1073.88 4.12811 1076.25 3.88584 1080 C 7.54408 1076.74 6.99897 1073.76 7.05954 1071.08 C 7.49562 1051.94 6.41753 1032.85 5.07295 1013.75 C 3.08636 985.666 4.00697 957.59 6.53867 929.56 C 6.72037 927.45 6.75672 927.45 3.78894 923.628 Z" stroke-linecap="round"/>
</g>
		<g transform="matrix(1 0 0 1 29.6692 456.397)">
<path style="stroke: none; stroke-width: 1; stroke-dasharray: none; stroke-linecap: butt; stroke-dashoffset: 0; stroke-linejoin: miter; stroke-miterlimit: 4; is-custom-font: none; font-file-url: none; fill: rgb(246,245,233); fill-rule: nonzero; opacity: 1;" transform=" translate(-62.1693, -996.397)" d="M 61.8122 919.024 C 64.7921 970.781 65.2888 1022.06 62.8055 1073.77 C 59.1957 1072.54 59.9952 1069.82 60.0679 1067.48 C 60.6615 1050.32 61.5821 1033.17 61.8486 1016.01 C 62.212 992.409 61.0733 968.823 60.2617 945.236 C 60.0195 938.214 60.08 931.192 60.1285 924.17 C 60.1527 922.588 59.4622 920.724 61.8122 919.024 Z" stroke-linecap="round"/>
</g>
</g>
</g>
</svg>