<svg width="856" height="388" viewBox="0 0 856 388" fill="none" xmlns="http://www.w3.org/2000/svg">
<path d="M13.5545 179.378L8.11172 176.705C8.56954 175.749 8.69762 174.904 9.02728 174.792C12.3738 173.827 15.722 172.967 19.4937 171.94L21.3308 165.588C22.353 165.321 23.4004 165.193 24.4502 165.206L52.9112 168.022C54.3587 168.202 55.8154 168.277 57.2719 168.245C58.3126 168.147 59.3062 167.718 60.1342 167.01C60.9623 166.302 61.5897 165.345 61.9419 164.252C62.1552 163.761 62.2689 163.223 62.275 162.677C62.281 162.131 62.1794 161.591 61.977 161.094C61.7747 160.596 61.4766 160.154 61.1039 159.799C60.7311 159.444 60.2928 159.184 59.8196 159.037C55.4986 158.339 51.1818 157.905 46.8642 157.418C45.1556 157.191 43.3084 157.178 42.4999 154.091L52.8821 151.872L48.6017 145.019L61.8977 144.316C63.2994 140.288 60.2332 138.143 59.8111 135.522C57.1107 132.581 52.6032 134.938 49.8776 130.472C55.2087 128.576 60.7599 127.554 66.3555 127.439C80.8119 128.185 95.2718 129.141 109.775 129.833C121.624 130.423 133.469 130.803 145.363 131.182C147.595 131.115 149.822 130.891 152.029 130.514C151.982 127.674 149.951 127.981 148.717 127.849C138.043 126.708 127.325 125.778 116.652 124.689C102.42 123.202 87.8547 121.617 73.4318 120.03C67.07 119.942 60.764 118.708 54.76 116.375C50.866 115.135 46.8436 114.46 42.7928 114.367L36.7132 113.286C36.6569 109.868 39.1486 108.763 40.1073 106.585C41.046 104.591 42.1062 102.67 43.2803 100.836C43.9257 99.7706 44.7631 98.8588 45.4086 97.793C48.6832 92.4628 48.3086 89.8402 43.7848 85.4647C43.1278 84.8884 42.4388 84.3584 41.7222 83.8776C43.3817 75.3727 43.3818 75.3727 39.6921 61.2472C35.3502 59.2877 29.2802 58.7853 30.0376 50.1418L43.6384 50.6948C45.3463 51.0301 47.0974 50.9841 48.7897 50.5598C50.4821 50.1355 52.0818 49.3415 53.4954 48.2236C55.2715 47.2164 57.2938 46.8779 59.2572 47.2595C81.5783 48.2063 103.905 49.4688 126.177 50.3115C134.895 50.5999 143.598 49.9418 152.309 49.757C153.561 49.8813 154.823 49.6758 155.991 49.1575C157.159 48.6391 158.201 47.8223 159.032 46.7734C157.667 45.8525 156.187 45.1575 154.641 44.7098C147.098 43.923 139.606 43.3454 132.069 42.874L103.627 41.2681C102.506 39.2928 101.58 37.7342 100.653 36.0705C94.6485 36.6713 89.2909 33.418 83.3216 33.2816C77.3522 33.1452 70.6529 31.8144 64.3418 31.0539L46.3543 28.7002L39.6006 18.3222C41.9047 17.3264 45.2634 17.0973 46.4166 15.2316C49.3203 10.3828 53.2678 11.4038 57.1507 11.374C68.15 11.404 79.1278 12.4378 89.9733 14.4652C92.288 14.7145 94.6144 14.8057 96.9394 14.7383C103.572 14.9132 110.25 14.9293 116.885 15.2094C131.672 15.8952 146.46 16.6863 161.201 17.4257C165.277 17.6549 169.306 17.8323 173.38 17.9562C175.677 18.3008 178.008 18.2513 180.292 17.8096C191.416 14.575 202.765 16.4386 213.979 15.885C228.176 15.2156 242.384 15.2824 256.587 14.9811C258.226 14.7302 259.817 14.1808 261.296 13.3554C262.814 12.4571 264.383 11.6683 265.992 10.9937C268.35 10.365 270.714 10.1571 270.504 14.6331C274.71 14.123 278.467 15.0429 281.486 11.4542C282.181 10.5451 284.219 10.6072 285.549 10.842C294.085 11.6854 302.665 11.8723 311.226 11.4018C325.155 11.7376 338.935 8.81502 352.867 9.36113C355.755 9.29987 358.643 9.23861 361.525 8.86181C363.52 8.39697 365.576 8.35335 367.585 8.73325C373.429 10.6832 379.72 10.1368 385.224 7.20149C388 6.27909 390.875 5.77574 393.771 5.70499C409.3 3.89413 424.911 3.10615 440.522 3.34529C446.683 1.95142 453.02 1.81698 459.222 2.94855C464.11 2.5831 469.015 2.58448 473.903 2.9527C475.068 3.10595 476.249 2.87994 477.302 2.30199C479.26 1.26018 481.385 0.65844 483.552 0.531194C485.72 0.403949 487.889 0.753884 489.934 1.5607C491.361 1.95127 493.128 2.80787 494.16 2.2073C500.214 -1.13016 506.644 1.10072 512.838 0.495849C520.876 -0.253371 529.029 0.152535 537.133 0.506666C551.341 0.555933 565.55 0.675268 579.761 0.864771C592.217 0.968731 604.673 1.0201 617.134 1.38701C623.428 2.15756 629.776 2.21669 636.081 1.56364C640.687 1.08089 645.327 1.17648 649.914 1.84875C659.395 2.4367 668.88 3.2878 678.36 3.77057C686.31 4.8902 694.34 5.14265 702.335 4.52441C704.33 3.98588 706.427 4.18141 708.312 5.08153C712.158 7.27225 716.533 8.04526 720.803 7.28887C723.312 7.23563 725.946 8.9686 728.403 8.65343C737.239 7.46642 745.453 11.6059 754.121 11.685C758.855 11.5846 763.602 12.2728 767.952 11.8648C772.005 11.4504 776.088 12.1029 779.87 13.769C787.217 16.8305 795.071 18.0991 802.9 17.4889C809.22 17.5527 815.472 18.9186 821.341 21.5168C823.204 22.4246 825.023 23.4394 826.79 24.5574C831.567 27.0338 831.567 27.0338 837.395 24.3324C843.833 27.0892 846.545 33.5549 849.206 39.8639C849.569 41.6965 849.6 43.5914 849.298 45.4382C849.339 47.9625 848.58 50.7141 850.131 52.8906C850.303 53.4502 850.355 54.0472 850.283 54.6335C850.21 55.2197 850.015 55.7789 849.713 56.2664C849.329 56.894 849.062 57.6004 848.928 58.3441C848.794 59.0878 848.795 59.8538 848.932 60.5968C849.037 67.0125 846.477 69.6973 840.558 69.7176C839.232 69.7458 837.906 69.7739 836.676 69.8C836.023 73.2859 838.372 75.0246 839.276 78.1618L835.317 87.9256C837.392 93.1422 839.466 98.3588 841.583 103.206C839.412 109.407 838.715 115.998 833.809 120.048C836.796 131.715 836.795 131.715 841.875 135.343L836.423 140.719L840.013 145.904L830.309 151.949C830.682 153.811 830.888 155.71 830.923 157.617C830.659 159.567 830.263 161.492 829.74 163.377C835.388 166.992 842.259 167.267 847.24 173.527C849.186 180.331 849.124 187.65 847.063 194.415C846.527 196.373 846.223 198.063 844.536 199.151C844.081 199.517 843.687 199.971 843.375 200.491C842.265 202.145 845.378 204.236 843.177 205.756C840.976 207.275 841.798 208.31 842.011 209.726C842.222 210.987 842.61 212.204 843.16 213.331C843.778 214.224 844.122 215.314 844.14 216.441C844.159 217.567 843.851 218.671 843.263 219.589C842.609 221.038 842.251 222.628 842.212 224.247C842.173 225.866 842.455 227.474 843.038 228.958C843.496 230.842 845.508 232.272 847.054 234.134C846.477 245.088 845.955 256.515 845.346 268.417L852.088 272.377C851.824 273.593 851.893 274.906 851.379 275.286C849.041 277.124 846.698 278.647 843.792 280.444C843.028 282.986 845.469 284.512 846.413 287.227C845.343 288.486 844.352 289.825 843.449 291.236C840.78 295.974 841.086 297.336 845.941 301.704C844.971 303.145 844.205 305.529 842.978 305.818C839.253 306.791 840.304 310.241 839.354 312.944L845.416 321.548C843.817 325.85 843.273 330.545 843.84 335.154C844.273 340.613 843.802 346.115 842.45 351.387C841.584 356.076 841.076 360.839 840.932 365.623L836.261 369.562C836.302 372.034 836.626 374.447 836.812 377.126C836.15 377.653 835.399 378.027 834.604 378.225L810.298 377.478C808.609 377.142 806.89 377.037 805.178 377.165C795.467 379.897 786.212 375.779 776.341 377.409L776.309 375.463L788.476 375.205C782.328 372.863 776.584 369.145 769.879 370.339C768.834 370.318 767.796 370.146 766.792 369.826C764.835 369.447 762.85 369.277 760.864 369.32C760.33 369.426 759.825 369.666 759.388 370.022C758.951 370.378 758.592 370.84 758.34 371.373C757.522 373.442 759.423 373.875 760.672 374.901C759.184 376.616 757.268 378.182 758.365 381.473L762.359 382.44C761.89 382.766 761.519 383.194 761.14 383.202C757.968 383.27 754.749 383.338 751.672 383.403C748.776 383.315 745.883 383.659 743.069 384.428C737.467 385.993 731.741 386.942 725.973 387.263C717.877 388.076 709.735 388.125 701.633 387.411C680.777 386.275 659.922 385.227 639.069 384.267C619.4 383.316 599.729 382.261 580.017 381.574C554.239 380.648 528.419 380.039 502.644 379.323C487.862 378.9 473.034 378.636 458.251 378.16C450.149 377.964 442.05 377.873 433.985 377.044C428.615 376.503 423.215 376.406 417.832 376.756C414.186 376.833 410.472 375.597 406.776 375.465C403.08 375.333 399.304 376.097 395.516 376.125C393.505 376.062 391.51 375.716 389.579 375.093C385.147 373.722 380.484 373.55 375.979 374.593C370.55 375.629 365.011 375.746 359.551 374.941C356.49 374.201 353.482 373.21 350.552 371.976C349.477 373.029 348.224 373.833 346.866 374.34C345.508 374.848 344.073 375.049 342.645 374.932C328.753 373.964 314.913 373.31 301.026 372.606C292.021 372.165 283.063 371.724 274.107 371.388L232.36 369.907L188.909 368.461C174.979 368.02 161.095 367.526 147.167 367.243C135.039 366.974 122.869 367.022 110.739 366.648C103.536 366.38 96.5131 365.529 89.1149 364.897C80.1983 364.086 71.2335 363.225 62.3151 362.309C58.0458 361.874 53.7729 361.228 49.5965 360.685C48.6407 357.286 50.8493 356.239 51.9577 354.532C53.9896 351.386 53.5281 349.239 50.2381 347.888C48.662 347.08 46.9965 346.589 44.947 345.791L44.6871 330.014C39.5913 328.281 37.4173 322.804 33.1133 320.265C32.4436 319.858 31.433 318.88 31.4708 318.3C31.9049 313.031 27.6052 310.755 25.1809 307.334C24.308 306.09 23.3887 304.899 22.3711 303.5L27.6487 299.022L27.8675 292.179L49.1206 285.783C47.8683 278.761 47.3828 278.034 42.4428 277.139C33.8937 275.637 25.2989 274.242 17.1784 272.888C15.421 270.211 13.412 267.75 11.1851 265.545C8.95617 264.331 6.58176 263.478 4.13439 263.012C4.63696 261.897 4.76522 261.052 5.09488 260.94C7.25959 260.105 9.81342 259.893 10.8099 257.136C11.4797 255.484 11.8353 253.697 11.8543 251.886C11.8734 250.075 11.5556 248.28 10.9207 246.612C10.0894 243.535 8.38366 240.84 6.05837 238.93C1.90157 236.703 1.50434 232.714 0.397865 228.792C0.335666 228.145 0.324942 227.494 0.365817 226.846C3.8298 221.512 3.43831 214.997 4.33201 208.875C4.56871 208.87 4.84498 208.391 5.08169 208.386C10.2641 208.888 15.4727 208.97 20.6665 208.634C25.7241 207.389 30.9044 206.872 36.0798 207.097C37.8111 207.068 39.5361 206.855 41.2313 206.462C44.1191 206.4 47.0001 205.918 49.8896 205.962C59.3631 206.077 68.8383 206.297 78.7678 205.35C77.7865 204.999 76.7852 204.722 75.7706 204.519C71.8765 203.865 71.8765 203.865 70.0426 198.906L61.3582 197.828L58.5259 192.627L16.6539 186.414L13.5545 179.378ZM769.528 374.923C769.178 374.638 768.81 374.381 768.426 374.157C768.426 374.157 768.053 374.481 767.866 374.643L768.921 375.462L769.528 374.923ZM855.31 65.4065L855.301 64.8804L854.685 64.8935L855.31 65.4065Z" fill="#F74061"/>
</svg>
