<svg width="7" height="1080" viewBox="0 0 7 1080" fill="none" xmlns="http://www.w3.org/2000/svg">
<path d="M1.58499 35.9203C1.59117 33.8279 1.56367 31.6759 1.53565 29.4828C1.45011 22.788 1.35968 15.7104 2.20738 8.77837C6.12104 365.599 6.76318 719.194 3.48846 1075.72C2.29549 1071.78 1.72491 1066.66 1.48626 1060.92C1.25211 1055.29 1.33837 1049.17 1.42345 1043.13C1.45659 1040.78 1.48954 1038.44 1.50332 1036.15C1.77005 996.207 2.08581 956.271 2.40155 916.337C3.03259 836.525 3.66355 756.722 3.90292 676.885C4.30511 541.622 3.34211 406.415 2.37922 271.222C2.16963 241.794 1.96003 212.367 1.76453 182.94C1.45064 135.819 1.51402 88.6979 1.57741 41.5726C1.57995 39.6885 1.58248 37.8044 1.58499 35.9203ZM1.58499 35.9203C1.58499 35.9205 1.58499 35.9207 1.58499 35.9209L0.713252 35.9183L1.58499 35.9195C1.58499 35.9197 1.58499 35.92 1.58499 35.9203Z" fill="#098770" stroke="#098770" stroke-width="1.74348"/>
</svg>
