<?xml version="1.0" encoding="UTF-8" standalone="no" ?>
<!DOCTYPE svg PUBLIC "-//W3C//DTD SVG 1.1//EN" "http://www.w3.org/Graphics/SVG/1.1/DTD/svg11.dtd">
<svg xmlns="http://www.w3.org/2000/svg" xmlns:xlink="http://www.w3.org/1999/xlink" version="1.1" width="1080" height="1080" viewBox="0 0 1080 1080" xml:space="preserve">
<desc>Created with Fabric.js 4.2.0</desc>
<defs>
</defs>
<g transform="matrix(1 0 0 1 540 540)" id="c1c3d1c1-53a2-40d8-bcf8-8ec37eb36927"  >
<rect style="stroke: none; stroke-width: 1; stroke-dasharray: none; stroke-linecap: butt; stroke-dashoffset: 0; stroke-linejoin: miter; stroke-miterlimit: 4; fill: rgb(255,255,255); fill-opacity: 0; fill-rule: nonzero; opacity: 1;" vector-effect="non-scaling-stroke"  x="-540" y="-540" rx="0" ry="0" width="1080" height="1080" />
</g>
<g transform="matrix(1 0 0 1 540 540)" id="e03b1203-bc97-47af-bdb5-9c6d2aa8cfce"  >
</g>
<g transform="matrix(10.53 0 0 10.53 539.9 539.88)"  >
<path style="stroke: rgb(0,0,0); stroke-width: 0; stroke-dasharray: none; stroke-linecap: butt; stroke-dashoffset: 0; stroke-linejoin: miter; stroke-miterlimit: 4; fill: rgb(6,18,46); fill-rule: nonzero; opacity: 1;" vector-effect="non-scaling-stroke"  transform=" translate(-20.5, -23.5)" d="M 20.187 47 C 19.953 47 19.7365 46.9818 19.5375 46.9514 C 18.1917 46.7387 16.9571 46.2281 15.7576 45.3894 C 14.8389 44.7451 13.8559 44.1677 12.908 43.6146 C 12.6154 43.4445 12.3229 43.2743 12.0303 43.098 C 11.3399 42.6908 10.6494 42.2897 9.95309 41.8885 C 9.50839 41.6333 9.06954 41.378 8.62484 41.1227 L 7.53064 40.4845 C 6.30772 39.7734 5.09065 39.0684 3.87942 38.333 C 2.98417 37.7921 2.27031 36.9959 1.62667 36.2179 C 0.994724 35.446 0.53247 34.5526 0.228201 33.4768 C 0.128729 33.1425 0.00585132 32.638 0 32.1518 C 0 28.3349 0 24.5059 0 20.6829 L 0 15.3526 C 0 13.7724 0.544172 12.259 1.66763 10.7335 C 2.28786 9.88866 3.10705 9.19578 4.24806 8.55153 C 5.03213 8.10785 5.81036 7.6277 6.55933 7.16578 C 7.00403 6.89228 7.45458 6.6127 7.90513 6.34527 C 9.02858 5.67063 10.152 5.00815 11.2696 4.33958 L 13.4229 3.05716 C 13.8267 2.81404 14.2246 2.56485 14.6224 2.31566 C 15.4475 1.79904 16.2959 1.27027 17.1678 0.832665 C 18.2795 0.279581 19.4088 0 20.5206 0 C 21.6031 0 22.6797 0.261347 23.7271 0.784042 C 24.7277 1.28243 25.7107 1.88413 26.6586 2.46761 C 27.0506 2.71072 27.4485 2.95383 27.8464 3.18479 C 30.1226 4.54015 32.4046 5.89551 34.6749 7.25695 L 35.3127 7.63378 C 36.1202 8.11393 36.9569 8.60623 37.7293 9.15932 C 38.999 10.0649 39.9235 11.2623 40.4677 12.727 C 40.848 13.742 41.0236 14.757 41.006 15.8328 C 40.9768 17.644 40.9826 19.4856 40.9885 21.2664 C 40.9885 22.0079 40.9943 22.7494 40.9943 23.4848 C 40.9943 24.3479 41.0002 25.2048 41.0002 26.0679 C 41.006 28.0432 41.0119 30.0914 40.9826 32.0971 C 40.9534 33.7868 40.3039 35.3123 39.04 36.619 C 38.0277 37.6705 36.7638 38.412 35.5409 39.1292 C 35.2074 39.3237 34.8797 39.5182 34.552 39.7187 C 31.2343 41.7548 27.9108 43.7605 24.5872 45.7601 L 24.2947 45.9364 C 23.8266 46.222 23.3409 46.5199 22.8435 46.6779 C 22.3169 46.842 21.7318 46.8906 21.1642 46.9392 L 20.8014 46.9696 C 20.6025 46.9878 20.3918 47 20.187 47 Z M 9.59031 21.8924 C 9.23923 21.8924 8.92326 22.0018 8.61899 22.1051 C 8.41419 22.1781 8.21525 22.2449 8.02215 22.2692 C 6.4423 22.4941 5.29544 23.3997 4.38264 24.2628 C 4.14858 24.4816 4.05496 24.8462 4.03741 25.0954 C 3.9906 25.8795 3.96134 26.6939 3.96134 27.5934 C 3.96134 28.0189 3.97304 28.4383 3.98475 28.8637 C 3.99645 29.1433 4.0023 29.4229 4.00815 29.7024 C 4.00815 29.7693 3.99645 29.8362 3.9906 29.903 C 3.97304 30.0063 3.95549 30.1279 3.96719 30.2555 C 3.9789 30.4561 3.9789 30.6627 3.98475 30.8694 C 3.9906 31.4103 3.99645 31.9695 4.17784 32.48 C 4.52307 33.4342 5.26033 34.2487 6.4306 34.9659 C 7.32585 35.5129 8.2328 36.0477 9.13976 36.5765 C 9.69563 36.8986 10.2515 37.2268 10.8015 37.555 C 11.6324 38.0473 12.4633 38.5518 13.2883 39.0502 C 13.9612 39.4574 14.6341 39.8646 15.3129 40.2657 C 15.6932 40.4906 16.0736 40.7155 16.4598 40.9343 C 17.1619 41.3415 17.8816 41.7609 18.5721 42.2046 C 19.1982 42.6057 19.8477 42.8124 20.503 42.8124 C 21.0881 42.8124 21.6733 42.6483 22.2409 42.3261 C 23.8968 41.3841 25.5527 40.3751 27.156 39.3966 C 27.9049 38.9408 28.6597 38.4849 29.4146 38.0291 C 30.029 37.6583 30.6433 37.2937 31.2636 36.929 C 32.3753 36.2665 33.4929 35.604 34.593 34.9294 C 35.2132 34.5465 35.6638 34.1879 36.009 33.805 C 36.7229 33.0088 37.0915 31.9573 37.1383 30.5959 C 37.1617 29.9152 37.1559 29.2344 37.15 28.5173 C 37.15 28.183 37.1442 27.8426 37.1442 27.484 L 37.1442 26.9492 L 35.6111 27.9034 C 35.5526 27.9399 35.4882 27.9824 35.4239 28.0067 L 35.0026 28.1769 C 33.9318 28.6024 32.82 29.046 31.8078 29.745 C 30.8072 30.4318 29.7481 31.07 28.7183 31.6899 C 28.1916 32.0059 27.665 32.322 27.1384 32.6502 C 26.4772 33.0635 25.7165 33.1182 25.0495 33.1364 C 24.8915 33.1425 24.7394 33.1425 24.5872 33.1425 C 23.4228 33.1425 22.5042 32.9784 21.6908 32.6259 L 21.4451 32.5226 C 20.8424 32.2673 20.2631 32.0242 19.7833 31.5076 C 19.8184 31.5015 19.8477 31.5015 19.8828 31.5015 L 20.0876 31.5015 C 20.3041 31.5015 20.5206 31.5076 20.7371 31.5076 C 20.9594 31.5136 21.1759 31.5136 21.3983 31.5136 C 21.8137 31.5136 22.1531 31.4954 22.4632 31.465 C 23.6861 31.3374 25.1197 31.1064 26.4714 30.4196 C 27.7411 29.7693 28.7534 28.8212 29.7305 27.9034 L 30.2103 27.4536 L 29.5726 27.3746 C 29.2858 27.3382 29.005 27.3138 28.7241 27.2835 C 28.1097 27.2227 27.5246 27.1619 26.9453 27.0464 C 25.0319 26.6818 23.534 25.5027 22.4749 23.5456 C 22.1531 22.9439 21.7318 22.2753 21.0647 21.8499 C 20.5908 21.546 20.0291 21.2664 19.3562 20.9929 C 19.1104 20.8896 18.9407 20.7498 18.8998 20.6161 C 18.8939 20.5857 18.8705 20.5067 18.9641 20.3669 C 19.2801 19.911 19.8126 19.3336 20.5498 19.1938 C 20.8307 19.1452 21.1057 19.1148 21.3632 19.1148 C 22.3403 19.1148 23.1595 19.4734 23.7973 20.1845 C 24.2244 20.6586 24.6106 21.2299 24.8974 21.8316 C 25.4415 22.9621 26.3309 23.8312 27.6124 24.4937 C 28.7534 25.0833 29.947 25.3689 31.2636 25.3689 C 31.6264 25.3689 32.0009 25.3446 32.3812 25.3021 C 34.1541 25.0954 35.6579 24.3539 37.109 22.9682 L 37.2085 22.8709 L 37.2027 22.7312 C 37.1793 22.0383 37.1559 21.3332 37.1266 20.6282 C 37.0622 18.9507 36.9979 17.2185 36.9979 15.5046 C 36.9979 13.8028 35.9037 12.9215 35.0786 12.4049 C 32.3051 10.6666 29.4497 8.9709 26.6879 7.33596 L 24.7511 6.18725 C 23.5633 5.48222 22.4866 4.88051 21.4568 4.34566 C 21.135 4.18156 20.7839 4.08431 20.4855 4.08431 C 20.3567 4.08431 20.2397 4.10255 20.1344 4.13294 C 19.245 4.4186 18.2327 4.74072 17.3375 5.34851 C 16.6938 5.78611 16.0209 6.1994 15.3656 6.60054 C 15.114 6.75249 14.8623 6.91051 14.6107 7.06854 L 12.6447 8.29626 C 10.7723 9.46929 8.83549 10.6788 6.91626 11.8518 C 6.10292 12.3502 5.31885 12.8546 4.6752 13.6265 C 4.23635 14.1492 4.02571 14.7205 4.03156 15.3648 C 4.03741 16.2096 4.03741 17.0544 4.03741 17.8932 L 4.03741 19.4309 C 4.03741 19.5281 4.04911 19.6254 4.06081 19.7469 L 4.12518 20.3365 L 4.93266 19.9475 C 5.22523 19.8016 5.50024 19.6679 5.78695 19.5464 C 8.02215 18.5861 10.0584 17.3401 12.434 15.7659 C 13.2298 15.2372 14.1075 14.7145 15.114 14.5078 C 15.6698 14.3923 16.1847 14.3376 16.6938 14.3376 C 16.9805 14.3376 17.2672 14.3559 17.5422 14.3923 C 19.0577 14.5929 20.2221 15.0366 21.1993 15.7902 C 21.2754 15.8449 21.3398 15.93 21.4041 16.0151 C 21.3339 16.0212 21.2637 16.0273 21.1993 16.0273 C 21.0998 16.0273 21.0238 16.0151 20.9653 15.9969 C 20.5323 15.851 20.0817 15.7902 19.5492 15.7902 C 19.2099 15.7902 18.8705 15.8206 18.613 15.8449 C 17.197 15.9787 15.8044 16.4527 14.2246 17.3219 C 13.4229 17.7656 12.6857 18.2943 12.1356 18.7076 C 11.8782 18.896 11.6792 19.1391 11.4803 19.3762 C 11.3984 19.4734 11.3164 19.5767 11.2287 19.6679 L 11.0765 19.832 L 11.3399 20.3122 L 11.9952 20.3122 L 12.2702 20.3061 C 12.4984 20.3 12.7208 20.2939 12.949 20.2939 C 13.458 20.2939 14.0549 20.3182 14.6693 20.5067 C 16.4949 21.0597 17.7587 22.1051 18.537 23.7036 C 19.2157 25.1015 20.2748 26.0193 21.7669 26.5055 C 22.0478 26.5967 22.2233 26.7243 22.2584 26.858 C 22.2935 27.01 22.1765 27.2348 21.9366 27.478 C 21.7669 27.6542 21.644 27.7818 21.5153 27.8609 C 20.9653 28.1951 20.4094 28.3653 19.8652 28.3653 C 19.2976 28.3653 18.7301 28.183 18.18 27.8244 C 17.5364 27.405 17.0741 26.9978 16.764 26.5784 C 16.5183 26.2441 16.3193 25.8916 16.1028 25.5148 C 15.8044 24.9921 15.4943 24.4451 15.0671 23.965 C 14.2246 23.0229 13.1538 22.6825 12.1181 22.3604 L 12.001 22.3239 C 11.6675 22.2206 11.3281 22.172 10.9946 22.1234 C 10.8425 22.0991 10.6904 22.0808 10.5382 22.0504 C 10.4387 22.0322 10.3393 22.014 10.2398 21.9897 C 10.1111 21.9653 9.9882 21.935 9.85947 21.9167 C 9.76585 21.8985 9.67223 21.8924 9.59031 21.8924 Z" stroke-linecap="round" />
</g>
</svg>