<svg width="42" height="47" viewBox="0 0 42 47" fill="none" xmlns="http://www.w3.org/2000/svg">
<path d="M20.187 47C19.953 47 19.7365 46.9818 19.5375 46.9514C18.1917 46.7387 16.9571 46.2281 15.7576 45.3894C14.8389 44.7451 13.8559 44.1677 12.908 43.6146C12.6154 43.4445 12.3229 43.2743 12.0303 43.098C11.3399 42.6908 10.6494 42.2897 9.95309 41.8885C9.50839 41.6333 9.06954 41.378 8.62484 41.1227L7.53064 40.4845C6.30772 39.7734 5.09065 39.0684 3.87942 38.333C2.98417 37.7921 2.27031 36.9959 1.62667 36.2179C0.994724 35.446 0.53247 34.5526 0.228201 33.4768C0.128729 33.1425 0.00585132 32.638 0 32.1518C0 28.3349 0 24.5059 0 20.6829V15.3526C0 13.7724 0.544172 12.259 1.66763 10.7335C2.28786 9.88866 3.10705 9.19578 4.24806 8.55153C5.03213 8.10785 5.81036 7.6277 6.55933 7.16578C7.00403 6.89228 7.45458 6.6127 7.90513 6.34527C9.02858 5.67063 10.152 5.00815 11.2696 4.33958L13.4229 3.05716C13.8267 2.81404 14.2246 2.56485 14.6224 2.31566C15.4475 1.79904 16.2959 1.27027 17.1678 0.832665C18.2795 0.279581 19.4088 0 20.5206 0C21.6031 0 22.6797 0.261347 23.7271 0.784042C24.7277 1.28243 25.7107 1.88413 26.6586 2.46761C27.0506 2.71072 27.4485 2.95383 27.8464 3.18479C30.1226 4.54015 32.4046 5.89551 34.6749 7.25695L35.3127 7.63378C36.1202 8.11393 36.9569 8.60623 37.7293 9.15932C38.999 10.0649 39.9235 11.2623 40.4677 12.727C40.848 13.742 41.0236 14.757 41.006 15.8328C40.9768 17.644 40.9826 19.4856 40.9885 21.2664C40.9885 22.0079 40.9943 22.7494 40.9943 23.4848C40.9943 24.3479 41.0002 25.2048 41.0002 26.0679C41.006 28.0432 41.0119 30.0914 40.9826 32.0971C40.9534 33.7868 40.3039 35.3123 39.04 36.619C38.0277 37.6705 36.7638 38.412 35.5409 39.1292C35.2074 39.3237 34.8797 39.5182 34.552 39.7187C31.2343 41.7548 27.9108 43.7605 24.5872 45.7601L24.2947 45.9364C23.8266 46.222 23.3409 46.5199 22.8435 46.6779C22.3169 46.842 21.7318 46.8906 21.1642 46.9392L20.8014 46.9696C20.6025 46.9878 20.3918 47 20.187 47ZM9.59031 21.8924C9.23923 21.8924 8.92326 22.0018 8.61899 22.1051C8.41419 22.1781 8.21525 22.2449 8.02215 22.2692C6.4423 22.4941 5.29544 23.3997 4.38264 24.2628C4.14858 24.4816 4.05496 24.8462 4.03741 25.0954C3.9906 25.8795 3.96134 26.6939 3.96134 27.5934C3.96134 28.0189 3.97304 28.4383 3.98475 28.8637C3.99645 29.1433 4.0023 29.4229 4.00815 29.7024C4.00815 29.7693 3.99645 29.8362 3.9906 29.903C3.97304 30.0063 3.95549 30.1279 3.96719 30.2555C3.9789 30.4561 3.9789 30.6627 3.98475 30.8694C3.9906 31.4103 3.99645 31.9695 4.17784 32.48C4.52307 33.4342 5.26033 34.2487 6.4306 34.9659C7.32585 35.5129 8.2328 36.0477 9.13976 36.5765C9.69563 36.8986 10.2515 37.2268 10.8015 37.555C11.6324 38.0473 12.4633 38.5518 13.2883 39.0502C13.9612 39.4574 14.6341 39.8646 15.3129 40.2657C15.6932 40.4906 16.0736 40.7155 16.4598 40.9343C17.1619 41.3415 17.8816 41.7609 18.5721 42.2046C19.1982 42.6057 19.8477 42.8124 20.503 42.8124C21.0881 42.8124 21.6733 42.6483 22.2409 42.3261C23.8968 41.3841 25.5527 40.3751 27.156 39.3966C27.9049 38.9408 28.6597 38.4849 29.4146 38.0291C30.029 37.6583 30.6433 37.2937 31.2636 36.929C32.3753 36.2665 33.4929 35.604 34.593 34.9294C35.2132 34.5465 35.6638 34.1879 36.009 33.805C36.7229 33.0088 37.0915 31.9573 37.1383 30.5959C37.1617 29.9152 37.1559 29.2344 37.15 28.5173C37.15 28.183 37.1442 27.8426 37.1442 27.484V26.9492L35.6111 27.9034C35.5526 27.9399 35.4882 27.9824 35.4239 28.0067L35.0026 28.1769C33.9318 28.6024 32.82 29.046 31.8078 29.745C30.8072 30.4318 29.7481 31.07 28.7183 31.6899C28.1916 32.0059 27.665 32.322 27.1384 32.6502C26.4772 33.0635 25.7165 33.1182 25.0495 33.1364C24.8915 33.1425 24.7394 33.1425 24.5872 33.1425C23.4228 33.1425 22.5042 32.9784 21.6908 32.6259L21.4451 32.5226C20.8424 32.2673 20.2631 32.0242 19.7833 31.5076C19.8184 31.5015 19.8477 31.5015 19.8828 31.5015H20.0876C20.3041 31.5015 20.5206 31.5076 20.7371 31.5076C20.9594 31.5136 21.1759 31.5136 21.3983 31.5136C21.8137 31.5136 22.1531 31.4954 22.4632 31.465C23.6861 31.3374 25.1197 31.1064 26.4714 30.4196C27.7411 29.7693 28.7534 28.8212 29.7305 27.9034L30.2103 27.4536L29.5726 27.3746C29.2858 27.3382 29.005 27.3138 28.7241 27.2835C28.1097 27.2227 27.5246 27.1619 26.9453 27.0464C25.0319 26.6818 23.534 25.5027 22.4749 23.5456C22.1531 22.9439 21.7318 22.2753 21.0647 21.8499C20.5908 21.546 20.0291 21.2664 19.3562 20.9929C19.1104 20.8896 18.9407 20.7498 18.8998 20.6161C18.8939 20.5857 18.8705 20.5067 18.9641 20.3669C19.2801 19.911 19.8126 19.3336 20.5498 19.1938C20.8307 19.1452 21.1057 19.1148 21.3632 19.1148C22.3403 19.1148 23.1595 19.4734 23.7973 20.1845C24.2244 20.6586 24.6106 21.2299 24.8974 21.8316C25.4415 22.9621 26.3309 23.8312 27.6124 24.4937C28.7534 25.0833 29.947 25.3689 31.2636 25.3689C31.6264 25.3689 32.0009 25.3446 32.3812 25.3021C34.1541 25.0954 35.6579 24.3539 37.109 22.9682L37.2085 22.8709L37.2027 22.7312C37.1793 22.0383 37.1559 21.3332 37.1266 20.6282C37.0622 18.9507 36.9979 17.2185 36.9979 15.5046C36.9979 13.8028 35.9037 12.9215 35.0786 12.4049C32.3051 10.6666 29.4497 8.9709 26.6879 7.33596L24.7511 6.18725C23.5633 5.48222 22.4866 4.88051 21.4568 4.34566C21.135 4.18156 20.7839 4.08431 20.4855 4.08431C20.3567 4.08431 20.2397 4.10255 20.1344 4.13294C19.245 4.4186 18.2327 4.74072 17.3375 5.34851C16.6938 5.78611 16.0209 6.1994 15.3656 6.60054C15.114 6.75249 14.8623 6.91051 14.6107 7.06854L12.6447 8.29626C10.7723 9.46929 8.83549 10.6788 6.91626 11.8518C6.10292 12.3502 5.31885 12.8546 4.6752 13.6265C4.23635 14.1492 4.02571 14.7205 4.03156 15.3648C4.03741 16.2096 4.03741 17.0544 4.03741 17.8932V19.4309C4.03741 19.5281 4.04911 19.6254 4.06081 19.7469L4.12518 20.3365L4.93266 19.9475C5.22523 19.8016 5.50024 19.6679 5.78695 19.5464C8.02215 18.5861 10.0584 17.3401 12.434 15.7659C13.2298 15.2372 14.1075 14.7145 15.114 14.5078C15.6698 14.3923 16.1847 14.3376 16.6938 14.3376C16.9805 14.3376 17.2672 14.3559 17.5422 14.3923C19.0577 14.5929 20.2221 15.0366 21.1993 15.7902C21.2754 15.8449 21.3398 15.93 21.4041 16.0151C21.3339 16.0212 21.2637 16.0273 21.1993 16.0273C21.0998 16.0273 21.0238 16.0151 20.9653 15.9969C20.5323 15.851 20.0817 15.7902 19.5492 15.7902C19.2099 15.7902 18.8705 15.8206 18.613 15.8449C17.197 15.9787 15.8044 16.4527 14.2246 17.3219C13.4229 17.7656 12.6857 18.2943 12.1356 18.7076C11.8782 18.896 11.6792 19.1391 11.4803 19.3762C11.3984 19.4734 11.3164 19.5767 11.2287 19.6679L11.0765 19.832L11.3399 20.3122H11.9952L12.2702 20.3061C12.4984 20.3 12.7208 20.2939 12.949 20.2939C13.458 20.2939 14.0549 20.3182 14.6693 20.5067C16.4949 21.0597 17.7587 22.1051 18.537 23.7036C19.2157 25.1015 20.2748 26.0193 21.7669 26.5055C22.0478 26.5967 22.2233 26.7243 22.2584 26.858C22.2935 27.01 22.1765 27.2348 21.9366 27.478C21.7669 27.6542 21.644 27.7818 21.5153 27.8609C20.9653 28.1951 20.4094 28.3653 19.8652 28.3653C19.2976 28.3653 18.7301 28.183 18.18 27.8244C17.5364 27.405 17.0741 26.9978 16.764 26.5784C16.5183 26.2441 16.3193 25.8916 16.1028 25.5148C15.8044 24.9921 15.4943 24.4451 15.0671 23.965C14.2246 23.0229 13.1538 22.6825 12.1181 22.3604L12.001 22.3239C11.6675 22.2206 11.3281 22.172 10.9946 22.1234C10.8425 22.0991 10.6904 22.0808 10.5382 22.0504C10.4387 22.0322 10.3393 22.014 10.2398 21.9897C10.1111 21.9653 9.9882 21.935 9.85947 21.9167C9.76585 21.8985 9.67223 21.8924 9.59031 21.8924Z" fill="white"/>
</svg>
