<svg width="855" height="388" viewBox="0 0 855 388" fill="none" xmlns="http://www.w3.org/2000/svg">
<path d="M842.095 208.485L847.537 211.105C847.08 212.114 846.951 212.906 846.621 213.018C843.275 213.984 839.926 214.844 836.155 215.871L834.318 222.222C833.294 222.482 832.249 222.627 831.199 222.657L802.738 219.841C801.2 219.606 799.643 219.551 798.094 219.677C797.054 219.775 796.06 220.203 795.232 220.911C794.404 221.619 793.776 222.576 793.424 223.669C793.202 224.159 793.081 224.698 793.071 225.247C793.061 225.796 793.161 226.34 793.364 226.84C793.568 227.34 793.869 227.783 794.247 228.137C794.625 228.49 795.068 228.746 795.546 228.884C799.868 229.582 804.184 230.016 808.503 230.556C810.207 230.52 812.053 230.481 812.867 233.883L802.484 236.05L806.764 242.903L793.468 243.606C792.068 247.686 795.133 249.778 795.555 252.399C798.255 255.341 802.763 252.983 805.489 257.449C800.157 259.346 794.606 260.367 789.011 260.482C774.791 259.731 760.094 258.781 745.592 258.089C733.743 257.551 721.897 257.119 710.004 256.792C707.773 256.84 705.546 257.045 703.337 257.407C703.62 260.242 705.368 259.942 706.649 260.125C717.323 261.214 728.041 262.144 738.715 263.285C752.947 264.772 767.511 266.304 781.93 267.629C788.292 267.716 794.598 268.95 800.602 271.283C804.498 272.52 808.518 273.212 812.57 273.344C814.516 273.618 816.464 273.998 818.649 274.372C818.705 277.791 816.214 278.948 815.255 281.126C814.305 283.096 813.245 284.998 812.081 286.822C811.436 287.888 810.599 288.8 809.953 289.866C806.679 295.196 807.053 297.818 811.577 302.194C812.234 302.77 812.923 303.3 813.639 303.781C811.981 312.338 811.981 312.338 815.67 326.411C820.012 328.371 826.082 328.873 825.324 337.517L811.724 337.016C810.019 336.67 808.269 336.706 806.576 337.121C804.884 337.537 803.282 338.323 801.866 339.435C800.096 340.46 798.074 340.817 796.105 340.451C773.783 339.452 751.457 338.189 729.139 337.4C720.467 337.058 711.764 337.769 703.054 337.954C701.805 337.819 700.544 338.014 699.376 338.523C698.207 339.033 697.163 339.842 696.33 340.885C697.694 341.821 699.173 342.534 700.721 343.001C708.263 343.735 715.756 344.313 723.293 344.784C732.775 345.425 742.254 345.855 751.734 346.391C752.856 348.366 753.781 349.924 754.709 351.588C760.713 350.987 766.071 354.24 772.041 354.429C778.011 354.618 784.709 355.844 791.021 356.657L809.008 359.011L815.762 369.389C813.457 370.332 810.098 370.561 808.946 372.48C806.041 377.276 802.094 376.255 798.211 376.285C787.214 376.246 776.239 375.23 765.389 373.246C763.077 372.952 760.749 372.843 758.423 372.92C751.795 373.061 745.113 372.782 738.477 372.449C723.691 371.816 708.902 370.972 694.161 370.233C690.09 370.319 686.056 369.826 681.981 369.702C679.683 369.384 677.356 369.433 675.069 369.849C663.947 373.136 652.597 371.22 641.382 371.774C627.187 372.496 612.978 372.376 598.775 372.677C597.138 372.91 595.547 373.441 594.065 374.25C592.558 375.187 590.988 375.994 589.369 376.665C587.011 377.241 584.41 377.454 584.858 373.025C580.65 373.483 576.894 372.563 573.876 376.204C573.179 377.061 571.142 376.999 569.812 376.764C561.274 375.947 552.696 375.76 544.135 376.204C530.206 375.868 516.426 378.791 502.494 378.245C499.606 378.306 496.718 378.367 493.836 378.797C491.842 379.263 489.785 379.306 487.777 378.925C481.93 377.001 475.647 377.546 470.137 380.457C467.361 381.379 464.487 381.883 461.59 381.953C446.062 383.764 430.451 384.552 414.84 384.313C408.6 385.714 402.185 385.85 395.903 384.715C391.015 385.08 386.11 385.079 381.222 384.711C380.056 384.505 378.861 384.734 377.823 385.361C373.861 387.437 369.325 387.704 365.191 386.103C363.764 385.712 361.997 384.855 360.964 385.403C354.91 388.741 348.481 386.562 342.05 387.12C334.011 387.869 325.859 387.463 317.756 387.162L275.127 386.751C262.67 386.647 250.215 386.648 237.753 386.229C231.458 385.476 225.111 385.434 218.808 386.105C214.199 386.57 209.559 386.457 204.974 385.767C195.492 385.179 186.008 384.381 176.527 383.845C168.576 382.752 160.548 382.499 152.552 383.092C150.563 383.646 148.466 383.469 146.576 382.587C142.741 380.36 138.36 379.568 134.084 380.327C131.575 380.38 128.942 378.647 126.484 378.963C117.648 380.15 109.435 376.063 100.768 375.984C96.0334 376.084 91.2855 375.343 86.888 375.752C82.8505 376.162 78.7837 375.509 75.0171 373.847C67.671 370.785 59.8164 369.517 51.9871 370.127C45.6654 370.089 39.4082 368.723 33.5459 366.099C31.6755 365.23 29.8558 364.232 28.0979 363.111C23.3204 360.582 23.3213 360.634 17.4935 363.336C11.0556 360.632 8.34442 354.166 5.68232 347.804C5.31884 345.954 5.28735 344.042 5.58965 342.178C6.11652 339.662 5.82141 337.02 4.7567 334.725C4.58457 334.174 4.53275 333.586 4.60557 333.008C4.67839 332.43 4.87366 331.88 5.17543 331.402C5.94818 330.113 6.2288 328.537 5.95565 327.019C5.85084 320.656 8.41038 317.919 14.3298 317.898C15.6553 317.87 16.9809 317.842 18.2118 317.816C18.8647 314.33 16.5158 312.591 15.6108 309.402L19.571 299.69C17.496 294.474 15.421 289.257 13.3039 284.357C15.4758 278.209 16.1715 271.565 21.0782 267.568C18.0919 255.9 18.0918 255.901 13.0122 252.273L18.4647 246.897L14.8746 241.712L24.5781 235.667C24.2024 233.787 23.9964 231.871 23.963 229.946C24.2277 227.996 24.6235 226.071 25.1469 224.187C19.4991 220.571 12.6275 220.296 7.64659 214.037C5.92684 207.408 6.09196 200.35 8.11899 193.826C8.65504 191.868 8.95865 190.178 10.6465 189.143C11.0925 188.744 11.4836 188.275 11.8075 187.75C12.9168 186.096 9.80413 184.005 12.0049 182.485C14.2057 180.966 13.3836 179.931 13.17 178.462C12.9515 177.203 12.5641 175.988 12.0212 174.857C11.4028 173.964 11.0592 172.874 11.0407 171.748C11.0221 170.621 11.3296 169.517 11.9181 168.599C12.574 167.161 12.9345 165.579 12.9735 163.968C13.0125 162.357 12.7291 160.757 12.1436 159.283C11.6864 157.398 9.67369 155.968 8.12759 154.107C8.70402 143.1 9.22639 131.674 9.8363 119.824L3.09259 115.811C3.35671 114.596 3.28788 113.282 3.80257 112.903C6.14105 111.117 8.48384 109.594 11.3852 107.481C12.1493 104.992 9.70878 103.466 8.76339 100.698C9.82252 99.4467 10.813 98.1257 11.7292 96.7423C14.397 91.9511 14.0905 90.5898 9.2363 86.2738C10.2079 84.8854 10.9738 82.5018 12.1995 82.1601C15.9248 81.1868 14.8733 77.7369 15.8233 75.0338L9.76273 66.4825C11.3701 62.1648 11.9136 57.4502 11.3374 52.8238C10.9045 47.3649 11.3755 41.8635 12.7274 36.5916C13.5969 31.9025 14.1046 27.1399 14.2452 22.3555L18.9161 18.4159C18.8762 15.9969 18.5516 13.5312 18.3654 10.8522C19.0704 10.5216 19.8155 9.76932 20.5739 9.80584C28.6744 9.94962 36.7767 10.1988 44.8799 10.5003C46.5657 10.8618 48.2881 10.9669 49.9998 10.8127C59.7105 8.0815 68.9664 12.2513 78.8374 10.6214L78.8686 12.5146L66.1811 12.7837C72.3297 15.1784 78.0741 18.8968 84.7783 17.6498C85.8229 17.7148 86.8579 17.9048 87.8658 18.2159C89.8253 18.5695 91.8084 18.7385 93.7938 18.7214C94.3238 18.605 94.8245 18.3607 95.2605 18.006C95.6965 17.6514 96.0575 17.195 96.3175 16.6688C97.135 14.5472 95.2334 14.1141 93.986 13.141C95.4732 11.4261 97.3891 9.85981 96.2922 6.51625L92.2984 5.54878C92.7718 5.53874 93.1381 4.7944 93.5169 4.78636C96.6887 4.71907 99.908 4.65077 102.985 4.58548C105.879 4.69082 108.772 4.3639 111.588 3.61372C117.18 1.99418 122.912 1.04384 128.685 0.778632C136.778 -0.077782 144.922 -0.144964 153.024 0.577884C173.88 1.7136 194.735 2.77911 215.589 3.77459C235.258 4.72506 254.928 5.72806 274.64 6.41459C300.418 7.34067 326.238 7.95048 352.012 8.66621L396.406 9.82842C404.508 10.0774 412.608 10.1685 420.672 10.9444C426.041 11.5037 431.441 11.6177 436.826 11.2856C440.471 11.2082 444.186 12.4447 447.881 12.5242C451.576 12.6036 455.354 11.9447 459.141 11.8643C461.157 11.9173 463.155 12.282 465.079 12.9482C469.517 14.2765 474.175 14.43 478.678 13.3962C484.105 12.3336 489.647 12.216 495.105 13.0477C498.172 13.7428 501.182 14.7172 504.104 15.9607C506.286 13.8541 509.128 12.7913 512.011 13.0047C525.903 13.9725 539.743 14.6257 553.63 15.3306C562.635 15.7708 571.593 16.2122 580.549 16.5483L622.296 18.0299L665.747 19.4751C679.677 19.916 693.561 20.4108 707.49 20.7465C719.618 21.0153 731.787 20.915 743.918 21.3415C751.12 21.5569 758.143 22.4073 765.541 23.0395C774.458 23.9024 783.423 24.7119 792.341 25.6275C796.611 26.1155 800.883 26.7087 805.06 27.2514C806.015 30.6505 803.807 31.7494 802.698 33.4037C800.666 36.5506 801.128 38.6979 804.419 40.101C805.994 40.8567 807.66 41.3473 809.709 42.1455L809.969 57.922C815.065 59.6552 817.191 65.1339 821.543 67.7245C822.213 68.1312 823.223 69.0566 823.185 69.6361C822.751 74.906 827.052 77.2346 829.475 80.6026C830.348 81.8467 831.267 83.0371 832.285 84.4358L826.96 88.9153L826.788 95.7577L805.536 102.206C806.788 109.229 807.274 109.955 812.213 110.797C820.763 112.351 829.357 113.695 837.477 115.048C839.235 117.725 841.244 120.187 843.471 122.391C845.691 123.628 848.069 124.483 850.522 124.924C850.019 126.04 849.891 126.884 849.562 127.049C847.396 127.831 844.842 128.043 843.847 130.853C843.177 132.504 842.822 134.292 842.803 136.103C842.783 137.914 843.101 139.709 843.736 141.376C844.567 144.44 846.273 147.118 848.598 149.007C852.755 151.286 853.152 155.223 854.262 159.408C854.325 160.072 854.336 160.74 854.295 161.406C850.831 166.74 851.222 173.202 850.329 179.376C850.329 179.376 849.816 179.861 849.579 179.813C844.396 179.312 839.187 179.229 833.994 179.565C828.938 180.828 823.759 181.362 818.581 181.155C816.851 181.166 815.126 181.361 813.429 181.737C810.541 181.799 807.613 182.282 804.771 182.237C795.297 182.122 785.822 181.902 775.893 182.849C776.892 183.144 777.893 183.544 778.891 183.733C782.785 184.387 782.784 184.334 784.619 189.345L793.302 190.371C794.281 192.297 795.259 194.17 796.134 195.572L838.006 201.785L842.095 208.485ZM85.8848 12.9446C86.214 13.2361 86.5669 13.4926 86.9391 13.7111C86.9391 13.7111 87.3609 13.4394 87.5477 13.2776L86.4916 12.4055L85.8848 12.9446ZM0.103063 322.461L0.111723 322.987L0.727183 322.974L0.103063 322.461Z" fill="#F74061"/>
</svg>
