<svg width="64" height="2885" viewBox="0 0 64 2885" fill="none" xmlns="http://www.w3.org/2000/svg">
<path d="M13.3308 1.44214C26.6192 1.44214 39.9681 1.44214 54.3951 1.44214C54.1165 53.9255 53.2686 105.354 54.0923 156.899C39.6653 155.235 26.2315 153.769 13.246 155.082C8.82461 103.935 14.4816 52.3429 13.3308 1.44214ZM14.845 110.817C20.623 111.52 26.4375 111.473 32.5305 111.098C32.5305 104.369 32.5305 98.2733 32.5305 91.5912C26.3648 91.9781 20.6109 91.6733 14.845 93.7951C14.845 99.1877 14.845 104.404 14.845 110.817ZM15.7292 50.3735C15.7292 55.8364 15.7292 61.0062 15.7292 66.6801C21.4225 66.4104 26.9583 66.1643 32.8939 65.8829C32.6395 60.1387 33.439 54.7696 32.2398 49.2833C26.7766 48.2634 21.6648 49.2715 15.7292 50.3735ZM50.858 45.6843C50.858 39.4477 50.858 33.7036 50.858 27.8421C45.6493 26.0837 40.7555 26.6581 35.2197 27.0332C35.6315 33.4339 36.0313 39.5064 36.4431 45.8837C41.3611 45.7899 45.8552 46.9035 50.858 45.6843ZM31.4645 23.5867C32.8333 16.7288 31.8643 10.6915 31.2465 4.5018C25.8318 4.31423 21.1076 3.65775 16.2501 4.94727C17.2192 11.3128 15.923 17.5494 17.5462 23.575C22.2462 23.5867 26.6071 23.5867 31.4645 23.5867ZM50.5067 88.5315C50.5067 82.2011 50.5067 76.2928 50.5067 70.2907C45.7341 69.4232 41.4459 69.0246 37.0003 69.3646C37.0003 76.1521 37.0003 82.4239 37.0003 88.766C41.6519 89.3287 45.8189 89.6686 50.5067 88.5315ZM49.8284 114.896C45.2616 114.709 41.022 113.525 37.0124 114.779C37.0124 121.66 37.0124 128.167 37.0124 134.673C41.5186 134.673 45.4555 134.673 49.8284 134.673C49.8284 127.92 49.8284 121.625 49.8284 114.896ZM32.7606 138.33C27.0674 139.256 21.8344 138.635 16.5529 140.417C15.9715 143.957 15.9715 147.345 16.4803 150.874C21.4589 152.351 26.3284 152.703 31.4039 151.8C32.688 147.533 33.1362 143.395 32.7606 138.33Z" fill="#098770"/>
<path d="M3.18004 156.372C1.10865 150.592 2.28364 145.481 1.95658 140.628C0.260704 115.107 -1.22923 89.5159 1.53262 64.0069C3.53133 45.5198 4.42772 27.0563 3.82205 8.49898C3.74937 6.11923 3.51922 3.7512 3.27695 -0.000122213C6.93519 3.25884 6.39009 6.23644 6.45065 8.92098C6.88673 28.0645 5.80864 47.1494 4.46406 66.246C2.47746 94.334 3.39808 122.41 5.92977 150.44C6.11147 152.55 6.14782 152.55 3.18004 156.372Z" fill="#098770"/>
<path d="M61.203 4.42017C64.1829 56.1767 64.6795 107.453 62.1963 159.162C58.5865 157.931 59.386 155.212 59.4587 152.879C60.0522 135.717 60.9728 118.566 61.2393 101.404C61.6027 77.8055 60.4641 54.2191 59.6525 30.6326C59.4102 23.6106 59.4708 16.5885 59.5192 9.56653C59.5435 7.98394 58.853 6.11999 61.203 4.42017Z" fill="#098770"/>
<path d="M13.3308 262.242C26.6192 262.242 39.9681 262.242 54.3951 262.242C54.1165 314.725 53.2686 366.153 54.0923 417.699C39.6653 416.034 26.2315 414.569 13.246 415.882C8.82461 364.735 14.4816 313.143 13.3308 262.242ZM14.845 371.616C20.623 372.32 26.4375 372.273 32.5305 371.898C32.5305 365.169 32.5305 359.073 32.5305 352.391C26.3648 352.778 20.6109 352.473 14.845 354.595C14.845 359.987 14.845 365.204 14.845 371.616ZM15.7292 311.173C15.7292 316.636 15.7292 321.806 15.7292 327.48C21.4225 327.21 26.9583 326.964 32.8939 326.682C32.6395 320.938 33.439 315.569 32.2398 310.083C26.7766 309.063 21.6648 310.071 15.7292 311.173ZM50.858 306.484C50.858 300.247 50.858 294.503 50.858 288.642C45.6493 286.883 40.7555 287.458 35.2197 287.833C35.6315 294.233 36.0313 300.306 36.4431 306.683C41.3611 306.589 45.8552 307.703 50.858 306.484ZM31.4645 284.386C32.8333 277.528 31.8643 271.491 31.2465 265.301C25.8318 265.114 21.1076 264.457 16.2501 265.747C17.2192 272.112 15.923 278.349 17.5462 284.375C22.2462 284.386 26.6071 284.386 31.4645 284.386ZM50.5067 349.331C50.5067 343.001 50.5067 337.092 50.5067 331.09C45.7341 330.223 41.4459 329.824 37.0003 330.164C37.0003 336.952 37.0003 343.223 37.0003 349.566C41.6519 350.128 45.8189 350.468 50.5067 349.331ZM49.8284 375.696C45.2616 375.508 41.022 374.324 37.0124 375.579C37.0124 382.46 37.0124 388.966 37.0124 395.472C41.5186 395.472 45.4555 395.472 49.8284 395.472C49.8284 388.72 49.8284 382.425 49.8284 375.696ZM32.7606 399.13C27.0674 400.056 21.8344 399.435 16.5529 401.217C15.9715 404.757 15.9715 408.145 16.4803 411.673C21.4589 413.151 26.3284 413.502 31.4039 412.6C32.688 408.332 33.1362 404.194 32.7606 399.13Z" fill="#098770"/>
<path d="M3.18004 417.171C1.10865 411.392 2.28364 406.281 1.95658 401.427C0.260704 375.907 -1.22923 350.316 1.53262 324.807C3.53133 306.32 4.42772 287.856 3.82205 269.299C3.74937 266.919 3.51922 264.551 3.27695 260.8C6.93519 264.059 6.39009 267.036 6.45065 269.721C6.88673 288.864 5.80864 307.949 4.46406 327.046C2.47746 355.134 3.39808 383.21 5.92977 411.239C6.11147 413.35 6.14782 413.35 3.18004 417.171Z" fill="#098770"/>
<path d="M61.203 265.22C64.1829 316.976 64.6795 368.252 62.1963 419.962C58.5865 418.731 59.386 416.011 59.4587 413.678C60.0522 396.516 60.9728 379.366 61.2393 362.203C61.6027 338.605 60.4641 315.019 59.6525 291.432C59.4102 284.41 59.4708 277.388 59.5192 270.366C59.5435 268.784 58.853 266.92 61.203 265.22Z" fill="#098770"/>
<path d="M13.3308 131.63C26.6192 131.63 39.9681 131.63 54.3951 131.63C54.1165 184.113 53.2686 235.541 54.0923 287.087C39.6653 285.422 26.2315 283.957 13.246 285.27C8.82461 234.123 14.4816 182.53 13.3308 131.63ZM14.845 241.004C20.623 241.708 26.4375 241.661 32.5305 241.286C32.5305 234.557 32.5305 228.461 32.5305 221.779C26.3648 222.166 20.6109 221.861 14.845 223.983C14.845 229.375 14.845 234.592 14.845 241.004ZM15.7292 180.561C15.7292 186.024 15.7292 191.194 15.7292 196.868C21.4225 196.598 26.9583 196.352 32.8939 196.07C32.6395 190.326 33.439 184.957 32.2398 179.471C26.7766 178.451 21.6648 179.459 15.7292 180.561ZM50.858 175.872C50.858 169.635 50.858 163.891 50.858 158.03C45.6493 156.271 40.7555 156.846 35.2197 157.221C35.6315 163.621 36.0313 169.694 36.4431 176.071C41.3611 175.977 45.8552 177.091 50.858 175.872ZM31.4645 153.774C32.8333 146.916 31.8643 140.879 31.2465 134.689C25.8318 134.502 21.1076 133.845 16.2501 135.135C17.2192 141.5 15.923 147.737 17.5462 153.762C22.2462 153.774 26.6071 153.774 31.4645 153.774ZM50.5067 218.719C50.5067 212.389 50.5067 206.48 50.5067 200.478C45.7341 199.611 41.4459 199.212 37.0003 199.552C37.0003 206.34 37.0003 212.611 37.0003 218.953C41.6519 219.516 45.8189 219.856 50.5067 218.719ZM49.8284 245.084C45.2616 244.896 41.022 243.712 37.0124 244.967C37.0124 251.848 37.0124 258.354 37.0124 264.86C41.5186 264.86 45.4555 264.86 49.8284 264.86C49.8284 258.108 49.8284 251.813 49.8284 245.084ZM32.7606 268.518C27.0674 269.444 21.8344 268.823 16.5529 270.605C15.9715 274.145 15.9715 277.533 16.4803 281.061C21.4589 282.538 26.3284 282.89 31.4039 281.987C32.688 277.72 33.1362 273.582 32.7606 268.518Z" fill="#098770"/>
<path d="M3.17969 144.385C1.1083 150.164 2.28328 155.276 1.95622 160.129C0.260348 185.65 -1.22959 211.241 1.53226 236.75C3.53097 255.237 4.42736 273.7 3.82169 292.257C3.74901 294.637 3.51886 297.005 3.27659 300.757C6.93483 297.498 6.38972 294.52 6.45029 291.835C6.88637 272.692 5.80828 253.607 4.4637 234.511C2.4771 206.422 3.39772 178.346 5.92942 150.317C6.11112 148.207 6.14746 148.207 3.17969 144.385Z" fill="#098770"/>
<path d="M61.203 139.781C64.1829 191.537 64.6795 242.813 62.1963 294.523C58.5865 293.292 59.386 290.572 59.4587 288.24C60.0522 271.077 60.9728 253.927 61.2393 236.764C61.6027 213.166 60.4641 189.58 59.6525 165.993C59.4102 158.971 59.4708 151.949 59.5192 144.927C59.5435 143.345 58.853 141.481 61.203 139.781Z" fill="#098770"/>
<path d="M13.3308 392.429C26.6192 392.429 39.9681 392.429 54.3951 392.429C54.1165 444.912 53.2686 496.341 54.0923 547.886C39.6653 546.221 26.2315 544.756 13.246 546.069C8.82461 494.922 14.4816 443.33 13.3308 392.429ZM14.845 501.803C20.623 502.507 26.4375 502.46 32.5305 502.085C32.5305 495.356 32.5305 489.26 32.5305 482.578C26.3648 482.965 20.6109 482.66 14.845 484.782C14.845 490.174 14.845 495.391 14.845 501.803ZM15.7292 441.36C15.7292 446.823 15.7292 451.993 15.7292 457.667C21.4225 457.397 26.9583 457.151 32.8939 456.87C32.6395 451.125 33.439 445.756 32.2398 440.27C26.7766 439.25 21.6648 440.258 15.7292 441.36ZM50.858 436.671C50.858 430.434 50.858 424.69 50.858 418.829C45.6493 417.07 40.7555 417.645 35.2197 418.02C35.6315 424.421 36.0313 430.493 36.4431 436.87C41.3611 436.777 45.8552 437.89 50.858 436.671ZM31.4645 414.573C32.8333 407.716 31.8643 401.678 31.2465 395.488C25.8318 395.301 21.1076 394.644 16.2501 395.934C17.2192 402.299 15.923 408.536 17.5462 414.562C22.2462 414.573 26.6071 414.573 31.4645 414.573ZM50.5067 479.518C50.5067 473.188 50.5067 467.279 50.5067 461.277C45.7341 460.41 41.4459 460.011 37.0003 460.351C37.0003 467.139 37.0003 473.411 37.0003 479.753C41.6519 480.315 45.8189 480.655 50.5067 479.518ZM49.8284 505.883C45.2616 505.695 41.022 504.511 37.0124 505.766C37.0124 512.647 37.0124 519.153 37.0124 525.66C41.5186 525.66 45.4555 525.66 49.8284 525.66C49.8284 518.907 49.8284 512.612 49.8284 505.883ZM32.7606 529.317C27.0674 530.243 21.8344 529.622 16.5529 531.404C15.9715 534.944 15.9715 538.332 16.4803 541.861C21.4589 543.338 26.3284 543.689 31.4039 542.787C32.688 538.52 33.1362 534.381 32.7606 529.317Z" fill="#098770"/>
<path d="M3.17969 405.184C1.1083 410.963 2.28328 416.075 1.95622 420.928C0.260348 446.449 -1.22959 472.04 1.53226 497.549C3.53097 516.036 4.42736 534.499 3.82169 553.057C3.74901 555.436 3.51886 557.804 3.27659 561.556C6.93483 558.297 6.38972 555.319 6.45029 552.635C6.88637 533.491 5.80828 514.406 4.4637 495.31C2.4771 467.222 3.39772 439.145 5.92942 411.116C6.11112 409.006 6.14746 409.006 3.17969 405.184Z" fill="#098770"/>
<path d="M61.203 400.58C64.1829 452.336 64.6795 503.612 62.1963 555.322C58.5865 554.091 59.386 551.371 59.4587 549.039C60.0522 531.876 60.9728 514.726 61.2393 497.563C61.6027 473.965 60.4641 450.379 59.6525 426.792C59.4102 419.77 59.4708 412.748 59.5192 405.726C59.5435 404.144 58.853 402.28 61.203 400.58Z" fill="#098770"/>
<path d="M13.3308 1.44214C26.6192 1.44214 39.9681 1.44214 54.3951 1.44214C54.1165 53.9255 53.2686 105.354 54.0923 156.899C39.6653 155.235 26.2315 153.769 13.246 155.082C8.82461 103.935 14.4816 52.3429 13.3308 1.44214ZM14.845 110.817C20.623 111.52 26.4375 111.473 32.5305 111.098C32.5305 104.369 32.5305 98.2733 32.5305 91.5912C26.3648 91.9781 20.6109 91.6733 14.845 93.7951C14.845 99.1877 14.845 104.404 14.845 110.817ZM15.7292 50.3735C15.7292 55.8364 15.7292 61.0062 15.7292 66.6801C21.4225 66.4104 26.9583 66.1643 32.8939 65.8829C32.6395 60.1387 33.439 54.7696 32.2398 49.2833C26.7766 48.2634 21.6648 49.2715 15.7292 50.3735ZM50.858 45.6843C50.858 39.4477 50.858 33.7036 50.858 27.8421C45.6493 26.0837 40.7555 26.6581 35.2197 27.0332C35.6315 33.4339 36.0313 39.5064 36.4431 45.8837C41.3611 45.7899 45.8552 46.9035 50.858 45.6843ZM31.4645 23.5867C32.8333 16.7288 31.8643 10.6915 31.2465 4.5018C25.8318 4.31423 21.1076 3.65775 16.2501 4.94727C17.2192 11.3128 15.923 17.5494 17.5462 23.575C22.2462 23.5867 26.6071 23.5867 31.4645 23.5867ZM50.5067 88.5315C50.5067 82.2011 50.5067 76.2928 50.5067 70.2907C45.7341 69.4232 41.4459 69.0246 37.0003 69.3646C37.0003 76.1521 37.0003 82.4239 37.0003 88.766C41.6519 89.3287 45.8189 89.6686 50.5067 88.5315ZM49.8284 114.896C45.2616 114.709 41.022 113.525 37.0124 114.779C37.0124 121.66 37.0124 128.167 37.0124 134.673C41.5186 134.673 45.4555 134.673 49.8284 134.673C49.8284 127.92 49.8284 121.625 49.8284 114.896ZM32.7606 138.33C27.0674 139.256 21.8344 138.635 16.5529 140.417C15.9715 143.957 15.9715 147.345 16.4803 150.874C21.4589 152.351 26.3284 152.703 31.4039 151.8C32.688 147.533 33.1362 143.395 32.7606 138.33Z" fill="#098770"/>
<path d="M3.18004 156.372C1.10865 150.592 2.28364 145.481 1.95658 140.628C0.260704 115.107 -1.22923 89.5159 1.53262 64.0069C3.53133 45.5198 4.42772 27.0563 3.82205 8.49898C3.74937 6.11923 3.51922 3.7512 3.27695 -0.000122213C6.93519 3.25884 6.39009 6.23644 6.45065 8.92098C6.88673 28.0645 5.80864 47.1494 4.46406 66.246C2.47746 94.334 3.39808 122.41 5.92977 150.44C6.11147 152.55 6.14782 152.55 3.18004 156.372Z" fill="#098770"/>
<path d="M61.203 4.42017C64.1829 56.1767 64.6795 107.453 62.1963 159.162C58.5865 157.931 59.386 155.212 59.4587 152.879C60.0522 135.717 60.9728 118.566 61.2393 101.404C61.6027 77.8055 60.4641 54.2191 59.6525 30.6326C59.4102 23.6106 59.4708 16.5885 59.5192 9.56653C59.5435 7.98394 58.853 6.11999 61.203 4.42017Z" fill="#098770"/>
<path d="M13.3308 262.241C26.6192 262.241 39.9681 262.241 54.3951 262.241C54.1165 314.725 53.2686 366.153 54.0923 417.699C39.6653 416.034 26.2315 414.569 13.246 415.882C8.82461 364.735 14.4816 313.142 13.3308 262.241ZM14.845 371.616C20.623 372.319 26.4375 372.272 32.5305 371.897C32.5305 365.168 32.5305 359.072 32.5305 352.39C26.3648 352.777 20.6109 352.472 14.845 354.594C14.845 359.987 14.845 365.203 14.845 371.616ZM15.7292 311.173C15.7292 316.636 15.7292 321.805 15.7292 327.479C21.4225 327.21 26.9583 326.963 32.8939 326.682C32.6395 320.938 33.439 315.569 32.2398 310.082C26.7766 309.063 21.6648 310.071 15.7292 311.173ZM50.858 306.484C50.858 300.247 50.858 294.503 50.858 288.641C45.6493 286.883 40.7555 287.457 35.2197 287.832C35.6315 294.233 36.0313 300.306 36.4431 306.683C41.3611 306.589 45.8552 307.703 50.858 306.484ZM31.4645 284.386C32.8333 277.528 31.8643 271.491 31.2465 265.301C25.8318 265.113 21.1076 264.457 16.2501 265.746C17.2192 272.112 15.923 278.349 17.5462 284.374C22.2462 284.386 26.6071 284.386 31.4645 284.386ZM50.5067 349.331C50.5067 343 50.5067 337.092 50.5067 331.09C45.7341 330.222 41.4459 329.824 37.0003 330.164C37.0003 336.951 37.0003 343.223 37.0003 349.565C41.6519 350.128 45.8189 350.468 50.5067 349.331ZM49.8284 375.696C45.2616 375.508 41.022 374.324 37.0124 375.578C37.0124 382.46 37.0124 388.966 37.0124 395.472C41.5186 395.472 45.4555 395.472 49.8284 395.472C49.8284 388.72 49.8284 382.424 49.8284 375.696ZM32.7606 399.13C27.0674 400.056 21.8344 399.434 16.5529 401.216C15.9715 404.757 15.9715 408.144 16.4803 411.673C21.4589 413.15 26.3284 413.502 31.4039 412.599C32.688 408.332 33.1362 404.194 32.7606 399.13Z" fill="#098770"/>
<path d="M3.18004 417.171C1.10865 411.392 2.28364 406.28 1.95658 401.427C0.260704 375.906 -1.22923 350.315 1.53262 324.806C3.53133 306.319 4.42772 287.856 3.82205 269.298C3.74937 266.919 3.51922 264.551 3.27695 260.799C6.93519 264.058 6.39009 267.036 6.45065 269.72C6.88673 288.864 5.80864 307.949 4.46406 327.045C2.47746 355.133 3.39808 383.21 5.92977 411.239C6.11147 413.349 6.14782 413.349 3.18004 417.171Z" fill="#098770"/>
<path d="M61.203 265.219C64.1829 316.976 64.6795 368.252 62.1963 419.961C58.5865 418.731 59.386 416.011 59.4587 413.678C60.0522 396.516 60.9728 379.365 61.2393 362.203C61.6027 338.605 60.4641 315.018 59.6525 291.432C59.4102 284.41 59.4708 277.388 59.5192 270.366C59.5435 268.783 58.853 266.919 61.203 265.219Z" fill="#098770"/>
<path d="M13.3308 131.63C26.6192 131.63 39.9681 131.63 54.3951 131.63C54.1165 184.113 53.2686 235.541 54.0923 287.087C39.6653 285.422 26.2315 283.957 13.246 285.27C8.82461 234.123 14.4816 182.53 13.3308 131.63ZM14.845 241.004C20.623 241.708 26.4375 241.661 32.5305 241.286C32.5305 234.557 32.5305 228.461 32.5305 221.779C26.3648 222.166 20.6109 221.861 14.845 223.983C14.845 229.375 14.845 234.592 14.845 241.004ZM15.7292 180.561C15.7292 186.024 15.7292 191.194 15.7292 196.868C21.4225 196.598 26.9583 196.352 32.8939 196.07C32.6395 190.326 33.439 184.957 32.2398 179.471C26.7766 178.451 21.6648 179.459 15.7292 180.561ZM50.858 175.872C50.858 169.635 50.858 163.891 50.858 158.03C45.6493 156.271 40.7555 156.846 35.2197 157.221C35.6315 163.621 36.0313 169.694 36.4431 176.071C41.3611 175.977 45.8552 177.091 50.858 175.872ZM31.4645 153.774C32.8333 146.916 31.8643 140.879 31.2465 134.689C25.8318 134.502 21.1076 133.845 16.2501 135.135C17.2192 141.5 15.923 147.737 17.5462 153.762C22.2462 153.774 26.6071 153.774 31.4645 153.774ZM50.5067 218.719C50.5067 212.389 50.5067 206.48 50.5067 200.478C45.7341 199.611 41.4459 199.212 37.0003 199.552C37.0003 206.34 37.0003 212.611 37.0003 218.953C41.6519 219.516 45.8189 219.856 50.5067 218.719ZM49.8284 245.084C45.2616 244.896 41.022 243.712 37.0124 244.967C37.0124 251.848 37.0124 258.354 37.0124 264.86C41.5186 264.86 45.4555 264.86 49.8284 264.86C49.8284 258.108 49.8284 251.813 49.8284 245.084ZM32.7606 268.518C27.0674 269.444 21.8344 268.823 16.5529 270.605C15.9715 274.145 15.9715 277.533 16.4803 281.061C21.4589 282.538 26.3284 282.89 31.4039 281.987C32.688 277.72 33.1362 273.582 32.7606 268.518Z" fill="#098770"/>
<path d="M3.17969 144.385C1.1083 150.164 2.28328 155.276 1.95622 160.129C0.260348 185.65 -1.22959 211.241 1.53226 236.75C3.53097 255.237 4.42736 273.7 3.82169 292.257C3.74901 294.637 3.51886 297.005 3.27659 300.757C6.93483 297.498 6.38972 294.52 6.45029 291.835C6.88637 272.692 5.80828 253.607 4.4637 234.511C2.4771 206.422 3.39772 178.346 5.92942 150.317C6.11112 148.207 6.14746 148.207 3.17969 144.385Z" fill="#098770"/>
<path d="M61.203 139.781C64.1829 191.537 64.6795 242.813 62.1963 294.523C58.5865 293.292 59.386 290.572 59.4587 288.24C60.0522 271.077 60.9728 253.927 61.2393 236.764C61.6027 213.166 60.4641 189.58 59.6525 165.993C59.4102 158.971 59.4708 151.949 59.5192 144.927C59.5435 143.345 58.853 141.481 61.203 139.781Z" fill="#098770"/>
<path d="M13.3308 392.429C26.6192 392.429 39.9681 392.429 54.3951 392.429C54.1165 444.912 53.2686 496.341 54.0923 547.886C39.6653 546.221 26.2315 544.756 13.246 546.069C8.82461 494.922 14.4816 443.33 13.3308 392.429ZM14.845 501.803C20.623 502.507 26.4375 502.46 32.5305 502.085C32.5305 495.356 32.5305 489.26 32.5305 482.578C26.3648 482.965 20.6109 482.66 14.845 484.782C14.845 490.174 14.845 495.391 14.845 501.803ZM15.7292 441.36C15.7292 446.823 15.7292 451.993 15.7292 457.667C21.4225 457.397 26.9583 457.151 32.8939 456.87C32.6395 451.125 33.439 445.756 32.2398 440.27C26.7766 439.25 21.6648 440.258 15.7292 441.36ZM50.858 436.671C50.858 430.434 50.858 424.69 50.858 418.829C45.6493 417.07 40.7555 417.645 35.2197 418.02C35.6315 424.421 36.0313 430.493 36.4431 436.87C41.3611 436.777 45.8552 437.89 50.858 436.671ZM31.4645 414.573C32.8333 407.716 31.8643 401.678 31.2465 395.488C25.8318 395.301 21.1076 394.644 16.2501 395.934C17.2192 402.299 15.923 408.536 17.5462 414.562C22.2462 414.573 26.6071 414.573 31.4645 414.573ZM50.5067 479.518C50.5067 473.188 50.5067 467.279 50.5067 461.277C45.7341 460.41 41.4459 460.011 37.0003 460.351C37.0003 467.139 37.0003 473.411 37.0003 479.753C41.6519 480.315 45.8189 480.655 50.5067 479.518ZM49.8284 505.883C45.2616 505.695 41.022 504.511 37.0124 505.766C37.0124 512.647 37.0124 519.153 37.0124 525.66C41.5186 525.66 45.4555 525.66 49.8284 525.66C49.8284 518.907 49.8284 512.612 49.8284 505.883ZM32.7606 529.317C27.0674 530.243 21.8344 529.622 16.5529 531.404C15.9715 534.944 15.9715 538.332 16.4803 541.861C21.4589 543.338 26.3284 543.689 31.4039 542.787C32.688 538.52 33.1362 534.381 32.7606 529.317Z" fill="#098770"/>
<path d="M3.17969 405.184C1.1083 410.963 2.28328 416.075 1.95622 420.928C0.260348 446.449 -1.22959 472.04 1.53226 497.549C3.53097 516.036 4.42736 534.499 3.82169 553.057C3.74901 555.436 3.51886 557.804 3.27659 561.556C6.93483 558.297 6.38972 555.319 6.45029 552.635C6.88637 533.491 5.80828 514.406 4.4637 495.31C2.4771 467.222 3.39772 439.145 5.92942 411.116C6.11112 409.006 6.14746 409.006 3.17969 405.184Z" fill="#098770"/>
<path d="M61.203 400.58C64.1829 452.336 64.6795 503.612 62.1963 555.322C58.5865 554.091 59.386 551.371 59.4587 549.039C60.0522 531.876 60.9728 514.726 61.2393 497.563C61.6027 473.965 60.4641 450.379 59.6525 426.792C59.4102 419.77 59.4708 412.748 59.5192 405.726C59.5435 404.144 58.853 402.28 61.203 400.58Z" fill="#098770"/>
<path d="M13.3307 519.885C26.619 519.885 39.968 519.885 54.395 519.885C54.1164 572.369 53.2685 623.797 54.0922 675.343C39.6651 673.678 26.2314 672.213 13.2459 673.526C8.82448 622.379 14.4814 570.786 13.3307 519.885ZM14.8448 629.26C20.6229 629.963 26.4373 629.917 32.5304 629.541C32.5304 622.812 32.5304 616.717 32.5304 610.035C26.3647 610.421 20.6108 610.117 14.8448 612.238C14.8448 617.631 14.8448 622.848 14.8448 629.26ZM15.7291 568.817C15.7291 574.28 15.7291 579.45 15.7291 585.123C21.4224 584.854 26.9582 584.608 32.8938 584.326C32.6394 578.582 33.4389 573.213 32.2396 567.727C26.7765 566.707 21.6647 567.715 15.7291 568.817ZM50.8579 564.128C50.8579 557.891 50.8579 552.147 50.8579 546.285C45.6492 544.527 40.7554 545.101 35.2195 545.477C35.6314 551.877 36.0311 557.95 36.443 564.327C41.361 564.233 45.8551 565.347 50.8579 564.128ZM31.4644 542.03C32.8332 535.172 31.8641 529.135 31.2464 522.945C25.8317 522.758 21.1074 522.101 16.25 523.391C17.2191 529.756 15.9229 535.993 17.5461 542.018C22.2461 542.03 26.6069 542.03 31.4644 542.03ZM50.5066 606.975C50.5066 600.644 50.5066 594.736 50.5066 588.734C45.734 587.867 41.4458 587.468 37.0002 587.808C37.0002 594.596 37.0002 600.867 37.0002 607.209C41.6517 607.772 45.8187 608.112 50.5066 606.975ZM49.8283 633.34C45.2615 633.152 41.0218 631.968 37.0123 633.222C37.0123 640.104 37.0123 646.61 37.0123 653.116C41.5185 653.116 45.4553 653.116 49.8283 653.116C49.8283 646.364 49.8283 640.069 49.8283 633.34ZM32.7605 656.774C27.0672 657.7 21.8342 657.079 16.5528 658.86C15.9714 662.401 15.9714 665.789 16.4801 669.317C21.4587 670.794 26.3283 671.146 31.4038 670.243C32.6878 665.976 33.136 661.838 32.7605 656.774Z" fill="#098770"/>
<path d="M3.17992 674.815C1.10853 669.036 2.28351 663.924 1.95645 659.071C0.260582 633.55 -1.22935 607.959 1.5325 582.45C3.53121 563.963 4.4276 545.5 3.82193 526.942C3.74925 524.563 3.5191 522.195 3.27683 518.443C6.93507 521.702 6.38996 524.68 6.45053 527.364C6.88661 546.508 5.80852 565.593 4.46394 584.689C2.47734 612.777 3.39795 640.854 5.92965 668.883C6.11135 670.993 6.14769 670.993 3.17992 674.815Z" fill="#098770"/>
<path d="M61.2029 522.864C64.1828 574.62 64.6794 625.896 62.1962 677.606C58.5864 676.375 59.3859 673.655 59.4585 671.322C60.0521 654.16 60.9727 637.009 61.2392 619.847C61.6026 596.249 60.464 572.662 59.6524 549.076C59.4101 542.054 59.4707 535.032 59.5191 528.01C59.5433 526.427 58.8529 524.563 61.2029 522.864Z" fill="#098770"/>
<path d="M13.3307 780.685C26.619 780.685 39.968 780.685 54.395 780.685C54.1164 833.169 53.2685 884.597 54.0922 936.143C39.6651 934.478 26.2314 933.013 13.2459 934.326C8.82448 883.179 14.4814 831.586 13.3307 780.685ZM14.8448 890.06C20.6229 890.763 26.4373 890.716 32.5304 890.341C32.5304 883.612 32.5304 877.516 32.5304 870.834C26.3647 871.221 20.6108 870.916 14.8448 873.038C14.8448 878.431 14.8448 883.647 14.8448 890.06ZM15.7291 829.617C15.7291 835.08 15.7291 840.249 15.7291 845.923C21.4224 845.654 26.9582 845.407 32.8938 845.126C32.6394 839.382 33.4389 834.013 32.2396 828.526C26.7765 827.507 21.6647 828.515 15.7291 829.617ZM50.8579 824.927C50.8579 818.691 50.8579 812.947 50.8579 807.085C45.6492 805.327 40.7554 805.901 35.2195 806.276C35.6314 812.677 36.0311 818.75 36.443 825.127C41.361 825.033 45.8551 826.147 50.8579 824.927ZM31.4644 802.83C32.8332 795.972 31.8641 789.935 31.2464 783.745C25.8317 783.557 21.1074 782.901 16.25 784.19C17.2191 790.556 15.9229 796.793 17.5461 802.818C22.2461 802.83 26.6069 802.83 31.4644 802.83ZM50.5066 867.775C50.5066 861.444 50.5066 855.536 50.5066 849.534C45.734 848.666 41.4458 848.268 37.0002 848.608C37.0002 855.395 37.0002 861.667 37.0002 868.009C41.6517 868.572 45.8187 868.912 50.5066 867.775ZM49.8283 894.14C45.2615 893.952 41.0218 892.768 37.0123 894.022C37.0123 900.904 37.0123 907.41 37.0123 913.916C41.5185 913.916 45.4553 913.916 49.8283 913.916C49.8283 907.164 49.8283 900.868 49.8283 894.14ZM32.7605 917.574C27.0672 918.5 21.8342 917.878 16.5528 919.66C15.9714 923.2 15.9714 926.588 16.4801 930.117C21.4587 931.594 26.3283 931.946 31.4038 931.043C32.6878 926.776 33.136 922.638 32.7605 917.574Z" fill="#098770"/>
<path d="M3.17992 935.615C1.10853 929.835 2.28351 924.724 1.95645 919.871C0.260582 894.35 -1.22935 868.759 1.5325 843.25C3.53121 824.763 4.4276 806.299 3.82193 787.742C3.74925 785.362 3.5191 782.994 3.27683 779.243C6.93507 782.502 6.38996 785.479 6.45053 788.164C6.88661 807.308 5.80852 826.392 4.46394 845.489C2.47734 873.577 3.39795 901.653 5.92965 929.683C6.11135 931.793 6.14769 931.793 3.17992 935.615Z" fill="#098770"/>
<path d="M61.2029 783.663C64.1828 835.419 64.6794 886.695 62.1962 938.405C58.5864 937.174 59.3859 934.454 59.4585 932.122C60.0521 914.959 60.9727 897.809 61.2392 880.646C61.6026 857.048 60.464 833.462 59.6524 809.875C59.4101 802.853 59.4707 795.831 59.5191 788.809C59.5433 787.227 58.8529 785.363 61.2029 783.663Z" fill="#098770"/>
<path d="M13.3307 650.073C26.619 650.073 39.968 650.073 54.395 650.073C54.1164 702.556 53.2685 753.984 54.0922 805.53C39.6651 803.865 26.2314 802.4 13.2459 803.713C8.82448 752.566 14.4814 700.974 13.3307 650.073ZM14.8448 759.447C20.6229 760.151 26.4373 760.104 32.5304 759.729C32.5304 753 32.5304 746.904 32.5304 740.222C26.3647 740.609 20.6108 740.304 14.8448 742.426C14.8448 747.818 14.8448 753.035 14.8448 759.447ZM15.7291 699.004C15.7291 704.467 15.7291 709.637 15.7291 715.311C21.4224 715.041 26.9582 714.795 32.8938 714.514C32.6394 708.769 33.4389 703.4 32.2396 697.914C26.7765 696.894 21.6647 697.902 15.7291 699.004ZM50.8579 694.315C50.8579 688.078 50.8579 682.334 50.8579 676.473C45.6492 674.714 40.7554 675.289 35.2195 675.664C35.6314 682.065 36.0311 688.137 36.443 694.514C41.361 694.421 45.8551 695.534 50.8579 694.315ZM31.4644 672.217C32.8332 665.359 31.8641 659.322 31.2464 653.132C25.8317 652.945 21.1074 652.288 16.25 653.578C17.2191 659.943 15.9229 666.18 17.5461 672.206C22.2461 672.217 26.6069 672.217 31.4644 672.217ZM50.5066 737.162C50.5066 730.832 50.5066 724.923 50.5066 718.921C45.734 718.054 41.4458 717.655 37.0002 717.995C37.0002 724.783 37.0002 731.054 37.0002 737.397C41.6517 737.959 45.8187 738.299 50.5066 737.162ZM49.8283 763.527C45.2615 763.339 41.0218 762.155 37.0123 763.41C37.0123 770.291 37.0123 776.797 37.0123 783.303C41.5185 783.303 45.4553 783.303 49.8283 783.303C49.8283 776.551 49.8283 770.256 49.8283 763.527ZM32.7605 786.961C27.0672 787.887 21.8342 787.266 16.5528 789.048C15.9714 792.588 15.9714 795.976 16.4801 799.505C21.4587 800.982 26.3283 801.333 31.4038 800.431C32.6878 796.163 33.136 792.025 32.7605 786.961Z" fill="#098770"/>
<path d="M3.17956 662.829C1.10818 668.608 2.28316 673.719 1.9561 678.572C0.260226 704.093 -1.22971 729.684 1.53214 755.193C3.53085 773.68 4.42723 792.144 3.82156 810.701C3.74888 813.081 3.51873 815.449 3.27647 819.2C6.93471 815.941 6.3896 812.964 6.45017 810.279C6.88625 791.136 5.80816 772.051 4.46358 752.954C2.47698 724.866 3.3976 696.79 5.9293 668.76C6.111 666.65 6.14734 666.65 3.17956 662.829Z" fill="#098770"/>
<path d="M61.2029 658.224C64.1828 709.98 64.6794 761.256 62.1962 812.966C58.5864 811.735 59.3859 809.015 59.4585 806.683C60.0521 789.52 60.9727 772.37 61.2392 755.207C61.6026 731.609 60.464 708.023 59.6524 684.436C59.4101 677.414 59.4707 670.392 59.5191 663.37C59.5433 661.788 58.8529 659.924 61.2029 658.224Z" fill="#098770"/>
<path d="M13.3307 910.873C26.619 910.873 39.968 910.873 54.395 910.873C54.1164 963.356 53.2685 1014.78 54.0922 1066.33C39.6651 1064.67 26.2314 1063.2 13.2459 1064.51C8.82448 1013.37 14.4814 961.774 13.3307 910.873ZM14.8448 1020.25C20.6229 1020.95 26.4373 1020.9 32.5304 1020.53C32.5304 1013.8 32.5304 1007.7 32.5304 1001.02C26.3647 1001.41 20.6108 1001.1 14.8448 1003.23C14.8448 1008.62 14.8448 1013.84 14.8448 1020.25ZM15.7291 959.804C15.7291 965.267 15.7291 970.437 15.7291 976.111C21.4224 975.841 26.9582 975.595 32.8938 975.314C32.6394 969.57 33.4389 964.2 32.2396 958.714C26.7765 957.694 21.6647 958.702 15.7291 959.804ZM50.8579 955.115C50.8579 948.879 50.8579 943.134 50.8579 937.273C45.6492 935.515 40.7554 936.089 35.2195 936.464C35.6314 942.865 36.0311 948.937 36.443 955.315C41.361 955.221 45.8551 956.334 50.8579 955.115ZM31.4644 933.018C32.8332 926.16 31.8641 920.122 31.2464 913.933C25.8317 913.745 21.1074 913.089 16.25 914.378C17.2191 920.744 15.9229 926.98 17.5461 933.006C22.2461 933.018 26.6069 933.018 31.4644 933.018ZM50.5066 997.962C50.5066 991.632 50.5066 985.724 50.5066 979.722C45.734 978.854 41.4458 978.456 37.0002 978.795C37.0002 985.583 37.0002 991.855 37.0002 998.197C41.6517 998.76 45.8187 999.1 50.5066 997.962ZM49.8283 1024.33C45.2615 1024.14 41.0218 1022.96 37.0123 1024.21C37.0123 1031.09 37.0123 1037.6 37.0123 1044.1C41.5185 1044.1 45.4553 1044.1 49.8283 1044.1C49.8283 1037.35 49.8283 1031.06 49.8283 1024.33ZM32.7605 1047.76C27.0672 1048.69 21.8342 1048.07 16.5528 1049.85C15.9714 1053.39 15.9714 1056.78 16.4801 1060.3C21.4587 1061.78 26.3283 1062.13 31.4038 1061.23C32.6878 1056.96 33.136 1052.83 32.7605 1047.76Z" fill="#098770"/>
<path d="M3.17956 923.628C1.10818 929.407 2.28316 934.519 1.9561 939.372C0.260226 964.893 -1.22971 990.484 1.53214 1015.99C3.53085 1034.48 4.42723 1052.94 3.82156 1071.5C3.74888 1073.88 3.51873 1076.25 3.27647 1080C6.93471 1076.74 6.3896 1073.76 6.45017 1071.08C6.88625 1051.94 5.80816 1032.85 4.46358 1013.75C2.47698 985.666 3.3976 957.589 5.9293 929.56C6.111 927.45 6.14734 927.45 3.17956 923.628Z" fill="#098770"/>
<path d="M61.2029 919.024C64.1828 970.781 64.6794 1022.06 62.1962 1073.77C58.5864 1072.54 59.3859 1069.82 59.4585 1067.48C60.0521 1050.32 60.9727 1033.17 61.2392 1016.01C61.6026 992.409 60.464 968.823 59.6524 945.236C59.4101 938.214 59.4707 931.192 59.5191 924.17C59.5433 922.588 58.8529 920.724 61.2029 919.024Z" fill="#098770"/>
<path d="M13.3308 1041.17C26.6192 1041.17 39.9681 1041.17 54.3951 1041.17C54.1165 1093.66 53.2686 1145.08 54.0923 1196.63C39.6653 1194.96 26.2315 1193.5 13.246 1194.81C8.82461 1143.67 14.4816 1092.07 13.3308 1041.17ZM14.845 1150.55C20.623 1151.25 26.4375 1151.2 32.5305 1150.83C32.5305 1144.1 32.5305 1138 32.5305 1131.32C26.3648 1131.71 20.6109 1131.4 14.845 1133.53C14.845 1138.92 14.845 1144.13 14.845 1150.55ZM15.7292 1090.1C15.7292 1095.57 15.7292 1100.74 15.7292 1106.41C21.4225 1106.14 26.9583 1105.89 32.8939 1105.61C32.6395 1099.87 33.439 1094.5 32.2398 1089.01C26.7766 1087.99 21.6648 1089 15.7292 1090.1ZM50.858 1085.41C50.858 1079.18 50.858 1073.43 50.858 1067.57C45.6493 1065.81 40.7555 1066.39 35.2197 1066.76C35.6315 1073.16 36.0313 1079.24 36.4431 1085.61C41.3611 1085.52 45.8552 1086.63 50.858 1085.41ZM31.4645 1063.32C32.8333 1056.46 31.8643 1050.42 31.2465 1044.23C25.8318 1044.04 21.1076 1043.39 16.2501 1044.68C17.2192 1051.04 15.923 1057.28 17.5462 1063.31C22.2462 1063.32 26.6071 1063.32 31.4645 1063.32ZM50.5067 1128.26C50.5067 1121.93 50.5067 1116.02 50.5067 1110.02C45.7341 1109.15 41.4459 1108.75 37.0003 1109.09C37.0003 1115.88 37.0003 1122.15 37.0003 1128.5C41.6519 1129.06 45.8189 1129.4 50.5067 1128.26ZM49.8284 1154.63C45.2616 1154.44 41.022 1153.25 37.0124 1154.51C37.0124 1161.39 37.0124 1167.9 37.0124 1174.4C41.5186 1174.4 45.4555 1174.4 49.8284 1174.4C49.8284 1167.65 49.8284 1161.36 49.8284 1154.63ZM32.7606 1178.06C27.0674 1178.99 21.8344 1178.37 16.5529 1180.15C15.9715 1183.69 15.9715 1187.08 16.4803 1190.6C21.4589 1192.08 26.3284 1192.43 31.4039 1191.53C32.688 1187.26 33.1362 1183.12 32.7606 1178.06Z" fill="#098770"/>
<path d="M3.18004 1196.1C1.10865 1190.32 2.28364 1185.21 1.95658 1180.36C0.260704 1154.84 -1.22923 1129.25 1.53262 1103.74C3.53133 1085.25 4.42772 1066.79 3.82205 1048.23C3.74937 1045.85 3.51922 1043.48 3.27695 1039.73C6.93519 1042.99 6.39009 1045.97 6.45065 1048.65C6.88673 1067.79 5.80864 1086.88 4.46406 1105.98C2.47746 1134.06 3.39808 1162.14 5.92977 1190.17C6.11147 1192.28 6.14782 1192.28 3.18004 1196.1Z" fill="#098770"/>
<path d="M61.203 1044.15C64.1829 1095.91 64.6795 1147.18 62.1963 1198.89C58.5865 1197.66 59.386 1194.94 59.4587 1192.61C60.0522 1175.45 60.9728 1158.3 61.2393 1141.13C61.6027 1117.54 60.4641 1093.95 59.6525 1070.36C59.4102 1063.34 59.4708 1056.32 59.5192 1049.3C59.5435 1047.71 58.853 1045.85 61.203 1044.15Z" fill="#098770"/>
<path d="M13.3308 1301.97C26.6192 1301.97 39.9681 1301.97 54.3951 1301.97C54.1165 1354.46 53.2686 1405.88 54.0923 1457.43C39.6653 1455.76 26.2315 1454.3 13.246 1455.61C8.82461 1404.47 14.4816 1352.87 13.3308 1301.97ZM14.845 1411.35C20.623 1412.05 26.4375 1412 32.5305 1411.63C32.5305 1404.9 32.5305 1398.8 32.5305 1392.12C26.3648 1392.51 20.6109 1392.2 14.845 1394.33C14.845 1399.72 14.845 1404.93 14.845 1411.35ZM15.7292 1350.9C15.7292 1356.37 15.7292 1361.54 15.7292 1367.21C21.4225 1366.94 26.9583 1366.69 32.8939 1366.41C32.6395 1360.67 33.439 1355.3 32.2398 1349.81C26.7766 1348.79 21.6648 1349.8 15.7292 1350.9ZM50.858 1346.21C50.858 1339.98 50.858 1334.23 50.858 1328.37C45.6493 1326.61 40.7555 1327.19 35.2197 1327.56C35.6315 1333.96 36.0313 1340.04 36.4431 1346.41C41.3611 1346.32 45.8552 1347.43 50.858 1346.21ZM31.4645 1324.12C32.8333 1317.26 31.8643 1311.22 31.2465 1305.03C25.8318 1304.84 21.1076 1304.19 16.2501 1305.48C17.2192 1311.84 15.923 1318.08 17.5462 1324.1C22.2462 1324.12 26.6071 1324.12 31.4645 1324.12ZM50.5067 1389.06C50.5067 1382.73 50.5067 1376.82 50.5067 1370.82C45.7341 1369.95 41.4459 1369.55 37.0003 1369.89C37.0003 1376.68 37.0003 1382.95 37.0003 1389.3C41.6519 1389.86 45.8189 1390.2 50.5067 1389.06ZM49.8284 1415.43C45.2616 1415.24 41.022 1414.05 37.0124 1415.31C37.0124 1422.19 37.0124 1428.7 37.0124 1435.2C41.5186 1435.2 45.4555 1435.2 49.8284 1435.2C49.8284 1428.45 49.8284 1422.16 49.8284 1415.43ZM32.7606 1438.86C27.0674 1439.79 21.8344 1439.17 16.5529 1440.95C15.9715 1444.49 15.9715 1447.88 16.4803 1451.4C21.4589 1452.88 26.3284 1453.23 31.4039 1452.33C32.688 1448.06 33.1362 1443.92 32.7606 1438.86Z" fill="#098770"/>
<path d="M3.18004 1456.9C1.10865 1451.12 2.28364 1446.01 1.95658 1441.16C0.260704 1415.64 -1.22923 1390.05 1.53262 1364.54C3.53133 1346.05 4.42772 1327.59 3.82205 1309.03C3.74937 1306.65 3.51922 1304.28 3.27695 1300.53C6.93519 1303.79 6.39009 1306.77 6.45065 1309.45C6.88673 1328.59 5.80864 1347.68 4.46406 1366.78C2.47746 1394.86 3.39808 1422.94 5.92977 1450.97C6.11147 1453.08 6.14782 1453.08 3.18004 1456.9Z" fill="#098770"/>
<path d="M61.203 1304.95C64.1829 1356.71 64.6795 1407.98 62.1963 1459.69C58.5865 1458.46 59.386 1455.74 59.4587 1453.41C60.0522 1436.25 60.9728 1419.1 61.2393 1401.93C61.6027 1378.34 60.4641 1354.75 59.6525 1331.16C59.4102 1324.14 59.4708 1317.12 59.5192 1310.1C59.5435 1308.51 58.853 1306.65 61.203 1304.95Z" fill="#098770"/>
<path d="M13.3308 1171.36C26.6192 1171.36 39.9681 1171.36 54.3951 1171.36C54.1165 1223.84 53.2686 1275.27 54.0923 1326.82C39.6653 1325.15 26.2315 1323.69 13.246 1325C8.82461 1273.85 14.4816 1222.26 13.3308 1171.36ZM14.845 1280.73C20.623 1281.44 26.4375 1281.39 32.5305 1281.02C32.5305 1274.29 32.5305 1268.19 32.5305 1261.51C26.3648 1261.9 20.6109 1261.59 14.845 1263.71C14.845 1269.11 14.845 1274.32 14.845 1280.73ZM15.7292 1220.29C15.7292 1225.75 15.7292 1230.92 15.7292 1236.6C21.4225 1236.33 26.9583 1236.08 32.8939 1235.8C32.6395 1230.06 33.439 1224.69 32.2398 1219.2C26.7766 1218.18 21.6648 1219.19 15.7292 1220.29ZM50.858 1215.6C50.858 1209.37 50.858 1203.62 50.858 1197.76C45.6493 1196 40.7555 1196.58 35.2197 1196.95C35.6315 1203.35 36.0313 1209.42 36.4431 1215.8C41.3611 1215.71 45.8552 1216.82 50.858 1215.6ZM31.4645 1193.5C32.8333 1186.65 31.8643 1180.61 31.2465 1174.42C25.8318 1174.23 21.1076 1173.58 16.2501 1174.86C17.2192 1181.23 15.923 1187.47 17.5462 1193.49C22.2462 1193.5 26.6071 1193.5 31.4645 1193.5ZM50.5067 1258.45C50.5067 1252.12 50.5067 1246.21 50.5067 1240.21C45.7341 1239.34 41.4459 1238.94 37.0003 1239.28C37.0003 1246.07 37.0003 1252.34 37.0003 1258.68C41.6519 1259.25 45.8189 1259.59 50.5067 1258.45ZM49.8284 1284.81C45.2616 1284.63 41.022 1283.44 37.0124 1284.7C37.0124 1291.58 37.0124 1298.08 37.0124 1304.59C41.5186 1304.59 45.4555 1304.59 49.8284 1304.59C49.8284 1297.84 49.8284 1291.54 49.8284 1284.81ZM32.7606 1308.25C27.0674 1309.17 21.8344 1308.55 16.5529 1310.33C15.9715 1313.88 15.9715 1317.26 16.4803 1320.79C21.4589 1322.27 26.3284 1322.62 31.4039 1321.72C32.688 1317.45 33.1362 1313.31 32.7606 1308.25Z" fill="#098770"/>
<path d="M3.17969 1184.12C1.1083 1189.89 2.28328 1195.01 1.95622 1199.86C0.260348 1225.38 -1.22959 1250.97 1.53226 1276.48C3.53097 1294.97 4.42736 1313.43 3.82169 1331.99C3.74901 1334.37 3.51886 1336.74 3.27659 1340.49C6.93483 1337.23 6.38972 1334.25 6.45029 1331.57C6.88637 1312.42 5.80828 1293.34 4.4637 1274.24C2.4771 1246.15 3.39772 1218.08 5.92942 1190.05C6.11112 1187.94 6.14746 1187.94 3.17969 1184.12Z" fill="#098770"/>
<path d="M61.203 1179.51C64.1829 1231.27 64.6795 1282.54 62.1963 1334.25C58.5865 1333.02 59.386 1330.3 59.4587 1327.97C60.0522 1310.81 60.9728 1293.66 61.2393 1276.49C61.6027 1252.9 60.4641 1229.31 59.6525 1205.72C59.4102 1198.7 59.4708 1191.68 59.5192 1184.66C59.5435 1183.07 58.853 1181.21 61.203 1179.51Z" fill="#098770"/>
<path d="M13.3308 1432.16C26.6192 1432.16 39.9681 1432.16 54.3951 1432.16C54.1165 1484.64 53.2686 1536.07 54.0923 1587.62C39.6653 1585.95 26.2315 1584.49 13.246 1585.8C8.82461 1534.65 14.4816 1483.06 13.3308 1432.16ZM14.845 1541.53C20.623 1542.24 26.4375 1542.19 32.5305 1541.82C32.5305 1535.09 32.5305 1528.99 32.5305 1522.31C26.3648 1522.7 20.6109 1522.39 14.845 1524.51C14.845 1529.9 14.845 1535.12 14.845 1541.53ZM15.7292 1481.09C15.7292 1486.55 15.7292 1491.72 15.7292 1497.4C21.4225 1497.13 26.9583 1496.88 32.8939 1496.6C32.6395 1490.86 33.439 1485.49 32.2398 1480C26.7766 1478.98 21.6648 1479.99 15.7292 1481.09ZM50.858 1476.4C50.858 1470.16 50.858 1464.42 50.858 1458.56C45.6493 1456.8 40.7555 1457.38 35.2197 1457.75C35.6315 1464.15 36.0313 1470.22 36.4431 1476.6C41.3611 1476.51 45.8552 1477.62 50.858 1476.4ZM31.4645 1454.3C32.8333 1447.45 31.8643 1441.41 31.2465 1435.22C25.8318 1435.03 21.1076 1434.37 16.2501 1435.66C17.2192 1442.03 15.923 1448.27 17.5462 1454.29C22.2462 1454.3 26.6071 1454.3 31.4645 1454.3ZM50.5067 1519.25C50.5067 1512.92 50.5067 1507.01 50.5067 1501.01C45.7341 1500.14 41.4459 1499.74 37.0003 1500.08C37.0003 1506.87 37.0003 1513.14 37.0003 1519.48C41.6519 1520.05 45.8189 1520.39 50.5067 1519.25ZM49.8284 1545.61C45.2616 1545.43 41.022 1544.24 37.0124 1545.5C37.0124 1552.38 37.0124 1558.88 37.0124 1565.39C41.5186 1565.39 45.4555 1565.39 49.8284 1565.39C49.8284 1558.64 49.8284 1552.34 49.8284 1545.61ZM32.7606 1569.05C27.0674 1569.97 21.8344 1569.35 16.5529 1571.13C15.9715 1574.67 15.9715 1578.06 16.4803 1581.59C21.4589 1583.07 26.3284 1583.42 31.4039 1582.52C32.688 1578.25 33.1362 1574.11 32.7606 1569.05Z" fill="#098770"/>
<path d="M3.17969 1444.91C1.1083 1450.69 2.28328 1455.81 1.95622 1460.66C0.260348 1486.18 -1.22959 1511.77 1.53226 1537.28C3.53097 1555.77 4.42736 1574.23 3.82169 1592.79C3.74901 1595.17 3.51886 1597.53 3.27659 1601.29C6.93483 1598.03 6.38972 1595.05 6.45029 1592.37C6.88637 1573.22 5.80828 1554.14 4.4637 1535.04C2.4771 1506.95 3.39772 1478.88 5.92942 1450.85C6.11112 1448.74 6.14746 1448.74 3.17969 1444.91Z" fill="#098770"/>
<path d="M61.203 1440.31C64.1829 1492.07 64.6795 1543.34 62.1963 1595.05C58.5865 1593.82 59.386 1591.1 59.4587 1588.77C60.0522 1571.61 60.9728 1554.46 61.2393 1537.29C61.6027 1513.7 60.4641 1490.11 59.6525 1466.52C59.4102 1459.5 59.4708 1452.48 59.5192 1445.46C59.5435 1443.87 58.853 1442.01 61.203 1440.31Z" fill="#098770"/>
<path d="M13.3308 1041.17C26.6192 1041.17 39.9681 1041.17 54.3951 1041.17C54.1165 1093.66 53.2686 1145.08 54.0923 1196.63C39.6653 1194.96 26.2315 1193.5 13.246 1194.81C8.82461 1143.67 14.4816 1092.07 13.3308 1041.17ZM14.845 1150.55C20.623 1151.25 26.4375 1151.2 32.5305 1150.83C32.5305 1144.1 32.5305 1138 32.5305 1131.32C26.3648 1131.71 20.6109 1131.4 14.845 1133.53C14.845 1138.92 14.845 1144.13 14.845 1150.55ZM15.7292 1090.1C15.7292 1095.57 15.7292 1100.74 15.7292 1106.41C21.4225 1106.14 26.9583 1105.89 32.8939 1105.61C32.6395 1099.87 33.439 1094.5 32.2398 1089.01C26.7766 1087.99 21.6648 1089 15.7292 1090.1ZM50.858 1085.41C50.858 1079.18 50.858 1073.43 50.858 1067.57C45.6493 1065.81 40.7555 1066.39 35.2197 1066.76C35.6315 1073.16 36.0313 1079.24 36.4431 1085.61C41.3611 1085.52 45.8552 1086.63 50.858 1085.41ZM31.4645 1063.32C32.8333 1056.46 31.8643 1050.42 31.2465 1044.23C25.8318 1044.04 21.1076 1043.39 16.2501 1044.68C17.2192 1051.04 15.923 1057.28 17.5462 1063.31C22.2462 1063.32 26.6071 1063.32 31.4645 1063.32ZM50.5067 1128.26C50.5067 1121.93 50.5067 1116.02 50.5067 1110.02C45.7341 1109.15 41.4459 1108.75 37.0003 1109.09C37.0003 1115.88 37.0003 1122.15 37.0003 1128.5C41.6519 1129.06 45.8189 1129.4 50.5067 1128.26ZM49.8284 1154.63C45.2616 1154.44 41.022 1153.25 37.0124 1154.51C37.0124 1161.39 37.0124 1167.9 37.0124 1174.4C41.5186 1174.4 45.4555 1174.4 49.8284 1174.4C49.8284 1167.65 49.8284 1161.36 49.8284 1154.63ZM32.7606 1178.06C27.0674 1178.99 21.8344 1178.37 16.5529 1180.15C15.9715 1183.69 15.9715 1187.08 16.4803 1190.6C21.4589 1192.08 26.3284 1192.43 31.4039 1191.53C32.688 1187.26 33.1362 1183.12 32.7606 1178.06Z" fill="#098770"/>
<path d="M3.18004 1196.1C1.10865 1190.32 2.28364 1185.21 1.95658 1180.36C0.260704 1154.84 -1.22923 1129.25 1.53262 1103.74C3.53133 1085.25 4.42772 1066.79 3.82205 1048.23C3.74937 1045.85 3.51922 1043.48 3.27695 1039.73C6.93519 1042.99 6.39009 1045.97 6.45065 1048.65C6.88673 1067.79 5.80864 1086.88 4.46406 1105.98C2.47746 1134.06 3.39808 1162.14 5.92977 1190.17C6.11147 1192.28 6.14782 1192.28 3.18004 1196.1Z" fill="#098770"/>
<path d="M61.203 1044.15C64.1829 1095.91 64.6795 1147.18 62.1963 1198.89C58.5865 1197.66 59.386 1194.94 59.4587 1192.61C60.0522 1175.45 60.9728 1158.3 61.2393 1141.13C61.6027 1117.54 60.4641 1093.95 59.6525 1070.36C59.4102 1063.34 59.4708 1056.32 59.5192 1049.3C59.5435 1047.71 58.853 1045.85 61.203 1044.15Z" fill="#098770"/>
<path d="M13.3308 1301.97C26.6192 1301.97 39.9681 1301.97 54.3951 1301.97C54.1165 1354.46 53.2686 1405.88 54.0923 1457.43C39.6653 1455.76 26.2315 1454.3 13.246 1455.61C8.82461 1404.46 14.4816 1352.87 13.3308 1301.97ZM14.845 1411.35C20.623 1412.05 26.4375 1412 32.5305 1411.63C32.5305 1404.9 32.5305 1398.8 32.5305 1392.12C26.3648 1392.51 20.6109 1392.2 14.845 1394.32C14.845 1399.72 14.845 1404.93 14.845 1411.35ZM15.7292 1350.9C15.7292 1356.37 15.7292 1361.54 15.7292 1367.21C21.4225 1366.94 26.9583 1366.69 32.8939 1366.41C32.6395 1360.67 33.439 1355.3 32.2398 1349.81C26.7766 1348.79 21.6648 1349.8 15.7292 1350.9ZM50.858 1346.21C50.858 1339.98 50.858 1334.23 50.858 1328.37C45.6493 1326.61 40.7555 1327.19 35.2197 1327.56C35.6315 1333.96 36.0313 1340.04 36.4431 1346.41C41.3611 1346.32 45.8552 1347.43 50.858 1346.21ZM31.4645 1324.12C32.8333 1317.26 31.8643 1311.22 31.2465 1305.03C25.8318 1304.84 21.1076 1304.19 16.2501 1305.48C17.2192 1311.84 15.923 1318.08 17.5462 1324.1C22.2462 1324.12 26.6071 1324.12 31.4645 1324.12ZM50.5067 1389.06C50.5067 1382.73 50.5067 1376.82 50.5067 1370.82C45.7341 1369.95 41.4459 1369.55 37.0003 1369.89C37.0003 1376.68 37.0003 1382.95 37.0003 1389.3C41.6519 1389.86 45.8189 1390.2 50.5067 1389.06ZM49.8284 1415.43C45.2616 1415.24 41.022 1414.05 37.0124 1415.31C37.0124 1422.19 37.0124 1428.7 37.0124 1435.2C41.5186 1435.2 45.4555 1435.2 49.8284 1435.2C49.8284 1428.45 49.8284 1422.15 49.8284 1415.43ZM32.7606 1438.86C27.0674 1439.79 21.8344 1439.16 16.5529 1440.95C15.9715 1444.49 15.9715 1447.87 16.4803 1451.4C21.4589 1452.88 26.3284 1453.23 31.4039 1452.33C32.688 1448.06 33.1362 1443.92 32.7606 1438.86Z" fill="#098770"/>
<path d="M3.18004 1456.9C1.10865 1451.12 2.28364 1446.01 1.95658 1441.16C0.260704 1415.64 -1.22923 1390.05 1.53262 1364.54C3.53133 1346.05 4.42772 1327.59 3.82205 1309.03C3.74937 1306.65 3.51922 1304.28 3.27695 1300.53C6.93519 1303.79 6.39009 1306.77 6.45065 1309.45C6.88673 1328.59 5.80864 1347.68 4.46406 1366.78C2.47746 1394.86 3.39808 1422.94 5.92977 1450.97C6.11147 1453.08 6.14782 1453.08 3.18004 1456.9Z" fill="#098770"/>
<path d="M61.203 1304.95C64.1829 1356.71 64.6795 1407.98 62.1963 1459.69C58.5865 1458.46 59.386 1455.74 59.4587 1453.41C60.0522 1436.25 60.9728 1419.1 61.2393 1401.93C61.6027 1378.34 60.4641 1354.75 59.6525 1331.16C59.4102 1324.14 59.4708 1317.12 59.5192 1310.1C59.5435 1308.51 58.853 1306.65 61.203 1304.95Z" fill="#098770"/>
<path d="M13.3308 1171.36C26.6192 1171.36 39.9681 1171.36 54.3951 1171.36C54.1165 1223.84 53.2686 1275.27 54.0923 1326.82C39.6653 1325.15 26.2315 1323.69 13.246 1325C8.82461 1273.85 14.4816 1222.26 13.3308 1171.36ZM14.845 1280.73C20.623 1281.44 26.4375 1281.39 32.5305 1281.02C32.5305 1274.29 32.5305 1268.19 32.5305 1261.51C26.3648 1261.9 20.6109 1261.59 14.845 1263.71C14.845 1269.11 14.845 1274.32 14.845 1280.73ZM15.7292 1220.29C15.7292 1225.75 15.7292 1230.92 15.7292 1236.6C21.4225 1236.33 26.9583 1236.08 32.8939 1235.8C32.6395 1230.06 33.439 1224.69 32.2398 1219.2C26.7766 1218.18 21.6648 1219.19 15.7292 1220.29ZM50.858 1215.6C50.858 1209.37 50.858 1203.62 50.858 1197.76C45.6493 1196 40.7555 1196.58 35.2197 1196.95C35.6315 1203.35 36.0313 1209.42 36.4431 1215.8C41.3611 1215.71 45.8552 1216.82 50.858 1215.6ZM31.4645 1193.5C32.8333 1186.65 31.8643 1180.61 31.2465 1174.42C25.8318 1174.23 21.1076 1173.58 16.2501 1174.86C17.2192 1181.23 15.923 1187.47 17.5462 1193.49C22.2462 1193.5 26.6071 1193.5 31.4645 1193.5ZM50.5067 1258.45C50.5067 1252.12 50.5067 1246.21 50.5067 1240.21C45.7341 1239.34 41.4459 1238.94 37.0003 1239.28C37.0003 1246.07 37.0003 1252.34 37.0003 1258.68C41.6519 1259.25 45.8189 1259.59 50.5067 1258.45ZM49.8284 1284.81C45.2616 1284.63 41.022 1283.44 37.0124 1284.7C37.0124 1291.58 37.0124 1298.08 37.0124 1304.59C41.5186 1304.59 45.4555 1304.59 49.8284 1304.59C49.8284 1297.84 49.8284 1291.54 49.8284 1284.81ZM32.7606 1308.25C27.0674 1309.17 21.8344 1308.55 16.5529 1310.33C15.9715 1313.88 15.9715 1317.26 16.4803 1320.79C21.4589 1322.27 26.3284 1322.62 31.4039 1321.72C32.688 1317.45 33.1362 1313.31 32.7606 1308.25Z" fill="#098770"/>
<path d="M3.17969 1184.12C1.1083 1189.89 2.28328 1195.01 1.95622 1199.86C0.260348 1225.38 -1.22959 1250.97 1.53226 1276.48C3.53097 1294.97 4.42736 1313.43 3.82169 1331.99C3.74901 1334.37 3.51886 1336.74 3.27659 1340.49C6.93483 1337.23 6.38972 1334.25 6.45029 1331.57C6.88637 1312.42 5.80828 1293.34 4.4637 1274.24C2.4771 1246.15 3.39772 1218.08 5.92942 1190.05C6.11112 1187.94 6.14746 1187.94 3.17969 1184.12Z" fill="#098770"/>
<path d="M61.203 1179.51C64.1829 1231.27 64.6795 1282.54 62.1963 1334.25C58.5865 1333.02 59.386 1330.3 59.4587 1327.97C60.0522 1310.81 60.9728 1293.66 61.2393 1276.49C61.6027 1252.9 60.4641 1229.31 59.6525 1205.72C59.4102 1198.7 59.4708 1191.68 59.5192 1184.66C59.5435 1183.07 58.853 1181.21 61.203 1179.51Z" fill="#098770"/>
<path d="M13.3308 1432.16C26.6192 1432.16 39.9681 1432.16 54.3951 1432.16C54.1165 1484.64 53.2686 1536.07 54.0923 1587.62C39.6653 1585.95 26.2315 1584.49 13.246 1585.8C8.82461 1534.65 14.4816 1483.06 13.3308 1432.16ZM14.845 1541.53C20.623 1542.24 26.4375 1542.19 32.5305 1541.82C32.5305 1535.09 32.5305 1528.99 32.5305 1522.31C26.3648 1522.7 20.6109 1522.39 14.845 1524.51C14.845 1529.9 14.845 1535.12 14.845 1541.53ZM15.7292 1481.09C15.7292 1486.55 15.7292 1491.72 15.7292 1497.4C21.4225 1497.13 26.9583 1496.88 32.8939 1496.6C32.6395 1490.86 33.439 1485.49 32.2398 1480C26.7766 1478.98 21.6648 1479.99 15.7292 1481.09ZM50.858 1476.4C50.858 1470.16 50.858 1464.42 50.858 1458.56C45.6493 1456.8 40.7555 1457.38 35.2197 1457.75C35.6315 1464.15 36.0313 1470.22 36.4431 1476.6C41.3611 1476.51 45.8552 1477.62 50.858 1476.4ZM31.4645 1454.3C32.8333 1447.45 31.8643 1441.41 31.2465 1435.22C25.8318 1435.03 21.1076 1434.37 16.2501 1435.66C17.2192 1442.03 15.923 1448.27 17.5462 1454.29C22.2462 1454.3 26.6071 1454.3 31.4645 1454.3ZM50.5067 1519.25C50.5067 1512.92 50.5067 1507.01 50.5067 1501.01C45.7341 1500.14 41.4459 1499.74 37.0003 1500.08C37.0003 1506.87 37.0003 1513.14 37.0003 1519.48C41.6519 1520.05 45.8189 1520.39 50.5067 1519.25ZM49.8284 1545.61C45.2616 1545.43 41.022 1544.24 37.0124 1545.5C37.0124 1552.38 37.0124 1558.88 37.0124 1565.39C41.5186 1565.39 45.4555 1565.39 49.8284 1565.39C49.8284 1558.64 49.8284 1552.34 49.8284 1545.61ZM32.7606 1569.05C27.0674 1569.97 21.8344 1569.35 16.5529 1571.13C15.9715 1574.67 15.9715 1578.06 16.4803 1581.59C21.4589 1583.07 26.3284 1583.42 31.4039 1582.52C32.688 1578.25 33.1362 1574.11 32.7606 1569.05Z" fill="#098770"/>
<path d="M3.17969 1444.91C1.1083 1450.69 2.28328 1455.81 1.95622 1460.66C0.260348 1486.18 -1.22959 1511.77 1.53226 1537.28C3.53097 1555.77 4.42736 1574.23 3.82169 1592.79C3.74901 1595.17 3.51886 1597.53 3.27659 1601.29C6.93483 1598.03 6.38972 1595.05 6.45029 1592.37C6.88637 1573.22 5.80828 1554.14 4.4637 1535.04C2.4771 1506.95 3.39772 1478.88 5.92942 1450.85C6.11112 1448.74 6.14746 1448.74 3.17969 1444.91Z" fill="#098770"/>
<path d="M61.203 1440.31C64.1829 1492.07 64.6795 1543.34 62.1963 1595.05C58.5865 1593.82 59.386 1591.1 59.4587 1588.77C60.0522 1571.61 60.9728 1554.46 61.2393 1537.29C61.6027 1513.7 60.4641 1490.11 59.6525 1466.52C59.4102 1459.5 59.4708 1452.48 59.5192 1445.46C59.5435 1443.87 58.853 1442.01 61.203 1440.31Z" fill="#098770"/>
<path d="M13.3307 1559.62C26.619 1559.62 39.968 1559.62 54.395 1559.62C54.1164 1612.1 53.2685 1663.53 54.0922 1715.07C39.6651 1713.41 26.2314 1711.94 13.2459 1713.26C8.82448 1662.11 14.4814 1610.52 13.3307 1559.62ZM14.8448 1668.99C20.6229 1669.69 26.4373 1669.65 32.5304 1669.27C32.5304 1662.54 32.5304 1656.45 32.5304 1649.76C26.3647 1650.15 20.6108 1649.85 14.8448 1651.97C14.8448 1657.36 14.8448 1662.58 14.8448 1668.99ZM15.7291 1608.55C15.7291 1614.01 15.7291 1619.18 15.7291 1624.85C21.4224 1624.58 26.9582 1624.34 32.8938 1624.06C32.6394 1618.31 33.4389 1612.94 32.2396 1607.46C26.7765 1606.44 21.6647 1607.44 15.7291 1608.55ZM50.8579 1603.86C50.8579 1597.62 50.8579 1591.88 50.8579 1586.02C45.6492 1584.26 40.7554 1584.83 35.2195 1585.21C35.6314 1591.61 36.0311 1597.68 36.443 1604.06C41.361 1603.96 45.8551 1605.08 50.8579 1603.86ZM31.4644 1581.76C32.8332 1574.9 31.8641 1568.86 31.2464 1562.68C25.8317 1562.49 21.1074 1561.83 16.25 1563.12C17.2191 1569.49 15.9229 1575.72 17.5461 1581.75C22.2461 1581.76 26.6069 1581.76 31.4644 1581.76ZM50.5066 1646.7C50.5066 1640.37 50.5066 1634.47 50.5066 1628.46C45.734 1627.6 41.4458 1627.2 37.0002 1627.54C37.0002 1634.33 37.0002 1640.6 37.0002 1646.94C41.6517 1647.5 45.8187 1647.84 50.5066 1646.7ZM49.8283 1673.07C45.2615 1672.88 41.0218 1671.7 37.0123 1672.95C37.0123 1679.83 37.0123 1686.34 37.0123 1692.85C41.5185 1692.85 45.4553 1692.85 49.8283 1692.85C49.8283 1686.09 49.8283 1679.8 49.8283 1673.07ZM32.7605 1696.5C27.0672 1697.43 21.8342 1696.81 16.5528 1698.59C15.9714 1702.13 15.9714 1705.52 16.4801 1709.05C21.4587 1710.52 26.3283 1710.88 31.4038 1709.97C32.6878 1705.71 33.136 1701.57 32.7605 1696.5Z" fill="#098770"/>
<path d="M3.17992 1714.55C1.10853 1708.77 2.28351 1703.65 1.95645 1698.8C0.260582 1673.28 -1.22935 1647.69 1.5325 1622.18C3.53121 1603.69 4.4276 1585.23 3.82193 1566.67C3.74925 1564.29 3.5191 1561.92 3.27683 1558.17C6.93507 1561.43 6.38996 1564.41 6.45053 1567.09C6.88661 1586.24 5.80852 1605.32 4.46394 1624.42C2.47734 1652.51 3.39795 1680.58 5.92965 1708.61C6.11135 1710.72 6.14769 1710.72 3.17992 1714.55Z" fill="#098770"/>
<path d="M61.2029 1562.59C64.1828 1614.35 64.6794 1665.63 62.1962 1717.34C58.5864 1716.1 59.3859 1713.39 59.4585 1711.05C60.0521 1693.89 60.9727 1676.74 61.2392 1659.58C61.6026 1635.98 60.464 1612.39 59.6524 1588.81C59.4101 1581.78 59.4707 1574.76 59.5191 1567.74C59.5433 1566.16 58.8529 1564.29 61.2029 1562.59Z" fill="#098770"/>
<path d="M13.3307 1820.42C26.619 1820.42 39.968 1820.42 54.395 1820.42C54.1164 1872.9 53.2685 1924.33 54.0922 1975.87C39.6651 1974.21 26.2314 1972.74 13.2459 1974.06C8.82448 1922.91 14.4814 1871.32 13.3307 1820.42ZM14.8448 1929.79C20.6229 1930.49 26.4373 1930.45 32.5304 1930.07C32.5304 1923.34 32.5304 1917.25 32.5304 1910.56C26.3647 1910.95 20.6108 1910.65 14.8448 1912.77C14.8448 1918.16 14.8448 1923.38 14.8448 1929.79ZM15.7291 1869.35C15.7291 1874.81 15.7291 1879.98 15.7291 1885.65C21.4224 1885.38 26.9582 1885.14 32.8938 1884.86C32.6394 1879.11 33.4389 1873.74 32.2396 1868.26C26.7765 1867.24 21.6647 1868.24 15.7291 1869.35ZM50.8579 1864.66C50.8579 1858.42 50.8579 1852.68 50.8579 1846.82C45.6492 1845.06 40.7554 1845.63 35.2195 1846.01C35.6314 1852.41 36.0311 1858.48 36.443 1864.86C41.361 1864.76 45.8551 1865.88 50.8579 1864.66ZM31.4644 1842.56C32.8332 1835.7 31.8641 1829.66 31.2464 1823.48C25.8317 1823.29 21.1074 1822.63 16.25 1823.92C17.2191 1830.29 15.9229 1836.52 17.5461 1842.55C22.2461 1842.56 26.6069 1842.56 31.4644 1842.56ZM50.5066 1907.5C50.5066 1901.17 50.5066 1895.27 50.5066 1889.26C45.734 1888.4 41.4458 1888 37.0002 1888.34C37.0002 1895.13 37.0002 1901.4 37.0002 1907.74C41.6517 1908.3 45.8187 1908.64 50.5066 1907.5ZM49.8283 1933.87C45.2615 1933.68 41.0218 1932.5 37.0123 1933.75C37.0123 1940.63 37.0123 1947.14 37.0123 1953.65C41.5185 1953.65 45.4553 1953.65 49.8283 1953.65C49.8283 1946.89 49.8283 1940.6 49.8283 1933.87ZM32.7605 1957.3C27.0672 1958.23 21.8342 1957.61 16.5528 1959.39C15.9714 1962.93 15.9714 1966.32 16.4801 1969.85C21.4587 1971.32 26.3283 1971.68 31.4038 1970.77C32.6878 1966.51 33.136 1962.37 32.7605 1957.3Z" fill="#098770"/>
<path d="M3.17992 1975.34C1.10853 1969.57 2.28351 1964.45 1.95645 1959.6C0.260582 1934.08 -1.22935 1908.49 1.5325 1882.98C3.53121 1864.49 4.4276 1846.03 3.82193 1827.47C3.74925 1825.09 3.5191 1822.72 3.27683 1818.97C6.93507 1822.23 6.38996 1825.21 6.45053 1827.89C6.88661 1847.04 5.80852 1866.12 4.46394 1885.22C2.47734 1913.31 3.39795 1941.38 5.92965 1969.41C6.11135 1971.52 6.14769 1971.52 3.17992 1975.34Z" fill="#098770"/>
<path d="M61.2029 1823.39C64.1828 1875.15 64.6794 1926.43 62.1962 1978.14C58.5864 1976.9 59.3859 1974.18 59.4585 1971.85C60.0521 1954.69 60.9727 1937.54 61.2392 1920.38C61.6026 1896.78 60.464 1873.19 59.6524 1849.61C59.4101 1842.58 59.4707 1835.56 59.5191 1828.54C59.5433 1826.96 58.8529 1825.09 61.2029 1823.39Z" fill="#098770"/>
<path d="M13.3307 1689.8C26.619 1689.8 39.968 1689.8 54.395 1689.8C54.1164 1742.29 53.2685 1793.71 54.0922 1845.26C39.6651 1843.6 26.2314 1842.13 13.2459 1843.44C8.82448 1792.3 14.4814 1740.7 13.3307 1689.8ZM14.8448 1799.18C20.6229 1799.88 26.4373 1799.83 32.5304 1799.46C32.5304 1792.73 32.5304 1786.63 32.5304 1779.95C26.3647 1780.34 20.6108 1780.03 14.8448 1782.16C14.8448 1787.55 14.8448 1792.77 14.8448 1799.18ZM15.7291 1738.73C15.7291 1744.2 15.7291 1749.37 15.7291 1755.04C21.4224 1754.77 26.9582 1754.53 32.8938 1754.24C32.6394 1748.5 33.4389 1743.13 32.2396 1737.64C26.7765 1736.62 21.6647 1737.63 15.7291 1738.73ZM50.8579 1734.05C50.8579 1727.81 50.8579 1722.06 50.8579 1716.2C45.6492 1714.44 40.7554 1715.02 35.2195 1715.39C35.6314 1721.8 36.0311 1727.87 36.443 1734.24C41.361 1734.15 45.8551 1735.26 50.8579 1734.05ZM31.4644 1711.95C32.8332 1705.09 31.8641 1699.05 31.2464 1692.86C25.8317 1692.68 21.1074 1692.02 16.25 1693.31C17.2191 1699.67 15.9229 1705.91 17.5461 1711.94C22.2461 1711.95 26.6069 1711.95 31.4644 1711.95ZM50.5066 1776.89C50.5066 1770.56 50.5066 1764.65 50.5066 1758.65C45.734 1757.78 41.4458 1757.39 37.0002 1757.73C37.0002 1764.51 37.0002 1770.78 37.0002 1777.13C41.6517 1777.69 45.8187 1778.03 50.5066 1776.89ZM49.8283 1803.26C45.2615 1803.07 41.0218 1801.89 37.0123 1803.14C37.0123 1810.02 37.0123 1816.53 37.0123 1823.03C41.5185 1823.03 45.4553 1823.03 49.8283 1823.03C49.8283 1816.28 49.8283 1809.99 49.8283 1803.26ZM32.7605 1826.69C27.0672 1827.62 21.8342 1827 16.5528 1828.78C15.9714 1832.32 15.9714 1835.71 16.4801 1839.23C21.4587 1840.71 26.3283 1841.06 31.4038 1840.16C32.6878 1835.89 33.136 1831.76 32.7605 1826.69Z" fill="#098770"/>
<path d="M3.17956 1702.56C1.10818 1708.34 2.28316 1713.45 1.9561 1718.3C0.260226 1743.82 -1.22971 1769.41 1.53214 1794.92C3.53085 1813.41 4.42723 1831.87 3.82156 1850.43C3.74888 1852.81 3.51873 1855.18 3.27647 1858.93C6.93471 1855.67 6.3896 1852.69 6.45017 1850.01C6.88625 1830.87 5.80816 1811.78 4.46358 1792.68C2.47698 1764.6 3.3976 1736.52 5.9293 1708.49C6.111 1706.38 6.14734 1706.38 3.17956 1702.56Z" fill="#098770"/>
<path d="M61.2029 1697.95C64.1828 1749.71 64.6794 1800.99 62.1962 1852.7C58.5864 1851.47 59.3859 1848.75 59.4585 1846.41C60.0521 1829.25 60.9727 1812.1 61.2392 1794.94C61.6026 1771.34 60.464 1747.75 59.6524 1724.17C59.4101 1717.14 59.4707 1710.12 59.5191 1703.1C59.5433 1701.52 58.8529 1699.65 61.2029 1697.95Z" fill="#098770"/>
<path d="M13.3307 1950.6C26.619 1950.6 39.968 1950.6 54.395 1950.6C54.1164 2003.09 53.2685 2054.51 54.0922 2106.06C39.6651 2104.4 26.2314 2102.93 13.2459 2104.24C8.82448 2053.1 14.4814 2001.5 13.3307 1950.6ZM14.8448 2059.98C20.6229 2060.68 26.4373 2060.63 32.5304 2060.26C32.5304 2053.53 32.5304 2047.43 32.5304 2040.75C26.3647 2041.14 20.6108 2040.83 14.8448 2042.96C14.8448 2048.35 14.8448 2053.57 14.8448 2059.98ZM15.7291 1999.53C15.7291 2005 15.7291 2010.17 15.7291 2015.84C21.4224 2015.57 26.9582 2015.33 32.8938 2015.04C32.6394 2009.3 33.4389 2003.93 32.2396 1998.44C26.7765 1997.42 21.6647 1998.43 15.7291 1999.53ZM50.8579 1994.85C50.8579 1988.61 50.8579 1982.86 50.8579 1977C45.6492 1975.24 40.7554 1975.82 35.2195 1976.19C35.6314 1982.6 36.0311 1988.67 36.443 1995.04C41.361 1994.95 45.8551 1996.06 50.8579 1994.85ZM31.4644 1972.75C32.8332 1965.89 31.8641 1959.85 31.2464 1953.66C25.8317 1953.48 21.1074 1952.82 16.25 1954.11C17.2191 1960.47 15.9229 1966.71 17.5461 1972.74C22.2461 1972.75 26.6069 1972.75 31.4644 1972.75ZM50.5066 2037.69C50.5066 2031.36 50.5066 2025.45 50.5066 2019.45C45.734 2018.58 41.4458 2018.19 37.0002 2018.53C37.0002 2025.31 37.0002 2031.59 37.0002 2037.93C41.6517 2038.49 45.8187 2038.83 50.5066 2037.69ZM49.8283 2064.06C45.2615 2063.87 41.0218 2062.69 37.0123 2063.94C37.0123 2070.82 37.0123 2077.33 37.0123 2083.83C41.5185 2083.83 45.4553 2083.83 49.8283 2083.83C49.8283 2077.08 49.8283 2070.79 49.8283 2064.06ZM32.7605 2087.49C27.0672 2088.42 21.8342 2087.8 16.5528 2089.58C15.9714 2093.12 15.9714 2096.51 16.4801 2100.04C21.4587 2101.51 26.3283 2101.86 31.4038 2100.96C32.6878 2096.69 33.136 2092.56 32.7605 2087.49Z" fill="#098770"/>
<path d="M3.17956 1963.36C1.10818 1969.14 2.28316 1974.25 1.9561 1979.1C0.260226 2004.62 -1.22971 2030.21 1.53214 2055.72C3.53085 2074.21 4.42723 2092.67 3.82156 2111.23C3.74888 2113.61 3.51873 2115.98 3.27647 2119.73C6.93471 2116.47 6.3896 2113.49 6.45017 2110.81C6.88625 2091.67 5.80816 2072.58 4.46358 2053.48C2.47698 2025.4 3.3976 1997.32 5.9293 1969.29C6.111 1967.18 6.14734 1967.18 3.17956 1963.36Z" fill="#098770"/>
<path d="M61.2029 1958.75C64.1828 2010.51 64.6794 2061.79 62.1962 2113.5C58.5864 2112.27 59.3859 2109.55 59.4585 2107.21C60.0521 2090.05 60.9727 2072.9 61.2392 2055.74C61.6026 2032.14 60.464 2008.55 59.6524 1984.97C59.4101 1977.94 59.4707 1970.92 59.5191 1963.9C59.5433 1962.32 58.8529 1960.45 61.2029 1958.75Z" fill="#098770"/>
<path d="M13.3308 2080.15C26.6192 2080.15 39.9681 2080.15 54.3951 2080.15C54.1165 2132.63 53.2686 2184.06 54.0923 2235.6C39.6653 2233.94 26.2315 2232.47 13.246 2233.79C8.82461 2182.64 14.4816 2131.05 13.3308 2080.15ZM14.845 2189.52C20.623 2190.22 26.4375 2190.18 32.5305 2189.8C32.5305 2183.07 32.5305 2176.98 32.5305 2170.29C26.3648 2170.68 20.6109 2170.38 14.845 2172.5C14.845 2177.89 14.845 2183.11 14.845 2189.52ZM15.7292 2129.08C15.7292 2134.54 15.7292 2139.71 15.7292 2145.38C21.4225 2145.11 26.9583 2144.87 32.8939 2144.59C32.6395 2138.84 33.439 2133.47 32.2398 2127.99C26.7766 2126.97 21.6648 2127.97 15.7292 2129.08ZM50.858 2124.39C50.858 2118.15 50.858 2112.41 50.858 2106.55C45.6493 2104.79 40.7555 2105.36 35.2197 2105.74C35.6315 2112.14 36.0313 2118.21 36.4431 2124.59C41.3611 2124.49 45.8552 2125.61 50.858 2124.39ZM31.4645 2102.29C32.8333 2095.43 31.8643 2089.39 31.2465 2083.21C25.8318 2083.02 21.1076 2082.36 16.2501 2083.65C17.2192 2090.02 15.923 2096.25 17.5462 2102.28C22.2462 2102.29 26.6071 2102.29 31.4645 2102.29ZM50.5067 2167.23C50.5067 2160.9 50.5067 2155 50.5067 2148.99C45.7341 2148.13 41.4459 2147.73 37.0003 2148.07C37.0003 2154.86 37.0003 2161.13 37.0003 2167.47C41.6519 2168.03 45.8189 2168.37 50.5067 2167.23ZM49.8284 2193.6C45.2616 2193.41 41.022 2192.23 37.0124 2193.48C37.0124 2200.36 37.0124 2206.87 37.0124 2213.38C41.5186 2213.38 45.4555 2213.38 49.8284 2213.38C49.8284 2206.62 49.8284 2200.33 49.8284 2193.6ZM32.7606 2217.03C27.0674 2217.96 21.8344 2217.34 16.5529 2219.12C15.9715 2222.66 15.9715 2226.05 16.4803 2229.58C21.4589 2231.05 26.3284 2231.41 31.4039 2230.5C32.688 2226.24 33.1362 2222.1 32.7606 2217.03Z" fill="#098770"/>
<path d="M3.18004 2235.08C1.10865 2229.3 2.28364 2224.18 1.95658 2219.33C0.260704 2193.81 -1.22923 2168.22 1.53262 2142.71C3.53133 2124.22 4.42772 2105.76 3.82205 2087.2C3.74937 2084.82 3.51922 2082.45 3.27695 2078.7C6.93519 2081.96 6.39009 2084.94 6.45065 2087.62C6.88673 2106.77 5.80864 2125.85 4.46406 2144.95C2.47746 2173.04 3.39808 2201.11 5.92977 2229.14C6.11147 2231.25 6.14782 2231.25 3.18004 2235.08Z" fill="#098770"/>
<path d="M61.203 2083.12C64.1829 2134.88 64.6795 2186.16 62.1963 2237.87C58.5865 2236.63 59.386 2233.92 59.4587 2231.58C60.0522 2214.42 60.9728 2197.27 61.2393 2180.11C61.6027 2156.51 60.4641 2132.92 59.6525 2109.34C59.4102 2102.31 59.4708 2095.29 59.5192 2088.27C59.5435 2086.69 58.853 2084.82 61.203 2083.12Z" fill="#098770"/>
<path d="M13.3308 2340.95C26.6192 2340.95 39.9681 2340.95 54.3951 2340.95C54.1165 2393.43 53.2686 2444.86 54.0923 2496.4C39.6653 2494.74 26.2315 2493.27 13.246 2494.59C8.82461 2443.44 14.4816 2391.85 13.3308 2340.95ZM14.845 2450.32C20.623 2451.02 26.4375 2450.98 32.5305 2450.6C32.5305 2443.87 32.5305 2437.78 32.5305 2431.09C26.3648 2431.48 20.6109 2431.18 14.845 2433.3C14.845 2438.69 14.845 2443.91 14.845 2450.32ZM15.7292 2389.88C15.7292 2395.34 15.7292 2400.51 15.7292 2406.18C21.4225 2405.91 26.9583 2405.67 32.8939 2405.39C32.6395 2399.64 33.439 2394.27 32.2398 2388.79C26.7766 2387.77 21.6648 2388.77 15.7292 2389.88ZM50.858 2385.19C50.858 2378.95 50.858 2373.21 50.858 2367.35C45.6493 2365.59 40.7555 2366.16 35.2197 2366.54C35.6315 2372.94 36.0313 2379.01 36.4431 2385.39C41.3611 2385.29 45.8552 2386.41 50.858 2385.19ZM31.4645 2363.09C32.8333 2356.23 31.8643 2350.19 31.2465 2344C25.8318 2343.82 21.1076 2343.16 16.2501 2344.45C17.2192 2350.82 15.923 2357.05 17.5462 2363.08C22.2462 2363.09 26.6071 2363.09 31.4645 2363.09ZM50.5067 2428.03C50.5067 2421.7 50.5067 2415.8 50.5067 2409.79C45.7341 2408.93 41.4459 2408.53 37.0003 2408.87C37.0003 2415.66 37.0003 2421.93 37.0003 2428.27C41.6519 2428.83 45.8189 2429.17 50.5067 2428.03ZM49.8284 2454.4C45.2616 2454.21 41.022 2453.03 37.0124 2454.28C37.0124 2461.16 37.0124 2467.67 37.0124 2474.18C41.5186 2474.18 45.4555 2474.18 49.8284 2474.18C49.8284 2467.42 49.8284 2461.13 49.8284 2454.4ZM32.7606 2477.83C27.0674 2478.76 21.8344 2478.14 16.5529 2479.92C15.9715 2483.46 15.9715 2486.85 16.4803 2490.38C21.4589 2491.85 26.3284 2492.21 31.4039 2491.3C32.688 2487.04 33.1362 2482.9 32.7606 2477.83Z" fill="#098770"/>
<path d="M3.18004 2495.87C1.10865 2490.1 2.28364 2484.98 1.95658 2480.13C0.260704 2454.61 -1.22923 2429.02 1.53262 2403.51C3.53133 2385.02 4.42772 2366.56 3.82205 2348C3.74937 2345.62 3.51922 2343.25 3.27695 2339.5C6.93519 2342.76 6.39009 2345.74 6.45065 2348.42C6.88673 2367.57 5.80864 2386.65 4.46406 2405.75C2.47746 2433.84 3.39808 2461.91 5.92977 2489.94C6.11147 2492.05 6.14782 2492.05 3.18004 2495.87Z" fill="#098770"/>
<path d="M61.203 2343.92C64.1829 2395.68 64.6795 2446.96 62.1963 2498.67C58.5865 2497.43 59.386 2494.71 59.4587 2492.38C60.0522 2475.22 60.9728 2458.07 61.2393 2440.91C61.6027 2417.31 60.4641 2393.72 59.6525 2370.14C59.4102 2363.11 59.4708 2356.09 59.5192 2349.07C59.5435 2347.49 58.853 2345.62 61.203 2343.92Z" fill="#098770"/>
<path d="M13.3308 2210.33C26.6192 2210.33 39.9681 2210.33 54.3951 2210.33C54.1165 2262.82 53.2686 2314.24 54.0923 2365.79C39.6653 2364.13 26.2315 2362.66 13.246 2363.97C8.82461 2312.83 14.4816 2261.23 13.3308 2210.33ZM14.845 2319.71C20.623 2320.41 26.4375 2320.36 32.5305 2319.99C32.5305 2313.26 32.5305 2307.16 32.5305 2300.48C26.3648 2300.87 20.6109 2300.56 14.845 2302.69C14.845 2308.08 14.845 2313.3 14.845 2319.71ZM15.7292 2259.26C15.7292 2264.73 15.7292 2269.9 15.7292 2275.57C21.4225 2275.3 26.9583 2275.06 32.8939 2274.77C32.6395 2269.03 33.439 2263.66 32.2398 2258.17C26.7766 2257.15 21.6648 2258.16 15.7292 2259.26ZM50.858 2254.58C50.858 2248.34 50.858 2242.59 50.858 2236.73C45.6493 2234.97 40.7555 2235.55 35.2197 2235.92C35.6315 2242.32 36.0313 2248.4 36.4431 2254.77C41.3611 2254.68 45.8552 2255.79 50.858 2254.58ZM31.4645 2232.48C32.8333 2225.62 31.8643 2219.58 31.2465 2213.39C25.8318 2213.21 21.1076 2212.55 16.2501 2213.84C17.2192 2220.2 15.923 2226.44 17.5462 2232.47C22.2462 2232.48 26.6071 2232.48 31.4645 2232.48ZM50.5067 2297.42C50.5067 2291.09 50.5067 2285.18 50.5067 2279.18C45.7341 2278.31 41.4459 2277.92 37.0003 2278.26C37.0003 2285.04 37.0003 2291.31 37.0003 2297.66C41.6519 2298.22 45.8189 2298.56 50.5067 2297.42ZM49.8284 2323.79C45.2616 2323.6 41.022 2322.42 37.0124 2323.67C37.0124 2330.55 37.0124 2337.06 37.0124 2343.56C41.5186 2343.56 45.4555 2343.56 49.8284 2343.56C49.8284 2336.81 49.8284 2330.52 49.8284 2323.79ZM32.7606 2347.22C27.0674 2348.15 21.8344 2347.53 16.5529 2349.31C15.9715 2352.85 15.9715 2356.24 16.4803 2359.76C21.4589 2361.24 26.3284 2361.59 31.4039 2360.69C32.688 2356.42 33.1362 2352.29 32.7606 2347.22Z" fill="#098770"/>
<path d="M3.17969 2223.09C1.1083 2228.87 2.28328 2233.98 1.95622 2238.83C0.260348 2264.35 -1.22959 2289.94 1.53226 2315.45C3.53097 2333.94 4.42736 2352.4 3.82169 2370.96C3.74901 2373.34 3.51886 2375.71 3.27659 2379.46C6.93483 2376.2 6.38972 2373.22 6.45029 2370.54C6.88637 2351.4 5.80828 2332.31 4.4637 2313.21C2.4771 2285.13 3.39772 2257.05 5.92942 2229.02C6.11112 2226.91 6.14746 2226.91 3.17969 2223.09Z" fill="#098770"/>
<path d="M61.203 2218.48C64.1829 2270.24 64.6795 2321.52 62.1963 2373.23C58.5865 2372 59.386 2369.28 59.4587 2366.94C60.0522 2349.78 60.9728 2332.63 61.2393 2315.47C61.6027 2291.87 60.4641 2268.28 59.6525 2244.7C59.4102 2237.67 59.4708 2230.65 59.5192 2223.63C59.5435 2222.05 58.853 2220.18 61.203 2218.48Z" fill="#098770"/>
<path d="M13.3308 2471.13C26.6192 2471.13 39.9681 2471.13 54.3951 2471.13C54.1165 2523.62 53.2686 2575.04 54.0923 2626.59C39.6653 2624.92 26.2315 2623.46 13.246 2624.77C8.82461 2573.63 14.4816 2522.03 13.3308 2471.13ZM14.845 2580.51C20.623 2581.21 26.4375 2581.16 32.5305 2580.79C32.5305 2574.06 32.5305 2567.96 32.5305 2561.28C26.3648 2561.67 20.6109 2561.36 14.845 2563.49C14.845 2568.88 14.845 2574.09 14.845 2580.51ZM15.7292 2520.06C15.7292 2525.53 15.7292 2530.7 15.7292 2536.37C21.4225 2536.1 26.9583 2535.85 32.8939 2535.57C32.6395 2529.83 33.439 2524.46 32.2398 2518.97C26.7766 2517.95 21.6648 2518.96 15.7292 2520.06ZM50.858 2515.37C50.858 2509.14 50.858 2503.39 50.858 2497.53C45.6493 2495.77 40.7555 2496.35 35.2197 2496.72C35.6315 2503.12 36.0313 2509.2 36.4431 2515.57C41.3611 2515.48 45.8552 2516.59 50.858 2515.37ZM31.4645 2493.28C32.8333 2486.42 31.8643 2480.38 31.2465 2474.19C25.8318 2474 21.1076 2473.35 16.2501 2474.64C17.2192 2481 15.923 2487.24 17.5462 2493.27C22.2462 2493.28 26.6071 2493.28 31.4645 2493.28ZM50.5067 2558.22C50.5067 2551.89 50.5067 2545.98 50.5067 2539.98C45.7341 2539.11 41.4459 2538.71 37.0003 2539.05C37.0003 2545.84 37.0003 2552.11 37.0003 2558.46C41.6519 2559.02 45.8189 2559.36 50.5067 2558.22ZM49.8284 2584.59C45.2616 2584.4 41.022 2583.21 37.0124 2584.47C37.0124 2591.35 37.0124 2597.86 37.0124 2604.36C41.5186 2604.36 45.4555 2604.36 49.8284 2604.36C49.8284 2597.61 49.8284 2591.32 49.8284 2584.59ZM32.7606 2608.02C27.0674 2608.95 21.8344 2608.33 16.5529 2610.11C15.9715 2613.65 15.9715 2617.04 16.4803 2620.56C21.4589 2622.04 26.3284 2622.39 31.4039 2621.49C32.688 2617.22 33.1362 2613.08 32.7606 2608.02Z" fill="#098770"/>
<path d="M3.17969 2483.89C1.1083 2489.67 2.28328 2494.78 1.95622 2499.63C0.260348 2525.15 -1.22959 2550.74 1.53226 2576.25C3.53097 2594.74 4.42736 2613.2 3.82169 2631.76C3.74901 2634.14 3.51886 2636.51 3.27659 2640.26C6.93483 2637 6.38972 2634.02 6.45029 2631.34C6.88637 2612.19 5.80828 2593.11 4.4637 2574.01C2.4771 2545.93 3.39772 2517.85 5.92942 2489.82C6.11112 2487.71 6.14746 2487.71 3.17969 2483.89Z" fill="#098770"/>
<path d="M61.203 2479.28C64.1829 2531.04 64.6795 2582.32 62.1963 2634.03C58.5865 2632.79 59.386 2630.07 59.4587 2627.74C60.0522 2610.58 60.9728 2593.43 61.2393 2576.27C61.6027 2552.67 60.4641 2529.08 59.6525 2505.5C59.4102 2498.47 59.4708 2491.45 59.5192 2484.43C59.5435 2482.85 58.853 2480.98 61.203 2479.28Z" fill="#098770"/>
<path d="M13.3308 2080.15C26.6192 2080.15 39.9681 2080.15 54.3951 2080.15C54.1165 2132.63 53.2686 2184.06 54.0923 2235.6C39.6653 2233.94 26.2315 2232.47 13.246 2233.79C8.82461 2182.64 14.4816 2131.05 13.3308 2080.15ZM14.845 2189.52C20.623 2190.22 26.4375 2190.18 32.5305 2189.8C32.5305 2183.07 32.5305 2176.98 32.5305 2170.29C26.3648 2170.68 20.6109 2170.38 14.845 2172.5C14.845 2177.89 14.845 2183.11 14.845 2189.52ZM15.7292 2129.08C15.7292 2134.54 15.7292 2139.71 15.7292 2145.38C21.4225 2145.11 26.9583 2144.87 32.8939 2144.59C32.6395 2138.84 33.439 2133.47 32.2398 2127.99C26.7766 2126.97 21.6648 2127.97 15.7292 2129.08ZM50.858 2124.39C50.858 2118.15 50.858 2112.41 50.858 2106.55C45.6493 2104.79 40.7555 2105.36 35.2197 2105.74C35.6315 2112.14 36.0313 2118.21 36.4431 2124.59C41.3611 2124.49 45.8552 2125.61 50.858 2124.39ZM31.4645 2102.29C32.8333 2095.43 31.8643 2089.39 31.2465 2083.21C25.8318 2083.02 21.1076 2082.36 16.2501 2083.65C17.2192 2090.02 15.923 2096.25 17.5462 2102.28C22.2462 2102.29 26.6071 2102.29 31.4645 2102.29ZM50.5067 2167.23C50.5067 2160.9 50.5067 2155 50.5067 2148.99C45.7341 2148.13 41.4459 2147.73 37.0003 2148.07C37.0003 2154.86 37.0003 2161.13 37.0003 2167.47C41.6519 2168.03 45.8189 2168.37 50.5067 2167.23ZM49.8284 2193.6C45.2616 2193.41 41.022 2192.23 37.0124 2193.48C37.0124 2200.36 37.0124 2206.87 37.0124 2213.38C41.5186 2213.38 45.4555 2213.38 49.8284 2213.38C49.8284 2206.62 49.8284 2200.33 49.8284 2193.6ZM32.7606 2217.03C27.0674 2217.96 21.8344 2217.34 16.5529 2219.12C15.9715 2222.66 15.9715 2226.05 16.4803 2229.58C21.4589 2231.05 26.3284 2231.41 31.4039 2230.5C32.688 2226.24 33.1362 2222.1 32.7606 2217.03Z" fill="#098770"/>
<path d="M3.18004 2235.08C1.10865 2229.3 2.28364 2224.18 1.95658 2219.33C0.260704 2193.81 -1.22923 2168.22 1.53262 2142.71C3.53133 2124.22 4.42772 2105.76 3.82205 2087.2C3.74937 2084.82 3.51922 2082.45 3.27695 2078.7C6.93519 2081.96 6.39009 2084.94 6.45065 2087.62C6.88673 2106.77 5.80864 2125.85 4.46406 2144.95C2.47746 2173.04 3.39808 2201.11 5.92977 2229.14C6.11147 2231.25 6.14782 2231.25 3.18004 2235.08Z" fill="#098770"/>
<path d="M61.203 2083.12C64.1829 2134.88 64.6795 2186.16 62.1963 2237.87C58.5865 2236.63 59.386 2233.92 59.4587 2231.58C60.0522 2214.42 60.9728 2197.27 61.2393 2180.11C61.6027 2156.51 60.4641 2132.92 59.6525 2109.34C59.4102 2102.31 59.4708 2095.29 59.5192 2088.27C59.5435 2086.69 58.853 2084.82 61.203 2083.12Z" fill="#098770"/>
<path d="M13.3308 2340.94C26.6192 2340.94 39.9681 2340.94 54.3951 2340.94C54.1165 2393.43 53.2686 2444.86 54.0923 2496.4C39.6653 2494.74 26.2315 2493.27 13.246 2494.59C8.82461 2443.44 14.4816 2391.85 13.3308 2340.94ZM14.845 2450.32C20.623 2451.02 26.4375 2450.98 32.5305 2450.6C32.5305 2443.87 32.5305 2437.78 32.5305 2431.09C26.3648 2431.48 20.6109 2431.18 14.845 2433.3C14.845 2438.69 14.845 2443.91 14.845 2450.32ZM15.7292 2389.88C15.7292 2395.34 15.7292 2400.51 15.7292 2406.18C21.4225 2405.91 26.9583 2405.67 32.8939 2405.39C32.6395 2399.64 33.439 2394.27 32.2398 2388.79C26.7766 2387.77 21.6648 2388.77 15.7292 2389.88ZM50.858 2385.19C50.858 2378.95 50.858 2373.21 50.858 2367.34C45.6493 2365.59 40.7555 2366.16 35.2197 2366.54C35.6315 2372.94 36.0313 2379.01 36.4431 2385.39C41.3611 2385.29 45.8552 2386.41 50.858 2385.19ZM31.4645 2363.09C32.8333 2356.23 31.8643 2350.19 31.2465 2344C25.8318 2343.82 21.1076 2343.16 16.2501 2344.45C17.2192 2350.82 15.923 2357.05 17.5462 2363.08C22.2462 2363.09 26.6071 2363.09 31.4645 2363.09ZM50.5067 2428.03C50.5067 2421.7 50.5067 2415.8 50.5067 2409.79C45.7341 2408.93 41.4459 2408.53 37.0003 2408.87C37.0003 2415.65 37.0003 2421.93 37.0003 2428.27C41.6519 2428.83 45.8189 2429.17 50.5067 2428.03ZM49.8284 2454.4C45.2616 2454.21 41.022 2453.03 37.0124 2454.28C37.0124 2461.16 37.0124 2467.67 37.0124 2474.18C41.5186 2474.18 45.4555 2474.18 49.8284 2474.18C49.8284 2467.42 49.8284 2461.13 49.8284 2454.4ZM32.7606 2477.83C27.0674 2478.76 21.8344 2478.14 16.5529 2479.92C15.9715 2483.46 15.9715 2486.85 16.4803 2490.38C21.4589 2491.85 26.3284 2492.21 31.4039 2491.3C32.688 2487.04 33.1362 2482.9 32.7606 2477.83Z" fill="#098770"/>
<path d="M3.18004 2495.87C1.10865 2490.1 2.28364 2484.98 1.95658 2480.13C0.260704 2454.61 -1.22923 2429.02 1.53262 2403.51C3.53133 2385.02 4.42772 2366.56 3.82205 2348C3.74937 2345.62 3.51922 2343.25 3.27695 2339.5C6.93519 2342.76 6.39009 2345.74 6.45065 2348.42C6.88673 2367.57 5.80864 2386.65 4.46406 2405.75C2.47746 2433.84 3.39808 2461.91 5.92977 2489.94C6.11147 2492.05 6.14782 2492.05 3.18004 2495.87Z" fill="#098770"/>
<path d="M61.203 2343.92C64.1829 2395.68 64.6795 2446.96 62.1963 2498.67C58.5865 2497.43 59.386 2494.71 59.4587 2492.38C60.0522 2475.22 60.9728 2458.07 61.2393 2440.91C61.6027 2417.31 60.4641 2393.72 59.6525 2370.14C59.4102 2363.11 59.4708 2356.09 59.5192 2349.07C59.5435 2347.49 58.853 2345.62 61.203 2343.92Z" fill="#098770"/>
<path d="M13.3308 2210.33C26.6192 2210.33 39.9681 2210.33 54.3951 2210.33C54.1165 2262.82 53.2686 2314.24 54.0923 2365.79C39.6653 2364.13 26.2315 2362.66 13.246 2363.97C8.82461 2312.83 14.4816 2261.23 13.3308 2210.33ZM14.845 2319.71C20.623 2320.41 26.4375 2320.36 32.5305 2319.99C32.5305 2313.26 32.5305 2307.16 32.5305 2300.48C26.3648 2300.87 20.6109 2300.56 14.845 2302.69C14.845 2308.08 14.845 2313.3 14.845 2319.71ZM15.7292 2259.26C15.7292 2264.73 15.7292 2269.9 15.7292 2275.57C21.4225 2275.3 26.9583 2275.06 32.8939 2274.77C32.6395 2269.03 33.439 2263.66 32.2398 2258.17C26.7766 2257.15 21.6648 2258.16 15.7292 2259.26ZM50.858 2254.58C50.858 2248.34 50.858 2242.59 50.858 2236.73C45.6493 2234.97 40.7555 2235.55 35.2197 2235.92C35.6315 2242.32 36.0313 2248.4 36.4431 2254.77C41.3611 2254.68 45.8552 2255.79 50.858 2254.58ZM31.4645 2232.48C32.8333 2225.62 31.8643 2219.58 31.2465 2213.39C25.8318 2213.21 21.1076 2212.55 16.2501 2213.84C17.2192 2220.2 15.923 2226.44 17.5462 2232.47C22.2462 2232.48 26.6071 2232.48 31.4645 2232.48ZM50.5067 2297.42C50.5067 2291.09 50.5067 2285.18 50.5067 2279.18C45.7341 2278.31 41.4459 2277.92 37.0003 2278.26C37.0003 2285.04 37.0003 2291.31 37.0003 2297.66C41.6519 2298.22 45.8189 2298.56 50.5067 2297.42ZM49.8284 2323.79C45.2616 2323.6 41.022 2322.42 37.0124 2323.67C37.0124 2330.55 37.0124 2337.06 37.0124 2343.56C41.5186 2343.56 45.4555 2343.56 49.8284 2343.56C49.8284 2336.81 49.8284 2330.52 49.8284 2323.79ZM32.7606 2347.22C27.0674 2348.15 21.8344 2347.53 16.5529 2349.31C15.9715 2352.85 15.9715 2356.24 16.4803 2359.76C21.4589 2361.24 26.3284 2361.59 31.4039 2360.69C32.688 2356.42 33.1362 2352.29 32.7606 2347.22Z" fill="#098770"/>
<path d="M3.17969 2223.09C1.1083 2228.87 2.28328 2233.98 1.95622 2238.83C0.260348 2264.35 -1.22959 2289.94 1.53226 2315.45C3.53097 2333.94 4.42736 2352.4 3.82169 2370.96C3.74901 2373.34 3.51886 2375.71 3.27659 2379.46C6.93483 2376.2 6.38972 2373.22 6.45029 2370.54C6.88637 2351.4 5.80828 2332.31 4.4637 2313.21C2.4771 2285.13 3.39772 2257.05 5.92942 2229.02C6.11112 2226.91 6.14746 2226.91 3.17969 2223.09Z" fill="#098770"/>
<path d="M61.203 2218.48C64.1829 2270.24 64.6795 2321.52 62.1963 2373.23C58.5865 2372 59.386 2369.28 59.4587 2366.94C60.0522 2349.78 60.9728 2332.63 61.2393 2315.47C61.6027 2291.87 60.4641 2268.28 59.6525 2244.7C59.4102 2237.67 59.4708 2230.65 59.5192 2223.63C59.5435 2222.05 58.853 2220.18 61.203 2218.48Z" fill="#098770"/>
<path d="M13.3308 2471.13C26.6192 2471.13 39.9681 2471.13 54.3951 2471.13C54.1165 2523.62 53.2686 2575.04 54.0923 2626.59C39.6653 2624.92 26.2315 2623.46 13.246 2624.77C8.82461 2573.63 14.4816 2522.03 13.3308 2471.13ZM14.845 2580.51C20.623 2581.21 26.4375 2581.16 32.5305 2580.79C32.5305 2574.06 32.5305 2567.96 32.5305 2561.28C26.3648 2561.67 20.6109 2561.36 14.845 2563.49C14.845 2568.88 14.845 2574.09 14.845 2580.51ZM15.7292 2520.06C15.7292 2525.53 15.7292 2530.7 15.7292 2536.37C21.4225 2536.1 26.9583 2535.85 32.8939 2535.57C32.6395 2529.83 33.439 2524.46 32.2398 2518.97C26.7766 2517.95 21.6648 2518.96 15.7292 2520.06ZM50.858 2515.37C50.858 2509.14 50.858 2503.39 50.858 2497.53C45.6493 2495.77 40.7555 2496.35 35.2197 2496.72C35.6315 2503.12 36.0313 2509.2 36.4431 2515.57C41.3611 2515.48 45.8552 2516.59 50.858 2515.37ZM31.4645 2493.28C32.8333 2486.42 31.8643 2480.38 31.2465 2474.19C25.8318 2474 21.1076 2473.35 16.2501 2474.64C17.2192 2481 15.923 2487.24 17.5462 2493.27C22.2462 2493.28 26.6071 2493.28 31.4645 2493.28ZM50.5067 2558.22C50.5067 2551.89 50.5067 2545.98 50.5067 2539.98C45.7341 2539.11 41.4459 2538.71 37.0003 2539.05C37.0003 2545.84 37.0003 2552.11 37.0003 2558.46C41.6519 2559.02 45.8189 2559.36 50.5067 2558.22ZM49.8284 2584.59C45.2616 2584.4 41.022 2583.21 37.0124 2584.47C37.0124 2591.35 37.0124 2597.86 37.0124 2604.36C41.5186 2604.36 45.4555 2604.36 49.8284 2604.36C49.8284 2597.61 49.8284 2591.32 49.8284 2584.59ZM32.7606 2608.02C27.0674 2608.95 21.8344 2608.33 16.5529 2610.11C15.9715 2613.65 15.9715 2617.04 16.4803 2620.56C21.4589 2622.04 26.3284 2622.39 31.4039 2621.49C32.688 2617.22 33.1362 2613.08 32.7606 2608.02Z" fill="#098770"/>
<path d="M3.17969 2483.89C1.1083 2489.67 2.28328 2494.78 1.95622 2499.63C0.260348 2525.15 -1.22959 2550.74 1.53226 2576.25C3.53097 2594.74 4.42736 2613.2 3.82169 2631.76C3.74901 2634.14 3.51886 2636.51 3.27659 2640.26C6.93483 2637 6.38972 2634.02 6.45029 2631.34C6.88637 2612.19 5.80828 2593.11 4.4637 2574.01C2.4771 2545.93 3.39772 2517.85 5.92942 2489.82C6.11112 2487.71 6.14746 2487.71 3.17969 2483.89Z" fill="#098770"/>
<path d="M61.203 2479.28C64.1829 2531.04 64.6795 2582.32 62.1963 2634.03C58.5865 2632.79 59.386 2630.07 59.4587 2627.74C60.0522 2610.58 60.9728 2593.43 61.2393 2576.27C61.6027 2552.67 60.4641 2529.08 59.6525 2505.5C59.4102 2498.47 59.4708 2491.45 59.5192 2484.43C59.5435 2482.85 58.853 2480.98 61.203 2479.28Z" fill="#098770"/>
<path d="M13.3307 2598.59C26.619 2598.59 39.968 2598.59 54.395 2598.59C54.1164 2651.07 53.2685 2702.5 54.0922 2754.05C39.6651 2752.38 26.2314 2750.92 13.2459 2752.23C8.82448 2701.08 14.4814 2649.49 13.3307 2598.59ZM14.8448 2707.96C20.6229 2708.67 26.4373 2708.62 32.5304 2708.24C32.5304 2701.52 32.5304 2695.42 32.5304 2688.74C26.3647 2689.12 20.6108 2688.82 14.8448 2690.94C14.8448 2696.33 14.8448 2701.55 14.8448 2707.96ZM15.7291 2647.52C15.7291 2652.98 15.7291 2658.15 15.7291 2663.83C21.4224 2663.56 26.9582 2663.31 32.8938 2663.03C32.6394 2657.28 33.4389 2651.92 32.2396 2646.43C26.7765 2645.41 21.6647 2646.42 15.7291 2647.52ZM50.8579 2642.83C50.8579 2636.59 50.8579 2630.85 50.8579 2624.99C45.6492 2623.23 40.7554 2623.8 35.2195 2624.18C35.6314 2630.58 36.0311 2636.65 36.443 2643.03C41.361 2642.94 45.8551 2644.05 50.8579 2642.83ZM31.4644 2620.73C32.8332 2613.88 31.8641 2607.84 31.2464 2601.65C25.8317 2601.46 21.1074 2600.8 16.25 2602.09C17.2191 2608.46 15.9229 2614.7 17.5461 2620.72C22.2461 2620.73 26.6069 2620.73 31.4644 2620.73ZM50.5066 2685.68C50.5066 2679.35 50.5066 2673.44 50.5066 2667.44C45.734 2666.57 41.4458 2666.17 37.0002 2666.51C37.0002 2673.3 37.0002 2679.57 37.0002 2685.91C41.6517 2686.47 45.8187 2686.81 50.5066 2685.68ZM49.8283 2712.04C45.2615 2711.86 41.0218 2710.67 37.0123 2711.93C37.0123 2718.81 37.0123 2725.31 37.0123 2731.82C41.5185 2731.82 45.4553 2731.82 49.8283 2731.82C49.8283 2725.07 49.8283 2718.77 49.8283 2712.04ZM32.7605 2735.48C27.0672 2736.4 21.8342 2735.78 16.5528 2737.56C15.9714 2741.1 15.9714 2744.49 16.4801 2748.02C21.4587 2749.5 26.3283 2749.85 31.4038 2748.95C32.6878 2744.68 33.136 2740.54 32.7605 2735.48Z" fill="#098770"/>
<path d="M3.17992 2753.52C1.10853 2747.74 2.28351 2742.63 1.95645 2737.77C0.260582 2712.25 -1.22935 2686.66 1.5325 2661.15C3.53121 2642.67 4.4276 2624.2 3.82193 2605.65C3.74925 2603.27 3.5191 2600.9 3.27683 2597.15C6.93507 2600.41 6.38996 2603.38 6.45053 2606.07C6.88661 2625.21 5.80852 2644.3 4.46394 2663.39C2.47734 2691.48 3.39795 2719.56 5.92965 2747.59C6.11135 2749.7 6.14769 2749.7 3.17992 2753.52Z" fill="#098770"/>
<path d="M61.2029 2601.57C64.1828 2653.32 64.6794 2704.6 62.1962 2756.31C58.5864 2755.08 59.3859 2752.36 59.4585 2750.03C60.0521 2732.86 60.9727 2715.71 61.2392 2698.55C61.6026 2674.95 60.464 2651.37 59.6524 2627.78C59.4101 2620.76 59.4707 2613.73 59.5191 2606.71C59.5433 2605.13 58.8529 2603.27 61.2029 2601.57Z" fill="#098770"/>
<path d="M13.3307 2727.01C26.619 2727.01 39.968 2727.01 54.395 2727.01C54.1164 2779.5 53.2685 2830.92 54.0922 2882.47C39.6651 2880.81 26.2314 2879.34 13.2459 2880.65C8.82448 2829.51 14.4814 2777.91 13.3307 2727.01ZM14.8448 2836.39C20.6229 2837.09 26.4373 2837.04 32.5304 2836.67C32.5304 2829.94 32.5304 2823.84 32.5304 2817.16C26.3647 2817.55 20.6108 2817.24 14.8448 2819.37C14.8448 2824.76 14.8448 2829.97 14.8448 2836.39ZM15.7291 2775.94C15.7291 2781.41 15.7291 2786.58 15.7291 2792.25C21.4224 2791.98 26.9582 2791.73 32.8938 2791.45C32.6394 2785.71 33.4389 2780.34 32.2396 2774.85C26.7765 2773.83 21.6647 2774.84 15.7291 2775.94ZM50.8579 2771.25C50.8579 2765.02 50.8579 2759.27 50.8579 2753.41C45.6492 2751.65 40.7554 2752.23 35.2195 2752.6C35.6314 2759 36.0311 2765.08 36.443 2771.45C41.361 2771.36 45.8551 2772.47 50.8579 2771.25ZM31.4644 2749.16C32.8332 2742.3 31.8641 2736.26 31.2464 2730.07C25.8317 2729.88 21.1074 2729.23 16.25 2730.52C17.2191 2736.88 15.9229 2743.12 17.5461 2749.15C22.2461 2749.16 26.6069 2749.16 31.4644 2749.16ZM50.5066 2814.1C50.5066 2807.77 50.5066 2801.86 50.5066 2795.86C45.734 2794.99 41.4458 2794.6 37.0002 2794.94C37.0002 2801.72 37.0002 2807.99 37.0002 2814.34C41.6517 2814.9 45.8187 2815.24 50.5066 2814.1ZM49.8283 2840.47C45.2615 2840.28 41.0218 2839.1 37.0123 2840.35C37.0123 2847.23 37.0123 2853.74 37.0123 2860.24C41.5185 2860.24 45.4553 2860.24 49.8283 2860.24C49.8283 2853.49 49.8283 2847.2 49.8283 2840.47ZM32.7605 2863.9C27.0672 2864.83 21.8342 2864.21 16.5528 2865.99C15.9714 2869.53 15.9714 2872.92 16.4801 2876.44C21.4587 2877.92 26.3283 2878.27 31.4038 2877.37C32.6878 2873.1 33.136 2868.97 32.7605 2863.9Z" fill="#098770"/>
<path d="M3.17992 2881.94C1.10853 2876.16 2.28351 2871.05 1.95645 2866.2C0.260582 2840.68 -1.22935 2815.09 1.5325 2789.58C3.53121 2771.09 4.4276 2752.63 3.82193 2734.07C3.74925 2731.69 3.5191 2729.32 3.27683 2725.57C6.93507 2728.83 6.38996 2731.81 6.45053 2734.49C6.88661 2753.64 5.80852 2772.72 4.46394 2791.82C2.47734 2819.9 3.39795 2847.98 5.92965 2876.01C6.11135 2878.12 6.14769 2878.12 3.17992 2881.94Z" fill="#098770"/>
<path d="M61.2029 2729.99C64.1828 2781.75 64.6794 2833.02 62.1962 2884.73C58.5864 2883.5 59.3859 2880.78 59.4585 2878.45C60.0521 2861.29 60.9727 2844.14 61.2392 2826.97C61.6026 2803.38 60.464 2779.79 59.6524 2756.2C59.4101 2749.18 59.4707 2742.16 59.5191 2735.14C59.5433 2733.55 58.8529 2731.69 61.2029 2729.99Z" fill="#098770"/>
</svg>
