<svg width="12" height="801" viewBox="0 0 12 801" fill="none" xmlns="http://www.w3.org/2000/svg">
<path d="M9.46133 0.90039C6.96975 0.90039 4.4668 0.90039 1.76172 0.900391C1.81396 15.4552 1.97295 29.7175 1.8185 44.0122C4.52359 43.5506 7.04243 43.1442 9.47723 43.5083C10.3062 29.3241 9.24556 15.0163 9.46133 0.90039ZM9.17743 31.2324C8.09403 31.4275 7.00382 31.4145 5.86137 31.3105C5.86137 29.4444 5.86137 27.7539 5.86137 25.9008C7.01745 26.0081 8.0963 25.9235 9.17743 26.512C9.17743 28.0074 9.17743 29.4541 9.17743 31.2324ZM9.01162 14.4702C9.01162 15.9851 9.01162 17.4188 9.01162 18.9923C7.94412 18.9176 6.90615 18.8493 5.79323 18.7713C5.84092 17.1783 5.69102 15.6893 5.91588 14.1678C6.94022 13.885 7.8987 14.1646 9.01162 14.4702ZM2.42493 13.1698C2.42493 11.4402 2.42493 9.84721 2.42493 8.2217C3.40158 7.73405 4.31917 7.89335 5.35714 7.99738C5.27992 9.77244 5.20497 11.4565 5.12775 13.225C4.20561 13.199 3.36297 13.5079 2.42493 13.1698ZM6.06124 7.04158C5.80458 5.13973 5.98629 3.46544 6.10212 1.7489C7.11738 1.69689 8.00318 1.51483 8.91396 1.87244C8.73226 3.63775 8.97528 5.3673 8.67093 7.03832C7.78968 7.04158 6.97202 7.04158 6.06124 7.04158ZM2.4908 25.0522C2.4908 23.2967 2.4908 21.6582 2.4908 19.9936C3.38568 19.7531 4.18971 19.6425 5.02327 19.7368C5.02327 21.6192 5.02327 23.3585 5.02327 25.1173C4.1511 25.2733 3.36978 25.3676 2.4908 25.0522ZM2.61799 32.3638C3.47426 32.3118 4.26921 31.9834 5.021 32.3313C5.021 34.2396 5.021 36.044 5.021 37.8483C4.17608 37.8483 3.43792 37.8483 2.61799 37.8483C2.61799 35.9757 2.61799 34.2299 2.61799 32.3638ZM5.81821 38.8626C6.88571 39.1194 7.8669 38.9471 8.85718 39.4413C8.9662 40.4231 8.9662 41.3626 8.8708 42.3412C7.93731 42.7508 7.02426 42.8484 6.0726 42.598C5.83184 41.4146 5.7478 40.267 5.81821 38.8626Z" fill="#F6F5E9"/>
<path d="M11.365 43.8654C11.7534 42.2626 11.5331 40.8452 11.5944 39.4993C11.9124 32.4218 12.1918 25.3248 11.6739 18.2506C11.2991 13.1237 11.1311 8.00336 11.2446 2.85699C11.2583 2.19703 11.3014 1.54033 11.3468 0.5C10.6609 1.40378 10.7631 2.22954 10.7518 2.97402C10.67 8.28295 10.8721 13.5756 11.1243 18.8715C11.4967 26.661 11.3241 34.4472 10.8494 42.2204C10.8154 42.8056 10.8086 42.8056 11.365 43.8654Z" fill="#F6F5E9"/>
<path d="M0.485341 1.72656C-0.0733913 16.0798 -0.166513 30.2998 0.299098 44.6401C0.975938 44.2987 0.826032 43.5445 0.812405 42.8975C0.701112 38.138 0.528497 33.3818 0.478529 28.6223C0.41039 22.078 0.623889 15.5369 0.776064 8.99587C0.82149 7.0485 0.810133 5.10113 0.801048 3.15377C0.796506 2.71488 0.925968 2.19796 0.485341 1.72656Z" fill="#F6F5E9"/>
<path d="M9.46133 73.2256C6.96975 73.2256 4.4668 73.2256 1.76172 73.2256C1.81396 87.7804 1.97295 102.043 1.8185 116.337C4.52359 115.876 7.04243 115.469 9.47723 115.833C10.3062 101.649 9.24556 87.3415 9.46133 73.2256ZM9.17743 103.558C8.09403 103.753 7.00382 103.74 5.86137 103.636C5.86137 101.77 5.86137 100.079 5.86137 98.226C7.01745 98.3332 8.0963 98.2487 9.17743 98.8372C9.17743 100.333 9.17743 101.779 9.17743 103.558ZM9.01162 86.7954C9.01162 88.3103 9.01162 89.744 9.01162 91.3175C7.94412 91.2428 6.90615 91.1745 5.79323 91.0965C5.84092 89.5035 5.69102 88.0145 5.91588 86.493C6.94022 86.2102 7.8987 86.4898 9.01162 86.7954ZM2.42493 85.4949C2.42493 83.7654 2.42493 82.1724 2.42493 80.5469C3.40158 80.0592 4.31917 80.2185 5.35714 80.3226C5.27992 82.0976 5.20497 83.7817 5.12775 85.5502C4.20561 85.5242 3.36297 85.8331 2.42493 85.4949ZM6.06124 79.3668C5.80458 77.4649 5.98629 75.7906 6.10212 74.0741C7.11738 74.0221 8.00318 73.84 8.91396 74.1976C8.73226 75.9629 8.97528 77.6925 8.67093 79.3635C7.78968 79.3668 6.97202 79.3668 6.06124 79.3668ZM2.4908 97.3774C2.4908 95.6219 2.4908 93.9834 2.4908 92.3188C3.38568 92.0783 4.18971 91.9677 5.02327 92.062C5.02327 93.9444 5.02327 95.6837 5.02327 97.4425C4.1511 97.5985 3.36978 97.6928 2.4908 97.3774ZM2.61799 104.689C3.47426 104.637 4.26921 104.309 5.021 104.656C5.021 106.565 5.021 108.369 5.021 110.173C4.17608 110.173 3.43792 110.173 2.61799 110.173C2.61799 108.301 2.61799 106.555 2.61799 104.689ZM5.81821 111.188C6.88571 111.445 7.8669 111.272 8.85718 111.766C8.9662 112.748 8.9662 113.688 8.8708 114.666C7.93731 115.076 7.02426 115.174 6.0726 114.923C5.83184 113.74 5.7478 112.592 5.81821 111.188Z" fill="#F6F5E9"/>
<path d="M11.3651 116.191C11.7535 114.588 11.5331 113.17 11.5945 111.824C11.9125 104.747 12.1918 97.65 11.674 90.5758C11.2992 85.4489 11.1311 80.3286 11.2447 75.1822C11.2583 74.5222 11.3015 73.8655 11.3469 72.8252C10.661 73.729 10.7632 74.5547 10.7518 75.2992C10.6701 80.6081 10.8722 85.9008 11.1243 91.1967C11.4968 98.9862 11.3242 106.772 10.8495 114.546C10.8154 115.131 10.8086 115.131 11.3651 116.191Z" fill="#F6F5E9"/>
<path d="M0.485341 74.0518C-0.0733913 88.405 -0.166513 102.625 0.299098 116.965C0.975938 116.624 0.826032 115.87 0.812405 115.223C0.701112 110.463 0.528497 105.707 0.478529 100.947C0.41039 94.4032 0.623889 87.8621 0.776064 81.3211C0.82149 79.3737 0.810133 77.4263 0.801048 75.479C0.796506 75.0401 0.925968 74.5232 0.485341 74.0518Z" fill="#F6F5E9"/>
<path d="M9.46133 37.0039C6.96975 37.0039 4.4668 37.0039 1.76172 37.0039C1.81396 51.5587 1.97295 65.821 1.8185 80.1157C4.52359 79.6541 7.04243 79.2477 9.47723 79.6118C10.3062 65.4276 9.24556 51.1198 9.46133 37.0039ZM9.17743 67.336C8.09403 67.531 7.00382 67.518 5.86137 67.414C5.86137 65.5479 5.86137 63.8574 5.86137 62.0043C7.01745 62.1116 8.0963 62.027 9.17743 62.6155C9.17743 64.111 9.17743 65.5576 9.17743 67.336ZM9.01162 50.5737C9.01162 52.0887 9.01162 53.5224 9.01162 55.0959C7.94412 55.0211 6.90615 54.9528 5.79323 54.8748C5.84092 53.2818 5.69102 51.7928 5.91588 50.2713C6.94022 49.9885 7.8987 50.2681 9.01162 50.5737ZM2.42493 49.2733C2.42493 47.5437 2.42493 45.9507 2.42493 44.3252C3.40158 43.8376 4.31917 43.9969 5.35714 44.1009C5.27992 45.876 5.20497 47.56 5.12775 49.3285C4.20561 49.3025 3.36297 49.6114 2.42493 49.2733ZM6.06124 43.1451C5.80458 41.2432 5.98629 39.569 6.10212 37.8524C7.11738 37.8004 8.00318 37.6183 8.91396 37.976C8.73226 39.7413 8.97528 41.4708 8.67093 43.1418C7.78968 43.1451 6.97202 43.1451 6.06124 43.1451ZM2.4908 61.1558C2.4908 59.4002 2.4908 57.7617 2.4908 56.0972C3.38568 55.8566 4.18971 55.7461 5.02327 55.8403C5.02327 57.7227 5.02327 59.462 5.02327 61.2208C4.1511 61.3768 3.36978 61.4711 2.4908 61.1558ZM2.61799 68.4673C3.47426 68.4153 4.26921 68.0869 5.021 68.4348C5.021 70.3432 5.021 72.1475 5.021 73.9518C4.17608 73.9518 3.43792 73.9518 2.61799 73.9518C2.61799 72.0792 2.61799 70.3334 2.61799 68.4673ZM5.81821 74.9661C6.88571 75.2229 7.8669 75.0506 8.85718 75.5448C8.9662 76.5266 8.9662 77.4662 8.8708 78.4447C7.93731 78.8543 7.02426 78.9519 6.0726 78.7015C5.83184 77.5182 5.7478 76.3706 5.81821 74.9661Z" fill="#F6F5E9"/>
<path d="M11.3651 40.5418C11.7535 42.1446 11.5331 43.562 11.5945 44.908C11.9125 51.9854 12.1918 59.0824 11.674 66.1566C11.2992 71.2835 11.1311 76.4039 11.2447 81.5502C11.2583 82.2102 11.3015 82.8669 11.3469 83.9072C10.661 83.0034 10.7632 82.1777 10.7518 81.4332C10.6701 76.1243 10.8722 70.8316 11.1243 65.5357C11.4968 57.7462 11.3242 49.9601 10.8495 42.1869C10.8154 41.6017 10.8086 41.6017 11.3651 40.5418Z" fill="#F6F5E9"/>
<path d="M0.485341 39.2646C-0.0733913 53.6179 -0.166513 67.8379 0.299098 82.1782C0.975938 81.8368 0.826032 81.0826 0.812405 80.4356C0.701112 75.6761 0.528497 70.9199 0.478529 66.1604C0.41039 59.6161 0.623889 53.075 0.776064 46.534C0.82149 44.5866 0.810133 42.6392 0.801048 40.6919C0.796506 40.253 0.925968 39.736 0.485341 39.2646Z" fill="#F6F5E9"/>
<path d="M9.46133 109.329C6.96975 109.329 4.4668 109.329 1.76172 109.329C1.81396 123.884 1.97295 138.146 1.8185 152.441C4.52359 151.979 7.04243 151.573 9.47723 151.937C10.3062 137.753 9.24556 123.445 9.46133 109.329ZM9.17743 139.661C8.09403 139.856 7.00382 139.843 5.86137 139.739C5.86137 137.873 5.86137 136.183 5.86137 134.329C7.01745 134.437 8.0963 134.352 9.17743 134.941C9.17743 136.436 9.17743 137.883 9.17743 139.661ZM9.01162 122.899C9.01162 124.414 9.01162 125.848 9.01162 127.421C7.94412 127.346 6.90615 127.278 5.79323 127.2C5.84092 125.607 5.69102 124.118 5.91588 122.597C6.94022 122.314 7.8987 122.593 9.01162 122.899ZM2.42493 121.598C2.42493 119.869 2.42493 118.276 2.42493 116.65C3.40158 116.163 4.31917 116.322 5.35714 116.426C5.27992 118.201 5.20497 119.885 5.12775 121.654C4.20561 121.628 3.36297 121.937 2.42493 121.598ZM6.06124 115.47C5.80458 113.568 5.98629 111.894 6.10212 110.178C7.11738 110.126 8.00318 109.944 8.91396 110.301C8.73226 112.066 8.97528 113.796 8.67093 115.467C7.78968 115.47 6.97202 115.47 6.06124 115.47ZM2.4908 133.481C2.4908 131.725 2.4908 130.087 2.4908 128.422C3.38568 128.182 4.18971 128.071 5.02327 128.166C5.02327 130.048 5.02327 131.787 5.02327 133.546C4.1511 133.702 3.36978 133.796 2.4908 133.481ZM2.61799 140.793C3.47426 140.741 4.26921 140.412 5.021 140.76C5.021 142.668 5.021 144.473 5.021 146.277C4.17608 146.277 3.43792 146.277 2.61799 146.277C2.61799 144.404 2.61799 142.659 2.61799 140.793ZM5.81821 147.291C6.88571 147.548 7.8669 147.376 8.85718 147.87C8.9662 148.852 8.9662 149.791 8.8708 150.77C7.93731 151.18 7.02426 151.277 6.0726 151.027C5.83184 149.843 5.7478 148.696 5.81821 147.291Z" fill="#F6F5E9"/>
<path d="M11.3651 112.866C11.7535 114.469 11.5331 115.886 11.5945 117.232C11.9125 124.31 12.1918 131.407 11.674 138.481C11.2992 143.608 11.1311 148.728 11.2447 153.874C11.2583 154.534 11.3015 155.191 11.3469 156.231C10.661 155.328 10.7632 154.502 10.7518 153.757C10.6701 148.449 10.8722 143.156 11.1243 137.86C11.4968 130.07 11.3242 122.284 10.8495 114.511C10.8154 113.926 10.8086 113.926 11.3651 112.866Z" fill="#F6F5E9"/>
<path d="M0.485341 111.59C-0.0733913 125.943 -0.166513 140.163 0.299098 154.503C0.975938 154.162 0.826032 153.408 0.812405 152.761C0.701112 148.001 0.528497 143.245 0.478529 138.486C0.41039 131.941 0.623889 125.4 0.776064 118.859C0.82149 116.912 0.810133 114.964 0.801048 113.017C0.796506 112.578 0.925968 112.061 0.485341 111.59Z" fill="#F6F5E9"/>
<path d="M9.46133 0.90039C6.96975 0.90039 4.4668 0.90039 1.76172 0.900391C1.81396 15.4552 1.97295 29.7175 1.8185 44.0122C4.52359 43.5506 7.04243 43.1442 9.47723 43.5083C10.3062 29.3241 9.24556 15.0163 9.46133 0.90039ZM9.17743 31.2324C8.09403 31.4275 7.00382 31.4145 5.86137 31.3105C5.86137 29.4444 5.86137 27.7539 5.86137 25.9008C7.01745 26.0081 8.0963 25.9235 9.17743 26.512C9.17743 28.0074 9.17743 29.4541 9.17743 31.2324ZM9.01162 14.4702C9.01162 15.9851 9.01162 17.4188 9.01162 18.9923C7.94412 18.9176 6.90615 18.8493 5.79323 18.7713C5.84092 17.1783 5.69102 15.6893 5.91588 14.1678C6.94022 13.885 7.8987 14.1646 9.01162 14.4702ZM2.42493 13.1698C2.42493 11.4402 2.42493 9.84721 2.42493 8.2217C3.40158 7.73405 4.31917 7.89335 5.35714 7.99738C5.27992 9.77244 5.20497 11.4565 5.12775 13.225C4.20561 13.199 3.36297 13.5079 2.42493 13.1698ZM6.06124 7.04158C5.80458 5.13973 5.98629 3.46544 6.10212 1.7489C7.11738 1.69689 8.00318 1.51483 8.91396 1.87244C8.73226 3.63775 8.97528 5.3673 8.67093 7.03832C7.78968 7.04158 6.97202 7.04158 6.06124 7.04158ZM2.4908 25.0522C2.4908 23.2967 2.4908 21.6582 2.4908 19.9936C3.38568 19.7531 4.18971 19.6425 5.02327 19.7368C5.02327 21.6192 5.02327 23.3585 5.02327 25.1173C4.1511 25.2733 3.36978 25.3676 2.4908 25.0522ZM2.61799 32.3638C3.47426 32.3118 4.26921 31.9834 5.021 32.3313C5.021 34.2396 5.021 36.044 5.021 37.8483C4.17608 37.8483 3.43792 37.8483 2.61799 37.8483C2.61799 35.9757 2.61799 34.2299 2.61799 32.3638ZM5.81821 38.8626C6.88571 39.1194 7.8669 38.9471 8.85718 39.4413C8.9662 40.4231 8.9662 41.3626 8.8708 42.3412C7.93731 42.7508 7.02426 42.8484 6.0726 42.598C5.83184 41.4146 5.7478 40.267 5.81821 38.8626Z" fill="#F6F5E9"/>
<path d="M11.365 43.8654C11.7534 42.2626 11.5331 40.8452 11.5944 39.4993C11.9124 32.4218 12.1918 25.3248 11.6739 18.2506C11.2991 13.1237 11.1311 8.00336 11.2446 2.85699C11.2583 2.19703 11.3014 1.54033 11.3468 0.5C10.6609 1.40378 10.7631 2.22954 10.7518 2.97402C10.67 8.28295 10.8721 13.5756 11.1243 18.8715C11.4967 26.661 11.3241 34.4472 10.8494 42.2204C10.8154 42.8056 10.8086 42.8056 11.365 43.8654Z" fill="#F6F5E9"/>
<path d="M0.485341 1.72656C-0.0733913 16.0798 -0.166513 30.2998 0.299098 44.6401C0.975938 44.2987 0.826032 43.5445 0.812405 42.8975C0.701112 38.138 0.528497 33.3818 0.478529 28.6223C0.41039 22.078 0.623889 15.5369 0.776064 8.99587C0.82149 7.0485 0.810133 5.10113 0.801048 3.15377C0.796506 2.71488 0.925968 2.19796 0.485341 1.72656Z" fill="#F6F5E9"/>
<path d="M9.46133 73.2246C6.96975 73.2246 4.4668 73.2246 1.76172 73.2246C1.81396 87.7794 1.97295 102.042 1.8185 116.336C4.52359 115.875 7.04243 115.468 9.47723 115.833C10.3062 101.648 9.24556 87.3406 9.46133 73.2246ZM9.17743 103.557C8.09403 103.752 7.00382 103.739 5.86137 103.635C5.86137 101.769 5.86137 100.078 5.86137 98.225C7.01745 98.3323 8.0963 98.2477 9.17743 98.8362C9.17743 100.332 9.17743 101.778 9.17743 103.557ZM9.01162 86.7944C9.01162 88.3094 9.01162 89.7431 9.01162 91.3166C7.94412 91.2418 6.90615 91.1735 5.79323 91.0955C5.84092 89.5025 5.69102 88.0135 5.91588 86.492C6.94022 86.2092 7.8987 86.4888 9.01162 86.7944ZM2.42493 85.494C2.42493 83.7644 2.42493 82.1714 2.42493 80.5459C3.40158 80.0583 4.31917 80.2176 5.35714 80.3216C5.27992 82.0967 5.20497 83.7807 5.12775 85.5493C4.20561 85.5232 3.36297 85.8321 2.42493 85.494ZM6.06124 79.3658C5.80458 77.4639 5.98629 75.7897 6.10212 74.0731C7.11738 74.0211 8.00318 73.839 8.91396 74.1967C8.73226 75.962 8.97528 77.6915 8.67093 79.3625C7.78968 79.3658 6.97202 79.3658 6.06124 79.3658ZM2.4908 97.3765C2.4908 95.6209 2.4908 93.9824 2.4908 92.3179C3.38568 92.0773 4.18971 91.9668 5.02327 92.061C5.02327 93.9434 5.02327 95.6827 5.02327 97.4415C4.1511 97.5975 3.36978 97.6918 2.4908 97.3765ZM2.61799 104.688C3.47426 104.636 4.26921 104.308 5.021 104.656C5.021 106.564 5.021 108.368 5.021 110.173C4.17608 110.173 3.43792 110.173 2.61799 110.173C2.61799 108.3 2.61799 106.554 2.61799 104.688ZM5.81821 111.187C6.88571 111.444 7.8669 111.271 8.85718 111.765C8.9662 112.747 8.9662 113.687 8.8708 114.665C7.93731 115.075 7.02426 115.173 6.0726 114.922C5.83184 113.739 5.7478 112.591 5.81821 111.187Z" fill="#F6F5E9"/>
<path d="M11.3651 116.19C11.7535 114.587 11.5331 113.169 11.5945 111.823C11.9125 104.746 12.1918 97.649 11.674 90.5748C11.2992 85.4479 11.1311 80.3276 11.2447 75.1812C11.2583 74.5213 11.3015 73.8645 11.3469 72.8242C10.661 73.728 10.7632 74.5538 10.7518 75.2982C10.6701 80.6072 10.8722 85.8998 11.1243 91.1958C11.4968 98.9852 11.3242 106.771 10.8495 114.545C10.8154 115.13 10.8086 115.13 11.3651 116.19Z" fill="#F6F5E9"/>
<path d="M0.485341 74.0508C-0.0733913 88.4041 -0.166513 102.624 0.299098 116.964C0.975938 116.623 0.826032 115.869 0.812405 115.222C0.701112 110.462 0.528497 105.706 0.478529 100.947C0.41039 94.4022 0.623889 87.8611 0.776064 81.3201C0.82149 79.3727 0.810133 77.4253 0.801048 75.478C0.796506 75.0391 0.925968 74.5222 0.485341 74.0508Z" fill="#F6F5E9"/>
<path d="M9.46133 37.0039C6.96975 37.0039 4.4668 37.0039 1.76172 37.0039C1.81396 51.5587 1.97295 65.821 1.8185 80.1157C4.52359 79.6541 7.04243 79.2477 9.47723 79.6118C10.3062 65.4276 9.24556 51.1198 9.46133 37.0039ZM9.17743 67.336C8.09403 67.531 7.00382 67.518 5.86137 67.414C5.86137 65.5479 5.86137 63.8574 5.86137 62.0043C7.01745 62.1116 8.0963 62.027 9.17743 62.6155C9.17743 64.111 9.17743 65.5576 9.17743 67.336ZM9.01162 50.5737C9.01162 52.0887 9.01162 53.5224 9.01162 55.0959C7.94412 55.0211 6.90615 54.9528 5.79323 54.8748C5.84092 53.2818 5.69102 51.7928 5.91588 50.2713C6.94022 49.9885 7.8987 50.2681 9.01162 50.5737ZM2.42493 49.2733C2.42493 47.5437 2.42493 45.9507 2.42493 44.3252C3.40158 43.8376 4.31917 43.9969 5.35714 44.1009C5.27992 45.876 5.20497 47.56 5.12775 49.3285C4.20561 49.3025 3.36297 49.6114 2.42493 49.2733ZM6.06124 43.1451C5.80458 41.2432 5.98629 39.569 6.10212 37.8524C7.11738 37.8004 8.00318 37.6183 8.91396 37.976C8.73226 39.7413 8.97528 41.4708 8.67093 43.1418C7.78968 43.1451 6.97202 43.1451 6.06124 43.1451ZM2.4908 61.1558C2.4908 59.4002 2.4908 57.7617 2.4908 56.0972C3.38568 55.8566 4.18971 55.7461 5.02327 55.8403C5.02327 57.7227 5.02327 59.462 5.02327 61.2208C4.1511 61.3768 3.36978 61.4711 2.4908 61.1558ZM2.61799 68.4673C3.47426 68.4153 4.26921 68.0869 5.021 68.4348C5.021 70.3432 5.021 72.1475 5.021 73.9518C4.17608 73.9518 3.43792 73.9518 2.61799 73.9518C2.61799 72.0792 2.61799 70.3334 2.61799 68.4673ZM5.81821 74.9661C6.88571 75.2229 7.8669 75.0506 8.85718 75.5448C8.9662 76.5266 8.9662 77.4662 8.8708 78.4447C7.93731 78.8543 7.02426 78.9519 6.0726 78.7015C5.83184 77.5182 5.7478 76.3706 5.81821 74.9661Z" fill="#F6F5E9"/>
<path d="M11.3651 40.5418C11.7535 42.1446 11.5331 43.562 11.5945 44.908C11.9125 51.9854 12.1918 59.0824 11.674 66.1566C11.2992 71.2835 11.1311 76.4039 11.2447 81.5502C11.2583 82.2102 11.3015 82.8669 11.3469 83.9072C10.661 83.0034 10.7632 82.1777 10.7518 81.4332C10.6701 76.1243 10.8722 70.8316 11.1243 65.5357C11.4968 57.7462 11.3242 49.9601 10.8495 42.1869C10.8154 41.6017 10.8086 41.6017 11.3651 40.5418Z" fill="#F6F5E9"/>
<path d="M0.485341 39.2646C-0.0733913 53.6179 -0.166513 67.8379 0.299098 82.1782C0.975938 81.8368 0.826032 81.0826 0.812405 80.4356C0.701112 75.6761 0.528497 70.9199 0.478529 66.1604C0.41039 59.6161 0.623889 53.075 0.776064 46.534C0.82149 44.5866 0.810133 42.6392 0.801048 40.6919C0.796506 40.253 0.925968 39.736 0.485341 39.2646Z" fill="#F6F5E9"/>
<path d="M9.46133 109.329C6.96975 109.329 4.4668 109.329 1.76172 109.329C1.81396 123.884 1.97295 138.146 1.8185 152.441C4.52359 151.979 7.04243 151.573 9.47723 151.937C10.3062 137.753 9.24556 123.445 9.46133 109.329ZM9.17743 139.661C8.09403 139.856 7.00382 139.843 5.86137 139.739C5.86137 137.873 5.86137 136.183 5.86137 134.329C7.01745 134.437 8.0963 134.352 9.17743 134.941C9.17743 136.436 9.17743 137.883 9.17743 139.661ZM9.01162 122.899C9.01162 124.414 9.01162 125.848 9.01162 127.421C7.94412 127.346 6.90615 127.278 5.79323 127.2C5.84092 125.607 5.69102 124.118 5.91588 122.597C6.94022 122.314 7.8987 122.593 9.01162 122.899ZM2.42493 121.598C2.42493 119.869 2.42493 118.276 2.42493 116.65C3.40158 116.163 4.31917 116.322 5.35714 116.426C5.27992 118.201 5.20497 119.885 5.12775 121.654C4.20561 121.628 3.36297 121.937 2.42493 121.598ZM6.06124 115.47C5.80458 113.568 5.98629 111.894 6.10212 110.178C7.11738 110.126 8.00318 109.944 8.91396 110.301C8.73226 112.066 8.97528 113.796 8.67093 115.467C7.78968 115.47 6.97202 115.47 6.06124 115.47ZM2.4908 133.481C2.4908 131.725 2.4908 130.087 2.4908 128.422C3.38568 128.182 4.18971 128.071 5.02327 128.166C5.02327 130.048 5.02327 131.787 5.02327 133.546C4.1511 133.702 3.36978 133.796 2.4908 133.481ZM2.61799 140.793C3.47426 140.741 4.26921 140.412 5.021 140.76C5.021 142.668 5.021 144.473 5.021 146.277C4.17608 146.277 3.43792 146.277 2.61799 146.277C2.61799 144.404 2.61799 142.659 2.61799 140.793ZM5.81821 147.291C6.88571 147.548 7.8669 147.376 8.85718 147.87C8.9662 148.852 8.9662 149.791 8.8708 150.77C7.93731 151.18 7.02426 151.277 6.0726 151.027C5.83184 149.843 5.7478 148.696 5.81821 147.291Z" fill="#F6F5E9"/>
<path d="M11.3651 112.866C11.7535 114.469 11.5331 115.886 11.5945 117.232C11.9125 124.31 12.1918 131.407 11.674 138.481C11.2992 143.608 11.1311 148.728 11.2447 153.874C11.2583 154.534 11.3015 155.191 11.3469 156.231C10.661 155.328 10.7632 154.502 10.7518 153.757C10.6701 148.449 10.8722 143.156 11.1243 137.86C11.4968 130.07 11.3242 122.284 10.8495 114.511C10.8154 113.926 10.8086 113.926 11.3651 112.866Z" fill="#F6F5E9"/>
<path d="M0.485341 111.59C-0.0733913 125.943 -0.166513 140.163 0.299098 154.503C0.975938 154.162 0.826032 153.408 0.812405 152.761C0.701112 148.001 0.528497 143.245 0.478529 138.486C0.41039 131.941 0.623889 125.4 0.776064 118.859C0.82149 116.912 0.810133 114.964 0.801048 113.017C0.796506 112.578 0.925968 112.061 0.485341 111.59Z" fill="#F6F5E9"/>
<path d="M9.46133 144.677C6.96975 144.677 4.4668 144.677 1.76172 144.677C1.81396 159.232 1.97295 173.494 1.8185 187.789C4.52359 187.327 7.04243 186.921 9.47723 187.285C10.3062 173.1 9.24556 158.793 9.46133 144.677ZM9.17743 175.009C8.09403 175.204 7.00382 175.191 5.86137 175.087C5.86137 173.221 5.86137 171.53 5.86137 169.677C7.01745 169.784 8.0963 169.7 9.17743 170.288C9.17743 171.784 9.17743 173.23 9.17743 175.009ZM9.01162 158.247C9.01162 159.762 9.01162 161.195 9.01162 162.769C7.94412 162.694 6.90615 162.626 5.79323 162.548C5.84092 160.955 5.69102 159.466 5.91588 157.944C6.94022 157.661 7.8987 157.941 9.01162 158.247ZM2.42493 156.946C2.42493 155.217 2.42493 153.624 2.42493 151.998C3.40158 151.51 4.31917 151.67 5.35714 151.774C5.27992 153.549 5.20497 155.233 5.12775 157.001C4.20561 156.975 3.36297 157.284 2.42493 156.946ZM6.06124 150.818C5.80458 148.916 5.98629 147.242 6.10212 145.525C7.11738 145.473 8.00318 145.291 8.91396 145.649C8.73226 147.414 8.97528 149.144 8.67093 150.815C7.78968 150.818 6.97202 150.818 6.06124 150.818ZM2.4908 168.829C2.4908 167.073 2.4908 165.435 2.4908 163.77C3.38568 163.529 4.18971 163.419 5.02327 163.513C5.02327 165.396 5.02327 167.135 5.02327 168.894C4.1511 169.05 3.36978 169.144 2.4908 168.829ZM2.61799 176.14C3.47426 176.088 4.26921 175.76 5.021 176.108C5.021 178.016 5.021 179.82 5.021 181.625C4.17608 181.625 3.43792 181.625 2.61799 181.625C2.61799 179.752 2.61799 178.006 2.61799 176.14ZM5.81821 182.639C6.88571 182.896 7.8669 182.723 8.85718 183.218C8.9662 184.199 8.9662 185.139 8.8708 186.118C7.93731 186.527 7.02426 186.625 6.0726 186.374C5.83184 185.191 5.7478 184.043 5.81821 182.639Z" fill="#F6F5E9"/>
<path d="M11.3651 187.642C11.7535 186.039 11.5331 184.622 11.5945 183.276C11.9125 176.198 12.1918 169.101 11.674 162.027C11.2992 156.9 11.1311 151.78 11.2447 146.633C11.2583 145.973 11.3015 145.317 11.3469 144.276C10.661 145.18 10.7632 146.006 10.7518 146.75C10.6701 152.059 10.8722 157.352 11.1243 162.648C11.4968 170.437 11.3242 178.224 10.8495 185.997C10.8154 186.582 10.8086 186.582 11.3651 187.642Z" fill="#F6F5E9"/>
<path d="M0.485341 145.501C-0.0733913 159.854 -0.166513 174.074 0.299098 188.414C0.975938 188.073 0.826032 187.319 0.812405 186.672C0.701112 181.912 0.528497 177.156 0.478529 172.397C0.41039 165.852 0.623889 159.311 0.776064 152.77C0.82149 150.823 0.810133 148.876 0.801048 146.928C0.796506 146.489 0.925968 145.972 0.485341 145.501Z" fill="#F6F5E9"/>
<path d="M9.46133 217.002C6.96975 217.002 4.4668 217.002 1.76172 217.002C1.81396 231.557 1.97295 245.819 1.8185 260.114C4.52359 259.652 7.04243 259.246 9.47723 259.61C10.3062 245.426 9.24556 231.118 9.46133 217.002ZM9.17743 247.334C8.09403 247.529 7.00382 247.516 5.86137 247.412C5.86137 245.546 5.86137 243.855 5.86137 242.002C7.01745 242.11 8.0963 242.025 9.17743 242.614C9.17743 244.109 9.17743 245.556 9.17743 247.334ZM9.01162 230.572C9.01162 232.087 9.01162 233.52 9.01162 235.094C7.94412 235.019 6.90615 234.951 5.79323 234.873C5.84092 233.28 5.69102 231.791 5.91588 230.269C6.94022 229.987 7.8987 230.266 9.01162 230.572ZM2.42493 229.271C2.42493 227.542 2.42493 225.949 2.42493 224.323C3.40158 223.836 4.31917 223.995 5.35714 224.099C5.27992 225.874 5.20497 227.558 5.12775 229.327C4.20561 229.301 3.36297 229.609 2.42493 229.271ZM6.06124 223.143C5.80458 221.241 5.98629 219.567 6.10212 217.85C7.11738 217.798 8.00318 217.616 8.91396 217.974C8.73226 219.739 8.97528 221.469 8.67093 223.14C7.78968 223.143 6.97202 223.143 6.06124 223.143ZM2.4908 241.154C2.4908 239.398 2.4908 237.76 2.4908 236.095C3.38568 235.855 4.18971 235.744 5.02327 235.838C5.02327 237.721 5.02327 239.46 5.02327 241.219C4.1511 241.375 3.36978 241.469 2.4908 241.154ZM2.61799 248.465C3.47426 248.413 4.26921 248.085 5.021 248.433C5.021 250.341 5.021 252.146 5.021 253.95C4.17608 253.95 3.43792 253.95 2.61799 253.95C2.61799 252.077 2.61799 250.331 2.61799 248.465ZM5.81821 254.964C6.88571 255.221 7.8669 255.049 8.85718 255.543C8.9662 256.525 8.9662 257.464 8.8708 258.443C7.93731 258.852 7.02426 258.95 6.0726 258.7C5.83184 257.516 5.7478 256.369 5.81821 254.964Z" fill="#F6F5E9"/>
<path d="M11.3651 259.967C11.7535 258.364 11.5331 256.947 11.5945 255.601C11.9125 248.523 12.1918 241.426 11.674 234.352C11.2992 229.225 11.1311 224.105 11.2447 218.959C11.2583 218.299 11.3015 217.642 11.3469 216.602C10.661 217.505 10.7632 218.331 10.7518 219.076C10.6701 224.385 10.8722 229.677 11.1243 234.973C11.4968 242.763 11.3242 250.549 10.8495 258.322C10.8154 258.907 10.8086 258.907 11.3651 259.967Z" fill="#F6F5E9"/>
<path d="M0.485341 217.828C-0.0733913 232.181 -0.166513 246.401 0.299098 260.742C0.975938 260.4 0.826032 259.646 0.812405 258.999C0.701112 254.24 0.528497 249.483 0.478529 244.724C0.41039 238.18 0.623889 231.638 0.776064 225.097C0.82149 223.15 0.810133 221.203 0.801048 219.255C0.796506 218.816 0.925968 218.3 0.485341 217.828Z" fill="#F6F5E9"/>
<path d="M9.46133 180.78C6.96975 180.78 4.4668 180.78 1.76172 180.78C1.81396 195.335 1.97295 209.597 1.8185 223.892C4.52359 223.43 7.04243 223.024 9.47723 223.388C10.3062 209.204 9.24556 194.896 9.46133 180.78ZM9.17743 211.112C8.09403 211.307 7.00382 211.294 5.86137 211.19C5.86137 209.324 5.86137 207.634 5.86137 205.781C7.01745 205.888 8.0963 205.803 9.17743 206.392C9.17743 207.887 9.17743 209.334 9.17743 211.112ZM9.01162 194.35C9.01162 195.865 9.01162 197.299 9.01162 198.872C7.94412 198.797 6.90615 198.729 5.79323 198.651C5.84092 197.058 5.69102 195.569 5.91588 194.048C6.94022 193.765 7.8987 194.044 9.01162 194.35ZM2.42493 193.05C2.42493 191.32 2.42493 189.727 2.42493 188.102C3.40158 187.614 4.31917 187.773 5.35714 187.877C5.27992 189.652 5.20497 191.336 5.12775 193.105C4.20561 193.079 3.36297 193.388 2.42493 193.05ZM6.06124 186.921C5.80458 185.02 5.98629 183.345 6.10212 181.629C7.11738 181.577 8.00318 181.395 8.91396 181.752C8.73226 183.518 8.97528 185.247 8.67093 186.918C7.78968 186.921 6.97202 186.921 6.06124 186.921ZM2.4908 204.932C2.4908 203.177 2.4908 201.538 2.4908 199.874C3.38568 199.633 4.18971 199.522 5.02327 199.617C5.02327 201.499 5.02327 203.238 5.02327 204.997C4.1511 205.153 3.36978 205.247 2.4908 204.932ZM2.61799 212.244C3.47426 212.192 4.26921 211.863 5.021 212.211C5.021 214.12 5.021 215.924 5.021 217.728C4.17608 217.728 3.43792 217.728 2.61799 217.728C2.61799 215.856 2.61799 214.11 2.61799 212.244ZM5.81821 218.742C6.88571 218.999 7.8669 218.827 8.85718 219.321C8.9662 220.303 8.9662 221.243 8.8708 222.221C7.93731 222.631 7.02426 222.728 6.0726 222.478C5.83184 221.295 5.7478 220.147 5.81821 218.742Z" fill="#F6F5E9"/>
<path d="M11.3651 184.316C11.7535 185.919 11.5331 187.336 11.5945 188.682C11.9125 195.76 12.1918 202.857 11.674 209.931C11.2992 215.058 11.1311 220.178 11.2447 225.325C11.2583 225.985 11.3015 226.641 11.3469 227.682C10.661 226.778 10.7632 225.952 10.7518 225.208C10.6701 219.899 10.8722 214.606 11.1243 209.31C11.4968 201.521 11.3242 193.734 10.8495 185.961C10.8154 185.376 10.8086 185.376 11.3651 184.316Z" fill="#F6F5E9"/>
<path d="M0.485341 183.041C-0.0733913 197.394 -0.166513 211.614 0.299098 225.955C0.975938 225.613 0.826032 224.859 0.812405 224.212C0.701112 219.452 0.528497 214.696 0.478529 209.937C0.41039 203.392 0.623889 196.851 0.776064 190.31C0.82149 188.363 0.810133 186.416 0.801048 184.468C0.796506 184.029 0.925968 183.512 0.485341 183.041Z" fill="#F6F5E9"/>
<path d="M9.46133 253.104C6.96975 253.104 4.4668 253.104 1.76172 253.104C1.81396 267.659 1.97295 281.922 1.8185 296.216C4.52359 295.755 7.04243 295.348 9.47723 295.712C10.3062 281.528 9.24556 267.22 9.46133 253.104ZM9.17743 283.437C8.09403 283.632 7.00382 283.619 5.86137 283.515C5.86137 281.648 5.86137 279.958 5.86137 278.105C7.01745 278.212 8.0963 278.128 9.17743 278.716C9.17743 280.212 9.17743 281.658 9.17743 283.437ZM9.01162 266.674C9.01162 268.189 9.01162 269.623 9.01162 271.196C7.94412 271.122 6.90615 271.053 5.79323 270.975C5.84092 269.382 5.69102 267.893 5.91588 266.372C6.94022 266.089 7.8987 266.369 9.01162 266.674ZM2.42493 265.374C2.42493 263.644 2.42493 262.051 2.42493 260.426C3.40158 259.938 4.31917 260.097 5.35714 260.201C5.27992 261.977 5.20497 263.661 5.12775 265.429C4.20561 265.403 3.36297 265.712 2.42493 265.374ZM6.06124 259.246C5.80458 257.344 5.98629 255.67 6.10212 253.953C7.11738 253.901 8.00318 253.719 8.91396 254.077C8.73226 255.842 8.97528 257.571 8.67093 259.242C7.78968 259.246 6.97202 259.246 6.06124 259.246ZM2.4908 277.256C2.4908 275.501 2.4908 273.862 2.4908 272.198C3.38568 271.957 4.18971 271.847 5.02327 271.941C5.02327 273.823 5.02327 275.563 5.02327 277.321C4.1511 277.477 3.36978 277.572 2.4908 277.256ZM2.61799 284.568C3.47426 284.516 4.26921 284.188 5.021 284.535C5.021 286.444 5.021 288.248 5.021 290.052C4.17608 290.052 3.43792 290.052 2.61799 290.052C2.61799 288.18 2.61799 286.434 2.61799 284.568ZM5.81821 291.067C6.88571 291.324 7.8669 291.151 8.85718 291.645C8.9662 292.627 8.9662 293.567 8.8708 294.545C7.93731 294.955 7.02426 295.052 6.0726 294.802C5.83184 293.619 5.7478 292.471 5.81821 291.067Z" fill="#F6F5E9"/>
<path d="M11.3651 256.642C11.7535 258.245 11.5331 259.663 11.5945 261.009C11.9125 268.086 12.1918 275.183 11.674 282.257C11.2992 287.384 11.1311 292.504 11.2447 297.651C11.2583 298.311 11.3015 298.967 11.3469 300.008C10.661 299.104 10.7632 298.278 10.7518 297.534C10.6701 292.225 10.8722 286.932 11.1243 281.636C11.4968 273.847 11.3242 266.061 10.8495 258.287C10.8154 257.702 10.8086 257.702 11.3651 256.642Z" fill="#F6F5E9"/>
<path d="M0.485341 255.365C-0.0733913 269.719 -0.166513 283.938 0.299098 298.279C0.975938 297.937 0.826032 297.183 0.812405 296.536C0.701112 291.777 0.528497 287.02 0.478529 282.261C0.41039 275.717 0.623889 269.176 0.776064 262.635C0.82149 260.687 0.810133 258.74 0.801048 256.792C0.796506 256.354 0.925968 255.837 0.485341 255.365Z" fill="#F6F5E9"/>
<path d="M9.46133 289.238C6.96975 289.238 4.4668 289.238 1.76172 289.238C1.81396 303.793 1.97295 318.055 1.8185 332.35C4.52359 331.888 7.04243 331.482 9.47723 331.846C10.3062 317.662 9.24556 303.354 9.46133 289.238ZM9.17743 319.57C8.09403 319.765 7.00382 319.752 5.86137 319.648C5.86137 317.782 5.86137 316.092 5.86137 314.239C7.01745 314.346 8.0963 314.261 9.17743 314.85C9.17743 316.345 9.17743 317.792 9.17743 319.57ZM9.01162 302.808C9.01162 304.323 9.01162 305.757 9.01162 307.33C7.94412 307.255 6.90615 307.187 5.79323 307.109C5.84092 305.516 5.69102 304.027 5.91588 302.506C6.94022 302.223 7.8987 302.502 9.01162 302.808ZM2.42493 301.508C2.42493 299.778 2.42493 298.185 2.42493 296.56C3.40158 296.072 4.31917 296.231 5.35714 296.335C5.27992 298.11 5.20497 299.794 5.12775 301.563C4.20561 301.537 3.36297 301.846 2.42493 301.508ZM6.06124 295.379C5.80458 293.478 5.98629 291.803 6.10212 290.087C7.11738 290.035 8.00318 289.853 8.91396 290.21C8.73226 291.976 8.97528 293.705 8.67093 295.376C7.78968 295.379 6.97202 295.379 6.06124 295.379ZM2.4908 313.39C2.4908 311.635 2.4908 309.996 2.4908 308.332C3.38568 308.091 4.18971 307.98 5.02327 308.075C5.02327 309.957 5.02327 311.696 5.02327 313.455C4.1511 313.611 3.36978 313.705 2.4908 313.39ZM2.61799 320.702C3.47426 320.65 4.26921 320.321 5.021 320.669C5.021 322.578 5.021 324.382 5.021 326.186C4.17608 326.186 3.43792 326.186 2.61799 326.186C2.61799 324.314 2.61799 322.568 2.61799 320.702ZM5.81821 327.2C6.88571 327.457 7.8669 327.285 8.85718 327.779C8.9662 328.761 8.9662 329.701 8.8708 330.679C7.93731 331.089 7.02426 331.186 6.0726 330.936C5.83184 329.753 5.7478 328.605 5.81821 327.2Z" fill="#F6F5E9"/>
<path d="M11.3651 332.203C11.7535 330.601 11.5331 329.183 11.5945 327.837C11.9125 320.76 12.1918 313.663 11.674 306.588C11.2992 301.462 11.1311 296.341 11.2447 291.195C11.2583 290.535 11.3015 289.878 11.3469 288.838C10.661 289.742 10.7632 290.567 10.7518 291.312C10.6701 296.621 10.8722 301.914 11.1243 307.209C11.4968 314.999 11.3242 322.785 10.8495 330.558C10.8154 331.143 10.8086 331.143 11.3651 332.203Z" fill="#F6F5E9"/>
<path d="M0.485341 290.064C-0.0733913 304.418 -0.166513 318.638 0.299098 332.978C0.975938 332.637 0.826032 331.882 0.812405 331.235C0.701112 326.476 0.528497 321.72 0.478529 316.96C0.41039 310.416 0.623889 303.875 0.776064 297.334C0.82149 295.386 0.810133 293.439 0.801048 291.492C0.796506 291.053 0.925968 290.536 0.485341 290.064Z" fill="#F6F5E9"/>
<path d="M9.46133 361.565C6.96975 361.565 4.4668 361.565 1.76172 361.565C1.81396 376.12 1.97295 390.382 1.8185 404.677C4.52359 404.216 7.04243 403.809 9.47723 404.173C10.3062 389.989 9.24556 375.681 9.46133 361.565ZM9.17743 391.897C8.09403 392.093 7.00382 392.08 5.86137 391.975C5.86137 390.109 5.86137 388.419 5.86137 386.566C7.01745 386.673 8.0963 386.589 9.17743 387.177C9.17743 388.672 9.17743 390.119 9.17743 391.897ZM9.01162 375.135C9.01162 376.65 9.01162 378.084 9.01162 379.657C7.94412 379.583 6.90615 379.514 5.79323 379.436C5.84092 377.843 5.69102 376.354 5.91588 374.833C6.94022 374.55 7.8987 374.83 9.01162 375.135ZM2.42493 373.835C2.42493 372.105 2.42493 370.512 2.42493 368.887C3.40158 368.399 4.31917 368.558 5.35714 368.662C5.27992 370.437 5.20497 372.122 5.12775 373.89C4.20561 373.864 3.36297 374.173 2.42493 373.835ZM6.06124 367.707C5.80458 365.805 5.98629 364.13 6.10212 362.414C7.11738 362.362 8.00318 362.18 8.91396 362.537C8.73226 364.303 8.97528 366.032 8.67093 367.703C7.78968 367.707 6.97202 367.707 6.06124 367.707ZM2.4908 385.717C2.4908 383.962 2.4908 382.323 2.4908 380.659C3.38568 380.418 4.18971 380.308 5.02327 380.402C5.02327 382.284 5.02327 384.023 5.02327 385.782C4.1511 385.938 3.36978 386.033 2.4908 385.717ZM2.61799 393.029C3.47426 392.977 4.26921 392.648 5.021 392.996C5.021 394.905 5.021 396.709 5.021 398.513C4.17608 398.513 3.43792 398.513 2.61799 398.513C2.61799 396.641 2.61799 394.895 2.61799 393.029ZM5.81821 399.528C6.88571 399.784 7.8669 399.612 8.85718 400.106C8.9662 401.088 8.9662 402.028 8.8708 403.006C7.93731 403.416 7.02426 403.513 6.0726 403.263C5.83184 402.08 5.7478 400.932 5.81821 399.528Z" fill="#F6F5E9"/>
<path d="M11.3651 404.53C11.7535 402.928 11.5331 401.51 11.5945 400.164C11.9125 393.087 12.1918 385.99 11.674 378.916C11.2992 373.789 11.1311 368.668 11.2447 363.522C11.2583 362.862 11.3015 362.205 11.3469 361.165C10.661 362.069 10.7632 362.895 10.7518 363.639C10.6701 368.948 10.8722 374.241 11.1243 379.537C11.4968 387.326 11.3242 395.112 10.8495 402.885C10.8154 403.471 10.8086 403.471 11.3651 404.53Z" fill="#F6F5E9"/>
<path d="M0.485341 362.392C-0.0733913 376.745 -0.166513 390.965 0.299098 405.305C0.975938 404.964 0.826032 404.21 0.812405 403.563C0.701112 398.803 0.528497 394.047 0.478529 389.287C0.41039 382.743 0.623889 376.202 0.776064 369.661C0.82149 367.714 0.810133 365.766 0.801048 363.819C0.796506 363.38 0.925968 362.863 0.485341 362.392Z" fill="#F6F5E9"/>
<path d="M9.46133 325.342C6.96975 325.342 4.4668 325.342 1.76172 325.342C1.81396 339.897 1.97295 354.159 1.8185 368.454C4.52359 367.992 7.04243 367.586 9.47723 367.95C10.3062 353.765 9.24556 339.458 9.46133 325.342ZM9.17743 355.674C8.09403 355.869 7.00382 355.856 5.86137 355.752C5.86137 353.886 5.86137 352.195 5.86137 350.342C7.01745 350.449 8.0963 350.365 9.17743 350.953C9.17743 352.449 9.17743 353.896 9.17743 355.674ZM9.01162 338.912C9.01162 340.427 9.01162 341.86 9.01162 343.434C7.94412 343.359 6.90615 343.291 5.79323 343.213C5.84092 341.62 5.69102 340.131 5.91588 338.609C6.94022 338.326 7.8987 338.606 9.01162 338.912ZM2.42493 337.611C2.42493 335.882 2.42493 334.289 2.42493 332.663C3.40158 332.175 4.31917 332.335 5.35714 332.439C5.27992 334.214 5.20497 335.898 5.12775 337.666C4.20561 337.64 3.36297 337.949 2.42493 337.611ZM6.06124 331.483C5.80458 329.581 5.98629 327.907 6.10212 326.19C7.11738 326.138 8.00318 325.956 8.91396 326.314C8.73226 328.079 8.97528 329.809 8.67093 331.48C7.78968 331.483 6.97202 331.483 6.06124 331.483ZM2.4908 349.494C2.4908 347.738 2.4908 346.1 2.4908 344.435C3.38568 344.194 4.18971 344.084 5.02327 344.178C5.02327 346.061 5.02327 347.8 5.02327 349.559C4.1511 349.715 3.36978 349.809 2.4908 349.494ZM2.61799 356.805C3.47426 356.753 4.26921 356.425 5.021 356.773C5.021 358.681 5.021 360.485 5.021 362.29C4.17608 362.29 3.43792 362.29 2.61799 362.29C2.61799 360.417 2.61799 358.671 2.61799 356.805ZM5.81821 363.304C6.88571 363.561 7.8669 363.389 8.85718 363.883C8.9662 364.864 8.9662 365.804 8.8708 366.783C7.93731 367.192 7.02426 367.29 6.0726 367.039C5.83184 365.856 5.7478 364.708 5.81821 363.304Z" fill="#F6F5E9"/>
<path d="M11.3651 328.88C11.7535 330.482 11.5331 331.9 11.5945 333.246C11.9125 340.323 12.1918 347.42 11.674 354.495C11.2992 359.621 11.1311 364.742 11.2447 369.888C11.2583 370.548 11.3015 371.205 11.3469 372.245C10.661 371.341 10.7632 370.516 10.7518 369.771C10.6701 364.462 10.8722 359.169 11.1243 353.874C11.4968 346.084 11.3242 338.298 10.8495 330.525C10.8154 329.94 10.8086 329.94 11.3651 328.88Z" fill="#F6F5E9"/>
<path d="M0.485341 327.603C-0.0733913 341.956 -0.166513 356.176 0.299098 370.516C0.975938 370.175 0.826032 369.42 0.812405 368.774C0.701112 364.014 0.528497 359.258 0.478529 354.498C0.41039 347.954 0.623889 341.413 0.776064 334.872C0.82149 332.924 0.810133 330.977 0.801048 329.03C0.796506 328.591 0.925968 328.074 0.485341 327.603Z" fill="#F6F5E9"/>
<path d="M9.46133 397.669C6.96975 397.669 4.4668 397.669 1.76172 397.669C1.81396 412.224 1.97295 426.486 1.8185 440.781C4.52359 440.319 7.04243 439.913 9.47723 440.277C10.3062 426.093 9.24556 411.785 9.46133 397.669ZM9.17743 428.001C8.09403 428.196 7.00382 428.183 5.86137 428.079C5.86137 426.213 5.86137 424.522 5.86137 422.669C7.01745 422.777 8.0963 422.692 9.17743 423.281C9.17743 424.776 9.17743 426.223 9.17743 428.001ZM9.01162 411.239C9.01162 412.754 9.01162 414.187 9.01162 415.761C7.94412 415.686 6.90615 415.618 5.79323 415.54C5.84092 413.947 5.69102 412.458 5.91588 410.936C6.94022 410.654 7.8987 410.933 9.01162 411.239ZM2.42493 409.938C2.42493 408.209 2.42493 406.616 2.42493 404.99C3.40158 404.503 4.31917 404.662 5.35714 404.766C5.27992 406.541 5.20497 408.225 5.12775 409.994C4.20561 409.968 3.36297 410.276 2.42493 409.938ZM6.06124 403.81C5.80458 401.908 5.98629 400.234 6.10212 398.517C7.11738 398.465 8.00318 398.283 8.91396 398.641C8.73226 400.406 8.97528 402.136 8.67093 403.807C7.78968 403.81 6.97202 403.81 6.06124 403.81ZM2.4908 421.821C2.4908 420.065 2.4908 418.427 2.4908 416.762C3.38568 416.522 4.18971 416.411 5.02327 416.505C5.02327 418.388 5.02327 420.127 5.02327 421.886C4.1511 422.042 3.36978 422.136 2.4908 421.821ZM2.61799 429.132C3.47426 429.08 4.26921 428.752 5.021 429.1C5.021 431.008 5.021 432.813 5.021 434.617C4.17608 434.617 3.43792 434.617 2.61799 434.617C2.61799 432.744 2.61799 430.998 2.61799 429.132ZM5.81821 435.631C6.88571 435.888 7.8669 435.716 8.85718 436.21C8.9662 437.192 8.9662 438.131 8.8708 439.11C7.93731 439.519 7.02426 439.617 6.0726 439.367C5.83184 438.183 5.7478 437.036 5.81821 435.631Z" fill="#F6F5E9"/>
<path d="M11.3651 401.207C11.7535 402.81 11.5331 404.227 11.5945 405.573C11.9125 412.65 12.1918 419.747 11.674 426.822C11.2992 431.949 11.1311 437.069 11.2447 442.215C11.2583 442.875 11.3015 443.532 11.3469 444.572C10.661 443.668 10.7632 442.843 10.7518 442.098C10.6701 436.789 10.8722 431.497 11.1243 426.201C11.4968 418.411 11.3242 410.625 10.8495 402.852C10.8154 402.267 10.8086 402.267 11.3651 401.207Z" fill="#F6F5E9"/>
<path d="M0.485341 399.929C-0.0733913 414.282 -0.166513 428.502 0.299098 442.842C0.975938 442.501 0.826032 441.747 0.812405 441.1C0.701112 436.34 0.528497 431.584 0.478529 426.824C0.41039 420.28 0.623889 413.739 0.776064 407.198C0.82149 405.251 0.810133 403.303 0.801048 401.356C0.796506 400.917 0.925968 400.4 0.485341 399.929Z" fill="#F6F5E9"/>
<path d="M9.46133 289.238C6.96975 289.238 4.4668 289.238 1.76172 289.238C1.81396 303.793 1.97295 318.055 1.8185 332.35C4.52359 331.888 7.04243 331.482 9.47723 331.846C10.3062 317.662 9.24556 303.354 9.46133 289.238ZM9.17743 319.57C8.09403 319.765 7.00382 319.752 5.86137 319.648C5.86137 317.782 5.86137 316.092 5.86137 314.239C7.01745 314.346 8.0963 314.261 9.17743 314.85C9.17743 316.345 9.17743 317.792 9.17743 319.57ZM9.01162 302.808C9.01162 304.323 9.01162 305.757 9.01162 307.33C7.94412 307.255 6.90615 307.187 5.79323 307.109C5.84092 305.516 5.69102 304.027 5.91588 302.506C6.94022 302.223 7.8987 302.502 9.01162 302.808ZM2.42493 301.508C2.42493 299.778 2.42493 298.185 2.42493 296.56C3.40158 296.072 4.31917 296.231 5.35714 296.335C5.27992 298.11 5.20497 299.794 5.12775 301.563C4.20561 301.537 3.36297 301.846 2.42493 301.508ZM6.06124 295.379C5.80458 293.478 5.98629 291.803 6.10212 290.087C7.11738 290.035 8.00318 289.853 8.91396 290.21C8.73226 291.976 8.97528 293.705 8.67093 295.376C7.78968 295.379 6.97202 295.379 6.06124 295.379ZM2.4908 313.39C2.4908 311.635 2.4908 309.996 2.4908 308.332C3.38568 308.091 4.18971 307.98 5.02327 308.075C5.02327 309.957 5.02327 311.696 5.02327 313.455C4.1511 313.611 3.36978 313.705 2.4908 313.39ZM2.61799 320.702C3.47426 320.65 4.26921 320.321 5.021 320.669C5.021 322.578 5.021 324.382 5.021 326.186C4.17608 326.186 3.43792 326.186 2.61799 326.186C2.61799 324.314 2.61799 322.568 2.61799 320.702ZM5.81821 327.2C6.88571 327.457 7.8669 327.285 8.85718 327.779C8.9662 328.761 8.9662 329.701 8.8708 330.679C7.93731 331.089 7.02426 331.186 6.0726 330.936C5.83184 329.753 5.7478 328.605 5.81821 327.2Z" fill="#F6F5E9"/>
<path d="M11.3651 332.203C11.7535 330.601 11.5331 329.183 11.5945 327.837C11.9125 320.76 12.1918 313.663 11.674 306.588C11.2992 301.462 11.1311 296.341 11.2447 291.195C11.2583 290.535 11.3015 289.878 11.3469 288.838C10.661 289.742 10.7632 290.567 10.7518 291.312C10.6701 296.621 10.8722 301.914 11.1243 307.209C11.4968 314.999 11.3242 322.785 10.8495 330.558C10.8154 331.143 10.8086 331.143 11.3651 332.203Z" fill="#F6F5E9"/>
<path d="M0.485341 290.064C-0.0733913 304.418 -0.166513 318.638 0.299098 332.978C0.975938 332.637 0.826032 331.882 0.812405 331.235C0.701112 326.476 0.528497 321.72 0.478529 316.96C0.41039 310.416 0.623889 303.875 0.776064 297.334C0.82149 295.386 0.810133 293.439 0.801048 291.492C0.796506 291.053 0.925968 290.536 0.485341 290.064Z" fill="#F6F5E9"/>
<path d="M9.46133 361.566C6.96975 361.566 4.4668 361.566 1.76172 361.566C1.81396 376.121 1.97295 390.383 1.8185 404.678C4.52359 404.217 7.04243 403.81 9.47723 404.174C10.3062 389.99 9.24556 375.682 9.46133 361.566ZM9.17743 391.898C8.09403 392.094 7.00382 392.081 5.86137 391.976C5.86137 390.11 5.86137 388.42 5.86137 386.567C7.01745 386.674 8.0963 386.59 9.17743 387.178C9.17743 388.673 9.17743 390.12 9.17743 391.898ZM9.01162 375.136C9.01162 376.651 9.01162 378.085 9.01162 379.658C7.94412 379.584 6.90615 379.515 5.79323 379.437C5.84092 377.844 5.69102 376.355 5.91588 374.834C6.94022 374.551 7.8987 374.831 9.01162 375.136ZM2.42493 373.836C2.42493 372.106 2.42493 370.513 2.42493 368.888C3.40158 368.4 4.31917 368.559 5.35714 368.663C5.27992 370.438 5.20497 372.122 5.12775 373.891C4.20561 373.865 3.36297 374.174 2.42493 373.836ZM6.06124 367.708C5.80458 365.806 5.98629 364.131 6.10212 362.415C7.11738 362.363 8.00318 362.181 8.91396 362.538C8.73226 364.304 8.97528 366.033 8.67093 367.704C7.78968 367.708 6.97202 367.708 6.06124 367.708ZM2.4908 385.718C2.4908 383.963 2.4908 382.324 2.4908 380.66C3.38568 380.419 4.18971 380.309 5.02327 380.403C5.02327 382.285 5.02327 384.024 5.02327 385.783C4.1511 385.939 3.36978 386.034 2.4908 385.718ZM2.61799 393.03C3.47426 392.978 4.26921 392.649 5.021 392.997C5.021 394.906 5.021 396.71 5.021 398.514C4.17608 398.514 3.43792 398.514 2.61799 398.514C2.61799 396.642 2.61799 394.896 2.61799 393.03ZM5.81821 399.529C6.88571 399.785 7.8669 399.613 8.85718 400.107C8.9662 401.089 8.9662 402.029 8.8708 403.007C7.93731 403.417 7.02426 403.514 6.0726 403.264C5.83184 402.081 5.7478 400.933 5.81821 399.529Z" fill="#F6F5E9"/>
<path d="M11.3651 404.531C11.7535 402.929 11.5331 401.511 11.5945 400.165C11.9125 393.088 12.1918 385.991 11.674 378.917C11.2992 373.79 11.1311 368.669 11.2447 363.523C11.2583 362.863 11.3015 362.206 11.3469 361.166C10.661 362.07 10.7632 362.896 10.7518 363.64C10.6701 368.949 10.8722 374.242 11.1243 379.538C11.4968 387.327 11.3242 395.113 10.8495 402.886C10.8154 403.472 10.8086 403.472 11.3651 404.531Z" fill="#F6F5E9"/>
<path d="M0.485341 362.393C-0.0733913 376.746 -0.166513 390.966 0.299098 405.306C0.975938 404.965 0.826032 404.21 0.812405 403.564C0.701112 398.804 0.528497 394.048 0.478529 389.288C0.41039 382.744 0.623889 376.203 0.776064 369.662C0.82149 367.715 0.810133 365.767 0.801048 363.82C0.796506 363.381 0.925968 362.864 0.485341 362.393Z" fill="#F6F5E9"/>
<path d="M9.46133 325.344C6.96975 325.344 4.4668 325.344 1.76172 325.344C1.81396 339.899 1.97295 354.161 1.8185 368.456C4.52359 367.994 7.04243 367.588 9.47723 367.952C10.3062 353.767 9.24556 339.46 9.46133 325.344ZM9.17743 355.676C8.09403 355.871 7.00382 355.858 5.86137 355.754C5.86137 353.888 5.86137 352.197 5.86137 350.344C7.01745 350.451 8.0963 350.367 9.17743 350.955C9.17743 352.451 9.17743 353.897 9.17743 355.676ZM9.01162 338.914C9.01162 340.428 9.01162 341.862 9.01162 343.436C7.94412 343.361 6.90615 343.293 5.79323 343.215C5.84092 341.622 5.69102 340.133 5.91588 338.611C6.94022 338.328 7.8987 338.608 9.01162 338.914ZM2.42493 337.613C2.42493 335.884 2.42493 334.291 2.42493 332.665C3.40158 332.177 4.31917 332.337 5.35714 332.441C5.27992 334.216 5.20497 335.9 5.12775 337.668C4.20561 337.642 3.36297 337.951 2.42493 337.613ZM6.06124 331.485C5.80458 329.583 5.98629 327.909 6.10212 326.192C7.11738 326.14 8.00318 325.958 8.91396 326.316C8.73226 328.081 8.97528 329.811 8.67093 331.482C7.78968 331.485 6.97202 331.485 6.06124 331.485ZM2.4908 349.496C2.4908 347.74 2.4908 346.102 2.4908 344.437C3.38568 344.196 4.18971 344.086 5.02327 344.18C5.02327 346.063 5.02327 347.802 5.02327 349.561C4.1511 349.717 3.36978 349.811 2.4908 349.496ZM2.61799 356.807C3.47426 356.755 4.26921 356.427 5.021 356.775C5.021 358.683 5.021 360.487 5.021 362.292C4.17608 362.292 3.43792 362.292 2.61799 362.292C2.61799 360.419 2.61799 358.673 2.61799 356.807ZM5.81821 363.306C6.88571 363.563 7.8669 363.39 8.85718 363.885C8.9662 364.866 8.9662 365.806 8.8708 366.785C7.93731 367.194 7.02426 367.292 6.0726 367.041C5.83184 365.858 5.7478 364.71 5.81821 363.306Z" fill="#F6F5E9"/>
<path d="M11.3651 328.882C11.7535 330.484 11.5331 331.902 11.5945 333.248C11.9125 340.325 12.1918 347.422 11.674 354.496C11.2992 359.623 11.1311 364.744 11.2447 369.89C11.2583 370.55 11.3015 371.207 11.3469 372.247C10.661 371.343 10.7632 370.518 10.7518 369.773C10.6701 364.464 10.8722 359.171 11.1243 353.876C11.4968 346.086 11.3242 338.3 10.8495 330.527C10.8154 329.942 10.8086 329.941 11.3651 328.882Z" fill="#F6F5E9"/>
<path d="M0.485341 327.604C-0.0733913 341.958 -0.166513 356.178 0.299098 370.518C0.975938 370.177 0.826032 369.422 0.812405 368.775C0.701112 364.016 0.528497 359.26 0.478529 354.5C0.41039 347.956 0.623889 341.415 0.776064 334.874C0.82149 332.926 0.810133 330.979 0.801048 329.032C0.796506 328.593 0.925968 328.076 0.485341 327.604Z" fill="#F6F5E9"/>
<path d="M9.46133 397.67C6.96975 397.67 4.4668 397.67 1.76172 397.67C1.81396 412.225 1.97295 426.487 1.8185 440.782C4.52359 440.32 7.04243 439.914 9.47723 440.278C10.3062 426.094 9.24556 411.786 9.46133 397.67ZM9.17743 428.002C8.09403 428.197 7.00382 428.184 5.86137 428.08C5.86137 426.214 5.86137 424.523 5.86137 422.67C7.01745 422.778 8.0963 422.693 9.17743 423.281C9.17743 424.777 9.17743 426.224 9.17743 428.002ZM9.01162 411.24C9.01162 412.755 9.01162 414.188 9.01162 415.762C7.94412 415.687 6.90615 415.619 5.79323 415.541C5.84092 413.948 5.69102 412.459 5.91588 410.937C6.94022 410.655 7.8987 410.934 9.01162 411.24ZM2.42493 409.939C2.42493 408.21 2.42493 406.617 2.42493 404.991C3.40158 404.504 4.31917 404.663 5.35714 404.767C5.27992 406.542 5.20497 408.226 5.12775 409.995C4.20561 409.969 3.36297 410.277 2.42493 409.939ZM6.06124 403.811C5.80458 401.909 5.98629 400.235 6.10212 398.518C7.11738 398.466 8.00318 398.284 8.91396 398.642C8.73226 400.407 8.97528 402.137 8.67093 403.808C7.78968 403.811 6.97202 403.811 6.06124 403.811ZM2.4908 421.822C2.4908 420.066 2.4908 418.428 2.4908 416.763C3.38568 416.523 4.18971 416.412 5.02327 416.506C5.02327 418.389 5.02327 420.128 5.02327 421.887C4.1511 422.043 3.36978 422.137 2.4908 421.822ZM2.61799 429.133C3.47426 429.081 4.26921 428.753 5.021 429.101C5.021 431.009 5.021 432.813 5.021 434.618C4.17608 434.618 3.43792 434.618 2.61799 434.618C2.61799 432.745 2.61799 430.999 2.61799 429.133ZM5.81821 435.632C6.88571 435.889 7.8669 435.717 8.85718 436.211C8.9662 437.193 8.9662 438.132 8.8708 439.111C7.93731 439.52 7.02426 439.618 6.0726 439.368C5.83184 438.184 5.7478 437.037 5.81821 435.632Z" fill="#F6F5E9"/>
<path d="M11.3651 401.208C11.7535 402.811 11.5331 404.228 11.5945 405.574C11.9125 412.651 12.1918 419.748 11.674 426.823C11.2992 431.95 11.1311 437.07 11.2447 442.216C11.2583 442.876 11.3015 443.533 11.3469 444.573C10.661 443.669 10.7632 442.844 10.7518 442.099C10.6701 436.79 10.8722 431.498 11.1243 426.202C11.4968 418.412 11.3242 410.626 10.8495 402.853C10.8154 402.268 10.8086 402.268 11.3651 401.208Z" fill="#F6F5E9"/>
<path d="M0.485341 399.93C-0.0733913 414.283 -0.166513 428.503 0.299098 442.843C0.975938 442.502 0.826032 441.748 0.812405 441.101C0.701112 436.341 0.528497 431.585 0.478529 426.825C0.41039 420.281 0.623889 413.74 0.776064 407.199C0.82149 405.252 0.810133 403.304 0.801048 401.357C0.796506 400.918 0.925968 400.401 0.485341 399.93Z" fill="#F6F5E9"/>
<path d="M9.46133 433.017C6.96975 433.017 4.4668 433.017 1.76172 433.017C1.81396 447.571 1.97295 461.834 1.8185 476.128C4.52359 475.667 7.04243 475.26 9.47723 475.625C10.3062 461.44 9.24556 447.133 9.46133 433.017ZM9.17743 463.349C8.09403 463.544 7.00382 463.531 5.86137 463.427C5.86137 461.561 5.86137 459.87 5.86137 458.017C7.01745 458.124 8.0963 458.04 9.17743 458.628C9.17743 460.124 9.17743 461.57 9.17743 463.349ZM9.01162 446.586C9.01162 448.101 9.01162 449.535 9.01162 451.109C7.94412 451.034 6.90615 450.966 5.79323 450.887C5.84092 449.294 5.69102 447.806 5.91588 446.284C6.94022 446.001 7.8987 446.281 9.01162 446.586ZM2.42493 445.286C2.42493 443.556 2.42493 441.963 2.42493 440.338C3.40158 439.85 4.31917 440.01 5.35714 440.114C5.27992 441.889 5.20497 443.573 5.12775 445.341C4.20561 445.315 3.36297 445.624 2.42493 445.286ZM6.06124 439.158C5.80458 437.256 5.98629 435.582 6.10212 433.865C7.11738 433.813 8.00318 433.631 8.91396 433.989C8.73226 435.754 8.97528 437.484 8.67093 439.155C7.78968 439.158 6.97202 439.158 6.06124 439.158ZM2.4908 457.168C2.4908 455.413 2.4908 453.774 2.4908 452.11C3.38568 451.869 4.18971 451.759 5.02327 451.853C5.02327 453.735 5.02327 455.475 5.02327 457.233C4.1511 457.39 3.36978 457.484 2.4908 457.168ZM2.61799 464.48C3.47426 464.428 4.26921 464.1 5.021 464.447C5.021 466.356 5.021 468.16 5.021 469.964C4.17608 469.964 3.43792 469.964 2.61799 469.964C2.61799 468.092 2.61799 466.346 2.61799 464.48ZM5.81821 470.979C6.88571 471.236 7.8669 471.063 8.85718 471.557C8.9662 472.539 8.9662 473.479 8.8708 474.457C7.93731 474.867 7.02426 474.965 6.0726 474.714C5.83184 473.531 5.7478 472.383 5.81821 470.979Z" fill="#F6F5E9"/>
<path d="M11.3651 475.982C11.7535 474.379 11.5331 472.961 11.5945 471.615C11.9125 464.538 12.1918 457.441 11.674 450.367C11.2992 445.24 11.1311 440.12 11.2447 434.973C11.2583 434.313 11.3015 433.657 11.3469 432.616C10.661 433.52 10.7632 434.346 10.7518 435.09C10.6701 440.399 10.8722 445.692 11.1243 450.988C11.4968 458.777 11.3242 466.563 10.8495 474.337C10.8154 474.922 10.8086 474.922 11.3651 475.982Z" fill="#F6F5E9"/>
<path d="M0.485341 433.843C-0.0733913 448.196 -0.166513 462.416 0.299098 476.756C0.975938 476.415 0.826032 475.661 0.812405 475.014C0.701112 470.254 0.528497 465.498 0.478529 460.739C0.41039 454.194 0.623889 447.653 0.776064 441.112C0.82149 439.165 0.810133 437.217 0.801048 435.27C0.796506 434.831 0.925968 434.314 0.485341 433.843Z" fill="#F6F5E9"/>
<path d="M9.46133 505.343C6.96975 505.343 4.4668 505.343 1.76172 505.343C1.81396 519.898 1.97295 534.16 1.8185 548.455C4.52359 547.993 7.04243 547.587 9.47723 547.951C10.3062 533.766 9.24556 519.459 9.46133 505.343ZM9.17743 535.675C8.09403 535.87 7.00382 535.857 5.86137 535.753C5.86137 533.887 5.86137 532.196 5.86137 530.343C7.01745 530.45 8.0963 530.366 9.17743 530.954C9.17743 532.45 9.17743 533.897 9.17743 535.675ZM9.01162 518.913C9.01162 520.428 9.01162 521.861 9.01162 523.435C7.94412 523.36 6.90615 523.292 5.79323 523.214C5.84092 521.621 5.69102 520.132 5.91588 518.61C6.94022 518.327 7.8987 518.607 9.01162 518.913ZM2.42493 517.612C2.42493 515.883 2.42493 514.29 2.42493 512.664C3.40158 512.176 4.31917 512.336 5.35714 512.44C5.27992 514.215 5.20497 515.899 5.12775 517.667C4.20561 517.641 3.36297 517.95 2.42493 517.612ZM6.06124 511.484C5.80458 509.582 5.98629 507.908 6.10212 506.191C7.11738 506.139 8.00318 505.957 8.91396 506.315C8.73226 508.08 8.97528 509.81 8.67093 511.481C7.78968 511.484 6.97202 511.484 6.06124 511.484ZM2.4908 529.495C2.4908 527.739 2.4908 526.101 2.4908 524.436C3.38568 524.195 4.18971 524.085 5.02327 524.179C5.02327 526.062 5.02327 527.801 5.02327 529.56C4.1511 529.716 3.36978 529.81 2.4908 529.495ZM2.61799 536.806C3.47426 536.754 4.26921 536.426 5.021 536.774C5.021 538.682 5.021 540.486 5.021 542.291C4.17608 542.291 3.43792 542.291 2.61799 542.291C2.61799 540.418 2.61799 538.672 2.61799 536.806ZM5.81821 543.305C6.88571 543.562 7.8669 543.389 8.85718 543.884C8.9662 544.865 8.9662 545.805 8.8708 546.784C7.93731 547.193 7.02426 547.291 6.0726 547.04C5.83184 545.857 5.7478 544.709 5.81821 543.305Z" fill="#F6F5E9"/>
<path d="M11.3651 548.308C11.7535 546.705 11.5331 545.288 11.5945 543.942C11.9125 536.864 12.1918 529.767 11.674 522.693C11.2992 517.566 11.1311 512.446 11.2447 507.299C11.2583 506.639 11.3015 505.983 11.3469 504.942C10.661 505.846 10.7632 506.672 10.7518 507.416C10.6701 512.725 10.8722 518.018 11.1243 523.314C11.4968 531.103 11.3242 538.89 10.8495 546.663C10.8154 547.248 10.8086 547.248 11.3651 548.308Z" fill="#F6F5E9"/>
<path d="M0.485341 506.169C-0.0733913 520.522 -0.166513 534.742 0.299098 549.082C0.975938 548.741 0.826032 547.987 0.812405 547.34C0.701112 542.58 0.528497 537.824 0.478529 533.065C0.41039 526.52 0.623889 519.979 0.776064 513.438C0.82149 511.491 0.810133 509.544 0.801048 507.596C0.796506 507.157 0.925968 506.64 0.485341 506.169Z" fill="#F6F5E9"/>
<path d="M9.46133 469.12C6.96975 469.12 4.4668 469.12 1.76172 469.12C1.81396 483.675 1.97295 497.937 1.8185 512.232C4.52359 511.77 7.04243 511.364 9.47723 511.728C10.3062 497.544 9.24556 483.236 9.46133 469.12ZM9.17743 499.452C8.09403 499.647 7.00382 499.634 5.86137 499.53C5.86137 497.664 5.86137 495.974 5.86137 494.12C7.01745 494.228 8.0963 494.143 9.17743 494.732C9.17743 496.227 9.17743 497.674 9.17743 499.452ZM9.01162 482.69C9.01162 484.205 9.01162 485.639 9.01162 487.212C7.94412 487.137 6.90615 487.069 5.79323 486.991C5.84092 485.398 5.69102 483.909 5.91588 482.388C6.94022 482.105 7.8987 482.384 9.01162 482.69ZM2.42493 481.389C2.42493 479.66 2.42493 478.067 2.42493 476.441C3.40158 475.954 4.31917 476.113 5.35714 476.217C5.27992 477.992 5.20497 479.676 5.12775 481.445C4.20561 481.419 3.36297 481.728 2.42493 481.389ZM6.06124 475.261C5.80458 473.359 5.98629 471.685 6.10212 469.969C7.11738 469.917 8.00318 469.735 8.91396 470.092C8.73226 471.857 8.97528 473.587 8.67093 475.258C7.78968 475.261 6.97202 475.261 6.06124 475.261ZM2.4908 493.272C2.4908 491.516 2.4908 489.878 2.4908 488.213C3.38568 487.973 4.18971 487.862 5.02327 487.957C5.02327 489.839 5.02327 491.578 5.02327 493.337C4.1511 493.493 3.36978 493.587 2.4908 493.272ZM2.61799 500.584C3.47426 500.532 4.26921 500.203 5.021 500.551C5.021 502.459 5.021 504.264 5.021 506.068C4.17608 506.068 3.43792 506.068 2.61799 506.068C2.61799 504.195 2.61799 502.45 2.61799 500.584ZM5.81821 507.082C6.88571 507.339 7.8669 507.167 8.85718 507.661C8.9662 508.643 8.9662 509.582 8.8708 510.561C7.93731 510.971 7.02426 511.068 6.0726 510.818C5.83184 509.634 5.7478 508.487 5.81821 507.082Z" fill="#F6F5E9"/>
<path d="M11.3651 472.658C11.7535 474.261 11.5331 475.678 11.5945 477.024C11.9125 484.102 12.1918 491.199 11.674 498.273C11.2992 503.4 11.1311 508.52 11.2447 513.666C11.2583 514.326 11.3015 514.983 11.3469 516.023C10.661 515.12 10.7632 514.294 10.7518 513.549C10.6701 508.24 10.8722 502.948 11.1243 497.652C11.4968 489.862 11.3242 482.076 10.8495 474.303C10.8154 473.718 10.8086 473.718 11.3651 472.658Z" fill="#F6F5E9"/>
<path d="M0.485341 471.381C-0.0733913 485.734 -0.166513 499.954 0.299098 514.294C0.975938 513.953 0.826032 513.199 0.812405 512.552C0.701112 507.792 0.528497 503.036 0.478529 498.277C0.41039 491.732 0.623889 485.191 0.776064 478.65C0.82149 476.703 0.810133 474.755 0.801048 472.808C0.796506 472.369 0.925968 471.852 0.485341 471.381Z" fill="#F6F5E9"/>
<path d="M9.46133 541.446C6.96975 541.446 4.4668 541.446 1.76172 541.446C1.81396 556.001 1.97295 570.263 1.8185 584.558C4.52359 584.096 7.04243 583.69 9.47723 584.054C10.3062 569.87 9.24556 555.562 9.46133 541.446ZM9.17743 571.778C8.09403 571.973 7.00382 571.96 5.86137 571.856C5.86137 569.99 5.86137 568.3 5.86137 566.447C7.01745 566.554 8.0963 566.469 9.17743 567.058C9.17743 568.553 9.17743 570 9.17743 571.778ZM9.01162 555.016C9.01162 556.531 9.01162 557.965 9.01162 559.538C7.94412 559.463 6.90615 559.395 5.79323 559.317C5.84092 557.724 5.69102 556.235 5.91588 554.714C6.94022 554.431 7.8987 554.71 9.01162 555.016ZM2.42493 553.716C2.42493 551.986 2.42493 550.393 2.42493 548.768C3.40158 548.28 4.31917 548.439 5.35714 548.543C5.27992 550.318 5.20497 552.002 5.12775 553.771C4.20561 553.745 3.36297 554.054 2.42493 553.716ZM6.06124 547.587C5.80458 545.686 5.98629 544.011 6.10212 542.295C7.11738 542.243 8.00318 542.061 8.91396 542.418C8.73226 544.184 8.97528 545.913 8.67093 547.584C7.78968 547.587 6.97202 547.587 6.06124 547.587ZM2.4908 565.598C2.4908 563.843 2.4908 562.204 2.4908 560.54C3.38568 560.299 4.18971 560.188 5.02327 560.283C5.02327 562.165 5.02327 563.904 5.02327 565.663C4.1511 565.819 3.36978 565.913 2.4908 565.598ZM2.61799 572.91C3.47426 572.858 4.26921 572.529 5.021 572.877C5.021 574.786 5.021 576.59 5.021 578.394C4.17608 578.394 3.43792 578.394 2.61799 578.394C2.61799 576.522 2.61799 574.776 2.61799 572.91ZM5.81821 579.408C6.88571 579.665 7.8669 579.493 8.85718 579.987C8.9662 580.969 8.9662 581.909 8.8708 582.887C7.93731 583.297 7.02426 583.394 6.0726 583.144C5.83184 581.961 5.7478 580.813 5.81821 579.408Z" fill="#F6F5E9"/>
<path d="M11.3651 544.984C11.7535 546.587 11.5331 548.004 11.5945 549.35C11.9125 556.428 12.1918 563.525 11.674 570.599C11.2992 575.726 11.1311 580.846 11.2447 585.993C11.2583 586.653 11.3015 587.309 11.3469 588.35C10.661 587.446 10.7632 586.62 10.7518 585.876C10.6701 580.567 10.8722 575.274 11.1243 569.978C11.4968 562.189 11.3242 554.402 10.8495 546.629C10.8154 546.044 10.8086 546.044 11.3651 544.984Z" fill="#F6F5E9"/>
<path d="M0.485341 543.707C-0.0733913 558.06 -0.166513 572.28 0.299098 586.621C0.975938 586.279 0.826032 585.525 0.812405 584.878C0.701112 580.118 0.528497 575.362 0.478529 570.603C0.41039 564.058 0.623889 557.517 0.776064 550.976C0.82149 549.029 0.810133 547.082 0.801048 545.134C0.796506 544.695 0.925968 544.178 0.485341 543.707Z" fill="#F6F5E9"/>
<path d="M9.46133 577.37C6.96975 577.37 4.4668 577.37 1.76172 577.37C1.81396 591.925 1.97295 606.187 1.8185 620.482C4.52359 620.02 7.04243 619.614 9.47723 619.978C10.3062 605.794 9.24556 591.486 9.46133 577.37ZM9.17743 607.702C8.09403 607.897 7.00382 607.884 5.86137 607.78C5.86137 605.914 5.86137 604.224 5.86137 602.37C7.01745 602.478 8.0963 602.393 9.17743 602.982C9.17743 604.477 9.17743 605.924 9.17743 607.702ZM9.01162 590.94C9.01162 592.455 9.01162 593.889 9.01162 595.462C7.94412 595.387 6.90615 595.319 5.79323 595.241C5.84092 593.648 5.69102 592.159 5.91588 590.638C6.94022 590.355 7.8987 590.634 9.01162 590.94ZM2.42493 589.639C2.42493 587.91 2.42493 586.317 2.42493 584.691C3.40158 584.204 4.31917 584.363 5.35714 584.467C5.27992 586.242 5.20497 587.926 5.12775 589.695C4.20561 589.669 3.36297 589.978 2.42493 589.639ZM6.06124 583.511C5.80458 581.609 5.98629 579.935 6.10212 578.219C7.11738 578.167 8.00318 577.985 8.91396 578.342C8.73226 580.107 8.97528 581.837 8.67093 583.508C7.78968 583.511 6.97202 583.511 6.06124 583.511ZM2.4908 601.522C2.4908 599.766 2.4908 598.128 2.4908 596.463C3.38568 596.223 4.18971 596.112 5.02327 596.207C5.02327 598.089 5.02327 599.828 5.02327 601.587C4.1511 601.743 3.36978 601.837 2.4908 601.522ZM2.61799 608.834C3.47426 608.782 4.26921 608.453 5.021 608.801C5.021 610.709 5.021 612.514 5.021 614.318C4.17608 614.318 3.43792 614.318 2.61799 614.318C2.61799 612.445 2.61799 610.7 2.61799 608.834ZM5.81821 615.332C6.88571 615.589 7.8669 615.417 8.85718 615.911C8.9662 616.893 8.9662 617.832 8.8708 618.811C7.93731 619.221 7.02426 619.318 6.0726 619.068C5.83184 617.884 5.7478 616.737 5.81821 615.332Z" fill="#F6F5E9"/>
<path d="M11.3651 620.335C11.7535 618.732 11.5331 617.315 11.5945 615.969C11.9125 608.892 12.1918 601.795 11.674 594.72C11.2992 589.593 11.1311 584.473 11.2447 579.327C11.2583 578.667 11.3015 578.01 11.3469 576.97C10.661 577.874 10.7632 578.699 10.7518 579.444C10.6701 584.753 10.8722 590.045 11.1243 595.341C11.4968 603.131 11.3242 610.917 10.8495 618.69C10.8154 619.275 10.8086 619.275 11.3651 620.335Z" fill="#F6F5E9"/>
<path d="M0.485341 578.196C-0.0733913 592.55 -0.166513 606.77 0.299098 621.11C0.975938 620.768 0.826032 620.014 0.812405 619.367C0.701112 614.608 0.528497 609.852 0.478529 605.092C0.41039 598.548 0.623889 592.007 0.776064 585.466C0.82149 583.518 0.810133 581.571 0.801048 579.623C0.796506 579.185 0.925968 578.668 0.485341 578.196Z" fill="#F6F5E9"/>
<path d="M9.46133 649.696C6.96975 649.696 4.4668 649.696 1.76172 649.696C1.81396 664.251 1.97295 678.513 1.8185 692.808C4.52359 692.346 7.04243 691.94 9.47723 692.304C10.3062 678.12 9.24556 663.812 9.46133 649.696ZM9.17743 680.028C8.09403 680.223 7.00382 680.21 5.86137 680.106C5.86137 678.24 5.86137 676.55 5.86137 674.697C7.01745 674.804 8.0963 674.719 9.17743 675.308C9.17743 676.803 9.17743 678.25 9.17743 680.028ZM9.01162 663.266C9.01162 664.781 9.01162 666.215 9.01162 667.788C7.94412 667.713 6.90615 667.645 5.79323 667.567C5.84092 665.974 5.69102 664.485 5.91588 662.964C6.94022 662.681 7.8987 662.96 9.01162 663.266ZM2.42493 661.966C2.42493 660.236 2.42493 658.643 2.42493 657.018C3.40158 656.53 4.31917 656.689 5.35714 656.793C5.27992 658.568 5.20497 660.252 5.12775 662.021C4.20561 661.995 3.36297 662.304 2.42493 661.966ZM6.06124 655.837C5.80458 653.936 5.98629 652.261 6.10212 650.545C7.11738 650.493 8.00318 650.311 8.91396 650.668C8.73226 652.434 8.97528 654.163 8.67093 655.834C7.78968 655.837 6.97202 655.837 6.06124 655.837ZM2.4908 673.848C2.4908 672.093 2.4908 670.454 2.4908 668.79C3.38568 668.549 4.18971 668.438 5.02327 668.533C5.02327 670.415 5.02327 672.154 5.02327 673.913C4.1511 674.069 3.36978 674.163 2.4908 673.848ZM2.61799 681.16C3.47426 681.108 4.26921 680.779 5.021 681.127C5.021 683.036 5.021 684.84 5.021 686.644C4.17608 686.644 3.43792 686.644 2.61799 686.644C2.61799 684.772 2.61799 683.026 2.61799 681.16ZM5.81821 687.658C6.88571 687.915 7.8669 687.743 8.85718 688.237C8.9662 689.219 8.9662 690.159 8.8708 691.137C7.93731 691.547 7.02426 691.644 6.0726 691.394C5.83184 690.211 5.7478 689.063 5.81821 687.658Z" fill="#F6F5E9"/>
<path d="M11.3651 692.661C11.7535 691.059 11.5331 689.641 11.5945 688.295C11.9125 681.218 12.1918 674.121 11.674 667.046C11.2992 661.92 11.1311 656.799 11.2447 651.653C11.2583 650.993 11.3015 650.336 11.3469 649.296C10.661 650.2 10.7632 651.025 10.7518 651.77C10.6701 657.079 10.8722 662.372 11.1243 667.667C11.4968 675.457 11.3242 683.243 10.8495 691.016C10.8154 691.601 10.8086 691.601 11.3651 692.661Z" fill="#F6F5E9"/>
<path d="M0.485341 650.522C-0.0733913 664.876 -0.166513 679.096 0.299098 693.436C0.975938 693.095 0.826032 692.34 0.812405 691.693C0.701112 686.934 0.528497 682.178 0.478529 677.418C0.41039 670.874 0.623889 664.333 0.776064 657.792C0.82149 655.844 0.810133 653.897 0.801048 651.95C0.796506 651.511 0.925968 650.994 0.485341 650.522Z" fill="#F6F5E9"/>
<path d="M9.46133 613.474C6.96975 613.474 4.4668 613.474 1.76172 613.474C1.81396 628.028 1.97295 642.291 1.8185 656.585C4.52359 656.124 7.04243 655.717 9.47723 656.082C10.3062 641.897 9.24556 627.59 9.46133 613.474ZM9.17743 643.806C8.09403 644.001 7.00382 643.988 5.86137 643.884C5.86137 642.018 5.86137 640.327 5.86137 638.474C7.01745 638.581 8.0963 638.497 9.17743 639.085C9.17743 640.581 9.17743 642.027 9.17743 643.806ZM9.01162 627.043C9.01162 628.558 9.01162 629.992 9.01162 631.566C7.94412 631.491 6.90615 631.423 5.79323 631.345C5.84092 629.752 5.69102 628.263 5.91588 626.741C6.94022 626.458 7.8987 626.738 9.01162 627.043ZM2.42493 625.743C2.42493 624.013 2.42493 622.42 2.42493 620.795C3.40158 620.307 4.31917 620.467 5.35714 620.571C5.27992 622.346 5.20497 624.03 5.12775 625.798C4.20561 625.772 3.36297 626.081 2.42493 625.743ZM6.06124 619.615C5.80458 617.713 5.98629 616.039 6.10212 614.322C7.11738 614.27 8.00318 614.088 8.91396 614.446C8.73226 616.211 8.97528 617.941 8.67093 619.612C7.78968 619.615 6.97202 619.615 6.06124 619.615ZM2.4908 637.625C2.4908 635.87 2.4908 634.231 2.4908 632.567C3.38568 632.326 4.18971 632.216 5.02327 632.31C5.02327 634.192 5.02327 635.932 5.02327 637.691C4.1511 637.847 3.36978 637.941 2.4908 637.625ZM2.61799 644.937C3.47426 644.885 4.26921 644.557 5.021 644.905C5.021 646.813 5.021 648.617 5.021 650.422C4.17608 650.422 3.43792 650.422 2.61799 650.422C2.61799 648.549 2.61799 646.803 2.61799 644.937ZM5.81821 651.436C6.88571 651.693 7.8669 651.52 8.85718 652.015C8.9662 652.996 8.9662 653.936 8.8708 654.914C7.93731 655.324 7.02426 655.422 6.0726 655.171C5.83184 653.988 5.7478 652.84 5.81821 651.436Z" fill="#F6F5E9"/>
<path d="M11.3651 617.012C11.7535 618.614 11.5331 620.032 11.5945 621.378C11.9125 628.455 12.1918 635.552 11.674 642.626C11.2992 647.753 11.1311 652.874 11.2447 658.02C11.2583 658.68 11.3015 659.337 11.3469 660.377C10.661 659.473 10.7632 658.647 10.7518 657.903C10.6701 652.594 10.8722 647.301 11.1243 642.005C11.4968 634.216 11.3242 626.43 10.8495 618.657C10.8154 618.071 10.8086 618.071 11.3651 617.012Z" fill="#F6F5E9"/>
<path d="M0.485341 615.734C-0.0733913 630.088 -0.166513 644.308 0.299098 658.648C0.975938 658.307 0.826032 657.552 0.812405 656.905C0.701112 652.146 0.528497 647.39 0.478529 642.63C0.41039 636.086 0.623889 629.545 0.776064 623.004C0.82149 621.056 0.810133 619.109 0.801048 617.162C0.796506 616.723 0.925968 616.206 0.485341 615.734Z" fill="#F6F5E9"/>
<path d="M9.46133 685.8C6.96975 685.8 4.4668 685.8 1.76172 685.8C1.81396 700.355 1.97295 714.617 1.8185 728.912C4.52359 728.45 7.04243 728.044 9.47723 728.408C10.3062 714.224 9.24556 699.916 9.46133 685.8ZM9.17743 716.132C8.09403 716.327 7.00382 716.314 5.86137 716.21C5.86137 714.344 5.86137 712.653 5.86137 710.8C7.01745 710.907 8.0963 710.823 9.17743 711.411C9.17743 712.907 9.17743 714.354 9.17743 716.132ZM9.01162 699.37C9.01162 700.885 9.01162 702.318 9.01162 703.892C7.94412 703.817 6.90615 703.749 5.79323 703.671C5.84092 702.078 5.69102 700.589 5.91588 699.067C6.94022 698.784 7.8987 699.064 9.01162 699.37ZM2.42493 698.069C2.42493 696.34 2.42493 694.747 2.42493 693.121C3.40158 692.633 4.31917 692.793 5.35714 692.897C5.27992 694.672 5.20497 696.356 5.12775 698.124C4.20561 698.098 3.36297 698.407 2.42493 698.069ZM6.06124 691.941C5.80458 690.039 5.98629 688.365 6.10212 686.648C7.11738 686.596 8.00318 686.414 8.91396 686.772C8.73226 688.537 8.97528 690.267 8.67093 691.938C7.78968 691.941 6.97202 691.941 6.06124 691.941ZM2.4908 709.952C2.4908 708.196 2.4908 706.558 2.4908 704.893C3.38568 704.652 4.18971 704.542 5.02327 704.636C5.02327 706.519 5.02327 708.258 5.02327 710.017C4.1511 710.173 3.36978 710.267 2.4908 709.952ZM2.61799 717.263C3.47426 717.211 4.26921 716.883 5.021 717.231C5.021 719.139 5.021 720.943 5.021 722.748C4.17608 722.748 3.43792 722.748 2.61799 722.748C2.61799 720.875 2.61799 719.129 2.61799 717.263ZM5.81821 723.762C6.88571 724.019 7.8669 723.847 8.85718 724.341C8.9662 725.322 8.9662 726.262 8.8708 727.241C7.93731 727.65 7.02426 727.748 6.0726 727.497C5.83184 726.314 5.7478 725.166 5.81821 723.762Z" fill="#F6F5E9"/>
<path d="M11.3651 689.338C11.7535 690.94 11.5331 692.358 11.5945 693.704C11.9125 700.781 12.1918 707.878 11.674 714.953C11.2992 720.079 11.1311 725.2 11.2447 730.346C11.2583 731.006 11.3015 731.663 11.3469 732.703C10.661 731.799 10.7632 730.974 10.7518 730.229C10.6701 724.92 10.8722 719.628 11.1243 714.332C11.4968 706.542 11.3242 698.756 10.8495 690.983C10.8154 690.398 10.8086 690.398 11.3651 689.338Z" fill="#F6F5E9"/>
<path d="M0.485341 688.061C-0.0733913 702.414 -0.166513 716.634 0.299098 730.974C0.975938 730.633 0.826032 729.878 0.812405 729.232C0.701112 724.472 0.528497 719.716 0.478529 714.956C0.41039 708.412 0.623889 701.871 0.776064 695.33C0.82149 693.382 0.810133 691.435 0.801048 689.488C0.796506 689.049 0.925968 688.532 0.485341 688.061Z" fill="#F6F5E9"/>
<path d="M9.46133 577.37C6.96975 577.37 4.4668 577.37 1.76172 577.37C1.81396 591.925 1.97295 606.187 1.8185 620.482C4.52359 620.02 7.04243 619.614 9.47723 619.978C10.3062 605.794 9.24556 591.486 9.46133 577.37ZM9.17743 607.702C8.09403 607.897 7.00382 607.884 5.86137 607.78C5.86137 605.914 5.86137 604.224 5.86137 602.37C7.01745 602.478 8.0963 602.393 9.17743 602.982C9.17743 604.477 9.17743 605.924 9.17743 607.702ZM9.01162 590.94C9.01162 592.455 9.01162 593.889 9.01162 595.462C7.94412 595.387 6.90615 595.319 5.79323 595.241C5.84092 593.648 5.69102 592.159 5.91588 590.638C6.94022 590.355 7.8987 590.634 9.01162 590.94ZM2.42493 589.639C2.42493 587.91 2.42493 586.317 2.42493 584.691C3.40158 584.204 4.31917 584.363 5.35714 584.467C5.27992 586.242 5.20497 587.926 5.12775 589.695C4.20561 589.669 3.36297 589.978 2.42493 589.639ZM6.06124 583.511C5.80458 581.609 5.98629 579.935 6.10212 578.219C7.11738 578.167 8.00318 577.985 8.91396 578.342C8.73226 580.107 8.97528 581.837 8.67093 583.508C7.78968 583.511 6.97202 583.511 6.06124 583.511ZM2.4908 601.522C2.4908 599.766 2.4908 598.128 2.4908 596.463C3.38568 596.223 4.18971 596.112 5.02327 596.207C5.02327 598.089 5.02327 599.828 5.02327 601.587C4.1511 601.743 3.36978 601.837 2.4908 601.522ZM2.61799 608.834C3.47426 608.782 4.26921 608.453 5.021 608.801C5.021 610.709 5.021 612.514 5.021 614.318C4.17608 614.318 3.43792 614.318 2.61799 614.318C2.61799 612.445 2.61799 610.7 2.61799 608.834ZM5.81821 615.332C6.88571 615.589 7.8669 615.417 8.85718 615.911C8.9662 616.893 8.9662 617.832 8.8708 618.811C7.93731 619.221 7.02426 619.318 6.0726 619.068C5.83184 617.884 5.7478 616.737 5.81821 615.332Z" fill="#F6F5E9"/>
<path d="M11.3651 620.335C11.7535 618.732 11.5331 617.315 11.5945 615.969C11.9125 608.892 12.1918 601.795 11.674 594.72C11.2992 589.593 11.1311 584.473 11.2447 579.327C11.2583 578.667 11.3015 578.01 11.3469 576.97C10.661 577.874 10.7632 578.699 10.7518 579.444C10.6701 584.753 10.8722 590.045 11.1243 595.341C11.4968 603.131 11.3242 610.917 10.8495 618.69C10.8154 619.275 10.8086 619.275 11.3651 620.335Z" fill="#F6F5E9"/>
<path d="M0.485341 578.196C-0.0733913 592.55 -0.166513 606.77 0.299098 621.11C0.975938 620.768 0.826032 620.014 0.812405 619.367C0.701112 614.608 0.528497 609.852 0.478529 605.092C0.41039 598.548 0.623889 592.007 0.776064 585.466C0.82149 583.518 0.810133 581.571 0.801048 579.623C0.796506 579.185 0.925968 578.668 0.485341 578.196Z" fill="#F6F5E9"/>
<path d="M9.46133 649.696C6.96975 649.696 4.4668 649.696 1.76172 649.696C1.81396 664.251 1.97295 678.513 1.8185 692.808C4.52359 692.346 7.04243 691.94 9.47723 692.304C10.3062 678.12 9.24556 663.812 9.46133 649.696ZM9.17743 680.028C8.09403 680.223 7.00382 680.21 5.86137 680.106C5.86137 678.24 5.86137 676.55 5.86137 674.697C7.01745 674.804 8.0963 674.719 9.17743 675.308C9.17743 676.803 9.17743 678.25 9.17743 680.028ZM9.01162 663.266C9.01162 664.781 9.01162 666.215 9.01162 667.788C7.94412 667.713 6.90615 667.645 5.79323 667.567C5.84092 665.974 5.69102 664.485 5.91588 662.964C6.94022 662.681 7.8987 662.96 9.01162 663.266ZM2.42493 661.966C2.42493 660.236 2.42493 658.643 2.42493 657.018C3.40158 656.53 4.31917 656.689 5.35714 656.793C5.27992 658.568 5.20497 660.252 5.12775 662.021C4.20561 661.995 3.36297 662.304 2.42493 661.966ZM6.06124 655.837C5.80458 653.936 5.98629 652.261 6.10212 650.545C7.11738 650.493 8.00318 650.311 8.91396 650.668C8.73226 652.434 8.97528 654.163 8.67093 655.834C7.78968 655.837 6.97202 655.837 6.06124 655.837ZM2.4908 673.848C2.4908 672.093 2.4908 670.454 2.4908 668.79C3.38568 668.549 4.18971 668.438 5.02327 668.533C5.02327 670.415 5.02327 672.154 5.02327 673.913C4.1511 674.069 3.36978 674.163 2.4908 673.848ZM2.61799 681.16C3.47426 681.108 4.26921 680.779 5.021 681.127C5.021 683.036 5.021 684.84 5.021 686.644C4.17608 686.644 3.43792 686.644 2.61799 686.644C2.61799 684.772 2.61799 683.026 2.61799 681.16ZM5.81821 687.658C6.88571 687.915 7.8669 687.743 8.85718 688.237C8.9662 689.219 8.9662 690.159 8.8708 691.137C7.93731 691.547 7.02426 691.644 6.0726 691.394C5.83184 690.211 5.7478 689.063 5.81821 687.658Z" fill="#F6F5E9"/>
<path d="M11.3651 692.661C11.7535 691.059 11.5331 689.641 11.5945 688.295C11.9125 681.218 12.1918 674.121 11.674 667.046C11.2992 661.92 11.1311 656.799 11.2447 651.653C11.2583 650.993 11.3015 650.336 11.3469 649.296C10.661 650.2 10.7632 651.025 10.7518 651.77C10.6701 657.079 10.8722 662.372 11.1243 667.667C11.4968 675.457 11.3242 683.243 10.8495 691.016C10.8154 691.601 10.8086 691.601 11.3651 692.661Z" fill="#F6F5E9"/>
<path d="M0.485341 650.522C-0.0733913 664.876 -0.166513 679.096 0.299098 693.436C0.975938 693.095 0.826032 692.34 0.812405 691.693C0.701112 686.934 0.528497 682.178 0.478529 677.418C0.41039 670.874 0.623889 664.333 0.776064 657.792C0.82149 655.844 0.810133 653.897 0.801048 651.95C0.796506 651.511 0.925968 650.994 0.485341 650.522Z" fill="#F6F5E9"/>
<path d="M9.46133 613.475C6.96975 613.475 4.4668 613.475 1.76172 613.475C1.81396 628.029 1.97295 642.292 1.8185 656.586C4.52359 656.125 7.04243 655.718 9.47723 656.083C10.3062 641.898 9.24556 627.591 9.46133 613.475ZM9.17743 643.807C8.09403 644.002 7.00382 643.989 5.86137 643.885C5.86137 642.019 5.86137 640.328 5.86137 638.475C7.01745 638.582 8.0963 638.498 9.17743 639.086C9.17743 640.582 9.17743 642.028 9.17743 643.807ZM9.01162 627.044C9.01162 628.559 9.01162 629.993 9.01162 631.567C7.94412 631.492 6.90615 631.424 5.79323 631.345C5.84092 629.752 5.69102 628.264 5.91588 626.742C6.94022 626.459 7.8987 626.739 9.01162 627.044ZM2.42493 625.744C2.42493 624.014 2.42493 622.421 2.42493 620.796C3.40158 620.308 4.31917 620.468 5.35714 620.572C5.27992 622.347 5.20497 624.031 5.12775 625.799C4.20561 625.773 3.36297 626.082 2.42493 625.744ZM6.06124 619.616C5.80458 617.714 5.98629 616.04 6.10212 614.323C7.11738 614.271 8.00318 614.089 8.91396 614.447C8.73226 616.212 8.97528 617.942 8.67093 619.613C7.78968 619.616 6.97202 619.616 6.06124 619.616ZM2.4908 637.626C2.4908 635.871 2.4908 634.232 2.4908 632.568C3.38568 632.327 4.18971 632.217 5.02327 632.311C5.02327 634.193 5.02327 635.933 5.02327 637.691C4.1511 637.848 3.36978 637.942 2.4908 637.626ZM2.61799 644.938C3.47426 644.886 4.26921 644.558 5.021 644.906C5.021 646.814 5.021 648.618 5.021 650.423C4.17608 650.423 3.43792 650.423 2.61799 650.423C2.61799 648.55 2.61799 646.804 2.61799 644.938ZM5.81821 651.437C6.88571 651.694 7.8669 651.521 8.85718 652.015C8.9662 652.997 8.9662 653.937 8.8708 654.915C7.93731 655.325 7.02426 655.423 6.0726 655.172C5.83184 653.989 5.7478 652.841 5.81821 651.437Z" fill="#F6F5E9"/>
<path d="M11.3651 617.013C11.7535 618.615 11.5331 620.033 11.5945 621.379C11.9125 628.456 12.1918 635.553 11.674 642.627C11.2992 647.754 11.1311 652.875 11.2447 658.021C11.2583 658.681 11.3015 659.338 11.3469 660.378C10.661 659.474 10.7632 658.648 10.7518 657.904C10.6701 652.595 10.8722 647.302 11.1243 642.006C11.4968 634.217 11.3242 626.431 10.8495 618.658C10.8154 618.072 10.8086 618.072 11.3651 617.013Z" fill="#F6F5E9"/>
<path d="M0.485341 615.735C-0.0733913 630.089 -0.166513 644.309 0.299098 658.649C0.975938 658.308 0.826032 657.553 0.812405 656.906C0.701112 652.147 0.528497 647.391 0.478529 642.631C0.41039 636.087 0.623889 629.546 0.776064 623.005C0.82149 621.057 0.810133 619.11 0.801048 617.163C0.796506 616.724 0.925968 616.207 0.485341 615.735Z" fill="#F6F5E9"/>
<path d="M9.46133 685.8C6.96975 685.8 4.4668 685.8 1.76172 685.8C1.81396 700.355 1.97295 714.617 1.8185 728.912C4.52359 728.45 7.04243 728.044 9.47723 728.408C10.3062 714.224 9.24556 699.916 9.46133 685.8ZM9.17743 716.132C8.09403 716.327 7.00382 716.314 5.86137 716.21C5.86137 714.344 5.86137 712.653 5.86137 710.8C7.01745 710.907 8.0963 710.823 9.17743 711.411C9.17743 712.907 9.17743 714.354 9.17743 716.132ZM9.01162 699.37C9.01162 700.885 9.01162 702.318 9.01162 703.892C7.94412 703.817 6.90615 703.749 5.79323 703.671C5.84092 702.078 5.69102 700.589 5.91588 699.067C6.94022 698.784 7.8987 699.064 9.01162 699.37ZM2.42493 698.069C2.42493 696.34 2.42493 694.747 2.42493 693.121C3.40158 692.633 4.31917 692.793 5.35714 692.897C5.27992 694.672 5.20497 696.356 5.12775 698.124C4.20561 698.098 3.36297 698.407 2.42493 698.069ZM6.06124 691.941C5.80458 690.039 5.98629 688.365 6.10212 686.648C7.11738 686.596 8.00318 686.414 8.91396 686.772C8.73226 688.537 8.97528 690.267 8.67093 691.938C7.78968 691.941 6.97202 691.941 6.06124 691.941ZM2.4908 709.952C2.4908 708.196 2.4908 706.558 2.4908 704.893C3.38568 704.652 4.18971 704.542 5.02327 704.636C5.02327 706.519 5.02327 708.258 5.02327 710.017C4.1511 710.173 3.36978 710.267 2.4908 709.952ZM2.61799 717.263C3.47426 717.211 4.26921 716.883 5.021 717.231C5.021 719.139 5.021 720.943 5.021 722.748C4.17608 722.748 3.43792 722.748 2.61799 722.748C2.61799 720.875 2.61799 719.129 2.61799 717.263ZM5.81821 723.762C6.88571 724.019 7.8669 723.847 8.85718 724.341C8.9662 725.322 8.9662 726.262 8.8708 727.241C7.93731 727.65 7.02426 727.748 6.0726 727.497C5.83184 726.314 5.7478 725.166 5.81821 723.762Z" fill="#F6F5E9"/>
<path d="M11.3651 689.338C11.7535 690.94 11.5331 692.358 11.5945 693.704C11.9125 700.781 12.1918 707.878 11.674 714.953C11.2992 720.079 11.1311 725.2 11.2447 730.346C11.2583 731.006 11.3015 731.663 11.3469 732.703C10.661 731.799 10.7632 730.974 10.7518 730.229C10.6701 724.92 10.8722 719.628 11.1243 714.332C11.4968 706.542 11.3242 698.756 10.8495 690.983C10.8154 690.398 10.8086 690.398 11.3651 689.338Z" fill="#F6F5E9"/>
<path d="M0.485341 688.061C-0.0733913 702.414 -0.166513 716.634 0.299098 730.974C0.975938 730.633 0.826032 729.878 0.812405 729.232C0.701112 724.472 0.528497 719.716 0.478529 714.956C0.41039 708.412 0.623889 701.871 0.776064 695.33C0.82149 693.382 0.810133 691.435 0.801048 689.488C0.796506 689.049 0.925968 688.532 0.485341 688.061Z" fill="#F6F5E9"/>
<path d="M9.46133 721.147C6.96975 721.147 4.4668 721.147 1.76172 721.147C1.81396 735.702 1.97295 749.965 1.8185 764.259C4.52359 763.798 7.04243 763.391 9.47723 763.755C10.3062 749.571 9.24556 735.263 9.46133 721.147ZM9.17743 751.48C8.09403 751.675 7.00382 751.662 5.86137 751.558C5.86137 749.691 5.86137 748.001 5.86137 746.148C7.01745 746.255 8.0963 746.171 9.17743 746.759C9.17743 748.255 9.17743 749.701 9.17743 751.48ZM9.01162 734.717C9.01162 736.232 9.01162 737.666 9.01162 739.239C7.94412 739.165 6.90615 739.096 5.79323 739.018C5.84092 737.425 5.69102 735.936 5.91588 734.415C6.94022 734.132 7.8987 734.412 9.01162 734.717ZM2.42493 733.417C2.42493 731.687 2.42493 730.094 2.42493 728.469C3.40158 727.981 4.31917 728.14 5.35714 728.244C5.27992 730.02 5.20497 731.704 5.12775 733.472C4.20561 733.446 3.36297 733.755 2.42493 733.417ZM6.06124 727.289C5.80458 725.387 5.98629 723.713 6.10212 721.996C7.11738 721.944 8.00318 721.762 8.91396 722.12C8.73226 723.885 8.97528 725.614 8.67093 727.285C7.78968 727.289 6.97202 727.289 6.06124 727.289ZM2.4908 745.299C2.4908 743.544 2.4908 741.905 2.4908 740.241C3.38568 740 4.18971 739.89 5.02327 739.984C5.02327 741.866 5.02327 743.606 5.02327 745.364C4.1511 745.52 3.36978 745.615 2.4908 745.299ZM2.61799 752.611C3.47426 752.559 4.26921 752.23 5.021 752.578C5.021 754.487 5.021 756.291 5.021 758.095C4.17608 758.095 3.43792 758.095 2.61799 758.095C2.61799 756.223 2.61799 754.477 2.61799 752.611ZM5.81821 759.11C6.88571 759.367 7.8669 759.194 8.85718 759.688C8.9662 760.67 8.9662 761.61 8.8708 762.588C7.93731 762.998 7.02426 763.095 6.0726 762.845C5.83184 761.662 5.7478 760.514 5.81821 759.11Z" fill="#F6F5E9"/>
<path d="M11.3651 764.112C11.7535 762.51 11.5331 761.092 11.5945 759.746C11.9125 752.669 12.1918 745.572 11.674 738.498C11.2992 733.371 11.1311 728.25 11.2447 723.104C11.2583 722.444 11.3015 721.787 11.3469 720.747C10.661 721.651 10.7632 722.477 10.7518 723.221C10.6701 728.53 10.8722 733.823 11.1243 739.119C11.4968 746.908 11.3242 754.694 10.8495 762.467C10.8154 763.053 10.8086 763.053 11.3651 764.112Z" fill="#F6F5E9"/>
<path d="M0.485341 721.974C-0.0733913 736.327 -0.166513 750.547 0.299098 764.887C0.975938 764.546 0.826032 763.792 0.812405 763.145C0.701112 758.385 0.528497 753.629 0.478529 748.869C0.41039 742.325 0.623889 735.784 0.776064 729.243C0.82149 727.296 0.810133 725.348 0.801048 723.401C0.796506 722.962 0.925968 722.445 0.485341 721.974Z" fill="#F6F5E9"/>
<path d="M9.46133 756.761C6.96975 756.761 4.4668 756.761 1.76172 756.761C1.81396 771.316 1.97295 785.578 1.8185 799.873C4.52359 799.411 7.04243 799.005 9.47723 799.369C10.3062 785.184 9.24556 770.877 9.46133 756.761ZM9.17743 787.093C8.09403 787.288 7.00382 787.275 5.86137 787.171C5.86137 785.305 5.86137 783.614 5.86137 781.761C7.01745 781.868 8.0963 781.784 9.17743 782.372C9.17743 783.868 9.17743 785.314 9.17743 787.093ZM9.01162 770.331C9.01162 771.845 9.01162 773.279 9.01162 774.853C7.94412 774.778 6.90615 774.71 5.79323 774.632C5.84092 773.039 5.69102 771.55 5.91588 770.028C6.94022 769.745 7.8987 770.025 9.01162 770.331ZM2.42493 769.03C2.42493 767.301 2.42493 765.708 2.42493 764.082C3.40158 763.594 4.31917 763.754 5.35714 763.858C5.27992 765.633 5.20497 767.317 5.12775 769.085C4.20561 769.059 3.36297 769.368 2.42493 769.03ZM6.06124 762.902C5.80458 761 5.98629 759.326 6.10212 757.609C7.11738 757.557 8.00318 757.375 8.91396 757.733C8.73226 759.498 8.97528 761.228 8.67093 762.899C7.78968 762.902 6.97202 762.902 6.06124 762.902ZM2.4908 780.913C2.4908 779.157 2.4908 777.519 2.4908 775.854C3.38568 775.613 4.18971 775.503 5.02327 775.597C5.02327 777.48 5.02327 779.219 5.02327 780.978C4.1511 781.134 3.36978 781.228 2.4908 780.913ZM2.61799 788.224C3.47426 788.172 4.26921 787.844 5.021 788.192C5.021 790.1 5.021 791.904 5.021 793.709C4.17608 793.709 3.43792 793.709 2.61799 793.709C2.61799 791.836 2.61799 790.09 2.61799 788.224ZM5.81821 794.723C6.88571 794.98 7.8669 794.807 8.85718 795.302C8.9662 796.283 8.9662 797.223 8.8708 798.202C7.93731 798.611 7.02426 798.709 6.0726 798.458C5.83184 797.275 5.7478 796.127 5.81821 794.723Z" fill="#F6F5E9"/>
<path d="M11.3651 799.727C11.7535 798.124 11.5331 796.707 11.5945 795.361C11.9125 788.283 12.1918 781.186 11.674 774.112C11.2992 768.985 11.1311 763.865 11.2447 758.718C11.2583 758.058 11.3015 757.402 11.3469 756.361C10.661 757.265 10.7632 758.091 10.7518 758.835C10.6701 764.144 10.8722 769.437 11.1243 774.733C11.4968 782.522 11.3242 790.308 10.8495 798.082C10.8154 798.667 10.8086 798.667 11.3651 799.727Z" fill="#F6F5E9"/>
<path d="M0.485341 757.586C-0.0733913 771.939 -0.166513 786.159 0.299098 800.499C0.975938 800.158 0.826032 799.404 0.812405 798.757C0.701112 793.997 0.528497 789.241 0.478529 784.482C0.41039 777.937 0.623889 771.396 0.776064 764.855C0.82149 762.908 0.810133 760.961 0.801048 759.013C0.796506 758.574 0.925968 758.057 0.485341 757.586Z" fill="#F6F5E9"/>
</svg>
