<svg width="577" height="699" viewBox="0 0 577 699" fill="none" xmlns="http://www.w3.org/2000/svg">
<path d="M43.3023 580.302C31.8978 580.302 20.4414 580.302 8.05972 580.302C8.29884 535.26 9.02657 491.122 8.31964 446.885C20.7013 448.313 32.2305 449.571 43.3751 448.444C47.1696 492.34 42.3147 536.618 43.3023 580.302ZM42.0028 486.434C37.0439 485.83 32.0538 485.871 26.8246 486.193C26.8246 491.967 26.8246 497.199 26.8246 502.934C32.1162 502.602 37.0543 502.863 42.0028 501.042C42.0028 496.414 42.0028 491.937 42.0028 486.434ZM41.2439 538.308C41.2439 533.62 41.2439 529.183 41.2439 524.313C36.3578 524.545 31.6068 524.756 26.5127 524.997C26.731 529.927 26.0449 534.535 27.0741 539.244C31.7627 540.119 36.1498 539.254 41.2439 538.308ZM11.0954 542.332C11.0954 547.685 11.0954 552.615 11.0954 557.645C15.5657 559.154 19.7657 558.661 24.5167 558.339C24.1632 552.846 23.8201 547.634 23.4667 542.161C19.2459 542.242 15.3889 541.286 11.0954 542.332ZM27.7394 561.297C26.5647 567.183 27.3964 572.364 27.9266 577.676C32.5736 577.837 36.628 578.401 40.7969 577.294C39.9652 571.831 41.0775 566.479 39.6845 561.307C35.6508 561.297 31.9082 561.297 27.7394 561.297ZM11.3969 505.56C11.3969 510.993 11.3969 516.063 11.3969 521.215C15.4929 521.959 19.1731 522.301 22.9884 522.009C22.9884 516.184 22.9884 510.801 22.9884 505.359C18.9964 504.876 15.4201 504.584 11.3969 505.56ZM11.979 482.933C15.8984 483.094 19.537 484.11 22.9781 483.033C22.9781 477.128 22.9781 471.544 22.9781 465.96C19.1107 465.96 15.732 465.96 11.979 465.96C11.979 471.755 11.979 477.158 11.979 482.933ZM26.6271 462.821C31.5132 462.026 36.0043 462.559 40.537 461.03C41.036 457.992 41.036 455.084 40.5993 452.056C36.3266 450.788 32.1474 450.486 27.7914 451.261C26.6894 454.923 26.3048 458.475 26.6271 462.821Z" fill="#06122E"/>
<path d="M52.0139 447.337C53.7916 452.297 52.7832 456.684 53.0639 460.849C54.5194 482.752 55.7981 504.715 53.4278 526.607C51.7124 542.473 50.9431 558.319 51.4629 574.246C51.5253 576.288 51.7228 578.32 51.9307 581.54C48.7911 578.743 49.259 576.188 49.207 573.884C48.8327 557.454 49.758 541.075 50.9119 524.686C52.6169 500.58 51.8268 476.484 49.654 452.428C49.4981 450.617 49.4669 450.617 52.0139 447.337Z" fill="#06122E"/>
<path d="M2.21703 577.747C-0.340392 533.328 -0.766623 489.321 1.36457 444.943C4.46259 445.999 3.77645 448.333 3.71407 450.335C3.20466 465.064 2.41457 479.784 2.18585 494.513C1.87397 514.765 2.85119 535.008 3.54772 555.25C3.75564 561.277 3.70366 567.303 3.66208 573.33C3.64129 574.688 4.23386 576.288 2.21703 577.747Z" fill="#06122E"/>
<path d="M43.3023 692.397C31.8978 692.397 20.4414 692.397 8.05969 692.397C8.29881 647.355 9.02654 603.217 8.31961 558.98C20.7013 560.408 32.2305 561.666 43.3751 560.539C47.1696 604.435 42.3146 648.713 43.3023 692.397ZM42.0028 598.529C37.0439 597.925 32.0538 597.966 26.8246 598.288C26.8246 604.063 26.8246 609.294 26.8246 615.029C32.1161 614.697 37.0543 614.959 42.0028 613.138C42.0028 608.509 42.0028 604.032 42.0028 598.529ZM41.2439 650.403C41.2439 645.715 41.2439 641.278 41.2439 636.408C36.3577 636.64 31.6067 636.851 26.5127 637.093C26.731 642.022 26.0448 646.63 27.0741 651.339C31.7627 652.214 36.1498 651.349 41.2439 650.403ZM11.0953 654.428C11.0953 659.78 11.0953 664.71 11.0953 669.74C15.5656 671.249 19.7656 670.756 24.5166 670.434C24.1632 664.941 23.8201 659.73 23.4666 654.256C19.2458 654.337 15.3889 653.381 11.0953 654.428ZM27.7394 673.392C26.5646 679.278 27.3963 684.459 27.9265 689.772C32.5736 689.933 36.628 690.496 40.7968 689.389C39.9651 683.926 41.0775 678.574 39.6844 673.402C35.6508 673.392 31.9082 673.392 27.7394 673.392ZM11.3968 617.655C11.3968 623.088 11.3968 628.159 11.3968 633.31C15.4929 634.054 19.1731 634.396 22.9884 634.104C22.9884 628.279 22.9884 622.897 22.9884 617.454C18.9963 616.971 15.4201 616.679 11.3968 617.655ZM11.979 595.028C15.8983 595.189 19.5369 596.205 22.978 595.129C22.978 589.223 22.978 583.639 22.978 578.055C19.1107 578.055 15.732 578.055 11.979 578.055C11.979 583.85 11.979 589.253 11.979 595.028ZM26.627 574.916C31.5132 574.121 36.0043 574.655 40.5369 573.125C41.0359 570.087 41.0359 567.179 40.5993 564.151C36.3265 562.883 32.1473 562.581 27.7914 563.356C26.6894 567.018 26.3048 570.57 26.627 574.916Z" fill="#06122E"/>
<path d="M52.0143 681.451C53.792 676.49 52.7836 672.104 53.0643 667.939C54.5197 646.036 55.7984 624.073 53.4281 602.181C51.7128 586.314 50.9435 570.469 51.4633 554.542C51.5257 552.5 51.7232 550.467 51.9311 547.248C48.7915 550.045 49.2593 552.6 49.2073 554.904C48.8331 571.334 49.7583 587.713 50.9123 604.102C52.6172 628.208 51.8271 652.304 49.6544 676.36C49.4984 678.171 49.4672 678.171 52.0143 681.451Z" fill="#06122E"/>
<path d="M2.21703 685.402C-0.340392 640.983 -0.766623 596.977 1.36457 552.598C4.46259 553.654 3.77645 555.988 3.71407 557.99C3.20466 572.72 2.41457 587.439 2.18585 602.168C1.87397 622.421 2.85119 642.663 3.54772 662.906C3.75564 668.932 3.70366 674.959 3.66208 680.985C3.64129 682.343 4.23386 683.943 2.21703 685.402Z" fill="#06122E"/>
<path d="M43.3023 468.572C31.8978 468.572 20.4414 468.572 8.05972 468.572C8.29884 423.529 9.02657 379.392 8.31964 335.154C20.7013 336.583 32.2305 337.841 43.3751 336.714C47.1696 380.61 42.3147 424.888 43.3023 468.572ZM42.0028 374.704C37.0439 374.1 32.0538 374.14 26.8246 374.462C26.8246 380.237 26.8246 385.469 26.8246 391.204C32.1162 390.872 37.0543 391.133 42.0028 389.312C42.0028 384.684 42.0028 380.207 42.0028 374.704ZM41.2439 426.578C41.2439 421.889 41.2439 417.453 41.2439 412.583C36.3578 412.815 31.6068 413.026 26.5127 413.267C26.731 418.197 26.0449 422.805 27.0741 427.514C31.7627 428.389 36.1498 427.524 41.2439 426.578ZM11.0954 430.602C11.0954 435.955 11.0954 440.884 11.0954 445.915C15.5657 447.424 19.7657 446.931 24.5167 446.609C24.1632 441.116 23.8201 435.904 23.4667 430.431C19.2459 430.512 15.3889 429.556 11.0954 430.602ZM27.7394 449.567C26.5647 455.453 27.3964 460.634 27.9266 465.946C32.5736 466.107 36.628 466.671 40.7969 465.564C39.9652 460.101 41.0775 454.748 39.6845 449.577C35.6508 449.567 31.9082 449.567 27.7394 449.567ZM11.3969 393.83C11.3969 399.263 11.3969 404.333 11.3969 409.484C15.4929 410.229 19.1731 410.571 22.9884 410.279C22.9884 404.454 22.9884 399.071 22.9884 393.628C18.9964 393.145 15.4201 392.854 11.3969 393.83ZM11.979 371.203C15.8984 371.364 19.537 372.38 22.9781 371.303C22.9781 365.397 22.9781 359.814 22.9781 354.23C19.1107 354.23 15.732 354.23 11.979 354.23C11.979 360.025 11.979 365.428 11.979 371.203ZM26.6271 351.091C31.5132 350.296 36.0043 350.829 40.537 349.3C41.036 346.262 41.036 343.354 40.5993 340.326C36.3266 339.058 32.1474 338.756 27.7914 339.531C26.6894 343.193 26.3048 346.744 26.6271 351.091Z" fill="#06122E"/>
<path d="M52.0143 457.625C53.792 452.665 52.7836 448.279 53.0643 444.113C54.5197 422.211 55.7985 400.248 53.4282 378.355C51.7128 362.489 50.9435 346.643 51.4633 330.717C51.5257 328.674 51.7232 326.642 51.9311 323.423C48.7915 326.22 49.2594 328.775 49.2074 331.079C48.8331 347.508 49.7584 363.888 50.9123 380.277C52.6173 404.383 51.8272 428.479 49.6544 452.534C49.4984 454.345 49.4673 454.345 52.0143 457.625Z" fill="#06122E"/>
<path d="M2.21706 461.577C-0.340361 417.158 -0.766593 373.151 1.3646 328.773C4.46262 329.829 3.77648 332.163 3.7141 334.165C3.20469 348.895 2.4146 363.614 2.18588 378.343C1.874 398.595 2.85122 418.838 3.54775 439.081C3.75567 445.107 3.70369 451.134 3.66211 457.16C3.64132 458.518 4.23389 460.118 2.21706 461.577Z" fill="#06122E"/>
<path d="M43.3024 359.185C31.898 359.185 20.4415 359.185 8.05984 359.185C8.29896 314.142 9.02669 270.005 8.31976 225.767C20.7014 227.196 32.2307 228.454 43.3752 227.327C47.1698 271.223 42.3148 315.501 43.3024 359.185ZM42.0029 265.317C37.044 264.713 32.0539 264.753 26.8247 265.075C26.8247 270.85 26.8247 276.082 26.8247 281.817C32.1163 281.485 37.0544 281.746 42.0029 279.925C42.0029 275.297 42.0029 270.82 42.0029 265.317ZM41.244 317.191C41.244 312.503 41.244 308.066 41.244 303.196C36.3579 303.428 31.6069 303.639 26.5128 303.88C26.7311 308.81 26.045 313.418 27.0742 318.127C31.7628 319.002 36.15 318.137 41.244 317.191ZM11.0955 321.215C11.0955 326.568 11.0955 331.498 11.0955 336.528C15.5658 338.037 19.7658 337.544 24.5168 337.222C24.1633 331.729 23.8202 326.517 23.4668 321.044C19.246 321.125 15.3891 320.169 11.0955 321.215ZM27.7395 340.18C26.5648 346.066 27.3965 351.247 27.9267 356.559C32.5737 356.72 36.6282 357.284 40.797 356.177C39.9653 350.714 41.0777 345.362 39.6846 340.19C35.6509 340.18 31.9084 340.18 27.7395 340.18ZM11.397 284.443C11.397 289.876 11.397 294.946 11.397 300.097C15.493 300.842 19.1732 301.184 22.9886 300.892C22.9886 295.067 22.9886 289.684 22.9886 284.241C18.9965 283.759 15.4202 283.467 11.397 284.443ZM11.9792 261.816C15.8985 261.977 19.5371 262.993 22.9782 261.916C22.9782 256.011 22.9782 250.427 22.9782 244.843C19.1109 244.843 15.7321 244.843 11.9792 244.843C11.9792 250.638 11.9792 256.041 11.9792 261.816ZM26.6272 241.704C31.5133 240.909 36.0044 241.442 40.5371 239.913C41.0361 236.875 41.0361 233.967 40.5995 230.939C36.3267 229.671 32.1475 229.369 27.7915 230.144C26.6896 233.806 26.3049 237.358 26.6272 241.704Z" fill="#06122E"/>
<path d="M52.0141 226.22C53.7918 231.18 52.7834 235.567 53.0641 239.732C54.5195 261.635 55.7982 283.598 53.4279 305.49C51.7126 321.356 50.9433 337.202 51.4631 353.129C51.5254 355.171 51.723 357.203 51.9309 360.423C48.7913 357.626 49.2591 355.071 49.2071 352.767C48.8329 336.337 49.7581 319.958 50.9121 303.569C52.617 279.463 51.8269 255.367 49.6542 231.311C49.4982 229.5 49.467 229.5 52.0141 226.22Z" fill="#06122E"/>
<path d="M2.21718 356.629C-0.340239 312.21 -0.766471 268.204 1.36472 223.825C4.46274 224.882 3.7766 227.216 3.71422 229.218C3.20481 243.947 2.41472 258.666 2.186 273.395C1.87412 293.648 2.85134 313.891 3.54788 334.133C3.7558 340.16 3.70382 346.186 3.66223 352.213C3.64144 353.571 4.23401 355.171 2.21718 356.629Z" fill="#06122E"/>
<path d="M43.3024 135.36C31.898 135.36 20.4415 135.36 8.05984 135.36C8.29896 90.3171 9.02669 46.1798 8.31976 1.942C20.7014 3.37065 32.2307 4.62825 43.3752 3.50142C47.1698 47.3972 42.3148 91.6753 43.3024 135.36ZM42.0029 41.4915C37.044 40.8878 32.0539 40.9281 26.8247 41.25C26.8247 47.025 26.8247 52.2566 26.8247 57.9913C32.1163 57.6593 37.0544 57.9209 42.0029 56.0999C42.0029 51.4718 42.0029 46.9948 42.0029 41.4915ZM41.244 93.3655C41.244 88.6771 41.244 84.2402 41.244 79.3708C36.3579 79.6022 31.6069 79.8134 26.5128 80.0549C26.7311 84.9847 26.045 89.5927 27.0742 94.3012C31.7628 95.1765 36.15 94.3113 41.244 93.3655ZM11.0955 97.3899C11.0955 102.742 11.0955 107.672 11.0955 112.703C15.5658 114.212 19.7658 113.719 24.5168 113.397C24.1633 107.904 23.8202 102.692 23.4668 97.2188C19.246 97.2993 15.3891 96.3436 11.0955 97.3899ZM27.7395 116.355C26.5648 122.24 27.3965 127.422 27.9267 132.734C32.5737 132.895 36.6282 133.458 40.797 132.352C39.9653 126.888 41.0777 121.536 39.6846 116.365C35.6509 116.355 31.9084 116.355 27.7395 116.355ZM11.397 60.6173C11.397 66.0502 11.397 71.1209 11.397 76.272C15.493 77.0165 19.1732 77.3586 22.9886 77.0668C22.9886 71.2416 22.9886 65.859 22.9886 60.416C18.9965 59.9331 15.4202 59.6414 11.397 60.6173ZM11.9792 37.9902C15.8985 38.1512 19.5371 39.1674 22.9782 38.0909C22.9782 32.1851 22.9782 26.6013 22.9782 21.0175C19.1109 21.0174 15.7321 21.0174 11.9792 21.0174C11.9792 26.8125 11.9792 32.2152 11.9792 37.9902ZM26.6272 17.8785C31.5133 17.0836 36.0044 17.6169 40.5371 16.0876C41.0361 13.0492 41.0361 10.1416 40.5995 7.11327C36.3267 5.84558 32.1475 5.54378 27.7915 6.31847C26.6896 9.98065 26.3049 13.5321 26.6272 17.8785Z" fill="#06122E"/>
<path d="M52.0141 2.39513C53.7918 7.35516 52.7834 11.7418 53.0641 15.907C54.5195 37.8096 55.7982 59.7726 53.4279 81.6651C51.7126 97.5312 50.9433 113.377 51.4631 129.304C51.5254 131.346 51.723 133.378 51.9309 136.598C48.7913 133.801 49.2591 131.245 49.2071 128.941C48.8329 112.512 49.7581 96.1327 50.9121 79.7434C52.617 55.6375 51.8269 31.5417 49.6542 7.48601C49.4982 5.67505 49.467 5.67499 52.0141 2.39513Z" fill="#06122E"/>
<path d="M2.21718 132.804C-0.340239 88.3854 -0.766471 44.379 1.36472 0.000305353C4.46274 1.0567 3.7766 3.39082 3.71422 5.39294C3.20481 20.1221 2.41472 34.8412 2.186 49.5704C1.87412 69.823 2.85134 90.0656 3.54788 110.308C3.7558 116.335 3.70382 122.361 3.66223 128.388C3.64144 129.746 4.23401 131.346 2.21718 132.804Z" fill="#06122E"/>
<path d="M43.3024 247.455C31.898 247.455 20.4415 247.455 8.05984 247.455C8.29896 202.412 9.02669 158.275 8.31976 114.037C20.7014 115.466 32.2307 116.723 43.3752 115.596C47.1698 159.492 42.3148 203.77 43.3024 247.455ZM42.0029 153.586C37.044 152.983 32.0539 153.023 26.8247 153.345C26.8247 159.12 26.8247 164.352 26.8247 170.086C32.1163 169.754 37.0544 170.016 42.0029 168.195C42.0029 163.567 42.0029 159.09 42.0029 153.586ZM41.244 205.46C41.244 200.772 41.244 196.335 41.244 191.466C36.3579 191.697 31.6069 191.908 26.5128 192.15C26.7311 197.08 26.045 201.688 27.0742 206.396C31.7628 207.271 36.15 206.406 41.244 205.46ZM11.0955 209.485C11.0955 214.837 11.0955 219.767 11.0955 224.797C15.5658 226.307 19.7658 225.814 24.5168 225.492C24.1633 219.998 23.8202 214.787 23.4668 209.314C19.246 209.394 15.3891 208.438 11.0955 209.485ZM27.7395 228.45C26.5648 234.335 27.3965 239.517 27.9267 244.829C32.5737 244.99 36.6282 245.553 40.797 244.446C39.9653 238.983 41.0777 233.631 39.6846 228.46C35.6509 228.45 31.9084 228.45 27.7395 228.45ZM11.397 172.712C11.397 178.145 11.397 183.216 11.397 188.367C15.493 189.111 19.1732 189.454 22.9886 189.162C22.9886 183.336 22.9886 177.954 22.9886 172.511C18.9965 172.028 15.4202 171.736 11.397 172.712ZM11.9792 150.085C15.8985 150.246 19.5371 151.262 22.9782 150.186C22.9782 144.28 22.9782 138.696 22.9782 133.112C19.1109 133.112 15.7321 133.112 11.9792 133.112C11.9792 138.907 11.9792 144.31 11.9792 150.085ZM26.6272 129.973C31.5133 129.179 36.0044 129.712 40.5371 128.183C41.0361 125.144 41.0361 122.237 40.5995 119.208C36.3267 117.941 32.1475 117.639 27.7915 118.413C26.6896 122.076 26.3049 125.627 26.6272 129.973Z" fill="#06122E"/>
<path d="M52.0144 236.507C53.7921 231.547 52.7837 227.161 53.0644 222.996C54.5198 201.093 55.7985 179.13 53.4283 157.237C51.7129 141.371 50.9436 125.525 51.4634 109.599C51.5258 107.557 51.7233 105.524 51.9312 102.305C48.7916 105.102 49.2594 107.657 49.2075 109.961C48.8332 126.391 49.7585 142.77 50.9124 159.159C52.6174 183.265 51.8273 207.361 49.6545 231.416C49.4985 233.227 49.4673 233.228 52.0144 236.507Z" fill="#06122E"/>
<path d="M2.21718 240.459C-0.340239 196.04 -0.766471 152.034 1.36472 107.655C4.46274 108.712 3.7766 111.046 3.71422 113.048C3.20481 127.777 2.41472 142.496 2.186 157.225C1.87412 177.478 2.85134 197.72 3.54788 217.963C3.7558 223.989 3.70382 230.016 3.66223 236.042C3.64144 237.401 4.23401 239 2.21718 240.459Z" fill="#06122E"/>
<path d="M130.111 44.4469C130.286 33.0438 130.462 21.5887 130.652 9.20847C160.759 9.90952 190.254 11.0898 219.838 10.8367C218.693 23.2023 217.675 34.7172 218.258 45.872C188.855 49.2159 159.33 43.9074 130.111 44.4469ZM192.882 44.1103C193.362 39.1581 193.412 34.1682 193.277 28.9363C189.416 28.8771 185.919 28.8234 182.085 28.7646C182.226 34.059 181.975 38.9938 183.117 43.9604C186.21 44.0079 189.203 44.0538 192.882 44.1103ZM158.216 42.8194C161.35 42.8675 164.316 42.913 167.572 42.963C167.492 38.075 167.424 33.3224 167.34 28.2265C164.041 28.3942 160.971 27.6609 157.808 28.6417C157.151 33.3208 157.662 37.7163 158.216 42.8194ZM155.988 12.6332C152.41 12.5783 149.115 12.5277 145.752 12.4761C144.674 16.9304 144.939 21.135 145.082 25.8887C148.759 25.5916 152.249 25.3021 155.913 25.0048C155.924 20.7836 156.622 16.937 155.988 12.6332ZM143.055 29.0808C139.138 27.8458 135.662 28.6242 132.103 29.0999C131.924 33.7447 131.485 37.7929 132.161 41.9726C135.826 41.197 139.387 42.3642 142.865 41.0243C142.934 36.9912 142.991 33.2491 143.055 29.0808ZM180.566 13.3118C176.934 13.2561 173.545 13.2041 170.101 13.1512C169.54 17.2391 169.255 20.9154 169.392 24.7333C173.286 24.793 176.884 24.8482 180.523 24.9041C180.907 20.9174 181.157 17.3446 180.566 13.3118ZM195.683 14.126C195.516 18.0432 194.781 21.6709 195.447 25.1226C199.396 25.1832 203.128 25.2405 206.861 25.2978C206.92 21.4309 206.972 18.0526 207.03 14.3C203.156 14.2406 199.544 14.1852 195.683 14.126ZM208.904 28.9785C209.36 33.8722 208.935 38.3573 209.887 42.9052C211.911 43.4353 213.855 43.4651 215.886 43.0596C216.799 38.8003 217.065 34.6247 216.614 30.2613C214.182 29.1219 211.814 28.7009 208.904 28.9785Z" fill="#06122E"/>
<path d="M218.865 54.5212C215.522 56.2479 212.605 55.1946 209.816 55.4325C195.152 56.6632 180.45 57.7165 165.851 55.1219C155.271 53.2441 144.69 52.3123 134.035 52.6687C132.669 52.7101 131.307 52.8868 129.152 53.0617C131.069 49.9511 132.771 50.4451 134.312 50.4168C145.3 50.211 156.236 51.3042 167.174 52.6261C183.263 54.5781 199.383 54.0352 215.498 52.1094C216.711 51.9721 216.711 51.9409 218.865 54.5212Z" fill="#06122E"/>
<path d="M132.45 3.3927C162.183 1.29115 191.608 1.3163 221.243 3.9024C220.489 6.98922 218.939 6.27922 217.602 6.19632C207.763 5.5359 197.935 4.59494 188.092 4.21519C174.558 3.69563 161.011 4.46512 147.468 4.95396C143.436 5.10005 139.408 4.98627 135.38 4.88288C134.473 4.84816 133.394 5.42426 132.45 3.3927Z" fill="#06122E"/>
<path d="M55.1754 43.2972C55.3504 31.8941 55.5261 20.439 55.7161 8.05881C85.8235 8.75986 115.318 9.94018 144.902 9.68705C143.757 22.0526 142.74 33.5676 143.322 44.7224C113.919 48.0663 84.3937 42.7578 55.1754 43.2972ZM117.946 42.9606C118.426 38.0085 118.476 33.0186 118.341 27.7867C114.48 27.7274 110.983 27.6738 107.149 27.615C107.29 32.9093 107.039 37.8442 108.181 42.8108C111.275 42.8583 114.268 42.9042 117.946 42.9606ZM83.2802 41.6698C86.4144 41.7179 89.3805 41.7634 92.6358 41.8133C92.556 36.9254 92.4877 32.1728 92.4044 27.0768C89.1054 27.2446 86.0355 26.5112 82.8721 27.492C82.215 32.1711 82.7262 36.5666 83.2802 41.6698ZM81.0524 11.4835C77.4743 11.4286 74.1787 11.3781 70.8159 11.3265C69.7384 15.7808 70.0036 19.9853 70.1459 24.7391C73.8236 24.442 77.3128 24.1524 80.977 23.8551C80.988 19.634 81.686 15.7873 81.0524 11.4835ZM68.1191 27.9311C64.2026 26.6961 60.726 27.4746 57.1667 27.9502C56.9878 32.5951 56.549 36.6433 57.2249 40.8229C60.8897 40.0474 64.4507 41.2145 67.9291 39.8747C67.9977 35.8416 68.0551 32.0994 68.1191 27.9311ZM105.63 12.1621C101.998 12.1064 98.6087 12.0544 95.1651 12.0016C94.6046 16.0895 94.3195 19.7657 94.456 23.5836C98.3502 23.6434 101.948 23.6986 105.587 23.7544C105.971 19.7677 106.221 16.1949 105.63 12.1621ZM120.748 12.9763C120.58 16.8935 119.845 20.5213 120.512 23.973C124.46 24.0336 128.192 24.0908 131.925 24.1481C131.985 20.2812 132.036 16.9029 132.094 13.1504C128.22 13.0909 124.608 13.0355 120.748 12.9763ZM133.968 27.8289C134.424 32.7226 133.999 37.2077 134.951 41.7555C136.975 42.2856 138.919 42.3154 140.95 41.9099C141.863 37.6506 142.129 33.475 141.678 29.1117C139.246 27.9722 136.878 27.5512 133.968 27.8289Z" fill="#06122E"/>
<path d="M62.3599 52.1205C65.6484 53.9488 68.5963 52.9855 71.3765 53.3089C85.9961 54.9888 100.659 56.4926 115.33 54.3472C125.963 52.7947 136.568 52.1881 147.207 52.8711C148.571 52.9545 149.927 53.1728 152.076 53.4137C150.254 50.2458 148.539 50.6874 146.999 50.6118C136.022 50.069 125.058 50.8262 114.084 51.8119C97.9432 53.2694 81.8473 52.2323 65.7993 49.813C64.5911 49.6386 64.5915 49.6074 62.3599 52.1205Z" fill="#06122E"/>
<path d="M60.4823 2.28854C90.2156 0.186993 119.641 0.212148 149.275 2.79825C148.521 5.88507 146.972 5.17506 145.634 5.09216C135.795 4.43175 125.968 3.49079 116.125 3.11103C102.591 2.59147 89.0435 3.36097 75.5007 3.84981C71.4687 3.99589 67.4408 3.88211 63.4127 3.77872C62.5051 3.744 61.4266 4.3201 60.4823 2.28854Z" fill="#06122E"/>
<path d="M204.803 45.5928C204.978 34.1897 205.154 22.7346 205.344 10.3544C235.451 11.0554 264.946 12.2357 294.53 11.9826C293.385 24.3482 292.367 35.8631 292.949 47.0179C263.547 50.3618 234.021 45.0533 204.803 45.5928ZM267.574 45.2562C268.054 40.304 268.103 35.3141 267.968 30.0822C264.108 30.023 260.61 29.9693 256.777 29.9105C256.918 35.2049 256.667 40.1397 257.808 45.1064C260.902 45.1538 263.895 45.1997 267.574 45.2562ZM232.908 43.9653C236.042 44.0134 239.008 44.0589 242.263 44.1089C242.184 39.2209 242.115 34.4683 242.032 29.3724C238.733 29.5401 235.663 28.8068 232.5 29.7876C231.843 34.4667 232.354 38.8622 232.908 43.9653ZM230.68 13.7791C227.102 13.7242 223.806 13.6736 220.444 13.622C219.366 18.0763 219.631 22.2809 219.774 27.0346C223.451 26.7375 226.94 26.448 230.605 26.1507C230.616 21.9295 231.314 18.0829 230.68 13.7791ZM217.747 30.2267C213.83 28.9917 210.354 29.7701 206.794 30.2458C206.615 34.8906 206.177 38.9388 206.852 43.1185C210.517 42.3429 214.078 43.5101 217.557 42.1702C217.625 38.1371 217.683 34.395 217.747 30.2267ZM255.258 14.4577C251.626 14.402 248.236 14.35 244.793 14.2971C244.232 18.385 243.947 22.0613 244.084 25.8792C247.978 25.9389 251.576 25.9941 255.215 26.05C255.599 22.0633 255.849 18.4905 255.258 14.4577ZM270.375 15.2719C270.208 19.1891 269.472 22.8168 270.139 26.2686C274.087 26.3291 277.82 26.3864 281.553 26.4437C281.612 22.5768 281.664 19.1985 281.722 15.4459C277.848 15.3865 274.236 15.3311 270.375 15.2719ZM283.595 30.1244C284.052 35.0181 283.626 39.5032 284.579 44.0511C286.603 44.5812 288.546 44.611 290.578 44.2055C291.491 39.9462 291.756 35.7706 291.305 31.4072C288.874 30.2678 286.506 29.8468 283.595 30.1244Z" fill="#06122E"/>
<path d="M211.987 54.416C215.276 56.2444 218.224 55.2811 221.004 55.6045C235.624 57.2844 250.286 58.7882 264.958 56.6428C275.591 55.0903 286.195 54.4836 296.834 55.1667C298.199 55.25 299.554 55.4684 301.703 55.7093C299.882 52.5414 298.166 52.9829 296.627 52.9073C285.649 52.3646 274.686 53.1218 263.712 54.1075C247.571 55.565 231.475 54.5279 215.427 52.1086C214.219 51.9341 214.219 51.903 211.987 54.416Z" fill="#06122E"/>
<path d="M210.11 4.58417C239.843 2.48262 269.268 2.50777 298.903 5.09387C298.149 8.18069 296.599 7.47069 295.261 7.38778C285.423 6.72737 275.595 5.78641 265.752 5.40666C252.218 4.8871 238.671 5.65659 225.128 6.14543C221.096 6.29152 217.068 6.17774 213.04 6.07435C212.132 6.03963 211.054 6.61573 210.11 4.58417Z" fill="#06122E"/>
<path d="M277.928 46.7148C278.103 35.3117 278.279 23.8566 278.469 11.4764C308.576 12.1774 338.071 13.3578 367.655 13.1046C366.51 25.4702 365.492 36.9851 366.075 48.1399C336.672 51.4838 307.147 46.1753 277.928 46.7148ZM340.699 46.3782C341.179 41.4261 341.229 36.4361 341.094 31.2042C337.233 31.145 333.736 31.0914 329.902 31.0325C330.043 36.3269 329.792 41.2618 330.934 46.2284C334.028 46.2758 337.02 46.3217 340.699 46.3782ZM306.033 45.0873C309.167 45.1354 312.133 45.1809 315.389 45.2309C315.309 40.3429 315.241 35.5903 315.157 30.4944C311.858 30.6621 308.789 29.9288 305.625 30.9096C304.968 35.5887 305.479 39.9842 306.033 45.0873ZM303.805 14.9011C300.227 14.8462 296.932 14.7956 293.569 14.744C292.491 19.1983 292.757 23.4029 292.899 28.1566C296.577 27.8595 300.066 27.57 303.73 27.2727C303.741 23.0516 304.439 19.2049 303.805 14.9011ZM290.872 31.3487C286.956 30.1137 283.479 30.8922 279.92 31.3678C279.741 36.0126 279.302 40.0608 279.978 44.2405C283.643 43.465 287.204 44.6321 290.682 43.2922C290.751 39.2591 290.808 35.517 290.872 31.3487ZM328.383 15.5797C324.751 15.524 321.362 15.472 317.918 15.4191C317.358 19.5071 317.072 23.1833 317.209 27.0012C321.103 27.0609 324.701 27.1162 328.34 27.172C328.724 23.1853 328.974 19.6125 328.383 15.5797ZM343.501 16.3939C343.333 20.3111 342.598 23.9388 343.265 27.3906C347.213 27.4511 350.945 27.5084 354.678 27.5657C354.738 23.6988 354.789 20.3205 354.847 16.568C350.973 16.5085 347.361 16.4531 343.501 16.3939ZM356.721 31.2464C357.177 36.1402 356.752 40.6253 357.704 45.1731C359.728 45.7032 361.672 45.733 363.703 45.3275C364.616 41.0682 364.882 36.8926 364.431 32.5292C361.999 31.3898 359.631 30.9688 356.721 31.2464Z" fill="#06122E"/>
<path d="M366.682 56.7891C363.339 58.5158 360.422 57.4625 357.633 57.7004C342.969 58.9311 328.267 59.9844 313.668 57.3898C303.088 55.5119 292.507 54.5802 281.852 54.9366C280.486 54.978 279.124 55.1547 276.969 55.3295C278.887 52.219 280.588 52.713 282.129 52.6846C293.118 52.4789 304.053 53.5721 314.991 54.894C331.08 56.846 347.2 56.3031 363.315 54.3773C364.528 54.2399 364.529 54.2088 366.682 56.7891Z" fill="#06122E"/>
<path d="M280.267 5.66058C310.001 3.55903 339.426 3.58419 369.06 6.17028C368.306 9.25711 366.756 8.5471 365.419 8.4642C355.58 7.80379 345.753 6.86282 335.91 6.48307C322.376 5.96351 308.828 6.73301 295.286 7.22185C291.254 7.36793 287.226 7.25415 283.198 7.15076C282.29 7.11604 281.212 7.69214 280.267 5.66058Z" fill="#06122E"/>
<path d="M427.556 49.0104C427.731 37.6073 427.907 26.1522 428.097 13.772C458.204 14.473 487.699 15.6533 517.283 15.4002C516.138 27.7658 515.12 39.2807 515.702 50.4355C486.3 53.7794 456.774 48.4709 427.556 49.0104ZM490.327 48.6738C490.807 43.7216 490.856 38.7317 490.721 33.4998C486.861 33.4406 483.363 33.3869 479.53 33.3281C479.671 38.6225 479.42 43.5573 480.561 48.524C483.655 48.5714 486.648 48.6173 490.327 48.6738ZM455.661 47.3829C458.795 47.431 461.761 47.4765 465.016 47.5265C464.937 42.6385 464.868 37.8859 464.785 32.79C461.486 32.9577 458.416 32.2244 455.253 33.2052C454.596 37.8843 455.107 42.2798 455.661 47.3829ZM453.433 17.1967C449.855 17.1418 446.559 17.0912 443.196 17.0396C442.119 21.4939 442.384 25.6985 442.527 30.4522C446.204 30.1551 449.693 29.8656 453.358 29.5683C453.369 25.3472 454.067 21.5005 453.433 17.1967ZM440.5 33.6443C436.583 32.4093 433.107 33.1877 429.547 33.6634C429.368 38.3082 428.93 42.3564 429.605 46.5361C433.27 45.7605 436.831 46.9277 440.31 45.5878C440.378 41.5547 440.436 37.8126 440.5 33.6443ZM478.011 17.8753C474.379 17.8196 470.989 17.7676 467.546 17.7147C466.985 21.8026 466.7 25.4789 466.837 29.2968C470.731 29.3565 474.329 29.4117 477.968 29.4676C478.352 25.4809 478.602 21.9081 478.011 17.8753ZM493.128 18.6895C492.961 22.6067 492.225 26.2344 492.892 29.6862C496.84 29.7467 500.573 29.804 504.306 29.8613C504.365 25.9944 504.417 22.6161 504.475 18.8635C500.601 18.8041 496.989 18.7487 493.128 18.6895ZM506.348 33.542C506.805 38.4357 506.379 42.9208 507.332 47.4687C509.356 47.9988 511.299 48.0286 513.331 47.6231C514.244 43.3638 514.509 39.1882 514.058 34.8248C511.627 33.6854 509.259 33.2644 506.348 33.542Z" fill="#06122E"/>
<path d="M516.309 59.0847C512.966 60.8114 510.049 59.7581 507.261 59.996C492.596 61.2267 477.895 62.28 463.296 59.6854C452.715 57.8075 442.134 56.8758 431.479 57.2322C430.113 57.2736 428.752 57.4503 426.596 57.6251C428.514 54.5146 430.215 55.0086 431.756 54.9802C442.745 54.7745 453.68 55.8676 464.619 57.1896C480.708 59.1416 496.828 58.5987 512.942 56.6729C514.155 56.5355 514.156 56.5043 516.309 59.0847Z" fill="#06122E"/>
<path d="M429.895 7.95618C459.628 5.85463 489.053 5.87978 518.687 8.46588C517.934 11.5527 516.384 10.8427 515.046 10.7598C505.208 10.0994 495.38 9.15842 485.537 8.77867C472.003 8.2591 458.456 9.0286 444.913 9.51744C440.881 9.66353 436.853 9.54974 432.825 9.44636C431.917 9.41164 430.839 9.98773 429.895 7.95618Z" fill="#06122E"/>
<path d="M352.62 47.8607C352.795 36.4576 352.971 25.0025 353.161 12.6223C383.269 13.3233 412.763 14.5037 442.347 14.2505C441.202 26.6161 440.185 38.131 440.767 49.2858C411.364 52.6297 381.839 47.3212 352.62 47.8607ZM415.391 47.5241C415.871 42.572 415.921 37.582 415.786 32.3501C411.925 32.2909 408.428 32.2373 404.594 32.1784C404.735 37.4728 404.484 42.4077 405.626 47.3743C408.72 47.4217 411.713 47.4677 415.391 47.5241ZM380.725 46.2332C383.859 46.2813 386.825 46.3268 390.081 46.3768C390.001 41.4888 389.933 36.7362 389.849 31.6403C386.55 31.808 383.481 31.0747 380.317 32.0555C379.66 36.7346 380.171 41.1301 380.725 46.2332ZM378.497 16.047C374.919 15.9921 371.624 15.9415 368.261 15.89C367.183 20.3442 367.449 24.5488 367.591 29.3025C371.269 29.0055 374.758 28.7159 378.422 28.4186C378.433 24.1975 379.131 20.3508 378.497 16.047ZM365.564 32.4946C361.648 31.2596 358.171 32.0381 354.612 32.5137C354.433 37.1585 353.994 41.2067 354.67 45.3864C358.335 44.6109 361.896 45.778 365.374 44.4381C365.443 40.405 365.5 36.6629 365.564 32.4946ZM403.075 16.7256C399.443 16.6699 396.054 16.6179 392.61 16.565C392.05 20.653 391.764 24.3292 391.901 28.1471C395.795 28.2069 399.393 28.2621 403.032 28.3179C403.416 24.3312 403.666 20.7584 403.075 16.7256ZM418.193 17.5398C418.025 21.457 417.29 25.0847 417.957 28.5365C421.905 28.597 425.637 28.6543 429.37 28.7116C429.43 24.8447 429.481 21.4664 429.539 17.7139C425.665 17.6544 422.053 17.599 418.193 17.5398ZM431.413 32.3923C431.869 37.2861 431.444 41.7712 432.396 46.319C434.42 46.8491 436.364 46.8789 438.395 46.4734C439.308 42.2141 439.574 38.0385 439.123 33.6751C436.691 32.5357 434.323 32.1147 431.413 32.3923Z" fill="#06122E"/>
<path d="M359.805 56.6839C363.094 58.5123 366.042 57.549 368.822 57.8724C383.441 59.5523 398.104 61.0561 412.776 58.9106C423.408 57.3582 434.013 56.7515 444.652 57.4346C446.016 57.5179 447.372 57.7363 449.521 57.9772C447.699 54.8093 445.984 55.2508 444.444 55.1752C433.467 54.6325 422.503 55.3897 411.529 56.3754C395.388 57.8329 379.292 56.7958 363.245 54.3765C362.036 54.202 362.037 54.1708 359.805 56.6839Z" fill="#06122E"/>
<path d="M357.927 6.85202C387.661 4.75047 417.085 4.77562 446.72 7.36172C445.966 10.4485 444.416 9.73854 443.079 9.65564C433.24 8.99522 423.413 8.05426 413.57 7.67451C400.036 7.15495 386.488 7.92444 372.946 8.41328C368.914 8.55937 364.886 8.44559 360.858 8.3422C359.95 8.30748 358.871 8.88358 357.927 6.85202Z" fill="#06122E"/>
<path d="M564.612 580.302C553.208 580.302 541.751 580.302 529.37 580.302C529.609 535.26 530.336 491.122 529.629 446.885C542.011 448.313 553.54 449.571 564.685 448.444C568.479 492.34 563.624 536.618 564.612 580.302ZM563.313 486.434C558.354 485.83 553.364 485.871 548.134 486.193C548.134 491.968 548.134 497.199 548.134 502.934C553.426 502.602 558.364 502.863 563.313 501.042C563.313 496.414 563.313 491.937 563.313 486.434ZM562.554 538.308C562.554 533.62 562.554 529.183 562.554 524.313C557.668 524.545 552.917 524.756 547.823 524.997C548.041 529.927 547.355 534.535 548.384 539.244C553.073 540.119 557.46 539.254 562.554 538.308ZM532.405 542.332C532.405 547.685 532.405 552.615 532.405 557.645C536.875 559.154 541.075 558.661 545.826 558.339C545.473 552.846 545.13 547.635 544.776 542.161C540.556 542.242 536.699 541.286 532.405 542.332ZM549.049 561.297C547.874 567.183 548.706 572.364 549.236 577.676C553.883 577.837 557.938 578.401 562.107 577.294C561.275 571.831 562.387 566.479 560.994 561.307C556.961 561.297 553.218 561.297 549.049 561.297ZM532.707 505.56C532.707 510.993 532.707 516.063 532.707 521.215C536.803 521.959 540.483 522.301 544.298 522.009C544.298 516.184 544.298 510.802 544.298 505.359C540.306 504.876 536.73 504.584 532.707 505.56ZM533.289 482.933C537.208 483.094 540.847 484.11 544.288 483.033C544.288 477.128 544.288 471.544 544.288 465.96C540.421 465.96 537.042 465.96 533.289 465.96C533.289 471.755 533.289 477.158 533.289 482.933ZM547.937 462.821C552.823 462.026 557.314 462.559 561.847 461.03C562.346 457.992 562.346 455.084 561.909 452.056C557.636 450.788 553.457 450.486 549.101 451.261C547.999 454.923 547.615 458.475 547.937 462.821Z" fill="#06122E"/>
<path d="M573.324 447.337C575.101 452.298 574.093 456.684 574.374 460.849C575.829 482.752 577.108 504.715 574.738 526.607C573.022 542.474 572.253 558.319 572.773 574.246C572.835 576.288 573.033 578.321 573.241 581.54C570.101 578.743 570.569 576.188 570.517 573.884C570.143 557.454 571.068 541.075 572.222 524.686C573.927 500.58 573.137 476.484 570.964 452.428C570.808 450.617 570.777 450.617 573.324 447.337Z" fill="#06122E"/>
<path d="M523.527 577.747C520.969 533.328 520.543 489.321 522.674 444.943C525.772 445.999 525.086 448.333 525.024 450.335C524.514 465.064 523.724 479.784 523.496 494.513C523.184 514.765 524.161 535.008 524.858 555.25C525.065 561.277 525.013 567.303 524.972 573.33C524.951 574.688 525.544 576.288 523.527 577.747Z" fill="#06122E"/>
<path d="M564.612 692.397C553.208 692.397 541.751 692.397 529.37 692.397C529.609 647.355 530.336 603.218 529.629 558.98C542.011 560.408 553.54 561.666 564.685 560.539C568.479 604.435 563.624 648.713 564.612 692.397ZM563.313 598.529C558.354 597.926 553.364 597.966 548.134 598.288C548.134 604.063 548.134 609.294 548.134 615.029C553.426 614.697 558.364 614.959 563.313 613.138C563.313 608.51 563.313 604.032 563.313 598.529ZM562.554 650.403C562.554 645.715 562.554 641.278 562.554 636.408C557.668 636.64 552.917 636.851 547.822 637.093C548.041 642.022 547.355 646.63 548.384 651.339C553.072 652.214 557.46 651.349 562.554 650.403ZM532.405 654.428C532.405 659.78 532.405 664.71 532.405 669.74C536.875 671.249 541.075 670.756 545.826 670.434C545.473 664.941 545.13 659.73 544.776 654.257C540.556 654.337 536.699 653.381 532.405 654.428ZM549.049 673.392C547.874 679.278 548.706 684.459 549.236 689.772C553.883 689.933 557.938 690.496 562.107 689.389C561.275 683.926 562.387 678.574 560.994 673.402C556.961 673.392 553.218 673.392 549.049 673.392ZM532.707 617.655C532.707 623.088 532.707 628.159 532.707 633.31C536.803 634.054 540.483 634.396 544.298 634.105C544.298 628.279 544.298 622.897 544.298 617.454C540.306 616.971 536.73 616.679 532.707 617.655ZM533.289 595.028C537.208 595.189 540.847 596.205 544.288 595.129C544.288 589.223 544.288 583.639 544.288 578.055C540.421 578.055 537.042 578.055 533.289 578.055C533.289 583.85 533.289 589.253 533.289 595.028ZM547.937 574.916C552.823 574.121 557.314 574.655 561.847 573.125C562.346 570.087 562.346 567.179 561.909 564.151C557.636 562.883 553.457 562.582 549.101 563.356C547.999 567.018 547.615 570.57 547.937 574.916Z" fill="#06122E"/>
<path d="M573.324 681.451C575.102 676.491 574.093 672.104 574.374 667.939C575.83 646.036 577.108 624.073 574.738 602.181C573.023 586.315 572.253 570.469 572.773 554.542C572.835 552.5 573.033 550.468 573.241 547.248C570.101 550.045 570.569 552.6 570.517 554.904C570.143 571.334 571.068 587.713 572.222 604.102C573.927 628.208 573.137 652.304 570.964 676.36C570.808 678.171 570.777 678.171 573.324 681.451Z" fill="#06122E"/>
<path d="M523.527 685.402C520.969 640.983 520.543 596.977 522.674 552.598C525.772 553.654 525.086 555.988 525.024 557.991C524.514 572.72 523.724 587.439 523.496 602.168C523.184 622.421 524.161 642.663 524.858 662.906C525.065 668.932 525.013 674.959 524.972 680.985C524.951 682.343 525.544 683.943 523.527 685.402Z" fill="#06122E"/>
<path d="M564.612 468.572C553.208 468.572 541.751 468.572 529.37 468.572C529.609 423.529 530.336 379.392 529.629 335.154C542.011 336.583 553.54 337.841 564.685 336.714C568.479 380.61 563.624 424.888 564.612 468.572ZM563.313 374.704C558.354 374.1 553.364 374.14 548.134 374.462C548.134 380.237 548.134 385.469 548.134 391.204C553.426 390.872 558.364 391.133 563.313 389.312C563.313 384.684 563.313 380.207 563.313 374.704ZM562.554 426.578C562.554 421.89 562.554 417.453 562.554 412.583C557.668 412.815 552.917 413.026 547.823 413.267C548.041 418.197 547.355 422.805 548.384 427.514C553.073 428.389 557.46 427.524 562.554 426.578ZM532.405 430.602C532.405 435.955 532.405 440.885 532.405 445.915C536.875 447.424 541.075 446.931 545.826 446.609C545.473 441.116 545.13 435.904 544.776 430.431C540.556 430.512 536.699 429.556 532.405 430.602ZM549.049 449.567C547.874 455.453 548.706 460.634 549.236 465.946C553.883 466.107 557.938 466.671 562.107 465.564C561.275 460.101 562.387 454.748 560.994 449.577C556.961 449.567 553.218 449.567 549.049 449.567ZM532.707 393.83C532.707 399.263 532.707 404.333 532.707 409.484C536.803 410.229 540.483 410.571 544.298 410.279C544.298 404.454 544.298 399.071 544.298 393.628C540.306 393.146 536.73 392.854 532.707 393.83ZM533.289 371.203C537.208 371.364 540.847 372.38 544.288 371.303C544.288 365.398 544.288 359.814 544.288 354.23C540.421 354.23 537.042 354.23 533.289 354.23C533.289 360.025 533.289 365.428 533.289 371.203ZM547.937 351.091C552.823 350.296 557.314 350.829 561.847 349.3C562.346 346.262 562.346 343.354 561.909 340.326C557.636 339.058 553.457 338.756 549.101 339.531C547.999 343.193 547.615 346.745 547.937 351.091Z" fill="#06122E"/>
<path d="M573.324 457.625C575.102 452.665 574.093 448.279 574.374 444.113C575.83 422.211 577.108 400.248 574.738 378.355C573.023 362.489 572.253 346.643 572.773 330.717C572.836 328.675 573.033 326.642 573.241 323.423C570.101 326.22 570.569 328.775 570.517 331.079C570.143 347.509 571.068 363.888 572.222 380.277C573.927 404.383 573.137 428.479 570.964 452.534C570.808 454.345 570.777 454.345 573.324 457.625Z" fill="#06122E"/>
<path d="M523.527 461.577C520.969 417.158 520.543 373.152 522.674 328.773C525.772 329.829 525.086 332.163 525.024 334.165C524.515 348.895 523.724 363.614 523.496 378.343C523.184 398.596 524.161 418.838 524.858 439.081C525.066 445.107 525.014 451.134 524.972 457.16C524.951 458.518 525.544 460.118 523.527 461.577Z" fill="#06122E"/>
<path d="M564.612 359.185C553.208 359.185 541.751 359.185 529.37 359.185C529.609 314.143 530.337 270.005 529.63 225.767C542.011 227.196 553.54 228.454 564.685 227.327C568.48 271.223 563.625 315.501 564.612 359.185ZM563.313 265.317C558.354 264.713 553.364 264.754 548.135 265.075C548.135 270.85 548.135 276.082 548.135 281.817C553.426 281.485 558.364 281.746 563.313 279.925C563.313 275.297 563.313 270.82 563.313 265.317ZM562.554 317.191C562.554 312.503 562.554 308.066 562.554 303.196C557.668 303.428 552.917 303.639 547.823 303.88C548.041 308.81 547.355 313.418 548.384 318.127C553.073 319.002 557.46 318.137 562.554 317.191ZM532.405 321.215C532.405 326.568 532.405 331.498 532.405 336.528C536.876 338.037 541.076 337.544 545.827 337.222C545.473 331.729 545.13 326.517 544.777 321.044C540.556 321.125 536.699 320.169 532.405 321.215ZM549.049 340.18C547.875 346.066 548.706 351.247 549.236 356.559C553.884 356.72 557.938 357.284 562.107 356.177C561.275 350.714 562.387 345.362 560.994 340.19C556.961 340.18 553.218 340.18 549.049 340.18ZM532.707 284.443C532.707 289.876 532.707 294.946 532.707 300.098C536.803 300.842 540.483 301.184 544.298 300.892C544.298 295.067 544.298 289.684 544.298 284.241C540.306 283.759 536.73 283.467 532.707 284.443ZM533.289 261.816C537.208 261.977 540.847 262.993 544.288 261.916C544.288 256.011 544.288 250.427 544.288 244.843C540.421 244.843 537.042 244.843 533.289 244.843C533.289 250.638 533.289 256.041 533.289 261.816ZM547.937 241.704C552.823 240.909 557.314 241.442 561.847 239.913C562.346 236.875 562.346 233.967 561.909 230.939C557.637 229.671 553.457 229.369 549.101 230.144C547.999 233.806 547.615 237.358 547.937 241.704Z" fill="#06122E"/>
<path d="M573.324 226.22C575.102 231.18 574.093 235.567 574.374 239.732C575.829 261.635 577.108 283.598 574.738 305.49C573.022 321.356 572.253 337.202 572.773 353.129C572.835 355.171 573.033 357.203 573.241 360.423C570.101 357.626 570.569 355.071 570.517 352.767C570.143 336.337 571.068 319.958 572.222 303.569C573.927 279.463 573.137 255.367 570.964 231.311C570.808 229.5 570.777 229.5 573.324 226.22Z" fill="#06122E"/>
<path d="M523.527 356.629C520.97 312.21 520.543 268.204 522.675 223.825C525.773 224.882 525.086 227.216 525.024 229.218C524.515 243.947 523.725 258.666 523.496 273.395C523.184 293.648 524.161 313.891 524.858 334.133C525.066 340.16 525.014 346.186 524.972 352.213C524.951 353.571 525.544 355.171 523.527 356.629Z" fill="#06122E"/>
<path d="M564.612 135.36C553.208 135.36 541.751 135.36 529.37 135.36C529.609 90.3171 530.337 46.1799 529.63 1.94206C542.011 3.37071 553.54 4.62831 564.685 3.50148C568.48 47.3973 563.625 91.6753 564.612 135.36ZM563.313 41.4915C558.354 40.8879 553.364 40.9281 548.135 41.2501C548.135 47.025 548.135 52.2567 548.135 57.9914C553.426 57.6594 558.364 57.9209 563.313 56.0999C563.313 51.4719 563.313 46.9948 563.313 41.4915ZM562.554 93.3656C562.554 88.6772 562.554 84.2403 562.554 79.3708C557.668 79.6022 552.917 79.8135 547.823 80.055C548.041 84.9848 547.355 89.5927 548.384 94.3012C553.073 95.1765 557.46 94.3113 562.554 93.3656ZM532.405 97.39C532.405 102.742 532.405 107.672 532.405 112.703C536.876 114.212 541.076 113.719 545.827 113.397C545.473 107.904 545.13 102.692 544.777 97.2189C540.556 97.2994 536.699 96.3436 532.405 97.39ZM549.049 116.355C547.875 122.24 548.706 127.422 549.236 132.734C553.884 132.895 557.938 133.458 562.107 132.352C561.275 126.889 562.387 121.536 560.994 116.365C556.961 116.355 553.218 116.355 549.049 116.355ZM532.707 60.6173C532.707 66.0502 532.707 71.1209 532.707 76.2721C536.803 77.0166 540.483 77.3587 544.298 77.0669C544.298 71.2416 544.298 65.859 544.298 60.4161C540.306 59.9332 536.73 59.6414 532.707 60.6173ZM533.289 37.9903C537.208 38.1512 540.847 39.1674 544.288 38.0909C544.288 32.1852 544.288 26.6013 544.288 21.0175C540.421 21.0175 537.042 21.0175 533.289 21.0175C533.289 26.8126 533.289 32.2153 533.289 37.9903ZM547.937 17.8785C552.823 17.0837 557.314 17.617 561.847 16.0877C562.346 13.0493 562.346 10.1417 561.909 7.11333C557.637 5.84565 553.457 5.54384 549.101 6.31853C547.999 9.98071 547.615 13.5322 547.937 17.8785Z" fill="#06122E"/>
<path d="M573.324 2.39519C575.102 7.35523 574.093 11.7418 574.374 15.9071C575.829 37.8097 577.108 59.7726 574.738 81.6652C573.022 97.5312 572.253 113.377 572.773 129.304C572.835 131.346 573.033 133.378 573.241 136.598C570.101 133.801 570.569 131.245 570.517 128.941C570.143 112.512 571.068 96.1327 572.222 79.7435C573.927 55.6376 573.137 31.5417 570.964 7.48607C570.808 5.67511 570.777 5.67505 573.324 2.39519Z" fill="#06122E"/>
<path d="M523.527 132.804C520.97 88.3855 520.543 44.3791 522.675 0.000366388C525.773 1.05676 525.086 3.39088 525.024 5.39301C524.515 20.1222 523.725 34.8413 523.496 49.5705C523.184 69.8231 524.161 90.0656 524.858 110.308C525.066 116.335 525.014 122.361 524.972 128.388C524.951 129.746 525.544 131.346 523.527 132.804Z" fill="#06122E"/>
<path d="M564.612 247.455C553.208 247.455 541.751 247.455 529.37 247.455C529.609 202.412 530.336 158.275 529.63 114.037C542.011 115.466 553.54 116.723 564.685 115.596C568.48 159.492 563.625 203.77 564.612 247.455ZM563.313 153.586C558.354 152.983 553.364 153.023 548.134 153.345C548.134 159.12 548.134 164.352 548.134 170.086C553.426 169.754 558.364 170.016 563.313 168.195C563.313 163.567 563.313 159.09 563.313 153.586ZM562.554 205.46C562.554 200.772 562.554 196.335 562.554 191.466C557.668 191.697 552.917 191.908 547.823 192.15C548.041 197.08 547.355 201.688 548.384 206.396C553.073 207.271 557.46 206.406 562.554 205.46ZM532.405 209.485C532.405 214.837 532.405 219.767 532.405 224.798C536.876 226.307 541.076 225.814 545.827 225.492C545.473 219.998 545.13 214.787 544.777 209.314C540.556 209.394 536.699 208.439 532.405 209.485ZM549.049 228.45C547.875 234.335 548.706 239.517 549.236 244.829C553.883 244.99 557.938 245.553 562.107 244.447C561.275 238.983 562.387 233.631 560.994 228.46C556.961 228.45 553.218 228.45 549.049 228.45ZM532.707 172.712C532.707 178.145 532.707 183.216 532.707 188.367C536.803 189.112 540.483 189.454 544.298 189.162C544.298 183.337 544.298 177.954 544.298 172.511C540.306 172.028 536.73 171.736 532.707 172.712ZM533.289 150.085C537.208 150.246 540.847 151.262 544.288 150.186C544.288 144.28 544.288 138.696 544.288 133.112C540.421 133.112 537.042 133.112 533.289 133.112C533.289 138.907 533.289 144.31 533.289 150.085ZM547.937 129.973C552.823 129.179 557.314 129.712 561.847 128.183C562.346 125.144 562.346 122.237 561.909 119.208C557.636 117.941 553.457 117.639 549.101 118.413C547.999 122.076 547.615 125.627 547.937 129.973Z" fill="#06122E"/>
<path d="M573.324 236.507C575.102 231.547 574.094 227.161 574.374 222.996C575.83 201.093 577.108 179.13 574.738 157.237C573.023 141.371 572.253 125.525 572.773 109.599C572.836 107.557 573.033 105.524 573.241 102.305C570.101 105.102 570.569 107.657 570.517 109.961C570.143 126.391 571.068 142.77 572.222 159.159C573.927 183.265 573.137 207.361 570.964 231.417C570.808 233.227 570.777 233.228 573.324 236.507Z" fill="#06122E"/>
<path d="M523.527 240.459C520.97 196.04 520.543 152.034 522.675 107.655C525.773 108.712 525.086 111.046 525.024 113.048C524.515 127.777 523.725 142.496 523.496 157.225C523.184 177.478 524.161 197.72 524.858 217.963C525.066 223.989 525.014 230.016 524.972 236.042C524.951 237.401 525.544 239 523.527 240.459Z" fill="#06122E"/>
<path d="M132.111 681.447C132.286 670.044 132.462 658.589 132.652 646.208C162.759 646.909 192.254 648.09 221.838 647.837C220.693 660.202 219.675 671.717 220.258 682.872C190.855 686.216 161.33 680.907 132.111 681.447ZM194.882 681.11C195.362 676.158 195.412 671.168 195.277 665.936C191.416 665.877 187.919 665.823 184.085 665.765C184.226 671.059 183.975 675.994 185.117 680.96C188.21 681.008 191.203 681.054 194.882 681.11ZM160.216 679.819C163.35 679.867 166.316 679.913 169.572 679.963C169.492 675.075 169.424 670.322 169.34 665.226C166.041 665.394 162.971 664.661 159.808 665.642C159.151 670.321 159.662 674.716 160.216 679.819ZM157.988 649.633C154.41 649.578 151.115 649.528 147.752 649.476C146.674 653.93 146.939 658.135 147.082 662.889C150.759 662.592 154.249 662.302 157.913 662.005C157.924 657.784 158.622 653.937 157.988 649.633ZM145.055 666.081C141.138 664.846 137.662 665.624 134.103 666.1C133.924 670.745 133.485 674.793 134.161 678.973C137.826 678.197 141.387 679.364 144.865 678.024C144.934 673.991 144.991 670.249 145.055 666.081ZM182.566 650.312C178.934 650.256 175.545 650.204 172.101 650.151C171.54 654.239 171.255 657.915 171.392 661.733C175.286 661.793 178.884 661.848 182.523 661.904C182.907 657.917 183.157 654.345 182.566 650.312ZM197.683 651.126C197.516 655.043 196.781 658.671 197.447 662.123C201.396 662.183 205.128 662.24 208.861 662.298C208.92 658.431 208.972 655.053 209.03 651.3C205.156 651.241 201.544 651.185 197.683 651.126ZM210.904 665.978C211.36 670.872 210.935 675.357 211.887 679.905C213.911 680.435 215.855 680.465 217.886 680.06C218.799 675.8 219.065 671.625 218.614 667.261C216.182 666.122 213.814 665.701 210.904 665.978Z" fill="#06122E"/>
<path d="M220.865 691.521C217.522 693.248 214.605 692.195 211.816 692.433C197.152 693.663 182.45 694.716 167.851 692.122C157.271 690.244 146.69 689.312 136.035 689.669C134.669 689.71 133.307 689.887 131.152 690.062C133.069 686.951 134.771 687.445 136.312 687.417C147.3 687.211 158.236 688.304 169.174 689.626C185.263 691.578 201.383 691.035 217.498 689.109C218.711 688.972 218.711 688.941 220.865 691.521Z" fill="#06122E"/>
<path d="M134.45 640.393C164.183 638.291 193.608 638.316 223.243 640.902C222.489 643.989 220.939 643.279 219.602 643.196C209.763 642.536 199.935 641.595 190.092 641.215C176.558 640.696 163.011 641.465 149.468 641.954C145.436 642.1 141.408 641.986 137.38 641.883C136.473 641.848 135.394 642.424 134.45 640.393Z" fill="#06122E"/>
<path d="M57.1754 680.297C57.3504 668.894 57.5261 657.439 57.7161 645.059C87.8235 645.76 117.318 646.94 146.902 646.687C145.757 659.053 144.74 670.568 145.322 681.722C115.919 685.066 86.3937 679.758 57.1754 680.297ZM119.946 679.961C120.426 675.008 120.476 670.019 120.341 664.787C116.48 664.727 112.983 664.674 109.149 664.615C109.29 669.909 109.039 674.844 110.181 679.811C113.275 679.858 116.268 679.904 119.946 679.961ZM85.2802 678.67C88.4144 678.718 91.3805 678.763 94.6358 678.813C94.556 673.925 94.4877 669.173 94.4044 664.077C91.1054 664.245 88.0355 663.511 84.8721 664.492C84.215 669.171 84.7262 673.567 85.2802 678.67ZM83.0524 648.483C79.4743 648.429 76.1787 648.378 72.8159 648.326C71.7384 652.781 72.0036 656.985 72.1459 661.739C75.8236 661.442 79.3128 661.152 82.977 660.855C82.988 656.634 83.686 652.787 83.0524 648.483ZM70.1191 664.931C66.2026 663.696 62.726 664.475 59.1667 664.95C58.9878 669.595 58.549 673.643 59.2249 677.823C62.8897 677.047 66.4507 678.214 69.9291 676.875C69.9977 672.842 70.0551 669.099 70.1191 664.931ZM107.63 649.162C103.998 649.106 100.609 649.054 97.1651 649.002C96.6046 653.089 96.3195 656.766 96.456 660.584C100.35 660.643 103.948 660.699 107.587 660.754C107.971 656.768 108.221 653.195 107.63 649.162ZM122.748 649.976C122.58 653.893 121.845 657.521 122.512 660.973C126.46 661.034 130.192 661.091 133.925 661.148C133.985 657.281 134.036 653.903 134.094 650.15C130.22 650.091 126.608 650.036 122.748 649.976ZM135.968 664.829C136.424 669.723 135.999 674.208 136.951 678.755C138.975 679.286 140.919 679.315 142.95 678.91C143.863 674.651 144.129 670.475 143.678 666.112C141.246 664.972 138.878 664.551 135.968 664.829Z" fill="#06122E"/>
<path d="M64.3599 689.12C67.6484 690.949 70.5963 689.986 73.3765 690.309C87.9961 691.989 102.659 693.493 117.33 691.347C127.963 689.795 138.568 689.188 149.207 689.871C150.571 689.954 151.927 690.173 154.076 690.414C152.254 687.246 150.539 687.687 148.999 687.612C138.022 687.069 127.058 687.826 116.084 688.812C99.9432 690.269 83.8473 689.232 67.7993 686.813C66.5911 686.639 66.5915 686.607 64.3599 689.12Z" fill="#06122E"/>
<path d="M62.4823 639.289C92.2156 637.187 121.641 637.212 151.275 639.798C150.521 642.885 148.972 642.175 147.634 642.092C137.795 641.432 127.968 640.491 118.125 640.111C104.591 639.591 91.0435 640.361 77.5007 640.85C73.4687 640.996 69.4408 640.882 65.4127 640.779C64.5051 640.744 63.4266 641.32 62.4823 639.289Z" fill="#06122E"/>
<path d="M206.803 682.593C206.978 671.19 207.154 659.735 207.344 647.354C237.451 648.055 266.946 649.236 296.53 648.983C295.385 661.348 294.367 672.863 294.949 684.018C265.547 687.362 236.021 682.053 206.803 682.593ZM269.574 682.256C270.054 677.304 270.103 672.314 269.968 667.082C266.108 667.023 262.61 666.969 258.777 666.91C258.918 672.205 258.667 677.14 259.808 682.106C262.902 682.154 265.895 682.2 269.574 682.256ZM234.908 680.965C238.042 681.013 241.008 681.059 244.263 681.109C244.184 676.221 244.115 671.468 244.032 666.372C240.733 666.54 237.663 665.807 234.5 666.788C233.843 671.467 234.354 675.862 234.908 680.965ZM232.68 650.779C229.102 650.724 225.806 650.674 222.444 650.622C221.366 655.076 221.631 659.281 221.774 664.035C225.451 663.738 228.94 663.448 232.605 663.151C232.616 658.93 233.314 655.083 232.68 650.779ZM219.747 667.227C215.83 665.992 212.354 666.77 208.794 667.246C208.615 671.891 208.177 675.939 208.852 680.118C212.517 679.343 216.078 680.51 219.557 679.17C219.625 675.137 219.683 671.395 219.747 667.227ZM257.258 651.458C253.626 651.402 250.236 651.35 246.793 651.297C246.232 655.385 245.947 659.061 246.084 662.879C249.978 662.939 253.576 662.994 257.215 663.05C257.599 659.063 257.849 655.49 257.258 651.458ZM272.375 652.272C272.208 656.189 271.472 659.817 272.139 663.269C276.087 663.329 279.82 663.386 283.553 663.444C283.612 659.577 283.664 656.198 283.722 652.446C279.848 652.386 276.236 652.331 272.375 652.272ZM285.595 667.124C286.052 672.018 285.626 676.503 286.579 681.051C288.603 681.581 290.546 681.611 292.578 681.205C293.491 676.946 293.756 672.771 293.305 668.407C290.874 667.268 288.506 666.847 285.595 667.124Z" fill="#06122E"/>
<path d="M213.987 691.416C217.276 693.244 220.224 692.281 223.004 692.604C237.624 694.284 252.286 695.788 266.958 693.643C277.591 692.09 288.195 691.484 298.834 692.167C300.199 692.25 301.554 692.468 303.703 692.709C301.882 689.541 300.166 689.983 298.627 689.907C287.649 689.365 276.686 690.122 265.712 691.107C249.571 692.565 233.475 691.528 217.427 689.109C216.219 688.934 216.219 688.903 213.987 691.416Z" fill="#06122E"/>
<path d="M212.11 641.584C241.843 639.483 271.268 639.508 300.903 642.094C300.149 645.181 298.599 644.471 297.261 644.388C287.423 643.727 277.595 642.786 267.752 642.407C254.218 641.887 240.671 642.657 227.128 643.145C223.096 643.291 219.068 643.178 215.04 643.074C214.132 643.04 213.054 643.616 212.11 641.584Z" fill="#06122E"/>
<path d="M279.928 683.715C280.103 672.312 280.279 660.857 280.469 648.476C310.576 649.177 340.071 650.358 369.655 650.105C368.51 662.47 367.492 673.985 368.075 685.14C338.672 688.484 309.147 683.175 279.928 683.715ZM342.699 683.378C343.179 678.426 343.229 673.436 343.094 668.204C339.233 668.145 335.736 668.091 331.902 668.033C332.043 673.327 331.792 678.262 332.934 683.228C336.028 683.276 339.02 683.322 342.699 683.378ZM308.033 682.087C311.167 682.135 314.133 682.181 317.389 682.231C317.309 677.343 317.241 672.59 317.157 667.494C313.858 667.662 310.789 666.929 307.625 667.91C306.968 672.589 307.479 676.984 308.033 682.087ZM305.805 651.901C302.227 651.846 298.932 651.796 295.569 651.744C294.491 656.198 294.757 660.403 294.899 665.157C298.577 664.86 302.066 664.57 305.73 664.273C305.741 660.052 306.439 656.205 305.805 651.901ZM292.872 668.349C288.956 667.114 285.479 667.892 281.92 668.368C281.741 673.013 281.302 677.061 281.978 681.24C285.643 680.465 289.204 681.632 292.682 680.292C292.751 676.259 292.808 672.517 292.872 668.349ZM330.383 652.58C326.751 652.524 323.362 652.472 319.918 652.419C319.358 656.507 319.072 660.183 319.209 664.001C323.103 664.061 326.701 664.116 330.34 664.172C330.724 660.185 330.974 656.612 330.383 652.58ZM345.501 653.394C345.333 657.311 344.598 660.939 345.265 664.391C349.213 664.451 352.945 664.508 356.678 664.566C356.738 660.699 356.789 657.32 356.847 653.568C352.973 653.508 349.361 653.453 345.501 653.394ZM358.721 668.246C359.177 673.14 358.752 677.625 359.704 682.173C361.728 682.703 363.672 682.733 365.703 682.327C366.616 678.068 366.882 673.893 366.431 669.529C363.999 668.39 361.631 667.969 358.721 668.246Z" fill="#06122E"/>
<path d="M368.682 693.789C365.339 695.516 362.422 694.462 359.633 694.7C344.969 695.931 330.267 696.984 315.668 694.39C305.088 692.512 294.507 691.58 283.852 691.937C282.486 691.978 281.124 692.155 278.969 692.33C280.887 689.219 282.588 689.713 284.129 689.685C295.118 689.479 306.053 690.572 316.991 691.894C333.08 693.846 349.2 693.303 365.315 691.377C366.528 691.24 366.529 691.209 368.682 693.789Z" fill="#06122E"/>
<path d="M282.267 642.661C312.001 640.559 341.426 640.584 371.06 643.17C370.306 646.257 368.756 645.547 367.419 645.464C357.58 644.804 347.753 643.863 337.91 643.483C324.376 642.963 310.828 643.733 297.286 644.222C293.254 644.368 289.226 644.254 285.198 644.151C284.29 644.116 283.212 644.692 282.267 642.661Z" fill="#06122E"/>
<path d="M429.556 686.01C429.731 674.607 429.907 663.152 430.097 650.772C460.204 651.473 489.699 652.653 519.283 652.4C518.138 664.766 517.12 676.281 517.702 687.436C488.3 690.779 458.774 685.471 429.556 686.01ZM492.327 685.674C492.807 680.722 492.856 675.732 492.721 670.5C488.861 670.441 485.363 670.387 481.53 670.328C481.671 675.622 481.42 680.557 482.561 685.524C485.655 685.571 488.648 685.617 492.327 685.674ZM457.661 684.383C460.795 684.431 463.761 684.476 467.016 684.526C466.937 679.639 466.868 674.886 466.785 669.79C463.486 669.958 460.416 669.224 457.253 670.205C456.596 674.884 457.107 679.28 457.661 684.383ZM455.433 654.197C451.855 654.142 448.559 654.091 445.196 654.04C444.119 658.494 444.384 662.698 444.527 667.452C448.204 667.155 451.693 666.866 455.358 666.568C455.369 662.347 456.067 658.5 455.433 654.197ZM442.5 670.644C438.583 669.409 435.107 670.188 431.547 670.663C431.368 675.308 430.93 679.356 431.605 683.536C435.27 682.761 438.831 683.928 442.31 682.588C442.378 678.555 442.436 674.813 442.5 670.644ZM480.011 654.875C476.379 654.82 472.989 654.768 469.546 654.715C468.985 658.803 468.7 662.479 468.837 666.297C472.731 666.357 476.329 666.412 479.968 666.468C480.352 662.481 480.602 658.908 480.011 654.875ZM495.128 655.689C494.961 659.607 494.225 663.234 494.892 666.686C498.84 666.747 502.573 666.804 506.306 666.861C506.365 662.994 506.417 659.616 506.475 655.864C502.601 655.804 498.989 655.749 495.128 655.689ZM508.348 670.542C508.805 675.436 508.379 679.921 509.332 684.469C511.356 684.999 513.299 685.029 515.331 684.623C516.244 680.364 516.509 676.188 516.058 671.825C513.627 670.685 511.259 670.264 508.348 670.542Z" fill="#06122E"/>
<path d="M518.309 696.085C514.966 697.811 512.049 696.758 509.261 696.996C494.596 698.227 479.895 699.28 465.296 696.685C454.715 694.807 444.134 693.876 433.479 694.232C432.113 694.274 430.752 694.45 428.596 694.625C430.514 691.515 432.215 692.009 433.756 691.98C444.745 691.774 455.68 692.868 466.619 694.19C482.708 696.142 498.828 695.599 514.942 693.673C516.155 693.536 516.156 693.504 518.309 696.085Z" fill="#06122E"/>
<path d="M431.895 644.956C461.628 642.855 491.053 642.88 520.687 645.466C519.934 648.553 518.384 647.843 517.046 647.76C507.208 647.099 497.38 646.158 487.537 645.779C474.003 645.259 460.456 646.029 446.913 646.517C442.881 646.663 438.853 646.55 434.825 646.446C433.917 646.412 432.839 646.988 431.895 644.956Z" fill="#06122E"/>
<path d="M354.62 684.861C354.795 673.458 354.971 662.002 355.161 649.622C385.269 650.323 414.763 651.504 444.347 651.25C443.202 663.616 442.185 675.131 442.767 686.286C413.364 689.63 383.839 684.321 354.62 684.861ZM417.391 684.524C417.871 679.572 417.921 674.582 417.786 669.35C413.925 669.291 410.428 669.237 406.594 669.178C406.735 674.473 406.484 679.408 407.626 684.374C410.72 684.422 413.713 684.468 417.391 684.524ZM382.725 683.233C385.859 683.281 388.825 683.327 392.081 683.377C392.001 678.489 391.933 673.736 391.849 668.64C388.55 668.808 385.481 668.075 382.317 669.055C381.66 673.735 382.171 678.13 382.725 683.233ZM380.497 653.047C376.919 652.992 373.624 652.942 370.261 652.89C369.183 657.344 369.449 661.549 369.591 666.303C373.269 666.005 376.758 665.716 380.422 665.419C380.433 661.197 381.131 657.351 380.497 653.047ZM367.564 669.495C363.648 668.26 360.171 669.038 356.612 669.514C356.433 674.159 355.994 678.207 356.67 682.386C360.335 681.611 363.896 682.778 367.374 681.438C367.443 677.405 367.5 673.663 367.564 669.495ZM405.075 653.726C401.443 653.67 398.054 653.618 394.61 653.565C394.05 657.653 393.764 661.329 393.901 665.147C397.795 665.207 401.393 665.262 405.032 665.318C405.416 661.331 405.666 657.758 405.075 653.726ZM420.193 654.54C420.025 658.457 419.29 662.085 419.957 665.536C423.905 665.597 427.637 665.654 431.37 665.712C431.43 661.845 431.481 658.466 431.539 654.714C427.665 654.654 424.053 654.599 420.193 654.54ZM433.413 669.392C433.869 674.286 433.444 678.771 434.396 683.319C436.42 683.849 438.364 683.879 440.395 683.473C441.308 679.214 441.574 675.038 441.123 670.675C438.691 669.536 436.323 669.115 433.413 669.392Z" fill="#06122E"/>
<path d="M361.805 693.684C365.094 695.512 368.042 694.549 370.822 694.872C385.441 696.552 400.104 698.056 414.776 695.911C425.408 694.358 436.013 693.751 446.652 694.435C448.016 694.518 449.372 694.736 451.521 694.977C449.699 691.809 447.984 692.251 446.444 692.175C435.467 691.632 424.503 692.39 413.529 693.375C397.388 694.833 381.292 693.796 365.245 691.376C364.036 691.202 364.037 691.171 361.805 693.684Z" fill="#06122E"/>
<path d="M359.927 643.852C389.661 641.75 419.085 641.776 448.72 644.362C447.966 647.449 446.416 646.739 445.079 646.656C435.24 645.995 425.413 645.054 415.57 644.674C402.036 644.155 388.488 644.924 374.946 645.413C370.914 645.559 366.886 645.446 362.858 645.342C361.95 645.307 360.871 645.884 359.927 643.852Z" fill="#06122E"/>
</svg>
