<svg width="57" height="638" viewBox="0 0 57 638" fill="none" xmlns="http://www.w3.org/2000/svg">
<path d="M44.7698 487.34C33.2235 487.34 21.6246 487.34 9.08887 487.34C9.33096 441.737 10.0677 397.051 9.35202 352.262C21.8877 353.709 33.5604 354.982 44.8435 353.841C48.6853 398.283 43.7699 443.112 44.7698 487.34ZM43.4542 392.304C38.4336 391.693 33.3814 391.733 28.0872 392.059C28.0872 397.906 28.0872 403.203 28.0872 409.009C33.4446 408.673 38.4441 408.938 43.4542 407.094C43.4542 402.408 43.4542 397.876 43.4542 392.304ZM42.6858 444.823C42.6858 440.077 42.6858 435.584 42.6858 430.654C37.7389 430.889 32.9288 431.103 27.7714 431.347C27.9924 436.338 27.2977 441.003 28.3398 445.771C33.0867 446.657 37.5284 445.781 42.6858 444.823ZM12.1623 448.898C12.1623 454.317 12.1623 459.308 12.1623 464.401C16.6882 465.929 20.9404 465.43 25.7505 465.104C25.3927 459.542 25.0453 454.266 24.6875 448.724C20.4142 448.806 16.5093 447.838 12.1623 448.898ZM29.0134 468.098C27.824 474.057 28.666 479.303 29.2028 484.681C33.9077 484.844 38.0126 485.415 42.2332 484.294C41.3912 478.763 42.5174 473.344 41.107 468.109C37.0232 468.098 33.234 468.098 29.0134 468.098ZM12.4675 411.668C12.4675 417.168 12.4675 422.302 12.4675 427.517C16.6145 428.271 20.3405 428.617 24.2033 428.322C24.2033 422.424 24.2033 416.975 24.2033 411.464C20.1616 410.975 16.5408 410.68 12.4675 411.668ZM13.0569 388.759C17.025 388.922 20.7089 389.951 24.1928 388.861C24.1928 382.882 24.1928 377.228 24.1928 371.575C20.2773 371.575 16.8566 371.575 13.0569 371.575C13.0569 377.442 13.0569 382.912 13.0569 388.759ZM27.8872 368.397C32.8341 367.592 37.3811 368.132 41.9701 366.584C42.4753 363.508 42.4753 360.564 42.0333 357.498C37.7073 356.215 33.4762 355.909 29.066 356.693C27.9503 360.401 27.5609 363.997 27.8872 368.397Z" fill="#3D2645"/>
<path d="M53.5904 352.718C55.3902 357.74 54.3692 362.181 54.6534 366.398C56.127 388.573 57.4216 410.809 55.0218 432.974C53.2851 449.037 52.5062 465.08 53.0325 481.205C53.0957 483.273 53.2956 485.33 53.5061 488.59C50.3275 485.758 50.8011 483.171 50.7485 480.838C50.3696 464.204 51.3063 447.621 52.4747 431.028C54.2008 406.623 53.4009 382.227 51.2011 357.872C51.0432 356.039 51.0116 356.039 53.5904 352.718Z" fill="#3D2645"/>
<path d="M3.17234 484.754C0.583108 439.782 0.151575 395.229 2.30928 350.298C5.44584 351.367 4.75116 353.731 4.688 355.758C4.17226 370.67 3.37234 385.572 3.14078 400.485C2.82501 420.989 3.81439 441.483 4.51959 461.978C4.7301 468.079 4.67747 474.181 4.63537 480.282C4.61432 481.657 5.21426 483.277 3.17234 484.754Z" fill="#3D2645"/>
<path d="M44.7698 260.074C33.2235 260.074 21.6246 260.074 9.08887 260.074C9.33096 214.471 10.0677 169.785 9.35202 124.997C21.8877 126.443 33.5604 127.716 44.8435 126.576C48.6853 171.017 43.7699 215.846 44.7698 260.074ZM43.4542 165.038C38.4336 164.427 33.3814 164.468 28.0872 164.794C28.0872 170.641 28.0872 175.937 28.0872 181.743C33.4446 181.407 38.4441 181.672 43.4542 179.828C43.4542 175.143 43.4542 170.61 43.4542 165.038ZM42.6858 217.558C42.6858 212.811 42.6858 208.319 42.6858 203.389C37.7389 203.623 32.9288 203.837 27.7714 204.081C27.9924 209.073 27.2977 213.738 28.3398 218.505C33.0867 219.391 37.5284 218.515 42.6858 217.558ZM12.1623 221.632C12.1623 227.051 12.1623 232.042 12.1623 237.135C16.6882 238.663 20.9404 238.164 25.7505 237.838C25.3927 232.276 25.0453 227 24.6875 221.459C20.4142 221.54 16.5093 220.573 12.1623 221.632ZM29.0134 240.833C27.824 246.792 28.666 252.037 29.2028 257.416C33.9077 257.579 38.0126 258.149 42.2332 257.029C41.3912 251.498 42.5174 246.079 41.107 240.843C37.0232 240.833 33.234 240.833 29.0134 240.833ZM12.4675 184.402C12.4675 189.902 12.4675 195.036 12.4675 200.251C16.6145 201.005 20.3405 201.352 24.2033 201.056C24.2033 195.158 24.2033 189.709 24.2033 184.198C20.1616 183.709 16.5408 183.414 12.4675 184.402ZM13.0569 161.493C17.025 161.656 20.7089 162.685 24.1928 161.595C24.1928 155.616 24.1928 149.963 24.1928 144.31C20.2773 144.31 16.8566 144.31 13.0569 144.31C13.0569 150.177 13.0569 155.647 13.0569 161.493ZM27.8872 141.132C32.8341 140.327 37.3811 140.867 41.9701 139.318C42.4753 136.242 42.4753 133.298 42.0333 130.232C37.7073 128.949 33.4762 128.643 29.066 129.428C27.9503 133.135 27.5609 136.731 27.8872 141.132Z" fill="#3D2645"/>
<path d="M53.5904 125.452C55.3902 130.474 54.3692 134.915 54.6534 139.132C56.127 161.307 57.4216 183.543 55.0218 205.708C53.2851 221.772 52.5062 237.815 53.0325 253.939C53.0957 256.007 53.2956 258.065 53.5061 261.324C50.3275 258.492 50.8011 255.905 50.7485 253.573C50.3696 236.939 51.3063 220.356 52.4747 203.763C54.2008 179.357 53.4009 154.961 51.2011 130.606C51.0432 128.773 51.0116 128.773 53.5904 125.452Z" fill="#3D2645"/>
<path d="M3.17234 257.488C0.583108 212.517 0.151575 167.963 2.30928 123.032C5.44584 124.102 4.75116 126.465 4.688 128.492C4.17226 143.404 3.37234 158.307 3.14078 173.219C2.82501 193.723 3.81439 214.218 4.51959 234.712C4.7301 240.814 4.67747 246.915 4.63537 253.017C4.61432 254.392 5.21426 256.011 3.17234 257.488Z" fill="#3D2645"/>
<path d="M44.7728 600.82C33.2265 600.82 21.6275 600.82 9.0918 600.82C9.33389 555.217 10.0707 510.531 9.35495 465.743C21.8907 467.189 33.5633 468.463 44.8465 467.322C48.6882 511.764 43.7729 556.592 44.7728 600.82ZM43.4571 505.784C38.4365 505.173 33.3843 505.214 28.0901 505.54C28.0901 511.387 28.0901 516.683 28.0901 522.489C33.4475 522.153 38.447 522.418 43.4571 520.574C43.4571 515.889 43.4571 511.356 43.4571 505.784ZM42.6888 558.304C42.6888 553.557 42.6888 549.065 42.6888 544.135C37.7418 544.369 32.9317 544.583 27.7743 544.827C27.9954 549.819 27.3007 554.484 28.3427 559.251C33.0896 560.137 37.5313 559.261 42.6888 558.304ZM12.1652 562.378C12.1652 567.797 12.1652 572.788 12.1652 577.881C16.6911 579.409 20.9434 578.91 25.7534 578.584C25.3956 573.023 25.0482 567.746 24.6904 562.205C20.4171 562.286 16.5122 561.319 12.1652 562.378ZM29.0163 581.579C27.8269 587.538 28.669 592.784 29.2058 598.162C33.9106 598.325 38.0155 598.895 42.2362 597.775C41.3941 592.244 42.5204 586.825 41.11 581.589C37.0261 581.579 33.237 581.579 29.0163 581.579ZM12.4704 525.148C12.4704 530.649 12.4704 535.782 12.4704 540.998C16.6174 541.751 20.3434 542.098 24.2062 541.802C24.2062 535.905 24.2062 530.455 24.2062 524.944C20.1645 524.455 16.5438 524.16 12.4704 525.148ZM13.0599 502.24C17.0279 502.403 20.7118 503.431 24.1957 502.341C24.1957 496.362 24.1957 490.709 24.1957 485.056C20.2803 485.056 16.8595 485.056 13.0599 485.056C13.0599 490.923 13.0599 496.393 13.0599 502.24ZM27.8901 481.878C32.837 481.073 37.384 481.613 41.973 480.065C42.4783 476.988 42.4783 474.044 42.0362 470.978C37.7103 469.695 33.4791 469.389 29.069 470.174C27.9533 473.882 27.5638 477.477 27.8901 481.878Z" fill="#3D2645"/>
<path d="M53.5903 589.739C55.3902 584.717 54.3692 580.276 54.6534 576.059C56.1269 553.884 57.4216 531.648 55.0218 509.483C53.2851 493.42 52.5062 477.377 53.0325 461.252C53.0956 459.184 53.2956 457.127 53.5061 453.867C50.3275 456.699 50.8011 459.286 50.7485 461.619C50.3696 478.253 51.3063 494.836 52.4746 511.429C54.2008 535.834 53.4009 560.23 51.2011 584.585C51.0432 586.418 51.0116 586.418 53.5903 589.739Z" fill="#3D2645"/>
<path d="M3.17234 593.738C0.583108 548.767 0.151575 504.213 2.30928 459.282C5.44584 460.352 4.75116 462.715 4.688 464.742C4.17226 479.654 3.37234 494.557 3.14078 509.469C2.82501 529.973 3.81439 550.468 4.51959 570.962C4.7301 577.064 4.67747 583.165 4.63537 589.267C4.61432 590.642 5.21426 592.261 3.17234 593.738Z" fill="#3D2645"/>
<path d="M11.5798 491.039C23.1261 491.039 34.725 491.039 47.2607 491.039C47.0187 536.642 46.2819 581.328 46.9976 626.116C34.4619 624.67 22.7893 623.397 11.5061 624.538C7.66433 580.096 12.5797 535.267 11.5798 491.039ZM12.8954 586.075C17.916 586.686 22.9682 586.645 28.2625 586.32C28.2625 580.473 28.2625 575.176 28.2625 569.37C22.905 569.706 17.9055 569.441 12.8954 571.285C12.8954 575.971 12.8954 580.503 12.8954 586.075ZM13.6638 533.556C13.6638 538.302 13.6638 542.794 13.6638 547.725C18.6107 547.49 23.4208 547.276 28.5782 547.032C28.3572 542.041 29.0519 537.375 28.0099 532.608C23.2629 531.722 18.8212 532.598 13.6638 533.556ZM44.1873 529.481C44.1873 524.062 44.1873 519.071 44.1873 513.978C39.6614 512.45 35.4092 512.949 30.5991 513.275C30.957 518.837 31.3043 524.113 31.6622 529.654C35.9355 529.573 39.8404 530.541 44.1873 529.481ZM27.3362 510.281C28.5256 504.322 27.6836 499.076 27.1468 493.698C22.4419 493.535 18.337 492.964 14.1164 494.085C14.9584 499.616 13.8322 505.035 15.2426 510.27C19.3264 510.281 23.1156 510.281 27.3362 510.281ZM43.8821 566.711C43.8821 561.211 43.8821 556.077 43.8821 550.862C39.7351 550.108 36.0091 549.762 32.1463 550.057C32.1463 555.955 32.1463 561.404 32.1463 566.915C36.1881 567.404 39.8088 567.699 43.8821 566.711ZM43.2927 589.62C39.3246 589.457 35.6407 588.428 32.1568 589.518C32.1568 595.497 32.1568 601.15 32.1568 606.804C36.0723 606.804 39.493 606.804 43.2927 606.804C43.2927 600.937 43.2927 595.467 43.2927 589.62ZM28.4624 609.982C23.5155 610.786 18.9686 610.247 14.3795 611.795C13.8743 614.871 13.8743 617.815 14.3164 620.881C18.6423 622.164 22.8735 622.47 27.2836 621.686C28.3993 617.978 28.7887 614.382 28.4624 609.982Z" fill="#3D2645"/>
<path d="M2.76221 502.12C0.962368 507.142 1.98332 511.583 1.69913 515.8C0.225582 537.975 -1.06903 560.211 1.33075 582.376C3.06744 598.44 3.84631 614.483 3.32004 630.607C3.25689 632.675 3.05691 634.733 2.8464 637.992C6.02506 635.16 5.55142 632.573 5.60404 630.241C5.98296 613.607 5.0462 597.024 3.87789 580.431C2.15173 556.025 2.95166 531.629 5.15146 507.274C5.30934 505.441 5.34092 505.441 2.76221 502.12Z" fill="#3D2645"/>
<path d="M53.1802 498.121C55.7694 543.093 56.201 587.646 54.0433 632.577C50.9067 631.508 51.6014 629.144 51.6645 627.117C52.1803 612.205 52.9802 597.303 53.2118 582.39C53.5275 561.886 52.5382 541.392 51.833 520.897C51.6224 514.796 51.6751 508.694 51.7172 502.593C51.7382 501.218 51.1383 499.598 53.1802 498.121Z" fill="#3D2645"/>
<path d="M44.7698 374.223C33.2235 374.223 21.6246 374.223 9.08887 374.223C9.33096 328.62 10.0677 283.933 9.35202 239.145C21.8877 240.592 33.5604 241.865 44.8435 240.724C48.6853 285.166 43.7699 329.995 44.7698 374.223ZM43.4542 279.187C38.4336 278.576 33.3814 278.616 28.0872 278.942C28.0872 284.789 28.0872 290.086 28.0872 295.892C33.4446 295.556 38.4441 295.82 43.4542 293.977C43.4542 289.291 43.4542 284.758 43.4542 279.187ZM42.6858 331.706C42.6858 326.959 42.6858 322.467 42.6858 317.537C37.7389 317.771 32.9288 317.985 27.7714 318.23C27.9924 323.221 27.2977 327.886 28.3398 332.653C33.0867 333.54 37.5284 332.664 42.6858 331.706ZM12.1623 335.78C12.1623 341.199 12.1623 346.191 12.1623 351.284C16.6882 352.812 20.9404 352.312 25.7505 351.986C25.3927 346.425 25.0453 341.148 24.6875 335.607C20.4142 335.689 16.5093 334.721 12.1623 335.78ZM29.0134 354.981C27.824 360.94 28.666 366.186 29.2028 371.564C33.9077 371.727 38.0126 372.298 42.2332 371.177C41.3912 365.646 42.5174 360.227 41.107 354.991C37.0232 354.981 33.234 354.981 29.0134 354.981ZM12.4675 298.55C12.4675 304.051 12.4675 309.185 12.4675 314.4C16.6145 315.154 20.3405 315.5 24.2033 315.205C24.2033 309.307 24.2033 303.857 24.2033 298.347C20.1616 297.858 16.5408 297.562 12.4675 298.55ZM13.0569 275.642C17.025 275.805 20.7089 276.834 24.1928 275.744C24.1928 269.765 24.1928 264.111 24.1928 258.458C20.2773 258.458 16.8566 258.458 13.0569 258.458C13.0569 264.325 13.0569 269.795 13.0569 275.642ZM27.8872 255.28C32.8341 254.475 37.3811 255.015 41.9701 253.467C42.4753 250.391 42.4753 247.447 42.0333 244.381C37.7073 243.097 33.4762 242.792 29.066 243.576C27.9503 247.284 27.5609 250.88 27.8872 255.28Z" fill="#3D2645"/>
<path d="M53.5903 363.141C55.3902 358.12 54.3692 353.679 54.6534 349.462C56.1269 327.286 57.4216 305.05 55.0218 282.885C53.2851 266.822 52.5062 250.779 53.0325 234.654C53.0956 232.587 53.2956 230.529 53.5061 227.27C50.3275 230.101 50.8011 232.689 50.7485 235.021C50.3696 251.655 51.3063 268.238 52.4746 284.831C54.2008 309.237 53.4009 333.632 51.2011 357.987C51.0432 359.821 51.0116 359.821 53.5903 363.141Z" fill="#3D2645"/>
<path d="M3.17234 367.148C0.583108 322.177 0.151575 277.623 2.30928 232.692C5.44584 233.762 4.75116 236.125 4.688 238.152C4.17226 253.065 3.37234 267.967 3.14078 282.879C2.82501 303.384 3.81439 323.878 4.51959 344.372C4.7301 350.474 4.67747 356.575 4.63537 362.677C4.61432 364.052 5.21426 365.671 3.17234 367.148Z" fill="#3D2645"/>
<path d="M44.7698 146.953C33.2235 146.953 21.6246 146.953 9.08887 146.953C9.33096 101.35 10.0677 56.6638 9.35202 11.8757C21.8877 13.3221 33.5604 14.5954 44.8435 13.4545C48.6853 57.8964 43.7699 102.725 44.7698 146.953ZM43.4542 51.9171C38.4336 51.306 33.3814 51.3467 28.0872 51.6727C28.0872 57.5195 28.0872 62.8162 28.0872 68.6222C33.4446 68.2861 38.4441 68.5509 43.4542 66.7073C43.4542 62.0217 43.4542 57.4889 43.4542 51.9171ZM42.6858 104.436C42.6858 99.6898 42.6858 95.1977 42.6858 90.2676C37.7389 90.5019 32.9288 90.7158 27.7714 90.9603C27.9924 95.9515 27.2977 100.617 28.3398 105.384C33.0867 106.27 37.5284 105.394 42.6858 104.436ZM12.1623 108.511C12.1623 113.93 12.1623 118.921 12.1623 124.014C16.6882 125.542 20.9404 125.043 25.7505 124.717C25.3927 119.155 25.0453 113.879 24.6875 108.338C20.4142 108.419 16.5093 107.452 12.1623 108.511ZM29.0134 127.712C27.824 133.67 28.666 138.916 29.2028 144.295C33.9077 144.458 38.0126 145.028 42.2332 143.908C41.3912 138.376 42.5174 132.957 41.107 127.722C37.0232 127.712 33.234 127.712 29.0134 127.712ZM12.4675 71.2809C12.4675 76.7813 12.4675 81.9151 12.4675 87.1304C16.6145 87.8841 20.3405 88.2305 24.2033 87.9351C24.2033 82.0373 24.2033 76.5878 24.2033 71.0771C20.1616 70.5882 16.5408 70.2928 12.4675 71.2809ZM13.0569 48.3723C17.025 48.5353 20.7089 49.5641 24.1928 48.4742C24.1928 42.495 24.1928 36.8417 24.1928 31.1885C20.2773 31.1885 16.8566 31.1885 13.0569 31.1885C13.0569 37.0556 13.0569 42.5255 13.0569 48.3723ZM27.8872 28.0104C32.8341 27.2057 37.3811 27.7456 41.9701 26.1973C42.4753 23.1211 42.4753 20.1773 42.0333 17.1113C37.7073 15.8279 33.4762 15.5223 29.066 16.3066C27.9503 20.0144 27.5609 23.61 27.8872 28.0104Z" fill="#3D2645"/>
<path d="M53.5903 135.872C55.3902 130.85 54.3692 126.409 54.6534 122.192C56.1269 100.017 57.4216 77.7808 55.0218 55.6159C53.2851 39.5525 52.5062 23.5094 53.0325 7.3849C53.0956 5.31713 53.2956 3.25954 53.5061 3.68815e-07C50.3275 2.83173 50.8011 5.41897 50.7485 7.75158C50.3696 24.3854 51.3063 40.9684 52.4746 57.5615C54.2008 81.9673 53.4009 106.363 51.2011 130.718C51.0432 132.551 51.0116 132.551 53.5903 135.872Z" fill="#3D2645"/>
<path d="M3.17234 139.871C0.583108 94.8996 0.151575 50.3458 2.30928 5.41504C5.44584 6.48459 4.75116 8.84773 4.688 10.8748C4.17226 25.7872 3.37234 40.6893 3.14078 55.6017C2.82501 76.1063 3.81439 96.6006 4.51959 117.095C4.7301 123.196 4.67747 129.298 4.63537 135.399C4.61432 136.775 5.21426 138.394 3.17234 139.871Z" fill="#3D2645"/>
</svg>
